<?xml version="1.0" encoding="UTF-8"?><svg id="Layer_2" xmlns="http://www.w3.org/2000/svg" viewBox="0 0 96.06 96.06"><g id="Layer_1-2"><circle cx="48.03" cy="48.03" r="48.03"/><path d="M48.03,61.13c7.23,0,13.1-5.86,13.1-13.1s-5.86-13.1-13.1-13.1-13.1,5.86-13.1,13.1,5.86,13.1,13.1,13.1ZM48.03,56.76c4.82,0,8.73-3.91,8.73-8.73s-3.91-8.73-8.73-8.73-8.73,3.91-8.73,8.73,3.91,8.73,8.73,8.73Z" style="fill:#fff; fill-rule:evenodd;"/><path d="M61.13,32.75c-1.21,0-2.18.98-2.18,2.18s.98,2.18,2.18,2.18,2.18-.98,2.18-2.18-.98-2.18-2.18-2.18Z" style="fill:#fff;"/><path d="M25.44,31.17c-1.43,2.8-1.43,6.47-1.43,13.81v6.11c0,7.34,0,11,1.43,13.81,1.26,2.46,3.26,4.47,5.72,5.72,2.8,1.43,6.47,1.43,13.81,1.43h6.11c7.34,0,11,0,13.81-1.43,2.46-1.26,4.47-3.26,5.72-5.72,1.43-2.8,1.43-6.47,1.43-13.81v-6.11c0-7.34,0-11-1.43-13.81-1.26-2.46-3.26-4.47-5.72-5.72-2.8-1.43-6.47-1.43-13.81-1.43h-6.11c-7.34,0-11,0-13.81,1.43-2.46,1.26-4.47,3.26-5.72,5.72ZM51.08,28.38h-6.11c-3.74,0-6.28,0-8.25.16-1.91.16-2.89.44-3.58.79-1.64.84-2.98,2.17-3.82,3.82-.35.68-.63,1.66-.79,3.58-.16,1.97-.16,4.51-.16,8.25v6.11c0,3.74,0,6.28.16,8.25.16,1.91.44,2.89.79,3.58.84,1.64,2.17,2.98,3.82,3.82.68.35,1.66.63,3.58.79,1.97.16,4.51.16,8.25.16h6.11c3.74,0,6.28,0,8.25-.16,1.91-.16,2.89-.44,3.58-.79,1.64-.84,2.98-2.17,3.82-3.82.35-.68.63-1.66.79-3.58.16-1.97.16-4.51.16-8.25v-6.11c0-3.74,0-6.28-.16-8.25-.16-1.91-.44-2.89-.79-3.58-.84-1.64-2.17-2.98-3.82-3.82-.68-.35-1.66-.63-3.58-.79-1.97-.16-4.51-.16-8.25-.16Z" style="fill:#fff; fill-rule:evenodd;"/></g></svg>