<?xml version="1.0" encoding="UTF-8"?><svg id="Layer_2" xmlns="http://www.w3.org/2000/svg" viewBox="0 0 96.06 96.06"><g id="Layer_1-2"><circle cx="48.03" cy="48.03" r="48.03"/><path d="M37,73.26c1.92-1.6,5.01-6.87,5.71-9.56.38-1.45,1.93-7.35,1.93-7.35,1.01,1.92,3.96,3.55,7.09,3.55,9.33,0,16.05-8.58,16.05-19.24,0-10.22-8.34-17.87-19.07-17.87-13.35,0-20.44,8.96-20.44,18.72,0,4.54,2.42,10.19,6.28,11.98.59.27.9.15,1.03-.41.1-.43.62-2.53.86-3.51.08-.31.04-.58-.21-.89-1.28-1.55-2.3-4.4-2.3-7.06,0-6.82,5.17-13.42,13.97-13.42,7.6,0,12.92,5.18,12.92,12.59,0,8.37-4.23,14.17-9.72,14.17-3.04,0-5.31-2.51-4.58-5.59.87-3.68,2.56-7.65,2.56-10.3,0-2.38-1.28-4.36-3.91-4.36-3.1,0-5.6,3.21-5.6,7.51,0,2.74.93,4.59.93,4.59,0,0-3.07,12.96-3.63,15.38-.62,2.67-.38,6.44-.11,8.88l.25,2.19Z" style="fill:#fff;"/></g></svg>