<?xml version="1.0" encoding="UTF-8"?><svg id="Layer_2" xmlns="http://www.w3.org/2000/svg" viewBox="0 0 96.06 96.06"><g id="Layer_1-2"><circle cx="48.03" cy="48.03" r="48.03"/><path d="M62.72,32.28c-.32-.16-.63-.34-.93-.54-.87-.58-1.67-1.25-2.38-2.02-1.77-2.03-2.44-4.09-2.68-5.53h0c-.2-1.2-.12-1.97-.11-1.97h-8.08v31.23c0,.42,0,.83-.02,1.24,0,.05,0,.1,0,.15,0,.02,0,.05,0,.07v.02c-.09,1.12-.44,2.2-1.05,3.15-.6.95-1.43,1.74-2.4,2.29-1.02.58-2.17.88-3.34.88-3.76,0-6.81-3.07-6.81-6.86s3.05-6.86,6.81-6.86c.71,0,1.42.11,2.1.33v-8.22c-2.05-.27-4.13-.1-6.12.48-1.99.58-3.84,1.57-5.43,2.9-1.39,1.21-2.56,2.65-3.46,4.26-.34.59-1.63,2.95-1.78,6.78-.1,2.18.56,4.43.87,5.36v.02c.2.55.96,2.42,2.19,4,1,1.27,2.18,2.38,3.5,3.3v-.02l.02.02c3.91,2.66,8.24,2.48,8.24,2.48.75-.03,3.26,0,6.12-1.35,3.17-1.5,4.97-3.73,4.97-3.73,1.15-1.34,2.07-2.86,2.71-4.5.73-1.92.97-4.22.97-5.15v-16.57c.1.06,1.4.92,1.4.92,0,0,1.88,1.2,4.81,1.99,2.1.56,4.94.68,4.94.68v-8.02c-.99.11-3.01-.21-5.08-1.24Z" style="fill:#fff;"/></g></svg>