<?xml version="1.0" encoding="UTF-8"?><svg id="Layer_2" xmlns="http://www.w3.org/2000/svg" viewBox="0 0 96.06 96.06"><g id="Layer_1-2"><circle cx="48.03" cy="48.03" r="48.03"/><path d="M74.78,34.59c-.64-2.4-2.53-4.29-4.94-4.94-4.35-1.17-21.82-1.17-21.82-1.17,0,0-17.47,0-21.82,1.17-2.4.64-4.29,2.53-4.94,4.94-1.17,4.35-1.17,13.44-1.17,13.44,0,0,0,9.09,1.17,13.44.64,2.4,2.53,4.29,4.94,4.94,4.35,1.17,21.82,1.17,21.82,1.17,0,0,17.47,0,21.82-1.17,2.4-.64,4.29-2.53,4.94-4.94,1.17-4.35,1.17-13.44,1.17-13.44,0,0,0-9.09-1.17-13.44Z" style="fill:#fff;"/><path d="M42.44,56.41l14.51-8.38-14.51-8.38v16.75Z"/></g></svg>