<?xml version="1.0" encoding="UTF-8"?><svg id="Layer_2" xmlns="http://www.w3.org/2000/svg" viewBox="0 0 496 558"><g id="Layer_2-2"><g id="Layer_1-2"><rect width="496" height="558" style="fill:#e4e4e4;"/><rect x="66.21" width="363.58" height="558" style="fill:#fff;"/><path d="M97.07,134.15v-19.28h3.89v7.59h7.63v-7.59h3.89v19.28h-3.89v-8.43h-7.63v8.43h-3.89Z"/><path d="M116.51,134.15v-19.28h14.3v3.26h-10.4v4.27h9.68v3.25h-9.68v5.25h10.77v3.25s-14.67,0-14.67,0Z"/><path d="M151.86,134.15h-4.23l-1.68-4.38h-7.71l-1.59,4.38h-4.13l7.51-19.28h4.12l7.72,19.28h0ZM144.7,126.52l-2.66-7.16-2.6,7.16h5.26Z"/><path d="M153.92,114.86h7.12c1.6,0,2.83.12,3.67.37,1.13.33,2.1.93,2.91,1.78s1.42,1.89,1.84,3.12.63,2.75.63,4.56c0,1.59-.2,2.95-.59,4.1-.48,1.4-1.17,2.54-2.06,3.41-.68.66-1.59,1.17-2.74,1.54-.86.27-2.01.41-3.45.41h-7.33v-19.28h0ZM157.81,118.13v12.77h2.91c1.09,0,1.87-.06,2.35-.18.63-.16,1.15-.42,1.57-.8.42-.38.76-1,1.02-1.86.26-.86.39-2.04.39-3.53s-.13-2.63-.39-3.43-.63-1.42-1.1-1.87c-.47-.45-1.07-.75-1.8-.91-.54-.12-1.61-.18-3.2-.18h-1.75Z"/><path d="M173.49,134.15v-19.12h3.89v15.87h9.68v3.25h-13.57,0Z"/><path d="M189.72,134.15v-19.28h3.89v19.28h-3.89Z"/><path d="M197.36,134.15v-19.28h3.79l7.89,12.88v-12.88h3.62v19.28h-3.91l-7.77-12.57v12.57h-3.62,0Z"/><path d="M216.77,134.15v-19.28h14.3v3.26h-10.4v4.27h9.68v3.25h-9.68v5.25h10.77v3.25h-14.67Z"/><path d="M248.32,139.81h-2.54c-1.34-2.03-2.36-4.13-3.06-6.31s-1.05-4.3-1.05-6.34c0-2.53.43-4.93,1.3-7.19.75-1.96,1.71-3.78,2.87-5.43h2.52c-1.2,2.66-2.03,4.92-2.48,6.78s-.68,3.84-.68,5.92c0,1.44.13,2.91.4,4.42.27,1.51.63,2.94,1.1,4.3.31.89.85,2.18,1.62,3.85h0Z"/><path d="M253.92,134.15l-4.6-19.28h3.98l2.91,13.24,3.52-13.24h4.63l3.38,13.47,2.96-13.47h3.92l-4.68,19.28h-4.13l-3.84-14.42-3.83,14.42h-4.22Z"/><path d="M276.61,134.15v-19.28h14.3v3.26h-10.4v4.27h9.68v3.25h-9.68v5.25h10.77v3.25h-14.67,0Z"/><path d="M96.07,155.87l3.79-.37c.23,1.27.69,2.21,1.39,2.8.7.6,1.64.89,2.82.89,1.25,0,2.2-.26,2.83-.8.64-.53.95-1.15.95-1.86,0-.46-.13-.84-.4-1.16s-.73-.6-1.4-.83c-.46-.16-1.49-.44-3.12-.84-2.09-.52-3.55-1.15-4.39-1.91-1.18-1.06-1.78-2.35-1.78-3.88,0-.98.28-1.9.83-2.76.56-.85,1.36-1.51,2.41-1.95s2.31-.67,3.79-.67c2.42,0,4.24.53,5.46,1.59s1.87,2.48,1.93,4.25l-3.89.17c-.17-.99-.52-1.7-1.07-2.14-.55-.43-1.37-.65-2.47-.65s-2.02.23-2.66.7c-.41.3-.62.7-.62,1.2,0,.46.19.85.58,1.17.49.41,1.68.84,3.58,1.29,1.89.45,3.29.91,4.2,1.39.91.48,1.62,1.13,2.13,1.96.51.83.77,1.85.77,3.07,0,1.11-.31,2.14-.92,3.1s-1.48,1.68-2.6,2.15c-1.12.47-2.52.7-4.2.7-2.44,0-4.31-.56-5.62-1.69-1.31-1.13-2.09-2.77-2.34-4.93h.02Z"/><path d="M115,142.86h3.89v10.44c0,1.66.05,2.73.15,3.22.17.79.56,1.42,1.19,1.9.63.48,1.48.72,2.57.72s1.94-.23,2.5-.68.9-1.01,1.01-1.66.17-1.75.17-3.27v-10.67h3.89v10.13c0,2.32-.1,3.95-.32,4.91s-.6,1.76-1.16,2.42-1.32,1.18-2.27,1.57c-.95.39-2.18.59-3.71.59-1.84,0-3.24-.21-4.19-.64-.95-.43-1.7-.98-2.26-1.66-.55-.68-.92-1.39-1.09-2.14-.25-1.1-.38-2.74-.38-4.89v-10.29h0Z"/><path d="M143.45,155.06v-3.25h8.39v7.68c-.82.79-2,1.48-3.54,2.08s-3.11.9-4.7.9c-2.02,0-3.77-.42-5.27-1.27s-2.63-2.06-3.38-3.63-1.13-3.29-1.13-5.14c0-2.01.42-3.79,1.26-5.35.84-1.56,2.07-2.76,3.7-3.59,1.24-.64,2.78-.96,4.62-.96,2.39,0,4.26.5,5.61,1.51,1.35,1,2.21,2.39,2.6,4.16l-3.87.72c-.27-.95-.78-1.69-1.53-2.24s-1.69-.82-2.81-.82c-1.7,0-3.05.54-4.06,1.62-1,1.08-1.51,2.68-1.51,4.8,0,2.29.51,4,1.53,5.15,1.02,1.14,2.35,1.72,4,1.72.82,0,1.63-.16,2.45-.48.82-.32,1.52-.71,2.11-1.16v-2.45h-4.47Z"/><path d="M164.4,155.06v-3.25h8.39v7.68c-.82.79-2,1.48-3.54,2.08s-3.11.9-4.7.9c-2.02,0-3.77-.42-5.27-1.27s-2.63-2.06-3.38-3.63-1.13-3.29-1.13-5.14c0-2.01.42-3.79,1.26-5.35.84-1.56,2.07-2.76,3.7-3.59,1.24-.64,2.78-.96,4.62-.96,2.39,0,4.26.5,5.61,1.51,1.35,1,2.21,2.39,2.6,4.16l-3.87.72c-.27-.95-.78-1.69-1.53-2.24s-1.69-.82-2.81-.82c-1.7,0-3.05.54-4.06,1.62-1,1.08-1.51,2.68-1.51,4.8,0,2.29.51,4,1.53,5.15,1.02,1.14,2.35,1.72,4,1.72.82,0,1.63-.16,2.45-.48.82-.32,1.52-.71,2.11-1.16v-2.45h-4.47Z"/><path d="M176.38,162.15v-19.28h14.3v3.26h-10.4v4.27h9.68v3.25h-9.68v5.25h10.77v3.25h-14.67Z"/><path d="M193.36,155.87l3.79-.37c.23,1.27.69,2.21,1.39,2.8.7.6,1.64.89,2.82.89,1.25,0,2.2-.26,2.83-.8.64-.53.95-1.15.95-1.86,0-.46-.13-.84-.4-1.16s-.73-.6-1.4-.83c-.46-.16-1.49-.44-3.12-.84-2.09-.52-3.55-1.15-4.39-1.91-1.18-1.06-1.78-2.35-1.78-3.88,0-.98.28-1.9.83-2.76.56-.85,1.36-1.51,2.41-1.95s2.31-.67,3.79-.67c2.42,0,4.24.53,5.46,1.59s1.87,2.48,1.93,4.25l-3.89.17c-.17-.99-.52-1.7-1.07-2.14-.55-.43-1.37-.65-2.47-.65s-2.02.23-2.66.7c-.41.3-.62.7-.62,1.2,0,.46.19.85.58,1.17.49.41,1.68.84,3.58,1.29,1.89.45,3.29.91,4.2,1.39s1.62,1.13,2.13,1.96c.51.83.77,1.85.77,3.07,0,1.11-.31,2.14-.92,3.1s-1.48,1.68-2.6,2.15c-1.12.47-2.52.7-4.2.7-2.44,0-4.31-.56-5.62-1.69s-2.09-2.77-2.34-4.93h.02Z"/><path d="M216.65,162.15v-16.02h-5.72v-3.26h15.32v3.26h-5.71v16.02h-3.89Z"/><path d="M247.91,158.71v3.43h-12.95c.14-1.3.56-2.53,1.26-3.69s2.09-2.7,4.16-4.62c1.67-1.55,2.69-2.6,3.06-3.16.51-.76.76-1.52.76-2.26,0-.82-.22-1.46-.66-1.9-.44-.44-1.05-.66-1.83-.66s-1.39.23-1.84.7c-.46.46-.72,1.24-.79,2.31l-3.68-.37c.22-2.03.91-3.49,2.06-4.38,1.16-.89,2.6-1.33,4.34-1.33,1.9,0,3.4.51,4.48,1.54,1.09,1.03,1.63,2.3,1.63,3.83,0,.87-.16,1.69-.47,2.48s-.8,1.61-1.48,2.47c-.45.57-1.25,1.39-2.42,2.46s-1.91,1.78-2.22,2.13-.56.69-.76,1.03h7.35Z"/><path d="M258.82,162.15v-19.12h3.89v15.87h9.68v3.25h-13.57Z"/><path d="M275.05,162.15v-19.28h3.89v19.28h-3.89Z"/><path d="M282.69,162.15v-19.28h3.79l7.89,12.88v-12.88h3.62v19.28h-3.91l-7.77-12.57v12.57h-3.62Z"/><path d="M302.1,162.15v-19.28h14.3v3.26h-10.4v4.27h9.68v3.25h-9.68v5.25h10.77v3.25h-14.67,0Z"/><path d="M319.08,155.87l3.79-.37c.23,1.27.69,2.21,1.39,2.8.7.6,1.64.89,2.82.89,1.25,0,2.2-.26,2.83-.8.64-.53.95-1.15.95-1.86,0-.46-.13-.84-.4-1.16s-.73-.6-1.4-.83c-.46-.16-1.49-.44-3.12-.84-2.09-.52-3.55-1.15-4.39-1.91-1.18-1.06-1.78-2.35-1.78-3.88,0-.98.28-1.9.83-2.76.56-.85,1.36-1.51,2.41-1.95s2.31-.67,3.79-.67c2.42,0,4.24.53,5.46,1.59s1.87,2.48,1.93,4.25l-3.89.17c-.17-.99-.52-1.7-1.07-2.14-.55-.43-1.37-.65-2.47-.65s-2.02.23-2.66.7c-.41.3-.62.7-.62,1.2,0,.46.19.85.58,1.17.49.41,1.68.84,3.58,1.29,1.89.45,3.29.91,4.2,1.39s1.62,1.13,2.13,1.96.77,1.85.77,3.07c0,1.11-.31,2.14-.92,3.1-.61.96-1.48,1.68-2.6,2.15s-2.52.7-4.2.7c-2.44,0-4.31-.56-5.62-1.69s-2.09-2.77-2.34-4.93h.02Z"/><path d="M336.98,167.81c.73-1.56,1.24-2.76,1.54-3.59.3-.83.57-1.79.83-2.88.25-1.09.44-2.12.57-3.1s.18-1.98.18-3.01c0-2.09-.22-4.06-.67-5.92s-1.27-4.12-2.47-6.78h2.51c1.32,1.89,2.35,3.88,3.08,6,.73,2.11,1.1,4.26,1.1,6.43,0,1.83-.29,3.8-.87,5.89-.66,2.35-1.74,4.67-3.25,6.96h-2.55Z"/><path d="M98.4,191.81v-6.95h-2.59v-.93h6.24v.93h-2.6v6.95h-1.05Z"/><path d="M102.99,191.81v-7.87h.97v2.83c.45-.52,1.02-.78,1.71-.78.42,0,.79.08,1.1.25s.53.4.67.69c.13.29.2.72.2,1.28v3.62h-.97v-3.62c0-.48-.1-.83-.31-1.05s-.51-.33-.89-.33c-.29,0-.56.07-.81.22s-.43.35-.54.6-.16.61-.16,1.05v3.12h-.97,0Z"/><path d="M109.12,185.04v-1.11h.97v1.11h-.97ZM109.12,191.81v-5.7h.97v5.7h-.97Z"/><path d="M111.17,190.1l.96-.15c.05.38.2.68.45.88.25.2.59.31,1.03.31s.77-.09.99-.27.32-.39.32-.64c0-.22-.09-.39-.28-.52-.13-.09-.46-.2-.99-.33-.71-.18-1.2-.33-1.47-.46-.27-.13-.48-.31-.62-.54s-.21-.49-.21-.77c0-.25.06-.49.17-.71.12-.22.27-.4.48-.54.15-.11.36-.21.62-.28.26-.08.54-.12.83-.12.45,0,.84.06,1.18.19.34.13.59.3.75.52s.27.51.33.88l-.95.13c-.04-.29-.17-.52-.37-.69-.21-.17-.5-.25-.87-.25-.44,0-.76.07-.95.22-.19.15-.28.32-.28.52,0,.13.04.24.12.34.08.1.2.19.37.26.1.04.38.12.85.25.68.18,1.16.33,1.43.45s.48.29.64.51c.15.22.23.5.23.83s-.09.63-.28.91c-.19.29-.46.5-.81.66s-.76.23-1.2.23c-.74,0-1.31-.15-1.69-.46-.39-.31-.64-.76-.74-1.37h-.04Z"/><path d="M120.12,185.04v-1.11h.97v1.11h-.97ZM120.12,191.81v-5.7h.97v5.7h-.97Z"/><path d="M122.55,191.81v-5.7h.87v.81c.42-.63,1.02-.94,1.82-.94.34,0,.66.06.95.19.29.12.5.29.65.49.14.2.24.44.3.71.04.18.05.49.05.94v3.51h-.97v-3.47c0-.39-.04-.69-.11-.88s-.21-.35-.4-.47-.42-.17-.67-.17c-.41,0-.77.13-1.07.39s-.45.76-.45,1.49v3.12h-.97v-.02Z"/><path d="M130.78,190.94l.14.85c-.27.06-.52.09-.73.09-.35,0-.62-.06-.82-.17-.19-.11-.33-.26-.41-.44s-.12-.56-.12-1.14v-3.28h-.71v-.75h.71v-1.41l.96-.58v1.99h.97v.75h-.97v3.33c0,.28.02.45.05.53s.09.14.17.19.19.07.33.07c.11,0,.25,0,.42-.04h0Z"/><path d="M131.72,191.81v-5.7h.87v.86c.22-.4.43-.67.61-.8.19-.13.4-.19.62-.19.33,0,.66.1.99.31l-.33.9c-.24-.14-.47-.21-.71-.21-.21,0-.4.06-.57.19s-.29.3-.36.53c-.11.34-.16.72-.16,1.13v2.99h-.97.01Z"/><path d="M135.03,188.95c0-1.06.29-1.84.88-2.35.49-.42,1.09-.63,1.79-.63.78,0,1.43.26,1.92.77s.75,1.22.75,2.13c0,.73-.11,1.31-.33,1.73s-.54.75-.96.98c-.42.23-.88.35-1.38.35-.8,0-1.44-.26-1.94-.77-.49-.51-.74-1.25-.74-2.21h.01ZM136.02,188.95c0,.73.16,1.28.48,1.64.32.36.72.54,1.2.54s.88-.18,1.2-.55.48-.92.48-1.67c0-.71-.16-1.24-.48-1.6-.32-.36-.72-.55-1.2-.55s-.88.18-1.2.54c-.32.36-.48.91-.48,1.64h0Z"/><path d="M145.21,191.81v-.72c-.36.57-.89.85-1.6.85-.45,0-.87-.13-1.25-.38s-.68-.6-.89-1.05-.31-.97-.31-1.55.09-1.09.28-1.55.47-.82.85-1.07.8-.37,1.27-.37c.34,0,.65.07.92.22.27.14.49.33.66.57v-2.83h.96v7.87h-.9,0ZM142.15,188.96c0,.73.15,1.28.46,1.64.31.36.67.54,1.09.54s.78-.17,1.08-.52c.29-.35.44-.87.44-1.58,0-.78-.15-1.35-.45-1.72s-.67-.55-1.11-.55-.79.18-1.08.53c-.29.35-.43.9-.43,1.66h0Z"/><path d="M151.36,191.81v-.84c-.44.64-1.05.97-1.81.97-.34,0-.65-.06-.94-.19-.29-.13-.51-.29-.65-.49-.14-.2-.24-.43-.3-.72-.04-.19-.06-.49-.06-.9v-3.53h.97v3.16c0,.5.02.85.06,1.02.06.25.19.45.39.6.2.14.44.22.73.22s.56-.07.82-.22.43-.35.54-.61.16-.63.16-1.12v-3.06h.97v5.7h-.88Z"/><path d="M157.47,189.72l.95.12c-.1.66-.37,1.17-.8,1.54-.43.37-.95.56-1.58.56-.78,0-1.41-.25-1.88-.77-.47-.51-.71-1.24-.71-2.19,0-.62.1-1.15.31-1.62s.51-.81.93-1.04.87-.35,1.36-.35c.62,0,1.13.16,1.52.47s.65.76.76,1.33l-.94.14c-.09-.38-.25-.67-.48-.86s-.5-.29-.82-.29c-.49,0-.88.17-1.19.52-.3.35-.46.9-.46,1.66s.15,1.32.44,1.67c.29.35.68.52,1.15.52.38,0,.7-.12.95-.35.25-.23.42-.59.48-1.07h.01Z"/><path d="M161.35,190.94l.14.85c-.27.06-.52.09-.73.09-.35,0-.62-.06-.82-.17-.19-.11-.33-.26-.41-.44s-.12-.56-.12-1.14v-3.28h-.71v-.75h.71v-1.41l.96-.58v1.99h.97v.75h-.97v3.33c0,.28.02.45.05.53s.09.14.17.19.19.07.33.07c.11,0,.25,0,.42-.04h0Z"/><path d="M162.31,185.04v-1.11h.97v1.11h-.97ZM162.31,191.81v-5.7h.97v5.7h-.97Z"/><path d="M164.38,188.95c0-1.06.29-1.84.88-2.35.49-.42,1.09-.63,1.79-.63.78,0,1.43.26,1.92.77s.75,1.22.75,2.13c0,.73-.11,1.31-.33,1.73s-.54.75-.96.98c-.42.23-.88.35-1.38.35-.8,0-1.44-.26-1.94-.77-.49-.51-.74-1.25-.74-2.21h.01ZM165.38,188.95c0,.73.16,1.28.48,1.64.32.36.72.54,1.2.54s.88-.18,1.2-.55.48-.92.48-1.67c0-.71-.16-1.24-.48-1.6-.32-.36-.72-.55-1.2-.55s-.88.18-1.2.54c-.32.36-.48.91-.48,1.64h0Z"/><path d="M170.86,191.81v-5.7h.87v.81c.42-.63,1.02-.94,1.82-.94.34,0,.66.06.95.19.29.12.5.29.65.49.14.2.24.44.3.71.04.18.05.49.05.94v3.51h-.97v-3.47c0-.39-.04-.69-.11-.88s-.21-.35-.4-.47c-.19-.12-.42-.17-.67-.17-.41,0-.77.13-1.07.39s-.45.76-.45,1.49v3.12h-.97v-.02Z"/><path d="M183.76,191.1c-.36.3-.7.52-1.03.64-.33.13-.69.19-1.07.19-.63,0-1.11-.15-1.44-.46-.34-.31-.5-.7-.5-1.17,0-.28.06-.53.19-.77.13-.23.29-.42.5-.56s.44-.25.7-.32c.19-.05.48-.1.86-.14.78-.09,1.36-.2,1.72-.33v-.25c0-.39-.09-.67-.27-.83-.25-.22-.61-.33-1.1-.33-.45,0-.79.08-1.01.24s-.38.44-.48.85l-.95-.13c.09-.4.23-.73.42-.98.2-.25.48-.44.85-.58.37-.13.8-.2,1.29-.2s.88.06,1.19.17c.3.11.53.26.67.43s.24.39.3.66c.03.17.05.46.05.89v1.29c0,.9.02,1.47.06,1.71s.12.47.24.68h-1.01c-.1-.2-.16-.44-.19-.7h0ZM183.68,188.94c-.35.14-.88.27-1.58.37-.4.06-.68.12-.84.19s-.29.18-.38.31-.13.29-.13.46c0,.26.1.47.29.64.19.17.48.26.86.26s.7-.08.99-.24.5-.39.64-.67c.1-.22.16-.54.16-.97v-.35h0Z"/><path d="M189.85,191.81v-.72c-.36.57-.89.85-1.6.85-.45,0-.87-.13-1.25-.38s-.68-.6-.89-1.05-.31-.97-.31-1.55.09-1.09.28-1.55.47-.82.85-1.07.8-.37,1.27-.37c.34,0,.65.07.92.22.27.14.49.33.66.57v-2.83h.96v7.87h-.9,0ZM186.8,188.96c0,.73.15,1.28.46,1.64.31.36.67.54,1.09.54s.78-.17,1.08-.52c.29-.35.44-.87.44-1.58,0-.78-.15-1.35-.45-1.72s-.67-.55-1.11-.55-.79.18-1.08.53c-.29.35-.43.9-.43,1.66h0Z"/><path d="M195.97,191.81v-.72c-.36.57-.89.85-1.6.85-.45,0-.87-.13-1.25-.38s-.68-.6-.89-1.05-.31-.97-.31-1.55.09-1.09.28-1.55.47-.82.85-1.07.8-.37,1.27-.37c.34,0,.65.07.92.22.27.14.49.33.66.57v-2.83h.96v7.87h-.9,0ZM192.92,188.96c0,.73.15,1.28.46,1.64.31.36.67.54,1.09.54s.78-.17,1.08-.52c.29-.35.44-.87.44-1.58,0-.78-.15-1.35-.45-1.72s-.67-.55-1.11-.55-.79.18-1.08.53c-.29.35-.43.9-.43,1.66h0Z"/><path d="M198,190.1l.96-.15c.05.38.2.68.45.88.25.2.59.31,1.03.31s.77-.09.99-.27.32-.39.32-.64c0-.22-.09-.39-.28-.52-.13-.09-.46-.2-.99-.33-.71-.18-1.2-.33-1.47-.46s-.48-.31-.62-.54-.21-.49-.21-.77c0-.25.06-.49.17-.71.12-.22.27-.4.48-.54.15-.11.36-.21.62-.28.26-.08.54-.12.83-.12.45,0,.84.06,1.18.19s.59.3.75.52.27.51.33.88l-.95.13c-.04-.29-.17-.52-.37-.69-.21-.17-.5-.25-.87-.25-.44,0-.76.07-.95.22s-.28.32-.28.52c0,.13.04.24.12.34.08.1.2.19.37.26.1.04.38.12.85.25.68.18,1.16.33,1.43.45.27.12.48.29.64.51.15.22.23.5.23.83s-.09.63-.28.91c-.19.29-.46.5-.81.66-.35.16-.76.23-1.2.23-.74,0-1.31-.15-1.69-.46-.39-.31-.64-.76-.74-1.37h-.04Z"/><path d="M210.67,189.72l.95.12c-.1.66-.37,1.17-.8,1.54-.43.37-.95.56-1.58.56-.78,0-1.41-.25-1.88-.77-.47-.51-.71-1.24-.71-2.19,0-.62.1-1.15.31-1.62s.51-.81.93-1.04.87-.35,1.36-.35c.62,0,1.13.16,1.52.47s.65.76.76,1.33l-.94.14c-.09-.38-.25-.67-.48-.86s-.5-.29-.82-.29c-.49,0-.88.17-1.19.52-.3.35-.46.9-.46,1.66s.15,1.32.44,1.67c.29.35.68.52,1.15.52.38,0,.7-.12.95-.35.25-.23.42-.59.48-1.07h.01Z"/><path d="M212.08,188.95c0-1.06.29-1.84.88-2.35.49-.42,1.09-.63,1.79-.63.78,0,1.43.26,1.92.77s.75,1.22.75,2.13c0,.73-.11,1.31-.33,1.73s-.54.75-.96.98c-.42.23-.88.35-1.38.35-.8,0-1.44-.26-1.94-.77-.49-.51-.74-1.25-.74-2.21h.01ZM213.08,188.95c0,.73.16,1.28.48,1.64.32.36.72.54,1.2.54s.88-.18,1.2-.55.48-.92.48-1.67c0-.71-.16-1.24-.48-1.6-.32-.36-.72-.55-1.2-.55s-.88.18-1.2.54c-.32.36-.48.91-.48,1.64h0Z"/><path d="M218.56,191.81v-5.7h.87v.81c.42-.63,1.02-.94,1.82-.94.34,0,.66.06.95.19.29.12.5.29.65.49.14.2.24.44.3.71.04.18.05.49.05.94v3.51h-.97v-3.47c0-.39-.04-.69-.11-.88s-.21-.35-.4-.47c-.19-.12-.42-.17-.67-.17-.41,0-.77.13-1.07.39s-.45.76-.45,1.49v3.12h-.97v-.02Z"/><path d="M226.79,190.94l.14.85c-.27.06-.52.09-.73.09-.35,0-.62-.06-.82-.17-.19-.11-.33-.26-.41-.44s-.12-.56-.12-1.14v-3.28h-.71v-.75h.71v-1.41l.96-.58v1.99h.97v.75h-.97v3.33c0,.28.02.45.05.53s.09.14.17.19.19.07.33.07c.11,0,.25,0,.42-.04h0Z"/><path d="M231.64,189.97l1,.12c-.16.58-.45,1.04-.88,1.36s-.97.48-1.63.48c-.83,0-1.5-.26-1.98-.77-.49-.51-.73-1.24-.73-2.16s.25-1.71.74-2.23c.49-.53,1.14-.79,1.92-.79s1.39.26,1.87.78.73,1.25.73,2.19v.26h-4.25c.04.63.21,1.11.53,1.44s.72.5,1.19.5c.35,0,.66-.09.91-.28s.45-.48.6-.89h-.02ZM228.47,188.41h3.19c-.04-.48-.16-.84-.37-1.08-.31-.37-.71-.56-1.2-.56-.44,0-.82.15-1.12.45-.3.3-.47.7-.5,1.19h0Z"/><path d="M233.21,191.81l2.08-2.96-1.93-2.74h1.21l.88,1.34c.16.25.3.47.4.64.16-.24.3-.45.44-.63l.96-1.35h1.15l-1.97,2.69,2.12,3.02h-1.19l-1.17-1.77-.31-.48-1.5,2.25h-1.17Z"/><path d="M241.46,190.94l.14.85c-.27.06-.52.09-.73.09-.35,0-.62-.06-.82-.17-.19-.11-.33-.26-.41-.44s-.12-.56-.12-1.14v-3.28h-.71v-.75h.71v-1.41l.96-.58v1.99h.97v.75h-.97v3.33c0,.28.02.45.05.53s.09.14.17.19.19.07.33.07c.11,0,.25,0,.42-.04h0Z"/><path d="M247.58,190.94l.14.85c-.27.06-.52.09-.73.09-.35,0-.62-.06-.82-.17-.19-.11-.33-.26-.41-.44s-.12-.56-.12-1.14v-3.28h-.71v-.75h.71v-1.41l.96-.58v1.99h.97v.75h-.97v3.33c0,.28.02.45.05.53s.09.14.17.19.19.07.33.07c.11,0,.25,0,.42-.04h0Z"/><path d="M248.16,188.95c0-1.06.29-1.84.88-2.35.49-.42,1.09-.63,1.79-.63.78,0,1.43.26,1.92.77s.75,1.22.75,2.13c0,.73-.11,1.31-.33,1.73s-.54.75-.96.98c-.42.23-.88.35-1.38.35-.8,0-1.44-.26-1.94-.77-.49-.51-.74-1.25-.74-2.21h.01ZM249.16,188.95c0,.73.16,1.28.48,1.64.32.36.72.54,1.2.54s.88-.18,1.2-.55.48-.92.48-1.67c0-.71-.16-1.24-.48-1.6-.32-.36-.72-.55-1.2-.55s-.88.18-1.2.54c-.32.36-.48.91-.48,1.64h0Z"/><path d="M259.81,190.94l.14.85c-.27.06-.52.09-.73.09-.35,0-.62-.06-.82-.17-.19-.11-.33-.26-.41-.44s-.12-.56-.12-1.14v-3.28h-.71v-.75h.71v-1.41l.96-.58v1.99h.97v.75h-.97v3.33c0,.28.02.45.05.53s.09.14.17.19c.08.05.19.07.33.07.11,0,.25,0,.42-.04h.01Z"/><path d="M260.75,191.81v-7.87h.97v2.83c.45-.52,1.02-.78,1.71-.78.42,0,.79.08,1.1.25s.53.4.67.69c.13.29.2.72.2,1.28v3.62h-.97v-3.62c0-.48-.1-.83-.31-1.05s-.51-.33-.89-.33c-.29,0-.56.07-.81.22s-.43.35-.54.6c-.11.25-.16.61-.16,1.05v3.12h-.97Z"/><path d="M270.77,189.97l1,.12c-.16.58-.45,1.04-.88,1.36s-.97.48-1.63.48c-.83,0-1.5-.26-1.98-.77-.49-.51-.73-1.24-.73-2.16s.25-1.71.74-2.23c.49-.53,1.14-.79,1.92-.79s1.39.26,1.87.78c.48.52.73,1.25.73,2.19v.26h-4.25c.04.63.21,1.11.53,1.44s.72.5,1.19.5c.35,0,.66-.09.91-.28s.45-.48.6-.89h-.02ZM267.6,188.41h3.19c-.04-.48-.16-.84-.37-1.08-.31-.37-.71-.56-1.2-.56-.44,0-.82.15-1.12.45s-.47.7-.5,1.19Z"/><path d="M276.04,191.81v-7.87h.97v2.83c.45-.52,1.02-.78,1.71-.78.42,0,.79.08,1.1.25s.53.4.67.69c.13.29.2.72.2,1.28v3.62h-.97v-3.62c0-.48-.1-.83-.31-1.05s-.51-.33-.89-.33c-.29,0-.56.07-.81.22s-.43.35-.54.6c-.11.25-.16.61-.16,1.05v3.12h-.97Z"/><path d="M286.07,189.97l1,.12c-.16.58-.45,1.04-.88,1.36s-.97.48-1.63.48c-.83,0-1.5-.26-1.98-.77-.49-.51-.73-1.24-.73-2.16s.25-1.71.74-2.23c.49-.53,1.14-.79,1.92-.79s1.39.26,1.87.78c.48.52.73,1.25.73,2.19v.26h-4.25c.04.63.21,1.11.53,1.44s.72.5,1.19.5c.35,0,.66-.09.91-.28s.45-.48.6-.89h-.02ZM282.89,188.41h3.19c-.04-.48-.16-.84-.37-1.08-.31-.37-.71-.56-1.2-.56-.44,0-.82.15-1.12.45s-.47.7-.5,1.19Z"/><path d="M292,191.1c-.36.3-.7.52-1.03.64-.33.13-.69.19-1.07.19-.63,0-1.11-.15-1.44-.46-.34-.31-.5-.7-.5-1.17,0-.28.06-.53.19-.77.13-.23.29-.42.5-.56s.44-.25.7-.32c.19-.05.48-.1.86-.14.78-.09,1.36-.2,1.72-.33v-.25c0-.39-.09-.67-.27-.83-.25-.22-.61-.33-1.1-.33-.45,0-.79.08-1.01.24s-.38.44-.48.85l-.95-.13c.09-.4.23-.73.42-.98.2-.25.48-.44.85-.58.37-.13.8-.2,1.29-.2s.88.06,1.19.17c.3.11.53.26.67.43s.24.39.3.66c.03.17.05.46.05.89v1.29c0,.9.02,1.47.06,1.71s.12.47.24.68h-1.01c-.1-.2-.16-.44-.19-.7h.01ZM291.92,188.94c-.35.14-.88.27-1.58.37-.4.06-.68.12-.84.19s-.29.18-.38.31-.13.29-.13.46c0,.26.1.47.29.64s.48.26.86.26.7-.08.99-.24.5-.39.64-.67c.1-.22.16-.54.16-.97v-.35h-.01Z"/><path d="M298.1,191.81v-.72c-.36.57-.89.85-1.6.85-.45,0-.87-.13-1.25-.38s-.68-.6-.89-1.05c-.21-.45-.31-.97-.31-1.55s.09-1.09.28-1.55.47-.82.85-1.07.8-.37,1.27-.37c.34,0,.65.07.92.22.27.14.49.33.66.57v-2.83h.96v7.87h-.9.01ZM295.04,188.96c0,.73.15,1.28.46,1.64s.67.54,1.09.54.78-.17,1.08-.52c.29-.35.44-.87.44-1.58,0-.78-.15-1.35-.45-1.72s-.67-.55-1.11-.55-.79.18-1.08.53c-.29.35-.43.9-.43,1.66h0Z"/><path d="M300.49,191.81v-7.87h.97v7.87h-.97Z"/><path d="M302.96,185.04v-1.11h.97v1.11h-.97ZM302.96,191.81v-5.7h.97v5.7h-.97Z"/><path d="M305.4,191.81v-5.7h.87v.81c.42-.63,1.02-.94,1.82-.94.34,0,.66.06.95.19.29.12.5.29.65.49.14.2.24.44.3.71.04.18.05.49.05.94v3.51h-.97v-3.47c0-.39-.04-.69-.11-.88s-.21-.35-.4-.47-.42-.17-.67-.17c-.41,0-.77.13-1.07.39-.3.26-.45.76-.45,1.49v3.12h-.97v-.02Z"/><path d="M315.42,189.97l1,.12c-.16.58-.45,1.04-.88,1.36s-.97.48-1.63.48c-.83,0-1.5-.26-1.98-.77-.49-.51-.73-1.24-.73-2.16s.25-1.71.74-2.23c.49-.53,1.14-.79,1.92-.79s1.39.26,1.87.78c.48.52.73,1.25.73,2.19v.26h-4.25c.04.63.21,1.11.53,1.44s.72.5,1.19.5c.35,0,.66-.09.91-.28s.45-.48.6-.89h-.02ZM312.25,188.41h3.19c-.04-.48-.16-.84-.37-1.08-.31-.37-.71-.56-1.2-.56-.44,0-.82.15-1.12.45s-.47.7-.5,1.19Z"/><path d="M317.89,191.81v-1.1h1.1v1.1c0,.4-.07.73-.21.98-.14.25-.37.44-.68.58l-.27-.41c.2-.09.35-.22.45-.39s.15-.42.16-.75h-.55Z"/><path d="M323.75,193.99v-7.89h.88v.74c.21-.29.44-.51.7-.65.26-.15.58-.22.95-.22.49,0,.92.12,1.29.38.37.25.65.6.84,1.06.19.46.28.96.28,1.5,0,.58-.1,1.11-.31,1.58s-.51.83-.91,1.07c-.4.25-.82.37-1.26.37-.32,0-.61-.07-.87-.2-.26-.14-.47-.31-.63-.52v2.78h-.97,0ZM324.63,188.99c0,.73.15,1.28.45,1.63.3.35.66.53,1.08.53s.8-.18,1.1-.54c.31-.36.46-.93.46-1.69s-.15-1.27-.45-1.63c-.3-.36-.66-.54-1.07-.54s-.78.19-1.09.58c-.32.38-.48.94-.48,1.68v-.02Z"/><path d="M329.86,191.81v-5.7h.87v.86c.22-.4.43-.67.61-.8.19-.13.4-.19.62-.19.33,0,.66.1.99.31l-.33.9c-.24-.14-.47-.21-.71-.21-.21,0-.4.06-.57.19s-.29.3-.36.53c-.11.34-.16.72-.16,1.13v2.99h-.97.01Z"/><path d="M333.17,188.95c0-1.06.29-1.84.88-2.35.49-.42,1.09-.63,1.79-.63.78,0,1.43.26,1.92.77s.75,1.22.75,2.13c0,.73-.11,1.31-.33,1.73s-.54.75-.96.98c-.42.23-.88.35-1.38.35-.8,0-1.44-.26-1.94-.77-.49-.51-.74-1.25-.74-2.21h0ZM334.16,188.95c0,.73.16,1.28.48,1.64s.72.54,1.2.54.88-.18,1.2-.55.48-.92.48-1.67c0-.71-.16-1.24-.48-1.6s-.72-.55-1.2-.55-.88.18-1.2.54-.48.91-.48,1.64h0Z"/><path d="M341.23,191.81l-2.17-5.7h1.02l1.22,3.42c.13.37.25.75.37,1.15.09-.3.21-.66.36-1.08l1.27-3.48h.99l-2.16,5.7h-.9,0Z"/><path d="M345.15,185.04v-1.11h.97v1.11h-.97ZM345.15,191.81v-5.7h.97v5.7h-.97Z"/><path d="M351.29,191.81v-.72c-.36.57-.89.85-1.6.85-.45,0-.87-.13-1.25-.38s-.68-.6-.89-1.05c-.21-.45-.31-.97-.31-1.55s.09-1.09.28-1.55.47-.82.85-1.07.8-.37,1.27-.37c.34,0,.65.07.92.22.27.14.49.33.66.57v-2.83h.96v7.87h-.9.01ZM348.24,188.96c0,.73.15,1.28.46,1.64s.67.54,1.09.54.78-.17,1.08-.52c.29-.35.44-.87.44-1.58,0-.78-.15-1.35-.45-1.72s-.67-.55-1.11-.55-.79.18-1.08.53c-.29.35-.43.9-.43,1.66h0Z"/><path d="M357.61,189.97l1,.12c-.16.58-.45,1.04-.88,1.36s-.97.48-1.63.48c-.83,0-1.5-.26-1.98-.77-.49-.51-.73-1.24-.73-2.16s.25-1.71.74-2.23c.49-.53,1.14-.79,1.92-.79s1.39.26,1.87.78c.48.52.73,1.25.73,2.19v.26h-4.25c.04.63.21,1.11.53,1.44s.72.5,1.19.5c.35,0,.66-.09.91-.28s.45-.48.6-.89h-.02ZM354.44,188.41h3.19c-.04-.48-.16-.84-.37-1.08-.31-.37-.71-.56-1.2-.56-.44,0-.82.15-1.12.45s-.47.7-.5,1.19Z"/><path d="M359.44,190.1l.96-.15c.05.38.2.68.45.88.25.2.59.31,1.03.31s.77-.09.99-.27.32-.39.32-.64c0-.22-.09-.39-.28-.52-.13-.09-.46-.2-.99-.33-.71-.18-1.2-.33-1.47-.46s-.48-.31-.62-.54c-.14-.23-.21-.49-.21-.77,0-.25.06-.49.17-.71.12-.22.27-.4.48-.54.15-.11.36-.21.62-.28.26-.08.54-.12.83-.12.45,0,.84.06,1.18.19s.59.3.75.52.27.51.33.88l-.95.13c-.04-.29-.17-.52-.37-.69-.21-.17-.5-.25-.87-.25-.44,0-.76.07-.95.22s-.28.32-.28.52c0,.13.04.24.12.34.08.1.2.19.37.26.1.04.38.12.85.25.68.18,1.16.33,1.43.45s.48.29.64.51c.15.22.23.5.23.83s-.09.63-.28.91c-.19.29-.46.5-.81.66s-.76.23-1.2.23c-.74,0-1.31-.15-1.69-.46-.39-.31-.64-.76-.74-1.37h-.04Z"/><path d="M372.11,191.1c-.36.3-.7.52-1.03.64-.33.13-.69.19-1.07.19-.63,0-1.11-.15-1.44-.46-.34-.31-.5-.7-.5-1.17,0-.28.06-.53.19-.77.13-.23.29-.42.5-.56s.44-.25.7-.32c.19-.05.48-.1.86-.14.78-.09,1.36-.2,1.72-.33v-.25c0-.39-.09-.67-.27-.83-.25-.22-.61-.33-1.1-.33-.45,0-.79.08-1.01.24s-.38.44-.48.85l-.95-.13c.09-.4.23-.73.42-.98.2-.25.48-.44.85-.58.37-.13.8-.2,1.29-.2s.88.06,1.19.17c.3.11.53.26.67.43s.24.39.3.66c.03.17.05.46.05.89v1.29c0,.9.02,1.47.06,1.71s.12.47.24.68h-1.01c-.1-.2-.16-.44-.19-.7h.01ZM372.03,188.94c-.35.14-.88.27-1.58.37-.4.06-.68.12-.84.19s-.29.18-.38.31-.13.29-.13.46c0,.26.1.47.29.64s.48.26.86.26.7-.08.99-.24.5-.39.64-.67c.1-.22.16-.54.16-.97v-.35h-.01Z"/><path d="M374.5,191.81v-5.7h.87v.81c.42-.63,1.02-.94,1.82-.94.34,0,.66.06.95.19.29.12.5.29.65.49.14.2.24.44.3.71.04.18.05.49.05.94v3.51h-.97v-3.47c0-.39-.04-.69-.11-.88s-.21-.35-.4-.47-.42-.17-.67-.17c-.41,0-.77.13-1.07.39-.3.26-.45.76-.45,1.49v3.12h-.97v-.02Z"/><path d="M95.91,203.95c0-1.06.29-1.84.88-2.35.49-.42,1.09-.63,1.79-.63.78,0,1.43.26,1.92.77s.75,1.22.75,2.13c0,.73-.11,1.31-.33,1.73s-.54.75-.96.98-.88.35-1.38.35c-.8,0-1.44-.26-1.94-.77-.49-.51-.74-1.25-.74-2.21h.01ZM96.91,203.95c0,.73.16,1.28.48,1.64s.72.54,1.2.54.88-.18,1.2-.55.48-.92.48-1.67c0-.71-.16-1.24-.48-1.6s-.72-.55-1.2-.55-.88.18-1.2.54-.48.91-.48,1.64h0Z"/><path d="M103.98,206.81l-2.17-5.7h1.02l1.22,3.42c.13.37.25.75.37,1.15.09-.3.21-.66.36-1.08l1.27-3.48h.99l-2.16,5.7h-.9,0Z"/><path d="M111.8,204.97l1,.12c-.16.58-.45,1.04-.88,1.36s-.97.48-1.63.48c-.83,0-1.5-.26-1.98-.77-.49-.51-.73-1.24-.73-2.16s.25-1.71.74-2.23c.49-.53,1.14-.79,1.92-.79s1.39.26,1.87.78.73,1.25.73,2.19v.26h-4.25c.04.63.21,1.11.53,1.44s.72.5,1.19.5c.35,0,.66-.09.91-.28s.45-.48.6-.89h-.02ZM108.62,203.41h3.19c-.04-.48-.16-.84-.37-1.08-.31-.37-.71-.56-1.2-.56-.44,0-.82.15-1.12.45s-.47.7-.5,1.19Z"/><path d="M114,206.81v-5.7h.87v.86c.22-.4.43-.67.61-.8.19-.13.4-.19.62-.19.33,0,.66.1.99.31l-.33.9c-.24-.14-.47-.21-.71-.21-.21,0-.4.06-.57.19s-.29.3-.36.53c-.11.34-.16.72-.16,1.13v2.99h-.97.01Z"/><path d="M119.26,206.81l-2.17-5.7h1.02l1.22,3.42c.13.37.25.75.37,1.15.09-.3.21-.66.36-1.08l1.27-3.48h.99l-2.16,5.7h-.9,0Z"/><path d="M123.18,200.04v-1.11h.97v1.11h-.97ZM123.18,206.81v-5.7h.97v5.7h-.97Z"/><path d="M129.52,204.97l1,.12c-.16.58-.45,1.04-.88,1.36s-.97.48-1.63.48c-.83,0-1.5-.26-1.98-.77-.49-.51-.73-1.24-.73-2.16s.25-1.71.74-2.23c.49-.53,1.14-.79,1.92-.79s1.39.26,1.87.78.73,1.25.73,2.19v.26h-4.25c.04.63.21,1.11.53,1.44s.72.5,1.19.5c.35,0,.66-.09.91-.28s.45-.48.6-.89h-.02ZM126.35,203.41h3.19c-.04-.48-.16-.84-.37-1.08-.31-.37-.71-.56-1.2-.56-.44,0-.82.15-1.12.45s-.47.7-.5,1.19Z"/><path d="M132.79,206.81l-1.75-5.7h1l.91,3.29.34,1.22c0-.06.11-.45.3-1.18l.91-3.34h.99l.85,3.31.28,1.09.33-1.1.98-3.3h.94l-1.78,5.7h-1l-.91-3.42-.22-.97-1.15,4.39h-1.02Z"/><path d="M142.37,203.95c0-1.06.29-1.84.88-2.35.49-.42,1.09-.63,1.79-.63.78,0,1.43.26,1.92.77s.75,1.22.75,2.13c0,.73-.11,1.31-.33,1.73s-.54.75-.96.98c-.42.23-.88.35-1.38.35-.8,0-1.44-.26-1.94-.77-.49-.51-.74-1.25-.74-2.21h.01ZM143.37,203.95c0,.73.16,1.28.48,1.64.32.36.72.54,1.2.54s.88-.18,1.2-.55.48-.92.48-1.67c0-.71-.16-1.24-.48-1.6-.32-.36-.72-.55-1.2-.55s-.88.18-1.2.54c-.32.36-.48.91-.48,1.64h0Z"/><path d="M149.08,206.81v-4.95h-.85v-.75h.85v-.61c0-.38.03-.67.1-.85.09-.25.26-.45.49-.61.23-.16.56-.23.99-.23.27,0,.57.03.9.1l-.15.84c-.2-.04-.39-.05-.57-.05-.29,0-.5.06-.62.19s-.18.36-.18.7v.53h1.11v.75h-1.11v4.95h-.96Z"/><path d="M154.92,209l-.11-.91c.21.06.4.09.55.09.21,0,.39-.04.52-.11s.23-.17.32-.3c.06-.1.16-.34.3-.72.02-.05.05-.13.09-.24l-2.16-5.71h1.04l1.19,3.3c.15.42.29.86.41,1.32.11-.44.24-.88.4-1.3l1.22-3.32h.97l-2.17,5.8c-.23.63-.41,1.06-.54,1.29-.17.32-.37.55-.59.7s-.49.22-.79.22c-.19,0-.39-.04-.62-.12h-.03Z"/><path d="M160.1,203.95c0-1.06.29-1.84.88-2.35.49-.42,1.09-.63,1.79-.63.78,0,1.43.26,1.92.77s.75,1.22.75,2.13c0,.73-.11,1.31-.33,1.73s-.54.75-.96.98c-.42.23-.88.35-1.38.35-.8,0-1.44-.26-1.94-.77-.49-.51-.74-1.25-.74-2.21h.01ZM161.1,203.95c0,.73.16,1.28.48,1.64.32.36.72.54,1.2.54s.88-.18,1.2-.55.48-.92.48-1.67c0-.71-.16-1.24-.48-1.6-.32-.36-.72-.55-1.2-.55s-.88.18-1.2.54c-.32.36-.48.91-.48,1.64h0Z"/><path d="M170.32,206.81v-.84c-.44.64-1.05.97-1.81.97-.34,0-.65-.06-.94-.19-.29-.13-.51-.29-.65-.49-.14-.2-.24-.43-.3-.72-.04-.19-.06-.49-.06-.9v-3.53h.97v3.16c0,.5.02.85.06,1.02.06.25.19.45.39.6.2.14.44.22.73.22s.56-.07.82-.22.43-.35.54-.61.16-.63.16-1.12v-3.06h.97v5.7h-.88Z"/><path d="M172.69,206.81v-5.7h.87v.86c.22-.4.43-.67.61-.8.19-.13.4-.19.62-.19.33,0,.66.1.99.31l-.33.9c-.24-.14-.47-.21-.71-.21-.21,0-.4.06-.57.19s-.29.3-.36.53c-.11.34-.16.72-.16,1.13v2.99h-.97.01Z"/><path d="M183.32,204.97l1,.12c-.16.58-.45,1.04-.88,1.36s-.97.48-1.63.48c-.83,0-1.5-.26-1.98-.77-.49-.51-.73-1.24-.73-2.16s.25-1.71.74-2.23c.49-.53,1.14-.79,1.92-.79s1.39.26,1.87.78.73,1.25.73,2.19v.26h-4.25c.04.63.21,1.11.53,1.44s.72.5,1.19.5c.35,0,.66-.09.91-.28s.45-.48.6-.89h-.02ZM180.15,203.41h3.19c-.04-.48-.16-.84-.37-1.08-.31-.37-.71-.56-1.2-.56-.44,0-.82.15-1.12.45-.3.3-.47.7-.5,1.19h0Z"/><path d="M187.12,206.81l-2.17-5.7h1.02l1.22,3.42c.13.37.25.75.37,1.15.09-.3.21-.66.36-1.08l1.27-3.48h.99l-2.16,5.7h-.9Z"/><path d="M194.94,204.97l1,.12c-.16.58-.45,1.04-.88,1.36s-.97.48-1.63.48c-.83,0-1.5-.26-1.98-.77-.49-.51-.73-1.24-.73-2.16s.25-1.71.74-2.23c.49-.53,1.14-.79,1.92-.79s1.39.26,1.87.78.73,1.25.73,2.19v.26h-4.25c.04.63.21,1.11.53,1.44s.72.5,1.19.5c.35,0,.66-.09.91-.28s.45-.48.6-.89h-.02ZM191.77,203.41h3.19c-.04-.48-.16-.84-.37-1.08-.31-.37-.71-.56-1.2-.56-.44,0-.82.15-1.12.45-.3.3-.47.7-.5,1.19h0Z"/><path d="M197.15,206.81v-5.7h.87v.81c.42-.63,1.02-.94,1.82-.94.34,0,.66.06.95.19.29.12.5.29.65.49.14.2.24.44.3.71.04.18.05.49.05.94v3.51h-.97v-3.47c0-.39-.04-.69-.11-.88s-.21-.35-.4-.47c-.19-.12-.42-.17-.67-.17-.41,0-.77.13-1.07.39s-.45.76-.45,1.49v3.12h-.97v-.02Z"/><path d="M205.38,205.94l.14.85c-.27.06-.52.09-.73.09-.35,0-.62-.06-.82-.17-.19-.11-.33-.26-.41-.44s-.12-.56-.12-1.14v-3.28h-.71v-.75h.71v-1.41l.96-.58v1.99h.97v.75h-.97v3.33c0,.28.02.45.05.53s.09.14.17.19.19.07.33.07c.11,0,.25,0,.42-.04h0Z"/><path d="M206.58,206.81v-1.1h1.1v1.1c0,.4-.07.73-.21.98s-.37.44-.68.58l-.27-.41c.2-.09.35-.22.45-.39s.15-.42.16-.75h-.55Z"/><path d="M216.16,206.1c-.36.3-.7.52-1.03.64-.33.13-.69.19-1.07.19-.63,0-1.11-.15-1.44-.46-.34-.31-.5-.7-.5-1.17,0-.28.06-.53.19-.77.13-.23.29-.42.5-.56s.44-.25.7-.32c.19-.05.48-.1.86-.14.78-.09,1.36-.2,1.72-.33v-.25c0-.39-.09-.67-.27-.83-.25-.22-.61-.33-1.1-.33-.45,0-.79.08-1.01.24s-.38.44-.48.85l-.95-.13c.09-.4.23-.73.42-.98.2-.25.48-.44.85-.58.37-.13.8-.2,1.29-.2s.88.06,1.19.17c.3.11.53.26.67.43s.24.39.3.66c.03.17.05.46.05.89v1.29c0,.9.02,1.47.06,1.71s.12.47.24.68h-1.01c-.1-.2-.16-.44-.19-.7h0ZM216.08,203.94c-.35.14-.88.27-1.58.37-.4.06-.68.12-.84.19s-.29.18-.38.31-.13.29-.13.46c0,.26.1.47.29.64.19.17.48.26.86.26s.7-.08.99-.24.5-.39.64-.67c.1-.22.16-.54.16-.97v-.35h0Z"/><path d="M218.56,206.81v-5.7h.87v.81c.42-.63,1.02-.94,1.82-.94.34,0,.66.06.95.19.29.12.5.29.65.49.14.2.24.44.3.71.04.18.05.49.05.94v3.51h-.97v-3.47c0-.39-.04-.69-.11-.88s-.21-.35-.4-.47c-.19-.12-.42-.17-.67-.17-.41,0-.77.13-1.07.39s-.45.76-.45,1.49v3.12h-.97v-.02Z"/><path d="M228.38,206.81v-.72c-.36.57-.89.85-1.6.85-.45,0-.87-.13-1.25-.38s-.68-.6-.89-1.05-.31-.97-.31-1.55.09-1.09.28-1.55.47-.82.85-1.07.8-.37,1.27-.37c.34,0,.65.07.92.22.27.14.49.33.66.57v-2.83h.96v7.87h-.9,0ZM225.32,203.96c0,.73.15,1.28.46,1.64.31.36.67.54,1.09.54s.78-.17,1.08-.52c.29-.35.44-.87.44-1.58,0-.78-.15-1.35-.45-1.72s-.67-.55-1.11-.55-.79.18-1.08.53c-.29.35-.43.9-.43,1.66h0Z"/><path d="M233.85,200.04v-1.11h.97v1.11h-.97ZM233.85,206.81v-5.7h.97v5.7h-.97Z"/><path d="M236.29,206.81v-5.7h.87v.81c.42-.63,1.02-.94,1.82-.94.34,0,.66.06.95.19.29.12.5.29.65.49.14.2.24.44.3.71.04.18.05.49.05.94v3.51h-.97v-3.47c0-.39-.04-.69-.11-.88s-.21-.35-.4-.47c-.19-.12-.42-.17-.67-.17-.41,0-.77.13-1.07.39s-.45.76-.45,1.49v3.12h-.97v-.02Z"/><path d="M243.99,206.81l-2.17-5.7h1.02l1.22,3.42c.13.37.25.75.37,1.15.09-.3.21-.66.36-1.08l1.27-3.48h.99l-2.16,5.7h-.9Z"/><path d="M247.92,200.04v-1.11h.97v1.11h-.97ZM247.92,206.81v-5.7h.97v5.7h-.97Z"/><path d="M252.46,205.94l.14.85c-.27.06-.52.09-.73.09-.35,0-.62-.06-.82-.17-.19-.11-.33-.26-.41-.44s-.12-.56-.12-1.14v-3.28h-.71v-.75h.71v-1.41l.96-.58v1.99h.97v.75h-.97v3.33c0,.28.02.45.05.53s.09.14.17.19.19.07.33.07c.11,0,.25,0,.42-.04h0Z"/><path d="M257.31,204.97l1,.12c-.16.58-.45,1.04-.88,1.36s-.97.48-1.63.48c-.83,0-1.5-.26-1.98-.77-.49-.51-.73-1.24-.73-2.16s.25-1.71.74-2.23c.49-.53,1.14-.79,1.92-.79s1.39.26,1.87.78c.48.52.73,1.25.73,2.19v.26h-4.25c.04.63.21,1.11.53,1.44s.72.5,1.19.5c.35,0,.66-.09.91-.28s.45-.48.6-.89h-.02ZM254.14,203.41h3.19c-.04-.48-.16-.84-.37-1.08-.31-.37-.71-.56-1.2-.56-.44,0-.82.15-1.12.45-.3.3-.47.7-.5,1.19Z"/><path d="M259.14,205.1l.96-.15c.05.38.2.68.45.88.25.2.59.31,1.03.31s.77-.09.99-.27.32-.39.32-.64c0-.22-.09-.39-.28-.52-.13-.09-.46-.2-.99-.33-.71-.18-1.2-.33-1.47-.46s-.48-.31-.62-.54c-.14-.23-.21-.49-.21-.77,0-.25.06-.49.17-.71.12-.22.27-.4.48-.54.15-.11.36-.21.62-.28.26-.08.54-.12.83-.12.45,0,.84.06,1.18.19s.59.3.75.52.27.51.33.88l-.95.13c-.04-.29-.17-.52-.37-.69-.21-.17-.5-.25-.87-.25-.44,0-.76.07-.95.22s-.28.32-.28.52c0,.13.04.24.12.34.08.1.2.19.37.26.1.04.38.12.85.25.68.18,1.16.33,1.43.45s.48.29.64.51c.15.22.23.5.23.83s-.09.63-.28.91c-.19.29-.46.5-.81.66s-.76.23-1.2.23c-.74,0-1.31-.15-1.69-.46-.39-.31-.64-.76-.74-1.37h-.04Z"/><path d="M268.07,206.81v-5.7h.87v.86c.22-.4.43-.67.61-.8.19-.13.4-.19.62-.19.33,0,.66.1.99.31l-.33.9c-.24-.14-.47-.21-.71-.21-.21,0-.4.06-.57.19s-.29.3-.36.53c-.11.34-.16.72-.16,1.13v2.99h-.97.01Z"/><path d="M275.65,204.97l1,.12c-.16.58-.45,1.04-.88,1.36s-.97.48-1.63.48c-.83,0-1.5-.26-1.98-.77-.49-.51-.73-1.24-.73-2.16s.25-1.71.74-2.23c.49-.53,1.14-.79,1.92-.79s1.39.26,1.87.78c.48.52.73,1.25.73,2.19v.26h-4.25c.04.63.21,1.11.53,1.44s.72.5,1.19.5c.35,0,.66-.09.91-.28s.45-.48.6-.89h-.02ZM272.48,203.41h3.19c-.04-.48-.16-.84-.37-1.08-.31-.37-.71-.56-1.2-.56-.44,0-.82.15-1.12.45s-.47.7-.5,1.19Z"/><path d="M281.59,206.1c-.36.3-.7.52-1.03.64-.33.13-.69.19-1.07.19-.63,0-1.11-.15-1.44-.46-.34-.31-.5-.7-.5-1.17,0-.28.06-.53.19-.77.13-.23.29-.42.5-.56s.44-.25.7-.32c.19-.05.48-.1.86-.14.78-.09,1.36-.2,1.72-.33v-.25c0-.39-.09-.67-.27-.83-.25-.22-.61-.33-1.1-.33-.45,0-.79.08-1.01.24s-.38.44-.48.85l-.95-.13c.09-.4.23-.73.42-.98.2-.25.48-.44.85-.58.37-.13.8-.2,1.29-.2s.88.06,1.19.17c.3.11.53.26.67.43s.24.39.3.66c.03.17.05.46.05.89v1.29c0,.9.02,1.47.06,1.71s.12.47.24.68h-1.01c-.1-.2-.16-.44-.19-.7h.01ZM281.51,203.94c-.35.14-.88.27-1.58.37-.4.06-.68.12-.84.19s-.29.18-.38.31-.13.29-.13.46c0,.26.1.47.29.64s.48.26.86.26.7-.08.99-.24.5-.39.64-.67c.1-.22.16-.54.16-.97v-.35h-.01Z"/><path d="M287.68,206.81v-.72c-.36.57-.89.85-1.6.85-.45,0-.87-.13-1.25-.38s-.68-.6-.89-1.05c-.21-.45-.31-.97-.31-1.55s.09-1.09.28-1.55.47-.82.85-1.07.8-.37,1.27-.37c.34,0,.65.07.92.22.27.14.49.33.66.57v-2.83h.96v7.87h-.9.01ZM284.63,203.96c0,.73.15,1.28.46,1.64s.67.54,1.09.54.78-.17,1.08-.52c.29-.35.44-.87.44-1.58,0-.78-.15-1.35-.45-1.72s-.67-.55-1.11-.55-.79.18-1.08.53c-.29.35-.43.9-.43,1.66h0Z"/><path d="M294,204.97l1,.12c-.16.58-.45,1.04-.88,1.36s-.97.48-1.63.48c-.83,0-1.5-.26-1.98-.77-.49-.51-.73-1.24-.73-2.16s.25-1.71.74-2.23c.49-.53,1.14-.79,1.92-.79s1.39.26,1.87.78c.48.52.73,1.25.73,2.19v.26h-4.25c.04.63.21,1.11.53,1.44s.72.5,1.19.5c.35,0,.66-.09.91-.28s.45-.48.6-.89h-.02ZM290.83,203.41h3.19c-.04-.48-.16-.84-.37-1.08-.31-.37-.71-.56-1.2-.56-.44,0-.82.15-1.12.45s-.47.7-.5,1.19Z"/><path d="M296.21,206.81v-5.7h.87v.86c.22-.4.43-.67.61-.8.19-.13.4-.19.62-.19.33,0,.66.1.99.31l-.33.9c-.24-.14-.47-.21-.71-.21-.21,0-.4.06-.57.19s-.29.3-.36.53c-.11.34-.16.72-.16,1.13v2.99h-.97.01Z"/><path d="M299.49,205.1l.96-.15c.05.38.2.68.45.88.25.2.59.31,1.03.31s.77-.09.99-.27.32-.39.32-.64c0-.22-.09-.39-.28-.52-.13-.09-.46-.2-.99-.33-.71-.18-1.2-.33-1.47-.46s-.48-.31-.62-.54c-.14-.23-.21-.49-.21-.77,0-.25.06-.49.17-.71.12-.22.27-.4.48-.54.15-.11.36-.21.62-.28.26-.08.54-.12.83-.12.45,0,.84.06,1.18.19s.59.3.75.52.27.51.33.88l-.95.13c-.04-.29-.17-.52-.37-.69-.21-.17-.5-.25-.87-.25-.44,0-.76.07-.95.22s-.28.32-.28.52c0,.13.04.24.12.34.08.1.2.19.37.26.1.04.38.12.85.25.68.18,1.16.33,1.43.45s.48.29.64.51c.15.22.23.5.23.83s-.09.63-.28.91c-.19.29-.46.5-.81.66s-.76.23-1.2.23c-.74,0-1.31-.15-1.69-.46-.39-.31-.64-.76-.74-1.37h-.04Z"/><path d="M310.55,205.94l.14.85c-.27.06-.52.09-.73.09-.35,0-.62-.06-.82-.17-.19-.11-.33-.26-.41-.44s-.12-.56-.12-1.14v-3.28h-.71v-.75h.71v-1.41l.96-.58v1.99h.97v.75h-.97v3.33c0,.28.02.45.05.53s.09.14.17.19c.08.05.19.07.33.07.11,0,.25,0,.42-.04h.01Z"/><path d="M311.13,203.95c0-1.06.29-1.84.88-2.35.49-.42,1.09-.63,1.79-.63.78,0,1.43.26,1.92.77s.75,1.22.75,2.13c0,.73-.11,1.31-.33,1.73s-.54.75-.96.98c-.42.23-.88.35-1.38.35-.8,0-1.44-.26-1.94-.77-.49-.51-.74-1.25-.74-2.21h0ZM312.13,203.95c0,.73.16,1.28.48,1.64s.72.54,1.2.54.88-.18,1.2-.55.48-.92.48-1.67c0-.71-.16-1.24-.48-1.6s-.72-.55-1.2-.55-.88.18-1.2.54-.48.91-.48,1.64h0Z"/><path d="M320.81,206.81v-7.87h3.49c.7,0,1.24.07,1.6.21s.66.39.88.75.33.75.33,1.19c0,.56-.18,1.03-.54,1.41-.36.38-.92.63-1.68.73.28.13.49.26.63.39.3.28.59.63.86,1.05l1.37,2.14h-1.31l-1.04-1.64c-.3-.47-.56-.83-.75-1.08-.2-.25-.37-.43-.53-.53s-.31-.17-.48-.21c-.12-.03-.31-.04-.58-.04h-1.21v3.5h-1.04,0ZM321.85,202.41h2.24c.48,0,.85-.05,1.12-.15s.47-.26.61-.47.21-.45.21-.71c0-.37-.14-.68-.41-.92s-.7-.36-1.28-.36h-2.49v2.6h0Z"/><path d="M328.38,204.28l.98-.09c.05.39.15.72.32.97s.43.46.79.61c.36.16.76.23,1.21.23.4,0,.75-.06,1.05-.18s.53-.28.68-.49.22-.43.22-.67-.07-.46-.21-.65-.38-.34-.71-.46c-.21-.08-.68-.21-1.4-.38s-1.23-.34-1.52-.49c-.38-.2-.66-.44-.84-.73s-.28-.62-.28-.98c0-.4.11-.77.34-1.11s.56-.61.99-.79.92-.27,1.44-.27c.58,0,1.1.09,1.54.28.45.19.79.46,1.03.83s.37.78.39,1.24l-1,.08c-.05-.5-.24-.87-.55-1.13-.31-.25-.77-.38-1.37-.38s-1.09.12-1.38.35c-.29.23-.43.51-.43.83,0,.28.1.52.31.7.2.18.72.37,1.57.56s1.43.36,1.74.5c.46.21.8.48,1.02.8s.33.7.33,1.12-.12.81-.36,1.18-.58.66-1.03.86c-.45.21-.96.31-1.52.31-.71,0-1.31-.1-1.79-.31-.48-.21-.86-.52-1.13-.94-.27-.42-.42-.89-.43-1.42v.02Z"/><path d="M338.32,206.81l-3.05-7.87h1.13l2.05,5.72c.16.46.3.89.41,1.29.12-.43.26-.86.42-1.29l2.13-5.72h1.06l-3.08,7.87h-1.07Z"/><path d="M343.41,206.81v-7.87h2.97c.52,0,.92.02,1.2.08.39.06.71.19.97.37s.47.43.63.76.24.68.24,1.07c0,.67-.21,1.24-.64,1.7-.43.46-1.2.7-2.31.7h-2.02v3.2h-1.04ZM344.45,202.68h2.04c.67,0,1.15-.12,1.43-.38.28-.25.42-.6.42-1.06,0-.33-.08-.61-.25-.85s-.39-.39-.66-.46c-.18-.05-.5-.07-.97-.07h-2.01v2.81h0Z"/><path d="M349.48,206.81v-1.1h1.1v1.1h-1.1Z"/><path d="M356.81,206.81l-2.09-7.87h1.07l1.2,5.16c.13.54.24,1.08.33,1.61.2-.84.32-1.33.35-1.46l1.5-5.32h1.26l1.13,3.99c.28.99.49,1.92.61,2.79.1-.5.23-1.07.39-1.71l1.24-5.06h1.05l-2.16,7.87h-1l-1.66-6c-.14-.5-.22-.81-.25-.92-.08.36-.16.67-.23.92l-1.67,6h-1.07Z"/><path d="M369.4,204.97l1,.12c-.16.58-.45,1.04-.88,1.36s-.97.48-1.63.48c-.83,0-1.5-.26-1.98-.77-.49-.51-.73-1.24-.73-2.16s.25-1.71.74-2.23c.49-.53,1.14-.79,1.92-.79s1.39.26,1.87.78c.48.52.73,1.25.73,2.19v.26h-4.25c.04.63.21,1.11.53,1.44s.72.5,1.19.5c.35,0,.66-.09.91-.28s.45-.48.6-.89h-.02ZM366.23,203.41h3.19c-.04-.48-.16-.84-.37-1.08-.31-.37-.71-.56-1.2-.56-.44,0-.82.15-1.12.45s-.47.7-.5,1.19Z"/><path d="M96.26,221.81v-5.7h.87v.86c.22-.4.43-.67.61-.8.19-.13.4-.19.62-.19.33,0,.66.1.99.31l-.33.9c-.24-.14-.47-.21-.71-.21-.21,0-.4.06-.57.19s-.29.3-.36.53c-.11.34-.16.72-.16,1.13v2.99h-.97.01Z"/><path d="M103.84,219.97l1,.12c-.16.58-.45,1.04-.88,1.36s-.97.48-1.63.48c-.83,0-1.5-.26-1.98-.77-.49-.51-.73-1.24-.73-2.16s.25-1.71.74-2.23c.49-.53,1.14-.79,1.92-.79s1.39.26,1.87.78.73,1.25.73,2.19v.26h-4.25c.04.63.21,1.11.53,1.44s.72.5,1.19.5c.35,0,.66-.09.91-.28s.45-.48.6-.89h-.02ZM100.67,218.41h3.19c-.04-.48-.16-.84-.37-1.08-.31-.37-.71-.56-1.2-.56-.44,0-.82.15-1.12.45s-.47.7-.5,1.19Z"/><path d="M109.78,219.72l.95.12c-.1.66-.37,1.17-.8,1.54s-.95.56-1.58.56c-.78,0-1.41-.25-1.88-.77-.47-.51-.71-1.24-.71-2.19,0-.62.1-1.15.31-1.62s.51-.81.93-1.04.87-.35,1.36-.35c.62,0,1.13.16,1.52.47s.65.76.76,1.33l-.94.14c-.09-.38-.25-.67-.48-.86s-.5-.29-.82-.29c-.49,0-.88.17-1.19.52-.3.35-.46.9-.46,1.66s.15,1.32.44,1.67c.29.35.68.52,1.15.52.38,0,.7-.12.95-.35.25-.23.42-.59.48-1.07h.01Z"/><path d="M111.19,218.95c0-1.06.29-1.84.88-2.35.49-.42,1.09-.63,1.79-.63.78,0,1.43.26,1.92.77s.75,1.22.75,2.13c0,.73-.11,1.31-.33,1.73s-.54.75-.96.98-.88.35-1.38.35c-.8,0-1.44-.26-1.94-.77-.49-.51-.74-1.25-.74-2.21h.01ZM112.19,218.95c0,.73.16,1.28.48,1.64s.72.54,1.2.54.88-.18,1.2-.55.48-.92.48-1.67c0-.71-.16-1.24-.48-1.6s-.72-.55-1.2-.55-.88.18-1.2.54-.48.91-.48,1.64h0Z"/><path d="M117.67,221.81v-5.7h.86v.8c.18-.28.42-.5.71-.67s.64-.25,1.02-.25c.42,0,.77.09,1.04.26.27.18.46.42.57.74.45-.67,1.04-1,1.76-1,.57,0,1,.16,1.31.47s.46.8.46,1.45v3.92h-.96v-3.59c0-.39-.03-.67-.09-.83-.06-.17-.18-.31-.34-.41-.16-.1-.36-.16-.58-.16-.4,0-.73.13-1,.4-.27.27-.4.69-.4,1.28v3.31h-.97v-3.71c0-.43-.08-.75-.24-.97s-.42-.32-.77-.32c-.27,0-.52.07-.75.21s-.4.35-.5.63-.16.67-.16,1.19v2.96h-.97Z"/><path d="M126.83,221.81v-5.7h.86v.8c.18-.28.42-.5.71-.67s.64-.25,1.02-.25c.42,0,.77.09,1.04.26.27.18.46.42.57.74.45-.67,1.04-1,1.76-1,.57,0,1,.16,1.31.47s.46.8.46,1.45v3.92h-.96v-3.59c0-.39-.03-.67-.09-.83-.06-.17-.18-.31-.34-.41s-.36-.16-.58-.16c-.4,0-.73.13-1,.4-.27.27-.4.69-.4,1.28v3.31h-.97v-3.71c0-.43-.08-.75-.24-.97s-.42-.32-.77-.32c-.27,0-.52.07-.75.21s-.4.35-.5.63c-.1.28-.16.67-.16,1.19v2.96h-.97Z"/><path d="M139.9,219.97l1,.12c-.16.58-.45,1.04-.88,1.36s-.97.48-1.63.48c-.83,0-1.5-.26-1.98-.77-.49-.51-.73-1.24-.73-2.16s.25-1.71.74-2.23c.49-.53,1.14-.79,1.92-.79s1.39.26,1.87.78.73,1.25.73,2.19v.26h-4.25c.04.63.21,1.11.53,1.44s.72.5,1.19.5c.35,0,.66-.09.91-.28s.45-.48.6-.89h-.02ZM136.73,218.41h3.19c-.04-.48-.16-.84-.37-1.08-.31-.37-.71-.56-1.2-.56-.44,0-.82.15-1.12.45-.3.3-.47.7-.5,1.19h0Z"/><path d="M142.12,221.81v-5.7h.87v.81c.42-.63,1.02-.94,1.82-.94.34,0,.66.06.95.19.29.12.5.29.65.49.14.2.24.44.3.71.04.18.05.49.05.94v3.51h-.97v-3.47c0-.39-.04-.69-.11-.88s-.21-.35-.4-.47c-.19-.12-.42-.17-.67-.17-.41,0-.77.13-1.07.39s-.45.76-.45,1.49v3.12h-.97v-.02Z"/><path d="M151.93,221.81v-.72c-.36.57-.89.85-1.6.85-.45,0-.87-.13-1.25-.38s-.68-.6-.89-1.05-.31-.97-.31-1.55.09-1.09.28-1.55.47-.82.85-1.07.8-.37,1.27-.37c.34,0,.65.07.92.22.27.14.49.33.66.57v-2.83h.96v7.87h-.9,0ZM148.88,218.96c0,.73.15,1.28.46,1.64.31.36.67.54,1.09.54s.78-.17,1.08-.52c.29-.35.44-.87.44-1.58,0-.78-.15-1.35-.45-1.72s-.67-.55-1.11-.55-.79.18-1.08.53c-.29.35-.43.9-.43,1.66h0Z"/><path d="M161.13,221.1c-.36.3-.7.52-1.03.64-.33.13-.69.19-1.07.19-.63,0-1.11-.15-1.44-.46-.34-.31-.5-.7-.5-1.17,0-.28.06-.53.19-.77.13-.23.29-.42.5-.56s.44-.25.7-.32c.19-.05.48-.1.86-.14.78-.09,1.36-.2,1.72-.33v-.25c0-.39-.09-.67-.27-.83-.25-.22-.61-.33-1.1-.33-.45,0-.79.08-1.01.24s-.38.44-.48.85l-.95-.13c.09-.4.23-.73.42-.98.2-.25.48-.44.85-.58.37-.13.8-.2,1.29-.2s.88.06,1.19.17c.3.11.53.26.67.43s.24.39.3.66c.03.17.05.46.05.89v1.29c0,.9.02,1.47.06,1.71s.12.47.24.68h-1.01c-.1-.2-.16-.44-.19-.7h0ZM161.05,218.94c-.35.14-.88.27-1.58.37-.4.06-.68.12-.84.19s-.29.18-.38.31-.13.29-.13.46c0,.26.1.47.29.64.19.17.48.26.86.26s.7-.08.99-.24.5-.39.64-.67c.1-.22.16-.54.16-.97v-.35h0Z"/><path d="M164.42,221.81h-.9v-7.87h.97v2.81c.41-.51.93-.77,1.56-.77.35,0,.68.07,1,.21.31.14.57.34.77.6.2.26.36.56.48.93.11.36.17.75.17,1.16,0,.98-.24,1.73-.73,2.27-.48.53-1.06.8-1.74.8s-1.2-.28-1.58-.84v.71h0ZM164.41,218.91c0,.68.09,1.18.28,1.48.3.5.72.75,1.24.75.42,0,.79-.18,1.1-.55s.46-.91.46-1.64-.15-1.29-.44-1.65c-.3-.35-.65-.53-1.07-.53s-.79.18-1.1.55c-.31.37-.46.9-.46,1.59h0Z"/><path d="M169.28,218.95c0-1.06.29-1.84.88-2.35.49-.42,1.09-.63,1.79-.63.78,0,1.43.26,1.92.77s.75,1.22.75,2.13c0,.73-.11,1.31-.33,1.73s-.54.75-.96.98c-.42.23-.88.35-1.38.35-.8,0-1.44-.26-1.94-.77-.49-.51-.74-1.25-.74-2.21h.01ZM170.28,218.95c0,.73.16,1.28.48,1.64.32.36.72.54,1.2.54s.88-.18,1.2-.55.48-.92.48-1.67c0-.71-.16-1.24-.48-1.6-.32-.36-.72-.55-1.2-.55s-.88.18-1.2.54c-.32.36-.48.91-.48,1.64h0Z"/><path d="M179.5,221.81v-.84c-.44.64-1.05.97-1.81.97-.34,0-.65-.06-.94-.19-.29-.13-.51-.29-.65-.49-.14-.2-.24-.43-.3-.72-.04-.19-.06-.49-.06-.9v-3.53h.97v3.16c0,.5.02.85.06,1.02.06.25.19.45.39.6.2.14.44.22.73.22s.56-.07.82-.22.43-.35.54-.61.16-.63.16-1.12v-3.06h.97v5.7h-.88Z"/><path d="M183.99,220.94l.14.85c-.27.06-.52.09-.73.09-.35,0-.62-.06-.82-.17-.19-.11-.33-.26-.41-.44s-.12-.56-.12-1.14v-3.28h-.71v-.75h.71v-1.41l.96-.58v1.99h.97v.75h-.97v3.33c0,.28.02.45.05.53s.09.14.17.19.19.07.33.07c.11,0,.25,0,.42-.04h0Z"/><path d="M187.73,219.73l.97-.13c.11.55.3.94.57,1.18.27.24.59.36.98.36.45,0,.84-.16,1.15-.47s.47-.71.47-1.17-.15-.81-.44-1.1-.66-.43-1.11-.43c-.18,0-.41.04-.68.11l.11-.85c.06,0,.12,0,.16,0,.41,0,.78-.11,1.11-.32s.49-.55.49-.99c0-.35-.12-.65-.36-.88-.24-.23-.55-.35-.93-.35s-.69.12-.94.35-.41.59-.48,1.06l-.97-.17c.12-.65.39-1.15.81-1.51s.94-.53,1.56-.53c.43,0,.83.09,1.19.28s.64.44.83.75c.19.32.29.66.29,1.01s-.09.65-.27.93-.45.5-.81.67c.47.11.83.33,1.08.67.26.34.39.76.39,1.27,0,.69-.25,1.27-.75,1.75s-1.14.72-1.9.72c-.69,0-1.26-.21-1.72-.62-.46-.41-.72-.95-.78-1.6h-.02Z"/><path d="M193.73,219.44v-.97h2.97v.97h-2.97Z"/><path d="M200.6,221.81v-1.89h-3.42v-.89l3.59-5.1h.79v5.1h1.06v.89h-1.06v1.89h-.97.01ZM200.6,219.03v-3.55l-2.47,3.55h2.47Z"/><path d="M206.92,221.81v-7.87h.97v7.87h-.97Z"/><path d="M209.39,215.04v-1.11h.97v1.11h-.97ZM209.39,221.81v-5.7h.97v5.7h-.97Z"/><path d="M211.83,221.81v-5.7h.87v.81c.42-.63,1.02-.94,1.82-.94.34,0,.66.06.95.19.29.12.5.29.65.49.14.2.24.44.3.71.04.18.05.49.05.94v3.51h-.97v-3.47c0-.39-.04-.69-.11-.88s-.21-.35-.4-.47c-.19-.12-.42-.17-.67-.17-.41,0-.77.13-1.07.39s-.45.76-.45,1.49v3.12h-.97v-.02Z"/><path d="M221.85,219.97l1,.12c-.16.58-.45,1.04-.88,1.36s-.97.48-1.63.48c-.83,0-1.5-.26-1.98-.77-.49-.51-.73-1.24-.73-2.16s.25-1.71.74-2.23c.49-.53,1.14-.79,1.92-.79s1.39.26,1.87.78.73,1.25.73,2.19v.26h-4.25c.04.63.21,1.11.53,1.44s.72.5,1.19.5c.35,0,.66-.09.91-.28s.45-.48.6-.89h-.02ZM218.68,218.41h3.19c-.04-.48-.16-.84-.37-1.08-.31-.37-.71-.56-1.2-.56-.44,0-.82.15-1.12.45-.3.3-.47.7-.5,1.19h0Z"/><path d="M223.68,220.1l.96-.15c.05.38.2.68.45.88.25.2.59.31,1.03.31s.77-.09.99-.27.32-.39.32-.64c0-.22-.09-.39-.28-.52-.13-.09-.46-.2-.99-.33-.71-.18-1.2-.33-1.47-.46s-.48-.31-.62-.54-.21-.49-.21-.77c0-.25.06-.49.17-.71.12-.22.27-.4.48-.54.15-.11.36-.21.62-.28.26-.08.54-.12.83-.12.45,0,.84.06,1.18.19s.59.3.75.52.27.51.33.88l-.95.13c-.04-.29-.17-.52-.37-.69-.21-.17-.5-.25-.87-.25-.44,0-.76.07-.95.22s-.28.32-.28.52c0,.13.04.24.12.34.08.1.2.19.37.26.1.04.38.12.85.25.68.18,1.16.33,1.43.45.27.12.48.29.64.51.15.22.23.5.23.83s-.09.63-.28.91c-.19.29-.46.5-.81.66-.35.16-.76.23-1.2.23-.74,0-1.31-.15-1.69-.46-.39-.31-.64-.76-.74-1.37h-.04Z"/><path d="M232.26,218.95c0-1.06.29-1.84.88-2.35.49-.42,1.09-.63,1.79-.63.78,0,1.43.26,1.92.77s.75,1.22.75,2.13c0,.73-.11,1.31-.33,1.73s-.54.75-.96.98c-.42.23-.88.35-1.38.35-.8,0-1.44-.26-1.94-.77-.49-.51-.74-1.25-.74-2.21h.01ZM233.26,218.95c0,.73.16,1.28.48,1.64.32.36.72.54,1.2.54s.88-.18,1.2-.55.48-.92.48-1.67c0-.71-.16-1.24-.48-1.6-.32-.36-.72-.55-1.2-.55s-.88.18-1.2.54c-.32.36-.48.91-.48,1.64h0Z"/><path d="M238.97,221.81v-4.95h-.85v-.75h.85v-.61c0-.38.03-.67.1-.85.09-.25.26-.45.49-.61.23-.16.56-.23.99-.23.27,0,.57.03.9.1l-.15.84c-.2-.04-.39-.05-.57-.05-.29,0-.5.06-.62.19s-.18.36-.18.7v.53h1.11v.75h-1.11v4.95h-.96Z"/><path d="M246.96,220.94l.14.85c-.27.06-.52.09-.73.09-.35,0-.62-.06-.82-.17-.19-.11-.33-.26-.41-.44s-.12-.56-.12-1.14v-3.28h-.71v-.75h.71v-1.41l.96-.58v1.99h.97v.75h-.97v3.33c0,.28.02.45.05.53s.09.14.17.19.19.07.33.07c.11,0,.25,0,.42-.04h0Z"/><path d="M251.81,219.97l1,.12c-.16.58-.45,1.04-.88,1.36s-.97.48-1.63.48c-.83,0-1.5-.26-1.98-.77-.49-.51-.73-1.24-.73-2.16s.25-1.71.74-2.23c.49-.53,1.14-.79,1.92-.79s1.39.26,1.87.78.73,1.25.73,2.19v.26h-4.25c.04.63.21,1.11.53,1.44s.72.5,1.19.5c.35,0,.66-.09.91-.28s.45-.48.6-.89h-.02ZM248.64,218.41h3.19c-.04-.48-.16-.84-.37-1.08-.31-.37-.71-.56-1.2-.56-.44,0-.82.15-1.12.45-.3.3-.47.7-.5,1.19h0Z"/><path d="M253.38,221.81l2.08-2.96-1.93-2.74h1.21l.88,1.34c.16.25.3.47.4.64.16-.24.3-.45.44-.63l.96-1.35h1.15l-1.97,2.69,2.12,3.02h-1.19l-1.17-1.77-.31-.48-1.5,2.25h-1.17,0Z"/><path d="M261.64,220.94l.14.85c-.27.06-.52.09-.73.09-.35,0-.62-.06-.82-.17-.19-.11-.33-.26-.41-.44s-.12-.56-.12-1.14v-3.28h-.71v-.75h.71v-1.41l.96-.58v1.99h.97v.75h-.97v3.33c0,.28.02.45.05.53s.09.14.17.19c.08.05.19.07.33.07.11,0,.25,0,.42-.04h.01Z"/><path d="M265.64,221.81v-7.87h.97v2.83c.45-.52,1.02-.78,1.71-.78.42,0,.79.08,1.1.25s.53.4.67.69c.13.29.2.72.2,1.28v3.62h-.97v-3.62c0-.48-.1-.83-.31-1.05s-.51-.33-.89-.33c-.29,0-.56.07-.81.22s-.43.35-.54.6c-.11.25-.16.61-.16,1.05v3.12h-.97Z"/><path d="M275.66,219.97l1,.12c-.16.58-.45,1.04-.88,1.36s-.97.48-1.63.48c-.83,0-1.5-.26-1.98-.77-.49-.51-.73-1.24-.73-2.16s.25-1.71.74-2.23c.49-.53,1.14-.79,1.92-.79s1.39.26,1.87.78c.48.52.73,1.25.73,2.19v.26h-4.25c.04.63.21,1.11.53,1.44s.72.5,1.19.5c.35,0,.66-.09.91-.28s.45-.48.6-.89h-.02ZM272.49,218.41h3.19c-.04-.48-.16-.84-.37-1.08-.31-.37-.71-.56-1.2-.56-.44,0-.82.15-1.12.45s-.47.7-.5,1.19Z"/><path d="M277.86,221.81v-5.7h.87v.86c.22-.4.43-.67.61-.8.19-.13.4-.19.62-.19.33,0,.66.1.99.31l-.33.9c-.24-.14-.47-.21-.71-.21-.21,0-.4.06-.57.19s-.29.3-.36.53c-.11.34-.16.72-.16,1.13v2.99h-.97.01Z"/><path d="M285.44,219.97l1,.12c-.16.58-.45,1.04-.88,1.36s-.97.48-1.63.48c-.83,0-1.5-.26-1.98-.77-.49-.51-.73-1.24-.73-2.16s.25-1.71.74-2.23c.49-.53,1.14-.79,1.92-.79s1.39.26,1.87.78c.48.52.73,1.25.73,2.19v.26h-4.25c.04.63.21,1.11.53,1.44s.72.5,1.19.5c.35,0,.66-.09.91-.28s.45-.48.6-.89h-.02ZM282.27,218.41h3.19c-.04-.48-.16-.84-.37-1.08-.31-.37-.71-.56-1.2-.56-.44,0-.82.15-1.12.45s-.47.7-.5,1.19Z"/><path d="M287.93,221.81v-1.1h1.1v1.1h-1.1Z"/><path d="M101.82,402.01h-1.42l-.56-1.46h-2.58l-.53,1.46h-1.38l2.51-6.44h1.38s2.58,6.44,2.58,6.44ZM99.43,399.46l-.89-2.39-.87,2.39h1.76Z" style="fill:#fff;"/><path d="M106.78,402.01h-1.15v-.69c-.19.27-.42.46-.67.6-.26.13-.52.2-.78.2-.54,0-1-.22-1.38-.65s-.57-1.04-.57-1.81.19-1.39.56-1.8c.37-.41.84-.62,1.41-.62.52,0,.97.22,1.35.65v-2.32h1.24v6.44h-.01ZM103.49,399.58c0,.5.07.86.21,1.08.2.32.48.48.83.48.28,0,.53-.12.73-.36.2-.24.3-.6.3-1.08,0-.54-.1-.92-.29-1.16s-.44-.35-.74-.35-.54.12-.74.35-.3.58-.3,1.04h0Z" style="fill:#fff;"/><path d="M112.28,402.01h-1.15v-.69c-.19.27-.42.46-.67.6-.26.13-.52.2-.78.2-.54,0-1-.22-1.38-.65s-.57-1.04-.57-1.81.19-1.39.56-1.8c.37-.41.84-.62,1.41-.62.52,0,.97.22,1.35.65v-2.32h1.23v6.44h0ZM108.98,399.58c0,.5.07.86.21,1.08.2.32.48.48.83.48.28,0,.53-.12.72-.36.2-.24.3-.6.3-1.08,0-.54-.1-.92-.29-1.16s-.44-.35-.74-.35-.54.12-.74.35-.3.58-.3,1.04h0Z" style="fill:#fff;"/><path d="M116.01,395.57h2.58c.51,0,.89.02,1.14.06s.47.13.67.27c.2.14.36.31.49.54.13.22.2.48.2.75,0,.3-.08.58-.24.83-.16.25-.38.44-.66.57.39.12.69.31.91.58s.32.6.32.97c0,.29-.07.58-.2.85-.14.28-.32.5-.56.66-.24.17-.53.27-.87.31-.22.02-.74.04-1.57.04h-2.19v-6.44h-.02ZM117.31,396.64v1.49h.85c.51,0,.82,0,.94-.02.22-.03.4-.1.53-.23s.19-.29.19-.5-.05-.36-.17-.49c-.11-.12-.27-.2-.49-.23-.13-.01-.5-.02-1.11-.02h-.75,0ZM117.31,399.2v1.72h1.2c.47,0,.77-.01.89-.04.19-.04.35-.12.47-.26s.18-.32.18-.55c0-.19-.05-.36-.14-.49s-.23-.23-.41-.29-.56-.09-1.15-.09h-1.05.01Z" style="fill:#fff;"/><path d="M125.57,402.01v-.7c-.17.25-.39.45-.67.59-.28.14-.57.21-.88.21s-.59-.07-.84-.21c-.25-.14-.43-.33-.54-.58s-.17-.59-.17-1.03v-2.95h1.23v2.14c0,.66.02,1.06.07,1.21.04.15.13.27.25.35.12.09.27.13.46.13.21,0,.4-.06.57-.17.17-.12.28-.26.34-.43.06-.17.09-.59.09-1.26v-1.97h1.24v4.67h-1.15Z" style="fill:#fff;"/><path d="M130.13,397.35v.98h-.84v1.88c0,.38,0,.6.02.67.02.06.05.12.11.16s.13.06.21.06c.11,0,.28-.04.5-.12l.11.96c-.29.12-.61.18-.98.18-.22,0-.42-.04-.6-.11-.18-.07-.31-.17-.39-.29s-.14-.28-.17-.48c-.03-.14-.04-.43-.04-.87v-2.03h-.57v-.98h.57v-.93l1.24-.72v1.65h.84-.01Z" style="fill:#fff;"/><path d="M133.13,397.35v.98h-.84v1.88c0,.38,0,.6.02.67.02.06.05.12.11.16s.13.06.21.06c.11,0,.28-.04.5-.12l.11.96c-.29.12-.61.18-.98.18-.22,0-.42-.04-.6-.11-.18-.07-.31-.17-.39-.29s-.14-.28-.17-.48c-.03-.14-.04-.43-.04-.87v-2.03h-.57v-.98h.57v-.93l1.24-.72v1.65h.84-.01Z" style="fill:#fff;"/><path d="M133.7,399.61c0-.41.1-.81.3-1.19s.49-.68.86-.88.78-.3,1.24-.3c.71,0,1.29.23,1.74.69.45.46.68,1.04.68,1.74s-.23,1.29-.68,1.76c-.46.46-1.03.7-1.72.7-.43,0-.84-.1-1.22-.29-.39-.19-.68-.48-.89-.85-.2-.37-.3-.83-.3-1.36v-.02ZM134.97,399.68c0,.46.11.82.33,1.06s.49.37.81.37.59-.12.81-.37.33-.6.33-1.07-.11-.81-.33-1.05c-.22-.25-.49-.37-.81-.37s-.59.12-.81.37-.33.6-.33,1.06Z" style="fill:#fff;"/><path d="M143.73,402.01h-1.24v-2.38c0-.5-.03-.83-.08-.98-.05-.15-.14-.26-.26-.35-.12-.08-.26-.12-.43-.12-.21,0-.41.06-.58.18s-.29.27-.35.47c-.06.19-.09.55-.09,1.07v2.11h-1.23v-4.67h1.15v.69c.41-.53.92-.79,1.54-.79.27,0,.52.05.75.15s.4.22.51.38c.12.15.2.33.24.52.04.19.07.47.07.83v2.9h0Z" style="fill:#fff;"/><path d="M149.62,397.35v.98h-.84v1.88c0,.38,0,.6.02.67.02.06.05.12.11.16s.13.06.21.06c.11,0,.28-.04.5-.12l.11.96c-.29.12-.61.18-.98.18-.22,0-.42-.04-.6-.11-.18-.07-.31-.17-.39-.29s-.14-.28-.17-.48c-.03-.14-.04-.43-.04-.87v-2.03h-.57v-.98h.57v-.93l1.24-.72v1.65h.84-.01Z" style="fill:#fff;"/><path d="M153.18,400.53l1.23.21c-.16.45-.41.79-.75,1.03s-.77.35-1.28.35c-.81,0-1.41-.26-1.8-.79-.31-.42-.46-.96-.46-1.61,0-.77.2-1.38.61-1.82.4-.44.92-.66,1.53-.66.69,0,1.24.23,1.64.69s.59,1.16.58,2.11h-3.09c0,.37.11.65.3.85s.43.31.71.31c.19,0,.36-.05.49-.16s.23-.28.3-.51h-.01ZM153.25,399.28c0-.36-.1-.63-.28-.82s-.39-.28-.64-.28c-.27,0-.49.1-.67.29s-.26.46-.26.8h1.85,0Z" style="fill:#fff;"/><path d="M154.89,402.01l1.68-2.4-1.61-2.26h1.51l.83,1.28.87-1.28h1.45l-1.58,2.21,1.73,2.46h-1.52l-.95-1.45-.96,1.45h-1.45,0Z" style="fill:#fff;"/><path d="M162.63,397.35v.98h-.84v1.88c0,.38,0,.6.02.67.02.06.05.12.11.16s.13.06.21.06c.11,0,.28-.04.5-.12l.11.96c-.29.12-.61.18-.98.18-.22,0-.42-.04-.6-.11-.18-.07-.31-.17-.39-.29s-.14-.28-.17-.48c-.03-.14-.04-.43-.04-.87v-2.03h-.57v-.98h.57v-.93l1.24-.72v1.65h.84-.01Z" style="fill:#fff;"/><path d="M218.8,402.09h-1.42l-.56-1.46h-2.58l-.53,1.46h-1.38l2.51-6.44h1.38l2.58,6.44ZM216.4,399.55l-.89-2.39-.87,2.39h1.76Z" style="fill:#fff;"/><path d="M223.76,402.09h-1.15v-.69c-.19.27-.42.46-.67.6-.26.13-.52.2-.78.2-.54,0-1-.22-1.38-.65s-.57-1.04-.57-1.81.19-1.39.56-1.8c.37-.41.84-.62,1.41-.62.52,0,.97.22,1.35.65v-2.32h1.23v6.44h0ZM220.46,399.66c0,.5.07.86.21,1.08.2.32.48.48.83.48.28,0,.53-.12.73-.36s.3-.6.3-1.08c0-.54-.1-.92-.29-1.16-.19-.24-.44-.35-.74-.35s-.54.12-.74.35c-.2.23-.3.58-.3,1.04h0Z" style="fill:#fff;"/><path d="M229.26,402.09h-1.15v-.69c-.19.27-.42.46-.67.6-.26.13-.52.2-.78.2-.54,0-1-.22-1.38-.65s-.57-1.04-.57-1.81.19-1.39.56-1.8c.37-.41.84-.62,1.41-.62.52,0,.97.22,1.35.65v-2.32h1.23v6.44h0ZM225.96,399.66c0,.5.07.86.21,1.08.2.32.48.48.83.48.28,0,.53-.12.73-.36s.3-.6.3-1.08c0-.54-.1-.92-.29-1.16-.19-.24-.44-.35-.74-.35s-.54.12-.74.35c-.2.23-.3.58-.3,1.04h0Z" style="fill:#fff;"/><path d="M232.99,395.65h2.58c.51,0,.89.02,1.14.06s.47.13.67.27c.2.14.36.31.49.54.13.22.2.48.2.75,0,.3-.08.58-.24.83s-.38.44-.66.57c.39.12.69.31.91.58s.32.6.32.97c0,.29-.07.58-.2.85-.14.28-.32.5-.56.66-.24.17-.53.27-.87.31-.22.02-.74.04-1.57.04h-2.19v-6.44h-.02ZM234.29,396.72v1.49h.85c.51,0,.82,0,.94-.02.22-.03.4-.1.52-.23s.19-.29.19-.5-.05-.36-.17-.49c-.11-.12-.27-.2-.49-.23-.13-.01-.5-.02-1.11-.02h-.75.02ZM234.29,399.29v1.72h1.2c.47,0,.77-.01.89-.04.19-.04.35-.12.47-.26s.18-.32.18-.55c0-.19-.05-.36-.14-.49s-.23-.23-.41-.29c-.18-.06-.56-.09-1.15-.09h-1.05.01Z" style="fill:#fff;"/><path d="M242.55,402.09v-.7c-.17.25-.39.45-.67.59-.28.14-.57.21-.88.21s-.59-.07-.84-.21c-.25-.14-.43-.33-.54-.58s-.17-.59-.17-1.03v-2.95h1.23v2.14c0,.66.02,1.06.07,1.21.04.15.13.27.25.35.12.09.27.13.46.13.21,0,.4-.06.57-.17.17-.12.28-.26.34-.43.06-.17.09-.59.09-1.26v-1.97h1.23v4.67h-1.15,0Z" style="fill:#fff;"/><path d="M247.11,397.43v.98h-.84v1.88c0,.38,0,.6.02.67.02.06.05.12.11.16s.13.06.21.06c.11,0,.28-.04.5-.12l.11.96c-.29.12-.61.18-.98.18-.22,0-.42-.04-.6-.11-.18-.07-.31-.17-.39-.29s-.14-.28-.17-.48c-.03-.14-.04-.43-.04-.87v-2.03h-.57v-.98h.57v-.93l1.24-.72v1.65h.84-.01Z" style="fill:#fff;"/><path d="M250.11,397.43v.98h-.84v1.88c0,.38,0,.6.02.67.02.06.05.12.11.16s.13.06.21.06c.11,0,.28-.04.5-.12l.11.96c-.29.12-.61.18-.98.18-.22,0-.42-.04-.6-.11-.18-.07-.31-.17-.39-.29s-.14-.28-.17-.48c-.03-.14-.04-.43-.04-.87v-2.03h-.57v-.98h.57v-.93l1.24-.72v1.65h.84-.01Z" style="fill:#fff;"/><path d="M250.68,399.69c0-.41.1-.81.3-1.19s.49-.68.86-.88.78-.3,1.24-.3c.71,0,1.28.23,1.74.69.45.46.68,1.04.68,1.74s-.23,1.29-.68,1.76c-.46.46-1.03.7-1.72.7-.43,0-.84-.1-1.22-.29s-.68-.48-.89-.85c-.2-.37-.3-.83-.3-1.36v-.02ZM251.95,399.76c0,.46.11.82.33,1.06s.49.37.81.37.59-.12.81-.37.33-.6.33-1.07-.11-.81-.33-1.05-.49-.37-.81-.37-.59.12-.81.37-.33.6-.33,1.06Z" style="fill:#fff;"/><path d="M260.71,402.09h-1.23v-2.38c0-.5-.03-.83-.08-.98-.05-.15-.14-.26-.26-.35-.12-.08-.26-.12-.43-.12-.21,0-.41.06-.58.18-.17.12-.29.27-.35.47-.06.19-.09.55-.09,1.07v2.11h-1.23v-4.67h1.15v.69c.41-.53.92-.79,1.54-.79.27,0,.52.05.75.15s.4.22.51.38c.12.15.2.33.24.52.04.19.07.47.07.83v2.9h-.01Z" style="fill:#fff;"/><path d="M266.6,397.43v.98h-.84v1.88c0,.38,0,.6.02.67.02.06.05.12.11.16s.13.06.21.06c.11,0,.28-.04.5-.12l.11.96c-.29.12-.61.18-.98.18-.22,0-.42-.04-.6-.11-.18-.07-.31-.17-.39-.29-.08-.12-.14-.28-.17-.48-.03-.14-.04-.43-.04-.87v-2.03h-.57v-.98h.57v-.93l1.24-.72v1.65h.84,0Z" style="fill:#fff;"/><path d="M270.16,400.61l1.23.21c-.16.45-.41.79-.75,1.03s-.77.35-1.28.35c-.81,0-1.41-.26-1.8-.79-.31-.42-.46-.96-.46-1.61,0-.77.2-1.38.61-1.82.4-.44.92-.66,1.53-.66.69,0,1.24.23,1.64.69.4.46.59,1.16.58,2.11h-3.09c0,.37.11.65.3.85s.43.31.71.31c.19,0,.36-.05.49-.16s.23-.28.3-.51h0ZM270.23,399.36c0-.36-.1-.63-.28-.82s-.39-.28-.64-.28c-.27,0-.49.1-.67.29s-.26.46-.26.8h1.85Z" style="fill:#fff;"/><path d="M271.87,402.09l1.68-2.4-1.61-2.26h1.51l.83,1.28.87-1.28h1.45l-1.58,2.21,1.73,2.46h-1.52l-.95-1.45-.96,1.45h-1.45Z" style="fill:#fff;"/><path d="M279.61,397.43v.98h-.84v1.88c0,.38,0,.6.02.67.02.06.05.12.11.16s.13.06.21.06c.11,0,.28-.04.5-.12l.11.96c-.29.12-.61.18-.98.18-.22,0-.42-.04-.6-.11-.18-.07-.31-.17-.39-.29-.08-.12-.14-.28-.17-.48-.03-.14-.04-.43-.04-.87v-2.03h-.57v-.98h.57v-.93l1.24-.72v1.65h.84,0Z" style="fill:#fff;"/><rect x="95.1" y="241.85" width="300" height="30" rx="5.83" ry="5.83"/><path d="M231.03,260.01v-7.87h3.35c.84,0,1.45.07,1.83.21s.69.39.92.75.34.78.34,1.24c0,.59-.17,1.08-.52,1.46-.35.38-.87.63-1.56.73.34.2.63.42.85.66s.53.67.91,1.28l.96,1.54h-1.9l-1.15-1.71c-.41-.61-.69-1-.84-1.16s-.31-.27-.48-.33-.44-.09-.8-.09h-.32v3.29h-1.59ZM232.62,255.47h1.18c.76,0,1.24-.03,1.43-.1.19-.06.34-.18.45-.33s.16-.35.16-.59c0-.26-.07-.48-.21-.64s-.34-.27-.6-.31c-.13-.02-.52-.03-1.16-.03h-1.24v2h0Z" style="fill:#fff;"/><path d="M238.56,257.45l1.55-.15c.09.52.28.9.57,1.14.29.24.67.37,1.15.37.51,0,.9-.11,1.16-.33s.39-.47.39-.76c0-.19-.05-.34-.16-.48s-.3-.24-.57-.34c-.19-.06-.61-.18-1.27-.34-.85-.21-1.45-.47-1.79-.78-.48-.43-.73-.96-.73-1.58,0-.4.11-.78.34-1.12.23-.35.55-.62.98-.8s.94-.27,1.55-.27c.99,0,1.73.22,2.23.65s.76,1.01.79,1.74l-1.59.07c-.07-.4-.21-.7-.44-.87-.22-.18-.56-.27-1.01-.27s-.82.09-1.08.28c-.17.12-.25.29-.25.49s.08.35.24.48c.2.17.69.34,1.46.53.77.18,1.35.37,1.72.57.37.2.66.46.87.8.21.34.31.76.31,1.25,0,.45-.13.87-.38,1.27-.25.39-.61.69-1.06.88-.46.19-1.03.29-1.71.29-1,0-1.76-.23-2.29-.69s-.85-1.13-.96-2.01l-.02-.02Z" style="fill:#fff;"/><path d="M248.31,260.01l-2.81-7.87h1.72l1.99,5.83,1.93-5.83h1.69l-2.82,7.87h-1.7Z" style="fill:#fff;"/><path d="M253.64,260.01v-7.87h2.55c.97,0,1.6.04,1.89.12.45.12.83.38,1.13.77.3.4.46.91.46,1.53,0,.48-.09.89-.26,1.22s-.4.59-.67.78c-.27.19-.55.31-.83.37-.38.08-.93.11-1.65.11h-1.04v2.97h-1.59,0ZM255.23,253.47v2.23h.87c.63,0,1.05-.04,1.26-.12.21-.08.38-.21.5-.39.12-.17.18-.38.18-.61,0-.29-.08-.52-.25-.71s-.38-.3-.64-.35c-.19-.04-.57-.05-1.14-.05h-.78Z" style="fill:#fff;"/><rect x="97.1" y="295.85" width="300" height="246" rx="13.14" ry="13.14" style="fill:#d9d9d9;"/><path d="M211.77,421.03v-7.7h1.43v7.7h-1.43Z"/><path d="M215.28,421.03v-7.7h1.18l3.37,5.62h-.62l3.31-5.62h1.18l.02,7.7h-1.38v-5.58h.27l-2.79,4.71h-.65l-2.86-4.71h.33v5.58h-1.36Z"/><path d="M224.69,421.03l3.47-7.7h1.41l3.48,7.7h-1.51l-2.97-6.94h.57l-2.98,6.94h-1.47ZM226.29,419.25l.4-1.12h4.15l.38,1.12h-4.93Z"/><path d="M237.51,421.14c-.6,0-1.15-.1-1.66-.29-.5-.19-.94-.47-1.31-.83s-.66-.78-.87-1.25c-.21-.48-.31-1-.31-1.58s.1-1.11.31-1.58c.21-.48.5-.89.87-1.25.38-.36.82-.64,1.32-.83s1.06-.29,1.68-.29,1.23.11,1.75.32c.52.21.97.52,1.33.94l-.9.88c-.3-.3-.62-.52-.97-.67-.35-.14-.73-.21-1.15-.21s-.79.07-1.13.2c-.34.13-.64.32-.89.56s-.44.53-.58.86-.21.69-.21,1.09.07.75.21,1.08.33.62.58.86.54.43.88.56.71.2,1.12.2c.38,0,.75-.06,1.11-.18s.69-.33,1.02-.61l.8,1.07c-.4.32-.86.57-1.39.73s-1.07.25-1.62.25v-.03ZM240.51,420.16l-1.34-.19v-2.87h1.34v3.06Z"/><path d="M242.4,421.03v-7.7h5.62v1.21h-4.19v5.28h4.35v1.21h-5.78ZM243.72,417.71v-1.18h3.83v1.18h-3.83Z"/><path d="M252.81,421.03v-7.7h1.43v7.7h-1.43ZM254.13,417.73v-1.22h4.2v1.22h-4.2ZM258.22,421.03v-7.7h1.42v7.7h-1.42Z"/><path d="M261.72,421.03v-7.7h5.62v1.21h-4.19v5.28h4.35v1.21h-5.78ZM263.04,417.71v-1.18h3.83v1.18h-3.83Z"/><path d="M269.09,421.03v-7.7h3.16c1.03,0,1.83.24,2.41.73.58.49.87,1.16.87,2.01,0,.56-.13,1.05-.4,1.45s-.64.71-1.13.93-1.07.33-1.75.33h-2.37l.63-.64v2.88h-1.43,0ZM270.52,418.3l-.63-.69h2.3c.63,0,1.11-.14,1.42-.41s.48-.65.48-1.13-.16-.86-.48-1.13c-.32-.27-.79-.4-1.42-.4h-2.3l.63-.7v4.47h0ZM274.13,421.03l-1.95-2.79h1.53l1.96,2.79h-1.54,0Z"/><path d="M277.13,421.03v-7.7h5.62v1.21h-4.19v5.28h4.35v1.21h-5.78ZM278.45,417.71v-1.18h3.83v1.18h-3.83Z"/><path d="M233.11,82.74v-7.38h1.37v6.22h3.86v1.16s-5.23,0-5.23,0Z"/><path d="M242.75,82.85c-.57,0-1.1-.09-1.59-.28-.49-.19-.91-.46-1.27-.8-.36-.34-.64-.75-.83-1.21-.2-.46-.3-.96-.3-1.5s.1-1.05.3-1.51.47-.86.83-1.2.78-.61,1.27-.8,1.02-.28,1.59-.28,1.1.09,1.58.28c.49.19.9.45,1.26.79.35.34.63.74.83,1.21.2.46.3.97.3,1.52s-.1,1.05-.3,1.51-.47.86-.83,1.21c-.36.34-.78.61-1.26.8-.49.19-1.01.28-1.58.28v-.02ZM242.75,81.64c.37,0,.72-.06,1.03-.19.31-.13.59-.31.82-.54.23-.23.41-.51.54-.82s.2-.66.2-1.04-.06-.73-.19-1.04c-.13-.32-.31-.59-.54-.82-.24-.23-.51-.41-.82-.54-.31-.13-.66-.19-1.03-.19s-.72.06-1.04.19c-.32.13-.6.31-.83.54-.23.24-.41.51-.55.82-.13.31-.2.66-.2,1.04s.07.72.2,1.03c.13.32.32.59.55.83.23.24.51.42.83.54.32.13.67.19,1.04.19h0Z"/><path d="M251.62,82.85c-.58,0-1.11-.09-1.59-.28s-.9-.45-1.26-.8c-.36-.34-.64-.75-.83-1.2-.2-.46-.3-.96-.3-1.52s.1-1.06.3-1.52.48-.86.84-1.2.78-.61,1.27-.8c.48-.19,1.02-.28,1.61-.28s1.18.1,1.68.31c.5.2.93.5,1.27.9l-.86.84c-.29-.29-.6-.5-.93-.64-.33-.14-.7-.21-1.1-.21s-.75.06-1.08.19c-.33.13-.61.31-.85.54s-.43.51-.56.82c-.13.32-.2.66-.2,1.04s.07.72.2,1.04c.13.32.32.6.56.83.24.23.52.41.84.54.32.13.68.19,1.08.19.37,0,.72-.06,1.06-.17.34-.12.67-.31.98-.59l.77,1.02c-.38.31-.82.54-1.33.7-.51.16-1.02.24-1.55.24h-.02ZM254.5,81.91l-1.29-.18v-2.75h1.29v2.93Z"/><path d="M259.77,82.85c-.57,0-1.1-.09-1.59-.28s-.91-.46-1.27-.8c-.36-.34-.64-.75-.83-1.21-.2-.46-.3-.96-.3-1.5s.1-1.05.3-1.51c.2-.46.47-.86.83-1.2s.78-.61,1.27-.8,1.02-.28,1.59-.28,1.1.09,1.58.28c.49.19.9.45,1.26.79.35.34.63.74.83,1.21.2.46.3.97.3,1.52s-.1,1.05-.3,1.51c-.2.46-.47.86-.83,1.21-.36.34-.78.61-1.26.8-.49.19-1.01.28-1.58.28v-.02ZM259.77,81.64c.37,0,.72-.06,1.03-.19.31-.13.59-.31.82-.54s.41-.51.54-.82.2-.66.2-1.04-.06-.73-.19-1.04c-.13-.32-.31-.59-.54-.82-.24-.23-.51-.41-.82-.54s-.66-.19-1.03-.19-.72.06-1.04.19c-.32.13-.6.31-.83.54-.23.24-.41.51-.55.82-.13.31-.2.66-.2,1.04s.07.72.2,1.03c.13.32.32.59.55.83.23.24.51.42.83.54.32.13.67.19,1.04.19h-.01Z"/><path d="M257.06,40.48c2.45,0,4.44,1.99,4.44,4.44v16.44c0,2.45-1.99,4.44-4.44,4.44h-17.82c-2.45,0-4.44-1.99-4.44-4.44v-16.44c0-2.45,1.99-4.44,4.44-4.44h17.82M257.06,37.97h-17.82c-3.84,0-6.95,3.11-6.95,6.95v16.44c0,3.84,3.11,6.95,6.95,6.95h17.82c3.84,0,6.95-3.11,6.95-6.95v-16.44c0-3.84-3.11-6.95-6.95-6.95h0Z"/><path d="M253.72,46.23c1.06.94,1.6,2.26,1.6,3.95,0,.61-.06,1.19-.17,1.74l-1.62,8.04h-3.45l.7-3.57h-6.79l-.72,3.57h-3.4l1.7-8.49c.43-2.2,1.3-3.86,2.63-4.98,1.33-1.12,3.04-1.68,5.14-1.68,1.86,0,3.32.47,4.38,1.41ZM251.33,53.62l.38-1.94c.09-.45.13-.87.13-1.26,0-.88-.24-1.55-.73-2-.49-.45-1.2-.68-2.12-.68-1.11,0-1.99.3-2.66.9-.67.6-1.13,1.56-1.38,2.88l-.43,2.08h6.81Z"/></g></g></svg>