<?xml version="1.0" encoding="UTF-8"?><svg id="Layer_2" xmlns="http://www.w3.org/2000/svg" viewBox="0 0 496 558"><g id="Layer_1-2"><rect width="496" height="558" style="fill:#f4f4f4;"/><rect x="66.21" width="363.58" height="558" style="fill:#fff;"/><path d="M188.53,34.89l-2.5-6.44h.92l1.67,4.68c.13.38.25.73.34,1.05.1-.35.21-.7.35-1.05l1.74-4.68h.87l-2.52,6.44h-.87Z"/><path d="M192.43,29.36v-.91h.79v.91h-.79ZM192.43,34.89v-4.67h.79v4.67h-.79Z"/><path d="M197.62,33.39l.82.1c-.13.48-.37.85-.72,1.11s-.79.4-1.34.4c-.68,0-1.22-.21-1.62-.63-.4-.42-.6-1.01-.6-1.77s.2-1.39.61-1.83.93-.65,1.57-.65,1.13.21,1.53.64.59,1.02.59,1.79c0,.05,0,.12,0,.21h-3.48c.03.51.17.91.43,1.18s.59.41.98.41c.29,0,.54-.08.74-.23s.37-.4.49-.73ZM195.03,32.11h2.61c-.04-.39-.13-.69-.3-.88-.25-.3-.58-.46-.98-.46-.36,0-.67.12-.92.36-.25.24-.38.57-.41.98Z"/><path d="M200.3,34.89l-1.43-4.67h.82l.74,2.69.28,1s.09-.37.24-.96l.74-2.73h.81l.7,2.71.23.89.27-.9.8-2.7h.77l-1.46,4.67h-.82l-.74-2.79-.18-.8-.95,3.59h-.83Z"/><path d="M210.16,34.18l.11.7c-.22.05-.42.07-.6.07-.29,0-.51-.05-.67-.14s-.27-.21-.33-.36-.1-.46-.1-.93v-2.69h-.58v-.62h.58v-1.16l.79-.47v1.63h.8v.62h-.8v2.73c0,.23.01.37.04.44.03.06.07.12.14.15.06.04.15.06.27.06.09,0,.2-.01.35-.03Z"/><path d="M210.93,34.89v-6.44h.79v2.31c.37-.43.83-.64,1.4-.64.35,0,.65.07.9.2.25.14.44.32.55.56.11.24.17.59.17,1.05v2.96h-.79v-2.96c0-.4-.09-.68-.26-.86-.17-.18-.41-.27-.73-.27-.23,0-.46.06-.66.18-.21.12-.35.29-.44.49s-.13.5-.13.86v2.55h-.79Z"/><path d="M215.94,29.36v-.91h.79v.91h-.79ZM215.94,34.89v-4.67h.79v4.67h-.79Z"/><path d="M217.62,33.5l.78-.12c.04.31.17.55.37.72.2.17.48.25.84.25s.63-.07.81-.22.26-.32.26-.52c0-.18-.08-.32-.23-.42-.11-.07-.38-.16-.81-.27-.58-.15-.98-.27-1.21-.38-.22-.11-.39-.25-.51-.44-.12-.19-.17-.4-.17-.63,0-.21.05-.4.14-.58.09-.18.22-.32.39-.44.12-.09.29-.17.5-.23.21-.06.44-.09.68-.09.37,0,.69.05.96.16.28.11.48.25.61.43.13.18.22.42.27.72l-.77.11c-.04-.24-.14-.43-.31-.56-.17-.13-.41-.2-.71-.2-.36,0-.62.06-.78.18s-.23.26-.23.42c0,.1.03.19.1.28.06.08.17.16.3.21.08.03.31.1.7.2.56.15.95.27,1.17.37.22.1.39.23.52.42s.19.41.19.68-.08.51-.23.75c-.15.23-.38.41-.67.54-.29.13-.62.19-.98.19-.61,0-1.07-.13-1.39-.38-.32-.25-.52-.63-.61-1.12Z"/><path d="M228.14,33.39l.82.1c-.13.48-.37.85-.72,1.11s-.79.4-1.34.4c-.68,0-1.22-.21-1.62-.63-.4-.42-.6-1.01-.6-1.77s.2-1.39.61-1.83.93-.65,1.57-.65,1.13.21,1.53.64.59,1.02.59,1.79c0,.05,0,.12,0,.21h-3.48c.03.51.17.91.44,1.18s.59.41.98.41c.29,0,.54-.08.74-.23s.37-.4.49-.73ZM225.54,32.11h2.61c-.04-.39-.13-.69-.3-.88-.25-.3-.58-.46-.98-.46-.36,0-.67.12-.92.36-.25.24-.38.57-.41.98Z"/><path d="M229.95,34.89v-4.67h.71v.65c.15-.23.34-.41.58-.55s.52-.21.83-.21c.35,0,.63.07.85.22.22.14.38.34.47.6.37-.54.85-.82,1.44-.82.46,0,.82.13,1.07.38s.37.65.37,1.18v3.2h-.79v-2.94c0-.32-.03-.54-.08-.68-.05-.14-.14-.25-.28-.34s-.29-.13-.47-.13c-.33,0-.6.11-.82.33-.22.22-.33.57-.33,1.05v2.71h-.79v-3.03c0-.35-.06-.62-.19-.79s-.34-.26-.63-.26c-.22,0-.43.06-.62.18-.19.12-.33.29-.41.51s-.13.55-.13.98v2.42h-.79Z"/><path d="M240.49,34.32c-.29.25-.58.42-.85.53-.27.1-.56.15-.87.15-.51,0-.91-.12-1.18-.38-.28-.25-.41-.57-.41-.96,0-.23.05-.44.16-.63.1-.19.24-.34.41-.46.17-.11.36-.2.57-.26.16-.04.39-.08.7-.12.64-.08,1.11-.17,1.41-.27,0-.11,0-.18,0-.21,0-.32-.07-.55-.22-.68-.2-.18-.5-.27-.9-.27-.37,0-.65.07-.82.2-.18.13-.31.36-.39.69l-.77-.11c.07-.33.19-.6.35-.8.16-.2.39-.36.7-.47.3-.11.66-.17,1.06-.17s.72.05.97.14.43.21.55.35c.12.14.2.32.25.54.03.13.04.38.04.73v1.05c0,.74.02,1.2.05,1.4.03.2.1.38.2.56h-.83c-.08-.16-.13-.36-.16-.58ZM240.42,32.55c-.29.12-.72.22-1.29.3-.33.05-.56.1-.69.16s-.24.14-.31.26-.11.24-.11.38c0,.21.08.39.24.53.16.14.39.21.7.21s.58-.07.81-.2.41-.32.52-.55c.08-.18.13-.44.13-.79v-.29Z"/><path d="M242.45,29.36v-.91h.79v.91h-.79ZM242.45,34.89v-4.67h.79v4.67h-.79Z"/><path d="M244.43,34.89v-6.44h.79v6.44h-.79Z"/><path d="M248.95,29.36v-.91h.79v.91h-.79ZM248.95,34.89v-4.67h.79v4.67h-.79Z"/><path d="M250.95,34.89v-4.67h.71v.66c.34-.51.84-.77,1.49-.77.28,0,.54.05.78.15.24.1.41.23.53.4s.2.36.25.58c.03.15.04.4.04.77v2.87h-.79v-2.84c0-.32-.03-.56-.09-.72s-.17-.29-.33-.38c-.16-.09-.34-.14-.55-.14-.34,0-.63.11-.87.32-.25.21-.37.62-.37,1.22v2.55h-.79Z"/><path d="M258.42,36.69l-.09-.74c.17.05.32.07.45.07.18,0,.32-.03.42-.09s.19-.14.26-.25c.05-.08.13-.28.24-.59.01-.04.04-.11.07-.19l-1.77-4.68h.85l.97,2.7c.13.34.24.7.34,1.08.09-.36.2-.72.33-1.06l1-2.72h.79l-1.78,4.75c-.19.51-.34.87-.44,1.06-.14.26-.3.45-.48.57-.18.12-.4.18-.65.18-.15,0-.32-.03-.51-.1Z"/><path d="M262.66,32.56c0-.86.24-1.5.72-1.92.4-.35.89-.52,1.47-.52.64,0,1.17.21,1.57.63s.61,1,.61,1.74c0,.6-.09,1.07-.27,1.42-.18.34-.44.61-.79.8-.34.19-.72.29-1.13.29-.65,0-1.18-.21-1.58-.63-.4-.42-.6-1.02-.6-1.81ZM263.47,32.56c0,.6.13,1.05.39,1.34.26.3.59.45.98.45s.72-.15.98-.45.39-.75.39-1.37c0-.58-.13-1.01-.39-1.31-.26-.3-.59-.45-.98-.45s-.72.15-.98.44-.39.74-.39,1.34Z"/><path d="M271.02,34.89v-.69c-.36.53-.86.79-1.48.79-.28,0-.53-.05-.77-.16-.24-.11-.42-.24-.53-.4-.12-.16-.2-.36-.24-.59-.03-.16-.05-.4-.05-.74v-2.89h.79v2.59c0,.41.02.69.05.83.05.21.16.37.32.49.16.12.36.18.6.18s.46-.06.67-.18.36-.29.44-.5c.09-.21.13-.51.13-.91v-2.5h.79v4.67h-.71Z"/><path d="M272.95,34.89v-4.67h.71v.71c.18-.33.35-.55.5-.65.15-.11.32-.16.51-.16.27,0,.54.08.81.25l-.27.73c-.19-.11-.39-.17-.58-.17-.17,0-.33.05-.47.16s-.24.25-.29.43c-.09.28-.13.59-.13.92v2.44h-.79Z"/><path d="M279.19,34.89h-.73v-6.44h.79v2.3c.33-.42.76-.63,1.28-.63.29,0,.56.06.82.17.26.12.47.28.63.49.17.21.29.46.39.76.09.3.14.61.14.95,0,.8-.2,1.42-.59,1.85s-.87.65-1.42.65-.98-.23-1.3-.69v.58ZM279.18,32.52c0,.56.08.96.23,1.21.25.41.58.61,1.01.61.35,0,.64-.15.9-.45s.38-.75.38-1.34-.12-1.06-.36-1.35c-.24-.29-.53-.44-.88-.44s-.64.15-.9.45c-.25.3-.38.73-.38,1.3Z"/><path d="M283.46,34.89v-4.67h.71v.71c.18-.33.35-.55.5-.65.15-.11.32-.16.51-.16.27,0,.54.08.81.25l-.27.73c-.19-.11-.39-.17-.58-.17-.17,0-.33.05-.47.16s-.24.25-.29.43c-.09.28-.13.59-.13.92v2.44h-.79Z"/><path d="M286.17,32.56c0-.86.24-1.5.72-1.92.4-.35.89-.52,1.47-.52.64,0,1.17.21,1.57.63s.61,1,.61,1.74c0,.6-.09,1.07-.27,1.42-.18.34-.44.61-.79.8-.34.19-.72.29-1.13.29-.65,0-1.18-.21-1.58-.63-.4-.42-.6-1.02-.6-1.81ZM286.98,32.56c0,.6.13,1.05.39,1.34.26.3.59.45.98.45s.72-.15.98-.45.39-.75.39-1.37c0-.58-.13-1.01-.39-1.31-.26-.3-.59-.45-.98-.45s-.72.15-.98.44-.39.74-.39,1.34Z"/><path d="M292.33,34.89l-1.43-4.67h.82l.74,2.69.28,1s.09-.37.24-.96l.74-2.73h.81l.7,2.71.23.89.27-.9.8-2.7h.77l-1.46,4.67h-.82l-.74-2.79-.18-.8-.94,3.59h-.83Z"/><path d="M297.65,33.5l.78-.12c.04.31.17.55.37.72.2.17.48.25.84.25s.63-.07.81-.22.26-.32.26-.52c0-.18-.08-.32-.23-.42-.11-.07-.38-.16-.81-.27-.58-.15-.98-.27-1.21-.38-.22-.11-.39-.25-.51-.44-.12-.19-.17-.4-.17-.63,0-.21.05-.4.14-.58.09-.18.22-.32.39-.44.12-.09.29-.17.5-.23.21-.06.44-.09.68-.09.37,0,.69.05.96.16.28.11.48.25.61.43.13.18.22.42.27.72l-.77.11c-.04-.24-.14-.43-.3-.56-.17-.13-.41-.2-.71-.2-.36,0-.62.06-.78.18s-.23.26-.23.42c0,.1.03.19.1.28.06.08.17.16.3.21.08.03.31.1.7.2.56.15.95.27,1.17.37.22.1.39.23.52.42s.19.41.19.68-.08.51-.23.75c-.15.23-.38.41-.67.54-.29.13-.62.19-.98.19-.61,0-1.07-.13-1.39-.38-.32-.25-.52-.63-.61-1.12Z"/><path d="M305.66,33.39l.82.1c-.13.48-.37.85-.72,1.11s-.79.4-1.34.4c-.68,0-1.22-.21-1.62-.63-.4-.42-.6-1.01-.6-1.77s.2-1.39.61-1.83.93-.65,1.57-.65,1.13.21,1.53.64c.39.42.59,1.02.59,1.79,0,.05,0,.12,0,.21h-3.48c.03.51.17.91.44,1.18s.59.41.98.41c.29,0,.54-.08.74-.23.2-.15.37-.4.49-.73ZM303.07,32.11h2.61c-.04-.39-.13-.69-.3-.88-.25-.3-.58-.46-.98-.46-.36,0-.67.12-.92.36-.25.24-.38.57-.41.98Z"/><path d="M307.47,34.89v-4.67h.71v.71c.18-.33.35-.55.5-.65.15-.11.32-.16.51-.16.27,0,.54.08.81.25l-.27.73c-.19-.11-.39-.17-.58-.17-.17,0-.33.05-.47.16s-.24.25-.29.43c-.09.28-.13.59-.13.92v2.44h-.79Z"/><path d="M186,36.17v-.66h123.88v.66h-123.88Z"/><path d="M260.09,58.35h-24.18c-1.82,0-3.49.97-4.4,2.54l-12.09,20.94c-.91,1.57-.91,3.51,0,5.08l12.09,20.94c.91,1.57,2.59,2.54,4.4,2.54h24.18c1.82,0,3.49-.97,4.4-2.54l12.09-20.94c.91-1.57.91-3.51,0-5.08l-12.09-20.94c-.91-1.57-2.59-2.54-4.4-2.54Z" style="fill:#fff; stroke:#211b13; stroke-miterlimit:10; stroke-width:3.11px;"/><path d="M241.71,95.72c-2.01-1.11-3.58-2.63-4.73-4.57-1.14-1.94-1.71-4.12-1.71-6.54s.57-4.61,1.71-6.54c1.14-1.94,2.72-3.46,4.74-4.56,2.02-1.11,4.28-1.66,6.78-1.66,1.95,0,3.73.33,5.35.98,1.62.65,3,1.62,4.14,2.91l-2.32,2.25c-1.88-1.97-4.22-2.96-7.03-2.96-1.85,0-3.53.42-5.03,1.25-1.5.83-2.67,1.98-3.51,3.44-.84,1.46-1.27,3.1-1.27,4.9s.42,3.44,1.27,4.9c.84,1.46,2.02,2.61,3.51,3.44,1.5.83,3.17,1.25,5.03,1.25,2.78,0,5.12-1,7.03-3l2.32,2.25c-1.14,1.28-2.53,2.26-4.16,2.92-1.63.67-3.42,1-5.37,1-2.5,0-4.75-.55-6.76-1.66Z" style="fill:#211b13;"/><rect x="93" y="139.35" width="310" height="120" style="fill:#f6f6f4;"/><path d="M236.83,213.35c-.81,0-1.48-.27-2.02-.81s-.81-1.21-.81-2.02v-22.34c0-.81.27-1.48.81-2.02s1.21-.81,2.02-.81h11.37c.25,0,.46.08.62.25s.25.38.25.62-.08.46-.25.62-.38.25-.62.25h-11.37c-.31,0-.57.1-.77.3-.2.2-.3.46-.3.77v22.34c0,.31.1.57.3.77.2.2.46.3.77.3h22.34c.31,0,.57-.1.77-.3.2-.2.3-.46.3-.77v-11.37c0-.25.08-.46.25-.62s.38-.25.62-.25.46.08.62.25.25.38.25.62v11.37c0,.81-.27,1.48-.81,2.02s-1.21.81-2.02.81h-22.34ZM238.85,207.02h18.31l-5.65-7.54-5.25,6.63-3.5-4.21-3.9,5.11ZM256.75,190.6h-2.62c-.25,0-.46-.08-.62-.25s-.25-.38-.25-.62.08-.46.25-.62.38-.25.62-.25h2.62v-2.62c0-.25.08-.46.25-.62s.38-.25.62-.25.46.08.62.25.25.38.25.62v2.62h2.62c.25,0,.46.08.62.25s.25.38.25.62-.08.46-.25.62-.38.25-.62.25h-2.62v2.62c0,.25-.08.46-.25.62s-.38.25-.62.25-.46-.08-.62-.25-.25-.38-.25-.62v-2.62Z" style="fill:#afafae;"/><rect x="93" y="271.35" width="310" height="120" style="fill:#f6f6f4;"/><path d="M236.83,345.35c-.81,0-1.48-.27-2.02-.81s-.81-1.21-.81-2.02v-22.34c0-.81.27-1.48.81-2.02s1.21-.81,2.02-.81h11.37c.25,0,.46.08.62.25s.25.38.25.62-.08.46-.25.62-.38.25-.62.25h-11.37c-.31,0-.57.1-.77.3-.2.2-.3.46-.3.77v22.34c0,.31.1.57.3.77.2.2.46.3.77.3h22.34c.31,0,.57-.1.77-.3.2-.2.3-.46.3-.77v-11.37c0-.25.08-.46.25-.62s.38-.25.62-.25.46.08.62.25.25.38.25.62v11.37c0,.81-.27,1.48-.81,2.02s-1.21.81-2.02.81h-22.34ZM238.85,339.02h18.31l-5.65-7.54-5.25,6.63-3.5-4.21-3.9,5.11ZM256.75,322.6h-2.62c-.25,0-.46-.08-.62-.25s-.25-.38-.25-.62.08-.46.25-.62.38-.25.62-.25h2.62v-2.62c0-.25.08-.46.25-.62s.38-.25.62-.25.46.08.62.25.25.38.25.62v2.62h2.62c.25,0,.46.08.62.25s.25.38.25.62-.08.46-.25.62-.38.25-.62.25h-2.62v2.62c0,.25-.08.46-.25.62s-.38.25-.62.25-.46-.08-.62-.25-.25-.38-.25-.62v-2.62Z" style="fill:#afafae;"/><rect x="200.1" y="407.85" width="95" height="30"/><path d="M221.31,426.25h-1.42l-.56-1.46h-2.58l-.53,1.46h-1.38l2.51-6.44h1.38l2.58,6.44ZM218.92,423.7l-.89-2.39-.87,2.39h1.76Z" style="fill:#fff;"/><path d="M226.27,426.25h-1.15v-.69c-.19.27-.42.47-.67.6-.26.13-.52.2-.78.2-.54,0-1-.21-1.38-.65-.38-.43-.57-1.03-.57-1.81s.19-1.39.56-1.8.84-.62,1.41-.62c.52,0,.97.22,1.35.65v-2.32h1.23v6.44ZM222.98,423.81c0,.5.07.86.21,1.08.2.32.48.48.83.48.28,0,.53-.12.73-.36s.3-.6.3-1.08c0-.54-.1-.92-.29-1.16-.19-.24-.44-.35-.74-.35s-.54.12-.74.35c-.2.23-.3.58-.3,1.04Z" style="fill:#fff;"/><path d="M231.77,426.25h-1.15v-.69c-.19.27-.42.47-.67.6-.26.13-.52.2-.78.2-.54,0-1-.21-1.38-.65-.38-.43-.57-1.03-.57-1.81s.19-1.39.56-1.8.84-.62,1.41-.62c.52,0,.97.22,1.35.65v-2.32h1.23v6.44ZM228.48,423.81c0,.5.07.86.21,1.08.2.32.48.48.83.48.28,0,.53-.12.73-.36s.3-.6.3-1.08c0-.54-.1-.92-.29-1.16-.19-.24-.44-.35-.74-.35s-.54.12-.74.35c-.2.23-.3.58-.3,1.04Z" style="fill:#fff;"/><path d="M235.44,426.25v-6.44h1.23v2.32c.38-.43.83-.65,1.35-.65.57,0,1.04.21,1.41.62s.56,1,.56,1.77-.19,1.41-.57,1.84-.84.65-1.38.65c-.27,0-.53-.07-.79-.2-.26-.13-.48-.33-.67-.59v.69h-1.15ZM236.66,423.81c0,.48.08.84.23,1.07.21.33.5.49.85.49.27,0,.5-.12.7-.35s.29-.6.29-1.1c0-.53-.1-.92-.29-1.15-.19-.24-.44-.35-.74-.35s-.54.12-.74.34c-.2.23-.29.58-.29,1.05Z" style="fill:#fff;"/><path d="M244.06,426.25v-.7c-.17.25-.39.45-.67.59-.28.14-.57.21-.88.21s-.59-.07-.84-.21-.43-.33-.54-.58-.17-.59-.17-1.03v-2.95h1.23v2.14c0,.66.02,1.06.07,1.21.04.15.13.27.25.35.12.09.27.13.46.13.21,0,.4-.06.57-.17s.28-.26.34-.43c.06-.17.09-.59.09-1.26v-1.97h1.23v4.67h-1.15Z" style="fill:#fff;"/><path d="M248.62,421.58v.98h-.84v1.88c0,.38,0,.6.02.67.02.06.05.11.11.16.06.04.13.06.21.06.11,0,.28-.04.5-.12l.11.96c-.29.12-.61.18-.98.18-.22,0-.42-.04-.6-.11s-.31-.17-.39-.29c-.08-.12-.14-.28-.17-.48-.03-.14-.04-.43-.04-.87v-2.03h-.57v-.98h.57v-.93l1.24-.72v1.65h.84Z" style="fill:#fff;"/><path d="M251.62,421.58v.98h-.84v1.88c0,.38,0,.6.02.67.02.06.05.11.11.16.06.04.13.06.21.06.11,0,.28-.04.5-.12l.11.96c-.29.12-.61.18-.98.18-.22,0-.42-.04-.6-.11s-.31-.17-.39-.29c-.08-.12-.14-.28-.17-.48-.03-.14-.04-.43-.04-.87v-2.03h-.57v-.98h.57v-.93l1.24-.72v1.65h.84Z" style="fill:#fff;"/><path d="M252.19,423.85c0-.41.1-.81.3-1.19s.49-.68.86-.88.78-.3,1.24-.3c.71,0,1.28.23,1.74.69s.68,1.04.68,1.74-.23,1.29-.68,1.76c-.46.46-1.03.7-1.72.7-.43,0-.84-.1-1.22-.29s-.68-.48-.89-.85c-.2-.37-.3-.83-.3-1.36ZM253.46,423.91c0,.46.11.82.33,1.06s.49.37.81.37.59-.12.81-.37.33-.6.33-1.07-.11-.81-.33-1.05-.49-.37-.81-.37-.59.12-.81.37-.33.6-.33,1.06Z" style="fill:#fff;"/><path d="M262.22,426.25h-1.23v-2.38c0-.5-.03-.83-.08-.98-.05-.15-.14-.26-.26-.34-.12-.08-.26-.12-.43-.12-.21,0-.41.06-.58.18s-.29.27-.35.47c-.06.19-.09.55-.09,1.07v2.11h-1.23v-4.67h1.15v.69c.41-.53.92-.79,1.54-.79.27,0,.52.05.75.15.23.1.4.22.51.38s.2.33.24.52c.04.19.07.47.07.83v2.9Z" style="fill:#fff;"/><path d="M268.11,421.58v.98h-.84v1.88c0,.38,0,.6.02.67.02.06.05.11.11.16.06.04.13.06.21.06.11,0,.28-.04.5-.12l.11.96c-.29.12-.61.18-.98.18-.22,0-.42-.04-.6-.11s-.31-.17-.39-.29c-.08-.12-.14-.28-.17-.48-.03-.14-.04-.43-.04-.87v-2.03h-.57v-.98h.57v-.93l1.24-.72v1.65h.84Z" style="fill:#fff;"/><path d="M271.67,424.76l1.23.21c-.16.45-.41.79-.75,1.03-.34.24-.77.35-1.28.35-.81,0-1.41-.26-1.8-.79-.31-.42-.46-.96-.46-1.61,0-.77.2-1.38.61-1.82.4-.44.92-.66,1.53-.66.69,0,1.24.23,1.64.69s.59,1.16.58,2.11h-3.09c0,.37.11.65.3.85.19.21.43.31.71.31.19,0,.36-.05.49-.16s.23-.28.3-.51ZM271.74,423.51c0-.36-.1-.63-.28-.82-.18-.19-.39-.28-.64-.28-.27,0-.49.1-.67.29-.18.2-.26.46-.26.8h1.85Z" style="fill:#fff;"/><path d="M273.38,426.25l1.68-2.4-1.61-2.26h1.51l.83,1.28.87-1.28h1.45l-1.58,2.21,1.73,2.46h-1.52l-.95-1.45-.96,1.45h-1.45Z" style="fill:#fff;"/><path d="M281.12,421.58v.98h-.84v1.88c0,.38,0,.6.02.67.02.06.05.11.11.16.06.04.13.06.21.06.11,0,.28-.04.5-.12l.11.96c-.29.12-.61.18-.98.18-.22,0-.42-.04-.6-.11s-.31-.17-.39-.29c-.08-.12-.14-.28-.17-.48-.03-.14-.04-.43-.04-.87v-2.03h-.57v-.98h.57v-.93l1.24-.72v1.65h.84Z" style="fill:#fff;"/><path d="M260.09,499.35h-24.18c-1.82,0-3.49.97-4.4,2.54l-12.09,20.94c-.91,1.57-.91,3.51,0,5.08l12.09,20.94c.91,1.57,2.59,2.54,4.4,2.54h24.18c1.82,0,3.49-.97,4.4-2.54l12.09-20.94c.91-1.57.91-3.51,0-5.08l-12.09-20.94c-.91-1.57-2.59-2.54-4.4-2.54Z" style="fill:none; stroke:#211b13; stroke-miterlimit:10; stroke-width:3.11px;"/><path d="M241.71,536.72c-2.01-1.11-3.58-2.63-4.73-4.57-1.14-1.94-1.71-4.12-1.71-6.54s.57-4.61,1.71-6.54c1.14-1.94,2.72-3.46,4.74-4.56,2.02-1.11,4.28-1.66,6.78-1.66,1.95,0,3.73.33,5.35.98,1.62.65,3,1.62,4.14,2.91l-2.32,2.25c-1.88-1.97-4.22-2.96-7.03-2.96-1.85,0-3.53.42-5.03,1.25-1.5.83-2.67,1.98-3.51,3.44-.84,1.46-1.27,3.1-1.27,4.9s.42,3.44,1.27,4.9,2.02,2.61,3.51,3.44c1.5.83,3.17,1.25,5.03,1.25,2.78,0,5.12-1,7.03-3l2.32,2.25c-1.14,1.28-2.53,2.26-4.16,2.92-1.63.67-3.42,1-5.37,1-2.5,0-4.75-.55-6.76-1.66Z" style="fill:#211b13;"/><circle cx="199.34" cy="467.06" r="12"/><path d="M200.07,463.35c0-.52.47-.71.99-.71s1.08.16,1.08.16l.34-1.99s-.71-.24-2.41-.24c-1.04,0-1.65.4-2.09.98-.42.55-.43,1.44-.43,2.02v1.31h-1.35v1.94h1.35v6.75h2.52v-6.75h2l.15-1.94h-2.14v-1.52Z" style="fill:#fff;"/><circle cx="248" cy="466.75" r="12"/><path d="M248,470.02c1.81,0,3.27-1.47,3.27-3.27s-1.47-3.27-3.27-3.27-3.27,1.47-3.27,3.27,1.47,3.27,3.27,3.27ZM248,468.93c1.2,0,2.18-.98,2.18-2.18s-.98-2.18-2.18-2.18-2.18.98-2.18,2.18.98,2.18,2.18,2.18Z" style="fill:#fff; fill-rule:evenodd;"/><path d="M251.27,462.93c-.3,0-.55.24-.55.55s.24.55.55.55.55-.24.55-.55-.24-.55-.55-.55Z" style="fill:#fff;"/><path d="M242.36,462.54c-.36.7-.36,1.62-.36,3.45v1.53c0,1.83,0,2.75.36,3.45.31.62.81,1.12,1.43,1.43.7.36,1.62.36,3.45.36h1.53c1.83,0,2.75,0,3.45-.36.62-.31,1.12-.81,1.43-1.43.36-.7.36-1.62.36-3.45v-1.53c0-1.83,0-2.75-.36-3.45-.31-.62-.81-1.12-1.43-1.43-.7-.36-1.62-.36-3.45-.36h-1.53c-1.83,0-2.75,0-3.45.36-.62.31-1.12.81-1.43,1.43ZM248.76,461.84h-1.53c-.93,0-1.57,0-2.06.04-.48.04-.72.11-.89.2-.41.21-.74.54-.95.95-.09.17-.16.42-.2.89-.04.49-.04,1.13-.04,2.06v1.53c0,.93,0,1.57.04,2.06.04.48.11.72.2.89.21.41.54.74.95.95.17.09.42.16.89.2.49.04,1.13.04,2.06.04h1.53c.93,0,1.57,0,2.06-.04.48-.04.72-.11.89-.2.41-.21.74-.54.95-.95.09-.17.16-.42.2-.89.04-.49.04-1.13.04-2.06v-1.53c0-.93,0-1.57-.04-2.06-.04-.48-.11-.72-.2-.89-.21-.41-.54-.74-.95-.95-.17-.09-.42-.16-.89-.2-.49-.04-1.13-.04-2.06-.04Z" style="fill:#fff; fill-rule:evenodd;"/><circle cx="296.66" cy="467.1" r="12"/><path d="M297.66,466.28l3.91-4.54h-.93l-3.39,3.94-2.71-3.94h-3.12l4.1,5.96-4.1,4.76h.93l3.58-4.16,2.86,4.16h3.12l-4.25-6.18h0ZM296.39,467.75l-.41-.59-3.3-4.72h1.42l2.66,3.81.41.59,3.46,4.95h-1.42l-2.83-4.04h0Z" style="fill:#fff;"/></g></svg>