<?xml version="1.0" encoding="UTF-8"?><svg id="Layer_2" xmlns="http://www.w3.org/2000/svg" viewBox="0 0 496 558"><g id="Layer_1-2"><rect width="496" height="558" style="fill:#d0d0d0;"/><rect x="66.21" width="363.58" height="558" style="fill:#fff;"/><path d="M188.53,34.89l-2.5-6.44h.92l1.67,4.68c.13.38.25.73.34,1.05.1-.35.21-.7.35-1.05l1.74-4.68h.87l-2.52,6.44h-.87Z"/><path d="M192.43,29.36v-.91h.79v.91h-.79ZM192.43,34.89v-4.67h.79v4.67h-.79Z"/><path d="M197.62,33.39l.82.1c-.13.48-.37.85-.72,1.11s-.79.4-1.34.4c-.68,0-1.22-.21-1.62-.63-.4-.42-.6-1.01-.6-1.77s.2-1.39.61-1.83.93-.65,1.57-.65,1.13.21,1.53.64.59,1.02.59,1.79c0,.05,0,.12,0,.21h-3.48c.03.51.17.91.43,1.18s.59.41.98.41c.29,0,.54-.08.74-.23s.37-.4.49-.73ZM195.03,32.11h2.61c-.04-.39-.13-.69-.3-.88-.25-.3-.58-.46-.98-.46-.36,0-.67.12-.92.36-.25.24-.38.57-.41.98Z"/><path d="M200.3,34.89l-1.43-4.67h.82l.74,2.69.28,1s.09-.37.24-.96l.74-2.73h.81l.7,2.71.23.89.27-.9.8-2.7h.77l-1.46,4.67h-.82l-.74-2.79-.18-.8-.95,3.59h-.83Z"/><path d="M210.16,34.18l.11.7c-.22.05-.42.07-.6.07-.29,0-.51-.05-.67-.14s-.27-.21-.33-.36-.1-.46-.1-.93v-2.69h-.58v-.62h.58v-1.16l.79-.47v1.63h.8v.62h-.8v2.73c0,.23.01.37.04.44.03.06.07.12.14.15.06.04.15.06.27.06.09,0,.2-.01.35-.03Z"/><path d="M210.93,34.89v-6.44h.79v2.31c.37-.43.83-.64,1.4-.64.35,0,.65.07.9.2.25.14.44.32.55.56.11.24.17.59.17,1.05v2.96h-.79v-2.96c0-.4-.09-.68-.26-.86-.17-.18-.41-.27-.73-.27-.23,0-.46.06-.66.18-.21.12-.35.29-.44.49s-.13.5-.13.86v2.55h-.79Z"/><path d="M215.94,29.36v-.91h.79v.91h-.79ZM215.94,34.89v-4.67h.79v4.67h-.79Z"/><path d="M217.62,33.5l.78-.12c.04.31.17.55.37.72.2.17.48.25.84.25s.63-.07.81-.22.26-.32.26-.52c0-.18-.08-.32-.23-.42-.11-.07-.38-.16-.81-.27-.58-.15-.98-.27-1.21-.38-.22-.11-.39-.25-.51-.44-.12-.19-.17-.4-.17-.63,0-.21.05-.4.14-.58.09-.18.22-.32.39-.44.12-.09.29-.17.5-.23.21-.06.44-.09.68-.09.37,0,.69.05.96.16.28.11.48.25.61.43.13.18.22.42.27.72l-.77.11c-.04-.24-.14-.43-.31-.56-.17-.13-.41-.2-.71-.2-.36,0-.62.06-.78.18s-.23.26-.23.42c0,.1.03.19.1.28.06.08.17.16.3.21.08.03.31.1.7.2.56.15.95.27,1.17.37.22.1.39.23.52.42s.19.41.19.68-.08.51-.23.75c-.15.23-.38.41-.67.54-.29.13-.62.19-.98.19-.61,0-1.07-.13-1.39-.38-.32-.25-.52-.63-.61-1.12Z"/><path d="M228.14,33.39l.82.1c-.13.48-.37.85-.72,1.11s-.79.4-1.34.4c-.68,0-1.22-.21-1.62-.63-.4-.42-.6-1.01-.6-1.77s.2-1.39.61-1.83.93-.65,1.57-.65,1.13.21,1.53.64.59,1.02.59,1.79c0,.05,0,.12,0,.21h-3.48c.03.51.17.91.44,1.18s.59.41.98.41c.29,0,.54-.08.74-.23s.37-.4.49-.73ZM225.54,32.11h2.61c-.04-.39-.13-.69-.3-.88-.25-.3-.58-.46-.98-.46-.36,0-.67.12-.92.36-.25.24-.38.57-.41.98Z"/><path d="M229.95,34.89v-4.67h.71v.65c.15-.23.34-.41.58-.55s.52-.21.83-.21c.35,0,.63.07.85.22.22.14.38.34.47.6.37-.54.85-.82,1.44-.82.46,0,.82.13,1.07.38s.37.65.37,1.18v3.2h-.79v-2.94c0-.32-.03-.54-.08-.68-.05-.14-.14-.25-.28-.34s-.29-.13-.47-.13c-.33,0-.6.11-.82.33-.22.22-.33.57-.33,1.05v2.71h-.79v-3.03c0-.35-.06-.62-.19-.79s-.34-.26-.63-.26c-.22,0-.43.06-.62.18-.19.12-.33.29-.41.51s-.13.55-.13.98v2.42h-.79Z"/><path d="M240.49,34.32c-.29.25-.58.42-.85.53-.27.1-.56.15-.87.15-.51,0-.91-.12-1.18-.38-.28-.25-.41-.57-.41-.96,0-.23.05-.44.16-.63.1-.19.24-.34.41-.46.17-.11.36-.2.57-.26.16-.04.39-.08.7-.12.64-.08,1.11-.17,1.41-.27,0-.11,0-.18,0-.21,0-.32-.07-.55-.22-.68-.2-.18-.5-.27-.9-.27-.37,0-.65.07-.82.2-.18.13-.31.36-.39.69l-.77-.11c.07-.33.19-.6.35-.8.16-.2.39-.36.7-.47.3-.11.66-.17,1.06-.17s.72.05.97.14.43.21.55.35c.12.14.2.32.25.54.03.13.04.38.04.73v1.05c0,.74.02,1.2.05,1.4.03.2.1.38.2.56h-.83c-.08-.16-.13-.36-.16-.58ZM240.42,32.55c-.29.12-.72.22-1.29.3-.33.05-.56.1-.69.16s-.24.14-.31.26-.11.24-.11.38c0,.21.08.39.24.53.16.14.39.21.7.21s.58-.07.81-.2.41-.32.52-.55c.08-.18.13-.44.13-.79v-.29Z"/><path d="M242.45,29.36v-.91h.79v.91h-.79ZM242.45,34.89v-4.67h.79v4.67h-.79Z"/><path d="M244.43,34.89v-6.44h.79v6.44h-.79Z"/><path d="M248.95,29.36v-.91h.79v.91h-.79ZM248.95,34.89v-4.67h.79v4.67h-.79Z"/><path d="M250.95,34.89v-4.67h.71v.66c.34-.51.84-.77,1.49-.77.28,0,.54.05.78.15.24.1.41.23.53.4s.2.36.25.58c.03.15.04.4.04.77v2.87h-.79v-2.84c0-.32-.03-.56-.09-.72s-.17-.29-.33-.38c-.16-.09-.34-.14-.55-.14-.34,0-.63.11-.87.32-.25.21-.37.62-.37,1.22v2.55h-.79Z"/><path d="M258.42,36.69l-.09-.74c.17.05.32.07.45.07.18,0,.32-.03.42-.09s.19-.14.26-.25c.05-.08.13-.28.24-.59.01-.04.04-.11.07-.19l-1.77-4.68h.85l.97,2.7c.13.34.24.7.34,1.08.09-.36.2-.72.33-1.06l1-2.72h.79l-1.78,4.75c-.19.51-.34.87-.44,1.06-.14.26-.3.45-.48.57-.18.12-.4.18-.65.18-.15,0-.32-.03-.51-.1Z"/><path d="M262.66,32.56c0-.86.24-1.5.72-1.92.4-.35.89-.52,1.47-.52.64,0,1.17.21,1.57.63s.61,1,.61,1.74c0,.6-.09,1.07-.27,1.42-.18.34-.44.61-.79.8-.34.19-.72.29-1.13.29-.65,0-1.18-.21-1.58-.63-.4-.42-.6-1.02-.6-1.81ZM263.47,32.56c0,.6.13,1.05.39,1.34.26.3.59.45.98.45s.72-.15.98-.45.39-.75.39-1.37c0-.58-.13-1.01-.39-1.31-.26-.3-.59-.45-.98-.45s-.72.15-.98.44-.39.74-.39,1.34Z"/><path d="M271.02,34.89v-.69c-.36.53-.86.79-1.48.79-.28,0-.53-.05-.77-.16-.24-.11-.42-.24-.53-.4-.12-.16-.2-.36-.24-.59-.03-.16-.05-.4-.05-.74v-2.89h.79v2.59c0,.41.02.69.05.83.05.21.16.37.32.49.16.12.36.18.6.18s.46-.06.67-.18.36-.29.44-.5c.09-.21.13-.51.13-.91v-2.5h.79v4.67h-.71Z"/><path d="M272.95,34.89v-4.67h.71v.71c.18-.33.35-.55.5-.65.15-.11.32-.16.51-.16.27,0,.54.08.81.25l-.27.73c-.19-.11-.39-.17-.58-.17-.17,0-.33.05-.47.16s-.24.25-.29.43c-.09.28-.13.59-.13.92v2.44h-.79Z"/><path d="M279.19,34.89h-.73v-6.44h.79v2.3c.33-.42.76-.63,1.28-.63.29,0,.56.06.82.17.26.12.47.28.63.49.17.21.29.46.39.76.09.3.14.61.14.95,0,.8-.2,1.42-.59,1.85s-.87.65-1.42.65-.98-.23-1.3-.69v.58ZM279.18,32.52c0,.56.08.96.23,1.21.25.41.58.61,1.01.61.35,0,.64-.15.9-.45s.38-.75.38-1.34-.12-1.06-.36-1.35c-.24-.29-.53-.44-.88-.44s-.64.15-.9.45c-.25.3-.38.73-.38,1.3Z"/><path d="M283.46,34.89v-4.67h.71v.71c.18-.33.35-.55.5-.65.15-.11.32-.16.51-.16.27,0,.54.08.81.25l-.27.73c-.19-.11-.39-.17-.58-.17-.17,0-.33.05-.47.16s-.24.25-.29.43c-.09.28-.13.59-.13.92v2.44h-.79Z"/><path d="M286.17,32.56c0-.86.24-1.5.72-1.92.4-.35.89-.52,1.47-.52.64,0,1.17.21,1.57.63s.61,1,.61,1.74c0,.6-.09,1.07-.27,1.42-.18.34-.44.61-.79.8-.34.19-.72.29-1.13.29-.65,0-1.18-.21-1.58-.63-.4-.42-.6-1.02-.6-1.81ZM286.98,32.56c0,.6.13,1.05.39,1.34.26.3.59.45.98.45s.72-.15.98-.45.39-.75.39-1.37c0-.58-.13-1.01-.39-1.31-.26-.3-.59-.45-.98-.45s-.72.15-.98.44-.39.74-.39,1.34Z"/><path d="M292.33,34.89l-1.43-4.67h.82l.74,2.69.28,1s.09-.37.24-.96l.74-2.73h.81l.7,2.71.23.89.27-.9.8-2.7h.77l-1.46,4.67h-.82l-.74-2.79-.18-.8-.94,3.59h-.83Z"/><path d="M297.65,33.5l.78-.12c.04.31.17.55.37.72.2.17.48.25.84.25s.63-.07.81-.22.26-.32.26-.52c0-.18-.08-.32-.23-.42-.11-.07-.38-.16-.81-.27-.58-.15-.98-.27-1.21-.38-.22-.11-.39-.25-.51-.44-.12-.19-.17-.4-.17-.63,0-.21.05-.4.14-.58.09-.18.22-.32.39-.44.12-.09.29-.17.5-.23.21-.06.44-.09.68-.09.37,0,.69.05.96.16.28.11.48.25.61.43.13.18.22.42.27.72l-.77.11c-.04-.24-.14-.43-.3-.56-.17-.13-.41-.2-.71-.2-.36,0-.62.06-.78.18s-.23.26-.23.42c0,.1.03.19.1.28.06.08.17.16.3.21.08.03.31.1.7.2.56.15.95.27,1.17.37.22.1.39.23.52.42s.19.41.19.68-.08.51-.23.75c-.15.23-.38.41-.67.54-.29.13-.62.19-.98.19-.61,0-1.07-.13-1.39-.38-.32-.25-.52-.63-.61-1.12Z"/><path d="M305.66,33.39l.82.1c-.13.48-.37.85-.72,1.11s-.79.4-1.34.4c-.68,0-1.22-.21-1.62-.63-.4-.42-.6-1.01-.6-1.77s.2-1.39.61-1.83.93-.65,1.57-.65,1.13.21,1.53.64c.39.42.59,1.02.59,1.79,0,.05,0,.12,0,.21h-3.48c.03.51.17.91.44,1.18s.59.41.98.41c.29,0,.54-.08.74-.23.2-.15.37-.4.49-.73ZM303.07,32.11h2.61c-.04-.39-.13-.69-.3-.88-.25-.3-.58-.46-.98-.46-.36,0-.67.12-.92.36-.25.24-.38.57-.41.98Z"/><path d="M307.47,34.89v-4.67h.71v.71c.18-.33.35-.55.5-.65.15-.11.32-.16.51-.16.27,0,.54.08.81.25l-.27.73c-.19-.11-.39-.17-.58-.17-.17,0-.33.05-.47.16s-.24.25-.29.43c-.09.28-.13.59-.13.92v2.44h-.79Z"/><path d="M186,36.17v-.66h123.88v.66h-123.88Z"/><path d="M260.09,58.35h-24.18c-1.82,0-3.49.97-4.4,2.54l-12.09,20.94c-.91,1.57-.91,3.51,0,5.08l12.09,20.94c.91,1.57,2.59,2.54,4.4,2.54h24.18c1.82,0,3.49-.97,4.4-2.54l12.09-20.94c.91-1.57.91-3.51,0-5.08l-12.09-20.94c-.91-1.57-2.59-2.54-4.4-2.54Z" style="fill:#fff; stroke:#211b13; stroke-miterlimit:10; stroke-width:3.11px;"/><path d="M241.71,95.72c-2.01-1.11-3.58-2.63-4.73-4.57-1.14-1.94-1.71-4.12-1.71-6.54s.57-4.61,1.71-6.54c1.14-1.94,2.72-3.46,4.74-4.56,2.02-1.11,4.28-1.66,6.78-1.66,1.95,0,3.73.33,5.35.98,1.62.65,3,1.62,4.14,2.91l-2.32,2.25c-1.88-1.97-4.22-2.96-7.03-2.96-1.85,0-3.53.42-5.03,1.25-1.5.83-2.67,1.98-3.51,3.44-.84,1.46-1.27,3.1-1.27,4.9s.42,3.44,1.27,4.9c.84,1.46,2.02,2.61,3.51,3.44,1.5.83,3.17,1.25,5.03,1.25,2.78,0,5.12-1,7.03-3l2.32,2.25c-1.14,1.28-2.53,2.26-4.16,2.92-1.63.67-3.42,1-5.37,1-2.5,0-4.75-.55-6.76-1.66Z" style="fill:#211b13;"/><path d="M152.52,176.21l2.67-.26c.16.9.49,1.56.98,1.98.49.42,1.16.63,1.99.63.88,0,1.55-.19,2-.56.45-.37.67-.81.67-1.31,0-.32-.09-.6-.28-.82-.19-.23-.52-.42-.99-.59-.32-.11-1.05-.31-2.2-.59-1.47-.36-2.5-.81-3.1-1.35-.83-.75-1.25-1.66-1.25-2.74,0-.69.2-1.34.59-1.94.39-.6.96-1.06,1.7-1.38.74-.32,1.63-.47,2.68-.47,1.71,0,2.99.37,3.85,1.12.86.75,1.32,1.75,1.36,3l-2.75.12c-.12-.7-.37-1.2-.76-1.51-.39-.31-.97-.46-1.74-.46s-1.42.16-1.87.49c-.29.21-.44.49-.44.84,0,.32.14.6.41.83.35.29,1.19.59,2.52.91s2.32.64,2.96.98c.64.34,1.14.8,1.5,1.38.36.58.54,1.31.54,2.17,0,.78-.22,1.51-.65,2.19-.43.68-1.05,1.19-1.84,1.52-.79.33-1.78.5-2.96.5-1.72,0-3.04-.4-3.96-1.19-.92-.79-1.47-1.95-1.65-3.47Z"/><path d="M168.47,167.04v5c.84-.98,1.85-1.48,3.02-1.48.6,0,1.14.11,1.62.33s.85.51,1.09.85c.24.35.41.73.5,1.15.09.42.13,1.07.13,1.96v5.78h-2.61v-5.2c0-1.03-.05-1.69-.15-1.97-.1-.28-.27-.5-.52-.66-.25-.16-.56-.25-.94-.25-.43,0-.82.11-1.16.32-.34.21-.59.53-.75.95-.16.42-.24,1.05-.24,1.88v4.94h-2.61v-13.6h2.61Z"/><path d="M179.43,173.79l-2.37-.43c.27-.95.72-1.66,1.37-2.12.65-.46,1.61-.69,2.89-.69,1.16,0,2.03.14,2.6.41.57.27.97.62,1.2,1.05.23.42.35,1.2.35,2.33l-.03,3.04c0,.87.04,1.5.12,1.92.08.41.24.85.47,1.32h-2.58c-.07-.17-.15-.43-.25-.77-.04-.15-.07-.26-.09-.31-.45.43-.92.76-1.43.97-.51.22-1.05.32-1.62.32-1.01,0-1.81-.27-2.4-.83-.58-.55-.88-1.25-.88-2.09,0-.56.13-1.05.4-1.49.27-.44.64-.77,1.12-1,.48-.23,1.17-.43,2.07-.61,1.22-.23,2.06-.44,2.53-.64v-.26c0-.5-.12-.86-.37-1.07-.25-.21-.71-.32-1.4-.32-.46,0-.83.09-1.09.27-.26.18-.47.5-.63.96ZM182.92,175.91c-.33.11-.86.24-1.59.4-.72.15-1.2.31-1.42.45-.34.24-.51.55-.51.92s.14.68.41.95c.27.27.62.4,1.04.4.47,0,.92-.15,1.35-.46.32-.23.52-.52.62-.86.07-.22.1-.65.1-1.27v-.52Z"/><path d="M190.54,180.64h-2.61v-9.85h2.42v1.4c.41-.66.79-1.1,1.12-1.31.33-.21.71-.32,1.13-.32.59,0,1.17.16,1.72.49l-.81,2.27c-.44-.28-.85-.43-1.22-.43s-.67.1-.93.3c-.25.2-.45.56-.6,1.09-.15.53-.22,1.63-.22,3.3v3.04Z"/><path d="M201.15,177.5l2.6.44c-.33.95-.86,1.68-1.58,2.18-.72.5-1.62.75-2.7.75-1.71,0-2.98-.56-3.8-1.68-.65-.9-.97-2.03-.97-3.4,0-1.63.43-2.91,1.28-3.84.85-.92,1.93-1.39,3.24-1.39,1.47,0,2.62.48,3.47,1.45.85.97,1.25,2.45,1.22,4.45h-6.53c.02.77.23,1.37.63,1.8.4.43.9.64,1.5.64.41,0,.75-.11,1.03-.33s.49-.58.63-1.08ZM201.29,174.87c-.02-.75-.21-1.33-.58-1.72-.37-.39-.82-.59-1.35-.59-.57,0-1.04.21-1.41.62-.37.41-.55.98-.55,1.69h3.9Z"/><path d="M210.05,170.79h2.77l2.36,7,2.3-7h2.7l-3.48,9.48-.62,1.72c-.23.58-.45,1.01-.65,1.32-.21.3-.45.55-.71.74-.27.19-.6.33-.99.44-.39.1-.84.16-1.33.16s-.99-.05-1.48-.16l-.23-2.04c.41.08.78.12,1.1.12.61,0,1.05-.18,1.35-.53.29-.36.51-.81.67-1.36l-3.75-9.88Z"/><path d="M221.25,175.57c0-.87.21-1.7.64-2.51.43-.81,1.03-1.43,1.81-1.86.78-.43,1.66-.64,2.62-.64,1.49,0,2.71.48,3.66,1.45.95.97,1.43,2.19,1.43,3.67s-.48,2.73-1.44,3.71c-.96.98-2.17,1.47-3.63,1.47-.9,0-1.76-.2-2.58-.61-.82-.41-1.44-1.01-1.87-1.79-.43-.79-.64-1.75-.64-2.88ZM223.92,175.71c0,.98.23,1.73.7,2.25s1.04.78,1.72.78,1.25-.26,1.71-.78c.46-.52.69-1.27.69-2.26s-.23-1.71-.69-2.23c-.46-.52-1.03-.78-1.71-.78s-1.25.26-1.72.78-.7,1.27-.7,2.25Z"/><path d="M239.94,180.64v-1.48c-.36.53-.83.94-1.42,1.24-.58.3-1.2.45-1.85.45s-1.26-.15-1.78-.44c-.53-.29-.91-.7-1.14-1.22-.24-.53-.35-1.25-.35-2.18v-6.23h2.61v4.53c0,1.39.05,2.23.14,2.55.1.31.27.56.52.74.25.18.58.27.96.27.45,0,.84-.12,1.2-.37.35-.24.59-.55.72-.91.13-.36.19-1.25.19-2.66v-4.16h2.61v9.85h-2.42Z"/><path d="M247.56,180.64h-2.61v-9.85h2.42v1.4c.41-.66.79-1.1,1.12-1.31.33-.21.71-.32,1.13-.32.59,0,1.17.16,1.72.49l-.81,2.27c-.44-.28-.85-.43-1.22-.43s-.67.1-.93.3c-.25.2-.45.56-.6,1.09-.15.53-.22,1.63-.22,3.3v3.04Z"/><path d="M257.63,180.64v-13.6h2.61v4.9c.8-.92,1.76-1.37,2.86-1.37,1.2,0,2.19.43,2.98,1.3.79.87,1.18,2.12,1.18,3.74s-.4,2.98-1.2,3.89c-.8.91-1.77,1.36-2.92,1.36-.56,0-1.12-.14-1.67-.42-.55-.28-1.02-.7-1.42-1.25v1.45h-2.42ZM260.22,175.5c0,1.02.16,1.78.48,2.26.45.69,1.05,1.04,1.8,1.04.58,0,1.07-.25,1.47-.74.4-.49.61-1.27.61-2.32,0-1.13-.2-1.94-.61-2.44-.41-.5-.93-.75-1.57-.75s-1.14.24-1.56.73c-.41.49-.62,1.22-.62,2.21Z"/><path d="M269.34,169.45v-2.41h2.61v2.41h-2.61ZM269.34,180.64v-9.85h2.61v9.85h-2.61Z"/><path d="M274.38,181.29l2.98.36c.05.35.16.58.34.71.25.19.64.28,1.17.28.68,0,1.19-.1,1.53-.31.23-.14.4-.36.52-.66.08-.22.12-.62.12-1.2v-1.44c-.78,1.06-1.76,1.6-2.95,1.6-1.32,0-2.37-.56-3.15-1.68-.61-.88-.91-1.99-.91-3.3,0-1.65.4-2.91,1.19-3.79.79-.87,1.78-1.31,2.96-1.31s2.22.54,3.02,1.6v-1.38h2.44v8.84c0,1.16-.1,2.03-.29,2.61-.19.58-.46,1.03-.81,1.35-.35.33-.81.58-1.39.77-.58.19-1.31.28-2.19.28-1.67,0-2.85-.29-3.55-.86-.7-.57-1.05-1.3-1.05-2.18,0-.09,0-.19,0-.32ZM276.71,175.51c0,1.05.2,1.81.61,2.3.41.49.9.73,1.5.73.64,0,1.17-.25,1.61-.75.44-.5.66-1.24.66-2.21s-.21-1.78-.63-2.27c-.42-.49-.95-.74-1.6-.74s-1.14.24-1.54.73c-.4.49-.61,1.23-.61,2.22Z"/><path d="M300.47,180.64h-2.61v-5.03c0-1.06-.06-1.75-.17-2.06-.11-.31-.29-.55-.54-.73-.25-.17-.55-.26-.9-.26-.45,0-.86.12-1.22.37-.36.25-.6.58-.74.98-.13.41-.2,1.16-.2,2.26v4.46h-2.61v-9.85h2.42v1.45c.86-1.11,1.94-1.67,3.25-1.67.58,0,1.1.1,1.58.31.48.21.84.47,1.08.79.24.32.41.69.51,1.09.1.41.14.99.14,1.75v6.12Z"/><path d="M308.82,177.5l2.6.44c-.33.95-.86,1.68-1.58,2.18-.72.5-1.62.75-2.7.75-1.71,0-2.98-.56-3.8-1.68-.65-.9-.97-2.03-.97-3.4,0-1.63.43-2.91,1.28-3.84.85-.92,1.93-1.39,3.24-1.39,1.47,0,2.62.48,3.47,1.45.85.97,1.25,2.45,1.22,4.45h-6.53c.02.77.23,1.37.63,1.8.4.43.9.64,1.5.64.41,0,.75-.11,1.03-.33s.49-.58.63-1.08ZM308.97,174.87c-.02-.75-.21-1.33-.58-1.72-.37-.39-.82-.59-1.35-.59-.57,0-1.04.21-1.41.62-.37.41-.55.98-.55,1.69h3.9Z"/><path d="M315.52,180.64l-3.12-9.85h2.53l1.85,6.46,1.7-6.46h2.51l1.64,6.46,1.88-6.46h2.57l-3.16,9.85h-2.5l-1.7-6.34-1.67,6.34h-2.53Z"/><path d="M327.54,177.83l2.62-.4c.11.51.34.89.68,1.16.34.26.82.39,1.43.39.67,0,1.18-.12,1.52-.37.23-.17.34-.4.34-.7,0-.2-.06-.36-.19-.49-.13-.12-.42-.24-.87-.34-2.1-.46-3.44-.89-4-1.27-.78-.53-1.17-1.27-1.17-2.22,0-.85.34-1.57,1.01-2.15.67-.58,1.72-.87,3.14-.87s2.35.22,3.01.66c.66.44,1.11,1.09,1.35,1.95l-2.46.45c-.11-.38-.3-.68-.6-.88-.29-.2-.71-.31-1.26-.31-.69,0-1.18.1-1.48.29-.2.14-.3.31-.3.53,0,.19.09.34.26.47.23.17,1.05.42,2.44.73,1.39.32,2.36.7,2.91,1.16.54.46.82,1.11.82,1.94,0,.9-.38,1.68-1.13,2.33-.75.65-1.87.97-3.35.97-1.34,0-2.4-.27-3.19-.82-.78-.54-1.29-1.28-1.54-2.22Z"/><rect x="66.1" y="210.85" width="364" height="137" style="fill:#f6f6f4;"/><path d="M236.83,293.35c-.81,0-1.48-.27-2.02-.81s-.81-1.21-.81-2.02v-22.34c0-.81.27-1.48.81-2.02s1.21-.81,2.02-.81h11.37c.25,0,.46.08.62.25s.25.38.25.62-.08.46-.25.62-.38.25-.62.25h-11.37c-.31,0-.57.1-.77.3-.2.2-.3.46-.3.77v22.34c0,.31.1.57.3.77.2.2.46.3.77.3h22.34c.31,0,.57-.1.77-.3.2-.2.3-.46.3-.77v-11.37c0-.25.08-.46.25-.62s.38-.25.62-.25.46.08.62.25.25.38.25.62v11.37c0,.81-.27,1.48-.81,2.02s-1.21.81-2.02.81h-22.34ZM238.85,287.02h18.31l-5.65-7.54-5.25,6.63-3.5-4.21-3.9,5.11ZM256.75,270.6h-2.62c-.25,0-.46-.08-.62-.25s-.25-.38-.25-.62.08-.46.25-.62.38-.25.62-.25h2.62v-2.62c0-.25.08-.46.25-.62s.38-.25.62-.25.46.08.62.25.25.38.25.62v2.62h2.62c.25,0,.46.08.62.25s.25.38.25.62-.08.46-.25.62-.38.25-.62.25h-2.62v2.62c0,.25-.08.46-.25.62s-.38.25-.62.25-.46-.08-.62-.25-.25-.38-.25-.62v-2.62Z" style="fill:#afafae;"/><rect x="87.97" y="370.85" width="146.13" height="55" style="fill:#f6f6f4;"/><path d="M156.51,403.97c-.32,0-.59-.11-.81-.32s-.32-.49-.32-.81v-8.97c0-.32.11-.59.32-.81s.49-.32.81-.32h4.57c.1,0,.18.03.25.1s.1.15.1.25-.03.18-.1.25-.15.1-.25.1h-4.57c-.13,0-.23.04-.31.12-.08.08-.12.18-.12.31v8.97c0,.13.04.23.12.31.08.08.18.12.31.12h8.97c.13,0,.23-.04.31-.12.08-.08.12-.18.12-.31v-4.57c0-.1.03-.18.1-.25s.15-.1.25-.1.18.03.25.1.1.15.1.25v4.57c0,.32-.11.59-.32.81s-.49.32-.81.32h-8.97ZM157.32,401.43h7.35l-2.27-3.03-2.11,2.66-1.4-1.69-1.57,2.05ZM164.5,394.83h-1.05c-.1,0-.18-.03-.25-.1s-.1-.15-.1-.25.03-.18.1-.25.15-.1.25-.1h1.05v-1.05c0-.1.03-.18.1-.25s.15-.1.25-.1.18.03.25.1.1.15.1.25v1.05h1.05c.1,0,.18.03.25.1s.1.15.1.25-.03.18-.1.25-.15.1-.25.1h-1.05v1.05c0,.1-.03.18-.1.25s-.15.1-.25.1-.18-.03-.25-.1-.1-.15-.1-.25v-1.05Z" style="fill:#afafae;"/><path d="M174.62,139.71h-2.49l-.6,2.88h-1.33l1.35-6.44h1.32l-.52,2.49h2.49l.52-2.49h1.32l-1.34,6.44h-1.33l.6-2.88Z" style="fill:#999;"/><path d="M178.45,139.24l-1.23-.11c.14-.42.39-.74.74-.98.35-.23.81-.35,1.39-.35s1.04.12,1.33.36c.29.24.43.54.43.89,0,.14-.01.29-.04.45-.03.16-.11.57-.26,1.25-.12.56-.18.95-.18,1.17,0,.2.04.42.11.66h-1.23c-.05-.17-.08-.35-.09-.53-.18.21-.4.36-.64.47-.24.11-.48.16-.72.16-.39,0-.71-.13-.96-.38-.25-.25-.38-.58-.38-.98,0-.45.14-.8.42-1.07.28-.27.77-.43,1.48-.48.6-.05,1-.11,1.2-.18.05-.18.08-.32.08-.42,0-.13-.05-.25-.16-.34-.11-.09-.27-.14-.48-.14-.23,0-.4.05-.53.14-.13.09-.22.22-.27.39ZM179.65,140.41c-.08.02-.18.04-.3.06-.63.08-1.05.19-1.24.33-.14.11-.21.25-.21.43,0,.15.05.27.16.37.11.1.24.15.42.15.19,0,.37-.05.54-.14.17-.09.29-.21.38-.36.08-.15.16-.37.22-.68l.04-.17Z" style="fill:#999;"/><path d="M184.01,142.58h-1.08l-.94-4.67h1.24l.33,2.04c.09.55.15.92.16,1.1.02-.05.12-.24.3-.57.18-.33.29-.53.33-.6l1.16-1.97h1.36l-2.87,4.67Z" style="fill:#999;"/><path d="M191.23,140.64h-3.16s0,.09,0,.11c0,.31.09.56.27.75.18.19.39.29.65.29.42,0,.75-.22.98-.65l1.13.19c-.22.45-.51.79-.88,1.02-.37.23-.78.34-1.24.34-.63,0-1.14-.2-1.53-.59-.39-.4-.59-.92-.59-1.58s.18-1.21.53-1.71c.48-.67,1.17-1.01,2.07-1.01.57,0,1.02.18,1.36.53.34.35.51.85.51,1.48,0,.3-.03.58-.09.82ZM190.16,139.87c0-.06,0-.1,0-.13,0-.35-.08-.6-.23-.78s-.36-.26-.62-.26-.49.1-.7.29c-.21.2-.35.49-.42.87h1.97Z" style="fill:#999;"/><path d="M195.97,139.24l-1.23-.11c.14-.42.39-.74.74-.98.35-.23.81-.35,1.39-.35s1.04.12,1.33.36c.29.24.43.54.43.89,0,.14-.01.29-.04.45-.03.16-.11.57-.26,1.25-.12.56-.18.95-.18,1.17,0,.2.04.42.11.66h-1.23c-.05-.17-.08-.35-.09-.53-.18.21-.4.36-.64.47-.24.11-.48.16-.72.16-.39,0-.71-.13-.96-.38-.25-.25-.38-.58-.38-.98,0-.45.14-.8.42-1.07.28-.27.77-.43,1.48-.48.6-.05,1-.11,1.2-.18.05-.18.08-.32.08-.42,0-.13-.05-.25-.16-.34-.11-.09-.27-.14-.48-.14-.23,0-.4.05-.53.14-.13.09-.22.22-.27.39ZM197.17,140.41c-.08.02-.18.04-.3.06-.63.08-1.05.19-1.24.33-.14.11-.21.25-.21.43,0,.15.05.27.16.37.11.1.24.15.42.15.19,0,.37-.05.54-.14.17-.09.29-.21.38-.36.08-.15.16-.37.22-.68l.04-.17Z" style="fill:#999;"/><path d="M200.19,137.92h1.2l-.12.61c.3-.26.58-.44.84-.55.26-.11.53-.16.82-.16.38,0,.69.11.91.33.22.22.33.51.33.88,0,.16-.05.47-.15.93l-.55,2.64h-1.26l.55-2.65c.08-.4.12-.63.12-.71,0-.16-.05-.29-.14-.38-.1-.09-.23-.14-.4-.14-.18,0-.39.08-.62.23s-.4.36-.53.62c-.09.18-.2.55-.32,1.11l-.4,1.92h-1.26l.98-4.67Z" style="fill:#999;"/><path d="M208.97,139.24l-1.23-.11c.14-.42.39-.74.74-.98.35-.23.81-.35,1.39-.35s1.04.12,1.33.36c.29.24.43.54.43.89,0,.14-.01.29-.04.45-.03.16-.11.57-.26,1.25-.12.56-.18.95-.18,1.17,0,.2.04.42.11.66h-1.23c-.05-.17-.08-.35-.09-.53-.18.21-.4.36-.64.47-.24.11-.48.16-.72.16-.39,0-.71-.13-.96-.38-.25-.25-.38-.58-.38-.98,0-.45.14-.8.42-1.07.28-.27.77-.43,1.48-.48.6-.05,1-.11,1.2-.18.05-.18.08-.32.08-.42,0-.13-.05-.25-.16-.34-.11-.09-.27-.14-.48-.14-.23,0-.4.05-.53.14-.13.09-.22.22-.27.39ZM210.17,140.41c-.08.02-.18.04-.3.06-.63.08-1.05.19-1.24.33-.14.11-.21.25-.21.43,0,.15.05.27.16.37.11.1.24.15.42.15.19,0,.37-.05.54-.14.17-.09.29-.21.38-.36.08-.15.16-.37.22-.68l.04-.17Z" style="fill:#999;"/><path d="M213.19,137.92h1.2l-.12.61c.3-.26.58-.44.84-.55.26-.11.53-.16.82-.16.38,0,.69.11.91.33.22.22.33.51.33.88,0,.16-.05.47-.15.93l-.55,2.64h-1.26l.55-2.65c.08-.4.12-.63.12-.71,0-.16-.05-.29-.14-.38-.1-.09-.23-.14-.4-.14-.18,0-.39.08-.62.23s-.4.36-.53.62c-.09.18-.2.55-.32,1.11l-.4,1.92h-1.26l.98-4.67Z" style="fill:#999;"/><path d="M218.69,137.92h1.2l-.12.61c.3-.26.58-.44.84-.55.26-.11.53-.16.82-.16.38,0,.69.11.91.33.22.22.33.51.33.88,0,.16-.05.47-.15.93l-.55,2.64h-1.26l.55-2.65c.08-.4.12-.63.12-.71,0-.16-.05-.29-.14-.38-.1-.09-.23-.14-.4-.14-.18,0-.39.08-.62.23s-.4.36-.53.62c-.09.18-.2.55-.32,1.11l-.4,1.92h-1.26l.98-4.67Z" style="fill:#999;"/><path d="M223.38,140.65c0-.86.24-1.55.73-2.07.49-.51,1.13-.77,1.92-.77.69,0,1.23.19,1.61.57.39.38.58.89.58,1.53,0,.76-.24,1.41-.73,1.96s-1.13.83-1.94.83c-.44,0-.83-.09-1.17-.26-.34-.18-.59-.42-.76-.75-.17-.32-.25-.67-.25-1.04ZM226.97,139.74c0-.3-.09-.54-.26-.72-.17-.18-.4-.27-.67-.27s-.51.08-.72.25c-.21.17-.38.41-.49.73-.12.32-.18.62-.18.89,0,.33.09.6.27.79s.41.29.69.29c.35,0,.64-.15.87-.44.33-.42.5-.93.5-1.53Z" style="fill:#999;"/><path d="M229.66,137.92h1.26l-.58,2.76c-.07.33-.11.54-.11.62,0,.13.05.25.15.35s.23.14.38.14c.11,0,.22-.02.33-.06.11-.04.22-.11.33-.19.11-.09.22-.19.31-.3s.18-.26.25-.44c.06-.13.12-.35.18-.66l.46-2.22h1.26l-.98,4.67h-1.18l.13-.63c-.52.5-1.08.74-1.68.74-.38,0-.69-.11-.9-.33-.22-.22-.33-.51-.33-.88,0-.16.05-.48.15-.96l.54-2.6Z" style="fill:#999;"/><path d="M235.18,137.92h1.2l-.12.61c.3-.26.58-.44.84-.55.26-.11.53-.16.82-.16.38,0,.69.11.91.33.22.22.33.51.33.88,0,.16-.05.47-.15.93l-.55,2.64h-1.26l.55-2.65c.08-.4.12-.63.12-.71,0-.16-.05-.29-.14-.38-.1-.09-.23-.14-.4-.14-.18,0-.39.08-.62.23s-.4.36-.53.62c-.09.18-.2.55-.32,1.11l-.4,1.92h-1.26l.98-4.67Z" style="fill:#999;"/><path d="M242.85,140.83l1.23.2c-.2.54-.5.96-.9,1.24-.39.28-.85.43-1.38.43-.59,0-1.07-.18-1.42-.53s-.52-.84-.52-1.46c0-.51.11-.99.32-1.44s.53-.81.95-1.07c.42-.26.89-.39,1.4-.39.55,0,.99.14,1.32.43s.51.67.55,1.13l-1.2.13c-.03-.26-.11-.45-.24-.58-.13-.12-.3-.18-.51-.18-.24,0-.47.09-.68.27s-.37.45-.49.81c-.11.36-.17.7-.17,1.02,0,.28.07.49.2.64s.3.22.5.22.4-.07.58-.22.33-.37.44-.66Z" style="fill:#999;"/><path d="M249.23,140.64h-3.16s0,.09,0,.11c0,.31.09.56.27.75.18.19.39.29.65.29.42,0,.75-.22.98-.65l1.13.19c-.22.45-.51.79-.88,1.02-.37.23-.78.34-1.24.34-.63,0-1.14-.2-1.53-.59-.39-.4-.59-.92-.59-1.58s.18-1.21.53-1.71c.48-.67,1.17-1.01,2.07-1.01.57,0,1.02.18,1.36.53.34.35.51.85.51,1.48,0,.3-.03.58-.09.82ZM248.17,139.87c0-.06,0-.1,0-.13,0-.35-.08-.6-.23-.78s-.36-.26-.62-.26-.49.1-.7.29c-.21.2-.35.49-.42.87h1.97Z" style="fill:#999;"/><path d="M250.63,137.92h1.19l-.12.57c.46-.45.95-.68,1.46-.68.35,0,.62.07.81.22.19.15.31.35.36.61.16-.23.39-.43.69-.59s.62-.24.94-.24c.37,0,.66.1.87.3s.31.46.31.79c0,.16-.04.44-.12.83l-.6,2.85h-1.26l.6-2.85c.07-.36.11-.56.11-.61,0-.13-.04-.23-.12-.31-.08-.08-.19-.11-.35-.11-.31,0-.59.17-.84.5-.18.24-.33.66-.46,1.26l-.44,2.12h-1.26l.59-2.82c.07-.33.1-.54.1-.63,0-.12-.04-.22-.12-.3-.08-.08-.2-.12-.34-.12-.14,0-.28.04-.43.12s-.27.2-.38.34c-.11.14-.2.33-.28.55-.04.11-.09.34-.17.72l-.45,2.14h-1.26l.98-4.67Z" style="fill:#999;"/><path d="M262.24,140.64h-3.16s0,.09,0,.11c0,.31.09.56.27.75.18.19.39.29.65.29.42,0,.75-.22.98-.65l1.13.19c-.22.45-.51.79-.88,1.02-.37.23-.78.34-1.24.34-.63,0-1.14-.2-1.53-.59-.39-.4-.59-.92-.59-1.58s.18-1.21.53-1.71c.48-.67,1.17-1.01,2.07-1.01.57,0,1.02.18,1.36.53.34.35.51.85.51,1.48,0,.3-.03.58-.09.82ZM261.18,139.87c0-.06,0-.1,0-.13,0-.35-.08-.6-.23-.78s-.36-.26-.62-.26-.49.1-.7.29c-.21.2-.35.49-.42.87h1.97Z" style="fill:#999;"/><path d="M263.7,137.92h1.2l-.12.61c.3-.26.58-.44.84-.55.26-.11.53-.16.82-.16.38,0,.69.11.91.33.22.22.33.51.33.88,0,.16-.05.47-.15.93l-.55,2.64h-1.26l.55-2.65c.08-.4.12-.63.12-.71,0-.16-.05-.29-.14-.38-.1-.09-.23-.14-.4-.14-.18,0-.39.08-.62.23s-.4.36-.53.62c-.09.18-.2.55-.32,1.11l-.4,1.92h-1.26l.98-4.67Z" style="fill:#999;"/><path d="M268.52,138.85l.19-.94h.62l.15-.75,1.45-.87-.34,1.62h.77l-.19.94h-.77l-.41,1.96c-.07.35-.11.56-.11.61,0,.1.03.17.09.23.06.05.17.08.33.08.05,0,.19,0,.42-.03l-.2.94c-.22.04-.44.07-.67.07-.45,0-.77-.08-.97-.26-.2-.17-.3-.41-.3-.71,0-.14.05-.47.16-.99l.39-1.88h-.61Z" style="fill:#999;"/><path d="M274.01,138.85l.19-.94h.62l.15-.75,1.45-.87-.34,1.62h.77l-.19.94h-.77l-.41,1.96c-.07.35-.11.56-.11.61,0,.1.03.17.09.23.06.05.17.08.33.08.05,0,.19,0,.42-.03l-.2.94c-.22.04-.44.07-.67.07-.45,0-.77-.08-.97-.26-.2-.17-.3-.41-.3-.71,0-.14.05-.47.16-.99l.39-1.88h-.61Z" style="fill:#999;"/><path d="M276.88,140.65c0-.86.24-1.55.73-2.07.49-.51,1.13-.77,1.92-.77.69,0,1.23.19,1.61.57.39.38.58.89.58,1.53,0,.76-.24,1.41-.73,1.96s-1.13.83-1.94.83c-.44,0-.83-.09-1.17-.26-.34-.18-.59-.42-.76-.75-.17-.32-.25-.67-.25-1.04ZM280.47,139.74c0-.3-.09-.54-.26-.72-.17-.18-.4-.27-.67-.27s-.51.08-.72.25c-.21.17-.38.41-.49.73-.12.32-.18.62-.18.89,0,.33.09.6.27.79s.41.29.69.29c.35,0,.64-.15.87-.44.33-.42.5-.93.5-1.53Z" style="fill:#999;"/><path d="M285.63,137.92h1.19l-.12.57c.46-.45.95-.68,1.46-.68.35,0,.62.07.81.22.19.15.31.35.36.61.16-.23.39-.43.69-.59s.62-.24.94-.24c.37,0,.66.1.87.3s.31.46.31.79c0,.16-.04.44-.12.83l-.6,2.85h-1.26l.6-2.85c.07-.36.11-.56.11-.61,0-.13-.04-.23-.12-.31-.08-.08-.19-.11-.35-.11-.31,0-.59.17-.84.5-.18.24-.33.66-.46,1.26l-.44,2.12h-1.26l.59-2.82c.07-.33.1-.54.1-.63,0-.12-.04-.22-.12-.3-.08-.08-.2-.12-.34-.12-.14,0-.28.04-.43.12s-.27.2-.38.34c-.11.14-.2.33-.28.55-.04.11-.09.34-.17.72l-.45,2.14h-1.26l.98-4.67Z" style="fill:#999;"/><path d="M294.48,139.24l-1.23-.11c.14-.42.39-.74.74-.98.35-.23.81-.35,1.39-.35s1.04.12,1.33.36c.29.24.43.54.43.89,0,.14-.01.29-.04.45-.03.16-.11.57-.26,1.25-.12.56-.18.95-.18,1.17,0,.2.04.42.11.66h-1.23c-.05-.17-.08-.35-.09-.53-.18.21-.4.36-.64.47-.24.11-.48.16-.72.16-.39,0-.71-.13-.96-.38-.25-.25-.38-.58-.38-.98,0-.45.14-.8.42-1.07.28-.27.77-.43,1.48-.48.6-.05,1-.11,1.2-.18.05-.18.08-.32.08-.42,0-.13-.05-.25-.16-.34-.11-.09-.27-.14-.48-.14-.23,0-.4.05-.53.14-.13.09-.22.22-.27.39ZM295.68,140.41c-.08.02-.18.04-.3.06-.63.08-1.05.19-1.24.33-.14.11-.21.25-.21.43,0,.15.05.27.16.37.11.1.24.15.42.15.19,0,.37-.05.54-.14.17-.09.29-.21.38-.36.08-.15.16-.37.22-.68l.04-.17Z" style="fill:#999;"/><path d="M297.68,142.58l1.35-6.44h1.26l-.7,3.35,1.64-1.58h1.64l-1.88,1.7,1,2.97h-1.26l-.64-2.16-.85.76-.29,1.4h-1.26Z" style="fill:#999;"/><path d="M307.25,140.64h-3.16s0,.09,0,.11c0,.31.09.56.27.75.18.19.39.29.65.29.42,0,.75-.22.98-.65l1.13.19c-.22.45-.51.79-.88,1.02-.37.23-.78.34-1.24.34-.63,0-1.14-.2-1.53-.59-.39-.4-.59-.92-.59-1.58s.18-1.21.53-1.71c.48-.67,1.17-1.01,2.07-1.01.57,0,1.02.18,1.36.53.34.35.51.85.51,1.48,0,.3-.03.58-.09.82ZM306.19,139.87c0-.06,0-.1,0-.13,0-.35-.08-.6-.23-.78s-.36-.26-.62-.26-.49.1-.7.29c-.21.2-.35.49-.42.87h1.97Z" style="fill:#999;"/><path d="M310.43,140.98h-1.13c.06-.39.18-.73.37-1.02.19-.29.56-.67,1.12-1.16.47-.41.75-.69.83-.82.08-.13.12-.26.12-.38,0-.18-.07-.33-.22-.46-.14-.12-.36-.18-.66-.18-.33,0-.6.09-.8.27s-.36.46-.44.86l-1.16-.2c.15-.57.44-1.02.87-1.35s.95-.5,1.56-.5,1.14.16,1.49.48c.36.32.54.7.54,1.14,0,.26-.08.51-.23.77-.15.26-.57.67-1.25,1.23-.43.36-.69.61-.79.75s-.17.33-.21.58ZM309.16,141.37h1.25l-.25,1.22h-1.25l.25-1.22Z" style="fill:#999;"/><rect x="261.32" y="371.09" width="146.13" height="55" style="fill:#f6f6f4;"/><path d="M329.87,404.21c-.32,0-.59-.11-.81-.32s-.32-.49-.32-.81v-8.97c0-.32.11-.59.32-.81s.49-.32.81-.32h4.57c.1,0,.18.03.25.1s.1.15.1.25-.03.18-.1.25-.15.1-.25.1h-4.57c-.13,0-.23.04-.31.12-.08.08-.12.18-.12.31v8.97c0,.13.04.23.12.31.08.08.18.12.31.12h8.97c.13,0,.23-.04.31-.12.08-.08.12-.18.12-.31v-4.57c0-.1.03-.18.1-.25s.15-.1.25-.1.18.03.25.1.1.15.1.25v4.57c0,.32-.11.59-.32.81s-.49.32-.81.32h-8.97ZM330.68,401.67h7.35l-2.27-3.03-2.11,2.66-1.4-1.69-1.57,2.05ZM337.86,395.08h-1.05c-.1,0-.18-.03-.25-.1s-.1-.15-.1-.25.03-.18.1-.25.15-.1.25-.1h1.05v-1.05c0-.1.03-.18.1-.25s.15-.1.25-.1.18.03.25.1.1.15.1.25v1.05h1.05c.1,0,.18.03.25.1s.1.15.1.25-.03.18-.1.25-.15.1-.25.1h-1.05v1.05c0,.1-.03.18-.1.25s-.15.1-.25.1-.18-.03-.25-.1-.1-.15-.1-.25v-1.05Z" style="fill:#afafae;"/><path d="M105.41,459.82l2.47-6.44h.92l2.64,6.44h-.97l-.75-1.95h-2.69l-.71,1.95h-.91ZM107.27,457.18h2.18l-.67-1.78c-.21-.54-.36-.99-.46-1.34-.08.41-.2.82-.35,1.23l-.71,1.89Z"/><path d="M112.02,459.82v-4.67h.71v.66c.34-.51.84-.77,1.49-.77.28,0,.54.05.78.15.24.1.41.23.53.4s.2.36.25.58c.03.15.04.4.04.77v2.87h-.79v-2.84c0-.32-.03-.56-.09-.72s-.17-.29-.33-.38c-.16-.09-.34-.14-.55-.14-.34,0-.63.11-.87.32-.25.21-.37.62-.37,1.22v2.55h-.79Z"/><path d="M117.02,459.82v-4.67h.71v.66c.34-.51.84-.77,1.49-.77.28,0,.54.05.78.15.24.1.41.23.53.4s.2.36.25.58c.03.15.04.4.04.77v2.87h-.79v-2.84c0-.32-.03-.56-.09-.72s-.17-.29-.33-.38c-.16-.09-.34-.14-.55-.14-.34,0-.63.11-.87.32-.24.21-.37.62-.37,1.22v2.55h-.79Z"/><path d="M121.73,457.49c0-.86.24-1.5.72-1.92.4-.35.89-.52,1.47-.52.64,0,1.17.21,1.57.63s.61,1,.61,1.74c0,.6-.09,1.07-.27,1.42-.18.34-.44.61-.79.8-.34.19-.72.29-1.13.29-.65,0-1.18-.21-1.58-.63-.4-.42-.6-1.02-.6-1.81ZM122.55,457.49c0,.6.13,1.05.39,1.34.26.3.59.45.98.45s.72-.15.98-.45.39-.75.39-1.37c0-.58-.13-1.01-.39-1.31-.26-.3-.59-.45-.98-.45s-.72.15-.98.44-.39.74-.39,1.34Z"/><path d="M130.09,459.82v-.69c-.36.53-.86.79-1.48.79-.28,0-.53-.05-.77-.16-.24-.11-.42-.24-.53-.4-.12-.16-.2-.36-.24-.59-.03-.16-.05-.4-.05-.74v-2.89h.79v2.59c0,.41.02.69.05.83.05.21.16.37.32.49.16.12.36.18.6.18s.46-.06.67-.18.36-.29.44-.5c.09-.21.13-.51.13-.91v-2.5h.79v4.67h-.71Z"/><path d="M132.04,459.82v-4.67h.71v.66c.34-.51.84-.77,1.49-.77.28,0,.54.05.78.15.24.1.41.23.53.4s.2.36.25.58c.03.15.04.4.04.77v2.87h-.79v-2.84c0-.32-.03-.56-.09-.72s-.17-.29-.33-.38c-.16-.09-.34-.14-.55-.14-.34,0-.63.11-.87.32-.25.21-.37.62-.37,1.22v2.55h-.79Z"/><path d="M140.09,458.11l.78.1c-.08.54-.3.96-.65,1.26-.35.3-.78.46-1.29.46-.64,0-1.15-.21-1.54-.63-.39-.42-.58-1.02-.58-1.8,0-.5.08-.94.25-1.32s.42-.66.76-.85c.34-.19.71-.28,1.11-.28.51,0,.92.13,1.24.38s.53.62.62,1.09l-.77.12c-.07-.31-.2-.55-.39-.71-.19-.16-.41-.24-.67-.24-.4,0-.72.14-.97.43-.25.29-.37.74-.37,1.36s.12,1.08.36,1.37.55.43.94.43c.31,0,.57-.1.78-.29s.34-.48.4-.88Z"/><path d="M144.74,458.32l.82.1c-.13.48-.37.85-.72,1.11s-.79.4-1.34.4c-.68,0-1.22-.21-1.62-.63-.4-.42-.6-1.01-.6-1.77s.2-1.39.61-1.83.93-.65,1.57-.65,1.13.21,1.53.64.59,1.02.59,1.79c0,.05,0,.12,0,.21h-3.48c.03.51.17.91.43,1.18s.59.41.98.41c.29,0,.54-.08.74-.23s.37-.4.49-.73ZM142.14,457.04h2.61c-.04-.39-.13-.69-.3-.88-.25-.3-.58-.46-.98-.46-.36,0-.67.12-.92.36-.25.24-.38.57-.41.98Z"/><path d="M146.55,459.82v-4.67h.71v.65c.15-.23.34-.41.58-.55s.52-.21.83-.21c.35,0,.63.07.85.22.22.14.38.34.47.6.37-.54.85-.82,1.44-.82.46,0,.82.13,1.07.38s.37.65.37,1.18v3.2h-.79v-2.94c0-.32-.03-.54-.08-.68-.05-.14-.14-.25-.28-.34s-.29-.13-.47-.13c-.33,0-.6.11-.82.33-.22.22-.33.57-.33,1.05v2.71h-.79v-3.03c0-.35-.06-.62-.19-.79s-.34-.26-.63-.26c-.22,0-.43.06-.62.18-.19.12-.33.29-.41.51s-.13.55-.13.98v2.42h-.79Z"/><path d="M157.24,458.32l.82.1c-.13.48-.37.85-.72,1.11s-.79.4-1.34.4c-.68,0-1.22-.21-1.62-.63-.4-.42-.6-1.01-.6-1.77s.2-1.39.61-1.83.93-.65,1.57-.65,1.13.21,1.53.64.59,1.02.59,1.79c0,.05,0,.12,0,.21h-3.48c.03.51.17.91.44,1.18s.59.41.98.41c.29,0,.54-.08.74-.23s.37-.4.49-.73ZM154.64,457.04h2.61c-.04-.39-.13-.69-.3-.88-.25-.3-.58-.46-.98-.46-.36,0-.67.12-.92.36-.25.24-.38.57-.41.98Z"/><path d="M159.05,459.82v-4.67h.71v.66c.34-.51.84-.77,1.49-.77.28,0,.54.05.78.15.24.1.41.23.53.4s.2.36.25.58c.03.15.04.4.04.77v2.87h-.79v-2.84c0-.32-.03-.56-.09-.72s-.17-.29-.33-.38c-.16-.09-.34-.14-.55-.14-.34,0-.63.11-.87.32-.24.21-.37.62-.37,1.22v2.55h-.79Z"/><path d="M165.79,459.11l.11.7c-.22.05-.42.07-.6.07-.29,0-.51-.05-.67-.14-.16-.09-.27-.21-.33-.36s-.1-.46-.1-.93v-2.69h-.58v-.62h.58v-1.16l.79-.47v1.63h.8v.62h-.8v2.73c0,.23.01.37.04.44.03.06.07.12.14.15.06.04.15.06.27.06.09,0,.2-.01.35-.03Z"/><path d="M166.24,458.43l.78-.12c.04.31.17.55.37.72.2.17.48.25.84.25s.63-.07.81-.22.26-.32.26-.52c0-.18-.08-.32-.23-.42-.11-.07-.38-.16-.81-.27-.58-.15-.98-.27-1.21-.38-.22-.11-.39-.25-.51-.44-.12-.19-.17-.4-.17-.63,0-.21.05-.4.14-.58.09-.18.22-.32.39-.44.12-.09.29-.17.5-.23.21-.06.44-.09.68-.09.37,0,.69.05.96.16.28.11.48.25.61.43.13.18.22.42.27.72l-.77.11c-.04-.24-.14-.43-.31-.56-.17-.13-.41-.2-.71-.2-.36,0-.62.06-.78.18s-.23.26-.23.42c0,.1.03.19.1.28.06.08.17.16.3.21.08.03.31.1.7.2.56.15.95.27,1.17.37.22.1.39.23.52.42s.19.41.19.68-.08.51-.23.75c-.15.23-.38.41-.67.54-.29.13-.62.19-.98.19-.61,0-1.07-.13-1.39-.38-.32-.25-.52-.63-.61-1.12Z"/><path d="M174.42,459.82l-1.43-4.67h.82l.74,2.69.28,1s.09-.37.24-.96l.74-2.73h.81l.7,2.71.23.89.27-.9.8-2.7h.77l-1.46,4.67h-.82l-.74-2.79-.18-.8-.95,3.59h-.83Z"/><path d="M179.76,457.49c0-.86.24-1.5.72-1.92.4-.35.89-.52,1.47-.52.64,0,1.17.21,1.57.63s.61,1,.61,1.74c0,.6-.09,1.07-.27,1.42-.18.34-.44.61-.79.8-.34.19-.72.29-1.13.29-.65,0-1.18-.21-1.58-.63-.4-.42-.6-1.02-.6-1.81ZM180.58,457.49c0,.6.13,1.05.39,1.34.26.3.59.45.98.45s.72-.15.98-.45.39-.75.39-1.37c0-.58-.13-1.01-.39-1.31-.26-.3-.59-.45-.98-.45s-.72.15-.98.44-.39.74-.39,1.34Z"/><path d="M185.06,459.82v-4.67h.71v.71c.18-.33.35-.55.5-.65.15-.11.32-.16.51-.16.27,0,.54.08.81.25l-.27.73c-.19-.11-.39-.17-.58-.17-.17,0-.33.05-.47.16s-.24.25-.29.43c-.09.28-.13.59-.13.92v2.44h-.79Z"/><path d="M188.07,459.82v-6.44h.79v3.67l1.87-1.9h1.02l-1.78,1.73,1.96,2.94h-.98l-1.54-2.39-.56.54v1.85h-.79Z"/><path d="M195.79,459.82h-.73v-6.44h.79v2.3c.33-.42.76-.63,1.28-.63.29,0,.56.06.81.17.26.12.47.28.63.49.17.21.3.46.39.76s.14.61.14.95c0,.8-.2,1.42-.59,1.85s-.87.65-1.42.65-.98-.23-1.3-.69v.58ZM195.78,457.45c0,.56.08.96.23,1.21.25.41.59.61,1.01.61.35,0,.64-.15.9-.45s.38-.75.38-1.34-.12-1.06-.36-1.35c-.24-.29-.53-.44-.88-.44s-.64.15-.9.45c-.25.3-.38.73-.38,1.3Z"/><path d="M203.26,458.32l.82.1c-.13.48-.37.85-.72,1.11s-.79.4-1.34.4c-.68,0-1.22-.21-1.62-.63-.4-.42-.6-1.01-.6-1.77s.2-1.39.61-1.83.93-.65,1.57-.65,1.13.21,1.53.64.59,1.02.59,1.79c0,.05,0,.12,0,.21h-3.48c.03.51.17.91.44,1.18s.59.41.98.41c.29,0,.54-.08.74-.23s.37-.4.49-.73ZM200.66,457.04h2.61c-.04-.39-.13-.69-.3-.88-.25-.3-.58-.46-.98-.46-.36,0-.67.12-.92.36-.25.24-.38.57-.41.98Z"/><path d="M204.76,458.43l.78-.12c.04.31.17.55.37.72.2.17.48.25.84.25s.63-.07.81-.22.26-.32.26-.52c0-.18-.08-.32-.23-.42-.11-.07-.38-.16-.81-.27-.58-.15-.98-.27-1.21-.38-.22-.11-.39-.25-.51-.44-.12-.19-.17-.4-.17-.63,0-.21.05-.4.14-.58.09-.18.22-.32.39-.44.12-.09.29-.17.5-.23.21-.06.44-.09.68-.09.37,0,.69.05.96.16.28.11.48.25.61.43.13.18.22.42.27.72l-.77.11c-.04-.24-.14-.43-.31-.56-.17-.13-.41-.2-.71-.2-.36,0-.62.06-.78.18s-.23.26-.23.42c0,.1.03.19.1.28.06.08.17.16.3.21.08.03.31.1.7.2.56.15.95.27,1.17.37.22.1.39.23.52.42s.19.41.19.68-.08.51-.23.75c-.15.23-.38.41-.67.54-.29.13-.62.19-.98.19-.61,0-1.07-.13-1.39-.38-.32-.25-.52-.63-.61-1.12Z"/><path d="M211.3,459.11l.11.7c-.22.05-.42.07-.6.07-.29,0-.51-.05-.67-.14-.16-.09-.27-.21-.33-.36s-.1-.46-.1-.93v-2.69h-.58v-.62h.58v-1.16l.79-.47v1.63h.79v.62h-.79v2.73c0,.23.01.37.04.44.03.06.07.12.14.15.06.04.15.06.27.06.09,0,.2-.01.35-.03Z"/><path d="M215.43,459.82l-1.43-4.67h.82l.74,2.69.28,1s.09-.37.24-.96l.74-2.73h.81l.7,2.71.23.89.27-.9.8-2.7h.77l-1.46,4.67h-.82l-.74-2.79-.18-.8-.94,3.59h-.83Z"/><path d="M221.08,454.29v-.91h.79v.91h-.79ZM221.08,459.82v-4.67h.79v4.67h-.79Z"/><path d="M224.8,459.11l.11.7c-.22.05-.42.07-.6.07-.29,0-.51-.05-.67-.14-.16-.09-.27-.21-.33-.36s-.1-.46-.1-.93v-2.69h-.58v-.62h.58v-1.16l.79-.47v1.63h.79v.62h-.79v2.73c0,.23.01.37.04.44.03.06.07.12.14.15.06.04.15.06.27.06.09,0,.2-.01.35-.03Z"/><path d="M225.57,459.82v-6.44h.79v2.31c.37-.43.83-.64,1.4-.64.35,0,.65.07.9.2.25.14.44.32.55.56.11.24.17.59.17,1.05v2.96h-.79v-2.96c0-.4-.09-.68-.26-.86-.17-.18-.41-.27-.73-.27-.23,0-.46.06-.66.18-.21.12-.35.29-.44.49s-.13.5-.13.86v2.55h-.79Z"/><path d="M236.12,459.25c-.29.25-.58.42-.85.53-.27.1-.56.15-.87.15-.51,0-.91-.12-1.18-.38-.28-.25-.41-.57-.41-.96,0-.23.05-.44.16-.63.1-.19.24-.34.41-.46.17-.11.36-.2.57-.26.16-.04.39-.08.7-.12.64-.08,1.11-.17,1.41-.27,0-.11,0-.18,0-.21,0-.32-.08-.55-.22-.68-.2-.18-.5-.27-.9-.27-.37,0-.65.07-.82.2-.18.13-.31.36-.39.69l-.77-.11c.07-.33.19-.6.35-.8.16-.2.39-.36.7-.47.3-.11.66-.17,1.06-.17s.72.05.97.14.43.21.55.35c.12.14.2.32.25.54.03.13.04.38.04.73v1.05c0,.74.02,1.2.05,1.4.03.2.1.38.2.56h-.83c-.08-.16-.13-.36-.16-.58ZM236.06,457.48c-.29.12-.72.22-1.29.3-.33.05-.55.1-.69.16s-.24.14-.31.26-.11.24-.11.38c0,.21.08.39.24.53.16.14.39.21.7.21s.58-.07.81-.2.41-.32.52-.55c.08-.18.13-.44.13-.79v-.29Z"/><path d="M241.88,459.82l-1.78-4.67h.83l1,2.79c.11.3.21.62.3.94.07-.25.17-.54.29-.89l1.04-2.85h.81l-1.77,4.67h-.74Z"/><path d="M245.09,454.29v-.91h.79v.91h-.79ZM245.09,459.82v-4.67h.79v4.67h-.79Z"/><path d="M246.77,458.43l.78-.12c.04.31.17.55.37.72.2.17.48.25.84.25s.63-.07.81-.22.26-.32.26-.52c0-.18-.08-.32-.23-.42-.11-.07-.38-.16-.81-.27-.58-.15-.98-.27-1.21-.38-.22-.11-.39-.25-.51-.44-.12-.19-.17-.4-.17-.63,0-.21.05-.4.14-.58.09-.18.22-.32.39-.44.12-.09.29-.17.5-.23.21-.06.44-.09.68-.09.37,0,.69.05.96.16.28.11.48.25.61.43.13.18.22.42.27.72l-.77.11c-.04-.24-.14-.43-.3-.56-.17-.13-.41-.2-.71-.2-.36,0-.62.06-.78.18-.16.12-.23.26-.23.42,0,.1.03.19.1.28.06.08.17.16.3.21.08.03.31.1.7.2.56.15.95.27,1.17.37.22.1.39.23.52.42.13.18.19.41.19.68s-.08.51-.23.75c-.15.23-.38.41-.67.54-.29.13-.62.19-.98.19-.61,0-1.07-.13-1.39-.38-.32-.25-.52-.63-.61-1.12Z"/><path d="M254.64,459.82v-.69c-.36.53-.86.79-1.48.79-.28,0-.53-.05-.77-.16-.24-.11-.42-.24-.53-.4-.12-.16-.2-.36-.24-.59-.03-.16-.05-.4-.05-.74v-2.89h.79v2.59c0,.41.02.69.05.83.05.21.16.37.32.49.16.12.36.18.6.18s.46-.06.67-.18.36-.29.44-.5c.09-.21.13-.51.13-.91v-2.5h.79v4.67h-.71Z"/><path d="M259.64,459.25c-.29.25-.58.42-.85.53-.27.1-.56.15-.87.15-.51,0-.91-.12-1.18-.38-.28-.25-.41-.57-.41-.96,0-.23.05-.44.16-.63.1-.19.24-.34.41-.46.17-.11.36-.2.57-.26.16-.04.39-.08.7-.12.64-.08,1.11-.17,1.41-.27,0-.11,0-.18,0-.21,0-.32-.08-.55-.22-.68-.2-.18-.5-.27-.9-.27-.37,0-.65.07-.82.2-.18.13-.31.36-.39.69l-.77-.11c.07-.33.19-.6.35-.8.16-.2.39-.36.7-.47.3-.11.66-.17,1.06-.17s.72.05.97.14.43.21.55.35c.12.14.2.32.25.54.03.13.04.38.04.73v1.05c0,.74.02,1.2.05,1.4.03.2.1.38.2.56h-.83c-.08-.16-.13-.36-.16-.58ZM259.57,457.48c-.29.12-.72.22-1.29.3-.33.05-.56.1-.69.16s-.24.14-.31.26c-.07.11-.11.24-.11.38,0,.21.08.39.24.53.16.14.39.21.7.21s.58-.07.81-.2c.24-.13.41-.32.52-.55.08-.18.13-.44.13-.79v-.29Z"/><path d="M261.58,459.82v-6.44h.79v6.44h-.79Z"/><path d="M263.58,459.82v-6.44h.79v6.44h-.79Z"/><path d="M265.56,461.62l-.09-.74c.17.05.32.07.45.07.18,0,.32-.03.42-.09s.19-.14.26-.25c.05-.08.13-.28.24-.59.01-.04.04-.11.07-.19l-1.77-4.68h.85l.97,2.7c.13.34.24.7.34,1.08.09-.36.2-.72.33-1.06l1-2.72h.79l-1.78,4.75c-.19.51-.34.87-.44,1.06-.14.26-.3.45-.48.57-.18.12-.4.18-.65.18-.15,0-.32-.03-.51-.1Z"/><path d="M272.28,458.43l.78-.12c.04.31.17.55.37.72.2.17.48.25.84.25s.63-.07.81-.22.26-.32.26-.52c0-.18-.08-.32-.23-.42-.11-.07-.38-.16-.81-.27-.58-.15-.98-.27-1.21-.38-.22-.11-.39-.25-.51-.44-.12-.19-.17-.4-.17-.63,0-.21.05-.4.14-.58.09-.18.22-.32.39-.44.12-.09.29-.17.5-.23.21-.06.44-.09.68-.09.37,0,.69.05.96.16.28.11.48.25.61.43.13.18.22.42.27.72l-.77.11c-.04-.24-.14-.43-.3-.56-.17-.13-.41-.2-.71-.2-.36,0-.62.06-.78.18s-.23.26-.23.42c0,.1.03.19.1.28.06.08.17.16.3.21.08.03.31.1.7.2.56.15.95.27,1.17.37.22.1.39.23.52.42s.19.41.19.68-.08.51-.23.75c-.15.23-.38.41-.67.54-.29.13-.62.19-.98.19-.61,0-1.07-.13-1.39-.38-.32-.25-.52-.63-.61-1.12Z"/><path d="M278.82,459.11l.11.7c-.22.05-.42.07-.6.07-.29,0-.51-.05-.67-.14-.16-.09-.27-.21-.33-.36s-.1-.46-.1-.93v-2.69h-.58v-.62h.58v-1.16l.79-.47v1.63h.79v.62h-.79v2.73c0,.23.01.37.04.44.03.06.07.12.14.15.06.04.15.06.27.06.09,0,.2-.01.35-.03Z"/><path d="M279.59,459.82v-4.67h.71v.71c.18-.33.35-.55.5-.65.15-.11.32-.16.51-.16.27,0,.54.08.81.25l-.27.73c-.19-.11-.39-.17-.58-.17-.17,0-.33.05-.47.16s-.24.25-.29.43c-.09.28-.13.59-.13.92v2.44h-.79Z"/><path d="M282.6,454.29v-.91h.79v.91h-.79ZM282.6,459.82v-4.67h.79v4.67h-.79Z"/><path d="M284.6,459.82v-6.44h.79v3.67l1.87-1.9h1.02l-1.79,1.73,1.96,2.94h-.98l-1.54-2.39-.56.54v1.85h-.79Z"/><path d="M289.1,454.29v-.91h.79v.91h-.79ZM289.1,459.82v-4.67h.79v4.67h-.79Z"/><path d="M291.09,459.82v-4.67h.71v.66c.34-.51.84-.77,1.49-.77.28,0,.54.05.78.15.24.1.41.23.53.4s.2.36.25.58c.03.15.04.4.04.77v2.87h-.79v-2.84c0-.32-.03-.56-.09-.72-.06-.16-.17-.29-.33-.38-.16-.09-.34-.14-.55-.14-.34,0-.63.11-.87.32-.24.21-.37.62-.37,1.22v2.55h-.79Z"/><path d="M295.95,460.21l.77.11c.03.24.12.41.27.52.2.15.46.22.8.22.37,0,.65-.07.85-.22s.33-.35.4-.62c.04-.16.06-.5.06-1.02-.35.41-.78.61-1.29.61-.64,0-1.14-.23-1.49-.69s-.53-1.02-.53-1.67c0-.45.08-.86.24-1.23.16-.38.4-.67.7-.87.31-.21.67-.31,1.08-.31.55,0,1,.22,1.36.67v-.56h.73v4.03c0,.73-.07,1.24-.22,1.54-.15.3-.38.54-.7.72-.32.18-.72.26-1.18.26-.56,0-1.01-.13-1.35-.38-.34-.25-.51-.63-.5-1.13ZM296.61,457.41c0,.61.12,1.06.36,1.34s.55.42.91.42.67-.14.91-.42.37-.72.37-1.32-.13-1-.38-1.29c-.25-.29-.56-.44-.92-.44s-.65.14-.9.43c-.25.29-.37.71-.37,1.27Z"/><path d="M303.61,454.29v-.91h.79v.91h-.79ZM303.61,459.82v-4.67h.79v4.67h-.79Z"/><path d="M305.6,459.82v-4.67h.71v.65c.15-.23.34-.41.58-.55s.52-.21.83-.21c.35,0,.63.07.85.22.22.14.38.34.47.6.37-.54.85-.82,1.44-.82.46,0,.82.13,1.07.38s.37.65.37,1.18v3.2h-.79v-2.94c0-.32-.03-.54-.08-.68-.05-.14-.14-.25-.28-.34s-.29-.13-.47-.13c-.33,0-.6.11-.82.33-.22.22-.33.57-.33,1.05v2.71h-.79v-3.03c0-.35-.06-.62-.19-.79s-.34-.26-.63-.26c-.22,0-.43.06-.62.18-.19.12-.33.29-.41.51s-.13.55-.13.98v2.42h-.79Z"/><path d="M316.14,459.25c-.29.25-.58.42-.85.53-.27.1-.56.15-.87.15-.51,0-.91-.12-1.18-.38-.28-.25-.41-.57-.41-.96,0-.23.05-.44.16-.63.1-.19.24-.34.41-.46.17-.11.36-.2.57-.26.16-.04.39-.08.7-.12.64-.08,1.11-.17,1.41-.27,0-.11,0-.18,0-.21,0-.32-.08-.55-.22-.68-.2-.18-.5-.27-.9-.27-.37,0-.65.07-.82.2-.18.13-.31.36-.39.69l-.77-.11c.07-.33.19-.6.35-.8.16-.2.39-.36.7-.47.3-.11.66-.17,1.06-.17s.72.05.97.14.43.21.55.35c.12.14.2.32.25.54.03.13.04.38.04.73v1.05c0,.74.02,1.2.05,1.4.03.2.1.38.2.56h-.83c-.08-.16-.13-.36-.16-.58ZM316.08,457.48c-.29.12-.72.22-1.29.3-.33.05-.56.1-.69.16s-.24.14-.31.26c-.07.11-.11.24-.11.38,0,.21.08.39.24.53.16.14.39.21.7.21s.58-.07.81-.2c.24-.13.41-.32.52-.55.08-.18.13-.44.13-.79v-.29Z"/><path d="M317.96,460.21l.77.11c.03.24.12.41.27.52.2.15.46.22.8.22.37,0,.65-.07.85-.22s.33-.35.4-.62c.04-.16.06-.5.06-1.02-.35.41-.78.61-1.29.61-.64,0-1.14-.23-1.49-.69s-.53-1.02-.53-1.67c0-.45.08-.86.24-1.23.16-.38.4-.67.7-.87.31-.21.67-.31,1.08-.31.55,0,1,.22,1.36.67v-.56h.73v4.03c0,.73-.07,1.24-.22,1.54-.15.3-.38.54-.7.72-.32.18-.72.26-1.18.26-.56,0-1.01-.13-1.35-.38-.34-.25-.51-.63-.5-1.13ZM318.61,457.41c0,.61.12,1.06.36,1.34s.55.42.91.42.67-.14.91-.42.37-.72.37-1.32-.13-1-.38-1.29c-.25-.29-.56-.44-.92-.44s-.65.14-.9.43c-.25.29-.37.71-.37,1.27Z"/><path d="M326.31,458.32l.82.1c-.13.48-.37.85-.72,1.11s-.79.4-1.34.4c-.68,0-1.22-.21-1.62-.63-.4-.42-.6-1.01-.6-1.77s.2-1.39.61-1.83.93-.65,1.57-.65,1.13.21,1.53.64c.39.42.59,1.02.59,1.79,0,.05,0,.12,0,.21h-3.48c.03.51.17.91.44,1.18s.59.41.98.41c.29,0,.54-.08.74-.23.2-.15.37-.4.49-.73ZM323.71,457.04h2.61c-.04-.39-.13-.69-.3-.88-.25-.3-.58-.46-.98-.46-.36,0-.67.12-.92.36-.25.24-.38.57-.41.98Z"/><path d="M330.81,459.82v-4.05h-.7v-.62h.7v-.5c0-.31.03-.55.08-.7.08-.21.21-.37.4-.5.19-.13.46-.19.81-.19.22,0,.47.03.74.08l-.12.69c-.16-.03-.32-.04-.46-.04-.24,0-.41.05-.51.15-.1.1-.15.29-.15.58v.43h.91v.62h-.91v4.05h-.79Z"/><path d="M332.82,457.49c0-.86.24-1.5.72-1.92.4-.35.89-.52,1.47-.52.64,0,1.17.21,1.57.63s.61,1,.61,1.74c0,.6-.09,1.07-.27,1.42-.18.34-.44.61-.79.8-.34.19-.72.29-1.13.29-.65,0-1.18-.21-1.58-.63-.4-.42-.6-1.02-.6-1.81ZM333.63,457.49c0,.6.13,1.05.39,1.34.26.3.59.45.98.45s.72-.15.98-.45.39-.75.39-1.37c0-.58-.13-1.01-.39-1.31-.26-.3-.59-.45-.98-.45s-.72.15-.98.44-.39.74-.39,1.34Z"/><path d="M338.1,459.82v-6.44h.79v6.44h-.79Z"/><path d="M340.1,459.82v-6.44h.79v6.44h-.79Z"/><path d="M341.83,457.49c0-.86.24-1.5.72-1.92.4-.35.89-.52,1.47-.52.64,0,1.17.21,1.57.63s.61,1,.61,1.74c0,.6-.09,1.07-.27,1.42-.18.34-.44.61-.79.8-.34.19-.72.29-1.13.29-.65,0-1.18-.21-1.58-.63-.4-.42-.6-1.02-.6-1.81ZM342.64,457.49c0,.6.13,1.05.39,1.34.26.3.59.45.98.45s.72-.15.98-.45.39-.75.39-1.37c0-.58-.13-1.01-.39-1.31-.26-.3-.59-.45-.98-.45s-.72.15-.98.44-.39.74-.39,1.34Z"/><path d="M347.99,459.82l-1.43-4.67h.82l.74,2.69.28,1s.09-.37.24-.96l.74-2.73h.81l.7,2.71.23.89.27-.9.8-2.7h.77l-1.46,4.67h-.82l-.74-2.79-.18-.8-.94,3.59h-.83Z"/><path d="M356.82,458.32l.82.1c-.13.48-.37.85-.72,1.11s-.79.4-1.34.4c-.68,0-1.22-.21-1.62-.63-.4-.42-.6-1.01-.6-1.77s.2-1.39.61-1.83.93-.65,1.57-.65,1.13.21,1.53.64c.39.42.59,1.02.59,1.79,0,.05,0,.12,0,.21h-3.48c.03.51.17.91.44,1.18s.59.41.98.41c.29,0,.54-.08.74-.23.2-.15.37-.4.49-.73ZM354.22,457.04h2.61c-.04-.39-.13-.69-.3-.88-.25-.3-.58-.46-.98-.46-.36,0-.67.12-.92.36-.25.24-.38.57-.41.98Z"/><path d="M361.66,459.82v-.59c-.3.46-.73.69-1.3.69-.37,0-.71-.1-1.03-.31-.31-.21-.55-.49-.73-.86-.17-.37-.26-.79-.26-1.27s.08-.89.23-1.27c.15-.38.39-.67.7-.87s.66-.3,1.04-.3c.28,0,.53.06.75.18.22.12.4.27.54.46v-2.31h.79v6.44h-.73ZM359.16,457.49c0,.6.12,1.04.38,1.34s.55.44.89.44.64-.14.88-.42c.24-.28.36-.71.36-1.29,0-.64-.12-1.11-.37-1.41s-.55-.45-.91-.45-.65.14-.88.43c-.24.29-.35.74-.35,1.36Z"/><path d="M366.87,459.82h-.73v-6.44h.79v2.3c.33-.42.76-.63,1.28-.63.29,0,.56.06.82.17.26.12.47.28.63.49.17.21.29.46.39.76.09.3.14.61.14.95,0,.8-.2,1.42-.59,1.85s-.87.65-1.42.65-.98-.23-1.3-.69v.58ZM366.86,457.45c0,.56.08.96.23,1.21.25.41.58.61,1.01.61.35,0,.64-.15.9-.45s.38-.75.38-1.34-.12-1.06-.36-1.35c-.24-.29-.53-.44-.88-.44s-.64.15-.9.45c-.25.3-.38.73-.38,1.3Z"/><path d="M371.11,461.62l-.09-.74c.17.05.32.07.45.07.18,0,.32-.03.42-.09s.19-.14.26-.25c.05-.08.13-.28.24-.59.01-.04.04-.11.07-.19l-1.77-4.68h.85l.97,2.7c.13.34.24.7.34,1.08.09-.36.2-.72.33-1.06l1-2.72h.79l-1.78,4.75c-.19.51-.34.87-.44,1.06-.14.26-.3.45-.48.57-.18.12-.4.18-.65.18-.15,0-.32-.03-.51-.1Z"/><path d="M379.87,459.11l.11.7c-.22.05-.42.07-.6.07-.29,0-.51-.05-.67-.14-.16-.09-.27-.21-.33-.36s-.1-.46-.1-.93v-2.69h-.58v-.62h.58v-1.16l.79-.47v1.63h.79v.62h-.79v2.73c0,.23.01.37.04.44.03.06.07.12.14.15.06.04.15.06.27.06.09,0,.2-.01.35-.03Z"/><path d="M380.64,459.82v-6.44h.79v2.31c.37-.43.83-.64,1.4-.64.35,0,.65.07.9.2.25.14.44.32.55.56.11.24.17.59.17,1.05v2.96h-.79v-2.96c0-.4-.09-.68-.26-.86-.17-.18-.41-.27-.73-.27-.23,0-.46.06-.66.18-.21.12-.35.29-.44.49s-.13.5-.13.86v2.55h-.79Z"/><path d="M388.84,458.32l.82.1c-.13.48-.37.85-.72,1.11s-.79.4-1.34.4c-.68,0-1.22-.21-1.62-.63-.4-.42-.6-1.01-.6-1.77s.2-1.39.61-1.83.93-.65,1.57-.65,1.13.21,1.53.64c.39.42.59,1.02.59,1.79,0,.05,0,.12,0,.21h-3.48c.03.51.17.91.44,1.18s.59.41.98.41c.29,0,.54-.08.74-.23.2-.15.37-.4.49-.73ZM386.25,457.04h2.61c-.04-.39-.13-.69-.3-.88-.25-.3-.58-.46-.98-.46-.36,0-.67.12-.92.36-.25.24-.38.57-.41.98Z"/><path d="M172.05,470.62v-.59c-.3.46-.73.69-1.3.69-.37,0-.71-.1-1.03-.31-.31-.21-.55-.49-.73-.86-.17-.37-.26-.79-.26-1.27s.08-.89.23-1.27c.16-.38.39-.67.7-.87.31-.2.66-.3,1.04-.3.28,0,.53.06.75.18.22.12.4.27.54.46v-2.31h.79v6.44h-.73ZM169.55,468.29c0,.6.13,1.04.38,1.34s.55.44.89.44.64-.14.88-.42c.24-.28.36-.71.36-1.29,0-.64-.12-1.11-.37-1.41s-.55-.45-.91-.45-.65.14-.88.43c-.24.29-.35.74-.35,1.36Z"/><path d="M177.23,469.12l.82.1c-.13.48-.37.85-.72,1.11s-.79.4-1.34.4c-.68,0-1.22-.21-1.62-.63-.4-.42-.6-1.01-.6-1.77s.2-1.39.61-1.83.93-.65,1.57-.65,1.13.21,1.53.64.59,1.02.59,1.79c0,.05,0,.12,0,.21h-3.48c.03.51.17.9.44,1.18.26.27.59.41.98.41.29,0,.54-.08.74-.23s.37-.4.49-.73ZM174.63,467.84h2.61c-.04-.39-.13-.69-.3-.88-.25-.3-.58-.46-.98-.46-.36,0-.67.12-.92.36-.25.24-.38.57-.41.98Z"/><path d="M180.76,469.92l.11.7c-.22.05-.42.07-.6.07-.29,0-.51-.05-.67-.14-.16-.09-.27-.21-.33-.36-.06-.15-.1-.46-.1-.93v-2.68h-.58v-.62h.58v-1.16l.79-.47v1.63h.79v.62h-.79v2.73c0,.23.01.37.04.43.03.06.07.12.14.15.06.04.15.06.27.06.09,0,.2,0,.35-.03Z"/><path d="M184.58,470.05c-.29.25-.58.43-.85.53-.27.1-.56.15-.87.15-.51,0-.91-.12-1.18-.38-.28-.25-.41-.57-.41-.96,0-.23.05-.44.16-.63.1-.19.24-.34.41-.46.17-.11.36-.2.57-.26.16-.04.39-.08.7-.12.64-.08,1.11-.17,1.41-.27,0-.11,0-.18,0-.21,0-.32-.08-.55-.22-.68-.2-.18-.5-.27-.9-.27-.37,0-.65.06-.82.2-.18.13-.31.36-.39.69l-.77-.11c.07-.33.19-.6.35-.8.16-.2.39-.36.7-.47.3-.11.66-.17,1.06-.17s.72.05.97.14.43.21.55.35c.12.14.2.32.25.54.03.14.04.38.04.73v1.05c0,.74.02,1.2.05,1.39.03.2.1.38.2.56h-.83c-.08-.16-.13-.36-.16-.58ZM184.52,468.28c-.29.12-.72.22-1.29.3-.33.05-.55.1-.69.16s-.24.14-.31.26c-.07.11-.11.24-.11.38,0,.21.08.39.24.53.16.14.39.21.7.21s.58-.07.81-.2c.24-.13.41-.32.52-.55.08-.18.13-.44.13-.79v-.29Z"/><path d="M186.55,465.09v-.91h.79v.91h-.79ZM186.55,470.62v-4.67h.79v4.67h-.79Z"/><path d="M188.52,470.62v-6.44h.79v6.44h-.79Z"/><path d="M190.23,469.23l.78-.12c.04.31.17.55.37.72.2.17.48.25.84.25s.63-.07.81-.22c.18-.15.26-.32.26-.52,0-.18-.08-.32-.23-.42-.11-.07-.38-.16-.81-.27-.58-.15-.98-.27-1.21-.38-.22-.11-.39-.25-.51-.44-.12-.19-.17-.4-.17-.63,0-.21.05-.4.14-.58.09-.18.22-.32.39-.44.12-.09.29-.17.5-.23.21-.06.44-.09.68-.09.37,0,.69.05.96.16.28.11.48.25.61.43.13.18.22.42.27.72l-.77.11c-.04-.24-.14-.43-.31-.56-.17-.13-.41-.2-.71-.2-.36,0-.62.06-.78.18s-.23.26-.23.42c0,.1.03.19.1.28.06.08.17.16.3.21.08.03.31.1.7.2.56.15.95.27,1.17.37.22.09.39.23.52.42s.19.41.19.68-.08.51-.23.75c-.15.23-.38.41-.67.54-.29.13-.62.19-.98.19-.61,0-1.07-.13-1.39-.38-.32-.25-.52-.62-.61-1.12Z"/><path d="M199.27,469.92l.11.7c-.22.05-.42.07-.6.07-.29,0-.51-.05-.67-.14-.16-.09-.27-.21-.33-.36-.06-.15-.1-.46-.1-.93v-2.68h-.58v-.62h.58v-1.16l.79-.47v1.63h.8v.62h-.8v2.73c0,.23.01.37.04.43.03.06.07.12.14.15.06.04.15.06.27.06.09,0,.2,0,.35-.03Z"/><path d="M200.04,470.62v-6.44h.79v2.31c.37-.43.83-.64,1.4-.64.35,0,.65.07.9.2.25.14.44.33.55.56.11.24.17.59.17,1.05v2.96h-.79v-2.96c0-.4-.09-.68-.26-.86-.17-.18-.41-.27-.73-.27-.23,0-.46.06-.66.18-.21.12-.35.29-.44.5s-.13.5-.13.86v2.55h-.79Z"/><path d="M208.09,470.05c-.29.25-.58.43-.85.53-.27.1-.56.15-.87.15-.51,0-.91-.12-1.18-.38-.28-.25-.41-.57-.41-.96,0-.23.05-.44.16-.63.1-.19.24-.34.41-.46.17-.11.36-.2.57-.26.16-.04.39-.08.7-.12.64-.08,1.11-.17,1.41-.27,0-.11,0-.18,0-.21,0-.32-.08-.55-.22-.68-.2-.18-.5-.27-.9-.27-.37,0-.65.06-.82.2-.18.13-.31.36-.39.69l-.77-.11c.07-.33.19-.6.35-.8.16-.2.39-.36.7-.47.3-.11.66-.17,1.06-.17s.72.05.97.14.43.21.55.35c.12.14.2.32.25.54.03.14.04.38.04.73v1.05c0,.74.02,1.2.05,1.39.03.2.1.38.2.56h-.83c-.08-.16-.13-.36-.16-.58ZM208.03,468.28c-.29.12-.72.22-1.29.3-.33.05-.55.1-.69.16s-.24.14-.31.26c-.07.11-.11.24-.11.38,0,.21.08.39.24.53.16.14.39.21.7.21s.58-.07.81-.2c.24-.13.41-.32.52-.55.08-.18.13-.44.13-.79v-.29Z"/><path d="M211.78,469.92l.11.7c-.22.05-.42.07-.6.07-.29,0-.51-.05-.67-.14-.16-.09-.27-.21-.33-.36-.06-.15-.1-.46-.1-.93v-2.68h-.58v-.62h.58v-1.16l.79-.47v1.63h.79v.62h-.79v2.73c0,.23.01.37.04.43.03.06.07.12.14.15.06.04.15.06.27.06.09,0,.2,0,.35-.03Z"/><path d="M215.06,472.41v-6.46h.72v.61c.17-.24.36-.42.58-.53.21-.12.47-.18.78-.18.4,0,.75.1,1.05.31s.53.49.69.87c.16.37.23.78.23,1.23,0,.48-.09.91-.26,1.29-.17.38-.42.68-.75.88-.33.2-.67.31-1.03.31-.26,0-.5-.06-.71-.17-.21-.11-.38-.25-.52-.42v2.27h-.79ZM215.77,468.32c0,.6.12,1.04.37,1.33s.54.43.88.43.65-.15.9-.45c.25-.3.38-.76.38-1.38s-.12-1.04-.37-1.34c-.25-.3-.54-.44-.88-.44s-.63.16-.89.47c-.26.32-.39.77-.39,1.37Z"/><path d="M223.26,469.12l.82.1c-.13.48-.37.85-.72,1.11s-.79.4-1.34.4c-.68,0-1.22-.21-1.62-.63-.4-.42-.6-1.01-.6-1.77s.2-1.39.61-1.83.93-.65,1.57-.65,1.13.21,1.53.64.59,1.02.59,1.79c0,.05,0,.12,0,.21h-3.48c.03.51.17.9.44,1.18.26.27.59.41.98.41.29,0,.54-.08.74-.23s.37-.4.49-.73ZM220.66,467.84h2.61c-.04-.39-.13-.69-.3-.88-.25-.3-.58-.46-.98-.46-.36,0-.67.12-.92.36-.25.24-.38.57-.41.98Z"/><path d="M224.77,468.29c0-.86.24-1.5.72-1.92.4-.35.89-.52,1.47-.52.64,0,1.17.21,1.57.63.41.42.61,1,.61,1.74,0,.6-.09,1.07-.27,1.42-.18.34-.44.61-.79.8-.34.19-.72.29-1.13.29-.65,0-1.18-.21-1.58-.63-.4-.42-.6-1.02-.6-1.81ZM225.58,468.29c0,.6.13,1.05.39,1.34.26.3.59.45.98.45s.72-.15.98-.45.39-.75.39-1.37c0-.58-.13-1.01-.39-1.31-.26-.3-.59-.45-.98-.45s-.72.15-.98.44-.39.74-.39,1.34Z"/><path d="M230.07,472.41v-6.46h.72v.61c.17-.24.36-.42.58-.53.21-.12.47-.18.78-.18.4,0,.75.1,1.05.31s.54.49.69.87c.16.37.23.78.23,1.23,0,.48-.08.91-.26,1.29-.17.38-.42.68-.75.88-.33.2-.67.31-1.03.31-.26,0-.5-.06-.71-.17-.21-.11-.38-.25-.52-.42v2.27h-.79ZM230.79,468.32c0,.6.12,1.04.36,1.33s.54.43.88.43.65-.15.9-.45c.25-.3.38-.76.38-1.38s-.12-1.04-.37-1.34c-.25-.3-.54-.44-.88-.44s-.63.16-.89.47c-.26.32-.39.77-.39,1.37Z"/><path d="M235.06,470.62v-6.44h.79v6.44h-.79Z"/><path d="M240.27,469.12l.82.1c-.13.48-.37.85-.72,1.11s-.79.4-1.34.4c-.68,0-1.22-.21-1.62-.63-.4-.42-.6-1.01-.6-1.77s.2-1.39.61-1.83.93-.65,1.57-.65,1.13.21,1.53.64.59,1.02.59,1.79c0,.05,0,.12,0,.21h-3.48c.03.51.17.9.44,1.18.26.27.59.41.98.41.29,0,.54-.08.74-.23s.37-.4.49-.73ZM237.67,467.84h2.61c-.04-.39-.13-.69-.3-.88-.25-.3-.58-.46-.98-.46-.36,0-.67.12-.92.36-.25.24-.38.57-.41.98Z"/><path d="M244.58,470.62v-4.67h.71v.66c.34-.51.84-.77,1.49-.77.28,0,.54.05.78.15.24.1.41.23.53.4s.2.36.25.58c.03.15.04.4.04.77v2.87h-.79v-2.84c0-.32-.03-.56-.09-.72-.06-.16-.17-.29-.33-.38-.16-.09-.34-.14-.55-.14-.34,0-.63.11-.87.32-.25.21-.37.62-.37,1.22v2.55h-.79Z"/><path d="M252.78,469.12l.82.1c-.13.48-.37.85-.72,1.11s-.79.4-1.34.4c-.68,0-1.22-.21-1.62-.63-.4-.42-.6-1.01-.6-1.77s.2-1.39.61-1.83.93-.65,1.57-.65,1.13.21,1.53.64c.39.42.59,1.02.59,1.79,0,.05,0,.12,0,.21h-3.48c.03.51.17.9.44,1.18.26.27.59.41.98.41.29,0,.54-.08.74-.23.2-.15.37-.4.49-.73ZM250.18,467.84h2.61c-.04-.39-.13-.69-.3-.88-.25-.3-.58-.46-.98-.46-.36,0-.67.12-.92.36-.25.24-.38.57-.41.98Z"/><path d="M257.79,469.12l.82.1c-.13.48-.37.85-.72,1.11s-.79.4-1.34.4c-.68,0-1.22-.21-1.62-.63-.4-.42-.6-1.01-.6-1.77s.2-1.39.61-1.83.93-.65,1.57-.65,1.13.21,1.53.64c.39.42.59,1.02.59,1.79,0,.05,0,.12,0,.21h-3.48c.03.51.17.9.44,1.18.26.27.59.41.98.41.29,0,.54-.08.74-.23.2-.15.37-.4.49-.73ZM255.19,467.84h2.61c-.04-.39-.13-.69-.3-.88-.25-.3-.58-.46-.98-.46-.36,0-.67.12-.92.36-.25.24-.38.57-.41.98Z"/><path d="M262.63,470.62v-.59c-.3.46-.73.69-1.3.69-.37,0-.71-.1-1.03-.31-.31-.21-.55-.49-.73-.86-.17-.37-.26-.79-.26-1.27s.08-.89.23-1.27c.15-.38.39-.67.7-.87.31-.2.66-.3,1.04-.3.28,0,.53.06.75.18.22.12.4.27.54.46v-2.31h.79v6.44h-.73ZM260.13,468.29c0,.6.12,1.04.38,1.34s.55.44.89.44.64-.14.88-.42c.24-.28.36-.71.36-1.29,0-.64-.12-1.11-.37-1.41s-.55-.45-.91-.45-.65.14-.88.43c-.24.29-.35.74-.35,1.36Z"/><path d="M268.83,469.92l.11.7c-.22.05-.42.07-.6.07-.29,0-.51-.05-.67-.14-.16-.09-.27-.21-.33-.36-.06-.15-.1-.46-.1-.93v-2.68h-.58v-.62h.58v-1.16l.79-.47v1.63h.79v.62h-.79v2.73c0,.23.01.37.04.43.03.06.07.12.14.15.06.04.15.06.27.06.09,0,.2,0,.35-.03Z"/><path d="M269.31,468.29c0-.86.24-1.5.72-1.92.4-.35.89-.52,1.47-.52.64,0,1.17.21,1.57.63.41.42.61,1,.61,1.74,0,.6-.09,1.07-.27,1.42-.18.34-.44.61-.79.8-.34.19-.72.29-1.13.29-.65,0-1.18-.21-1.58-.63-.4-.42-.6-1.02-.6-1.81ZM270.12,468.29c0,.6.13,1.05.39,1.34.26.3.59.45.98.45s.72-.15.98-.45.39-.75.39-1.37c0-.58-.13-1.01-.39-1.31-.26-.3-.59-.45-.98-.45s-.72.15-.98.44-.39.74-.39,1.34Z"/><path d="M276.97,471.01l.77.11c.03.24.12.41.27.52.2.15.46.22.8.22.37,0,.65-.07.85-.22s.33-.35.4-.62c.04-.16.06-.5.06-1.02-.35.41-.78.61-1.29.61-.64,0-1.14-.23-1.49-.69s-.53-1.02-.53-1.67c0-.45.08-.86.24-1.23.16-.38.4-.67.7-.87.31-.21.67-.31,1.08-.31.55,0,1,.22,1.36.67v-.56h.73v4.03c0,.73-.07,1.24-.22,1.54-.15.3-.38.54-.7.72-.32.18-.72.26-1.18.26-.56,0-1.01-.13-1.35-.38-.34-.25-.51-.63-.5-1.13ZM277.62,468.21c0,.61.12,1.06.36,1.34s.55.42.91.42.67-.14.91-.42c.25-.28.37-.72.37-1.32s-.13-1-.38-1.29c-.25-.29-.56-.43-.92-.43s-.65.14-.9.43c-.25.29-.37.71-.37,1.27Z"/><path d="M285.31,469.12l.82.1c-.13.48-.37.85-.72,1.11s-.79.4-1.34.4c-.68,0-1.22-.21-1.62-.63-.4-.42-.6-1.01-.6-1.77s.2-1.39.61-1.83.93-.65,1.57-.65,1.13.21,1.53.64c.39.42.59,1.02.59,1.79,0,.05,0,.12,0,.21h-3.48c.03.51.17.9.44,1.18.26.27.59.41.98.41.29,0,.54-.08.74-.23.2-.15.37-.4.49-.73ZM282.71,467.84h2.61c-.04-.39-.13-.69-.3-.88-.25-.3-.58-.46-.98-.46-.36,0-.67.12-.92.36-.25.24-.38.57-.41.98Z"/><path d="M288.85,469.92l.11.7c-.22.05-.42.07-.6.07-.29,0-.51-.05-.67-.14-.16-.09-.27-.21-.33-.36-.06-.15-.1-.46-.1-.93v-2.68h-.58v-.62h.58v-1.16l.79-.47v1.63h.79v.62h-.79v2.73c0,.23.01.37.04.43.03.06.07.12.14.15.06.04.15.06.27.06.09,0,.2,0,.35-.03Z"/><path d="M292.13,465.09v-.91h.79v.91h-.79ZM292.13,470.62v-4.67h.79v4.67h-.79Z"/><path d="M294.12,470.62v-4.67h.71v.66c.34-.51.84-.77,1.49-.77.28,0,.54.05.78.15.24.1.41.23.53.4s.2.36.25.58c.03.15.04.4.04.77v2.87h-.79v-2.84c0-.32-.03-.56-.09-.72-.06-.16-.17-.29-.33-.38-.16-.09-.34-.14-.55-.14-.34,0-.63.11-.87.32-.24.21-.37.62-.37,1.22v2.55h-.79Z"/><path d="M300.42,470.62l-1.78-4.67h.83l1,2.79c.11.3.21.62.3.94.07-.25.17-.54.29-.89l1.04-2.85h.81l-1.77,4.67h-.74Z"/><path d="M303.33,468.29c0-.86.24-1.5.72-1.92.4-.35.89-.52,1.47-.52.64,0,1.17.21,1.57.63.41.42.61,1,.61,1.74,0,.6-.09,1.07-.27,1.42-.18.34-.44.61-.79.8-.34.19-.72.29-1.13.29-.65,0-1.18-.21-1.58-.63-.4-.42-.6-1.02-.6-1.81ZM304.14,468.29c0,.6.13,1.05.39,1.34.26.3.59.45.98.45s.72-.15.98-.45.39-.75.39-1.37c0-.58-.13-1.01-.39-1.31-.26-.3-.59-.45-.98-.45s-.72.15-.98.44-.39.74-.39,1.34Z"/><path d="M308.61,470.62v-6.44h.79v6.44h-.79Z"/><path d="M311.93,470.62l-1.78-4.67h.83l1,2.79c.11.3.21.62.3.94.07-.25.17-.54.29-.89l1.04-2.85h.81l-1.77,4.67h-.74Z"/><path d="M318.33,469.12l.82.1c-.13.48-.37.85-.72,1.11s-.79.4-1.34.4c-.68,0-1.22-.21-1.62-.63-.4-.42-.6-1.01-.6-1.77s.2-1.39.61-1.83.93-.65,1.57-.65,1.13.21,1.53.64c.39.42.59,1.02.59,1.79,0,.05,0,.12,0,.21h-3.48c.03.51.17.9.44,1.18.26.27.59.41.98.41.29,0,.54-.08.74-.23.2-.15.37-.4.49-.73ZM315.73,467.84h2.61c-.04-.39-.13-.69-.3-.88-.25-.3-.58-.46-.98-.46-.36,0-.67.12-.92.36-.25.24-.38.57-.41.98Z"/><path d="M323.17,470.62v-.59c-.3.46-.73.69-1.3.69-.37,0-.71-.1-1.03-.31-.31-.21-.55-.49-.73-.86-.17-.37-.26-.79-.26-1.27s.08-.89.23-1.27c.15-.38.39-.67.7-.87.31-.2.66-.3,1.04-.3.28,0,.53.06.75.18.22.12.4.27.54.46v-2.31h.79v6.44h-.73ZM320.67,468.29c0,.6.12,1.04.38,1.34s.55.44.89.44.64-.14.88-.42c.24-.28.36-.71.36-1.29,0-.64-.12-1.11-.37-1.41s-.55-.45-.91-.45-.65.14-.88.43c-.24.29-.35.74-.35,1.36Z"/><path d="M325.37,470.62v-.9h.9v.9h-.9Z"/><path d="M102.32,492.75l.8-.07c.04.32.13.59.27.79.14.21.36.37.65.5.29.13.62.19.99.19.33,0,.61-.05.86-.15s.43-.23.56-.4c.12-.17.18-.35.18-.55s-.06-.38-.18-.53-.31-.28-.58-.38c-.17-.07-.55-.17-1.15-.31s-1.01-.28-1.24-.4c-.31-.16-.54-.36-.69-.6-.15-.24-.23-.51-.23-.8,0-.33.09-.63.28-.91s.45-.5.81-.64.75-.22,1.18-.22c.48,0,.9.08,1.26.23.36.15.65.38.84.68s.3.64.32,1.02l-.82.06c-.04-.41-.19-.71-.45-.92-.25-.21-.63-.31-1.12-.31s-.89.09-1.13.28c-.24.19-.35.42-.35.68,0,.23.08.42.25.57.16.15.59.3,1.29.46.69.16,1.17.29,1.43.41.38.17.65.39.83.66s.27.57.27.92-.1.67-.29.97c-.2.3-.48.54-.85.71-.37.17-.78.25-1.24.25-.58,0-1.07-.08-1.47-.25-.39-.17-.7-.43-.93-.77-.22-.34-.34-.73-.35-1.16Z"/><path d="M110.24,494.11l.11.7c-.22.05-.42.07-.6.07-.29,0-.51-.05-.67-.14-.16-.09-.27-.21-.33-.36s-.1-.46-.1-.93v-2.69h-.58v-.62h.58v-1.16l.79-.47v1.63h.79v.62h-.79v2.73c0,.23.01.37.04.44.03.06.07.12.14.15.06.04.15.06.27.06.09,0,.2-.01.35-.03Z"/><path d="M114.06,494.25c-.29.25-.58.42-.85.53-.27.1-.56.15-.87.15-.51,0-.91-.12-1.18-.38-.28-.25-.41-.57-.41-.96,0-.23.05-.44.16-.63.1-.19.24-.34.41-.46.17-.11.36-.2.57-.26.16-.04.39-.08.7-.12.64-.08,1.11-.17,1.41-.27,0-.11,0-.18,0-.21,0-.32-.08-.55-.22-.68-.2-.18-.5-.27-.9-.27-.37,0-.65.07-.82.2-.18.13-.31.36-.39.69l-.77-.11c.07-.33.19-.6.35-.8.16-.2.39-.36.7-.47.3-.11.66-.17,1.06-.17s.72.05.97.14.43.21.55.35c.12.14.2.32.25.54.03.13.04.38.04.73v1.05c0,.74.02,1.2.05,1.4.03.2.1.38.2.56h-.83c-.08-.16-.13-.36-.16-.58ZM113.99,492.48c-.29.12-.72.22-1.29.3-.33.05-.55.1-.69.16s-.24.14-.31.26-.11.24-.11.38c0,.21.08.39.24.53.16.14.39.21.7.21s.58-.07.81-.2.41-.32.52-.55c.08-.18.13-.44.13-.79v-.29Z"/><path d="M116.01,494.82v-4.67h.71v.71c.18-.33.35-.55.5-.65.15-.11.32-.16.51-.16.27,0,.54.08.81.25l-.27.73c-.19-.11-.39-.17-.58-.17-.17,0-.33.05-.47.16s-.24.25-.29.43c-.09.28-.13.59-.13.92v2.44h-.79Z"/><path d="M120.74,494.11l.11.7c-.22.05-.42.07-.6.07-.29,0-.51-.05-.67-.14-.16-.09-.27-.21-.33-.36s-.1-.46-.1-.93v-2.69h-.58v-.62h.58v-1.16l.79-.47v1.63h.79v.62h-.79v2.73c0,.23.01.37.04.44.03.06.07.12.14.15.06.04.15.06.27.06.09,0,.2-.01.35-.03Z"/><path d="M124.75,494.82h-.73v-6.44h.79v2.3c.33-.42.76-.63,1.28-.63.29,0,.56.06.81.17.26.12.47.28.63.49.17.21.3.46.39.76s.14.61.14.95c0,.8-.2,1.42-.59,1.85s-.87.65-1.42.65-.98-.23-1.3-.69v.58ZM124.74,492.45c0,.56.08.96.23,1.21.25.41.59.61,1.01.61.35,0,.64-.15.9-.45s.38-.75.38-1.34-.12-1.06-.36-1.35c-.24-.29-.53-.44-.88-.44s-.64.15-.9.45c-.25.3-.38.73-.38,1.3Z"/><path d="M128.99,496.62l-.09-.74c.17.05.32.07.45.07.18,0,.32-.03.42-.09s.19-.14.26-.25c.05-.08.13-.28.24-.59.01-.04.04-.11.07-.19l-1.77-4.68h.85l.97,2.7c.13.34.24.7.34,1.08.09-.36.2-.72.33-1.06l1-2.72h.79l-1.78,4.75c-.19.51-.34.87-.44,1.06-.14.26-.3.45-.48.57-.18.12-.4.18-.65.18-.15,0-.32-.03-.51-.1Z"/><path d="M136.01,494.82v-4.67h.71v.71c.18-.33.35-.55.5-.65.15-.11.32-.16.51-.16.27,0,.54.08.81.25l-.27.73c-.19-.11-.39-.17-.58-.17-.17,0-.33.05-.47.16s-.24.25-.29.43c-.09.28-.13.59-.13.92v2.44h-.79Z"/><path d="M142.22,493.32l.82.1c-.13.48-.37.85-.72,1.11s-.79.4-1.34.4c-.68,0-1.22-.21-1.62-.63-.4-.42-.6-1.01-.6-1.77s.2-1.39.61-1.83.93-.65,1.57-.65,1.13.21,1.53.64.59,1.02.59,1.79c0,.05,0,.12,0,.21h-3.48c.03.51.17.91.43,1.18s.59.41.98.41c.29,0,.54-.08.74-.23s.37-.4.49-.73ZM139.62,492.04h2.61c-.04-.39-.13-.69-.3-.88-.25-.3-.58-.46-.98-.46-.36,0-.67.12-.92.36-.25.24-.38.57-.41.98Z"/><path d="M144.03,496.61v-6.46h.72v.61c.17-.24.36-.42.58-.53.21-.12.47-.18.78-.18.4,0,.75.1,1.05.31s.54.49.69.87c.16.37.23.78.23,1.23,0,.48-.08.91-.26,1.29-.17.38-.42.68-.75.88-.33.2-.67.31-1.03.31-.26,0-.5-.06-.71-.17-.21-.11-.38-.25-.52-.42v2.27h-.79ZM144.74,492.52c0,.6.12,1.04.36,1.33s.54.43.88.43.65-.15.9-.45c.25-.3.38-.76.38-1.38s-.12-1.04-.37-1.34c-.25-.3-.54-.44-.88-.44s-.63.16-.89.47c-.26.32-.39.77-.39,1.37Z"/><path d="M149.01,494.82v-6.44h.79v6.44h-.79Z"/><path d="M154.08,494.25c-.29.25-.58.42-.85.53-.27.1-.56.15-.87.15-.51,0-.91-.12-1.18-.38-.28-.25-.41-.57-.41-.96,0-.23.05-.44.16-.63.1-.19.24-.34.41-.46.17-.11.36-.2.57-.26.16-.04.39-.08.7-.12.64-.08,1.11-.17,1.41-.27,0-.11,0-.18,0-.21,0-.32-.08-.55-.22-.68-.2-.18-.5-.27-.9-.27-.37,0-.65.07-.82.2-.18.13-.31.36-.39.69l-.77-.11c.07-.33.19-.6.35-.8.16-.2.39-.36.7-.47.3-.11.66-.17,1.06-.17s.72.05.97.14.43.21.55.35c.12.14.2.32.25.54.03.13.04.38.04.73v1.05c0,.74.02,1.2.05,1.4.03.2.1.38.2.56h-.83c-.08-.16-.13-.36-.16-.58ZM154.01,492.48c-.29.12-.72.22-1.29.3-.33.05-.55.1-.69.16s-.24.14-.31.26-.11.24-.11.38c0,.21.08.39.24.53.16.14.39.21.7.21s.58-.07.81-.2.41-.32.52-.55c.08-.18.13-.44.13-.79v-.29Z"/><path d="M159.08,493.11l.78.1c-.08.54-.3.96-.65,1.26-.35.3-.78.46-1.29.46-.64,0-1.15-.21-1.54-.63-.39-.42-.58-1.02-.58-1.8,0-.5.08-.94.25-1.32s.42-.66.76-.85c.34-.19.71-.28,1.11-.28.51,0,.92.13,1.24.38s.53.62.62,1.09l-.77.12c-.07-.31-.2-.55-.39-.71-.19-.16-.41-.24-.67-.24-.4,0-.72.14-.97.43-.25.29-.37.74-.37,1.36s.12,1.08.36,1.37.55.43.94.43c.31,0,.57-.1.78-.29s.34-.48.4-.88Z"/><path d="M160.54,489.29v-.91h.79v.91h-.79ZM160.54,494.82v-4.67h.79v4.67h-.79Z"/><path d="M162.54,494.82v-4.67h.71v.66c.34-.51.84-.77,1.49-.77.28,0,.54.05.78.15.24.1.41.23.53.4s.2.36.25.58c.03.15.04.4.04.77v2.87h-.79v-2.84c0-.32-.03-.56-.09-.72s-.17-.29-.33-.38c-.16-.09-.34-.14-.55-.14-.34,0-.63.11-.87.32-.25.21-.37.62-.37,1.22v2.55h-.79Z"/><path d="M167.4,495.21l.77.11c.03.24.12.41.27.52.2.15.46.22.8.22.37,0,.65-.07.85-.22s.33-.35.4-.62c.04-.16.06-.5.06-1.02-.35.41-.78.61-1.29.61-.64,0-1.14-.23-1.49-.69s-.53-1.02-.53-1.67c0-.45.08-.86.24-1.23.16-.38.39-.67.7-.87.31-.21.67-.31,1.08-.31.55,0,1,.22,1.36.67v-.56h.73v4.03c0,.73-.07,1.24-.22,1.54-.15.3-.38.54-.7.72-.32.18-.72.26-1.18.26-.56,0-1.01-.13-1.35-.38-.34-.25-.51-.63-.5-1.13ZM168.05,492.41c0,.61.12,1.06.36,1.34s.55.42.91.42.67-.14.91-.42.37-.72.37-1.32-.13-1-.38-1.29c-.25-.29-.56-.44-.92-.44s-.65.14-.9.43c-.25.29-.37.71-.37,1.27Z"/><path d="M175.05,489.29v-.91h.79v.91h-.79ZM175.05,494.82v-4.67h.79v4.67h-.79Z"/><path d="M177.05,494.82v-4.67h.71v.65c.15-.23.34-.41.58-.55s.52-.21.83-.21c.35,0,.63.07.85.22.22.14.38.34.47.6.37-.54.85-.82,1.44-.82.46,0,.82.13,1.07.38s.37.65.37,1.18v3.2h-.79v-2.94c0-.32-.03-.54-.08-.68-.05-.14-.14-.25-.28-.34s-.29-.13-.47-.13c-.33,0-.6.11-.82.33-.22.22-.33.57-.33,1.05v2.71h-.79v-3.03c0-.35-.06-.62-.19-.79s-.34-.26-.63-.26c-.22,0-.43.06-.62.18-.19.12-.33.29-.41.51s-.13.55-.13.98v2.42h-.79Z"/><path d="M187.59,494.25c-.29.25-.58.42-.85.53-.27.1-.56.15-.87.15-.51,0-.91-.12-1.18-.38-.28-.25-.41-.57-.41-.96,0-.23.05-.44.16-.63.1-.19.24-.34.41-.46.17-.11.36-.2.57-.26.16-.04.39-.08.7-.12.64-.08,1.11-.17,1.41-.27,0-.11,0-.18,0-.21,0-.32-.08-.55-.22-.68-.2-.18-.5-.27-.9-.27-.37,0-.65.07-.82.2-.18.13-.31.36-.39.69l-.77-.11c.07-.33.19-.6.35-.8.16-.2.39-.36.7-.47.3-.11.66-.17,1.06-.17s.72.05.97.14.43.21.55.35c.12.14.2.32.25.54.03.13.04.38.04.73v1.05c0,.74.02,1.2.05,1.4.03.2.1.38.2.56h-.83c-.08-.16-.13-.36-.16-.58ZM187.52,492.48c-.29.12-.72.22-1.29.3-.33.05-.55.1-.69.16s-.24.14-.31.26-.11.24-.11.38c0,.21.08.39.24.53.16.14.39.21.7.21s.58-.07.81-.2.41-.32.52-.55c.08-.18.13-.44.13-.79v-.29Z"/><path d="M189.4,495.21l.77.11c.03.24.12.41.27.52.2.15.46.22.8.22.37,0,.65-.07.85-.22s.33-.35.4-.62c.04-.16.06-.5.06-1.02-.35.41-.78.61-1.29.61-.64,0-1.14-.23-1.49-.69s-.53-1.02-.53-1.67c0-.45.08-.86.24-1.23.16-.38.39-.67.7-.87.31-.21.67-.31,1.08-.31.55,0,1,.22,1.36.67v-.56h.73v4.03c0,.73-.07,1.24-.22,1.54-.15.3-.38.54-.7.72-.32.18-.72.26-1.18.26-.56,0-1.01-.13-1.35-.38-.34-.25-.51-.63-.5-1.13ZM190.06,492.41c0,.61.12,1.06.36,1.34s.55.42.91.42.67-.14.91-.42.37-.72.37-1.32-.13-1-.38-1.29c-.25-.29-.56-.44-.92-.44s-.65.14-.9.43c-.25.29-.37.71-.37,1.27Z"/><path d="M197.75,493.32l.82.1c-.13.48-.37.85-.72,1.11s-.79.4-1.34.4c-.68,0-1.22-.21-1.62-.63-.4-.42-.6-1.01-.6-1.77s.2-1.39.61-1.83.93-.65,1.57-.65,1.13.21,1.53.64.59,1.02.59,1.79c0,.05,0,.12,0,.21h-3.48c.03.51.17.91.44,1.18s.59.41.98.41c.29,0,.54-.08.74-.23s.37-.4.49-.73ZM195.15,492.04h2.61c-.04-.39-.13-.69-.3-.88-.25-.3-.58-.46-.98-.46-.36,0-.67.12-.92.36-.25.24-.38.57-.41.98Z"/><path d="M199.24,493.43l.78-.12c.04.31.17.55.37.72.2.17.48.25.84.25s.63-.07.81-.22.26-.32.26-.52c0-.18-.08-.32-.23-.42-.11-.07-.38-.16-.81-.27-.58-.15-.98-.27-1.21-.38-.22-.11-.39-.25-.51-.44-.12-.19-.17-.4-.17-.63,0-.21.05-.4.14-.58.09-.18.22-.32.39-.44.12-.09.29-.17.5-.23.21-.06.44-.09.68-.09.37,0,.69.05.96.16.28.11.48.25.61.43.13.18.22.42.27.72l-.77.11c-.04-.24-.14-.43-.31-.56-.17-.13-.41-.2-.71-.2-.36,0-.62.06-.78.18s-.23.26-.23.42c0,.1.03.19.1.28.06.08.17.16.3.21.08.03.31.1.7.2.56.15.95.27,1.17.37.22.1.39.23.52.42s.19.41.19.68-.08.51-.23.75c-.15.23-.38.41-.67.54-.29.13-.62.19-.98.19-.61,0-1.07-.13-1.39-.38-.32-.25-.52-.63-.61-1.12Z"/><path d="M207.42,494.82l-1.43-4.67h.82l.74,2.69.28,1s.09-.37.24-.96l.74-2.73h.81l.7,2.71.23.89.27-.9.8-2.7h.77l-1.46,4.67h-.82l-.74-2.79-.18-.8-.95,3.59h-.83Z"/><path d="M213.06,489.29v-.91h.79v.91h-.79ZM213.06,494.82v-4.67h.79v4.67h-.79Z"/><path d="M216.79,494.11l.11.7c-.22.05-.42.07-.6.07-.29,0-.51-.05-.67-.14-.16-.09-.27-.21-.33-.36s-.1-.46-.1-.93v-2.69h-.58v-.62h.58v-1.16l.79-.47v1.63h.8v.62h-.8v2.73c0,.23.01.37.04.44.03.06.07.12.14.15.06.04.15.06.27.06.09,0,.2-.01.35-.03Z"/><path d="M217.56,494.82v-6.44h.79v2.31c.37-.43.83-.64,1.4-.64.35,0,.65.07.9.2.25.14.44.32.55.56.11.24.17.59.17,1.05v2.96h-.79v-2.96c0-.4-.09-.68-.26-.86-.17-.18-.41-.27-.73-.27-.23,0-.46.06-.66.18-.21.12-.35.29-.44.49s-.13.5-.13.86v2.55h-.79Z"/><path d="M225.03,496.62l-.09-.74c.17.05.32.07.45.07.18,0,.32-.03.42-.09s.19-.14.26-.25c.05-.08.13-.28.24-.59.01-.04.04-.11.07-.19l-1.77-4.68h.85l.97,2.7c.13.34.24.7.34,1.08.09-.36.2-.72.33-1.06l1-2.72h.79l-1.78,4.75c-.19.51-.34.87-.44,1.06-.14.26-.3.45-.48.57-.18.12-.4.18-.65.18-.15,0-.32-.03-.51-.1Z"/><path d="M229.27,492.49c0-.86.24-1.5.72-1.92.4-.35.89-.52,1.47-.52.64,0,1.17.21,1.57.63s.61,1,.61,1.74c0,.6-.09,1.07-.27,1.42-.18.34-.44.61-.79.8-.34.19-.72.29-1.13.29-.65,0-1.18-.21-1.58-.63-.4-.42-.6-1.02-.6-1.81ZM230.08,492.49c0,.6.13,1.05.39,1.34.26.3.59.45.98.45s.72-.15.98-.45.39-.75.39-1.37c0-.58-.13-1.01-.39-1.31-.26-.3-.59-.45-.98-.45s-.72.15-.98.44-.39.74-.39,1.34Z"/><path d="M237.63,494.82v-.69c-.36.53-.86.79-1.48.79-.28,0-.53-.05-.77-.16-.24-.11-.42-.24-.53-.4-.12-.16-.2-.36-.24-.59-.03-.16-.05-.4-.05-.74v-2.89h.79v2.59c0,.41.02.69.05.83.05.21.16.37.32.49.16.12.36.18.6.18s.46-.06.67-.18.35-.29.44-.5c.09-.21.13-.51.13-.91v-2.5h.79v4.67h-.71Z"/><path d="M239.57,494.82v-4.67h.71v.71c.18-.33.35-.55.5-.65.15-.11.32-.16.51-.16.27,0,.54.08.81.25l-.27.73c-.19-.11-.39-.17-.58-.17-.17,0-.33.05-.47.16s-.24.25-.29.43c-.09.28-.13.59-.13.92v2.44h-.79Z"/><path d="M244.78,492.49c0-.86.24-1.5.72-1.92.4-.35.89-.52,1.47-.52.64,0,1.17.21,1.57.63s.61,1,.61,1.74c0,.6-.09,1.07-.27,1.42-.18.34-.44.61-.79.8-.34.19-.72.29-1.13.29-.65,0-1.18-.21-1.58-.63-.4-.42-.6-1.02-.6-1.81ZM245.59,492.49c0,.6.13,1.05.39,1.34.26.3.59.45.98.45s.72-.15.98-.45c.26-.3.39-.75.39-1.37,0-.58-.13-1.01-.39-1.31-.26-.3-.59-.45-.98-.45s-.72.15-.98.44-.39.74-.39,1.34Z"/><path d="M250.94,494.82l-1.43-4.67h.82l.74,2.69.28,1s.09-.37.24-.96l.74-2.73h.81l.7,2.71.23.89.27-.9.8-2.7h.77l-1.46,4.67h-.82l-.74-2.79-.18-.8-.94,3.59h-.83Z"/><path d="M256.58,494.82v-4.67h.71v.66c.34-.51.84-.77,1.49-.77.28,0,.54.05.78.15.24.1.41.23.53.4s.2.36.25.58c.03.15.04.4.04.77v2.87h-.79v-2.84c0-.32-.03-.56-.09-.72-.06-.16-.17-.29-.33-.38-.16-.09-.34-.14-.55-.14-.34,0-.63.11-.87.32-.24.21-.37.62-.37,1.22v2.55h-.79Z"/><path d="M261.79,494.82v-.9h.9v.9c0,.33-.06.6-.18.8-.12.2-.3.36-.56.47l-.22-.34c.17-.07.29-.18.37-.32.08-.14.12-.35.13-.61h-.45Z"/><path d="M266.29,492.49c0-.86.24-1.5.72-1.92.4-.35.89-.52,1.47-.52.64,0,1.17.21,1.57.63s.61,1,.61,1.74c0,.6-.09,1.07-.27,1.42-.18.34-.44.61-.79.8-.34.19-.72.29-1.13.29-.65,0-1.18-.21-1.58-.63-.4-.42-.6-1.02-.6-1.81ZM267.1,492.49c0,.6.13,1.05.39,1.34.26.3.59.45.98.45s.72-.15.98-.45.39-.75.39-1.37c0-.58-.13-1.01-.39-1.31-.26-.3-.59-.45-.98-.45s-.72.15-.98.44-.39.74-.39,1.34Z"/><path d="M271.58,494.82v-4.67h.71v.71c.18-.33.35-.55.5-.65.15-.11.32-.16.51-.16.27,0,.54.08.81.25l-.27.73c-.19-.11-.39-.17-.58-.17-.17,0-.33.05-.47.16s-.24.25-.29.43c-.09.28-.13.59-.13.92v2.44h-.79Z"/><path d="M280.15,494.82v-.69c-.36.53-.86.79-1.48.79-.28,0-.53-.05-.77-.16-.24-.11-.42-.24-.53-.4-.12-.16-.2-.36-.24-.59-.03-.16-.05-.4-.05-.74v-2.89h.79v2.59c0,.41.02.69.05.83.05.21.16.37.32.49.16.12.36.18.6.18s.46-.06.67-.18.36-.29.44-.5c.09-.21.13-.51.13-.91v-2.5h.79v4.67h-.71Z"/><path d="M281.78,493.43l.78-.12c.04.31.17.55.37.72.2.17.48.25.84.25s.63-.07.81-.22.26-.32.26-.52c0-.18-.08-.32-.23-.42-.11-.07-.38-.16-.81-.27-.58-.15-.98-.27-1.21-.38-.22-.11-.39-.25-.51-.44-.12-.19-.17-.4-.17-.63,0-.21.05-.4.14-.58.09-.18.22-.32.39-.44.12-.09.29-.17.5-.23.21-.06.44-.09.68-.09.37,0,.69.05.96.16.28.11.48.25.61.43.13.18.22.42.27.72l-.77.11c-.04-.24-.14-.43-.3-.56-.17-.13-.41-.2-.71-.2-.36,0-.62.06-.78.18s-.23.26-.23.42c0,.1.03.19.1.28.06.08.17.16.3.21.08.03.31.1.7.2.56.15.95.27,1.17.37.22.1.39.23.52.42s.19.41.19.68-.08.51-.23.75c-.15.23-.38.41-.67.54-.29.13-.62.19-.98.19-.61,0-1.07-.13-1.39-.38-.32-.25-.52-.63-.61-1.12Z"/><path d="M289.79,493.32l.82.1c-.13.48-.37.85-.72,1.11s-.79.4-1.34.4c-.68,0-1.22-.21-1.62-.63-.4-.42-.6-1.01-.6-1.77s.2-1.39.61-1.83.93-.65,1.57-.65,1.13.21,1.53.64c.39.42.59,1.02.59,1.79,0,.05,0,.12,0,.21h-3.48c.03.51.17.91.44,1.18s.59.41.98.41c.29,0,.54-.08.74-.23.2-.15.37-.4.49-.73ZM287.19,492.04h2.61c-.04-.39-.13-.69-.3-.88-.25-.3-.58-.46-.98-.46-.36,0-.67.12-.92.36-.25.24-.38.57-.41.98Z"/><path d="M297.14,494.25c-.29.25-.58.42-.85.53-.27.1-.56.15-.87.15-.51,0-.91-.12-1.18-.38-.28-.25-.41-.57-.41-.96,0-.23.05-.44.16-.63.1-.19.24-.34.41-.46.17-.11.36-.2.57-.26.16-.04.39-.08.7-.12.64-.08,1.11-.17,1.41-.27,0-.11,0-.18,0-.21,0-.32-.08-.55-.22-.68-.2-.18-.5-.27-.9-.27-.37,0-.65.07-.82.2-.18.13-.31.36-.39.69l-.77-.11c.07-.33.19-.6.35-.8.16-.2.39-.36.7-.47.3-.11.66-.17,1.06-.17s.72.05.97.14.43.21.55.35c.12.14.2.32.25.54.03.13.04.38.04.73v1.05c0,.74.02,1.2.05,1.4.03.2.1.38.2.56h-.83c-.08-.16-.13-.36-.16-.58ZM297.08,492.48c-.29.12-.72.22-1.29.3-.33.05-.56.1-.69.16s-.24.14-.31.26c-.07.11-.11.24-.11.38,0,.21.08.39.24.53.16.14.39.21.7.21s.58-.07.81-.2c.24-.13.41-.32.52-.55.08-.18.13-.44.13-.79v-.29Z"/><path d="M301.29,493.43l.78-.12c.04.31.17.55.37.72.2.17.48.25.84.25s.63-.07.81-.22.26-.32.26-.52c0-.18-.08-.32-.23-.42-.11-.07-.38-.16-.81-.27-.58-.15-.98-.27-1.21-.38-.22-.11-.39-.25-.51-.44-.12-.19-.17-.4-.17-.63,0-.21.05-.4.14-.58.09-.18.22-.32.39-.44.12-.09.29-.17.5-.23.21-.06.44-.09.68-.09.37,0,.69.05.96.16.28.11.48.25.61.43.13.18.22.42.27.72l-.77.11c-.04-.24-.14-.43-.3-.56-.17-.13-.41-.2-.71-.2-.36,0-.62.06-.78.18s-.23.26-.23.42c0,.1.03.19.1.28.06.08.17.16.3.21.08.03.31.1.7.2.56.15.95.27,1.17.37.22.1.39.23.52.42s.19.41.19.68-.08.51-.23.75c-.15.23-.38.41-.67.54-.29.13-.62.19-.98.19-.61,0-1.07-.13-1.39-.38-.32-.25-.52-.63-.61-1.12Z"/><path d="M305.81,492.49c0-.86.24-1.5.72-1.92.4-.35.89-.52,1.47-.52.64,0,1.17.21,1.57.63s.61,1,.61,1.74c0,.6-.09,1.07-.27,1.42-.18.34-.44.61-.79.8-.34.19-.72.29-1.13.29-.65,0-1.18-.21-1.58-.63-.4-.42-.6-1.02-.6-1.81ZM306.62,492.49c0,.6.13,1.05.39,1.34.26.3.59.45.98.45s.72-.15.98-.45.39-.75.39-1.37c0-.58-.13-1.01-.39-1.31-.26-.3-.59-.45-.98-.45s-.72.15-.98.44-.39.74-.39,1.34Z"/><path d="M311.09,494.82v-6.44h.79v6.44h-.79Z"/><path d="M313.11,489.29v-.91h.79v.91h-.79ZM313.11,494.82v-4.67h.79v4.67h-.79Z"/><path d="M318.14,494.82v-.59c-.3.46-.73.69-1.3.69-.37,0-.71-.1-1.03-.31-.31-.21-.55-.49-.73-.86-.17-.37-.26-.79-.26-1.27s.08-.89.23-1.27c.15-.38.39-.67.7-.87s.66-.3,1.04-.3c.28,0,.53.06.75.18.22.12.4.27.54.46v-2.31h.79v6.44h-.73ZM315.64,492.49c0,.6.12,1.04.38,1.34s.55.44.89.44.64-.14.88-.42c.24-.28.36-.71.36-1.29,0-.64-.12-1.11-.37-1.41s-.55-.45-.91-.45-.65.14-.88.43c-.24.29-.35.74-.35,1.36Z"/><path d="M325.66,493.11l.78.1c-.08.54-.3.96-.65,1.26-.35.3-.78.46-1.29.46-.64,0-1.15-.21-1.54-.63-.39-.42-.58-1.02-.58-1.8,0-.5.08-.94.25-1.32.17-.38.42-.66.76-.85.34-.19.71-.28,1.11-.28.51,0,.92.13,1.24.38.32.26.53.62.62,1.09l-.77.12c-.07-.31-.2-.55-.39-.71-.19-.16-.41-.24-.67-.24-.4,0-.72.14-.97.43-.25.29-.37.74-.37,1.36s.12,1.08.36,1.37c.24.28.55.43.94.43.31,0,.57-.1.78-.29s.34-.48.4-.88Z"/><path d="M326.82,492.49c0-.86.24-1.5.72-1.92.4-.35.89-.52,1.47-.52.64,0,1.17.21,1.57.63s.61,1,.61,1.74c0,.6-.09,1.07-.27,1.42-.18.34-.44.61-.79.8-.34.19-.72.29-1.13.29-.65,0-1.18-.21-1.58-.63-.4-.42-.6-1.02-.6-1.81ZM327.63,492.49c0,.6.13,1.05.39,1.34.26.3.59.45.98.45s.72-.15.98-.45.39-.75.39-1.37c0-.58-.13-1.01-.39-1.31-.26-.3-.59-.45-.98-.45s-.72.15-.98.44-.39.74-.39,1.34Z"/><path d="M332.1,494.82v-6.44h.79v6.44h-.79Z"/><path d="M333.83,492.49c0-.86.24-1.5.72-1.92.4-.35.89-.52,1.47-.52.64,0,1.17.21,1.57.63s.61,1,.61,1.74c0,.6-.09,1.07-.27,1.42-.18.34-.44.61-.79.8-.34.19-.72.29-1.13.29-.65,0-1.18-.21-1.58-.63-.4-.42-.6-1.02-.6-1.81ZM334.64,492.49c0,.6.13,1.05.39,1.34.26.3.59.45.98.45s.72-.15.98-.45.39-.75.39-1.37c0-.58-.13-1.01-.39-1.31-.26-.3-.59-.45-.98-.45s-.72.15-.98.44-.39.74-.39,1.34Z"/><path d="M339.12,494.82v-4.67h.71v.71c.18-.33.35-.55.5-.65.15-.11.32-.16.51-.16.27,0,.54.08.81.25l-.27.73c-.19-.11-.39-.17-.58-.17-.17,0-.33.05-.47.16s-.24.25-.29.43c-.09.28-.13.59-.13.92v2.44h-.79Z"/><path d="M345.35,494.82h-.73v-6.44h.79v2.3c.33-.42.76-.63,1.28-.63.29,0,.56.06.82.17.26.12.47.28.63.49.17.21.29.46.39.76.09.3.14.61.14.95,0,.8-.2,1.42-.59,1.85s-.87.65-1.42.65-.98-.23-1.3-.69v.58ZM345.35,492.45c0,.56.08.96.23,1.21.25.41.58.61,1.01.61.35,0,.64-.15.9-.45s.38-.75.38-1.34-.12-1.06-.36-1.35c-.24-.29-.53-.44-.88-.44s-.64.15-.9.45c-.25.3-.38.73-.38,1.3Z"/><path d="M352.67,494.25c-.29.25-.58.42-.85.53-.27.1-.56.15-.87.15-.51,0-.91-.12-1.18-.38-.28-.25-.41-.57-.41-.96,0-.23.05-.44.16-.63.1-.19.24-.34.41-.46.17-.11.36-.2.57-.26.16-.04.39-.08.7-.12.64-.08,1.11-.17,1.41-.27,0-.11,0-.18,0-.21,0-.32-.08-.55-.22-.68-.2-.18-.5-.27-.9-.27-.37,0-.65.07-.82.2-.18.13-.31.36-.39.69l-.77-.11c.07-.33.19-.6.35-.8.16-.2.39-.36.7-.47.3-.11.66-.17,1.06-.17s.72.05.97.14.43.21.55.35c.12.14.2.32.25.54.03.13.04.38.04.73v1.05c0,.74.02,1.2.05,1.4.03.2.1.38.2.56h-.83c-.08-.16-.13-.36-.16-.58ZM352.61,492.48c-.29.12-.72.22-1.29.3-.33.05-.56.1-.69.16s-.24.14-.31.26c-.07.11-.11.24-.11.38,0,.21.08.39.24.53.16.14.39.21.7.21s.58-.07.81-.2c.24-.13.41-.32.52-.55.08-.18.13-.44.13-.79v-.29Z"/><path d="M357.68,493.11l.78.1c-.08.54-.3.96-.65,1.26-.35.3-.78.46-1.29.46-.64,0-1.15-.21-1.54-.63-.39-.42-.58-1.02-.58-1.8,0-.5.08-.94.25-1.32.17-.38.42-.66.76-.85.34-.19.71-.28,1.11-.28.51,0,.92.13,1.24.38.32.26.53.62.62,1.09l-.77.12c-.07-.31-.2-.55-.39-.71-.19-.16-.41-.24-.67-.24-.4,0-.72.14-.97.43-.25.29-.37.74-.37,1.36s.12,1.08.36,1.37c.24.28.55.43.94.43.31,0,.57-.1.78-.29s.34-.48.4-.88Z"/><path d="M359.14,494.82v-6.44h.79v3.67l1.87-1.9h1.02l-1.79,1.73,1.96,2.94h-.98l-1.54-2.39-.56.54v1.85h-.79Z"/><path d="M363.49,495.21l.77.11c.03.24.12.41.27.52.2.15.46.22.8.22.37,0,.65-.07.85-.22s.33-.35.4-.62c.04-.16.06-.5.06-1.02-.35.41-.78.61-1.29.61-.64,0-1.14-.23-1.49-.69s-.53-1.02-.53-1.67c0-.45.08-.86.24-1.23.16-.38.4-.67.7-.87.31-.21.67-.31,1.08-.31.55,0,1,.22,1.36.67v-.56h.73v4.03c0,.73-.07,1.24-.22,1.54-.15.3-.38.54-.7.72-.32.18-.72.26-1.18.26-.56,0-1.01-.13-1.35-.38-.34-.25-.51-.63-.5-1.13ZM364.14,492.41c0,.61.12,1.06.36,1.34s.55.42.91.42.67-.14.91-.42.37-.72.37-1.32-.13-1-.38-1.29c-.25-.29-.56-.44-.92-.44s-.65.14-.9.43c-.25.29-.37.71-.37,1.27Z"/><path d="M368.63,494.82v-4.67h.71v.71c.18-.33.35-.55.5-.65.15-.11.32-.16.51-.16.27,0,.54.08.81.25l-.27.73c-.19-.11-.39-.17-.58-.17-.17,0-.33.05-.47.16s-.24.25-.29.43c-.09.28-.13.59-.13.92v2.44h-.79Z"/><path d="M371.34,492.49c0-.86.24-1.5.72-1.92.4-.35.89-.52,1.47-.52.64,0,1.17.21,1.57.63s.61,1,.61,1.74c0,.6-.09,1.07-.27,1.42-.18.34-.44.61-.79.8-.34.19-.72.29-1.13.29-.65,0-1.18-.21-1.58-.63-.4-.42-.6-1.02-.6-1.81ZM372.15,492.49c0,.6.13,1.05.39,1.34.26.3.59.45.98.45s.72-.15.98-.45.39-.75.39-1.37c0-.58-.13-1.01-.39-1.31-.26-.3-.59-.45-.98-.45s-.72.15-.98.44-.39.74-.39,1.34Z"/><path d="M379.7,494.82v-.69c-.36.53-.86.79-1.48.79-.28,0-.53-.05-.77-.16-.24-.11-.42-.24-.53-.4-.12-.16-.2-.36-.24-.59-.03-.16-.05-.4-.05-.74v-2.89h.79v2.59c0,.41.02.69.05.83.05.21.16.37.32.49.16.12.36.18.6.18s.46-.06.67-.18.36-.29.44-.5c.09-.21.13-.51.13-.91v-2.5h.79v4.67h-.71Z"/><path d="M381.65,494.82v-4.67h.71v.66c.34-.51.84-.77,1.49-.77.28,0,.54.05.78.15.24.1.41.23.53.4s.2.36.25.58c.03.15.04.4.04.77v2.87h-.79v-2.84c0-.32-.03-.56-.09-.72-.06-.16-.17-.29-.33-.38-.16-.09-.34-.14-.55-.14-.34,0-.63.11-.87.32-.24.21-.37.62-.37,1.22v2.55h-.79Z"/><path d="M389.68,494.82v-.59c-.3.46-.73.69-1.3.69-.37,0-.71-.1-1.03-.31-.31-.21-.55-.49-.73-.86-.17-.37-.26-.79-.26-1.27s.08-.89.23-1.27c.15-.38.39-.67.7-.87s.66-.3,1.04-.3c.28,0,.53.06.75.18.22.12.4.27.54.46v-2.31h.79v6.44h-.73ZM387.18,492.49c0,.6.12,1.04.38,1.34s.55.44.89.44.64-.14.88-.42c.24-.28.36-.71.36-1.29,0-.64-.12-1.11-.37-1.41s-.55-.45-.91-.45-.65.14-.88.43c-.24.29-.35.74-.35,1.36Z"/><path d="M391.88,494.82v-.9h.9v.9h-.9Z"/><line x1="90.1" y1="518.35" x2="407.1" y2="518.35" style="fill:#f6f6f4; stroke:#d0d0d0; stroke-miterlimit:10;"/><path d="M90.77,532.95h2.91c.66,0,1.15.05,1.5.15.46.14.86.38,1.19.73s.58.77.75,1.28c.17.5.26,1.12.26,1.86,0,.65-.08,1.21-.24,1.68-.2.57-.48,1.04-.84,1.39-.28.27-.65.48-1.12.63-.35.11-.82.17-1.41.17h-2.99v-7.87ZM92.36,534.28v5.22h1.19c.44,0,.76-.02.96-.08.26-.06.47-.17.64-.33.17-.15.31-.41.42-.76.11-.35.16-.83.16-1.44s-.05-1.08-.16-1.4-.26-.58-.45-.76-.44-.31-.74-.37c-.22-.05-.66-.08-1.31-.08h-.71Z"/><path d="M100.15,540.82h-1.51v-5.7h1.4v.81c.24-.38.46-.64.65-.76.19-.12.41-.18.65-.18.34,0,.67.09.99.28l-.47,1.32c-.25-.16-.49-.25-.71-.25s-.39.06-.54.17c-.15.12-.26.33-.35.63-.08.3-.13.94-.13,1.91v1.76Z"/><path d="M104.12,536.86l-1.37-.25c.15-.55.42-.96.79-1.22s.93-.4,1.68-.4c.67,0,1.17.08,1.5.24.33.16.56.36.7.61.13.25.2.7.2,1.35l-.02,1.76c0,.5.02.87.07,1.11.05.24.14.49.27.77h-1.49c-.04-.1-.09-.25-.15-.45-.02-.09-.04-.15-.05-.18-.26.25-.53.44-.83.56s-.61.19-.94.19c-.59,0-1.05-.16-1.39-.48-.34-.32-.51-.72-.51-1.21,0-.32.08-.61.23-.86.15-.25.37-.45.65-.58.28-.13.68-.25,1.2-.35.71-.13,1.19-.26,1.47-.37v-.15c0-.29-.07-.5-.21-.62-.14-.12-.41-.19-.81-.19-.27,0-.48.05-.63.16-.15.11-.27.29-.37.56ZM106.14,538.08c-.19.06-.5.14-.92.23s-.69.18-.82.26c-.2.14-.3.32-.3.53s.08.39.24.55.36.23.6.23c.27,0,.53-.09.78-.27.18-.14.3-.3.36-.5.04-.13.06-.37.06-.74v-.3Z"/><path d="M110.17,540.82l-1.8-5.7h1.47l1.07,3.74.98-3.74h1.46l.95,3.74,1.09-3.74h1.49l-1.83,5.7h-1.45l-.98-3.67-.97,3.67h-1.47Z"/><path d="M121.85,536.86l-1.37-.25c.15-.55.42-.96.79-1.22s.93-.4,1.68-.4c.67,0,1.17.08,1.5.24.33.16.56.36.7.61.13.25.2.7.2,1.35l-.02,1.76c0,.5.02.87.07,1.11.05.24.14.49.27.77h-1.49c-.04-.1-.09-.25-.15-.45-.02-.09-.04-.15-.05-.18-.26.25-.53.44-.83.56s-.61.19-.94.19c-.59,0-1.05-.16-1.39-.48-.34-.32-.51-.72-.51-1.21,0-.32.08-.61.23-.86.15-.25.37-.45.65-.58.28-.13.68-.25,1.2-.35.71-.13,1.19-.26,1.47-.37v-.15c0-.29-.07-.5-.21-.62-.14-.12-.41-.19-.81-.19-.27,0-.48.05-.63.16-.15.11-.27.29-.37.56ZM123.87,538.08c-.19.06-.5.14-.92.23s-.69.18-.82.26c-.2.14-.3.32-.3.53s.08.39.24.55.36.23.6.23c.27,0,.53-.09.78-.27.18-.14.3-.3.36-.5.04-.13.06-.37.06-.74v-.3Z"/><path d="M129.45,535.12v1.2h-1.03v2.3c0,.47,0,.74.03.81.02.08.06.14.13.19.07.05.15.08.25.08.14,0,.34-.05.61-.15l.13,1.17c-.35.15-.75.23-1.19.23-.27,0-.52-.05-.74-.14-.22-.09-.38-.21-.48-.35-.1-.15-.17-.34-.21-.59-.03-.18-.05-.53-.05-1.06v-2.49h-.69v-1.2h.69v-1.13l1.51-.88v2.01h1.03Z"/><path d="M133.12,535.12v1.2h-1.03v2.3c0,.47,0,.74.03.81.02.08.06.14.13.19.07.05.15.08.25.08.14,0,.34-.05.61-.15l.13,1.17c-.35.15-.75.23-1.19.23-.27,0-.52-.05-.74-.14-.22-.09-.38-.21-.48-.35-.1-.15-.17-.34-.21-.59-.03-.18-.05-.53-.05-1.06v-2.49h-.69v-1.2h.69v-1.13l1.51-.88v2.01h1.03Z"/><path d="M137.47,539.01l1.5.25c-.19.55-.5.97-.92,1.26-.42.29-.94.43-1.57.43-.99,0-1.73-.32-2.2-.97-.38-.52-.56-1.17-.56-1.97,0-.95.25-1.69.74-2.22.49-.54,1.12-.8,1.87-.8.85,0,1.52.28,2.01.84.49.56.73,1.42.7,2.58h-3.78c.01.45.13.8.37,1.04.23.25.52.37.87.37.24,0,.44-.06.6-.19s.28-.34.37-.62ZM137.55,537.48c-.01-.44-.12-.77-.34-1-.21-.23-.48-.34-.78-.34-.33,0-.6.12-.82.36s-.32.57-.32.98h2.26Z"/><path d="M145.47,540.82h-1.51v-2.91c0-.62-.03-1.01-.1-1.2-.06-.18-.17-.32-.31-.42-.14-.1-.32-.15-.52-.15-.26,0-.5.07-.7.21s-.35.33-.43.57c-.08.24-.12.67-.12,1.31v2.58h-1.51v-5.7h1.4v.84c.5-.64,1.12-.97,1.88-.97.33,0,.64.06.91.18.28.12.48.27.63.46.14.19.24.4.29.63.06.24.08.57.08,1.02v3.54Z"/><path d="M149.62,535.12v1.2h-1.03v2.3c0,.47,0,.74.03.81.02.08.06.14.13.19.07.05.15.08.25.08.14,0,.34-.05.61-.15l.13,1.17c-.35.15-.75.23-1.19.23-.27,0-.52-.05-.74-.14-.22-.09-.38-.21-.48-.35-.1-.15-.17-.34-.21-.59-.03-.18-.05-.53-.05-1.06v-2.49h-.69v-1.2h.69v-1.13l1.51-.88v2.01h1.03Z"/><path d="M150.66,534.34v-1.4h1.51v1.4h-1.51ZM150.66,540.82v-5.7h1.51v5.7h-1.51Z"/><path d="M153.37,537.89c0-.5.12-.99.37-1.46s.6-.83,1.05-1.07c.45-.25.96-.37,1.52-.37.86,0,1.57.28,2.12.84.55.56.83,1.27.83,2.12s-.28,1.58-.83,2.15c-.56.57-1.26.85-2.1.85-.52,0-1.02-.12-1.5-.35-.47-.24-.84-.58-1.08-1.04-.25-.46-.37-1.01-.37-1.67ZM154.92,537.97c0,.57.13,1,.4,1.3s.6.45.99.45.72-.15.99-.45c.27-.3.4-.74.4-1.31s-.13-.99-.4-1.29c-.27-.3-.6-.45-.99-.45s-.73.15-.99.45-.4.73-.4,1.3Z"/><path d="M165.63,540.82h-1.51v-2.91c0-.62-.03-1.01-.1-1.2-.06-.18-.17-.32-.31-.42-.14-.1-.32-.15-.52-.15-.26,0-.5.07-.7.21s-.35.33-.43.57c-.08.24-.12.67-.12,1.31v2.58h-1.51v-5.7h1.4v.84c.5-.64,1.12-.97,1.88-.97.33,0,.64.06.91.18.28.12.48.27.63.46.14.19.24.4.29.63.06.24.08.57.08,1.02v3.54Z"/><path d="M171.28,540.82l-1.8-5.7h1.47l1.07,3.74.98-3.74h1.46l.95,3.74,1.09-3.74h1.49l-1.83,5.7h-1.45l-.98-3.67-.97,3.67h-1.47Z"/><path d="M178.77,534.34v-1.4h1.51v1.4h-1.51ZM178.77,540.82v-5.7h1.51v5.7h-1.51Z"/><path d="M184.44,535.12v1.2h-1.03v2.3c0,.47,0,.74.03.81.02.08.06.14.13.19.07.05.15.08.25.08.14,0,.34-.05.61-.15l.13,1.17c-.35.15-.75.23-1.19.23-.27,0-.52-.05-.74-.14-.22-.09-.38-.21-.48-.35-.1-.15-.17-.34-.21-.59-.03-.18-.05-.53-.05-1.06v-2.49h-.69v-1.2h.69v-1.13l1.51-.88v2.01h1.03Z"/><path d="M186.99,532.95v2.9c.49-.57,1.07-.85,1.75-.85.35,0,.66.06.94.19s.49.29.63.49c.14.2.24.42.29.67.05.24.08.62.08,1.13v3.35h-1.51v-3.01c0-.6-.03-.98-.09-1.14s-.16-.29-.3-.38c-.14-.09-.33-.14-.54-.14-.25,0-.47.06-.67.18s-.34.31-.43.55c-.09.25-.14.61-.14,1.09v2.86h-1.51v-7.87h1.51Z"/><path d="M196.39,536.86l-1.37-.25c.15-.55.42-.96.79-1.22s.93-.4,1.68-.4c.67,0,1.17.08,1.5.24.33.16.56.36.7.61.13.25.2.7.2,1.35l-.02,1.76c0,.5.02.87.07,1.11.05.24.14.49.27.77h-1.49c-.04-.1-.09-.25-.15-.45-.02-.09-.04-.15-.05-.18-.26.25-.53.44-.83.56s-.61.19-.94.19c-.59,0-1.05-.16-1.39-.48-.34-.32-.51-.72-.51-1.21,0-.32.08-.61.23-.86.15-.25.37-.45.65-.58.28-.13.68-.25,1.2-.35.71-.13,1.19-.26,1.47-.37v-.15c0-.29-.07-.5-.21-.62-.14-.12-.41-.19-.81-.19-.27,0-.48.05-.63.16-.15.11-.27.29-.37.56ZM198.41,538.08c-.19.06-.5.14-.92.23s-.69.18-.82.26c-.2.14-.3.32-.3.53s.08.39.24.55.36.23.6.23c.27,0,.53-.09.78-.27.18-.14.3-.3.36-.5.04-.13.06-.37.06-.74v-.3Z"/><path d="M205.94,532.95v2.9c.49-.57,1.07-.85,1.75-.85.35,0,.66.06.94.19s.49.29.63.49c.14.2.24.42.29.67.05.24.08.62.08,1.13v3.35h-1.51v-3.01c0-.6-.03-.98-.09-1.14s-.16-.29-.3-.38c-.14-.09-.33-.14-.54-.14-.25,0-.47.06-.67.18s-.34.31-.43.55c-.09.25-.14.61-.14,1.09v2.86h-1.51v-7.87h1.51Z"/><path d="M214.46,539.01l1.5.25c-.19.55-.5.97-.92,1.26-.42.29-.94.43-1.57.43-.99,0-1.73-.32-2.2-.97-.38-.52-.56-1.17-.56-1.97,0-.95.25-1.69.74-2.22.49-.54,1.12-.8,1.87-.8.85,0,1.52.28,2.01.84.49.56.73,1.42.7,2.58h-3.78c.01.45.13.8.37,1.04.23.25.52.37.87.37.24,0,.44-.06.6-.19s.28-.34.37-.62ZM214.55,537.48c-.01-.44-.12-.77-.34-1-.21-.23-.48-.34-.78-.34-.33,0-.6.12-.82.36s-.32.57-.32.98h2.26Z"/><path d="M218.4,536.86l-1.37-.25c.15-.55.42-.96.79-1.22s.93-.4,1.68-.4c.67,0,1.17.08,1.5.24.33.16.56.36.7.61.13.25.2.7.2,1.35l-.02,1.76c0,.5.02.87.07,1.11.05.24.14.49.27.77h-1.49c-.04-.1-.09-.25-.15-.45-.02-.09-.04-.15-.05-.18-.26.25-.53.44-.83.56s-.61.19-.94.19c-.59,0-1.05-.16-1.39-.48-.34-.32-.51-.72-.51-1.21,0-.32.08-.61.23-.86.15-.25.37-.45.65-.58.28-.13.68-.25,1.2-.35.71-.13,1.19-.26,1.47-.37v-.15c0-.29-.07-.5-.21-.62-.14-.12-.41-.19-.81-.19-.27,0-.48.05-.63.16-.15.11-.27.29-.37.56ZM220.42,538.08c-.19.06-.5.14-.92.23s-.69.18-.82.26c-.2.14-.3.32-.3.53s.08.39.24.55.36.23.6.23c.27,0,.53-.09.78-.27.18-.14.3-.3.36-.5.04-.13.06-.37.06-.74v-.3Z"/><path d="M228.62,540.82h-1.4v-.84c-.23.33-.51.57-.82.73-.32.16-.64.24-.96.24-.66,0-1.22-.26-1.68-.79-.47-.53-.7-1.27-.7-2.21s.23-1.7.68-2.2c.45-.5,1.03-.75,1.72-.75.64,0,1.19.27,1.65.79v-2.84h1.51v7.87ZM224.6,537.85c0,.61.08,1.05.25,1.32.24.39.58.59,1.02.59.35,0,.64-.15.89-.44.24-.29.37-.74.37-1.32,0-.66-.12-1.13-.35-1.42-.24-.29-.54-.43-.91-.43s-.66.14-.9.43c-.24.28-.36.71-.36,1.28Z"/><path d="M230.11,534.34v-1.4h1.51v1.4h-1.51ZM230.11,540.82v-5.7h1.51v5.7h-1.51Z"/><path d="M238.36,540.82h-1.51v-2.91c0-.62-.03-1.01-.1-1.2-.06-.18-.17-.32-.31-.42-.14-.1-.32-.15-.52-.15-.26,0-.5.07-.7.21s-.35.33-.43.57c-.08.24-.12.67-.12,1.31v2.58h-1.51v-5.7h1.4v.84c.5-.64,1.12-.97,1.88-.97.33,0,.64.06.91.18.28.12.48.27.63.46.14.19.24.4.29.63.06.24.08.57.08,1.02v3.54Z"/><path d="M239.75,541.2l1.72.21c.03.2.09.34.2.41.14.11.37.16.68.16.39,0,.69-.06.89-.18.13-.08.23-.21.3-.38.05-.13.07-.36.07-.69v-.83c-.45.62-1.02.92-1.71.92-.77,0-1.37-.32-1.82-.97-.35-.51-.53-1.15-.53-1.91,0-.96.23-1.69.69-2.19.46-.5,1.03-.76,1.72-.76s1.29.31,1.75.93v-.8h1.41v5.12c0,.67-.06,1.18-.17,1.51s-.27.59-.47.78-.47.34-.8.45c-.33.11-.76.16-1.27.16-.97,0-1.65-.17-2.06-.5-.4-.33-.61-.75-.61-1.26,0-.05,0-.11,0-.18ZM241.1,537.85c0,.6.12,1.05.35,1.33.23.28.52.42.87.42.37,0,.68-.14.93-.43.25-.29.38-.72.38-1.28s-.12-1.03-.37-1.32-.55-.43-.92-.43-.66.14-.89.42c-.23.28-.35.71-.35,1.29Z"/></g></svg>