<?xml version="1.0" encoding="UTF-8"?><svg id="Layer_2" xmlns="http://www.w3.org/2000/svg" viewBox="0 0 496 558"><g id="Layer_1-2"><rect width="496" height="558" style="fill:#f4f4f4;"/><rect x="66.21" width="363.58" height="558" style="fill:#fff;"/><path d="M188.53,34.89l-2.5-6.44h.92l1.67,4.68c.13.38.25.73.34,1.05.1-.35.22-.7.35-1.05l1.74-4.68h.87l-2.52,6.44h-.87Z"/><path d="M192.43,29.36v-.91h.79v.91h-.79ZM192.43,34.89v-4.67h.79v4.67h-.79Z"/><path d="M197.62,33.39l.82.1c-.13.48-.37.85-.72,1.11s-.79.4-1.34.4c-.68,0-1.22-.21-1.62-.63-.4-.42-.6-1.01-.6-1.77s.2-1.39.61-1.83.93-.65,1.57-.65,1.13.21,1.53.64.59,1.02.59,1.79c0,.05,0,.12,0,.21h-3.48c.03.51.17.91.44,1.18s.59.41.98.41c.29,0,.54-.08.74-.23s.37-.4.49-.73ZM195.03,32.11h2.61c-.04-.39-.13-.69-.3-.88-.25-.3-.58-.46-.98-.46-.36,0-.67.12-.92.36s-.38.57-.41.98Z"/><path d="M200.3,34.89l-1.43-4.67h.82l.74,2.69.28,1s.09-.37.24-.96l.74-2.73h.81l.7,2.71.23.89.27-.9.8-2.7h.77l-1.46,4.67h-.82l-.74-2.79-.18-.8-.94,3.59h-.83Z"/><path d="M210.16,34.18l.11.7c-.22.05-.42.07-.6.07-.29,0-.51-.05-.67-.14s-.27-.21-.33-.36-.1-.46-.1-.93v-2.69h-.58v-.62h.58v-1.16l.79-.47v1.63h.8v.62h-.8v2.73c0,.23.01.37.04.44s.07.12.14.15c.06.04.15.06.27.06.09,0,.2-.01.35-.03Z"/><path d="M210.93,34.89v-6.44h.79v2.31c.37-.43.83-.64,1.4-.64.35,0,.65.07.9.2.25.14.44.32.55.56.11.24.17.59.17,1.05v2.96h-.79v-2.96c0-.4-.09-.68-.26-.86-.17-.18-.41-.27-.73-.27-.23,0-.46.06-.66.18-.21.12-.35.29-.44.49s-.13.5-.13.86v2.55h-.79Z"/><path d="M215.94,29.36v-.91h.79v.91h-.79ZM215.94,34.89v-4.67h.79v4.67h-.79Z"/><path d="M217.62,33.5l.78-.12c.04.31.17.55.37.72s.48.25.84.25.63-.07.81-.22.26-.32.26-.52c0-.18-.08-.32-.23-.42-.11-.07-.38-.16-.81-.27-.58-.15-.98-.27-1.21-.38-.22-.11-.39-.25-.51-.44-.12-.19-.17-.4-.17-.63,0-.21.05-.4.14-.58.09-.18.22-.32.39-.44.12-.09.29-.17.5-.23s.44-.09.68-.09c.37,0,.69.05.96.16.28.11.48.25.61.43.13.18.22.42.27.72l-.77.11c-.04-.24-.14-.43-.31-.56-.17-.13-.41-.2-.71-.2-.36,0-.62.06-.78.18s-.23.26-.23.42c0,.1.03.19.1.28.06.08.17.16.3.21.08.03.31.1.7.2.56.15.95.27,1.17.37.22.1.39.23.52.42s.19.41.19.68-.08.51-.23.75c-.15.23-.38.41-.67.54-.29.13-.62.19-.98.19-.61,0-1.07-.13-1.39-.38-.32-.25-.52-.63-.61-1.12Z"/><path d="M228.14,33.39l.82.1c-.13.48-.37.85-.72,1.11s-.79.4-1.34.4c-.68,0-1.22-.21-1.62-.63-.4-.42-.6-1.01-.6-1.77s.2-1.39.61-1.83.93-.65,1.57-.65,1.13.21,1.53.64.59,1.02.59,1.79c0,.05,0,.12,0,.21h-3.48c.03.51.17.91.44,1.18s.59.41.98.41c.29,0,.54-.08.74-.23s.37-.4.49-.73ZM225.54,32.11h2.61c-.04-.39-.13-.69-.3-.88-.25-.3-.58-.46-.98-.46-.36,0-.67.12-.92.36s-.38.57-.41.98Z"/><path d="M229.95,34.89v-4.67h.71v.65c.15-.23.34-.41.58-.55s.52-.21.83-.21c.35,0,.63.07.85.22.22.14.38.34.47.6.37-.54.85-.82,1.44-.82.46,0,.82.13,1.07.38s.37.65.37,1.18v3.2h-.79v-2.94c0-.32-.03-.54-.08-.68-.05-.14-.14-.25-.28-.34s-.29-.13-.47-.13c-.33,0-.6.11-.82.33-.22.22-.33.57-.33,1.05v2.71h-.79v-3.03c0-.35-.06-.62-.19-.79s-.34-.26-.63-.26c-.22,0-.43.06-.62.18-.19.12-.33.29-.41.51s-.13.55-.13.98v2.42h-.79Z"/><path d="M240.49,34.32c-.29.25-.58.42-.85.53-.27.1-.56.15-.87.15-.51,0-.91-.12-1.18-.38-.28-.25-.41-.57-.41-.96,0-.23.05-.44.16-.63.1-.19.24-.34.41-.46s.36-.2.57-.26c.16-.04.39-.08.7-.12.64-.08,1.11-.17,1.41-.27,0-.11,0-.18,0-.21,0-.32-.07-.55-.22-.68-.2-.18-.5-.27-.9-.27-.37,0-.65.07-.82.2s-.31.36-.39.69l-.77-.11c.07-.33.19-.6.35-.8.16-.2.39-.36.7-.47.3-.11.66-.17,1.06-.17s.72.05.97.14.43.21.55.35c.12.14.2.32.25.54.03.13.04.38.04.73v1.05c0,.74.02,1.2.05,1.4.03.2.1.38.2.56h-.83c-.08-.16-.13-.36-.16-.58ZM240.42,32.55c-.29.12-.72.22-1.29.3-.33.05-.56.1-.69.16s-.24.14-.31.26-.11.24-.11.38c0,.21.08.39.24.53s.39.21.7.21.58-.07.81-.2.41-.32.52-.55c.08-.18.13-.44.13-.79v-.29Z"/><path d="M242.45,29.36v-.91h.79v.91h-.79ZM242.45,34.89v-4.67h.79v4.67h-.79Z"/><path d="M244.43,34.89v-6.44h.79v6.44h-.79Z"/><path d="M248.95,29.36v-.91h.79v.91h-.79ZM248.95,34.89v-4.67h.79v4.67h-.79Z"/><path d="M250.95,34.89v-4.67h.71v.66c.34-.51.84-.77,1.49-.77.28,0,.54.05.78.15.24.1.41.23.53.4s.2.36.25.58c.03.15.04.4.04.77v2.87h-.79v-2.84c0-.32-.03-.56-.09-.72s-.17-.29-.33-.38c-.16-.09-.34-.14-.55-.14-.34,0-.63.11-.87.32-.25.21-.37.62-.37,1.22v2.55h-.79Z"/><path d="M258.42,36.69l-.09-.74c.17.05.32.07.45.07.18,0,.32-.03.42-.09s.19-.14.26-.25c.05-.08.13-.28.24-.59.01-.04.04-.11.07-.19l-1.77-4.68h.85l.97,2.7c.13.34.24.7.34,1.08.09-.36.2-.72.33-1.06l1-2.72h.79l-1.78,4.75c-.19.51-.34.87-.44,1.06-.14.26-.3.45-.48.57-.18.12-.4.18-.65.18-.15,0-.32-.03-.51-.1Z"/><path d="M262.66,32.56c0-.86.24-1.5.72-1.92.4-.35.89-.52,1.47-.52.64,0,1.17.21,1.57.63s.61,1,.61,1.74c0,.6-.09,1.07-.27,1.42-.18.34-.44.61-.79.8-.34.19-.72.29-1.13.29-.65,0-1.18-.21-1.58-.63-.4-.42-.6-1.02-.6-1.81ZM263.47,32.56c0,.6.13,1.05.39,1.34.26.3.59.45.98.45s.72-.15.98-.45.39-.75.39-1.37c0-.58-.13-1.01-.39-1.31-.26-.3-.59-.45-.98-.45s-.72.15-.98.44-.39.74-.39,1.34Z"/><path d="M271.02,34.89v-.69c-.36.53-.86.79-1.48.79-.28,0-.53-.05-.77-.16-.24-.11-.42-.24-.53-.4-.12-.16-.2-.36-.24-.59-.03-.16-.05-.4-.05-.74v-2.89h.79v2.59c0,.41.02.69.05.83.05.21.16.37.32.49.16.12.36.18.6.18s.46-.06.67-.18.36-.29.44-.5c.09-.21.13-.51.13-.91v-2.5h.79v4.67h-.71Z"/><path d="M272.95,34.89v-4.67h.71v.71c.18-.33.35-.55.5-.65.15-.11.32-.16.51-.16.27,0,.54.08.81.25l-.27.73c-.19-.11-.39-.17-.58-.17-.17,0-.33.05-.47.16s-.24.25-.29.43c-.09.28-.13.59-.13.92v2.44h-.79Z"/><path d="M279.19,34.89h-.73v-6.44h.79v2.3c.33-.42.76-.63,1.28-.63.29,0,.56.06.82.17.26.12.47.28.63.49.17.21.29.46.39.76.09.3.14.61.14.95,0,.8-.2,1.42-.59,1.85s-.87.65-1.42.65-.98-.23-1.3-.69v.58ZM279.18,32.52c0,.56.08.96.23,1.21.25.41.58.61,1.01.61.35,0,.64-.15.9-.45s.38-.75.38-1.34-.12-1.06-.36-1.35c-.24-.29-.53-.44-.88-.44s-.64.15-.9.45c-.25.3-.38.73-.38,1.3Z"/><path d="M283.46,34.89v-4.67h.71v.71c.18-.33.35-.55.5-.65.15-.11.32-.16.51-.16.27,0,.54.08.81.25l-.27.73c-.19-.11-.39-.17-.58-.17-.17,0-.33.05-.47.16s-.24.25-.29.43c-.09.28-.13.59-.13.92v2.44h-.79Z"/><path d="M286.17,32.56c0-.86.24-1.5.72-1.92.4-.35.89-.52,1.47-.52.64,0,1.17.21,1.57.63s.61,1,.61,1.74c0,.6-.09,1.07-.27,1.42-.18.34-.44.61-.79.8-.34.19-.72.29-1.13.29-.65,0-1.18-.21-1.58-.63-.4-.42-.6-1.02-.6-1.81ZM286.98,32.56c0,.6.13,1.05.39,1.34.26.3.59.45.98.45s.72-.15.98-.45.39-.75.39-1.37c0-.58-.13-1.01-.39-1.31-.26-.3-.59-.45-.98-.45s-.72.15-.98.44-.39.74-.39,1.34Z"/><path d="M292.33,34.89l-1.43-4.67h.82l.74,2.69.28,1s.09-.37.24-.96l.74-2.73h.81l.7,2.71.23.89.27-.9.8-2.7h.77l-1.46,4.67h-.82l-.74-2.79-.18-.8-.94,3.59h-.83Z"/><path d="M297.65,33.5l.78-.12c.04.31.17.55.37.72.2.17.48.25.84.25s.63-.07.81-.22.26-.32.26-.52c0-.18-.08-.32-.23-.42-.11-.07-.38-.16-.81-.27-.58-.15-.98-.27-1.21-.38-.22-.11-.39-.25-.51-.44-.12-.19-.17-.4-.17-.63,0-.21.05-.4.14-.58.09-.18.22-.32.39-.44.12-.09.29-.17.5-.23.21-.06.44-.09.68-.09.37,0,.69.05.96.16.28.11.48.25.61.43.13.18.22.42.27.72l-.77.11c-.04-.24-.14-.43-.3-.56-.17-.13-.41-.2-.71-.2-.36,0-.62.06-.78.18s-.23.26-.23.42c0,.1.03.19.1.28.06.08.17.16.3.21.08.03.31.1.7.2.56.15.95.27,1.17.37.22.1.39.23.52.42s.19.41.19.68-.08.51-.23.75c-.15.23-.38.41-.67.54-.29.13-.62.19-.98.19-.61,0-1.07-.13-1.39-.38-.32-.25-.52-.63-.61-1.12Z"/><path d="M305.66,33.39l.82.1c-.13.48-.37.85-.72,1.11s-.79.4-1.34.4c-.68,0-1.22-.21-1.62-.63-.4-.42-.6-1.01-.6-1.77s.2-1.39.61-1.83.93-.65,1.57-.65,1.13.21,1.53.64c.39.42.59,1.02.59,1.79,0,.05,0,.12,0,.21h-3.48c.03.51.17.91.44,1.18s.59.41.98.41c.29,0,.54-.08.74-.23.2-.15.37-.4.49-.73ZM303.07,32.11h2.61c-.04-.39-.13-.69-.3-.88-.25-.3-.58-.46-.98-.46-.36,0-.67.12-.92.36-.25.24-.38.57-.41.98Z"/><path d="M307.47,34.89v-4.67h.71v.71c.18-.33.35-.55.5-.65.15-.11.32-.16.51-.16.27,0,.54.08.81.25l-.27.73c-.19-.11-.39-.17-.58-.17-.17,0-.33.05-.47.16s-.24.25-.29.43c-.09.28-.13.59-.13.92v2.44h-.79Z"/><path d="M186,36.17v-.66h123.88v.66h-123.88Z"/><path d="M260.09,58.35h-24.18c-1.82,0-3.49.97-4.4,2.54l-12.09,20.94c-.91,1.57-.91,3.51,0,5.08l12.09,20.94c.91,1.57,2.59,2.54,4.4,2.54h24.18c1.82,0,3.49-.97,4.4-2.54l12.09-20.94c.91-1.57.91-3.51,0-5.08l-12.09-20.94c-.91-1.57-2.59-2.54-4.4-2.54Z" style="fill:none; stroke:#211b13; stroke-miterlimit:10; stroke-width:3.11px;"/><path d="M241.71,95.72c-2.01-1.11-3.58-2.63-4.73-4.57-1.14-1.94-1.71-4.12-1.71-6.54s.57-4.61,1.71-6.54c1.14-1.94,2.72-3.46,4.74-4.56,2.02-1.11,4.28-1.66,6.78-1.66,1.95,0,3.73.33,5.35.98,1.62.65,3,1.62,4.14,2.91l-2.32,2.25c-1.88-1.97-4.22-2.96-7.03-2.96-1.85,0-3.53.42-5.03,1.25-1.5.83-2.67,1.98-3.51,3.44-.84,1.46-1.27,3.1-1.27,4.9s.42,3.44,1.27,4.9c.84,1.46,2.02,2.61,3.51,3.44,1.5.83,3.17,1.25,5.03,1.25,2.78,0,5.12-1,7.03-3l2.32,2.25c-1.14,1.28-2.53,2.26-4.16,2.92-1.63.67-3.42,1-5.37,1-2.5,0-4.75-.55-6.76-1.66Z" style="fill:#211b13;"/><path d="M132,151.64v-12.2h2.46v12.2h-2.46Z"/><path d="M140.85,142.8v1.86h-1.6v3.56c0,.72.02,1.14.05,1.26.03.12.1.22.21.3s.24.12.4.12c.22,0,.53-.08.94-.23l.2,1.81c-.54.23-1.16.35-1.85.35-.42,0-.8-.07-1.14-.21-.34-.14-.59-.32-.75-.55s-.27-.53-.33-.91c-.05-.27-.07-.82-.07-1.65v-3.85h-1.07v-1.86h1.07v-1.76l2.35-1.37v3.12h1.6Z"/><path d="M142.42,139.47h2.34v1.67c0,.68-.06,1.21-.17,1.6-.12.39-.34.74-.66,1.05-.32.31-.74.56-1.24.73l-.46-.97c.47-.16.81-.37,1.01-.64s.31-.64.32-1.12h-1.13v-2.34Z"/><path d="M145.76,149.12l2.35-.36c.1.46.3.8.61,1.04.31.24.73.35,1.28.35.6,0,1.06-.11,1.37-.33.21-.16.31-.36.31-.62,0-.18-.06-.32-.17-.44-.12-.11-.38-.21-.78-.31-1.89-.42-3.08-.8-3.59-1.14-.7-.48-1.05-1.14-1.05-1.99,0-.77.3-1.41.91-1.93.6-.52,1.54-.78,2.81-.78s2.11.2,2.7.59c.59.39.99.98,1.22,1.75l-2.21.41c-.09-.34-.27-.61-.54-.79s-.64-.27-1.13-.27c-.62,0-1.06.09-1.32.26-.18.12-.27.28-.27.47,0,.17.08.31.23.42.21.16.94.37,2.19.66s2.12.63,2.61,1.04c.49.42.73,1,.73,1.74,0,.81-.34,1.51-1.02,2.09-.68.58-1.68.87-3.01.87-1.2,0-2.16-.24-2.86-.73s-1.16-1.15-1.38-1.99Z"/><path d="M164.85,142.8v1.86h-1.6v3.56c0,.72.02,1.14.05,1.26.03.12.1.22.21.3s.24.12.4.12c.22,0,.53-.08.94-.23l.2,1.81c-.54.23-1.16.35-1.85.35-.42,0-.8-.07-1.14-.21-.34-.14-.59-.32-.75-.55s-.27-.53-.33-.91c-.05-.27-.07-.82-.07-1.65v-3.85h-1.07v-1.86h1.07v-1.76l2.35-1.37v3.12h1.6Z"/><path d="M166.48,141.6v-2.16h2.34v2.16h-2.34ZM166.48,151.64v-8.84h2.34v8.84h-2.34Z"/><path d="M171.04,142.8h2.16v1.21c.77-.94,1.69-1.41,2.76-1.41.57,0,1.06.12,1.47.35.42.23.76.59,1.02,1.06.39-.47.81-.82,1.26-1.06s.93-.35,1.44-.35c.65,0,1.2.13,1.65.4.45.26.79.65,1.01,1.16.16.38.24.99.24,1.83v5.65h-2.34v-5.05c0-.88-.08-1.44-.24-1.7-.22-.33-.55-.5-1-.5-.33,0-.64.1-.92.3-.29.2-.5.49-.62.88-.13.39-.19,1-.19,1.83v4.25h-2.34v-4.85c0-.86-.04-1.42-.12-1.67-.08-.25-.21-.44-.39-.56s-.41-.18-.71-.18c-.36,0-.69.1-.97.29-.29.19-.5.47-.62.84-.12.37-.19.97-.19,1.82v4.3h-2.34v-8.84Z"/><path d="M191.49,148.83l2.33.39c-.3.85-.77,1.51-1.42,1.95s-1.46.67-2.43.67c-1.54,0-2.68-.5-3.41-1.51-.58-.8-.87-1.82-.87-3.05,0-1.47.38-2.61,1.15-3.44.77-.83,1.73-1.24,2.91-1.24,1.32,0,2.35.43,3.11,1.3s1.12,2.2,1.09,3.99h-5.86c.02.69.21,1.23.57,1.62s.81.58,1.35.58c.37,0,.67-.1.92-.3.25-.2.44-.52.57-.97ZM191.63,146.46c-.02-.68-.19-1.19-.52-1.54-.33-.35-.74-.53-1.22-.53-.51,0-.93.19-1.27.56-.33.37-.5.88-.49,1.52h3.5Z"/><path d="M204.65,142.8v1.86h-1.6v3.56c0,.72.02,1.14.05,1.26.03.12.1.22.21.3s.24.12.4.12c.22,0,.53-.08.94-.23l.2,1.81c-.54.23-1.16.35-1.85.35-.42,0-.8-.07-1.14-.21-.34-.14-.59-.32-.75-.55s-.27-.53-.33-.91c-.05-.27-.07-.82-.07-1.65v-3.85h-1.07v-1.86h1.07v-1.76l2.35-1.37v3.12h1.6Z"/><path d="M205.73,147.09c0-.78.19-1.53.57-2.26.38-.73.93-1.28,1.63-1.67.7-.38,1.49-.57,2.35-.57,1.34,0,2.43.43,3.29,1.3.85.87,1.28,1.97,1.28,3.29s-.43,2.45-1.29,3.33c-.86.88-1.95,1.32-3.26,1.32-.81,0-1.58-.18-2.32-.55s-1.29-.9-1.68-1.61c-.38-.71-.57-1.57-.57-2.58ZM208.13,147.22c0,.88.21,1.55.62,2.01.42.47.93.7,1.54.7s1.12-.23,1.54-.7c.41-.47.62-1.14.62-2.03s-.21-1.53-.62-2c-.41-.47-.93-.7-1.54-.7s-1.12.23-1.54.7c-.42.47-.62,1.14-.62,2.01Z"/><path d="M229.53,151.64h-2.17v-1.3c-.36.51-.79.88-1.28,1.13-.49.25-.99.37-1.49.37-1.02,0-1.89-.41-2.61-1.23-.72-.82-1.09-1.96-1.09-3.43s.35-2.64,1.06-3.42c.7-.78,1.6-1.17,2.67-1.17.99,0,1.84.41,2.56,1.23v-4.4h2.34v12.2ZM223.29,147.03c0,.94.13,1.63.39,2.05.38.61.9.92,1.58.92.54,0,1-.23,1.37-.69.38-.46.57-1.14.57-2.05,0-1.02-.18-1.75-.55-2.19-.37-.45-.84-.67-1.41-.67s-1.02.22-1.39.66c-.37.44-.56,1.1-.56,1.98Z"/><path d="M236.96,148.83l2.33.39c-.3.85-.77,1.51-1.42,1.95s-1.46.67-2.43.67c-1.54,0-2.68-.5-3.41-1.51-.58-.8-.87-1.82-.87-3.05,0-1.47.38-2.61,1.15-3.44.77-.83,1.73-1.24,2.91-1.24,1.32,0,2.35.43,3.11,1.3s1.12,2.2,1.09,3.99h-5.86c.02.69.21,1.23.57,1.62s.81.58,1.35.58c.37,0,.67-.1.92-.3.25-.2.44-.52.57-.97ZM237.09,146.46c-.02-.68-.19-1.19-.52-1.54-.33-.35-.74-.53-1.22-.53-.51,0-.93.19-1.27.56-.33.37-.5.88-.49,1.52h3.5Z"/><path d="M240.49,149.12l2.35-.36c.1.46.3.8.61,1.04.3.24.73.35,1.28.35.6,0,1.06-.11,1.37-.33.21-.16.31-.36.31-.62,0-.18-.06-.32-.17-.44-.12-.11-.38-.21-.78-.31-1.89-.42-3.08-.8-3.59-1.14-.7-.48-1.05-1.14-1.05-1.99,0-.77.3-1.41.91-1.93.61-.52,1.54-.78,2.81-.78s2.11.2,2.7.59c.59.39.99.98,1.21,1.75l-2.21.41c-.09-.34-.27-.61-.54-.79s-.64-.27-1.13-.27c-.62,0-1.06.09-1.32.26-.18.12-.27.28-.27.47,0,.17.08.31.23.42.21.16.94.37,2.18.66s2.12.63,2.61,1.04c.49.42.73,1,.73,1.74,0,.81-.34,1.51-1.02,2.09-.68.58-1.68.87-3,.87-1.21,0-2.16-.24-2.86-.73s-1.16-1.15-1.38-1.99Z"/><path d="M250.8,141.6v-2.16h2.34v2.16h-2.34ZM250.8,151.64v-8.84h2.34v8.84h-2.34Z"/><path d="M255.32,152.22l2.67.32c.04.31.15.52.31.64.22.17.57.25,1.05.25.61,0,1.07-.09,1.37-.27.21-.12.36-.32.47-.59.07-.19.11-.55.11-1.07v-1.29c-.7.96-1.58,1.43-2.65,1.43-1.19,0-2.13-.5-2.82-1.51-.54-.79-.82-1.78-.82-2.96,0-1.48.36-2.61,1.07-3.4s1.6-1.17,2.66-1.17,2,.48,2.71,1.44v-1.24h2.19v7.93c0,1.04-.09,1.82-.26,2.34-.17.52-.41.92-.72,1.22-.31.29-.73.52-1.25.69-.52.17-1.17.25-1.97.25-1.5,0-2.56-.26-3.19-.77-.63-.51-.94-1.16-.94-1.95,0-.08,0-.17,0-.28ZM257.41,147.04c0,.94.18,1.62.54,2.06.36.44.81.65,1.34.65.57,0,1.05-.22,1.45-.67.39-.45.59-1.11.59-1.99s-.19-1.6-.57-2.04c-.38-.44-.85-.67-1.43-.67s-1.02.22-1.39.65c-.36.44-.54,1.1-.54,1.99Z"/><path d="M273.99,151.64h-2.34v-4.51c0-.95-.05-1.57-.15-1.85-.1-.28-.26-.5-.49-.65s-.5-.23-.81-.23c-.41,0-.77.11-1.09.33-.32.22-.54.52-.66.88s-.18,1.04-.18,2.03v4h-2.34v-8.84h2.17v1.3c.77-1,1.74-1.5,2.91-1.5.52,0,.99.09,1.42.28.43.19.75.42.97.71.22.29.37.62.46.98s.13.89.13,1.57v5.49Z"/><path d="M280,142.8h2.49l2.11,6.28,2.07-6.28h2.42l-3.12,8.51-.56,1.54c-.21.52-.4.91-.59,1.18-.19.27-.4.49-.64.66-.24.17-.54.3-.89.4-.35.09-.75.14-1.2.14s-.89-.05-1.32-.14l-.21-1.83c.37.07.7.11.99.11.54,0,.95-.16,1.21-.48.26-.32.46-.73.6-1.22l-3.36-8.87Z"/><path d="M290.05,147.09c0-.78.19-1.53.57-2.26.38-.73.93-1.28,1.63-1.67.7-.38,1.49-.57,2.35-.57,1.34,0,2.43.43,3.29,1.3s1.28,1.97,1.28,3.29-.43,2.45-1.29,3.33c-.86.88-1.95,1.32-3.26,1.32-.81,0-1.58-.18-2.32-.55s-1.29-.9-1.68-1.61-.57-1.57-.57-2.58ZM292.44,147.22c0,.88.21,1.55.62,2.01.42.47.93.7,1.54.7s1.12-.23,1.54-.7c.41-.47.62-1.14.62-2.03s-.21-1.53-.62-2c-.41-.47-.92-.7-1.54-.7s-1.12.23-1.54.7c-.42.47-.62,1.14-.62,2.01Z"/><path d="M306.82,151.64v-1.32c-.32.47-.75.84-1.27,1.12s-1.08.41-1.66.41-1.13-.13-1.6-.39-.81-.63-1.02-1.1c-.21-.47-.32-1.12-.32-1.96v-5.59h2.34v4.06c0,1.24.04,2.01.13,2.29s.24.5.47.67c.23.16.52.25.87.25.4,0,.76-.11,1.07-.33s.53-.49.65-.82c.12-.32.17-1.12.17-2.39v-3.73h2.34v8.84h-2.17Z"/><path d="M313.66,151.64h-2.34v-8.84h2.17v1.26c.37-.59.71-.99,1-1.17.3-.19.63-.28,1.01-.28.53,0,1.05.15,1.54.44l-.72,2.04c-.39-.26-.76-.38-1.1-.38s-.61.09-.83.27c-.23.18-.41.51-.54.98-.13.47-.2,1.46-.2,2.96v2.73Z"/><path d="M327.91,148.83l2.33.39c-.3.85-.77,1.51-1.42,1.95s-1.46.67-2.43.67c-1.54,0-2.67-.5-3.41-1.51-.58-.8-.87-1.82-.87-3.05,0-1.47.38-2.61,1.15-3.44.77-.83,1.73-1.24,2.91-1.24,1.32,0,2.35.43,3.11,1.3.76.87,1.12,2.2,1.09,3.99h-5.86c.02.69.21,1.23.57,1.62.36.39.81.58,1.35.58.37,0,.67-.1.92-.3s.44-.52.57-.97ZM328.04,146.46c-.02-.68-.19-1.19-.52-1.54-.33-.35-.74-.53-1.22-.53-.51,0-.93.19-1.26.56-.33.37-.5.88-.49,1.52h3.5Z"/><path d="M332.1,142.8h2.16v1.21c.77-.94,1.69-1.41,2.76-1.41.57,0,1.06.12,1.47.35.42.23.76.59,1.02,1.06.39-.47.81-.82,1.26-1.06.45-.23.93-.35,1.44-.35.65,0,1.2.13,1.65.4s.79.65,1.01,1.16c.16.38.24.99.24,1.83v5.65h-2.34v-5.05c0-.88-.08-1.44-.24-1.7-.22-.33-.55-.5-1-.5-.33,0-.64.1-.92.3-.29.2-.5.49-.62.88-.13.39-.19,1-.19,1.83v4.25h-2.34v-4.85c0-.86-.04-1.42-.12-1.67-.08-.25-.21-.44-.39-.56s-.41-.18-.71-.18c-.36,0-.69.1-.97.29-.29.19-.5.47-.62.84-.12.37-.19.97-.19,1.82v4.3h-2.34v-8.84Z"/><path d="M349.18,145.5l-2.12-.38c.24-.85.65-1.49,1.23-1.9.58-.41,1.45-.62,2.6-.62,1.04,0,1.82.12,2.33.37s.87.56,1.08.94c.21.38.31,1.08.31,2.09l-.03,2.73c0,.78.04,1.35.11,1.72.08.37.22.76.42,1.19h-2.31c-.06-.16-.14-.39-.22-.69-.04-.14-.07-.23-.08-.27-.4.39-.83.68-1.28.87-.46.19-.94.29-1.46.29-.91,0-1.63-.25-2.15-.74s-.79-1.12-.79-1.87c0-.5.12-.95.36-1.34s.57-.69,1-.9c.43-.21,1.05-.39,1.86-.55,1.09-.21,1.85-.4,2.27-.57v-.23c0-.45-.11-.77-.33-.96s-.64-.29-1.26-.29c-.42,0-.74.08-.97.25-.23.16-.42.45-.57.86ZM352.31,147.39c-.3.1-.77.22-1.42.36s-1.07.27-1.27.41c-.31.22-.46.49-.46.82s.12.61.37.85c.24.24.55.36.93.36.42,0,.82-.14,1.21-.42.28-.21.47-.47.56-.77.06-.2.09-.58.09-1.14v-.47Z"/><path d="M356.91,141.6v-2.16h2.34v2.16h-2.34ZM356.91,151.64v-8.84h2.34v8.84h-2.34Z"/><path d="M361.65,151.64v-12.2h2.34v12.2h-2.34Z"/><path d="M94.07,168.03v-2.73l-2.48-3.71h1.04l1.27,1.94c.23.36.45.73.66,1.09.19-.34.43-.72.7-1.14l1.25-1.89h.99l-2.57,3.71v2.73h-.85Z"/><path d="M97.04,165.7c0-.86.24-1.5.72-1.92.4-.35.89-.52,1.47-.52.64,0,1.17.21,1.57.63s.61,1,.61,1.74c0,.6-.09,1.07-.27,1.42-.18.34-.44.61-.79.8-.34.19-.72.29-1.13.29-.65,0-1.18-.21-1.58-.63-.4-.42-.6-1.02-.6-1.81ZM97.85,165.7c0,.6.13,1.05.39,1.34.26.3.59.45.98.45s.72-.15.98-.45.39-.75.39-1.37c0-.58-.13-1.01-.39-1.31-.26-.3-.59-.45-.98-.45s-.72.15-.98.44-.39.74-.39,1.34Z"/><path d="M105.4,168.03v-.69c-.36.53-.86.79-1.48.79-.28,0-.53-.05-.77-.16-.24-.11-.42-.24-.53-.4-.12-.16-.2-.36-.24-.59-.03-.16-.05-.4-.05-.74v-2.89h.79v2.59c0,.41.02.69.05.83.05.21.16.37.32.49.16.12.36.18.6.18s.46-.06.67-.18.36-.29.44-.5c.09-.21.13-.51.13-.91v-2.5h.79v4.67h-.71Z"/><path d="M112.89,166.32l.78.1c-.08.54-.3.96-.65,1.26-.35.3-.78.46-1.29.46-.64,0-1.15-.21-1.54-.63-.39-.42-.58-1.02-.58-1.8,0-.5.08-.94.25-1.32s.42-.66.76-.85c.34-.19.71-.28,1.11-.28.51,0,.92.13,1.24.38s.53.62.62,1.09l-.77.12c-.07-.31-.2-.55-.39-.71-.19-.16-.41-.24-.67-.24-.4,0-.72.14-.97.43-.25.29-.37.74-.37,1.36s.12,1.08.36,1.37.55.43.94.43c.31,0,.57-.1.78-.29s.34-.48.4-.88Z"/><path d="M117.39,167.45c-.29.25-.58.42-.85.53-.27.1-.56.15-.87.15-.51,0-.91-.12-1.18-.38-.28-.25-.41-.57-.41-.96,0-.23.05-.44.16-.63.1-.19.24-.34.41-.46.17-.11.36-.2.57-.26.16-.04.39-.08.7-.12.64-.08,1.11-.17,1.41-.27,0-.11,0-.18,0-.21,0-.32-.07-.55-.22-.68-.2-.18-.5-.27-.9-.27-.37,0-.65.07-.82.2-.18.13-.31.36-.39.69l-.77-.11c.07-.33.19-.6.35-.8.16-.2.39-.36.7-.47.3-.11.66-.17,1.06-.17s.72.05.97.14.43.21.55.35c.12.14.2.32.25.54.03.13.04.38.04.73v1.05c0,.74.02,1.2.05,1.4.03.2.1.38.2.56h-.83c-.08-.16-.13-.36-.16-.58ZM117.33,165.69c-.29.12-.72.22-1.29.3-.33.05-.56.1-.69.16s-.24.14-.31.26-.11.24-.11.38c0,.21.08.39.24.53.16.14.39.21.7.21s.58-.07.81-.2.41-.32.52-.55c.08-.18.13-.44.13-.79v-.29Z"/><path d="M119.35,168.03v-4.67h.71v.66c.34-.51.84-.77,1.49-.77.28,0,.54.05.78.15.24.1.41.23.53.4s.2.36.25.58c.03.15.04.4.04.77v2.87h-.79v-2.84c0-.32-.03-.56-.09-.72s-.17-.29-.33-.38c-.16-.09-.34-.14-.55-.14-.34,0-.63.11-.87.32-.25.21-.37.62-.37,1.22v2.55h-.79Z"/><path d="M129.89,168.03v-.59c-.3.46-.73.69-1.31.69-.37,0-.71-.1-1.03-.31-.31-.21-.55-.49-.73-.86-.17-.37-.26-.79-.26-1.27s.08-.89.23-1.27.39-.67.7-.87.66-.3,1.04-.3c.28,0,.53.06.75.18.22.12.4.27.54.46v-2.31h.79v6.44h-.73ZM127.39,165.7c0,.6.13,1.04.38,1.34s.55.44.89.44.64-.14.88-.42c.24-.28.36-.71.36-1.29,0-.64-.12-1.11-.37-1.41s-.55-.45-.91-.45-.65.14-.88.43c-.24.29-.35.74-.35,1.36Z"/><path d="M135.06,166.53l.82.1c-.13.48-.37.85-.72,1.11s-.79.4-1.34.4c-.68,0-1.22-.21-1.62-.63-.4-.42-.6-1.01-.6-1.77s.2-1.39.61-1.83.93-.65,1.57-.65,1.13.21,1.53.64.59,1.02.59,1.79c0,.05,0,.12,0,.21h-3.48c.03.51.17.91.43,1.18s.59.41.98.41c.29,0,.54-.08.74-.23s.37-.4.49-.73ZM132.46,165.25h2.61c-.04-.39-.13-.69-.3-.88-.25-.3-.58-.46-.98-.46-.36,0-.67.12-.92.36-.25.24-.38.57-.41.98Z"/><path d="M137.06,168.03v-4.05h-.7v-.62h.7v-.5c0-.31.03-.55.08-.7.08-.21.21-.37.4-.5.19-.13.46-.19.81-.19.22,0,.47.03.74.08l-.12.69c-.16-.03-.32-.04-.47-.04-.24,0-.41.05-.51.15s-.15.29-.15.58v.43h.91v.62h-.91v4.05h-.79Z"/><path d="M139.37,162.5v-.91h.79v.91h-.79ZM139.37,168.03v-4.67h.79v4.67h-.79Z"/><path d="M141.37,168.03v-4.67h.71v.66c.34-.51.84-.77,1.49-.77.28,0,.54.05.78.15.24.1.41.23.53.4s.2.36.25.58c.03.15.04.4.04.77v2.87h-.79v-2.84c0-.32-.03-.56-.09-.72s-.17-.29-.33-.38c-.16-.09-.34-.14-.55-.14-.34,0-.63.11-.87.32-.25.21-.37.62-.37,1.22v2.55h-.79Z"/><path d="M149.57,166.53l.82.1c-.13.48-.37.85-.72,1.11s-.79.4-1.34.4c-.68,0-1.22-.21-1.62-.63-.4-.42-.6-1.01-.6-1.77s.2-1.39.61-1.83.93-.65,1.57-.65,1.13.21,1.53.64.59,1.02.59,1.79c0,.05,0,.12,0,.21h-3.48c.03.51.17.91.43,1.18s.59.41.98.41c.29,0,.54-.08.74-.23s.37-.4.49-.73ZM146.97,165.25h2.61c-.04-.39-.13-.69-.3-.88-.25-.3-.58-.46-.98-.46-.36,0-.67.12-.92.36-.25.24-.38.57-.41.98Z"/><path d="M155.61,167.32l.11.7c-.22.05-.42.07-.6.07-.29,0-.51-.05-.67-.14s-.27-.21-.33-.36-.1-.46-.1-.93v-2.69h-.58v-.62h.58v-1.16l.79-.47v1.63h.79v.62h-.79v2.73c0,.23.01.37.04.44.03.06.07.12.14.15.06.04.15.06.27.06.09,0,.2-.01.35-.03Z"/><path d="M156.38,168.03v-6.44h.79v2.31c.37-.43.83-.64,1.4-.64.35,0,.65.07.9.2.25.14.44.32.55.56.11.24.17.59.17,1.05v2.96h-.79v-2.96c0-.4-.09-.68-.26-.86-.17-.18-.41-.27-.73-.27-.23,0-.46.06-.66.18-.21.12-.35.29-.44.49s-.13.5-.13.86v2.55h-.79Z"/><path d="M164.58,166.53l.82.1c-.13.48-.37.85-.72,1.11s-.79.4-1.34.4c-.68,0-1.22-.21-1.62-.63-.4-.42-.6-1.01-.6-1.77s.2-1.39.61-1.83.93-.65,1.57-.65,1.13.21,1.53.64.59,1.02.59,1.79c0,.05,0,.12,0,.21h-3.48c.03.51.17.91.43,1.18s.59.41.98.41c.29,0,.54-.08.74-.23s.37-.4.49-.73ZM161.98,165.25h2.61c-.04-.39-.13-.69-.3-.88-.25-.3-.58-.46-.98-.46-.36,0-.67.12-.92.36-.25.24-.38.57-.41.98Z"/><path d="M168.87,168.03v-6.44h.79v6.44h-.79Z"/><path d="M173.94,167.45c-.29.25-.58.42-.85.53-.27.1-.56.15-.87.15-.51,0-.91-.12-1.18-.38-.28-.25-.41-.57-.41-.96,0-.23.05-.44.16-.63.1-.19.24-.34.41-.46.17-.11.36-.2.57-.26.16-.04.39-.08.7-.12.64-.08,1.11-.17,1.41-.27,0-.11,0-.18,0-.21,0-.32-.08-.55-.22-.68-.2-.18-.5-.27-.9-.27-.37,0-.65.07-.82.2-.18.13-.31.36-.39.69l-.77-.11c.07-.33.19-.6.35-.8.16-.2.39-.36.7-.47.3-.11.66-.17,1.06-.17s.72.05.97.14.43.21.55.35c.12.14.2.32.25.54.03.13.04.38.04.73v1.05c0,.74.02,1.2.05,1.4.03.2.1.38.2.56h-.83c-.08-.16-.13-.36-.16-.58ZM173.87,165.69c-.29.12-.72.22-1.29.3-.33.05-.55.1-.69.16s-.24.14-.31.26-.11.24-.11.38c0,.21.08.39.24.53.16.14.39.21.7.21s.58-.07.81-.2.41-.32.52-.55c.08-.18.13-.44.13-.79v-.29Z"/><path d="M175.86,169.83l-.09-.74c.17.05.32.07.45.07.18,0,.32-.03.42-.09s.19-.14.26-.25c.05-.08.13-.28.24-.59.01-.04.04-.11.07-.19l-1.77-4.68h.85l.97,2.7c.13.34.24.7.34,1.08.09-.36.2-.72.33-1.06l1-2.72h.79l-1.78,4.75c-.19.51-.34.87-.44,1.06-.14.26-.3.45-.48.57-.18.12-.4.18-.65.18-.15,0-.32-.03-.51-.1Z"/><path d="M180.1,165.7c0-.86.24-1.5.72-1.92.4-.35.89-.52,1.47-.52.64,0,1.17.21,1.57.63s.61,1,.61,1.74c0,.6-.09,1.07-.27,1.42-.18.34-.44.61-.79.8-.34.19-.72.29-1.13.29-.65,0-1.18-.21-1.58-.63-.4-.42-.6-1.02-.6-1.81ZM180.92,165.7c0,.6.13,1.05.39,1.34.26.3.59.45.98.45s.72-.15.98-.45.39-.75.39-1.37c0-.58-.13-1.01-.39-1.31-.26-.3-.59-.45-.98-.45s-.72.15-.98.44-.39.74-.39,1.34Z"/><path d="M188.46,168.03v-.69c-.36.53-.86.79-1.48.79-.28,0-.53-.05-.77-.16-.24-.11-.42-.24-.53-.4-.12-.16-.2-.36-.24-.59-.03-.16-.05-.4-.05-.74v-2.89h.79v2.59c0,.41.02.69.05.83.05.21.16.37.32.49.16.12.36.18.6.18s.46-.06.67-.18.35-.29.44-.5c.09-.21.13-.51.13-.91v-2.5h.79v4.67h-.71Z"/><path d="M192.13,167.32l.11.7c-.22.05-.42.07-.6.07-.29,0-.51-.05-.67-.14s-.27-.21-.33-.36-.1-.46-.1-.93v-2.69h-.58v-.62h.58v-1.16l.79-.47v1.63h.79v.62h-.79v2.73c0,.23.01.37.04.44.03.06.07.12.14.15.06.04.15.06.27.06.09,0,.2-.01.35-.03Z"/><path d="M195.11,165.7c0-.86.24-1.5.72-1.92.4-.35.89-.52,1.47-.52.64,0,1.17.21,1.57.63s.61,1,.61,1.74c0,.6-.09,1.07-.27,1.42-.18.34-.44.61-.79.8-.34.19-.72.29-1.13.29-.65,0-1.18-.21-1.58-.63-.4-.42-.6-1.02-.6-1.81ZM195.93,165.7c0,.6.13,1.05.39,1.34.26.3.59.45.98.45s.72-.15.98-.45.39-.75.39-1.37c0-.58-.13-1.01-.39-1.31-.26-.3-.59-.45-.98-.45s-.72.15-.98.44-.39.74-.39,1.34Z"/><path d="M200.6,168.03v-4.05h-.7v-.62h.7v-.5c0-.31.03-.55.08-.7.08-.21.21-.37.4-.5.19-.13.46-.19.81-.19.22,0,.47.03.74.08l-.12.69c-.16-.03-.32-.04-.47-.04-.24,0-.41.05-.51.15s-.15.29-.15.58v.43h.91v.62h-.91v4.05h-.79Z"/><path d="M205.38,169.83l-.09-.74c.17.05.32.07.45.07.18,0,.32-.03.42-.09s.19-.14.26-.25c.05-.08.13-.28.24-.59.01-.04.04-.11.07-.19l-1.77-4.68h.85l.97,2.7c.13.34.24.7.34,1.08.09-.36.2-.72.33-1.06l1-2.72h.79l-1.78,4.75c-.19.51-.34.87-.44,1.06-.14.26-.3.45-.48.57-.18.12-.4.18-.65.18-.15,0-.32-.03-.51-.1Z"/><path d="M209.62,165.7c0-.86.24-1.5.72-1.92.4-.35.89-.52,1.47-.52.64,0,1.17.21,1.57.63s.61,1,.61,1.74c0,.6-.09,1.07-.27,1.42-.18.34-.44.61-.79.8-.34.19-.72.29-1.13.29-.65,0-1.18-.21-1.58-.63-.4-.42-.6-1.02-.6-1.81ZM210.43,165.7c0,.6.13,1.05.39,1.34.26.3.59.45.98.45s.72-.15.98-.45.39-.75.39-1.37c0-.58-.13-1.01-.39-1.31-.26-.3-.59-.45-.98-.45s-.72.15-.98.44-.39.74-.39,1.34Z"/><path d="M217.98,168.03v-.69c-.36.53-.86.79-1.48.79-.28,0-.53-.05-.77-.16-.24-.11-.42-.24-.53-.4-.12-.16-.2-.36-.24-.59-.03-.16-.05-.4-.05-.74v-2.89h.79v2.59c0,.41.02.69.05.83.05.21.16.37.32.49.16.12.36.18.6.18s.46-.06.67-.18.36-.29.44-.5c.09-.21.13-.51.13-.91v-2.5h.79v4.67h-.71Z"/><path d="M219.92,168.03v-4.67h.71v.71c.18-.33.35-.55.5-.65.15-.11.32-.16.51-.16.27,0,.54.08.81.25l-.27.73c-.19-.11-.39-.17-.58-.17-.17,0-.33.05-.47.16s-.24.25-.29.43c-.09.28-.13.59-.13.92v2.44h-.79Z"/><path d="M228.62,166.53l.82.1c-.13.48-.37.85-.72,1.11s-.79.4-1.34.4c-.68,0-1.22-.21-1.62-.63-.4-.42-.6-1.01-.6-1.77s.2-1.39.61-1.83.93-.65,1.57-.65,1.13.21,1.53.64.59,1.02.59,1.79c0,.05,0,.12,0,.21h-3.48c.03.51.17.91.43,1.18s.59.41.98.41c.29,0,.54-.08.74-.23s.37-.4.49-.73ZM226.02,165.25h2.61c-.04-.39-.13-.69-.3-.88-.25-.3-.58-.46-.98-.46-.36,0-.67.12-.92.36-.25.24-.38.57-.41.98Z"/><path d="M230.43,168.03v-4.67h.71v.65c.15-.23.34-.41.58-.55s.52-.21.83-.21c.35,0,.63.07.85.22.22.14.38.34.47.6.37-.54.85-.82,1.44-.82.46,0,.82.13,1.07.38s.37.65.37,1.18v3.2h-.79v-2.94c0-.32-.03-.54-.08-.68-.05-.14-.14-.25-.28-.34s-.29-.13-.47-.13c-.33,0-.6.11-.82.33-.22.22-.33.57-.33,1.05v2.71h-.79v-3.03c0-.35-.06-.62-.19-.79s-.34-.26-.63-.26c-.22,0-.43.06-.62.18-.19.12-.33.29-.41.51s-.13.55-.13.98v2.42h-.79Z"/><path d="M240.97,167.45c-.29.25-.58.42-.85.53-.27.1-.56.15-.87.15-.51,0-.91-.12-1.18-.38-.28-.25-.41-.57-.41-.96,0-.23.05-.44.16-.63.1-.19.24-.34.41-.46.17-.11.36-.2.57-.26.16-.04.39-.08.7-.12.64-.08,1.11-.17,1.41-.27,0-.11,0-.18,0-.21,0-.32-.08-.55-.22-.68-.2-.18-.5-.27-.9-.27-.37,0-.65.07-.82.2-.18.13-.31.36-.39.69l-.77-.11c.07-.33.19-.6.35-.8.16-.2.39-.36.7-.47.3-.11.66-.17,1.06-.17s.72.05.97.14.43.21.55.35c.12.14.2.32.25.54.03.13.04.38.04.73v1.05c0,.74.02,1.2.05,1.4.03.2.1.38.2.56h-.83c-.08-.16-.13-.36-.16-.58ZM240.9,165.69c-.29.12-.72.22-1.29.3-.33.05-.55.1-.69.16s-.24.14-.31.26-.11.24-.11.38c0,.21.08.39.24.53.16.14.39.21.7.21s.58-.07.81-.2.41-.32.52-.55c.08-.18.13-.44.13-.79v-.29Z"/><path d="M242.93,162.5v-.91h.79v.91h-.79ZM242.93,168.03v-4.67h.79v4.67h-.79Z"/><path d="M244.91,168.03v-6.44h.79v6.44h-.79Z"/><path d="M252.48,167.45c-.29.25-.58.42-.85.53-.27.1-.56.15-.87.15-.51,0-.91-.12-1.18-.38-.28-.25-.41-.57-.41-.96,0-.23.05-.44.16-.63.1-.19.24-.34.41-.46.17-.11.36-.2.57-.26.16-.04.39-.08.7-.12.64-.08,1.11-.17,1.41-.27,0-.11,0-.18,0-.21,0-.32-.08-.55-.22-.68-.2-.18-.5-.27-.9-.27-.37,0-.65.07-.82.2-.18.13-.31.36-.39.69l-.77-.11c.07-.33.19-.6.35-.8.16-.2.39-.36.7-.47.3-.11.66-.17,1.06-.17s.72.05.97.14.43.21.55.35c.12.14.2.32.25.54.03.13.04.38.04.73v1.05c0,.74.02,1.2.05,1.4.03.2.1.38.2.56h-.83c-.08-.16-.13-.36-.16-.58ZM252.41,165.69c-.29.12-.72.22-1.29.3-.33.05-.55.1-.69.16s-.24.14-.31.26-.11.24-.11.38c0,.21.08.39.24.53.16.14.39.21.7.21s.58-.07.81-.2.41-.32.52-.55c.08-.18.13-.44.13-.79v-.29Z"/><path d="M254.44,168.03v-4.67h.71v.66c.34-.51.84-.77,1.49-.77.28,0,.54.05.78.15.24.1.41.23.53.4s.2.36.25.58c.03.15.04.4.04.77v2.87h-.79v-2.84c0-.32-.03-.56-.09-.72s-.17-.29-.33-.38c-.16-.09-.34-.14-.55-.14-.34,0-.63.11-.87.32-.24.21-.37.62-.37,1.22v2.55h-.79Z"/><path d="M262.47,168.03v-.59c-.3.46-.73.69-1.31.69-.37,0-.71-.1-1.03-.31-.31-.21-.55-.49-.73-.86-.17-.37-.26-.79-.26-1.27s.08-.89.23-1.27.39-.67.7-.87.66-.3,1.04-.3c.28,0,.53.06.75.18.22.12.4.27.54.46v-2.31h.79v6.44h-.73ZM259.97,165.7c0,.6.13,1.04.38,1.34s.55.44.89.44.64-.14.88-.42c.24-.28.36-.71.36-1.29,0-.64-.12-1.11-.37-1.41s-.55-.45-.91-.45-.65.14-.88.43c-.24.29-.35.74-.35,1.36Z"/><path d="M266.8,168.42l.77.11c.03.24.12.41.27.52.2.15.46.22.8.22.37,0,.65-.07.85-.22s.33-.35.4-.62c.04-.16.06-.5.06-1.02-.35.41-.78.61-1.29.61-.64,0-1.14-.23-1.49-.69s-.53-1.02-.53-1.67c0-.45.08-.86.24-1.23.16-.38.39-.67.7-.87.31-.21.67-.31,1.08-.31.55,0,1,.22,1.36.67v-.56h.73v4.03c0,.73-.07,1.24-.22,1.54-.15.3-.38.54-.7.72-.32.18-.72.26-1.18.26-.56,0-1.01-.13-1.35-.38-.34-.25-.51-.63-.5-1.13ZM267.46,165.61c0,.61.12,1.06.37,1.34s.55.42.91.42.67-.14.91-.42.37-.72.37-1.32-.13-1-.38-1.29c-.25-.29-.56-.44-.92-.44s-.65.14-.9.43c-.25.29-.37.71-.37,1.27Z"/><path d="M271.96,162.5v-.91h.79v.91h-.79ZM271.96,168.03v-4.67h.79v4.67h-.79Z"/><path d="M275.25,168.03l-1.78-4.67h.83l1,2.79c.11.3.21.62.3.94.07-.25.17-.54.29-.89l1.04-2.85h.81l-1.77,4.67h-.74Z"/><path d="M281.65,166.53l.82.1c-.13.48-.37.85-.72,1.11s-.79.4-1.34.4c-.68,0-1.22-.21-1.62-.63-.4-.42-.6-1.01-.6-1.77s.2-1.39.61-1.83.93-.65,1.57-.65,1.13.21,1.53.64.59,1.02.59,1.79c0,.05,0,.12,0,.21h-3.48c.03.51.17.91.44,1.18s.59.41.98.41c.29,0,.54-.08.74-.23s.37-.4.49-.73ZM279.05,165.25h2.61c-.04-.39-.13-.69-.3-.88-.25-.3-.58-.46-.98-.46-.36,0-.67.12-.92.36-.25.24-.38.57-.41.98Z"/><path d="M285.92,169.83l-.09-.74c.17.05.32.07.45.07.18,0,.32-.03.42-.09s.19-.14.26-.25c.05-.08.13-.28.24-.59.01-.04.04-.11.07-.19l-1.77-4.68h.85l.97,2.7c.13.34.24.7.34,1.08.09-.36.2-.72.33-1.06l1-2.72h.79l-1.78,4.75c-.19.51-.34.87-.44,1.06-.14.26-.3.45-.48.57-.18.12-.4.18-.65.18-.15,0-.32-.03-.51-.1Z"/><path d="M290.16,165.7c0-.86.24-1.5.72-1.92.4-.35.89-.52,1.47-.52.64,0,1.17.21,1.57.63s.61,1,.61,1.74c0,.6-.09,1.07-.27,1.42-.18.34-.44.61-.79.8-.34.19-.72.29-1.13.29-.65,0-1.18-.21-1.58-.63-.4-.42-.6-1.02-.6-1.81ZM290.98,165.7c0,.6.13,1.05.39,1.34.26.3.59.45.98.45s.72-.15.98-.45.39-.75.39-1.37c0-.58-.13-1.01-.39-1.31-.26-.3-.59-.45-.98-.45s-.72.15-.98.44-.39.74-.39,1.34Z"/><path d="M298.52,168.03v-.69c-.36.53-.86.79-1.48.79-.28,0-.53-.05-.77-.16-.24-.11-.42-.24-.53-.4-.12-.16-.2-.36-.24-.59-.03-.16-.05-.4-.05-.74v-2.89h.79v2.59c0,.41.02.69.05.83.05.21.16.37.32.49.16.12.36.18.6.18s.46-.06.67-.18.36-.29.44-.5c.09-.21.13-.51.13-.91v-2.5h.79v4.67h-.71Z"/><path d="M300.46,168.03v-4.67h.71v.71c.18-.33.35-.55.5-.65.15-.11.32-.16.51-.16.27,0,.54.08.81.25l-.27.73c-.19-.11-.39-.17-.58-.17-.17,0-.33.05-.47.16s-.24.25-.29.43c-.09.28-.13.59-.13.92v2.44h-.79Z"/><path d="M309.01,166.32l.78.1c-.08.54-.3.96-.65,1.26-.35.3-.78.46-1.29.46-.64,0-1.15-.21-1.54-.63-.39-.42-.58-1.02-.58-1.8,0-.5.08-.94.25-1.32s.42-.66.76-.85c.34-.19.71-.28,1.11-.28.51,0,.92.13,1.24.38s.53.62.62,1.09l-.77.12c-.07-.31-.2-.55-.39-.71-.19-.16-.41-.24-.67-.24-.4,0-.72.14-.97.43-.25.29-.37.74-.37,1.36s.12,1.08.36,1.37.55.43.94.43c.31,0,.57-.1.78-.29s.34-.48.4-.88Z"/><path d="M310.17,165.7c0-.86.24-1.5.72-1.92.4-.35.89-.52,1.47-.52.64,0,1.17.21,1.57.63s.61,1,.61,1.74c0,.6-.09,1.07-.27,1.42-.18.34-.44.61-.79.8-.34.19-.72.29-1.13.29-.65,0-1.18-.21-1.58-.63-.4-.42-.6-1.02-.6-1.81ZM310.98,165.7c0,.6.13,1.05.39,1.34.26.3.59.45.98.45s.72-.15.98-.45.39-.75.39-1.37c0-.58-.13-1.01-.39-1.31-.26-.3-.59-.45-.98-.45s-.72.15-.98.44-.39.74-.39,1.34Z"/><path d="M315.47,168.03v-4.67h.71v.66c.34-.51.84-.77,1.49-.77.28,0,.54.05.78.15.24.1.41.23.53.4s.2.36.25.58c.03.15.04.4.04.77v2.87h-.79v-2.84c0-.32-.03-.56-.09-.72s-.17-.29-.33-.38c-.16-.09-.34-.14-.55-.14-.34,0-.63.11-.87.32-.25.21-.37.62-.37,1.22v2.55h-.79Z"/><path d="M322.2,167.32l.11.7c-.22.05-.42.07-.6.07-.29,0-.51-.05-.67-.14s-.27-.21-.33-.36-.1-.46-.1-.93v-2.69h-.58v-.62h.58v-1.16l.79-.47v1.63h.79v.62h-.79v2.73c0,.23.01.37.04.44.03.06.07.12.14.15.06.04.15.06.27.06.09,0,.2-.01.35-.03Z"/><path d="M326.17,166.53l.82.1c-.13.48-.37.85-.72,1.11s-.79.4-1.34.4c-.68,0-1.22-.21-1.62-.63-.4-.42-.6-1.01-.6-1.77s.2-1.39.61-1.83.93-.65,1.57-.65,1.13.21,1.53.64.59,1.02.59,1.79c0,.05,0,.12,0,.21h-3.48c.03.51.17.91.44,1.18s.59.41.98.41c.29,0,.54-.08.74-.23s.37-.4.49-.73ZM323.57,165.25h2.61c-.04-.39-.13-.69-.3-.88-.25-.3-.58-.46-.98-.46-.36,0-.67.12-.92.36-.25.24-.38.57-.41.98Z"/><path d="M327.98,168.03v-4.67h.71v.66c.34-.51.84-.77,1.49-.77.28,0,.54.05.78.15.24.1.41.23.53.4s.2.36.25.58c.03.15.04.4.04.77v2.87h-.79v-2.84c0-.32-.03-.56-.09-.72s-.17-.29-.33-.38c-.16-.09-.34-.14-.55-.14-.34,0-.63.11-.87.32-.24.21-.37.62-.37,1.22v2.55h-.79Z"/><path d="M334.72,167.32l.11.7c-.22.05-.42.07-.6.07-.29,0-.51-.05-.67-.14s-.27-.21-.33-.36-.1-.46-.1-.93v-2.69h-.58v-.62h.58v-1.16l.79-.47v1.63h.8v.62h-.8v2.73c0,.23.01.37.04.44.03.06.07.12.14.15.06.04.15.06.27.06.09,0,.2-.01.35-.03Z"/><path d="M341.03,167.45c-.29.25-.58.42-.85.53-.27.1-.56.15-.87.15-.51,0-.91-.12-1.18-.38-.28-.25-.41-.57-.41-.96,0-.23.05-.44.16-.63.1-.19.24-.34.41-.46.17-.11.36-.2.57-.26.16-.04.39-.08.7-.12.64-.08,1.11-.17,1.41-.27,0-.11,0-.18,0-.21,0-.32-.08-.55-.22-.68-.2-.18-.5-.27-.9-.27-.37,0-.65.07-.82.2-.18.13-.31.36-.39.69l-.77-.11c.07-.33.19-.6.35-.8.16-.2.39-.36.7-.47.3-.11.66-.17,1.06-.17s.72.05.97.14.43.21.55.35c.12.14.2.32.25.54.03.13.04.38.04.73v1.05c0,.74.02,1.2.05,1.4.03.2.1.38.2.56h-.83c-.08-.16-.13-.36-.16-.58ZM340.97,165.69c-.29.12-.72.22-1.29.3-.33.05-.55.1-.69.16s-.24.14-.31.26-.11.24-.11.38c0,.21.08.39.24.53.16.14.39.21.7.21s.58-.07.81-.2.41-.32.52-.55c.08-.18.13-.44.13-.79v-.29Z"/><path d="M345.49,169.82v-6.46h.72v.61c.17-.24.36-.42.58-.53.21-.12.47-.18.78-.18.4,0,.75.1,1.05.31s.54.49.69.87c.16.37.23.78.23,1.23,0,.48-.08.91-.26,1.29-.17.38-.42.68-.75.88-.33.2-.67.31-1.03.31-.26,0-.5-.06-.71-.17-.21-.11-.38-.25-.52-.42v2.27h-.79ZM346.21,165.72c0,.6.12,1.04.36,1.33s.54.43.88.43.65-.15.9-.45c.25-.3.38-.76.38-1.38s-.12-1.04-.37-1.34c-.25-.3-.54-.44-.88-.44s-.63.16-.89.47c-.26.32-.39.77-.39,1.37Z"/><path d="M350.48,168.03v-6.44h.79v6.44h-.79Z"/><path d="M355.55,167.45c-.29.25-.58.42-.85.53-.27.1-.56.15-.87.15-.51,0-.91-.12-1.18-.38-.28-.25-.41-.57-.41-.96,0-.23.05-.44.16-.63.1-.19.24-.34.41-.46.17-.11.36-.2.57-.26.16-.04.39-.08.7-.12.64-.08,1.11-.17,1.41-.27,0-.11,0-.18,0-.21,0-.32-.08-.55-.22-.68-.2-.18-.5-.27-.9-.27-.37,0-.65.07-.82.2-.18.13-.31.36-.39.69l-.77-.11c.07-.33.19-.6.35-.8.16-.2.39-.36.7-.47.3-.11.66-.17,1.06-.17s.72.05.97.14.43.21.55.35c.12.14.2.32.25.54.03.13.04.38.04.73v1.05c0,.74.02,1.2.05,1.4.03.2.1.38.2.56h-.83c-.08-.16-.13-.36-.16-.58ZM355.48,165.69c-.29.12-.72.22-1.29.3-.33.05-.55.1-.69.16s-.24.14-.31.26-.11.24-.11.38c0,.21.08.39.24.53.16.14.39.21.7.21s.58-.07.81-.2.41-.32.52-.55c.08-.18.13-.44.13-.79v-.29Z"/><path d="M360.55,166.32l.78.1c-.08.54-.3.96-.65,1.26-.35.3-.78.46-1.29.46-.64,0-1.15-.21-1.54-.63-.39-.42-.58-1.02-.58-1.8,0-.5.08-.94.25-1.32s.42-.66.76-.85c.34-.19.71-.28,1.11-.28.51,0,.92.13,1.24.38s.53.62.62,1.09l-.77.12c-.07-.31-.2-.55-.39-.71-.19-.16-.41-.24-.67-.24-.4,0-.72.14-.97.43-.25.29-.37.74-.37,1.36s.12,1.08.36,1.37.55.43.94.43c.31,0,.57-.1.78-.29s.34-.48.4-.88Z"/><path d="M365.2,166.53l.82.1c-.13.48-.37.85-.72,1.11s-.79.4-1.34.4c-.68,0-1.22-.21-1.62-.63-.4-.42-.6-1.01-.6-1.77s.2-1.39.61-1.83.93-.65,1.57-.65,1.13.21,1.53.64.59,1.02.59,1.79c0,.05,0,.12,0,.21h-3.48c.03.51.17.91.43,1.18s.59.41.98.41c.29,0,.54-.08.74-.23s.37-.4.49-.73ZM362.6,165.25h2.61c-.04-.39-.13-.69-.3-.88-.25-.3-.58-.46-.98-.46-.36,0-.67.12-.92.36-.25.24-.38.57-.41.98Z"/><path d="M371.24,167.32l.11.7c-.22.05-.42.07-.6.07-.29,0-.51-.05-.67-.14s-.27-.21-.33-.36-.1-.46-.1-.93v-2.69h-.58v-.62h.58v-1.16l.79-.47v1.63h.79v.62h-.79v2.73c0,.23.01.37.04.44.03.06.07.12.14.15.06.04.15.06.27.06.09,0,.2-.01.35-.03Z"/><path d="M371.72,165.7c0-.86.24-1.5.72-1.92.4-.35.89-.52,1.47-.52.64,0,1.17.21,1.57.63s.61,1,.61,1.74c0,.6-.09,1.07-.27,1.42-.18.34-.44.61-.79.8-.34.19-.72.29-1.13.29-.65,0-1.18-.21-1.58-.63-.4-.42-.6-1.02-.6-1.81ZM372.53,165.7c0,.6.13,1.05.39,1.34.26.3.59.45.98.45s.72-.15.98-.45.39-.75.39-1.37c0-.58-.13-1.01-.39-1.31-.26-.3-.59-.45-.98-.45s-.72.15-.98.44-.39.74-.39,1.34Z"/><path d="M379.5,168.03v-6.44h.79v6.44h-.79Z"/><path d="M381.52,162.5v-.91h.79v.91h-.79ZM381.52,168.03v-4.67h.79v4.67h-.79Z"/><path d="M384.81,168.03l-1.78-4.67h.83l1,2.79c.11.3.21.62.3.94.07-.25.17-.54.29-.89l1.04-2.85h.81l-1.77,4.67h-.74Z"/><path d="M391.21,166.53l.82.1c-.13.48-.37.85-.72,1.11s-.79.4-1.34.4c-.68,0-1.22-.21-1.62-.63-.4-.42-.6-1.01-.6-1.77s.2-1.39.61-1.83.93-.65,1.57-.65,1.13.21,1.53.64.59,1.02.59,1.79c0,.05,0,.12,0,.21h-3.48c.03.51.17.91.44,1.18s.59.41.98.41c.29,0,.54-.08.74-.23s.37-.4.49-.73ZM388.61,165.25h2.61c-.04-.39-.13-.69-.3-.88-.25-.3-.58-.46-.98-.46-.36,0-.67.12-.92.36-.25.24-.38.57-.41.98Z"/><path d="M396.25,168.03h-.73v-6.44h.79v2.3c.33-.42.76-.63,1.28-.63.29,0,.56.06.82.17.26.12.47.28.63.49.17.21.29.46.39.76s.14.61.14.95c0,.8-.2,1.42-.59,1.85s-.87.65-1.42.65-.98-.23-1.3-.69v.58ZM396.24,165.66c0,.56.08.96.23,1.21.25.41.59.61,1.01.61.35,0,.64-.15.9-.45s.38-.75.38-1.34-.12-1.06-.36-1.35c-.24-.29-.53-.44-.88-.44s-.64.15-.9.45c-.25.3-.38.73-.38,1.3Z"/><path d="M400.49,169.83l-.09-.74c.17.05.32.07.45.07.18,0,.32-.03.42-.09s.19-.14.26-.25c.05-.08.13-.28.24-.59.01-.04.04-.11.07-.19l-1.77-4.68h.85l.97,2.7c.13.34.24.7.34,1.08.09-.36.2-.72.33-1.06l1-2.72h.79l-1.78,4.75c-.19.51-.34.87-.44,1.06-.14.26-.3.45-.48.57-.18.12-.4.18-.65.18-.15,0-.32-.03-.51-.1Z"/><path d="M154.32,178.25c-.29.25-.58.42-.85.53-.27.1-.56.15-.87.15-.51,0-.91-.12-1.18-.38-.28-.25-.41-.57-.41-.96,0-.23.05-.44.16-.63.1-.19.24-.34.41-.46.17-.11.36-.2.57-.26.16-.04.39-.08.7-.12.64-.08,1.11-.17,1.41-.27,0-.11,0-.18,0-.21,0-.32-.07-.55-.22-.68-.2-.18-.5-.27-.9-.27-.37,0-.65.07-.82.2-.18.13-.31.36-.39.69l-.77-.11c.07-.33.19-.6.35-.8.16-.2.39-.36.7-.47.3-.11.66-.17,1.06-.17s.72.05.97.14.43.21.55.35c.12.14.2.32.25.54.03.13.04.38.04.73v1.05c0,.74.02,1.2.05,1.4.03.2.1.38.2.56h-.83c-.08-.16-.13-.36-.16-.58ZM154.26,176.49c-.29.12-.72.22-1.29.3-.33.05-.56.1-.69.16s-.24.14-.31.26-.11.24-.11.38c0,.21.08.39.24.53.16.14.39.21.7.21s.58-.07.81-.2.41-.32.52-.55c.08-.18.13-.44.13-.79v-.29Z"/><path d="M159.31,178.83v-.59c-.3.46-.73.69-1.31.69-.37,0-.71-.1-1.03-.31-.31-.21-.55-.49-.73-.86-.17-.37-.26-.79-.26-1.27s.08-.89.23-1.27.39-.67.7-.87.66-.3,1.04-.3c.28,0,.53.06.75.18.22.12.4.27.54.46v-2.31h.79v6.44h-.73ZM156.81,176.5c0,.6.13,1.04.38,1.34s.55.44.89.44.64-.14.88-.42c.24-.28.36-.71.36-1.29,0-.64-.12-1.11-.37-1.41s-.55-.45-.91-.45-.65.14-.88.43c-.24.29-.35.74-.35,1.36Z"/><path d="M164.31,178.83v-.59c-.3.46-.73.69-1.3.69-.37,0-.71-.1-1.03-.31-.31-.21-.55-.49-.73-.86-.17-.37-.26-.79-.26-1.27s.08-.89.23-1.27.39-.67.7-.87.66-.3,1.04-.3c.28,0,.53.06.75.18.22.12.4.27.54.46v-2.31h.79v6.44h-.73ZM161.81,176.5c0,.6.13,1.04.38,1.34s.55.44.89.44.64-.14.88-.42c.24-.28.36-.71.36-1.29,0-.64-.12-1.11-.37-1.41s-.55-.45-.91-.45-.65.14-.88.43c-.24.29-.35.74-.35,1.36Z"/><path d="M166.3,173.3v-.91h.79v.91h-.79ZM166.3,178.83v-4.67h.79v4.67h-.79Z"/><path d="M168.29,178.83v-4.67h.71v.66c.34-.51.84-.77,1.49-.77.28,0,.54.05.78.15.24.1.41.23.53.4s.2.36.25.58c.03.15.04.4.04.77v2.87h-.79v-2.84c0-.32-.03-.56-.09-.72s-.17-.29-.33-.38c-.16-.09-.34-.14-.55-.14-.34,0-.63.11-.87.32-.24.21-.37.62-.37,1.22v2.55h-.79Z"/><path d="M173.15,179.22l.77.11c.03.24.12.41.27.52.2.15.46.22.8.22.37,0,.65-.07.85-.22s.33-.35.4-.62c.04-.16.06-.5.06-1.02-.35.41-.78.61-1.29.61-.64,0-1.14-.23-1.49-.69s-.53-1.02-.53-1.67c0-.45.08-.86.24-1.23.16-.38.39-.67.7-.87.31-.21.67-.31,1.08-.31.55,0,1,.22,1.36.67v-.56h.73v4.03c0,.73-.07,1.24-.22,1.54-.15.3-.38.54-.7.72-.32.18-.72.26-1.18.26-.56,0-1.01-.13-1.35-.38-.34-.25-.51-.63-.5-1.13ZM173.81,176.41c0,.61.12,1.06.37,1.34s.55.42.91.42.67-.14.91-.42.37-.72.37-1.32-.13-1-.38-1.29c-.25-.29-.56-.44-.92-.44s-.65.14-.9.43c-.25.29-.37.71-.37,1.27Z"/><path d="M178.51,178.83v-.9h.9v.9c0,.33-.06.6-.18.8s-.3.36-.56.47l-.22-.34c.17-.07.29-.18.37-.32.08-.14.12-.35.13-.61h-.45Z"/><path d="M183.3,178.83v-4.67h.71v.71c.18-.33.35-.55.5-.65.15-.11.32-.16.51-.16.27,0,.54.08.81.25l-.27.73c-.19-.11-.39-.17-.58-.17-.17,0-.33.05-.47.16s-.24.25-.29.43c-.09.28-.13.59-.13.92v2.44h-.79Z"/><path d="M189.5,177.33l.82.1c-.13.48-.37.85-.72,1.11s-.79.4-1.34.4c-.68,0-1.22-.21-1.62-.63-.4-.42-.6-1.01-.6-1.77s.2-1.39.61-1.83.93-.65,1.57-.65,1.13.21,1.53.64.59,1.02.59,1.79c0,.05,0,.12,0,.21h-3.48c.03.51.17.91.43,1.18s.59.41.98.41c.29,0,.54-.08.74-.23s.37-.4.49-.73ZM186.9,176.05h2.61c-.04-.39-.13-.69-.3-.88-.25-.3-.58-.46-.98-.46-.36,0-.67.12-.92.36-.25.24-.38.57-.41.98Z"/><path d="M194.35,178.25c-.29.25-.58.42-.85.53-.27.1-.56.15-.87.15-.51,0-.91-.12-1.18-.38-.28-.25-.41-.57-.41-.96,0-.23.05-.44.16-.63.1-.19.24-.34.41-.46.17-.11.36-.2.57-.26.16-.04.39-.08.7-.12.64-.08,1.11-.17,1.41-.27,0-.11,0-.18,0-.21,0-.32-.08-.55-.22-.68-.2-.18-.5-.27-.9-.27-.37,0-.65.07-.82.2-.18.13-.31.36-.39.69l-.77-.11c.07-.33.19-.6.35-.8.16-.2.39-.36.7-.47.3-.11.66-.17,1.06-.17s.72.05.97.14.43.21.55.35c.12.14.2.32.25.54.03.13.04.38.04.73v1.05c0,.74.02,1.2.05,1.4.03.2.1.38.2.56h-.83c-.08-.16-.13-.36-.16-.58ZM194.29,176.49c-.29.12-.72.22-1.29.3-.33.05-.55.1-.69.16s-.24.14-.31.26-.11.24-.11.38c0,.21.08.39.24.53.16.14.39.21.7.21s.58-.07.81-.2.41-.32.52-.55c.08-.18.13-.44.13-.79v-.29Z"/><path d="M196.3,178.83v-4.67h.71v.71c.18-.33.35-.55.5-.65.15-.11.32-.16.51-.16.27,0,.54.08.81.25l-.27.73c-.19-.11-.39-.17-.58-.17-.17,0-.33.05-.47.16s-.24.25-.29.43c-.09.28-.13.59-.13.92v2.44h-.79Z"/><path d="M199.3,178.83v-4.67h.71v.71c.18-.33.35-.55.5-.65.15-.11.32-.16.51-.16.27,0,.54.08.81.25l-.27.73c-.19-.11-.39-.17-.58-.17-.17,0-.33.05-.47.16s-.24.25-.29.43c-.09.28-.13.59-.13.92v2.44h-.79Z"/><path d="M205.35,178.25c-.29.25-.58.42-.85.53-.27.1-.56.15-.87.15-.51,0-.91-.12-1.18-.38-.28-.25-.41-.57-.41-.96,0-.23.05-.44.16-.63.1-.19.24-.34.41-.46.17-.11.36-.2.57-.26.16-.04.39-.08.7-.12.64-.08,1.11-.17,1.41-.27,0-.11,0-.18,0-.21,0-.32-.07-.55-.22-.68-.2-.18-.5-.27-.9-.27-.37,0-.65.07-.82.2-.18.13-.31.36-.39.69l-.77-.11c.07-.33.19-.6.35-.8.16-.2.39-.36.7-.47.3-.11.66-.17,1.06-.17s.72.05.97.14.43.21.55.35c.12.14.2.32.25.54.03.13.04.38.04.73v1.05c0,.74.02,1.2.05,1.4.03.2.1.38.2.56h-.83c-.08-.16-.13-.36-.16-.58ZM205.29,176.49c-.29.12-.72.22-1.29.3-.33.05-.56.1-.69.16s-.24.14-.31.26-.11.24-.11.38c0,.21.08.39.24.53.16.14.39.21.7.21s.58-.07.81-.2.41-.32.52-.55c.08-.18.13-.44.13-.79v-.29Z"/><path d="M207.31,178.83v-4.67h.71v.66c.34-.51.84-.77,1.49-.77.28,0,.54.05.78.15.24.1.41.23.53.4s.2.36.25.58c.03.15.04.4.04.77v2.87h-.79v-2.84c0-.32-.03-.56-.09-.72s-.17-.29-.33-.38c-.16-.09-.34-.14-.55-.14-.34,0-.63.11-.87.32-.25.21-.37.62-.37,1.22v2.55h-.79Z"/><path d="M212.17,179.22l.77.11c.03.24.12.41.27.52.2.15.46.22.8.22.37,0,.65-.07.85-.22s.33-.35.4-.62c.04-.16.06-.5.06-1.02-.35.41-.78.61-1.29.61-.64,0-1.14-.23-1.49-.69s-.53-1.02-.53-1.67c0-.45.08-.86.24-1.23.16-.38.39-.67.7-.87.31-.21.67-.31,1.08-.31.55,0,1,.22,1.36.67v-.56h.73v4.03c0,.73-.07,1.24-.22,1.54-.15.3-.38.54-.7.72-.32.18-.72.26-1.18.26-.56,0-1.01-.13-1.35-.38-.34-.25-.51-.63-.5-1.13ZM212.83,176.41c0,.61.12,1.06.36,1.34s.55.42.91.42.67-.14.91-.42.37-.72.37-1.32-.13-1-.38-1.29c-.25-.29-.56-.44-.92-.44s-.65.14-.9.43c-.25.29-.37.71-.37,1.27Z"/><path d="M217.33,173.3v-.91h.79v.91h-.79ZM217.33,178.83v-4.67h.79v4.67h-.79Z"/><path d="M219.32,178.83v-4.67h.71v.66c.34-.51.84-.77,1.49-.77.28,0,.54.05.78.15.24.1.41.23.53.4s.2.36.25.58c.03.15.04.4.04.77v2.87h-.79v-2.84c0-.32-.03-.56-.09-.72s-.17-.29-.33-.38c-.16-.09-.34-.14-.55-.14-.34,0-.63.11-.87.32-.24.21-.37.62-.37,1.22v2.55h-.79Z"/><path d="M224.18,179.22l.77.11c.03.24.12.41.27.52.2.15.46.22.8.22.37,0,.65-.07.85-.22s.33-.35.4-.62c.04-.16.06-.5.06-1.02-.35.41-.78.61-1.29.61-.64,0-1.14-.23-1.49-.69s-.53-1.02-.53-1.67c0-.45.08-.86.24-1.23.16-.38.39-.67.7-.87.31-.21.67-.31,1.08-.31.55,0,1,.22,1.36.67v-.56h.73v4.03c0,.73-.07,1.24-.22,1.54-.15.3-.38.54-.7.72-.32.18-.72.26-1.18.26-.56,0-1.01-.13-1.35-.38-.34-.25-.51-.63-.5-1.13ZM224.84,176.41c0,.61.12,1.06.37,1.34s.55.42.91.42.67-.14.91-.42.37-.72.37-1.32-.13-1-.38-1.29c-.25-.29-.56-.44-.92-.44s-.65.14-.9.43c-.25.29-.37.71-.37,1.27Z"/><path d="M229.54,178.83v-.9h.9v.9c0,.33-.06.6-.18.8s-.3.36-.56.47l-.22-.34c.17-.07.29-.18.37-.32.08-.14.12-.35.13-.61h-.45Z"/><path d="M237.38,178.25c-.29.25-.58.42-.85.53-.27.1-.56.15-.87.15-.51,0-.91-.12-1.18-.38-.28-.25-.41-.57-.41-.96,0-.23.05-.44.16-.63.1-.19.24-.34.41-.46.17-.11.36-.2.57-.26.16-.04.39-.08.7-.12.64-.08,1.11-.17,1.41-.27,0-.11,0-.18,0-.21,0-.32-.07-.55-.22-.68-.2-.18-.5-.27-.9-.27-.37,0-.65.07-.82.2-.18.13-.31.36-.39.69l-.77-.11c.07-.33.19-.6.35-.8.16-.2.39-.36.7-.47.3-.11.66-.17,1.06-.17s.72.05.97.14.43.21.55.35c.12.14.2.32.25.54.03.13.04.38.04.73v1.05c0,.74.02,1.2.05,1.4.03.2.1.38.2.56h-.83c-.08-.16-.13-.36-.16-.58ZM237.31,176.49c-.29.12-.72.22-1.29.3-.33.05-.56.1-.69.16s-.24.14-.31.26-.11.24-.11.38c0,.21.08.39.24.53.16.14.39.21.7.21s.58-.07.81-.2.41-.32.52-.55c.08-.18.13-.44.13-.79v-.29Z"/><path d="M239.34,178.83v-4.67h.71v.66c.34-.51.84-.77,1.49-.77.28,0,.54.05.78.15.24.1.41.23.53.4s.2.36.25.58c.03.15.04.4.04.77v2.87h-.79v-2.84c0-.32-.03-.56-.09-.72s-.17-.29-.33-.38c-.16-.09-.34-.14-.55-.14-.34,0-.63.11-.87.32-.25.21-.37.62-.37,1.22v2.55h-.79Z"/><path d="M247.37,178.83v-.59c-.3.46-.73.69-1.3.69-.37,0-.71-.1-1.03-.31-.31-.21-.55-.49-.73-.86-.17-.37-.26-.79-.26-1.27s.08-.89.23-1.27.39-.67.7-.87.66-.3,1.04-.3c.28,0,.53.06.75.18.22.12.4.27.54.46v-2.31h.79v6.44h-.73ZM244.87,176.5c0,.6.13,1.04.38,1.34s.55.44.89.44.64-.14.88-.42c.24-.28.36-.71.36-1.29,0-.64-.12-1.11-.37-1.41s-.55-.45-.91-.45-.65.14-.88.43c-.24.29-.35.74-.35,1.36Z"/><path d="M254.88,178.83v-.59c-.3.46-.73.69-1.3.69-.37,0-.71-.1-1.03-.31-.31-.21-.55-.49-.73-.86-.17-.37-.26-.79-.26-1.27s.08-.89.23-1.27.39-.67.7-.87.66-.3,1.04-.3c.28,0,.53.06.75.18.22.12.4.27.54.46v-2.31h.79v6.44h-.73ZM252.38,176.5c0,.6.13,1.04.38,1.34s.55.44.89.44.64-.14.88-.42c.24-.28.36-.71.36-1.29,0-.64-.12-1.11-.37-1.41s-.55-.45-.91-.45-.65.14-.88.43c-.24.29-.35.74-.35,1.36Z"/><path d="M260.05,177.33l.82.1c-.13.48-.37.85-.72,1.11s-.79.4-1.34.4c-.68,0-1.22-.21-1.62-.63-.4-.42-.6-1.01-.6-1.77s.2-1.39.61-1.83.93-.65,1.57-.65,1.13.21,1.53.64.59,1.02.59,1.79c0,.05,0,.12,0,.21h-3.48c.03.51.17.91.44,1.18s.59.41.98.41c.29,0,.54-.08.74-.23s.37-.4.49-.73ZM257.45,176.05h2.61c-.04-.39-.13-.69-.3-.88-.25-.3-.58-.46-.98-.46-.36,0-.67.12-.92.36-.25.24-.38.57-.41.98Z"/><path d="M261.84,178.83v-6.44h.79v6.44h-.79Z"/><path d="M267.06,177.33l.82.1c-.13.48-.37.85-.72,1.11s-.79.4-1.34.4c-.68,0-1.22-.21-1.62-.63-.4-.42-.6-1.01-.6-1.77s.2-1.39.61-1.83.93-.65,1.57-.65,1.13.21,1.53.64.59,1.02.59,1.79c0,.05,0,.12,0,.21h-3.48c.03.51.17.91.44,1.18s.59.41.98.41c.29,0,.54-.08.74-.23s.37-.4.49-.73ZM264.46,176.05h2.61c-.04-.39-.13-.69-.3-.88-.25-.3-.58-.46-.98-.46-.36,0-.67.12-.92.36-.25.24-.38.57-.41.98Z"/><path d="M270.59,178.12l.11.7c-.22.05-.42.07-.6.07-.29,0-.51-.05-.67-.14s-.27-.21-.33-.36-.1-.46-.1-.93v-2.69h-.58v-.62h.58v-1.16l.79-.47v1.63h.79v.62h-.79v2.73c0,.23.01.37.04.44.03.06.07.12.14.15.06.04.15.06.27.06.09,0,.2-.01.35-.03Z"/><path d="M271.37,173.3v-.91h.79v.91h-.79ZM271.37,178.83v-4.67h.79v4.67h-.79Z"/><path d="M273.37,178.83v-4.67h.71v.66c.34-.51.84-.77,1.49-.77.28,0,.54.05.78.15.24.1.41.23.53.4s.2.36.25.58c.03.15.04.4.04.77v2.87h-.79v-2.84c0-.32-.03-.56-.09-.72s-.17-.29-.33-.38c-.16-.09-.34-.14-.55-.14-.34,0-.63.11-.87.32-.24.21-.37.62-.37,1.22v2.55h-.79Z"/><path d="M278.23,179.22l.77.11c.03.24.12.41.27.52.2.15.46.22.8.22.37,0,.65-.07.85-.22s.33-.35.4-.62c.04-.16.06-.5.06-1.02-.35.41-.78.61-1.29.61-.64,0-1.14-.23-1.49-.69s-.53-1.02-.53-1.67c0-.45.08-.86.24-1.23.16-.38.39-.67.7-.87.31-.21.67-.31,1.08-.31.55,0,1,.22,1.36.67v-.56h.73v4.03c0,.73-.07,1.24-.22,1.54-.15.3-.38.54-.7.72-.32.18-.72.26-1.18.26-.56,0-1.01-.13-1.35-.38-.34-.25-.51-.63-.5-1.13ZM278.88,176.41c0,.61.12,1.06.37,1.34s.55.42.91.42.67-.14.91-.42.37-.72.37-1.32-.13-1-.38-1.29c-.25-.29-.56-.44-.92-.44s-.65.14-.9.43c-.25.29-.37.71-.37,1.27Z"/><path d="M288.92,177.12l.78.1c-.08.54-.3.96-.65,1.26-.35.3-.78.46-1.29.46-.64,0-1.15-.21-1.54-.63-.39-.42-.58-1.02-.58-1.8,0-.5.08-.94.25-1.32s.42-.66.76-.85c.34-.19.71-.28,1.11-.28.51,0,.92.13,1.24.38s.53.62.62,1.09l-.77.12c-.07-.31-.2-.55-.39-.71-.19-.16-.41-.24-.67-.24-.4,0-.72.14-.97.43-.25.29-.37.74-.37,1.36s.12,1.08.36,1.37.55.43.94.43c.31,0,.57-.1.78-.29s.34-.48.4-.88Z"/><path d="M290.08,176.5c0-.86.24-1.5.72-1.92.4-.35.89-.52,1.47-.52.64,0,1.17.21,1.57.63s.61,1,.61,1.74c0,.6-.09,1.07-.27,1.42-.18.34-.44.61-.79.8-.34.19-.72.29-1.13.29-.65,0-1.18-.21-1.58-.63-.4-.42-.6-1.02-.6-1.81ZM290.89,176.5c0,.6.13,1.05.39,1.34.26.3.59.45.98.45s.72-.15.98-.45.39-.75.39-1.37c0-.58-.13-1.01-.39-1.31-.26-.3-.59-.45-.98-.45s-.72.15-.98.44-.39.74-.39,1.34Z"/><path d="M295.38,178.83v-4.67h.71v.66c.34-.51.84-.77,1.49-.77.28,0,.54.05.78.15.24.1.41.23.53.4s.2.36.25.58c.03.15.04.4.04.77v2.87h-.79v-2.84c0-.32-.03-.56-.09-.72s-.17-.29-.33-.38c-.16-.09-.34-.14-.55-.14-.34,0-.63.11-.87.32-.24.21-.37.62-.37,1.22v2.55h-.79Z"/><path d="M302.11,178.12l.11.7c-.22.05-.42.07-.6.07-.29,0-.51-.05-.67-.14s-.27-.21-.33-.36-.1-.46-.1-.93v-2.69h-.58v-.62h.58v-1.16l.79-.47v1.63h.8v.62h-.8v2.73c0,.23.01.37.04.44.03.06.07.12.14.15.06.04.15.06.27.06.09,0,.2-.01.35-.03Z"/><path d="M306.08,177.33l.82.1c-.13.48-.37.85-.72,1.11s-.79.4-1.34.4c-.68,0-1.22-.21-1.62-.63-.4-.42-.6-1.01-.6-1.77s.2-1.39.61-1.83.93-.65,1.57-.65,1.13.21,1.53.64.59,1.02.59,1.79c0,.05,0,.12,0,.21h-3.48c.03.51.17.91.43,1.18s.59.41.98.41c.29,0,.54-.08.74-.23s.37-.4.49-.73ZM303.49,176.05h2.61c-.04-.39-.13-.69-.3-.88-.25-.3-.58-.46-.98-.46-.36,0-.67.12-.92.36-.25.24-.38.57-.41.98Z"/><path d="M307.89,178.83v-4.67h.71v.66c.34-.51.84-.77,1.49-.77.28,0,.54.05.78.15.24.1.41.23.53.4s.2.36.25.58c.03.15.04.4.04.77v2.87h-.79v-2.84c0-.32-.03-.56-.09-.72s-.17-.29-.33-.38c-.16-.09-.34-.14-.55-.14-.34,0-.63.11-.87.32-.25.21-.37.62-.37,1.22v2.55h-.79Z"/><path d="M314.63,178.12l.11.7c-.22.05-.42.07-.6.07-.29,0-.51-.05-.67-.14s-.27-.21-.33-.36-.1-.46-.1-.93v-2.69h-.58v-.62h.58v-1.16l.79-.47v1.63h.79v.62h-.79v2.73c0,.23.01.37.04.44.03.06.07.12.14.15.06.04.15.06.27.06.09,0,.2-.01.35-.03Z"/><path d="M318.63,178.83h-.73v-6.44h.79v2.3c.33-.42.76-.63,1.28-.63.29,0,.56.06.81.17.26.12.47.28.63.49.17.21.3.46.39.76s.14.61.14.95c0,.8-.2,1.42-.59,1.85s-.87.65-1.42.65-.98-.23-1.3-.69v.58ZM318.62,176.46c0,.56.08.96.23,1.21.25.41.59.61,1.01.61.35,0,.64-.15.9-.45s.38-.75.38-1.34-.12-1.06-.36-1.35c-.24-.29-.53-.44-.88-.44s-.64.15-.9.45c-.25.3-.38.73-.38,1.3Z"/><path d="M322.89,178.83v-6.44h.79v6.44h-.79Z"/><path d="M324.61,176.5c0-.86.24-1.5.72-1.92.4-.35.89-.52,1.47-.52.64,0,1.17.21,1.57.63s.61,1,.61,1.74c0,.6-.09,1.07-.27,1.42-.18.34-.44.61-.79.8-.34.19-.72.29-1.13.29-.65,0-1.18-.21-1.58-.63-.4-.42-.6-1.02-.6-1.81ZM325.42,176.5c0,.6.13,1.05.39,1.34.26.3.59.45.98.45s.72-.15.98-.45.39-.75.39-1.37c0-.58-.13-1.01-.39-1.31-.26-.3-.59-.45-.98-.45s-.72.15-.98.44-.39.74-.39,1.34Z"/><path d="M332.96,177.12l.78.1c-.08.54-.3.96-.65,1.26-.35.3-.78.46-1.29.46-.64,0-1.15-.21-1.54-.63-.39-.42-.58-1.02-.58-1.8,0-.5.08-.94.25-1.32s.42-.66.76-.85c.34-.19.71-.28,1.11-.28.51,0,.92.13,1.24.38s.53.62.62,1.09l-.77.12c-.07-.31-.2-.55-.39-.71-.19-.16-.41-.24-.67-.24-.4,0-.72.14-.97.43-.25.29-.37.74-.37,1.36s.12,1.08.36,1.37.55.43.94.43c.31,0,.57-.1.78-.29s.34-.48.4-.88Z"/><path d="M334.41,178.83v-6.44h.79v3.67l1.87-1.9h1.02l-1.78,1.73,1.96,2.94h-.98l-1.54-2.39-.56.54v1.85h-.79Z"/><path d="M338.59,177.44l.78-.12c.04.31.17.55.37.72.2.17.48.25.84.25s.63-.07.81-.22.26-.32.26-.52c0-.18-.08-.32-.23-.42-.11-.07-.38-.16-.81-.27-.58-.15-.98-.27-1.21-.38-.22-.11-.39-.25-.51-.44-.12-.19-.17-.4-.17-.63,0-.21.05-.4.14-.58.09-.18.22-.32.39-.44.12-.09.29-.17.5-.23.21-.06.44-.09.68-.09.37,0,.69.05.96.16.28.11.48.25.61.43.13.18.22.42.27.72l-.77.11c-.04-.24-.14-.43-.3-.56-.17-.13-.41-.2-.71-.2-.36,0-.62.06-.78.18s-.23.26-.23.42c0,.1.03.19.1.28.06.08.17.16.3.21.08.03.31.1.7.2.56.15.95.27,1.17.37.22.1.39.23.52.42s.19.41.19.68-.08.51-.23.75c-.15.23-.38.41-.67.54-.29.13-.62.19-.98.19-.61,0-1.07-.13-1.39-.38-.32-.25-.52-.63-.61-1.12Z"/><path d="M343.63,178.83v-.9h.9v.9h-.9Z"/><rect x="93" y="199.35" width="310" height="120" style="fill:#f6f6f4;"/><path d="M236.83,273.35c-.81,0-1.48-.27-2.02-.81s-.81-1.21-.81-2.02v-22.34c0-.81.27-1.48.81-2.02s1.21-.81,2.02-.81h11.37c.25,0,.46.08.62.25s.25.38.25.62-.08.46-.25.62-.38.25-.62.25h-11.37c-.31,0-.57.1-.77.3-.2.2-.3.46-.3.77v22.34c0,.31.1.57.3.77.2.2.46.3.77.3h22.34c.31,0,.57-.1.77-.3.2-.2.3-.46.3-.77v-11.37c0-.25.08-.46.25-.62s.38-.25.62-.25.46.08.62.25.25.38.25.62v11.37c0,.81-.27,1.48-.81,2.02s-1.21.81-2.02.81h-22.34ZM238.85,267.02h18.31l-5.65-7.54-5.25,6.63-3.5-4.21-3.9,5.11ZM256.75,250.6h-2.62c-.25,0-.46-.08-.62-.25s-.25-.38-.25-.62.08-.46.25-.62.38-.25.62-.25h2.62v-2.62c0-.25.08-.46.25-.62s.38-.25.62-.25.46.08.62.25.25.38.25.62v2.62h2.62c.25,0,.46.08.62.25s.25.38.25.62-.08.46-.25.62-.38.25-.62.25h-2.62v2.62c0,.25-.08.46-.25.62s-.38.25-.62.25-.46-.08-.62-.25-.25-.38-.25-.62v-2.62Z" style="fill:#afafae;"/><rect x="200.5" y="334.85" width="95" height="30"/><path d="M221.71,353.25h-1.42l-.56-1.46h-2.58l-.53,1.46h-1.38l2.51-6.44h1.38l2.58,6.44ZM219.32,350.7l-.89-2.39-.87,2.39h1.76Z" style="fill:#fff;"/><path d="M226.68,353.25h-1.15v-.69c-.19.27-.42.47-.67.6-.26.13-.52.2-.78.2-.54,0-1-.22-1.38-.65-.38-.43-.57-1.03-.57-1.81s.19-1.39.56-1.8c.37-.41.84-.62,1.41-.62.52,0,.97.22,1.35.65v-2.32h1.23v6.44ZM223.38,350.81c0,.5.07.86.21,1.08.2.32.48.48.83.48.28,0,.53-.12.73-.36.2-.24.3-.6.3-1.08,0-.54-.1-.92-.29-1.16s-.44-.35-.74-.35-.54.12-.74.35c-.2.23-.3.58-.3,1.04Z" style="fill:#fff;"/><path d="M232.17,353.25h-1.15v-.69c-.19.27-.42.47-.67.6-.26.13-.52.2-.78.2-.54,0-1-.22-1.38-.65-.38-.43-.57-1.03-.57-1.81s.19-1.39.56-1.8c.37-.41.84-.62,1.41-.62.52,0,.97.22,1.35.65v-2.32h1.23v6.44ZM228.88,350.81c0,.5.07.86.21,1.08.2.32.48.48.83.48.28,0,.53-.12.73-.36.2-.24.3-.6.3-1.08,0-.54-.1-.92-.29-1.16s-.44-.35-.74-.35-.54.12-.74.35c-.2.23-.3.58-.3,1.04Z" style="fill:#fff;"/><path d="M235.84,353.25v-6.44h1.23v2.32c.38-.43.83-.65,1.35-.65.57,0,1.04.21,1.41.62.37.41.56,1,.56,1.77s-.19,1.41-.57,1.84-.84.65-1.38.65c-.27,0-.53-.07-.79-.2-.26-.13-.48-.33-.67-.59v.69h-1.15ZM237.06,350.81c0,.48.08.84.23,1.07.21.33.5.49.85.49.27,0,.5-.12.7-.35.19-.23.29-.6.29-1.1,0-.53-.1-.92-.29-1.15s-.44-.35-.74-.35-.54.12-.74.35-.29.58-.29,1.05Z" style="fill:#fff;"/><path d="M244.46,353.25v-.7c-.17.25-.39.45-.67.59-.28.14-.57.22-.88.22s-.59-.07-.84-.21-.43-.33-.54-.58-.17-.59-.17-1.03v-2.95h1.24v2.14c0,.66.02,1.06.07,1.21.04.15.13.27.25.35.12.09.27.13.46.13.21,0,.4-.06.57-.17.17-.12.28-.26.34-.43.06-.17.09-.59.09-1.26v-1.97h1.23v4.67h-1.15Z" style="fill:#fff;"/><path d="M249.03,348.58v.98h-.84v1.88c0,.38,0,.6.02.67.02.06.05.11.11.16.06.04.13.06.21.06.11,0,.28-.04.5-.12l.11.96c-.29.12-.61.18-.98.18-.22,0-.42-.04-.6-.11-.18-.07-.31-.17-.39-.29-.08-.12-.14-.28-.17-.48-.03-.14-.04-.43-.04-.87v-2.03h-.57v-.98h.57v-.93l1.24-.72v1.65h.84Z" style="fill:#fff;"/><path d="M252.02,348.58v.98h-.84v1.88c0,.38,0,.6.02.67.02.06.05.11.11.16.06.04.13.06.21.06.11,0,.28-.04.5-.12l.11.96c-.29.12-.61.18-.98.18-.22,0-.42-.04-.6-.11-.18-.07-.31-.17-.39-.29-.08-.12-.14-.28-.17-.48-.03-.14-.04-.43-.04-.87v-2.03h-.57v-.98h.57v-.93l1.24-.72v1.65h.84Z" style="fill:#fff;"/><path d="M252.59,350.85c0-.41.1-.81.3-1.19s.49-.68.86-.88c.37-.2.79-.3,1.24-.3.71,0,1.28.23,1.74.69.45.46.68,1.04.68,1.74s-.23,1.29-.68,1.76c-.46.46-1.03.7-1.72.7-.43,0-.84-.1-1.22-.29-.39-.19-.68-.48-.88-.85-.2-.37-.3-.83-.3-1.36ZM253.86,350.91c0,.46.11.82.33,1.06s.49.37.81.37.59-.12.81-.37c.22-.25.33-.6.33-1.07s-.11-.81-.33-1.05c-.22-.25-.49-.37-.81-.37s-.59.12-.81.37-.33.6-.33,1.06Z" style="fill:#fff;"/><path d="M262.62,353.25h-1.23v-2.38c0-.5-.03-.83-.08-.98s-.14-.26-.26-.35c-.12-.08-.26-.12-.43-.12-.21,0-.41.06-.58.18s-.29.27-.35.47c-.06.19-.09.55-.09,1.07v2.11h-1.24v-4.67h1.15v.69c.41-.53.92-.79,1.54-.79.27,0,.52.05.75.15s.4.22.51.38c.12.15.2.33.24.52.04.19.07.47.07.83v2.9Z" style="fill:#fff;"/><path d="M268.52,348.58v.98h-.84v1.88c0,.38,0,.6.02.67.02.06.05.11.11.16.06.04.13.06.21.06.11,0,.28-.04.5-.12l.11.96c-.29.12-.61.18-.98.18-.22,0-.42-.04-.6-.11-.18-.07-.31-.17-.39-.29-.08-.12-.14-.28-.17-.48-.03-.14-.04-.43-.04-.87v-2.03h-.57v-.98h.57v-.93l1.24-.72v1.65h.84Z" style="fill:#fff;"/><path d="M272.08,351.76l1.23.21c-.16.45-.41.79-.75,1.03-.34.24-.77.35-1.28.35-.81,0-1.41-.27-1.8-.8-.31-.42-.46-.96-.46-1.61,0-.77.2-1.38.61-1.82s.92-.66,1.53-.66c.69,0,1.24.23,1.64.69.4.46.59,1.16.58,2.11h-3.09c0,.37.11.65.3.85.19.2.43.31.71.31.19,0,.36-.05.49-.16s.23-.28.3-.51ZM272.15,350.51c0-.36-.1-.63-.28-.82-.18-.19-.39-.28-.64-.28-.27,0-.49.1-.67.29s-.26.46-.26.8h1.85Z" style="fill:#fff;"/><path d="M273.78,353.25l1.68-2.4-1.61-2.26h1.51l.83,1.28.87-1.28h1.45l-1.58,2.21,1.73,2.46h-1.52l-.95-1.45-.96,1.45h-1.45Z" style="fill:#fff;"/><path d="M281.52,348.58v.98h-.84v1.88c0,.38,0,.6.02.67.02.06.05.11.11.16.06.04.13.06.21.06.11,0,.28-.04.5-.12l.11.96c-.29.12-.61.18-.98.18-.22,0-.42-.04-.6-.11-.18-.07-.31-.17-.39-.29-.08-.12-.14-.28-.17-.48-.03-.14-.04-.43-.04-.87v-2.03h-.57v-.98h.57v-.93l1.24-.72v1.65h.84Z" style="fill:#fff;"/><line x1="75" y1="384.85" x2="421" y2="384.85" style="fill:none; stroke:#000; stroke-miterlimit:10;"/><path d="M260.09,449.35h-24.18c-1.82,0-3.49.97-4.4,2.54l-12.09,20.94c-.91,1.57-.91,3.51,0,5.08l12.09,20.94c.91,1.57,2.59,2.54,4.4,2.54h24.18c1.82,0,3.49-.97,4.4-2.54l12.09-20.94c.91-1.57.91-3.51,0-5.08l-12.09-20.94c-.91-1.57-2.59-2.54-4.4-2.54Z" style="fill:none; stroke:#211b13; stroke-miterlimit:10; stroke-width:3.11px;"/><path d="M241.71,486.72c-2.01-1.11-3.58-2.63-4.73-4.57-1.14-1.94-1.71-4.12-1.71-6.54s.57-4.61,1.71-6.54c1.14-1.94,2.72-3.46,4.74-4.56,2.02-1.11,4.28-1.66,6.78-1.66,1.95,0,3.73.33,5.35.98,1.62.65,3,1.62,4.14,2.91l-2.32,2.25c-1.88-1.97-4.22-2.96-7.03-2.96-1.85,0-3.53.42-5.03,1.25-1.5.83-2.67,1.98-3.51,3.44-.84,1.46-1.27,3.1-1.27,4.9s.42,3.44,1.27,4.9,2.02,2.61,3.51,3.44c1.5.83,3.17,1.25,5.03,1.25,2.78,0,5.12-1,7.03-3l2.32,2.25c-1.14,1.28-2.53,2.26-4.16,2.92-1.63.67-3.42,1-5.37,1-2.5,0-4.75-.55-6.76-1.66Z" style="fill:#211b13;"/><circle cx="199.34" cy="414.06" r="12"/><path d="M200.07,410.35c0-.52.47-.71.99-.71s1.08.16,1.08.16l.34-1.99s-.71-.24-2.41-.24c-1.04,0-1.65.4-2.09.98-.42.55-.43,1.44-.43,2.02v1.31h-1.35v1.94h1.35v6.75h2.52v-6.75h2l.15-1.94h-2.14v-1.52Z" style="fill:#fff;"/><circle cx="248" cy="413.75" r="12"/><path d="M248,417.02c1.81,0,3.27-1.47,3.27-3.27s-1.47-3.27-3.27-3.27-3.27,1.47-3.27,3.27,1.47,3.27,3.27,3.27ZM248,415.93c1.2,0,2.18-.98,2.18-2.18s-.98-2.18-2.18-2.18-2.18.98-2.18,2.18.98,2.18,2.18,2.18Z" style="fill:#fff; fill-rule:evenodd;"/><path d="M251.27,409.93c-.3,0-.55.24-.55.55s.24.55.55.55.55-.24.55-.55-.24-.55-.55-.55Z" style="fill:#fff;"/><path d="M242.36,409.54c-.36.7-.36,1.62-.36,3.45v1.53c0,1.83,0,2.75.36,3.45.31.62.81,1.12,1.43,1.43.7.36,1.62.36,3.45.36h1.53c1.83,0,2.75,0,3.45-.36.62-.31,1.12-.81,1.43-1.43.36-.7.36-1.62.36-3.45v-1.53c0-1.83,0-2.75-.36-3.45-.31-.62-.81-1.12-1.43-1.43-.7-.36-1.62-.36-3.45-.36h-1.53c-1.83,0-2.75,0-3.45.36-.62.31-1.12.81-1.43,1.43ZM248.76,408.84h-1.53c-.93,0-1.57,0-2.06.04-.48.04-.72.11-.89.2-.41.21-.74.54-.95.95-.09.17-.16.42-.2.89-.04.49-.04,1.13-.04,2.06v1.53c0,.93,0,1.57.04,2.06.04.48.11.72.2.89.21.41.54.74.95.95.17.09.42.16.89.2.49.04,1.13.04,2.06.04h1.53c.93,0,1.57,0,2.06-.04.48-.04.72-.11.89-.2.41-.21.74-.54.95-.95.09-.17.16-.42.2-.89.04-.49.04-1.13.04-2.06v-1.53c0-.93,0-1.57-.04-2.06-.04-.48-.11-.72-.2-.89-.21-.41-.54-.74-.95-.95-.17-.09-.42-.16-.89-.2-.49-.04-1.13-.04-2.06-.04Z" style="fill:#fff; fill-rule:evenodd;"/><circle cx="296.66" cy="414.1" r="12"/><path d="M297.66,413.28l3.91-4.54h-.93l-3.39,3.94-2.71-3.94h-3.12l4.1,5.96-4.1,4.76h.93l3.58-4.16,2.86,4.16h3.12l-4.25-6.18h0ZM296.39,414.75l-.41-.59-3.3-4.72h1.42l2.66,3.81.41.59,3.46,4.95h-1.42l-2.83-4.04h0Z" style="fill:#fff;"/><path d="M162.51,527.5l-1.54-6.07h.83l.72,3.07c.18.76.34,1.51.45,2.1h.02c.1-.6.29-1.32.5-2.11l.81-3.06h.82l.74,3.08c.17.72.33,1.44.42,2.08h.02c.13-.67.3-1.34.49-2.1l.8-3.06h.8l-1.72,6.07h-.82l-.77-3.16c-.19-.77-.31-1.37-.4-1.98h-.02c-.11.6-.24,1.2-.47,1.98l-.86,3.16h-.82Z"/><path d="M171.23,527.5l-.06-.55h-.03c-.24.34-.71.65-1.33.65-.88,0-1.33-.62-1.33-1.25,0-1.05.94-1.63,2.62-1.62v-.09c0-.36-.1-1.01-.99-1.01-.41,0-.83.13-1.13.32l-.18-.52c.36-.23.88-.39,1.43-.39,1.33,0,1.66.91,1.66,1.78v1.63c0,.38.02.75.07,1.04h-.72ZM171.11,525.28c-.86-.02-1.85.13-1.85.98,0,.51.34.76.75.76.57,0,.93-.36,1.05-.73.03-.08.04-.17.04-.25v-.76Z"/><path d="M173.15,524.33c0-.45,0-.82-.04-1.18h.7l.05.72h.02c.22-.41.72-.82,1.44-.82.6,0,1.54.36,1.54,1.85v2.6h-.79v-2.51c0-.7-.26-1.29-1.01-1.29-.52,0-.93.37-1.06.81-.04.1-.05.23-.05.37v2.62h-.79v-3.18Z"/><path d="M179.07,521.9v1.25h1.13v.6h-1.13v2.35c0,.54.15.85.59.85.21,0,.36-.03.46-.05l.04.59c-.15.06-.4.11-.7.11-.37,0-.67-.12-.85-.33-.23-.23-.31-.62-.31-1.13v-2.38h-.68v-.6h.68v-1.04l.77-.21Z"/><path d="M183.95,521.9v1.25h1.13v.6h-1.13v2.35c0,.54.15.85.59.85.21,0,.36-.03.46-.05l.04.59c-.15.06-.4.11-.7.11-.37,0-.67-.12-.85-.33-.23-.23-.31-.62-.31-1.13v-2.38h-.68v-.6h.68v-1.04l.77-.21Z"/><path d="M189.87,525.29c0,1.61-1.12,2.31-2.17,2.31-1.18,0-2.09-.86-2.09-2.24,0-1.46.95-2.31,2.16-2.31s2.1.91,2.1,2.24ZM186.41,525.34c0,.95.55,1.67,1.32,1.67s1.32-.71,1.32-1.69c0-.74-.37-1.67-1.31-1.67s-1.34.86-1.34,1.69Z"/><path d="M195.88,527.34c-.21.11-.67.25-1.25.25-1.31,0-2.17-.89-2.17-2.22s.92-2.31,2.34-2.31c.47,0,.88.12,1.1.23l-.18.61c-.19-.11-.49-.21-.92-.21-1,0-1.54.74-1.54,1.65,0,1.01.65,1.63,1.51,1.63.45,0,.75-.12.97-.22l.14.59Z"/><path d="M196.8,521.11h.79v2.72h.02c.13-.23.32-.42.57-.56.23-.13.51-.23.81-.23.59,0,1.52.36,1.52,1.86v2.59h-.79v-2.5c0-.7-.26-1.3-1.01-1.3-.51,0-.92.36-1.06.79-.04.11-.05.23-.05.38v2.63h-.79v-6.39Z"/><path d="M204.21,527.5l-.06-.55h-.03c-.24.34-.71.65-1.33.65-.88,0-1.33-.62-1.33-1.25,0-1.05.94-1.63,2.62-1.62v-.09c0-.36-.1-1.01-.99-1.01-.4,0-.83.13-1.13.32l-.18-.52c.36-.23.88-.39,1.43-.39,1.33,0,1.66.91,1.66,1.78v1.63c0,.38.02.75.07,1.04h-.72ZM204.1,525.28c-.86-.02-1.85.13-1.85.98,0,.51.34.76.75.76.57,0,.93-.36,1.05-.73.03-.08.05-.17.05-.25v-.76Z"/><path d="M206.14,524.33c0-.45,0-.82-.04-1.18h.7l.04.72h.02c.22-.41.72-.82,1.44-.82.6,0,1.54.36,1.54,1.85v2.6h-.79v-2.51c0-.7-.26-1.29-1.01-1.29-.52,0-.93.37-1.06.81-.04.1-.05.23-.05.37v2.62h-.79v-3.18Z"/><path d="M214.89,523.15c-.02.32-.04.67-.04,1.2v2.53c0,1-.2,1.61-.62,1.99-.42.4-1.04.52-1.58.52s-1.1-.13-1.45-.36l.2-.6c.29.18.74.34,1.28.34.81,0,1.4-.42,1.4-1.52v-.49h-.02c-.24.4-.71.73-1.39.73-1.08,0-1.85-.92-1.85-2.12,0-1.48.96-2.31,1.96-2.31.76,0,1.17.4,1.36.76h.02l.04-.66h.69ZM214.07,524.87c0-.14,0-.25-.05-.36-.14-.46-.53-.84-1.11-.84-.76,0-1.3.64-1.3,1.65,0,.85.43,1.57,1.29,1.57.49,0,.93-.31,1.1-.81.05-.13.06-.29.06-.42v-.78Z"/><path d="M216.6,525.47c.02,1.07.7,1.51,1.49,1.51.57,0,.91-.1,1.21-.23l.13.57c-.28.13-.76.27-1.45.27-1.34,0-2.14-.88-2.14-2.2s.77-2.35,2.04-2.35c1.42,0,1.8,1.25,1.8,2.05,0,.16-.02.29-.03.37h-3.06ZM218.93,524.9c0-.5-.21-1.29-1.1-1.29-.8,0-1.15.74-1.22,1.29h2.31Z"/><path d="M222.58,521.11h.79v2.72h.02c.13-.23.32-.42.57-.56.23-.13.51-.23.81-.23.59,0,1.52.36,1.52,1.86v2.59h-.79v-2.5c0-.7-.26-1.3-1.01-1.3-.51,0-.92.36-1.06.79-.04.11-.05.23-.05.38v2.63h-.79v-6.39Z"/><path d="M231.52,525.29c0,1.61-1.12,2.31-2.17,2.31-1.18,0-2.09-.86-2.09-2.24,0-1.46.95-2.31,2.16-2.31s2.1.91,2.1,2.24ZM228.06,525.34c0,.95.55,1.67,1.32,1.67s1.32-.71,1.32-1.69c0-.74-.37-1.67-1.31-1.67s-1.34.86-1.34,1.69Z"/><path d="M232.77,523.15l.58,2.21c.13.49.24.94.32,1.39h.03c.1-.44.24-.91.39-1.38l.71-2.22h.67l.68,2.18c.16.52.29.98.39,1.42h.03c.07-.44.19-.9.33-1.41l.62-2.19h.78l-1.4,4.36h-.72l-.67-2.08c-.15-.49-.28-.92-.39-1.43h-.02c-.11.52-.24.97-.4,1.44l-.7,2.07h-.72l-1.31-4.36h.81Z"/><path d="M241.27,523.15l.95,2.57c.1.29.21.63.28.89h.02c.08-.26.17-.59.28-.91l.86-2.56h.84l-1.19,3.11c-.57,1.49-.95,2.26-1.49,2.73-.39.34-.77.48-.97.51l-.2-.67c.2-.06.46-.19.69-.39.22-.17.49-.48.67-.88.04-.08.06-.14.06-.19s-.02-.11-.05-.21l-1.61-4.02h.86Z"/><path d="M249.08,525.29c0,1.61-1.12,2.31-2.17,2.31-1.18,0-2.09-.86-2.09-2.24,0-1.46.95-2.31,2.16-2.31s2.1.91,2.1,2.24ZM245.62,525.34c0,.95.55,1.67,1.32,1.67s1.32-.71,1.32-1.69c0-.74-.37-1.67-1.31-1.67s-1.34.86-1.34,1.69Z"/><path d="M253.72,526.32c0,.45,0,.85.04,1.19h-.7l-.04-.71h-.02c-.21.35-.67.81-1.44.81-.68,0-1.5-.38-1.5-1.91v-2.55h.79v2.41c0,.83.25,1.39.97,1.39.53,0,.9-.37,1.04-.72.04-.12.07-.26.07-.41v-2.67h.79v3.17Z"/><path d="M256.94,524.51c0-.51,0-.95-.04-1.36h.69l.03.86h.04c.2-.59.68-.95,1.21-.95.09,0,.15,0,.22.03v.75c-.08-.02-.16-.03-.27-.03-.56,0-.96.42-1.06,1.02-.02.11-.04.23-.04.37v2.32h-.78v-3Z"/><path d="M260.24,525.47c.02,1.07.7,1.51,1.49,1.51.57,0,.91-.1,1.21-.23l.14.57c-.28.13-.76.27-1.45.27-1.34,0-2.14-.88-2.14-2.2s.77-2.35,2.04-2.35c1.42,0,1.8,1.25,1.8,2.05,0,.16-.02.29-.03.37h-3.06ZM262.56,524.9c0-.5-.21-1.29-1.1-1.29-.8,0-1.15.74-1.21,1.29h2.31Z"/><path d="M267.41,527.34c-.21.11-.67.25-1.25.25-1.31,0-2.17-.89-2.17-2.22s.92-2.31,2.34-2.31c.47,0,.88.12,1.1.23l-.18.61c-.19-.11-.49-.21-.92-.21-1,0-1.54.74-1.54,1.65,0,1.01.65,1.63,1.51,1.63.45,0,.75-.12.97-.22l.13.59Z"/><path d="M268.72,525.47c.02,1.07.7,1.51,1.49,1.51.57,0,.91-.1,1.21-.23l.14.57c-.28.13-.76.27-1.45.27-1.34,0-2.14-.88-2.14-2.2s.77-2.35,2.04-2.35c1.42,0,1.8,1.25,1.8,2.05,0,.16-.02.29-.03.37h-3.06ZM271.05,524.9c0-.5-.21-1.29-1.1-1.29-.8,0-1.15.74-1.21,1.29h2.31Z"/><path d="M273.67,521.92c0,.27-.19.49-.5.49-.28,0-.48-.22-.48-.49s.21-.5.5-.5.49.22.49.5ZM272.79,527.5v-4.36h.79v4.36h-.79Z"/><path d="M275.2,523.15l.86,2.45c.14.4.26.76.35,1.12h.03c.1-.36.23-.72.37-1.12l.85-2.45h.83l-1.71,4.36h-.76l-1.66-4.36h.85Z"/><path d="M279.58,525.47c.02,1.07.7,1.51,1.49,1.51.57,0,.91-.1,1.21-.23l.14.57c-.28.13-.76.27-1.45.27-1.34,0-2.14-.88-2.14-2.2s.77-2.35,2.04-2.35c1.42,0,1.8,1.25,1.8,2.05,0,.16-.02.29-.03.37h-3.06ZM281.9,524.9c0-.5-.21-1.29-1.1-1.29-.8,0-1.15.74-1.21,1.29h2.31Z"/><path d="M286.51,521.9v1.25h1.13v.6h-1.13v2.35c0,.54.15.85.59.85.21,0,.36-.03.46-.05l.04.59c-.15.06-.4.11-.7.11-.37,0-.67-.12-.86-.33-.23-.23-.31-.62-.31-1.13v-2.38h-.67v-.6h.67v-1.04l.77-.21Z"/><path d="M288.53,521.11h.79v2.72h.02c.13-.23.32-.42.57-.56.23-.13.51-.23.81-.23.58,0,1.52.36,1.52,1.86v2.59h-.79v-2.5c0-.7-.26-1.3-1.01-1.3-.51,0-.92.36-1.06.79-.05.11-.05.23-.05.38v2.63h-.79v-6.39Z"/><path d="M293.97,525.47c.02,1.07.7,1.51,1.49,1.51.57,0,.91-.1,1.21-.23l.14.57c-.28.13-.76.27-1.45.27-1.34,0-2.14-.88-2.14-2.2s.77-2.35,2.04-2.35c1.42,0,1.8,1.25,1.8,2.05,0,.16-.02.29-.03.37h-3.06ZM296.29,524.9c0-.5-.21-1.29-1.1-1.29-.8,0-1.15.74-1.21,1.29h2.31Z"/><path d="M297.93,526.69c.23.15.65.31,1.04.31.58,0,.85-.29.85-.65s-.22-.58-.81-.8c-.78-.28-1.15-.71-1.15-1.23,0-.7.57-1.28,1.5-1.28.44,0,.83.13,1.07.27l-.2.58c-.17-.11-.49-.25-.89-.25-.47,0-.73.27-.73.59,0,.36.26.52.83.74.76.29,1.14.67,1.14,1.31,0,.77-.59,1.31-1.63,1.31-.48,0-.92-.12-1.22-.3l.2-.6Z"/><path d="M302.04,525.47c.02,1.07.7,1.51,1.49,1.51.57,0,.91-.1,1.21-.23l.14.57c-.28.13-.76.27-1.45.27-1.34,0-2.14-.88-2.14-2.2s.77-2.35,2.04-2.35c1.42,0,1.8,1.25,1.8,2.05,0,.16-.02.29-.03.37h-3.06ZM304.36,524.9c0-.5-.21-1.29-1.1-1.29-.8,0-1.15.74-1.21,1.29h2.31Z"/><path d="M308.46,525.47c.02,1.07.7,1.51,1.49,1.51.57,0,.91-.1,1.21-.23l.14.57c-.28.13-.76.27-1.45.27-1.34,0-2.14-.88-2.14-2.2s.77-2.35,2.04-2.35c1.42,0,1.8,1.25,1.8,2.05,0,.16-.02.29-.03.37h-3.06ZM310.78,524.9c0-.5-.21-1.29-1.1-1.29-.8,0-1.15.74-1.21,1.29h2.31Z"/><path d="M312.52,524.33c0-.45,0-.82-.04-1.18h.69l.04.7h.03c.24-.41.65-.8,1.37-.8.59,0,1.04.36,1.23.87h.02c.13-.24.31-.43.49-.57.26-.2.55-.31.96-.31.58,0,1.43.38,1.43,1.89v2.57h-.77v-2.47c0-.84-.31-1.34-.95-1.34-.45,0-.8.33-.94.72-.04.11-.06.25-.06.4v2.69h-.77v-2.61c0-.69-.31-1.2-.91-1.2-.5,0-.86.4-.98.79-.04.12-.06.25-.06.39v2.63h-.77v-3.18Z"/><path d="M322.44,527.5l-.06-.55h-.03c-.24.34-.71.65-1.33.65-.88,0-1.33-.62-1.33-1.25,0-1.05.94-1.63,2.62-1.62v-.09c0-.36-.1-1.01-.99-1.01-.41,0-.83.13-1.13.32l-.18-.52c.36-.23.88-.39,1.43-.39,1.33,0,1.66.91,1.66,1.78v1.63c0,.38.02.75.07,1.04h-.72ZM322.33,525.28c-.86-.02-1.85.13-1.85.98,0,.51.34.76.75.76.57,0,.93-.36,1.05-.73.03-.08.04-.17.04-.25v-.76Z"/><path d="M325.25,521.92c0,.27-.19.49-.5.49-.28,0-.48-.22-.48-.49s.21-.5.5-.5.49.22.49.5ZM324.37,527.5v-4.36h.79v4.36h-.79Z"/><path d="M326.47,521.11h.79v6.39h-.79v-6.39Z"/><path d="M328.49,526.69c.23.15.65.31,1.04.31.58,0,.85-.29.85-.65s-.22-.58-.81-.8c-.78-.28-1.15-.71-1.15-1.23,0-.7.57-1.28,1.5-1.28.44,0,.83.13,1.07.27l-.2.58c-.17-.11-.49-.25-.89-.25-.47,0-.73.27-.73.59,0,.36.26.52.83.74.76.29,1.14.67,1.14,1.31,0,.77-.59,1.31-1.63,1.31-.48,0-.92-.12-1.22-.3l.2-.6Z"/><path d="M332.77,525.79l-.02-.23c-.05-.49.11-1.02.56-1.56.41-.48.63-.83.63-1.23,0-.46-.29-.77-.86-.77-.32,0-.68.11-.91.28l-.22-.57c.3-.22.81-.36,1.29-.36,1.04,0,1.5.64,1.5,1.32,0,.61-.34,1.05-.77,1.57-.4.47-.54.86-.51,1.32v.23s-.69,0-.69,0ZM332.58,527.05c0-.33.23-.57.54-.57s.53.23.53.57c0,.31-.21.56-.54.56-.32,0-.53-.24-.53-.56Z"/><path d="M159.79,538.3v-2.58l-1.92-3.49h.89l.86,1.67c.23.46.41.83.6,1.25h.02c.17-.4.38-.79.61-1.25l.87-1.67h.89l-2.03,3.48v2.58h-.79Z"/><path d="M166.54,536.09c0,1.61-1.12,2.31-2.17,2.31-1.18,0-2.09-.86-2.09-2.24,0-1.46.95-2.31,2.16-2.31s2.1.91,2.1,2.24ZM163.09,536.13c0,.95.55,1.67,1.32,1.67s1.32-.71,1.32-1.69c0-.74-.37-1.67-1.31-1.67s-1.34.86-1.34,1.69Z"/><path d="M171.19,537.12c0,.45,0,.85.04,1.19h-.7l-.04-.71h-.02c-.21.35-.67.81-1.44.81-.68,0-1.5-.38-1.5-1.91v-2.55h.79v2.41c0,.83.25,1.39.97,1.39.53,0,.9-.37,1.04-.72.04-.12.07-.26.07-.41v-2.67h.79v3.17Z"/><path d="M177.51,538.14c-.21.11-.67.25-1.25.25-1.31,0-2.17-.89-2.17-2.22s.92-2.31,2.34-2.31c.47,0,.88.12,1.1.22l-.18.61c-.19-.11-.49-.21-.92-.21-1,0-1.54.74-1.54,1.65,0,1.01.65,1.63,1.51,1.63.45,0,.75-.12.97-.22l.14.59Z"/><path d="M180.85,538.3l-.06-.55h-.03c-.24.34-.71.65-1.33.65-.88,0-1.33-.62-1.33-1.25,0-1.05.94-1.63,2.62-1.62v-.09c0-.36-.1-1.01-.99-1.01-.4,0-.83.13-1.13.32l-.18-.52c.36-.23.88-.39,1.43-.39,1.33,0,1.66.91,1.66,1.78v1.63c0,.38.02.75.07,1.04h-.72ZM180.74,536.08c-.86-.02-1.85.13-1.85.98,0,.51.34.76.75.76.57,0,.93-.36,1.05-.73.03-.08.05-.17.05-.25v-.76Z"/><path d="M182.78,535.13c0-.45,0-.82-.04-1.18h.7l.04.72h.02c.22-.41.72-.82,1.44-.82.6,0,1.54.36,1.54,1.85v2.6h-.79v-2.51c0-.7-.26-1.29-1.01-1.29-.52,0-.93.37-1.06.81-.04.1-.05.23-.05.37v2.62h-.79v-3.18Z"/><path d="M193.33,537.12c0,.45,0,.85.04,1.19h-.7l-.04-.71h-.02c-.21.35-.67.81-1.44.81-.68,0-1.5-.38-1.5-1.91v-2.55h.79v2.41c0,.83.25,1.39.97,1.39.53,0,.9-.37,1.04-.72.04-.12.07-.26.07-.41v-2.67h.79v3.17Z"/><path d="M194.64,535.37c0-.56-.02-1.01-.04-1.42h.71l.04.75h.02c.32-.53.84-.85,1.55-.85,1.05,0,1.85.89,1.85,2.21,0,1.57-.95,2.34-1.98,2.34-.58,0-1.08-.25-1.34-.68h-.02v2.37h-.78v-4.72ZM195.42,536.53c0,.12.02.22.04.32.14.55.62.93,1.19.93.84,0,1.32-.68,1.32-1.68,0-.87-.46-1.62-1.3-1.62-.54,0-1.04.39-1.2.98-.03.1-.05.22-.05.32v.75Z"/><path d="M203.52,531.91v5.27c0,.39,0,.83.04,1.12h-.71l-.04-.76h-.02c-.24.49-.77.85-1.49.85-1.05,0-1.86-.89-1.86-2.21,0-1.45.89-2.34,1.95-2.34.67,0,1.12.31,1.31.67h.02v-2.6h.79ZM202.73,535.72c0-.1,0-.23-.04-.33-.12-.5-.55-.92-1.14-.92-.82,0-1.31.72-1.31,1.68,0,.88.43,1.61,1.29,1.61.53,0,1.02-.35,1.16-.95.03-.11.04-.22.04-.34v-.76Z"/><path d="M207.25,538.3l-.06-.55h-.03c-.24.34-.71.65-1.33.65-.88,0-1.33-.62-1.33-1.25,0-1.05.94-1.63,2.62-1.62v-.09c0-.36-.1-1.01-.99-1.01-.4,0-.83.13-1.13.32l-.18-.52c.36-.23.88-.39,1.43-.39,1.33,0,1.66.91,1.66,1.78v1.63c0,.38.02.75.07,1.04h-.72ZM207.13,536.08c-.86-.02-1.85.13-1.85.98,0,.51.34.76.75.76.57,0,.93-.36,1.05-.73.03-.08.05-.17.05-.25v-.76Z"/><path d="M210.09,532.7v1.25h1.13v.6h-1.13v2.35c0,.54.15.85.59.85.21,0,.36-.03.46-.05l.04.59c-.15.06-.4.11-.7.11-.37,0-.67-.12-.85-.33-.23-.23-.31-.62-.31-1.13v-2.38h-.68v-.6h.68v-1.04l.77-.21Z"/><path d="M212.5,536.27c.02,1.07.7,1.51,1.49,1.51.57,0,.91-.1,1.21-.22l.13.57c-.28.13-.76.27-1.45.27-1.34,0-2.14-.88-2.14-2.2s.77-2.35,2.04-2.35c1.42,0,1.8,1.25,1.8,2.05,0,.16-.02.29-.03.37h-3.06ZM214.83,535.7c0-.5-.21-1.29-1.1-1.29-.8,0-1.15.74-1.22,1.29h2.31Z"/><path d="M218.77,533.95l.95,2.58c.1.29.21.63.28.89h.02c.08-.26.17-.59.28-.91l.86-2.56h.84l-1.19,3.11c-.57,1.49-.95,2.26-1.49,2.73-.39.34-.77.48-.97.51l-.2-.67c.2-.06.46-.19.69-.39.22-.17.49-.48.67-.88.04-.08.06-.14.06-.19s-.02-.11-.05-.21l-1.61-4.02h.86Z"/><path d="M226.57,536.09c0,1.61-1.12,2.31-2.17,2.31-1.18,0-2.09-.86-2.09-2.24,0-1.46.95-2.31,2.16-2.31s2.1.91,2.1,2.24ZM223.12,536.13c0,.95.55,1.67,1.32,1.67s1.32-.71,1.32-1.69c0-.74-.37-1.67-1.31-1.67s-1.34.86-1.34,1.69Z"/><path d="M231.22,537.12c0,.45,0,.85.04,1.19h-.7l-.04-.71h-.02c-.21.35-.67.81-1.44.81-.68,0-1.5-.38-1.5-1.91v-2.55h.79v2.41c0,.83.25,1.39.97,1.39.53,0,.9-.37,1.04-.72.04-.12.07-.26.07-.41v-2.67h.79v3.17Z"/><path d="M232.53,535.31c0-.51,0-.95-.04-1.36h.69l.03.86h.04c.2-.58.68-.95,1.21-.95.09,0,.15,0,.23.03v.75c-.08-.02-.16-.03-.27-.03-.56,0-.95.42-1.06,1.02-.02.11-.04.23-.04.37v2.32h-.78v-3Z"/><path d="M237.38,535.37c0-.56-.02-1.01-.04-1.42h.71l.04.75h.02c.32-.53.84-.85,1.55-.85,1.05,0,1.85.89,1.85,2.21,0,1.57-.95,2.34-1.98,2.34-.58,0-1.08-.25-1.34-.68h-.02v2.37h-.78v-4.72ZM238.16,536.53c0,.12.02.22.04.32.14.55.62.93,1.19.93.84,0,1.32-.68,1.32-1.68,0-.87-.46-1.62-1.3-1.62-.54,0-1.04.39-1.2.98-.03.1-.05.22-.05.32v.75Z"/><path d="M242.5,535.31c0-.51,0-.95-.04-1.36h.69l.03.86h.04c.2-.58.68-.95,1.21-.95.09,0,.15,0,.22.03v.75c-.08-.02-.16-.03-.27-.03-.56,0-.95.42-1.06,1.02-.02.11-.04.23-.04.37v2.32h-.78v-3Z"/><path d="M245.8,536.27c.02,1.07.7,1.51,1.49,1.51.57,0,.91-.1,1.21-.22l.14.57c-.28.13-.76.27-1.45.27-1.34,0-2.14-.88-2.14-2.2s.77-2.35,2.04-2.35c1.42,0,1.8,1.25,1.8,2.05,0,.16-.02.29-.03.37h-3.06ZM248.12,535.7c0-.5-.21-1.29-1.1-1.29-.8,0-1.15.74-1.22,1.29h2.31Z"/><path d="M249.94,538.3v-3.75h-.61v-.6h.61v-.21c0-.61.13-1.17.5-1.52.3-.29.69-.41,1.06-.41.28,0,.52.06.67.13l-.11.61c-.12-.05-.28-.1-.5-.1-.68,0-.85.59-.85,1.26v.23h1.05v.6h-1.05v3.75h-.78Z"/><path d="M252.81,536.27c.02,1.07.7,1.51,1.49,1.51.57,0,.91-.1,1.21-.22l.14.57c-.28.13-.76.27-1.45.27-1.34,0-2.14-.88-2.14-2.2s.77-2.35,2.04-2.35c1.42,0,1.8,1.25,1.8,2.05,0,.16-.02.29-.03.37h-3.06ZM255.14,535.7c0-.5-.21-1.29-1.1-1.29-.8,0-1.15.74-1.21,1.29h2.31Z"/><path d="M256.88,535.31c0-.51,0-.95-.04-1.36h.69l.03.86h.04c.2-.58.68-.95,1.21-.95.09,0,.15,0,.22.03v.75c-.08-.02-.16-.03-.27-.03-.56,0-.95.42-1.06,1.02-.02.11-.04.23-.04.37v2.32h-.78v-3Z"/><path d="M260.18,536.27c.02,1.07.7,1.51,1.49,1.51.57,0,.91-.1,1.21-.22l.14.57c-.28.13-.76.27-1.45.27-1.34,0-2.14-.88-2.14-2.2s.77-2.35,2.04-2.35c1.42,0,1.8,1.25,1.8,2.05,0,.16-.02.29-.03.37h-3.06ZM262.5,535.7c0-.5-.21-1.29-1.1-1.29-.8,0-1.15.74-1.21,1.29h2.31Z"/><path d="M264.24,535.13c0-.45,0-.82-.04-1.18h.7l.04.72h.02c.22-.41.72-.82,1.44-.82.6,0,1.54.36,1.54,1.85v2.6h-.79v-2.51c0-.7-.26-1.29-1.01-1.29-.52,0-.93.37-1.06.81-.04.1-.05.23-.05.37v2.62h-.79v-3.18Z"/><path d="M272.35,538.14c-.21.11-.67.25-1.25.25-1.31,0-2.17-.89-2.17-2.22s.92-2.31,2.34-2.31c.47,0,.88.12,1.1.22l-.18.61c-.19-.11-.49-.21-.92-.21-1,0-1.54.74-1.54,1.65,0,1.01.65,1.63,1.51,1.63.45,0,.75-.12.97-.22l.13.59Z"/><path d="M273.66,536.27c.02,1.07.7,1.51,1.49,1.51.57,0,.91-.1,1.21-.22l.14.57c-.28.13-.76.27-1.45.27-1.34,0-2.14-.88-2.14-2.2s.77-2.35,2.04-2.35c1.42,0,1.8,1.25,1.8,2.05,0,.16-.02.29-.03.37h-3.06ZM275.98,535.7c0-.5-.21-1.29-1.1-1.29-.8,0-1.15.74-1.21,1.29h2.31Z"/><path d="M277.62,537.49c.23.15.65.32,1.04.32.58,0,.85-.29.85-.65s-.22-.58-.81-.8c-.78-.28-1.15-.71-1.15-1.23,0-.7.57-1.28,1.5-1.28.44,0,.83.13,1.07.27l-.2.58c-.17-.11-.49-.25-.89-.25-.47,0-.73.27-.73.59,0,.36.26.52.83.74.76.29,1.14.67,1.14,1.31,0,.77-.59,1.31-1.63,1.31-.48,0-.92-.12-1.22-.3l.2-.6Z"/><path d="M287.14,536.09c0,1.61-1.12,2.31-2.17,2.31-1.18,0-2.09-.86-2.09-2.24,0-1.46.95-2.31,2.16-2.31s2.1.91,2.1,2.24ZM283.68,536.13c0,.95.55,1.67,1.32,1.67s1.32-.71,1.32-1.69c0-.74-.37-1.67-1.31-1.67s-1.34.86-1.34,1.69Z"/><path d="M288.14,535.31c0-.51,0-.95-.04-1.36h.69l.03.86h.04c.2-.58.68-.95,1.21-.95.09,0,.15,0,.22.03v.75c-.08-.02-.16-.03-.27-.03-.56,0-.96.42-1.06,1.02-.02.11-.04.23-.04.37v2.32h-.78v-3Z"/><path d="M296.64,537.12c0,.45,0,.85.04,1.19h-.7l-.04-.71h-.02c-.21.35-.67.81-1.44.81-.68,0-1.5-.38-1.5-1.91v-2.55h.79v2.41c0,.83.25,1.39.97,1.39.53,0,.9-.37,1.04-.72.04-.12.07-.26.07-.41v-2.67h.79v3.17Z"/><path d="M297.95,535.13c0-.45,0-.82-.04-1.18h.7l.04.72h.02c.22-.41.72-.82,1.44-.82.6,0,1.54.36,1.54,1.85v2.6h-.79v-2.51c0-.7-.26-1.29-1.01-1.29-.52,0-.93.37-1.06.81-.04.1-.05.23-.05.37v2.62h-.79v-3.18Z"/><path d="M302.84,537.49c.23.15.65.32,1.04.32.58,0,.85-.29.85-.65s-.22-.58-.81-.8c-.78-.28-1.15-.71-1.15-1.23,0-.7.57-1.28,1.5-1.28.44,0,.83.13,1.07.27l-.2.58c-.17-.11-.49-.25-.89-.25-.47,0-.73.27-.73.59,0,.36.26.52.83.74.76.29,1.14.67,1.14,1.31,0,.77-.59,1.31-1.63,1.31-.48,0-.92-.12-1.22-.3l.2-.6Z"/><path d="M310.15,537.12c0,.45,0,.85.04,1.19h-.7l-.04-.71h-.02c-.21.35-.67.81-1.44.81-.68,0-1.5-.38-1.5-1.91v-2.55h.79v2.41c0,.83.25,1.39.97,1.39.53,0,.9-.37,1.04-.72.04-.12.07-.26.07-.41v-2.67h.79v3.17Z"/><path d="M311.43,538.3c.02-.3.04-.74.04-1.12v-5.27h.78v2.74h.02c.28-.49.78-.8,1.49-.8,1.08,0,1.84.9,1.84,2.22,0,1.56-.98,2.33-1.95,2.33-.63,0-1.13-.24-1.46-.82h-.03l-.04.72h-.68ZM312.25,536.56c0,.1.02.2.04.29.15.55.61.93,1.19.93.83,0,1.32-.67,1.32-1.67,0-.87-.45-1.62-1.3-1.62-.54,0-1.04.37-1.21.97-.02.09-.04.2-.04.32v.78Z"/><path d="M316.48,537.49c.23.15.65.32,1.04.32.58,0,.85-.29.85-.65s-.22-.58-.81-.8c-.78-.28-1.15-.71-1.15-1.23,0-.7.57-1.28,1.5-1.28.44,0,.83.13,1.07.27l-.2.58c-.17-.11-.49-.25-.89-.25-.47,0-.73.27-.73.59,0,.36.26.52.83.74.76.29,1.14.67,1.14,1.31,0,.77-.59,1.31-1.63,1.31-.48,0-.92-.12-1.22-.3l.2-.6Z"/><path d="M323.26,538.14c-.21.11-.67.25-1.25.25-1.31,0-2.17-.89-2.17-2.22s.92-2.31,2.34-2.31c.47,0,.88.12,1.1.22l-.18.61c-.19-.11-.49-.21-.92-.21-1,0-1.54.74-1.54,1.65,0,1.01.65,1.63,1.51,1.63.45,0,.75-.12.97-.22l.13.59Z"/><path d="M324.18,535.31c0-.51,0-.95-.04-1.36h.69l.03.86h.04c.2-.58.68-.95,1.21-.95.09,0,.15,0,.22.03v.75c-.08-.02-.16-.03-.27-.03-.56,0-.96.42-1.06,1.02-.02.11-.04.23-.04.37v2.32h-.78v-3Z"/><path d="M328.04,532.72c0,.27-.19.49-.5.49-.28,0-.48-.22-.48-.49s.21-.5.5-.5.49.22.49.5ZM327.16,538.3v-4.36h.79v4.36h-.79Z"/><path d="M329.23,538.3c.02-.3.04-.74.04-1.12v-5.27h.78v2.74h.02c.28-.49.78-.8,1.49-.8,1.08,0,1.84.9,1.84,2.22,0,1.56-.98,2.33-1.95,2.33-.63,0-1.13-.24-1.46-.82h-.03l-.04.72h-.68ZM330.05,536.56c0,.1.02.2.04.29.15.55.61.93,1.19.93.83,0,1.32-.67,1.32-1.67,0-.87-.45-1.62-1.3-1.62-.54,0-1.04.37-1.21.97-.02.09-.04.2-.04.32v.78Z"/><path d="M334.83,536.27c.02,1.07.7,1.51,1.49,1.51.57,0,.91-.1,1.21-.22l.14.57c-.28.13-.76.27-1.45.27-1.34,0-2.14-.88-2.14-2.2s.77-2.35,2.04-2.35c1.42,0,1.8,1.25,1.8,2.05,0,.16-.02.29-.03.37h-3.06ZM337.15,535.7c0-.5-.21-1.29-1.1-1.29-.8,0-1.15.74-1.21,1.29h2.31Z"/><path d="M189.02,539.43v-.45h91.61v.45h-91.61Z"/><path d="M292.33,539.43v-.45h45.91v.45h-45.91Z"/></g></svg>