<?xml version="1.0" encoding="UTF-8"?><svg id="Layer_2" xmlns="http://www.w3.org/2000/svg" viewBox="0 0 496 558"><g id="Layer_2-2"><g id="Layer_1-2"><rect width="496" height="558" style="fill:#e4e4e4;"/><rect x="66.21" width="363.58" height="558" style="fill:#fff;"/><path d="M193.94,126.15v-19.28h3.89v7.59h7.63v-7.59h3.89v19.28h-3.89v-8.43h-7.63v8.43s-3.89,0-3.89,0Z"/><path d="M221.44,121.7l3.68.62c-.47,1.35-1.22,2.38-2.24,3.08s-2.3,1.06-3.83,1.06c-2.43,0-4.23-.79-5.39-2.38-.92-1.27-1.38-2.88-1.38-4.81,0-2.31.6-4.13,1.81-5.44,1.21-1.31,2.74-1.97,4.59-1.97,2.08,0,3.72.69,4.92,2.06s1.78,3.47,1.72,6.31h-9.26c.03,1.1.32,1.95.89,2.56.57.61,1.28.91,2.13.91.58,0,1.07-.16,1.46-.47s.69-.82.89-1.53h.01ZM221.65,117.97c-.03-1.07-.3-1.88-.83-2.44s-1.17-.83-1.92-.83c-.81,0-1.47.29-2,.88s-.78,1.39-.78,2.39h5.53Z"/><path d="M231.09,116.44l-3.35-.61c.38-1.35,1.03-2.35,1.95-3s2.29-.97,4.1-.97c1.65,0,2.88.2,3.68.58.81.39,1.37.89,1.7,1.49s.49,1.7.49,3.31l-.04,4.31c0,1.23.06,2.13.18,2.72.12.58.34,1.21.66,1.87h-3.66c-.1-.25-.21-.61-.35-1.09-.06-.22-.11-.36-.13-.43-.63.61-1.31,1.07-2.03,1.38s-1.49.46-2.3.46c-1.44,0-2.57-.39-3.4-1.17s-1.24-1.77-1.24-2.96c0-.79.19-1.49.57-2.11s.9-1.09,1.58-1.42c.68-.33,1.66-.62,2.94-.86,1.73-.32,2.92-.63,3.59-.91v-.37c0-.71-.18-1.22-.53-1.52s-1.01-.45-1.99-.45c-.66,0-1.17.13-1.54.39s-.67.71-.89,1.36h.01ZM236.04,119.44c-.47.16-1.22.35-2.25.57s-1.7.43-2.01.64c-.48.34-.72.78-.72,1.3s.19.96.58,1.34.88.57,1.47.57c.67,0,1.3-.22,1.91-.66.45-.33.74-.74.88-1.22.1-.32.14-.92.14-1.8v-.74h0Z"/><path d="M256.12,126.15h-3.43v-2.05c-.57.8-1.24,1.39-2.02,1.78s-1.56.58-2.35.58c-1.6,0-2.98-.65-4.12-1.94s-1.72-3.1-1.72-5.41.56-4.17,1.67-5.4,2.52-1.85,4.22-1.85c1.56,0,2.91.65,4.05,1.95v-6.94h3.7v19.28ZM246.26,118.86c0,1.49.21,2.57.62,3.24.6.96,1.43,1.45,2.5,1.45.85,0,1.57-.36,2.17-1.08.6-.72.89-1.8.89-3.24,0-1.6-.29-2.76-.87-3.46s-1.32-1.06-2.22-1.06-1.61.35-2.2,1.04-.89,1.74-.89,3.12h0Z"/><path d="M259.77,126.15v-19.28h3.7v19.28h-3.7Z"/><path d="M267.25,110.28v-3.42h3.7v3.42h-3.7ZM267.25,126.15v-13.97h3.7v13.97h-3.7Z"/><path d="M287.44,126.15h-3.7v-7.13c0-1.51-.08-2.48-.24-2.93-.16-.44-.41-.79-.77-1.03-.35-.25-.78-.37-1.28-.37-.64,0-1.21.17-1.72.53-.51.35-.86.82-1.05,1.39-.19.58-.28,1.65-.28,3.21v6.33h-3.7v-13.97h3.43v2.05c1.22-1.58,2.75-2.37,4.6-2.37.82,0,1.56.15,2.24.44s1.19.67,1.53,1.12c.35.46.59.97.72,1.55.14.58.2,1.41.2,2.49v8.68h.02Z"/><path d="M299.27,121.7l3.68.62c-.47,1.35-1.22,2.38-2.24,3.08s-2.3,1.06-3.83,1.06c-2.43,0-4.23-.79-5.39-2.38-.92-1.27-1.38-2.88-1.38-4.81,0-2.31.6-4.13,1.81-5.44,1.21-1.31,2.74-1.97,4.59-1.97,2.08,0,3.72.69,4.92,2.06s1.78,3.47,1.72,6.31h-9.26c.03,1.1.32,1.95.89,2.56s1.28.91,2.13.91c.58,0,1.07-.16,1.46-.47s.69-.82.89-1.53h0ZM299.48,117.97c-.03-1.07-.3-1.88-.83-2.44s-1.17-.83-1.92-.83c-.81,0-1.47.29-2,.88s-.78,1.39-.78,2.39h5.53Z"/><path d="M114.22,159.81h-2.54c-1.34-2.03-2.36-4.13-3.06-6.31s-1.05-4.3-1.05-6.34c0-2.53.43-4.93,1.3-7.19.75-1.96,1.71-3.78,2.87-5.43h2.52c-1.2,2.66-2.03,4.92-2.48,6.78s-.68,3.84-.68,5.92c0,1.44.13,2.91.4,4.42.27,1.51.63,2.94,1.1,4.3.31.89.85,2.18,1.62,3.85h0Z"/><path d="M119.82,154.15l-4.6-19.28h3.98l2.91,13.24,3.52-13.24h4.63l3.38,13.47,2.96-13.47h3.92l-4.68,19.28h-4.13l-3.84-14.42-3.83,14.42h-4.22Z"/><path d="M150.08,149.7l3.68.62c-.47,1.35-1.22,2.38-2.24,3.08s-2.3,1.06-3.83,1.06c-2.43,0-4.23-.79-5.39-2.38-.92-1.27-1.38-2.88-1.38-4.81,0-2.31.6-4.13,1.81-5.44,1.21-1.31,2.74-1.97,4.59-1.97,2.08,0,3.72.69,4.92,2.06s1.78,3.47,1.72,6.31h-9.26c.03,1.1.32,1.95.89,2.56.57.61,1.28.91,2.13.91.58,0,1.07-.16,1.46-.47s.69-.82.89-1.53h.01ZM150.29,145.97c-.03-1.07-.3-1.88-.83-2.44s-1.17-.83-1.92-.83c-.81,0-1.47.29-2,.88-.53.59-.78,1.39-.78,2.39h5.53Z"/><path d="M163.16,150.16l3.71-.57c.16.72.48,1.26.96,1.64.48.37,1.16.56,2.03.56.96,0,1.67-.17,2.16-.53.32-.25.49-.57.49-.99,0-.28-.09-.51-.26-.7-.18-.18-.6-.34-1.24-.49-2.98-.66-4.87-1.26-5.67-1.8-1.1-.75-1.66-1.8-1.66-3.14,0-1.21.48-2.23,1.43-3.05s2.44-1.24,4.45-1.24,3.33.31,4.26.93,1.57,1.54,1.92,2.76l-3.49.64c-.15-.54-.43-.96-.85-1.25s-1.01-.43-1.78-.43c-.97,0-1.67.14-2.09.41-.28.19-.42.44-.42.75,0,.26.12.49.37.67.33.25,1.48.59,3.45,1.04s3.34,1,4.12,1.64c.77.66,1.16,1.57,1.16,2.75,0,1.28-.53,2.38-1.6,3.3s-2.65,1.38-4.75,1.38c-1.9,0-3.41-.39-4.52-1.16s-1.83-1.82-2.18-3.14v.02Z"/><path d="M188.63,154.15v-2.09c-.51.75-1.18,1.33-2.01,1.76s-1.7.64-2.62.64-1.78-.21-2.52-.62c-.75-.41-1.28-.99-1.62-1.74-.33-.75-.5-1.78-.5-3.09v-8.84h3.7v6.42c0,1.96.07,3.17.2,3.61.14.44.38.79.74,1.05s.82.39,1.37.39c.63,0,1.2-.17,1.7-.52s.84-.78,1.03-1.29c.18-.51.28-1.77.28-3.77v-5.89h3.7v13.97h-3.45Z"/><path d="M195.55,155.07l4.22.51c.07.49.23.83.49,1.01.35.26.9.39,1.66.39.96,0,1.69-.14,2.17-.43.32-.19.57-.5.74-.93.11-.31.17-.87.17-1.7v-2.04c-1.1,1.51-2.5,2.26-4.18,2.26-1.88,0-3.36-.79-4.46-2.38-.86-1.25-1.29-2.81-1.29-4.68,0-2.34.56-4.13,1.69-5.37,1.13-1.24,2.53-1.85,4.2-1.85s3.15.76,4.27,2.28v-1.96h3.46v12.53c0,1.65-.14,2.88-.41,3.7-.27.82-.65,1.46-1.14,1.92-.49.46-1.15.83-1.97,1.09s-1.86.39-3.11.39c-2.37,0-4.05-.41-5.04-1.22-.99-.81-1.49-1.84-1.49-3.08,0-.12,0-.27,0-.45h0ZM198.85,146.87c0,1.48.29,2.57.86,3.26s1.28,1.03,2.12,1.03c.9,0,1.67-.35,2.29-1.06.62-.71.93-1.75.93-3.14s-.3-2.52-.89-3.22-1.35-1.05-2.26-1.05-1.62.34-2.19,1.03-.86,1.74-.86,3.15h0Z"/><path d="M212,155.07l4.22.51c.07.49.23.83.49,1.01.35.26.9.39,1.66.39.96,0,1.69-.14,2.17-.43.32-.19.57-.5.74-.93.11-.31.17-.87.17-1.7v-2.04c-1.1,1.51-2.5,2.26-4.18,2.26-1.88,0-3.36-.79-4.46-2.38-.86-1.25-1.29-2.81-1.29-4.68,0-2.34.56-4.13,1.69-5.37,1.13-1.24,2.53-1.85,4.2-1.85s3.15.76,4.27,2.28v-1.96h3.46v12.53c0,1.65-.14,2.88-.41,3.7-.27.82-.65,1.46-1.14,1.92-.49.46-1.15.83-1.97,1.09s-1.86.39-3.11.39c-2.37,0-4.05-.41-5.04-1.22-.99-.81-1.49-1.84-1.49-3.08,0-.12,0-.27,0-.45h0ZM215.3,146.87c0,1.48.29,2.57.86,3.26s1.28,1.03,2.12,1.03c.9,0,1.67-.35,2.29-1.06.62-.71.93-1.75.93-3.14s-.3-2.52-.89-3.22-1.35-1.05-2.26-1.05-1.62.34-2.19,1.03-.86,1.74-.86,3.15h0Z"/><path d="M236.89,149.7l3.68.62c-.47,1.35-1.22,2.38-2.24,3.08s-2.3,1.06-3.83,1.06c-2.43,0-4.23-.79-5.39-2.38-.92-1.27-1.38-2.88-1.38-4.81,0-2.31.6-4.13,1.81-5.44,1.21-1.31,2.74-1.97,4.59-1.97,2.08,0,3.72.69,4.92,2.06s1.78,3.47,1.72,6.31h-9.26c.03,1.1.32,1.95.89,2.56.57.61,1.28.91,2.13.91.58,0,1.07-.16,1.46-.47s.69-.82.89-1.53h.01ZM237.1,145.97c-.03-1.07-.3-1.88-.83-2.44s-1.17-.83-1.92-.83c-.81,0-1.47.29-2,.88-.53.59-.78,1.39-.78,2.39h5.53Z"/><path d="M242.48,150.16l3.71-.57c.16.72.48,1.26.96,1.64.48.37,1.16.56,2.03.56.96,0,1.67-.17,2.16-.53.32-.25.49-.57.49-.99,0-.28-.09-.51-.26-.7-.18-.18-.6-.34-1.24-.49-2.98-.66-4.87-1.26-5.67-1.8-1.1-.75-1.66-1.8-1.66-3.14,0-1.21.48-2.23,1.43-3.05s2.44-1.24,4.45-1.24,3.33.31,4.26.93,1.57,1.54,1.92,2.76l-3.49.64c-.15-.54-.43-.96-.85-1.25s-1.01-.43-1.78-.43c-.97,0-1.67.14-2.09.41-.28.19-.42.44-.42.75,0,.26.12.49.37.67.33.25,1.48.59,3.45,1.04s3.34,1,4.12,1.64c.77.66,1.16,1.57,1.16,2.75,0,1.28-.53,2.38-1.6,3.3s-2.65,1.38-4.75,1.38c-1.9,0-3.41-.39-4.52-1.16s-1.83-1.82-2.18-3.14v.02Z"/><path d="M265.16,140.18v2.95h-2.52v5.63c0,1.14.02,1.8.07,1.99.05.19.16.34.33.47s.38.18.62.18c.34,0,.84-.12,1.49-.35l.32,2.87c-.86.37-1.83.55-2.92.55-.67,0-1.27-.11-1.8-.33-.54-.22-.93-.51-1.18-.87s-.42-.83-.52-1.44c-.08-.43-.12-1.3-.12-2.6v-6.09h-1.7v-2.95h1.7v-2.78l3.71-2.16v4.93h2.52Z"/><path d="M286.9,150.71v3.43h-12.95c.14-1.3.56-2.53,1.26-3.69s2.09-2.7,4.16-4.62c1.67-1.55,2.69-2.6,3.06-3.16.51-.76.76-1.52.76-2.26,0-.82-.22-1.46-.66-1.9-.44-.44-1.05-.66-1.83-.66s-1.39.23-1.84.7c-.46.46-.72,1.24-.79,2.31l-3.68-.37c.22-2.03.91-3.49,2.06-4.38,1.16-.89,2.6-1.33,4.34-1.33,1.9,0,3.4.51,4.48,1.54,1.09,1.03,1.63,2.3,1.63,3.83,0,.87-.16,1.69-.47,2.48s-.8,1.61-1.48,2.47c-.45.57-1.25,1.39-2.42,2.46s-1.91,1.78-2.22,2.13-.56.69-.76,1.03h7.35Z"/><path d="M289.77,149v-3.7h7.26v3.7h-7.26Z"/><path d="M298.24,149.03l3.58-.43c.11.91.42,1.61.92,2.09s1.1.72,1.81.72c.76,0,1.41-.29,1.93-.87s.78-1.36.78-2.34-.25-1.67-.75-2.21c-.5-.54-1.11-.82-1.83-.82-.47,0-1.04.09-1.7.28l.41-3.01c1,.03,1.76-.19,2.29-.65.53-.46.79-1.07.79-1.83,0-.65-.19-1.17-.58-1.55-.39-.39-.9-.58-1.54-.58s-1.17.22-1.62.66-.72,1.08-.82,1.92l-3.41-.58c.24-1.17.59-2.1,1.07-2.79.48-.7,1.14-1.25,2-1.64.85-.4,1.81-.6,2.87-.6,1.81,0,3.27.58,4.37,1.74.9.95,1.35,2.02,1.35,3.21,0,1.69-.93,3.04-2.78,4.05,1.1.24,1.99.77,2.65,1.59.66.82.99,1.82.99,2.99,0,1.69-.62,3.13-1.85,4.33s-2.77,1.79-4.62,1.79c-1.75,0-3.19-.5-4.34-1.51-1.15-1-1.81-2.32-2-3.94l.03-.02Z"/><path d="M321.63,154.15v-19.28h3.7v19.28h-3.7Z"/><path d="M329.11,138.28v-3.42h3.7v3.42h-3.7ZM329.11,154.15v-13.97h3.7v13.97h-3.7Z"/><path d="M349.3,154.15h-3.7v-7.13c0-1.51-.08-2.48-.24-2.93-.16-.44-.41-.79-.77-1.03-.35-.25-.78-.37-1.28-.37-.64,0-1.21.17-1.72.53-.51.35-.86.82-1.05,1.39-.19.58-.28,1.65-.28,3.21v6.33h-3.7v-13.97h3.43v2.05c1.22-1.58,2.75-2.37,4.6-2.37.82,0,1.56.15,2.24.44s1.19.67,1.53,1.12c.35.46.59.97.72,1.55.14.58.2,1.41.2,2.49v8.68h.02Z"/><path d="M361.14,149.7l3.68.62c-.47,1.35-1.22,2.38-2.24,3.08s-2.3,1.06-3.83,1.06c-2.43,0-4.23-.79-5.39-2.38-.92-1.27-1.38-2.88-1.38-4.81,0-2.31.6-4.13,1.81-5.44s2.74-1.97,4.59-1.97c2.08,0,3.72.69,4.92,2.06s1.78,3.47,1.72,6.31h-9.26c.03,1.1.32,1.95.89,2.56s1.28.91,2.13.91c.58,0,1.07-.16,1.46-.47s.69-.82.89-1.53h0ZM361.35,145.97c-.03-1.07-.3-1.88-.83-2.44s-1.17-.83-1.92-.83c-.81,0-1.47.29-2,.88-.53.59-.78,1.39-.78,2.39h5.53Z"/><path d="M366.72,150.16l3.71-.57c.16.72.48,1.26.96,1.64.48.37,1.16.56,2.03.56.96,0,1.67-.17,2.16-.53.32-.25.49-.57.49-.99,0-.28-.09-.51-.26-.7-.18-.18-.6-.34-1.24-.49-2.98-.66-4.87-1.26-5.67-1.8-1.1-.75-1.66-1.8-1.66-3.14,0-1.21.48-2.23,1.43-3.05s2.44-1.24,4.45-1.24,3.33.31,4.26.93c.93.62,1.57,1.54,1.92,2.76l-3.49.64c-.15-.54-.43-.96-.85-1.25s-1.01-.43-1.78-.43c-.97,0-1.67.14-2.09.41-.28.19-.42.44-.42.75,0,.26.12.49.37.67.33.25,1.48.59,3.45,1.04s3.34,1,4.12,1.64c.77.66,1.16,1.57,1.16,2.75,0,1.28-.53,2.38-1.6,3.3s-2.65,1.38-4.75,1.38c-1.9,0-3.41-.39-4.52-1.16s-1.83-1.82-2.18-3.14v.02Z"/><path d="M381.98,159.81c.73-1.56,1.24-2.76,1.54-3.59.3-.83.57-1.79.83-2.88.25-1.09.44-2.12.57-3.1s.18-1.98.18-3.01c0-2.09-.22-4.06-.67-5.92s-1.27-4.12-2.47-6.78h2.51c1.32,1.89,2.35,3.88,3.08,6,.73,2.11,1.1,4.26,1.1,6.43,0,1.83-.29,3.8-.87,5.89-.66,2.35-1.74,4.67-3.25,6.96h-2.55Z"/><path d="M115,179.93h1.04v4.55c0,.79-.09,1.42-.27,1.89-.18.46-.5.84-.97,1.14-.47.29-1.08.44-1.84.44s-1.34-.13-1.81-.38-.8-.62-1-1.1c-.2-.48-.3-1.14-.3-1.97v-4.55h1.04v4.54c0,.68.06,1.19.19,1.51.13.32.35.57.66.75.31.18.69.26,1.14.26.77,0,1.31-.17,1.64-.52s.49-1.01.49-2v-4.56Z"/><path d="M117.27,186.1l.96-.15c.05.38.2.68.45.88.25.2.59.31,1.03.31s.77-.09.99-.27.32-.39.32-.64c0-.22-.09-.39-.28-.52-.13-.09-.46-.2-.99-.33-.71-.18-1.2-.33-1.47-.46-.27-.13-.48-.31-.62-.54s-.21-.49-.21-.77c0-.25.06-.49.17-.71.12-.22.27-.4.48-.54.15-.11.36-.21.62-.28.26-.08.54-.12.83-.12.45,0,.84.06,1.18.19.34.13.59.3.75.52s.27.51.33.88l-.95.13c-.04-.29-.17-.52-.37-.69-.21-.17-.5-.25-.87-.25-.44,0-.76.07-.95.22-.19.15-.28.32-.28.52,0,.13.04.24.12.34.08.1.2.19.37.26.1.04.38.12.85.25.68.18,1.16.33,1.43.45s.48.29.64.51c.15.22.23.5.23.83s-.09.63-.28.91c-.19.29-.46.5-.81.66s-.76.23-1.2.23c-.74,0-1.31-.15-1.69-.46-.39-.31-.64-.76-.74-1.37h-.04Z"/><path d="M127.06,185.97l1,.12c-.16.58-.45,1.04-.88,1.36s-.97.48-1.63.48c-.83,0-1.5-.26-1.98-.77-.49-.51-.73-1.24-.73-2.16s.25-1.71.74-2.23c.49-.53,1.14-.79,1.92-.79s1.39.26,1.87.78.73,1.25.73,2.19v.26h-4.25c.04.63.21,1.11.53,1.44s.72.5,1.19.5c.35,0,.66-.09.91-.28s.45-.48.6-.89h-.02ZM123.89,184.41h3.19c-.04-.48-.16-.84-.37-1.08-.31-.37-.71-.56-1.2-.56-.44,0-.82.15-1.12.45s-.47.7-.5,1.19Z"/><path d="M134.44,186.94l.14.85c-.27.06-.52.09-.73.09-.35,0-.62-.06-.82-.17-.19-.11-.33-.26-.41-.44s-.12-.56-.12-1.14v-3.28h-.71v-.75h.71v-1.41l.96-.58v1.99h.97v.75h-.97v3.33c0,.28.02.45.05.53s.09.14.17.19.19.07.33.07c.11,0,.25,0,.42-.04h0Z"/><path d="M135.39,187.81v-7.87h.97v2.83c.45-.52,1.02-.78,1.71-.78.42,0,.79.08,1.1.25.31.17.53.4.67.69.13.29.2.72.2,1.28v3.62h-.97v-3.62c0-.48-.1-.83-.31-1.05-.21-.22-.51-.33-.89-.33-.29,0-.56.07-.81.22s-.43.35-.54.6-.16.61-.16,1.05v3.12h-.97Z"/><path d="M141.51,181.04v-1.11h.97v1.11h-.97ZM141.51,187.81v-5.7h.97v5.7h-.97Z"/><path d="M143.56,186.1l.96-.15c.05.38.2.68.45.88.25.2.59.31,1.03.31s.77-.09.99-.27.32-.39.32-.64c0-.22-.09-.39-.28-.52-.13-.09-.46-.2-.99-.33-.71-.18-1.2-.33-1.47-.46s-.48-.31-.62-.54-.21-.49-.21-.77c0-.25.06-.49.17-.71.12-.22.27-.4.48-.54.15-.11.36-.21.62-.28.26-.08.54-.12.83-.12.45,0,.84.06,1.18.19s.59.3.75.52.27.51.33.88l-.95.13c-.04-.29-.17-.52-.37-.69-.21-.17-.5-.25-.87-.25-.44,0-.76.07-.95.22s-.28.32-.28.52c0,.13.04.24.12.34.08.1.2.19.37.26.1.04.38.12.85.25.68.18,1.16.33,1.43.45.27.12.48.29.64.51.15.22.23.5.23.83s-.09.63-.28.91c-.19.29-.46.5-.81.66-.35.16-.76.23-1.2.23-.74,0-1.31-.15-1.69-.46-.39-.31-.64-.76-.74-1.37h-.04Z"/><path d="M152.12,186.1l.96-.15c.05.38.2.68.45.88.25.2.59.31,1.03.31s.77-.09.99-.27.32-.39.32-.64c0-.22-.09-.39-.28-.52-.13-.09-.46-.2-.99-.33-.71-.18-1.2-.33-1.47-.46s-.48-.31-.62-.54-.21-.49-.21-.77c0-.25.06-.49.17-.71.12-.22.27-.4.48-.54.15-.11.36-.21.62-.28.26-.08.54-.12.83-.12.45,0,.84.06,1.18.19s.59.3.75.52.27.51.33.88l-.95.13c-.04-.29-.17-.52-.37-.69-.21-.17-.5-.25-.87-.25-.44,0-.76.07-.95.22s-.28.32-.28.52c0,.13.04.24.12.34.08.1.2.19.37.26.1.04.38.12.85.25.68.18,1.16.33,1.43.45.27.12.48.29.64.51.15.22.23.5.23.83s-.09.63-.28.91c-.19.29-.46.5-.81.66-.35.16-.76.23-1.2.23-.74,0-1.31-.15-1.69-.46-.39-.31-.64-.76-.74-1.37h-.04Z"/><path d="M158,189.99v-7.89h.88v.74c.21-.29.44-.51.7-.65.26-.15.58-.22.95-.22.49,0,.92.12,1.29.38.37.25.65.6.84,1.06.19.46.28.96.28,1.5,0,.58-.1,1.11-.31,1.58-.21.47-.51.83-.91,1.07-.4.25-.82.37-1.26.37-.32,0-.61-.07-.87-.2-.26-.14-.47-.31-.63-.52v2.78h-.97.01ZM158.88,184.99c0,.73.15,1.28.45,1.63s.66.53,1.08.53.8-.18,1.1-.54c.31-.36.46-.93.46-1.69s-.15-1.27-.45-1.63-.66-.54-1.07-.54-.78.19-1.09.58c-.32.38-.48.94-.48,1.68v-.02Z"/><path d="M167.84,187.1c-.36.3-.7.52-1.03.64-.33.13-.69.19-1.07.19-.63,0-1.11-.15-1.44-.46-.34-.31-.5-.7-.5-1.17,0-.28.06-.53.19-.77.13-.23.29-.42.5-.56s.44-.25.7-.32c.19-.05.48-.1.86-.14.78-.09,1.36-.2,1.72-.33v-.25c0-.39-.09-.67-.27-.83-.25-.22-.61-.33-1.1-.33-.45,0-.79.08-1.01.24s-.38.44-.48.85l-.95-.13c.09-.4.23-.73.42-.98.2-.25.48-.44.85-.58.37-.13.8-.2,1.29-.2s.88.06,1.19.17c.3.11.53.26.67.43s.24.39.3.66c.03.17.05.46.05.89v1.29c0,.9.02,1.47.06,1.71s.12.47.24.68h-1.01c-.1-.2-.16-.44-.19-.7h0ZM167.76,184.94c-.35.14-.88.27-1.58.37-.4.06-.68.12-.84.19s-.29.18-.38.31-.13.29-.13.46c0,.26.1.47.29.64.19.17.48.26.86.26s.7-.08.99-.24.5-.39.64-.67c.1-.22.16-.54.16-.97v-.35h0Z"/><path d="M173.96,185.72l.95.12c-.1.66-.37,1.17-.8,1.54-.43.37-.95.56-1.58.56-.78,0-1.41-.25-1.88-.77-.47-.51-.71-1.24-.71-2.19,0-.62.1-1.15.31-1.62s.51-.81.93-1.04.87-.35,1.36-.35c.62,0,1.13.16,1.52.47s.65.76.76,1.33l-.94.14c-.09-.38-.25-.67-.48-.86s-.5-.29-.82-.29c-.49,0-.88.17-1.19.52-.3.35-.46.9-.46,1.66s.15,1.32.44,1.67c.29.35.68.52,1.15.52.38,0,.7-.12.95-.35.25-.23.42-.59.48-1.07h.01Z"/><path d="M179.64,185.97l1,.12c-.16.58-.45,1.04-.88,1.36s-.97.48-1.63.48c-.83,0-1.5-.26-1.98-.77-.49-.51-.73-1.24-.73-2.16s.25-1.71.74-2.23c.49-.53,1.14-.79,1.92-.79s1.39.26,1.87.78.73,1.25.73,2.19v.26h-4.25c.04.63.21,1.11.53,1.44s.72.5,1.19.5c.35,0,.66-.09.91-.28s.45-.48.6-.89h-.02ZM176.47,184.41h3.19c-.04-.48-.16-.84-.37-1.08-.31-.37-.71-.56-1.2-.56-.44,0-.82.15-1.12.45-.3.3-.47.7-.5,1.19h0Z"/><path d="M187.02,186.94l.14.85c-.27.06-.52.09-.73.09-.35,0-.62-.06-.82-.17-.19-.11-.33-.26-.41-.44s-.12-.56-.12-1.14v-3.28h-.71v-.75h.71v-1.41l.96-.58v1.99h.97v.75h-.97v3.33c0,.28.02.45.05.53s.09.14.17.19.19.07.33.07c.11,0,.25,0,.42-.04h0Z"/><path d="M187.61,184.95c0-1.06.29-1.84.88-2.35.49-.42,1.09-.63,1.79-.63.78,0,1.43.26,1.92.77s.75,1.22.75,2.13c0,.73-.11,1.31-.33,1.73s-.54.75-.96.98c-.42.23-.88.35-1.38.35-.8,0-1.44-.26-1.94-.77-.49-.51-.74-1.25-.74-2.21h.01ZM188.6,184.95c0,.73.16,1.28.48,1.64.32.36.72.54,1.2.54s.88-.18,1.2-.55.48-.92.48-1.67c0-.71-.16-1.24-.48-1.6-.32-.36-.72-.55-1.2-.55s-.88.18-1.2.54c-.32.36-.48.91-.48,1.64h0Z"/><path d="M200.87,187.1c-.36.3-.7.52-1.03.64-.33.13-.69.19-1.07.19-.63,0-1.11-.15-1.44-.46-.34-.31-.5-.7-.5-1.17,0-.28.06-.53.19-.77.13-.23.29-.42.5-.56s.44-.25.7-.32c.19-.05.48-.1.86-.14.78-.09,1.36-.2,1.72-.33v-.25c0-.39-.09-.67-.27-.83-.25-.22-.61-.33-1.1-.33-.45,0-.79.08-1.01.24s-.38.44-.48.85l-.95-.13c.09-.4.23-.73.42-.98.2-.25.48-.44.85-.58.37-.13.8-.2,1.29-.2s.88.06,1.19.17c.3.11.53.26.67.43s.24.39.3.66c.03.17.05.46.05.89v1.29c0,.9.02,1.47.06,1.71s.12.47.24.68h-1.01c-.1-.2-.16-.44-.19-.7h0ZM200.78,184.94c-.35.14-.88.27-1.58.37-.4.06-.68.12-.84.19s-.29.18-.38.31-.13.29-.13.46c0,.26.1.47.29.64.19.17.48.26.86.26s.7-.08.99-.24.5-.39.64-.67c.1-.22.16-.54.16-.97v-.35h0Z"/><path d="M206.96,187.81v-.72c-.36.57-.89.85-1.6.85-.45,0-.87-.13-1.25-.38s-.68-.6-.89-1.05-.31-.97-.31-1.55.09-1.09.28-1.55.47-.82.85-1.07.8-.37,1.27-.37c.34,0,.65.07.92.22.27.14.49.33.66.57v-2.83h.96v7.87h-.9,0ZM203.91,184.96c0,.73.15,1.28.46,1.64.31.36.67.54,1.09.54s.78-.17,1.08-.52c.29-.35.44-.87.44-1.58,0-.78-.15-1.35-.45-1.72s-.67-.55-1.11-.55-.79.18-1.08.53c-.29.35-.43.9-.43,1.66h0Z"/><path d="M213.08,187.81v-.72c-.36.57-.89.85-1.6.85-.45,0-.87-.13-1.25-.38s-.68-.6-.89-1.05-.31-.97-.31-1.55.09-1.09.28-1.55.47-.82.85-1.07.8-.37,1.27-.37c.34,0,.65.07.92.22.27.14.49.33.66.57v-2.83h.96v7.87h-.9,0ZM210.02,184.96c0,.73.15,1.28.46,1.64.31.36.67.54,1.09.54s.78-.17,1.08-.52c.29-.35.44-.87.44-1.58,0-.78-.15-1.35-.45-1.72s-.67-.55-1.11-.55-.79.18-1.08.53c-.29.35-.43.9-.43,1.66h0Z"/><path d="M222.27,185.72l.95.12c-.1.66-.37,1.17-.8,1.54-.43.37-.95.56-1.58.56-.78,0-1.41-.25-1.88-.77-.47-.51-.71-1.24-.71-2.19,0-.62.1-1.15.31-1.62s.51-.81.93-1.04.87-.35,1.36-.35c.62,0,1.13.16,1.52.47s.65.76.76,1.33l-.94.14c-.09-.38-.25-.67-.48-.86s-.5-.29-.82-.29c-.49,0-.88.17-1.19.52-.3.35-.46.9-.46,1.66s.15,1.32.44,1.67c.29.35.68.52,1.15.52.38,0,.7-.12.95-.35.25-.23.42-.59.48-1.07h.01Z"/><path d="M223.69,184.95c0-1.06.29-1.84.88-2.35.49-.42,1.09-.63,1.79-.63.78,0,1.43.26,1.92.77s.75,1.22.75,2.13c0,.73-.11,1.31-.33,1.73s-.54.75-.96.98c-.42.23-.88.35-1.38.35-.8,0-1.44-.26-1.94-.77-.49-.51-.74-1.25-.74-2.21h.01ZM224.69,184.95c0,.73.16,1.28.48,1.64.32.36.72.54,1.2.54s.88-.18,1.2-.55.48-.92.48-1.67c0-.71-.16-1.24-.48-1.6-.32-.36-.72-.55-1.2-.55s-.88.18-1.2.54c-.32.36-.48.91-.48,1.64h0Z"/><path d="M230.17,187.81v-5.7h.87v.81c.42-.63,1.02-.94,1.82-.94.34,0,.66.06.95.19.29.12.5.29.65.49.14.2.24.44.3.71.04.18.05.49.05.94v3.51h-.97v-3.47c0-.39-.04-.69-.11-.88s-.21-.35-.4-.47c-.19-.12-.42-.17-.67-.17-.41,0-.77.13-1.07.39s-.45.76-.45,1.49v3.12h-.97v-.02Z"/><path d="M238.4,186.94l.14.85c-.27.06-.52.09-.73.09-.35,0-.62-.06-.82-.17-.19-.11-.33-.26-.41-.44s-.12-.56-.12-1.14v-3.28h-.71v-.75h.71v-1.41l.96-.58v1.99h.97v.75h-.97v3.33c0,.28.02.45.05.53s.09.14.17.19.19.07.33.07c.11,0,.25,0,.42-.04h0Z"/><path d="M243.25,185.97l1,.12c-.16.58-.45,1.04-.88,1.36s-.97.48-1.63.48c-.83,0-1.5-.26-1.98-.77-.49-.51-.73-1.24-.73-2.16s.25-1.71.74-2.23c.49-.53,1.14-.79,1.92-.79s1.39.26,1.87.78.73,1.25.73,2.19v.26h-4.25c.04.63.21,1.11.53,1.44s.72.5,1.19.5c.35,0,.66-.09.91-.28s.45-.48.6-.89h-.02ZM240.07,184.41h3.19c-.04-.48-.16-.84-.37-1.08-.31-.37-.71-.56-1.2-.56-.44,0-.82.15-1.12.45-.3.3-.47.7-.5,1.19h0Z"/><path d="M244.82,187.81l2.08-2.96-1.93-2.74h1.21l.88,1.34c.16.25.3.47.4.64.16-.24.3-.45.44-.63l.96-1.35h1.15l-1.97,2.69,2.12,3.02h-1.19l-1.17-1.77-.31-.48-1.5,2.25h-1.17Z"/><path d="M253.07,186.94l.14.85c-.27.06-.52.09-.73.09-.35,0-.62-.06-.82-.17-.19-.11-.33-.26-.41-.44s-.12-.56-.12-1.14v-3.28h-.71v-.75h.71v-1.41l.96-.58v1.99h.97v.75h-.97v3.33c0,.28.02.45.05.53s.09.14.17.19.19.07.33.07c.11,0,.25,0,.42-.04h0Z"/><path d="M259.18,186.94l.14.85c-.27.06-.52.09-.73.09-.35,0-.62-.06-.82-.17-.19-.11-.33-.26-.41-.44s-.12-.56-.12-1.14v-3.28h-.71v-.75h.71v-1.41l.96-.58v1.99h.97v.75h-.97v3.33c0,.28.02.45.05.53s.09.14.17.19c.08.05.19.07.33.07.11,0,.25,0,.42-.04h.01Z"/><path d="M259.77,184.95c0-1.06.29-1.84.88-2.35.49-.42,1.09-.63,1.79-.63.78,0,1.43.26,1.92.77s.75,1.22.75,2.13c0,.73-.11,1.31-.33,1.73s-.54.75-.96.98c-.42.23-.88.35-1.38.35-.8,0-1.44-.26-1.94-.77-.49-.51-.74-1.25-.74-2.21h0ZM260.76,184.95c0,.73.16,1.28.48,1.64s.72.54,1.2.54.88-.18,1.2-.55.48-.92.48-1.67c0-.71-.16-1.24-.48-1.6s-.72-.55-1.2-.55-.88.18-1.2.54-.48.91-.48,1.64h0Z"/><path d="M269.26,190l-.11-.91c.21.06.4.09.55.09.21,0,.39-.04.52-.11.13-.07.23-.17.32-.3.06-.1.16-.34.3-.72.02-.05.05-.13.09-.24l-2.16-5.71h1.04l1.19,3.3c.15.42.29.86.41,1.32.11-.44.24-.88.4-1.3l1.22-3.32h.97l-2.17,5.8c-.23.63-.41,1.06-.54,1.29-.17.32-.37.55-.59.7s-.49.22-.79.22c-.19,0-.39-.04-.62-.12h-.03Z"/><path d="M274.44,184.95c0-1.06.29-1.84.88-2.35.49-.42,1.09-.63,1.79-.63.78,0,1.43.26,1.92.77s.75,1.22.75,2.13c0,.73-.11,1.31-.33,1.73s-.54.75-.96.98c-.42.23-.88.35-1.38.35-.8,0-1.44-.26-1.94-.77-.49-.51-.74-1.25-.74-2.21h0ZM275.44,184.95c0,.73.16,1.28.48,1.64s.72.54,1.2.54.88-.18,1.2-.55.48-.92.48-1.67c0-.71-.16-1.24-.48-1.6s-.72-.55-1.2-.55-.88.18-1.2.54-.48.91-.48,1.64h0Z"/><path d="M284.66,187.81v-.84c-.44.64-1.05.97-1.81.97-.34,0-.65-.06-.94-.19s-.51-.29-.65-.49c-.14-.2-.24-.43-.3-.72-.04-.19-.06-.49-.06-.9v-3.53h.97v3.16c0,.5.02.85.06,1.02.06.25.19.45.39.6.2.14.44.22.73.22s.56-.07.82-.22.43-.35.54-.61c.11-.26.16-.63.16-1.12v-3.06h.97v5.7h-.88Z"/><path d="M287.03,187.81v-5.7h.87v.86c.22-.4.43-.67.61-.8.19-.13.4-.19.62-.19.33,0,.66.1.99.31l-.33.9c-.24-.14-.47-.21-.71-.21-.21,0-.4.06-.57.19s-.29.3-.36.53c-.11.34-.16.72-.16,1.13v2.99h-.97.01Z"/><path d="M293.76,187.81v-7.87h.97v2.83c.45-.52,1.02-.78,1.71-.78.42,0,.79.08,1.1.25s.53.4.67.69c.13.29.2.72.2,1.28v3.62h-.97v-3.62c0-.48-.1-.83-.31-1.05s-.51-.33-.89-.33c-.29,0-.56.07-.81.22s-.43.35-.54.6c-.11.25-.16.61-.16,1.05v3.12h-.97Z"/><path d="M303.78,185.97l1,.12c-.16.58-.45,1.04-.88,1.36s-.97.48-1.63.48c-.83,0-1.5-.26-1.98-.77-.49-.51-.73-1.24-.73-2.16s.25-1.71.74-2.23c.49-.53,1.14-.79,1.92-.79s1.39.26,1.87.78c.48.52.73,1.25.73,2.19v.26h-4.25c.04.63.21,1.11.53,1.44s.72.5,1.19.5c.35,0,.66-.09.91-.28s.45-.48.6-.89h-.02ZM300.61,184.41h3.19c-.04-.48-.16-.84-.37-1.08-.31-.37-.71-.56-1.2-.56-.44,0-.82.15-1.12.45s-.47.7-.5,1.19Z"/><path d="M309.72,187.1c-.36.3-.7.52-1.03.64-.33.13-.69.19-1.07.19-.63,0-1.11-.15-1.44-.46-.34-.31-.5-.7-.5-1.17,0-.28.06-.53.19-.77.13-.23.29-.42.5-.56s.44-.25.7-.32c.19-.05.48-.1.86-.14.78-.09,1.36-.2,1.72-.33v-.25c0-.39-.09-.67-.27-.83-.25-.22-.61-.33-1.1-.33-.45,0-.79.08-1.01.24s-.38.44-.48.85l-.95-.13c.09-.4.23-.73.42-.98.2-.25.48-.44.85-.58.37-.13.8-.2,1.29-.2s.88.06,1.19.17c.3.11.53.26.67.43s.24.39.3.66c.03.17.05.46.05.89v1.29c0,.9.02,1.47.06,1.71s.12.47.24.68h-1.01c-.1-.2-.16-.44-.19-.7h.01ZM309.64,184.94c-.35.14-.88.27-1.58.37-.4.06-.68.12-.84.19s-.29.18-.38.31-.13.29-.13.46c0,.26.1.47.29.64s.48.26.86.26.7-.08.99-.24.5-.39.64-.67c.1-.22.16-.54.16-.97v-.35h-.01Z"/><path d="M315.81,187.81v-.72c-.36.57-.89.85-1.6.85-.45,0-.87-.13-1.25-.38s-.68-.6-.89-1.05c-.21-.45-.31-.97-.31-1.55s.09-1.09.28-1.55.47-.82.85-1.07.8-.37,1.27-.37c.34,0,.65.07.92.22.27.14.49.33.66.57v-2.83h.96v7.87h-.9.01ZM312.76,184.96c0,.73.15,1.28.46,1.64s.67.54,1.09.54.78-.17,1.08-.52c.29-.35.44-.87.44-1.58,0-.78-.15-1.35-.45-1.72s-.67-.55-1.11-.55-.79.18-1.08.53c-.29.35-.43.9-.43,1.66h0Z"/><path d="M318.21,187.81v-7.87h.97v7.87h-.97Z"/><path d="M320.68,181.04v-1.11h.97v1.11h-.97ZM320.68,187.81v-5.7h.97v5.7h-.97Z"/><path d="M323.12,187.81v-5.7h.87v.81c.42-.63,1.02-.94,1.82-.94.34,0,.66.06.95.19.29.12.5.29.65.49.14.2.24.44.3.71.04.18.05.49.05.94v3.51h-.97v-3.47c0-.39-.04-.69-.11-.88s-.21-.35-.4-.47-.42-.17-.67-.17c-.41,0-.77.13-1.07.39-.3.26-.45.76-.45,1.49v3.12h-.97v-.02Z"/><path d="M333.14,185.97l1,.12c-.16.58-.45,1.04-.88,1.36s-.97.48-1.63.48c-.83,0-1.5-.26-1.98-.77-.49-.51-.73-1.24-.73-2.16s.25-1.71.74-2.23c.49-.53,1.14-.79,1.92-.79s1.39.26,1.87.78c.48.52.73,1.25.73,2.19v.26h-4.25c.04.63.21,1.11.53,1.44s.72.5,1.19.5c.35,0,.66-.09.91-.28s.45-.48.6-.89h-.02ZM329.97,184.41h3.19c-.04-.48-.16-.84-.37-1.08-.31-.37-.71-.56-1.2-.56-.44,0-.82.15-1.12.45s-.47.7-.5,1.19Z"/><path d="M335.6,187.81v-1.1h1.1v1.1c0,.4-.07.73-.21.98-.14.25-.37.44-.68.58l-.27-.41c.2-.09.35-.22.45-.39s.15-.42.16-.75h-.55Z"/><path d="M341.46,189.99v-7.89h.88v.74c.21-.29.44-.51.7-.65.26-.15.58-.22.95-.22.49,0,.92.12,1.29.38.37.25.65.6.84,1.06.19.46.28.96.28,1.5,0,.58-.1,1.11-.31,1.58s-.51.83-.91,1.07c-.4.25-.82.37-1.26.37-.32,0-.61-.07-.87-.2-.26-.14-.47-.31-.63-.52v2.78h-.97,0ZM342.34,184.99c0,.73.15,1.28.45,1.63.3.35.66.53,1.08.53s.8-.18,1.1-.54c.31-.36.46-.93.46-1.69s-.15-1.27-.45-1.63c-.3-.36-.66-.54-1.07-.54s-.78.19-1.09.58c-.32.38-.48.94-.48,1.68v-.02Z"/><path d="M347.57,187.81v-5.7h.87v.86c.22-.4.43-.67.61-.8.19-.13.4-.19.62-.19.33,0,.66.1.99.31l-.33.9c-.24-.14-.47-.21-.71-.21-.21,0-.4.06-.57.19s-.29.3-.36.53c-.11.34-.16.72-.16,1.13v2.99h-.97.01Z"/><path d="M350.89,184.95c0-1.06.29-1.84.88-2.35.49-.42,1.09-.63,1.79-.63.78,0,1.43.26,1.92.77s.75,1.22.75,2.13c0,.73-.11,1.31-.33,1.73s-.54.75-.96.98c-.42.23-.88.35-1.38.35-.8,0-1.44-.26-1.94-.77-.49-.51-.74-1.25-.74-2.21h0ZM351.88,184.95c0,.73.16,1.28.48,1.64s.72.54,1.2.54.88-.18,1.2-.55.48-.92.48-1.67c0-.71-.16-1.24-.48-1.6s-.72-.55-1.2-.55-.88.18-1.2.54-.48.91-.48,1.64h0Z"/><path d="M358.95,187.81l-2.17-5.7h1.02l1.22,3.42c.13.37.25.75.37,1.15.09-.3.21-.66.36-1.08l1.27-3.48h.99l-2.16,5.7h-.9,0Z"/><path d="M362.87,181.04v-1.11h.97v1.11h-.97ZM362.87,187.81v-5.7h.97v5.7h-.97Z"/><path d="M369.01,187.81v-.72c-.36.57-.89.85-1.6.85-.45,0-.87-.13-1.25-.38s-.68-.6-.89-1.05c-.21-.45-.31-.97-.31-1.55s.09-1.09.28-1.55.47-.82.85-1.07.8-.37,1.27-.37c.34,0,.65.07.92.22.27.14.49.33.66.57v-2.83h.96v7.87h-.9.01ZM365.95,184.96c0,.73.15,1.28.46,1.64s.67.54,1.09.54.78-.17,1.08-.52c.29-.35.44-.87.44-1.58,0-.78-.15-1.35-.45-1.72s-.67-.55-1.11-.55-.79.18-1.08.53c-.29.35-.43.9-.43,1.66h0Z"/><path d="M375.33,185.97l1,.12c-.16.58-.45,1.04-.88,1.36s-.97.48-1.63.48c-.83,0-1.5-.26-1.98-.77-.49-.51-.73-1.24-.73-2.16s.25-1.71.74-2.23c.49-.53,1.14-.79,1.92-.79s1.39.26,1.87.78c.48.52.73,1.25.73,2.19v.26h-4.25c.04.63.21,1.11.53,1.44s.72.5,1.19.5c.35,0,.66-.09.91-.28s.45-.48.6-.89h-.02ZM372.16,184.41h3.19c-.04-.48-.16-.84-.37-1.08-.31-.37-.71-.56-1.2-.56-.44,0-.82.15-1.12.45s-.47.7-.5,1.19Z"/><path d="M384.32,187.1c-.36.3-.7.52-1.03.64-.33.13-.69.19-1.07.19-.63,0-1.11-.15-1.44-.46-.34-.31-.5-.7-.5-1.17,0-.28.06-.53.19-.77.13-.23.29-.42.5-.56s.44-.25.7-.32c.19-.05.48-.1.86-.14.78-.09,1.36-.2,1.72-.33v-.25c0-.39-.09-.67-.27-.83-.25-.22-.61-.33-1.1-.33-.45,0-.79.08-1.01.24s-.38.44-.48.85l-.95-.13c.09-.4.23-.73.42-.98.2-.25.48-.44.85-.58.37-.13.8-.2,1.29-.2s.88.06,1.19.17c.3.11.53.26.67.43s.24.39.3.66c.03.17.05.46.05.89v1.29c0,.9.02,1.47.06,1.71s.12.47.24.68h-1.01c-.1-.2-.16-.44-.19-.7h.01ZM384.24,184.94c-.35.14-.88.27-1.58.37-.4.06-.68.12-.84.19s-.29.18-.38.31-.13.29-.13.46c0,.26.1.47.29.64s.48.26.86.26.7-.08.99-.24.5-.39.64-.67c.1-.22.16-.54.16-.97v-.35h-.01Z"/><path d="M386.72,187.81v-5.7h.87v.81c.42-.63,1.02-.94,1.82-.94.34,0,.66.06.95.19.29.12.5.29.65.49.14.2.24.44.3.71.04.18.05.49.05.94v3.51h-.97v-3.47c0-.39-.04-.69-.11-.88s-.21-.35-.4-.47-.42-.17-.67-.17c-.41,0-.77.13-1.07.39-.3.26-.45.76-.45,1.49v3.12h-.97v-.02Z"/><path d="M113.4,196.04v-1.11h.97v1.11h-.97ZM113.4,202.81v-5.7h.97v5.7h-.97Z"/><path d="M115.84,202.81v-5.7h.87v.81c.42-.63,1.02-.94,1.82-.94.34,0,.66.06.95.19.29.12.5.29.65.49.14.2.24.44.3.71.04.18.05.49.05.94v3.51h-.97v-3.47c0-.39-.04-.69-.11-.88s-.21-.35-.4-.47-.42-.17-.67-.17c-.41,0-.77.13-1.07.39s-.45.76-.45,1.49v3.12h-.97v-.02Z"/><path d="M124.06,201.94l.14.85c-.27.06-.52.09-.73.09-.35,0-.62-.06-.82-.17-.19-.11-.33-.26-.41-.44s-.12-.56-.12-1.14v-3.28h-.71v-.75h.71v-1.41l.96-.58v1.99h.97v.75h-.97v3.33c0,.28.02.45.05.53.03.08.09.14.17.19s.19.07.33.07c.11,0,.25,0,.42-.04h.01Z"/><path d="M125,202.81v-5.7h.87v.86c.22-.4.43-.67.61-.8.19-.13.4-.19.62-.19.33,0,.66.1.99.31l-.33.9c-.24-.14-.47-.21-.71-.21-.21,0-.4.06-.57.19s-.29.3-.36.53c-.11.34-.16.72-.16,1.13v2.99h-.97,0Z"/><path d="M128.31,199.95c0-1.06.29-1.84.88-2.35.49-.42,1.09-.63,1.79-.63.78,0,1.43.26,1.92.77s.75,1.22.75,2.13c0,.73-.11,1.31-.33,1.73s-.54.75-.96.98c-.42.23-.88.35-1.38.35-.8,0-1.44-.26-1.94-.77-.49-.51-.74-1.25-.74-2.21h.01ZM129.31,199.95c0,.73.16,1.28.48,1.64.32.36.72.54,1.2.54s.88-.18,1.2-.55.48-.92.48-1.67c0-.71-.16-1.24-.48-1.6-.32-.36-.72-.55-1.2-.55s-.88.18-1.2.54c-.32.36-.48.91-.48,1.64h0Z"/><path d="M139.96,201.94l.14.85c-.27.06-.52.09-.73.09-.35,0-.62-.06-.82-.17-.19-.11-.33-.26-.41-.44s-.12-.56-.12-1.14v-3.28h-.71v-.75h.71v-1.41l.96-.58v1.99h.97v.75h-.97v3.33c0,.28.02.45.05.53s.09.14.17.19.19.07.33.07c.11,0,.25,0,.42-.04h0Z"/><path d="M140.54,199.95c0-1.06.29-1.84.88-2.35.49-.42,1.09-.63,1.79-.63.78,0,1.43.26,1.92.77s.75,1.22.75,2.13c0,.73-.11,1.31-.33,1.73s-.54.75-.96.98c-.42.23-.88.35-1.38.35-.8,0-1.44-.26-1.94-.77-.49-.51-.74-1.25-.74-2.21h.01ZM141.54,199.95c0,.73.16,1.28.48,1.64.32.36.72.54,1.2.54s.88-.18,1.2-.55.48-.92.48-1.67c0-.71-.16-1.24-.48-1.6-.32-.36-.72-.55-1.2-.55s-.88.18-1.2.54c-.32.36-.48.91-.48,1.64h0Z"/><path d="M152.19,201.94l.14.85c-.27.06-.52.09-.73.09-.35,0-.62-.06-.82-.17-.19-.11-.33-.26-.41-.44s-.12-.56-.12-1.14v-3.28h-.71v-.75h.71v-1.41l.96-.58v1.99h.97v.75h-.97v3.33c0,.28.02.45.05.53s.09.14.17.19.19.07.33.07c.11,0,.25,0,.42-.04h0Z"/><path d="M153.13,202.81v-7.87h.97v2.83c.45-.52,1.02-.78,1.71-.78.42,0,.79.08,1.1.25.31.17.53.4.67.69.13.29.2.72.2,1.28v3.62h-.97v-3.62c0-.48-.1-.83-.31-1.05-.21-.22-.51-.33-.89-.33-.29,0-.56.07-.81.22s-.43.35-.54.6-.16.61-.16,1.05v3.12h-.97Z"/><path d="M163.16,200.97l1,.12c-.16.58-.45,1.04-.88,1.36s-.97.48-1.63.48c-.83,0-1.5-.26-1.98-.77-.49-.51-.73-1.24-.73-2.16s.25-1.71.74-2.23c.49-.53,1.14-.79,1.92-.79s1.39.26,1.87.78.73,1.25.73,2.19v.26h-4.25c.04.63.21,1.11.53,1.44s.72.5,1.19.5c.35,0,.66-.09.91-.28s.45-.48.6-.89h-.02ZM159.98,199.41h3.19c-.04-.48-.16-.84-.37-1.08-.31-.37-.71-.56-1.2-.56-.44,0-.82.15-1.12.45-.3.3-.47.7-.5,1.19h0Z"/><path d="M172.33,200.97l1,.12c-.16.58-.45,1.04-.88,1.36s-.97.48-1.63.48c-.83,0-1.5-.26-1.98-.77-.49-.51-.73-1.24-.73-2.16s.25-1.71.74-2.23c.49-.53,1.14-.79,1.92-.79s1.39.26,1.87.78.73,1.25.73,2.19v.26h-4.25c.04.63.21,1.11.53,1.44s.72.5,1.19.5c.35,0,.66-.09.91-.28s.45-.48.6-.89h-.02ZM169.15,199.41h3.19c-.04-.48-.16-.84-.37-1.08-.31-.37-.71-.56-1.2-.56-.44,0-.82.15-1.12.45-.3.3-.47.7-.5,1.19h0Z"/><path d="M174.54,202.81v-5.7h.86v.8c.18-.28.42-.5.71-.67s.64-.25,1.02-.25c.42,0,.77.09,1.04.26.27.18.46.42.57.74.45-.67,1.04-1,1.76-1,.57,0,1,.16,1.31.47s.46.8.46,1.45v3.92h-.96v-3.59c0-.39-.03-.67-.09-.83-.06-.17-.18-.31-.34-.41s-.36-.16-.58-.16c-.4,0-.73.13-1,.4-.27.27-.4.69-.4,1.28v3.31h-.97v-3.71c0-.43-.08-.75-.24-.97s-.42-.32-.77-.32c-.27,0-.52.07-.75.21s-.4.35-.5.63-.16.67-.16,1.19v2.96h-.97Z"/><path d="M187.43,202.1c-.36.3-.7.52-1.03.64-.33.13-.69.19-1.07.19-.63,0-1.11-.15-1.44-.46-.34-.31-.5-.7-.5-1.17,0-.28.06-.53.19-.77.13-.23.29-.42.5-.56s.44-.25.7-.32c.19-.05.48-.1.86-.14.78-.09,1.36-.2,1.72-.33v-.25c0-.39-.09-.67-.27-.83-.25-.22-.61-.33-1.1-.33-.45,0-.79.08-1.01.24s-.38.44-.48.85l-.95-.13c.09-.4.23-.73.42-.98.2-.25.48-.44.85-.58.37-.13.8-.2,1.29-.2s.88.06,1.19.17c.3.11.53.26.67.43s.24.39.3.66c.03.17.05.46.05.89v1.29c0,.9.02,1.47.06,1.71s.12.47.24.68h-1.01c-.1-.2-.16-.44-.19-.7h0ZM187.35,199.94c-.35.14-.88.27-1.58.37-.4.06-.68.12-.84.19s-.29.18-.38.31-.13.29-.13.46c0,.26.1.47.29.64.19.17.48.26.86.26s.7-.08.99-.24.5-.39.64-.67c.1-.22.16-.54.16-.97v-.35h0Z"/><path d="M189.83,196.04v-1.11h.97v1.11h-.97ZM189.83,202.81v-5.7h.97v5.7h-.97Z"/><path d="M192.24,202.81v-7.87h.97v7.87h-.97Z"/><path d="M194.96,202.81v-1.1h1.1v1.1c0,.4-.07.73-.21.98s-.37.44-.68.58l-.27-.41c.2-.09.35-.22.45-.39s.15-.42.16-.75h-.55Z"/><path d="M204.54,202.1c-.36.3-.7.52-1.03.64-.33.13-.69.19-1.07.19-.63,0-1.11-.15-1.44-.46-.34-.31-.5-.7-.5-1.17,0-.28.06-.53.19-.77.13-.23.29-.42.5-.56s.44-.25.7-.32c.19-.05.48-.1.86-.14.78-.09,1.36-.2,1.72-.33v-.25c0-.39-.09-.67-.27-.83-.25-.22-.61-.33-1.1-.33-.45,0-.79.08-1.01.24s-.38.44-.48.85l-.95-.13c.09-.4.23-.73.42-.98.2-.25.48-.44.85-.58.37-.13.8-.2,1.29-.2s.88.06,1.19.17c.3.11.53.26.67.43s.24.39.3.66c.03.17.05.46.05.89v1.29c0,.9.02,1.47.06,1.71s.12.47.24.68h-1.01c-.1-.2-.16-.44-.19-.7h0ZM204.46,199.94c-.35.14-.88.27-1.58.37-.4.06-.68.12-.84.19s-.29.18-.38.31-.13.29-.13.46c0,.26.1.47.29.64.19.17.48.26.86.26s.7-.08.99-.24.5-.39.64-.67c.1-.22.16-.54.16-.97v-.35h0Z"/><path d="M206.94,202.81v-5.7h.87v.81c.42-.63,1.02-.94,1.82-.94.34,0,.66.06.95.19.29.12.5.29.65.49.14.2.24.44.3.71.04.18.05.49.05.94v3.51h-.97v-3.47c0-.39-.04-.69-.11-.88s-.21-.35-.4-.47c-.19-.12-.42-.17-.67-.17-.41,0-.77.13-1.07.39s-.45.76-.45,1.49v3.12h-.97v-.02Z"/><path d="M216.76,202.81v-.72c-.36.57-.89.85-1.6.85-.45,0-.87-.13-1.25-.38s-.68-.6-.89-1.05-.31-.97-.31-1.55.09-1.09.28-1.55.47-.82.85-1.07.8-.37,1.27-.37c.34,0,.65.07.92.22.27.14.49.33.66.57v-2.83h.96v7.87h-.9,0ZM213.7,199.96c0,.73.15,1.28.46,1.64.31.36.67.54,1.09.54s.78-.17,1.08-.52c.29-.35.44-.87.44-1.58,0-.78-.15-1.35-.45-1.72s-.67-.55-1.11-.55-.79.18-1.08.53c-.29.35-.43.9-.43,1.66h0Z"/><path d="M222.24,196.04v-1.11h.97v1.11h-.97ZM222.24,202.81v-5.7h.97v5.7h-.97Z"/><path d="M224.68,202.81v-5.7h.87v.81c.42-.63,1.02-.94,1.82-.94.34,0,.66.06.95.19.29.12.5.29.65.49.14.2.24.44.3.71.04.18.05.49.05.94v3.51h-.97v-3.47c0-.39-.04-.69-.11-.88s-.21-.35-.4-.47c-.19-.12-.42-.17-.67-.17-.41,0-.77.13-1.07.39s-.45.76-.45,1.49v3.12h-.97v-.02Z"/><path d="M234.52,200.72l.95.12c-.1.66-.37,1.17-.8,1.54-.43.37-.95.56-1.58.56-.78,0-1.41-.25-1.88-.77-.47-.51-.71-1.24-.71-2.19,0-.62.1-1.15.31-1.62s.51-.81.93-1.04.87-.35,1.36-.35c.62,0,1.13.16,1.52.47s.65.76.76,1.33l-.94.14c-.09-.38-.25-.67-.48-.86s-.5-.29-.82-.29c-.49,0-.88.17-1.19.52-.3.35-.46.9-.46,1.66s.15,1.32.44,1.67c.29.35.68.52,1.15.52.38,0,.7-.12.95-.35.25-.23.42-.59.48-1.07h.01Z"/><path d="M236.27,202.81v-7.87h.97v7.87h-.97Z"/><path d="M242.48,202.81v-.84c-.44.64-1.05.97-1.81.97-.34,0-.65-.06-.94-.19-.29-.13-.51-.29-.65-.49-.14-.2-.24-.43-.3-.72-.04-.19-.06-.49-.06-.9v-3.53h.97v3.16c0,.5.02.85.06,1.02.06.25.19.45.39.6.2.14.44.22.73.22s.56-.07.82-.22.43-.35.54-.61.16-.63.16-1.12v-3.06h.97v5.7h-.88Z"/><path d="M248.56,202.81v-.72c-.36.57-.89.85-1.6.85-.45,0-.87-.13-1.25-.38s-.68-.6-.89-1.05-.31-.97-.31-1.55.09-1.09.28-1.55.47-.82.85-1.07.8-.37,1.27-.37c.34,0,.65.07.92.22.27.14.49.33.66.57v-2.83h.96v7.87h-.9,0ZM245.5,199.96c0,.73.15,1.28.46,1.64.31.36.67.54,1.09.54s.78-.17,1.08-.52c.29-.35.44-.87.44-1.58,0-.78-.15-1.35-.45-1.72s-.67-.55-1.11-.55-.79.18-1.08.53c-.29.35-.43.9-.43,1.66h0Z"/><path d="M254.88,200.97l1,.12c-.16.58-.45,1.04-.88,1.36s-.97.48-1.63.48c-.83,0-1.5-.26-1.98-.77-.49-.51-.73-1.24-.73-2.16s.25-1.71.74-2.23c.49-.53,1.14-.79,1.92-.79s1.39.26,1.87.78.73,1.25.73,2.19v.26h-4.25c.04.63.21,1.11.53,1.44s.72.5,1.19.5c.35,0,.66-.09.91-.28s.45-.48.6-.89h-.02ZM251.7,199.41h3.19c-.04-.48-.16-.84-.37-1.08-.31-.37-.71-.56-1.2-.56-.44,0-.82.15-1.12.45-.3.3-.47.7-.5,1.19h0Z"/><path d="M263.87,202.1c-.36.3-.7.52-1.03.64-.33.13-.69.19-1.07.19-.63,0-1.11-.15-1.44-.46-.34-.31-.5-.7-.5-1.17,0-.28.06-.53.19-.77.13-.23.29-.42.5-.56s.44-.25.7-.32c.19-.05.48-.1.86-.14.78-.09,1.36-.2,1.72-.33v-.25c0-.39-.09-.67-.27-.83-.25-.22-.61-.33-1.1-.33-.45,0-.79.08-1.01.24s-.38.44-.48.85l-.95-.13c.09-.4.23-.73.42-.98.2-.25.48-.44.85-.58.37-.13.8-.2,1.29-.2s.88.06,1.19.17c.3.11.53.26.67.43s.24.39.3.66c.03.17.05.46.05.89v1.29c0,.9.02,1.47.06,1.71s.12.47.24.68h-1.01c-.1-.2-.16-.44-.19-.7h.01ZM263.79,199.94c-.35.14-.88.27-1.58.37-.4.06-.68.12-.84.19s-.29.18-.38.31-.13.29-.13.46c0,.26.1.47.29.64s.48.26.86.26.7-.08.99-.24.5-.39.64-.67c.1-.22.16-.54.16-.97v-.35h-.01Z"/><path d="M271.43,201.94l.14.85c-.27.06-.52.09-.73.09-.35,0-.62-.06-.82-.17-.19-.11-.33-.26-.41-.44s-.12-.56-.12-1.14v-3.28h-.71v-.75h.71v-1.41l.96-.58v1.99h.97v.75h-.97v3.33c0,.28.02.45.05.53s.09.14.17.19c.08.05.19.07.33.07.11,0,.25,0,.42-.04h.01Z"/><path d="M272.37,202.81v-5.7h.87v.86c.22-.4.43-.67.61-.8.19-.13.4-.19.62-.19.33,0,.66.1.99.31l-.33.9c-.24-.14-.47-.21-.71-.21-.21,0-.4.06-.57.19s-.29.3-.36.53c-.11.34-.16.72-.16,1.13v2.99h-.97.01Z"/><path d="M279.76,202.1c-.36.3-.7.52-1.03.64-.33.13-.69.19-1.07.19-.63,0-1.11-.15-1.44-.46-.34-.31-.5-.7-.5-1.17,0-.28.06-.53.19-.77.13-.23.29-.42.5-.56s.44-.25.7-.32c.19-.05.48-.1.86-.14.78-.09,1.36-.2,1.72-.33v-.25c0-.39-.09-.67-.27-.83-.25-.22-.61-.33-1.1-.33-.45,0-.79.08-1.01.24s-.38.44-.48.85l-.95-.13c.09-.4.23-.73.42-.98.2-.25.48-.44.85-.58.37-.13.8-.2,1.29-.2s.88.06,1.19.17c.3.11.53.26.67.43s.24.39.3.66c.03.17.05.46.05.89v1.29c0,.9.02,1.47.06,1.71s.12.47.24.68h-1.01c-.1-.2-.16-.44-.19-.7h.01ZM279.68,199.94c-.35.14-.88.27-1.58.37-.4.06-.68.12-.84.19s-.29.18-.38.31-.13.29-.13.46c0,.26.1.47.29.64s.48.26.86.26.7-.08.99-.24.5-.39.64-.67c.1-.22.16-.54.16-.97v-.35h-.01Z"/><path d="M282.16,202.81v-5.7h.87v.81c.42-.63,1.02-.94,1.82-.94.34,0,.66.06.95.19.29.12.5.29.65.49.14.2.24.44.3.71.04.18.05.49.05.94v3.51h-.97v-3.47c0-.39-.04-.69-.11-.88s-.21-.35-.4-.47-.42-.17-.67-.17c-.41,0-.77.13-1.07.39-.3.26-.45.76-.45,1.49v3.12h-.97v-.02Z"/><path d="M287.89,201.1l.96-.15c.05.38.2.68.45.88.25.2.59.31,1.03.31s.77-.09.99-.27.32-.39.32-.64c0-.22-.09-.39-.28-.52-.13-.09-.46-.2-.99-.33-.71-.18-1.2-.33-1.47-.46s-.48-.31-.62-.54c-.14-.23-.21-.49-.21-.77,0-.25.06-.49.17-.71.12-.22.27-.4.48-.54.15-.11.36-.21.62-.28.26-.08.54-.12.83-.12.45,0,.84.06,1.18.19s.59.3.75.52.27.51.33.88l-.95.13c-.04-.29-.17-.52-.37-.69-.21-.17-.5-.25-.87-.25-.44,0-.76.07-.95.22s-.28.32-.28.52c0,.13.04.24.12.34.08.1.2.19.37.26.1.04.38.12.85.25.68.18,1.16.33,1.43.45s.48.29.64.51c.15.22.23.5.23.83s-.09.63-.28.91c-.19.29-.46.5-.81.66s-.76.23-1.2.23c-.74,0-1.31-.15-1.69-.46-.39-.31-.64-.76-.74-1.37h-.04Z"/><path d="M293.78,196.04v-1.11h.97v1.11h-.97ZM293.78,202.81v-5.7h.97v5.7h-.97Z"/><path d="M298.33,201.94l.14.85c-.27.06-.52.09-.73.09-.35,0-.62-.06-.82-.17-.19-.11-.33-.26-.41-.44s-.12-.56-.12-1.14v-3.28h-.71v-.75h.71v-1.41l.96-.58v1.99h.97v.75h-.97v3.33c0,.28.02.45.05.53s.09.14.17.19c.08.05.19.07.33.07.11,0,.25,0,.42-.04h.01Z"/><path d="M299.28,196.04v-1.11h.97v1.11h-.97ZM299.28,202.81v-5.7h.97v5.7h-.97Z"/><path d="M301.36,199.95c0-1.06.29-1.84.88-2.35.49-.42,1.09-.63,1.79-.63.78,0,1.43.26,1.92.77s.75,1.22.75,2.13c0,.73-.11,1.31-.33,1.73s-.54.75-.96.98c-.42.23-.88.35-1.38.35-.8,0-1.44-.26-1.94-.77-.49-.51-.74-1.25-.74-2.21h0ZM302.35,199.95c0,.73.16,1.28.48,1.64s.72.54,1.2.54.88-.18,1.2-.55.48-.92.48-1.67c0-.71-.16-1.24-.48-1.6s-.72-.55-1.2-.55-.88.18-1.2.54-.48.91-.48,1.64h0Z"/><path d="M307.84,202.81v-5.7h.87v.81c.42-.63,1.02-.94,1.82-.94.34,0,.66.06.95.19.29.12.5.29.65.49.14.2.24.44.3.71.04.18.05.49.05.94v3.51h-.97v-3.47c0-.39-.04-.69-.11-.88s-.21-.35-.4-.47-.42-.17-.67-.17c-.41,0-.77.13-1.07.39-.3.26-.45.76-.45,1.49v3.12h-.97v-.02Z"/><path d="M317.02,196.04v-1.11h.97v1.11h-.97ZM317.02,202.81v-5.7h.97v5.7h-.97Z"/><path d="M319.45,202.81v-5.7h.87v.81c.42-.63,1.02-.94,1.82-.94.34,0,.66.06.95.19.29.12.5.29.65.49.14.2.24.44.3.71.04.18.05.49.05.94v3.51h-.97v-3.47c0-.39-.04-.69-.11-.88s-.21-.35-.4-.47-.42-.17-.67-.17c-.41,0-.77.13-1.07.39-.3.26-.45.76-.45,1.49v3.12h-.97v-.02Z"/><path d="M327.68,201.94l.14.85c-.27.06-.52.09-.73.09-.35,0-.62-.06-.82-.17-.19-.11-.33-.26-.41-.44s-.12-.56-.12-1.14v-3.28h-.71v-.75h.71v-1.41l.96-.58v1.99h.97v.75h-.97v3.33c0,.28.02.45.05.53s.09.14.17.19c.08.05.19.07.33.07.11,0,.25,0,.42-.04h.01Z"/><path d="M328.27,199.95c0-1.06.29-1.84.88-2.35.49-.42,1.09-.63,1.79-.63.78,0,1.43.26,1.92.77s.75,1.22.75,2.13c0,.73-.11,1.31-.33,1.73s-.54.75-.96.98c-.42.23-.88.35-1.38.35-.8,0-1.44-.26-1.94-.77-.49-.51-.74-1.25-.74-2.21h0ZM329.26,199.95c0,.73.16,1.28.48,1.64s.72.54,1.2.54.88-.18,1.2-.55.48-.92.48-1.67c0-.71-.16-1.24-.48-1.6s-.72-.55-1.2-.55-.88.18-1.2.54-.48.91-.48,1.64h0Z"/><path d="M339.91,201.94l.14.85c-.27.06-.52.09-.73.09-.35,0-.62-.06-.82-.17-.19-.11-.33-.26-.41-.44s-.12-.56-.12-1.14v-3.28h-.71v-.75h.71v-1.41l.96-.58v1.99h.97v.75h-.97v3.33c0,.28.02.45.05.53s.09.14.17.19c.08.05.19.07.33.07.11,0,.25,0,.42-.04h.01Z"/><path d="M340.86,202.81v-7.87h.97v2.83c.45-.52,1.02-.78,1.71-.78.42,0,.79.08,1.1.25s.53.4.67.69c.13.29.2.72.2,1.28v3.62h-.97v-3.62c0-.48-.1-.83-.31-1.05s-.51-.33-.89-.33c-.29,0-.56.07-.81.22s-.43.35-.54.6c-.11.25-.16.61-.16,1.05v3.12h-.97Z"/><path d="M350.88,200.97l1,.12c-.16.58-.45,1.04-.88,1.36s-.97.48-1.63.48c-.83,0-1.5-.26-1.98-.77-.49-.51-.73-1.24-.73-2.16s.25-1.71.74-2.23c.49-.53,1.14-.79,1.92-.79s1.39.26,1.87.78c.48.52.73,1.25.73,2.19v.26h-4.25c.04.63.21,1.11.53,1.44s.72.5,1.19.5c.35,0,.66-.09.91-.28s.45-.48.6-.89h-.02ZM347.71,199.41h3.19c-.04-.48-.16-.84-.37-1.08-.31-.37-.71-.56-1.2-.56-.44,0-.82.15-1.12.45s-.47.7-.5,1.19Z"/><path d="M359.87,200.72l.95.12c-.1.66-.37,1.17-.8,1.54s-.95.56-1.58.56c-.78,0-1.41-.25-1.88-.77-.47-.51-.71-1.24-.71-2.19,0-.62.1-1.15.31-1.62s.51-.81.93-1.04c.42-.23.87-.35,1.36-.35.62,0,1.13.16,1.52.47s.65.76.76,1.33l-.94.14c-.09-.38-.25-.67-.48-.86s-.5-.29-.82-.29c-.49,0-.88.17-1.19.52-.3.35-.46.9-.46,1.66s.15,1.32.44,1.67c.29.35.68.52,1.15.52.38,0,.7-.12.95-.35.25-.23.42-.59.48-1.07h0Z"/><path d="M365.37,202.1c-.36.3-.7.52-1.03.64-.33.13-.69.19-1.07.19-.63,0-1.11-.15-1.44-.46-.34-.31-.5-.7-.5-1.17,0-.28.06-.53.19-.77.13-.23.29-.42.5-.56s.44-.25.7-.32c.19-.05.48-.1.86-.14.78-.09,1.36-.2,1.72-.33v-.25c0-.39-.09-.67-.27-.83-.25-.22-.61-.33-1.1-.33-.45,0-.79.08-1.01.24s-.38.44-.48.85l-.95-.13c.09-.4.23-.73.42-.98.2-.25.48-.44.85-.58.37-.13.8-.2,1.29-.2s.88.06,1.19.17c.3.11.53.26.67.43s.24.39.3.66c.03.17.05.46.05.89v1.29c0,.9.02,1.47.06,1.71s.12.47.24.68h-1.01c-.1-.2-.16-.44-.19-.7h.01ZM365.29,199.94c-.35.14-.88.27-1.58.37-.4.06-.68.12-.84.19s-.29.18-.38.31-.13.29-.13.46c0,.26.1.47.29.64s.48.26.86.26.7-.08.99-.24.5-.39.64-.67c.1-.22.16-.54.16-.97v-.35h-.01Z"/><path d="M367.75,202.81v-7.87h.97v7.87h-.97Z"/><path d="M370.19,202.81v-7.87h.97v7.87h-.97Z"/><path d="M372.28,200.44v-.97h2.97v.97h-2.97Z"/><path d="M378.43,201.94l.14.85c-.27.06-.52.09-.73.09-.35,0-.62-.06-.82-.17-.19-.11-.33-.26-.41-.44s-.12-.56-.12-1.14v-3.28h-.71v-.75h.71v-1.41l.96-.58v1.99h.97v.75h-.97v3.33c0,.28.02.45.05.53s.09.14.17.19c.08.05.19.07.33.07.11,0,.25,0,.42-.04h.01Z"/><path d="M379.01,199.95c0-1.06.29-1.84.88-2.35.49-.42,1.09-.63,1.79-.63.78,0,1.43.26,1.92.77s.75,1.22.75,2.13c0,.73-.11,1.31-.33,1.73s-.54.75-.96.98c-.42.23-.88.35-1.38.35-.8,0-1.44-.26-1.94-.77-.49-.51-.74-1.25-.74-2.21h0ZM380.01,199.95c0,.73.16,1.28.48,1.64s.72.54,1.2.54.88-.18,1.2-.55.48-.92.48-1.67c0-.71-.16-1.24-.48-1.6s-.72-.55-1.2-.55-.88.18-1.2.54-.48.91-.48,1.64h0Z"/><path d="M385.12,200.44v-.97h2.97v.97h-2.97Z"/><path d="M167.66,217.1c-.36.3-.7.52-1.03.64-.33.13-.69.19-1.07.19-.63,0-1.11-.15-1.44-.46-.34-.31-.5-.7-.5-1.17,0-.28.06-.53.19-.77.13-.23.29-.42.5-.56s.44-.25.7-.32c.19-.05.48-.1.86-.14.78-.09,1.36-.2,1.72-.33v-.25c0-.39-.09-.67-.27-.83-.25-.22-.61-.33-1.1-.33-.45,0-.79.08-1.01.24s-.38.44-.48.85l-.95-.13c.09-.4.23-.73.42-.98.2-.25.48-.44.85-.58.37-.13.8-.2,1.29-.2s.88.06,1.19.17c.3.11.53.26.67.43s.24.39.3.66c.03.17.05.46.05.89v1.29c0,.9.02,1.47.06,1.71s.12.47.24.68h-1.01c-.1-.2-.16-.44-.19-.7h0ZM167.58,214.94c-.35.14-.88.27-1.58.37-.4.06-.68.12-.84.19s-.29.18-.38.31-.13.29-.13.46c0,.26.1.47.29.64.19.17.48.26.86.26s.7-.08.99-.24.5-.39.64-.67c.1-.22.16-.54.16-.97v-.35h0Z"/><path d="M173.77,215.72l.95.12c-.1.66-.37,1.17-.8,1.54-.43.37-.95.56-1.58.56-.78,0-1.41-.25-1.88-.77-.47-.51-.71-1.24-.71-2.19,0-.62.1-1.15.31-1.62s.51-.81.93-1.04.87-.35,1.36-.35c.62,0,1.13.16,1.52.47s.65.76.76,1.33l-.94.14c-.09-.38-.25-.67-.48-.86s-.5-.29-.82-.29c-.49,0-.88.17-1.19.52-.3.35-.46.9-.46,1.66s.15,1.32.44,1.67c.29.35.68.52,1.15.52.38,0,.7-.12.95-.35.25-.23.42-.59.48-1.07h.01Z"/><path d="M177.66,216.94l.14.85c-.27.06-.52.09-.73.09-.35,0-.62-.06-.82-.17-.19-.11-.33-.26-.41-.44s-.12-.56-.12-1.14v-3.28h-.71v-.75h.71v-1.41l.96-.58v1.99h.97v.75h-.97v3.33c0,.28.02.45.05.53s.09.14.17.19.19.07.33.07c.11,0,.25,0,.42-.04h0Z"/><path d="M178.61,211.04v-1.11h.97v1.11h-.97ZM178.61,217.81v-5.7h.97v5.7h-.97Z"/><path d="M180.69,214.95c0-1.06.29-1.84.88-2.35.49-.42,1.09-.63,1.79-.63.78,0,1.43.26,1.92.77s.75,1.22.75,2.13c0,.73-.11,1.31-.33,1.73s-.54.75-.96.98c-.42.23-.88.35-1.38.35-.8,0-1.44-.26-1.94-.77-.49-.51-.74-1.25-.74-2.21h.01ZM181.69,214.95c0,.73.16,1.28.48,1.64.32.36.72.54,1.2.54s.88-.18,1.2-.55.48-.92.48-1.67c0-.71-.16-1.24-.48-1.6-.32-.36-.72-.55-1.2-.55s-.88.18-1.2.54c-.32.36-.48.91-.48,1.64h0Z"/><path d="M187.17,217.81v-5.7h.87v.81c.42-.63,1.02-.94,1.82-.94.34,0,.66.06.95.19.29.12.5.29.65.49.14.2.24.44.3.71.04.18.05.49.05.94v3.51h-.97v-3.47c0-.39-.04-.69-.11-.88s-.21-.35-.4-.47c-.19-.12-.42-.17-.67-.17-.41,0-.77.13-1.07.39s-.45.76-.45,1.49v3.12h-.97v-.02Z"/><path d="M197.23,217.81h-.9v-7.87h.97v2.81c.41-.51.93-.77,1.56-.77.35,0,.68.07,1,.21.31.14.57.34.77.6.2.26.36.56.48.93.11.36.17.75.17,1.16,0,.98-.24,1.73-.73,2.27-.48.53-1.06.8-1.74.8s-1.2-.28-1.58-.84v.71h0ZM197.22,214.91c0,.68.09,1.18.28,1.48.3.5.72.75,1.24.75.42,0,.79-.18,1.1-.55s.46-.91.46-1.64-.15-1.29-.44-1.65c-.3-.35-.65-.53-1.07-.53s-.79.18-1.1.55c-.31.37-.46.9-.46,1.59h0Z"/><path d="M206.2,217.81v-.84c-.44.64-1.05.97-1.81.97-.34,0-.65-.06-.94-.19-.29-.13-.51-.29-.65-.49-.14-.2-.24-.43-.3-.72-.04-.19-.06-.49-.06-.9v-3.53h.97v3.16c0,.5.02.85.06,1.02.06.25.19.45.39.6.2.14.44.22.73.22s.56-.07.82-.22.43-.35.54-.61.16-.63.16-1.12v-3.06h.97v5.7h-.88Z"/><path d="M210.69,216.94l.14.85c-.27.06-.52.09-.73.09-.35,0-.62-.06-.82-.17-.19-.11-.33-.26-.41-.44s-.12-.56-.12-1.14v-3.28h-.71v-.75h.71v-1.41l.96-.58v1.99h.97v.75h-.97v3.33c0,.28.02.45.05.53s.09.14.17.19.19.07.33.07c.11,0,.25,0,.42-.04h0Z"/><path d="M213.75,216.94l.14.85c-.27.06-.52.09-.73.09-.35,0-.62-.06-.82-.17-.19-.11-.33-.26-.41-.44s-.12-.56-.12-1.14v-3.28h-.71v-.75h.71v-1.41l.96-.58v1.99h.97v.75h-.97v3.33c0,.28.02.45.05.53s.09.14.17.19.19.07.33.07c.11,0,.25,0,.42-.04h0Z"/><path d="M214.33,214.95c0-1.06.29-1.84.88-2.35.49-.42,1.09-.63,1.79-.63.78,0,1.43.26,1.92.77s.75,1.22.75,2.13c0,.73-.11,1.31-.33,1.73s-.54.75-.96.98c-.42.23-.88.35-1.38.35-.8,0-1.44-.26-1.94-.77-.49-.51-.74-1.25-.74-2.21h.01ZM215.32,214.95c0,.73.16,1.28.48,1.64.32.36.72.54,1.2.54s.88-.18,1.2-.55.48-.92.48-1.67c0-.71-.16-1.24-.48-1.6-.32-.36-.72-.55-1.2-.55s-.88.18-1.2.54c-.32.36-.48.91-.48,1.64h0Z"/><path d="M220.81,217.81v-5.7h.87v.81c.42-.63,1.02-.94,1.82-.94.34,0,.66.06.95.19.29.12.5.29.65.49.14.2.24.44.3.71.04.18.05.49.05.94v3.51h-.97v-3.47c0-.39-.04-.69-.11-.88s-.21-.35-.4-.47c-.19-.12-.42-.17-.67-.17-.41,0-.77.13-1.07.39s-.45.76-.45,1.49v3.12h-.97v-.02Z"/><path d="M227.2,217.81v-1.1h1.1v1.1h-1.1Z"/><path d="M234.54,217.81l-2.09-7.87h1.07l1.2,5.16c.13.54.24,1.08.33,1.61.2-.84.32-1.33.35-1.46l1.5-5.32h1.26l1.13,3.99c.28.99.49,1.92.61,2.79.1-.5.23-1.07.39-1.71l1.24-5.06h1.05l-2.16,7.87h-1l-1.66-6c-.14-.5-.22-.81-.25-.92-.08.36-.16.67-.23.92l-1.67,6h-1.07Z"/><path d="M247.13,215.97l1,.12c-.16.58-.45,1.04-.88,1.36s-.97.48-1.63.48c-.83,0-1.5-.26-1.98-.77-.49-.51-.73-1.24-.73-2.16s.25-1.71.74-2.23c.49-.53,1.14-.79,1.92-.79s1.39.26,1.87.78.73,1.25.73,2.19v.26h-4.25c.04.63.21,1.11.53,1.44s.72.5,1.19.5c.35,0,.66-.09.91-.28s.45-.48.6-.89h-.02ZM243.95,214.41h3.19c-.04-.48-.16-.84-.37-1.08-.31-.37-.71-.56-1.2-.56-.44,0-.82.15-1.12.45-.3.3-.47.7-.5,1.19h0Z"/><path d="M252.01,216.1l.96-.15c.05.38.2.68.45.88.25.2.59.31,1.03.31s.77-.09.99-.27.32-.39.32-.64c0-.22-.09-.39-.28-.52-.13-.09-.46-.2-.99-.33-.71-.18-1.2-.33-1.47-.46s-.48-.31-.62-.54-.21-.49-.21-.77c0-.25.06-.49.17-.71.12-.22.27-.4.48-.54.15-.11.36-.21.62-.28.26-.08.54-.12.83-.12.45,0,.84.06,1.18.19s.59.3.75.52c.16.22.27.51.33.88l-.95.13c-.04-.29-.17-.52-.37-.69-.21-.17-.5-.25-.87-.25-.44,0-.76.07-.95.22s-.28.32-.28.52c0,.13.04.24.12.34.08.1.2.19.37.26.1.04.38.12.85.25.68.18,1.16.33,1.43.45s.48.29.64.51c.15.22.23.5.23.83s-.09.63-.28.91c-.19.29-.46.5-.81.66s-.76.23-1.2.23c-.74,0-1.31-.15-1.69-.46-.39-.31-.64-.76-.74-1.37h-.04Z"/><path d="M261.63,217.81v-.84c-.44.64-1.05.97-1.81.97-.34,0-.65-.06-.94-.19s-.51-.29-.65-.49c-.14-.2-.24-.43-.3-.72-.04-.19-.06-.49-.06-.9v-3.53h.97v3.16c0,.5.02.85.06,1.02.06.25.19.45.39.6.2.14.44.22.73.22s.56-.07.82-.22.43-.35.54-.61c.11-.26.16-.63.16-1.12v-3.06h.97v5.7h-.88Z"/><path d="M263.84,218.28l.94.14c.04.29.15.5.33.63.24.18.57.27.98.27.45,0,.79-.09,1.04-.27.24-.18.41-.43.49-.75.05-.2.07-.61.07-1.24-.42.5-.95.75-1.58.75-.78,0-1.39-.28-1.82-.85s-.64-1.24-.64-2.04c0-.54.1-1.05.3-1.51.2-.46.48-.82.86-1.07.37-.25.81-.38,1.32-.38.67,0,1.23.27,1.67.82v-.69h.89v4.93c0,.89-.09,1.52-.27,1.89s-.47.66-.86.88c-.39.21-.87.32-1.45.32-.68,0-1.23-.15-1.65-.46-.42-.31-.62-.77-.61-1.38h-.01ZM264.64,214.85c0,.75.15,1.29.45,1.64s.67.52,1.12.52.82-.17,1.12-.51.45-.88.45-1.61-.15-1.22-.46-1.58c-.31-.35-.68-.53-1.12-.53s-.79.17-1.1.52c-.3.35-.45.87-.45,1.55h-.01Z"/><path d="M269.95,218.28l.94.14c.04.29.15.5.33.63.24.18.57.27.98.27.45,0,.79-.09,1.04-.27.24-.18.41-.43.49-.75.05-.2.07-.61.07-1.24-.42.5-.95.75-1.58.75-.78,0-1.39-.28-1.82-.85s-.64-1.24-.64-2.04c0-.54.1-1.05.3-1.51.2-.46.48-.82.86-1.07.37-.25.81-.38,1.32-.38.67,0,1.23.27,1.67.82v-.69h.89v4.93c0,.89-.09,1.52-.27,1.89s-.47.66-.86.88c-.39.21-.87.32-1.45.32-.68,0-1.23-.15-1.65-.46-.42-.31-.62-.77-.61-1.38h-.01ZM270.75,214.85c0,.75.15,1.29.45,1.64s.67.52,1.12.52.82-.17,1.12-.51.45-.88.45-1.61-.15-1.22-.46-1.58c-.31-.35-.68-.53-1.12-.53s-.79.17-1.1.52c-.3.35-.45.87-.45,1.55h-.01Z"/><path d="M280.15,215.97l1,.12c-.16.58-.45,1.04-.88,1.36s-.97.48-1.63.48c-.83,0-1.5-.26-1.98-.77-.49-.51-.73-1.24-.73-2.16s.25-1.71.74-2.23c.49-.53,1.14-.79,1.92-.79s1.39.26,1.87.78c.48.52.73,1.25.73,2.19v.26h-4.25c.04.63.21,1.11.53,1.44s.72.5,1.19.5c.35,0,.66-.09.91-.28s.45-.48.6-.89h-.02ZM276.98,214.41h3.19c-.04-.48-.16-.84-.37-1.08-.31-.37-.71-.56-1.2-.56-.44,0-.82.15-1.12.45s-.47.7-.5,1.19Z"/><path d="M281.98,216.1l.96-.15c.05.38.2.68.45.88.25.2.59.31,1.03.31s.77-.09.99-.27.32-.39.32-.64c0-.22-.09-.39-.28-.52-.13-.09-.46-.2-.99-.33-.71-.18-1.2-.33-1.47-.46s-.48-.31-.62-.54c-.14-.23-.21-.49-.21-.77,0-.25.06-.49.17-.71.12-.22.27-.4.48-.54.15-.11.36-.21.62-.28.26-.08.54-.12.83-.12.45,0,.84.06,1.18.19s.59.3.75.52.27.51.33.88l-.95.13c-.04-.29-.17-.52-.37-.69-.21-.17-.5-.25-.87-.25-.44,0-.76.07-.95.22s-.28.32-.28.52c0,.13.04.24.12.34.08.1.2.19.37.26.1.04.38.12.85.25.68.18,1.16.33,1.43.45s.48.29.64.51c.15.22.23.5.23.83s-.09.63-.28.91c-.19.29-.46.5-.81.66s-.76.23-1.2.23c-.74,0-1.31-.15-1.69-.46-.39-.31-.64-.76-.74-1.37h-.04Z"/><path d="M289.98,216.94l.14.85c-.27.06-.52.09-.73.09-.35,0-.62-.06-.82-.17-.19-.11-.33-.26-.41-.44s-.12-.56-.12-1.14v-3.28h-.71v-.75h.71v-1.41l.96-.58v1.99h.97v.75h-.97v3.33c0,.28.02.45.05.53s.09.14.17.19c.08.05.19.07.33.07.11,0,.25,0,.42-.04h.01Z"/><path d="M298.79,216.88v.93h-5.2c0-.23.03-.46.11-.67.13-.35.34-.7.64-1.05.29-.34.71-.74,1.27-1.19.86-.7,1.43-1.26,1.73-1.67s.45-.8.45-1.16-.14-.71-.41-.97-.63-.4-1.07-.4c-.47,0-.84.14-1.12.42s-.42.67-.42,1.16l-.99-.1c.07-.74.32-1.31.77-1.69.44-.39,1.04-.58,1.79-.58s1.35.21,1.79.63.66.94.66,1.56c0,.32-.06.62-.19.93-.13.3-.34.62-.64.96-.3.34-.8.8-1.49,1.39-.58.49-.95.82-1.12.99s-.3.35-.41.52h3.86,0Z"/><path d="M299.72,215.44v-.97h2.97v.97h-2.97Z"/><path d="M303.5,215.73l.97-.13c.11.55.3.94.57,1.18.27.24.59.36.98.36.45,0,.84-.16,1.15-.47s.47-.71.47-1.17-.15-.81-.44-1.1c-.29-.29-.66-.43-1.11-.43-.18,0-.41.04-.68.11l.11-.85c.06,0,.12,0,.16,0,.41,0,.78-.11,1.11-.32s.49-.55.49-.99c0-.35-.12-.65-.36-.88-.24-.23-.55-.35-.93-.35s-.69.12-.94.35-.41.59-.48,1.06l-.97-.17c.12-.65.39-1.15.81-1.51s.94-.53,1.56-.53c.43,0,.83.09,1.19.28s.64.44.83.75c.19.32.29.66.29,1.01s-.09.65-.27.93-.45.5-.81.67c.47.11.83.33,1.08.67.26.34.39.76.39,1.27,0,.69-.25,1.27-.75,1.75s-1.14.72-1.9.72c-.69,0-1.26-.21-1.72-.62-.46-.41-.72-.95-.78-1.6h-.02Z"/><path d="M312.91,217.81v-7.87h.97v7.87h-.97Z"/><path d="M315.38,211.04v-1.11h.97v1.11h-.97ZM315.38,217.81v-5.7h.97v5.7h-.97Z"/><path d="M317.82,217.81v-5.7h.87v.81c.42-.63,1.02-.94,1.82-.94.34,0,.66.06.95.19.29.12.5.29.65.49.14.2.24.44.3.71.04.18.05.49.05.94v3.51h-.97v-3.47c0-.39-.04-.69-.11-.88s-.21-.35-.4-.47-.42-.17-.67-.17c-.41,0-.77.13-1.07.39-.3.26-.45.76-.45,1.49v3.12h-.97v-.02Z"/><path d="M327.84,215.97l1,.12c-.16.58-.45,1.04-.88,1.36s-.97.48-1.63.48c-.83,0-1.5-.26-1.98-.77-.49-.51-.73-1.24-.73-2.16s.25-1.71.74-2.23c.49-.53,1.14-.79,1.92-.79s1.39.26,1.87.78c.48.52.73,1.25.73,2.19v.26h-4.25c.04.63.21,1.11.53,1.44s.72.5,1.19.5c.35,0,.66-.09.91-.28s.45-.48.6-.89h-.02ZM324.67,214.41h3.19c-.04-.48-.16-.84-.37-1.08-.31-.37-.71-.56-1.2-.56-.44,0-.82.15-1.12.45s-.47.7-.5,1.19Z"/><path d="M329.67,216.1l.96-.15c.05.38.2.68.45.88.25.2.59.31,1.03.31s.77-.09.99-.27.32-.39.32-.64c0-.22-.09-.39-.28-.52-.13-.09-.46-.2-.99-.33-.71-.18-1.2-.33-1.47-.46s-.48-.31-.62-.54c-.14-.23-.21-.49-.21-.77,0-.25.06-.49.17-.71.12-.22.27-.4.48-.54.15-.11.36-.21.62-.28.26-.08.54-.12.83-.12.45,0,.84.06,1.18.19s.59.3.75.52.27.51.33.88l-.95.13c-.04-.29-.17-.52-.37-.69-.21-.17-.5-.25-.87-.25-.44,0-.76.07-.95.22s-.28.32-.28.52c0,.13.04.24.12.34.08.1.2.19.37.26.1.04.38.12.85.25.68.18,1.16.33,1.43.45s.48.29.64.51c.15.22.23.5.23.83s-.09.63-.28.91c-.19.29-.46.5-.81.66s-.76.23-1.2.23c-.74,0-1.31-.15-1.69-.46-.39-.31-.64-.76-.74-1.37h-.04Z"/><path d="M335.83,217.81v-1.1h1.1v1.1h-1.1Z"/><path d="M101.82,402.01h-1.42l-.56-1.46h-2.58l-.53,1.46h-1.38l2.51-6.44h1.38s2.58,6.44,2.58,6.44ZM99.43,399.46l-.89-2.39-.87,2.39h1.76Z" style="fill:#fff;"/><path d="M106.78,402.01h-1.15v-.69c-.19.27-.42.46-.67.6-.26.13-.52.2-.78.2-.54,0-1-.22-1.38-.65s-.57-1.04-.57-1.81.19-1.39.56-1.8c.37-.41.84-.62,1.41-.62.52,0,.97.22,1.35.65v-2.32h1.24v6.44h-.01ZM103.49,399.58c0,.5.07.86.21,1.08.2.32.48.48.83.48.28,0,.53-.12.73-.36.2-.24.3-.6.3-1.08,0-.54-.1-.92-.29-1.16s-.44-.35-.74-.35-.54.12-.74.35-.3.58-.3,1.04h0Z" style="fill:#fff;"/><path d="M112.28,402.01h-1.15v-.69c-.19.27-.42.46-.67.6-.26.13-.52.2-.78.2-.54,0-1-.22-1.38-.65s-.57-1.04-.57-1.81.19-1.39.56-1.8c.37-.41.84-.62,1.41-.62.52,0,.97.22,1.35.65v-2.32h1.23v6.44h0ZM108.98,399.58c0,.5.07.86.21,1.08.2.32.48.48.83.48.28,0,.53-.12.72-.36.2-.24.3-.6.3-1.08,0-.54-.1-.92-.29-1.16s-.44-.35-.74-.35-.54.12-.74.35-.3.58-.3,1.04h0Z" style="fill:#fff;"/><path d="M116.01,395.57h2.58c.51,0,.89.02,1.14.06s.47.13.67.27c.2.14.36.31.49.54.13.22.2.48.2.75,0,.3-.08.58-.24.83-.16.25-.38.44-.66.57.39.12.69.31.91.58s.32.6.32.97c0,.29-.07.58-.2.85-.14.28-.32.5-.56.66-.24.17-.53.27-.87.31-.22.02-.74.04-1.57.04h-2.19v-6.44h-.02ZM117.31,396.64v1.49h.85c.51,0,.82,0,.94-.02.22-.03.4-.1.53-.23s.19-.29.19-.5-.05-.36-.17-.49c-.11-.12-.27-.2-.49-.23-.13-.01-.5-.02-1.11-.02h-.75,0ZM117.31,399.2v1.72h1.2c.47,0,.77-.01.89-.04.19-.04.35-.12.47-.26s.18-.32.18-.55c0-.19-.05-.36-.14-.49s-.23-.23-.41-.29-.56-.09-1.15-.09h-1.05.01Z" style="fill:#fff;"/><path d="M125.57,402.01v-.7c-.17.25-.39.45-.67.59-.28.14-.57.21-.88.21s-.59-.07-.84-.21c-.25-.14-.43-.33-.54-.58s-.17-.59-.17-1.03v-2.95h1.23v2.14c0,.66.02,1.06.07,1.21.04.15.13.27.25.35.12.09.27.13.46.13.21,0,.4-.06.57-.17.17-.12.28-.26.34-.43.06-.17.09-.59.09-1.26v-1.97h1.24v4.67h-1.15Z" style="fill:#fff;"/><path d="M130.13,397.35v.98h-.84v1.88c0,.38,0,.6.02.67.02.06.05.12.11.16s.13.06.21.06c.11,0,.28-.04.5-.12l.11.96c-.29.12-.61.18-.98.18-.22,0-.42-.04-.6-.11-.18-.07-.31-.17-.39-.29s-.14-.28-.17-.48c-.03-.14-.04-.43-.04-.87v-2.03h-.57v-.98h.57v-.93l1.24-.72v1.65h.84-.01Z" style="fill:#fff;"/><path d="M133.13,397.35v.98h-.84v1.88c0,.38,0,.6.02.67.02.06.05.12.11.16s.13.06.21.06c.11,0,.28-.04.5-.12l.11.96c-.29.12-.61.18-.98.18-.22,0-.42-.04-.6-.11-.18-.07-.31-.17-.39-.29s-.14-.28-.17-.48c-.03-.14-.04-.43-.04-.87v-2.03h-.57v-.98h.57v-.93l1.24-.72v1.65h.84-.01Z" style="fill:#fff;"/><path d="M133.7,399.61c0-.41.1-.81.3-1.19s.49-.68.86-.88.78-.3,1.24-.3c.71,0,1.29.23,1.74.69.45.46.68,1.04.68,1.74s-.23,1.29-.68,1.76c-.46.46-1.03.7-1.72.7-.43,0-.84-.1-1.22-.29-.39-.19-.68-.48-.89-.85-.2-.37-.3-.83-.3-1.36v-.02ZM134.97,399.68c0,.46.11.82.33,1.06s.49.37.81.37.59-.12.81-.37.33-.6.33-1.07-.11-.81-.33-1.05c-.22-.25-.49-.37-.81-.37s-.59.12-.81.37-.33.6-.33,1.06Z" style="fill:#fff;"/><path d="M143.73,402.01h-1.24v-2.38c0-.5-.03-.83-.08-.98-.05-.15-.14-.26-.26-.35-.12-.08-.26-.12-.43-.12-.21,0-.41.06-.58.18s-.29.27-.35.47c-.06.19-.09.55-.09,1.07v2.11h-1.23v-4.67h1.15v.69c.41-.53.92-.79,1.54-.79.27,0,.52.05.75.15s.4.22.51.38c.12.15.2.33.24.52.04.19.07.47.07.83v2.9h0Z" style="fill:#fff;"/><path d="M149.62,397.35v.98h-.84v1.88c0,.38,0,.6.02.67.02.06.05.12.11.16s.13.06.21.06c.11,0,.28-.04.5-.12l.11.96c-.29.12-.61.18-.98.18-.22,0-.42-.04-.6-.11-.18-.07-.31-.17-.39-.29s-.14-.28-.17-.48c-.03-.14-.04-.43-.04-.87v-2.03h-.57v-.98h.57v-.93l1.24-.72v1.65h.84-.01Z" style="fill:#fff;"/><path d="M153.18,400.53l1.23.21c-.16.45-.41.79-.75,1.03s-.77.35-1.28.35c-.81,0-1.41-.26-1.8-.79-.31-.42-.46-.96-.46-1.61,0-.77.2-1.38.61-1.82.4-.44.92-.66,1.53-.66.69,0,1.24.23,1.64.69s.59,1.16.58,2.11h-3.09c0,.37.11.65.3.85s.43.31.71.31c.19,0,.36-.05.49-.16s.23-.28.3-.51h-.01ZM153.25,399.28c0-.36-.1-.63-.28-.82s-.39-.28-.64-.28c-.27,0-.49.1-.67.29s-.26.46-.26.8h1.85,0Z" style="fill:#fff;"/><path d="M154.89,402.01l1.68-2.4-1.61-2.26h1.51l.83,1.28.87-1.28h1.45l-1.58,2.21,1.73,2.46h-1.52l-.95-1.45-.96,1.45h-1.45,0Z" style="fill:#fff;"/><path d="M162.63,397.35v.98h-.84v1.88c0,.38,0,.6.02.67.02.06.05.12.11.16s.13.06.21.06c.11,0,.28-.04.5-.12l.11.96c-.29.12-.61.18-.98.18-.22,0-.42-.04-.6-.11-.18-.07-.31-.17-.39-.29s-.14-.28-.17-.48c-.03-.14-.04-.43-.04-.87v-2.03h-.57v-.98h.57v-.93l1.24-.72v1.65h.84-.01Z" style="fill:#fff;"/><path d="M218.8,402.09h-1.42l-.56-1.46h-2.58l-.53,1.46h-1.38l2.51-6.44h1.38l2.58,6.44ZM216.4,399.55l-.89-2.39-.87,2.39h1.76Z" style="fill:#fff;"/><path d="M223.76,402.09h-1.15v-.69c-.19.27-.42.46-.67.6-.26.13-.52.2-.78.2-.54,0-1-.22-1.38-.65s-.57-1.04-.57-1.81.19-1.39.56-1.8c.37-.41.84-.62,1.41-.62.52,0,.97.22,1.35.65v-2.32h1.23v6.44h0ZM220.46,399.66c0,.5.07.86.21,1.08.2.32.48.48.83.48.28,0,.53-.12.73-.36s.3-.6.3-1.08c0-.54-.1-.92-.29-1.16-.19-.24-.44-.35-.74-.35s-.54.12-.74.35c-.2.23-.3.58-.3,1.04h0Z" style="fill:#fff;"/><path d="M229.26,402.09h-1.15v-.69c-.19.27-.42.46-.67.6-.26.13-.52.2-.78.2-.54,0-1-.22-1.38-.65s-.57-1.04-.57-1.81.19-1.39.56-1.8c.37-.41.84-.62,1.41-.62.52,0,.97.22,1.35.65v-2.32h1.23v6.44h0ZM225.96,399.66c0,.5.07.86.21,1.08.2.32.48.48.83.48.28,0,.53-.12.73-.36s.3-.6.3-1.08c0-.54-.1-.92-.29-1.16-.19-.24-.44-.35-.74-.35s-.54.12-.74.35c-.2.23-.3.58-.3,1.04h0Z" style="fill:#fff;"/><path d="M232.99,395.65h2.58c.51,0,.89.02,1.14.06s.47.13.67.27c.2.14.36.31.49.54.13.22.2.48.2.75,0,.3-.08.58-.24.83s-.38.44-.66.57c.39.12.69.31.91.58s.32.6.32.97c0,.29-.07.58-.2.85-.14.28-.32.5-.56.66-.24.17-.53.27-.87.31-.22.02-.74.04-1.57.04h-2.19v-6.44h-.02ZM234.29,396.72v1.49h.85c.51,0,.82,0,.94-.02.22-.03.4-.1.52-.23s.19-.29.19-.5-.05-.36-.17-.49c-.11-.12-.27-.2-.49-.23-.13-.01-.5-.02-1.11-.02h-.75.02ZM234.29,399.29v1.72h1.2c.47,0,.77-.01.89-.04.19-.04.35-.12.47-.26s.18-.32.18-.55c0-.19-.05-.36-.14-.49s-.23-.23-.41-.29c-.18-.06-.56-.09-1.15-.09h-1.05.01Z" style="fill:#fff;"/><path d="M242.55,402.09v-.7c-.17.25-.39.45-.67.59-.28.14-.57.21-.88.21s-.59-.07-.84-.21c-.25-.14-.43-.33-.54-.58s-.17-.59-.17-1.03v-2.95h1.23v2.14c0,.66.02,1.06.07,1.21.04.15.13.27.25.35.12.09.27.13.46.13.21,0,.4-.06.57-.17.17-.12.28-.26.34-.43.06-.17.09-.59.09-1.26v-1.97h1.23v4.67h-1.15,0Z" style="fill:#fff;"/><path d="M247.11,397.43v.98h-.84v1.88c0,.38,0,.6.02.67.02.06.05.12.11.16s.13.06.21.06c.11,0,.28-.04.5-.12l.11.96c-.29.12-.61.18-.98.18-.22,0-.42-.04-.6-.11-.18-.07-.31-.17-.39-.29s-.14-.28-.17-.48c-.03-.14-.04-.43-.04-.87v-2.03h-.57v-.98h.57v-.93l1.24-.72v1.65h.84-.01Z" style="fill:#fff;"/><path d="M250.11,397.43v.98h-.84v1.88c0,.38,0,.6.02.67.02.06.05.12.11.16s.13.06.21.06c.11,0,.28-.04.5-.12l.11.96c-.29.12-.61.18-.98.18-.22,0-.42-.04-.6-.11-.18-.07-.31-.17-.39-.29s-.14-.28-.17-.48c-.03-.14-.04-.43-.04-.87v-2.03h-.57v-.98h.57v-.93l1.24-.72v1.65h.84-.01Z" style="fill:#fff;"/><path d="M250.68,399.69c0-.41.1-.81.3-1.19s.49-.68.86-.88.78-.3,1.24-.3c.71,0,1.28.23,1.74.69.45.46.68,1.04.68,1.74s-.23,1.29-.68,1.76c-.46.46-1.03.7-1.72.7-.43,0-.84-.1-1.22-.29s-.68-.48-.89-.85c-.2-.37-.3-.83-.3-1.36v-.02ZM251.95,399.76c0,.46.11.82.33,1.06s.49.37.81.37.59-.12.81-.37.33-.6.33-1.07-.11-.81-.33-1.05-.49-.37-.81-.37-.59.12-.81.37-.33.6-.33,1.06Z" style="fill:#fff;"/><path d="M260.71,402.09h-1.23v-2.38c0-.5-.03-.83-.08-.98-.05-.15-.14-.26-.26-.35-.12-.08-.26-.12-.43-.12-.21,0-.41.06-.58.18-.17.12-.29.27-.35.47-.06.19-.09.55-.09,1.07v2.11h-1.23v-4.67h1.15v.69c.41-.53.92-.79,1.54-.79.27,0,.52.05.75.15s.4.22.51.38c.12.15.2.33.24.52.04.19.07.47.07.83v2.9h-.01Z" style="fill:#fff;"/><path d="M266.6,397.43v.98h-.84v1.88c0,.38,0,.6.02.67.02.06.05.12.11.16s.13.06.21.06c.11,0,.28-.04.5-.12l.11.96c-.29.12-.61.18-.98.18-.22,0-.42-.04-.6-.11-.18-.07-.31-.17-.39-.29-.08-.12-.14-.28-.17-.48-.03-.14-.04-.43-.04-.87v-2.03h-.57v-.98h.57v-.93l1.24-.72v1.65h.84,0Z" style="fill:#fff;"/><path d="M270.16,400.61l1.23.21c-.16.45-.41.79-.75,1.03s-.77.35-1.28.35c-.81,0-1.41-.26-1.8-.79-.31-.42-.46-.96-.46-1.61,0-.77.2-1.38.61-1.82.4-.44.92-.66,1.53-.66.69,0,1.24.23,1.64.69.4.46.59,1.16.58,2.11h-3.09c0,.37.11.65.3.85s.43.31.71.31c.19,0,.36-.05.49-.16s.23-.28.3-.51h0ZM270.23,399.36c0-.36-.1-.63-.28-.82s-.39-.28-.64-.28c-.27,0-.49.1-.67.29s-.26.46-.26.8h1.85Z" style="fill:#fff;"/><path d="M271.87,402.09l1.68-2.4-1.61-2.26h1.51l.83,1.28.87-1.28h1.45l-1.58,2.21,1.73,2.46h-1.52l-.95-1.45-.96,1.45h-1.45Z" style="fill:#fff;"/><path d="M279.61,397.43v.98h-.84v1.88c0,.38,0,.6.02.67.02.06.05.12.11.16s.13.06.21.06c.11,0,.28-.04.5-.12l.11.96c-.29.12-.61.18-.98.18-.22,0-.42-.04-.6-.11-.18-.07-.31-.17-.39-.29-.08-.12-.14-.28-.17-.48-.03-.14-.04-.43-.04-.87v-2.03h-.57v-.98h.57v-.93l1.24-.72v1.65h.84,0Z" style="fill:#fff;"/><rect x="106.1" y="241.85" width="285" height="30"/><path d="M218.54,257.45l1.55-.15c.09.52.28.9.57,1.14.29.24.67.37,1.15.37.51,0,.9-.11,1.16-.33.26-.22.39-.47.39-.76,0-.19-.05-.34-.16-.48-.11-.13-.3-.24-.57-.34-.19-.06-.61-.18-1.27-.34-.85-.21-1.45-.47-1.79-.78-.48-.43-.72-.96-.72-1.58,0-.4.11-.78.34-1.12.23-.35.55-.62.98-.8.43-.18.95-.27,1.55-.27.99,0,1.73.22,2.23.65s.76,1.01.79,1.74l-1.59.07c-.07-.4-.21-.7-.44-.87-.22-.18-.56-.27-1.01-.27s-.82.09-1.08.28c-.17.12-.25.29-.25.49s.08.35.24.48c.2.17.69.34,1.46.53.77.18,1.35.37,1.72.57.37.2.66.46.87.8.21.34.31.76.31,1.25,0,.45-.12.87-.38,1.27-.25.39-.6.69-1.06.88-.46.19-1.03.29-1.71.29-1,0-1.76-.23-2.29-.69s-.85-1.13-.96-2.01l-.03-.02Z" style="fill:#fff;"/><path d="M226.28,260.01v-7.87h1.59v3.1h3.12v-3.1h1.59v7.87h-1.59v-3.44h-3.12v3.44h-1.59Z" style="fill:#fff;"/><path d="M233.9,256.12c0-.8.12-1.48.36-2.02.18-.4.42-.76.73-1.08s.65-.55,1.02-.71c.49-.21,1.06-.31,1.7-.31,1.16,0,2.09.36,2.79,1.08s1.04,1.72,1.04,3-.35,2.27-1.04,2.98c-.69.72-1.62,1.08-2.77,1.08s-2.1-.36-2.79-1.07c-.69-.71-1.04-1.7-1.04-2.95h0ZM235.54,256.07c0,.89.21,1.57.62,2.03.41.46.93.69,1.57.69s1.15-.23,1.56-.68c.41-.46.61-1.14.61-2.05s-.2-1.58-.59-2.02c-.4-.44-.92-.67-1.58-.67s-1.18.22-1.58.67c-.4.45-.6,1.13-.6,2.03h0Z" style="fill:#fff;"/><path d="M242.78,260.01v-7.87h2.55c.97,0,1.6.04,1.89.12.45.12.83.38,1.13.77.3.4.46.91.46,1.53,0,.48-.09.89-.26,1.22-.18.33-.4.59-.67.78s-.54.31-.82.37c-.38.08-.93.11-1.65.11h-1.04v2.97h-1.59ZM244.37,253.47v2.23h.87c.63,0,1.04-.04,1.26-.12.21-.08.38-.21.5-.39.12-.17.18-.38.18-.61,0-.29-.08-.52-.25-.71s-.38-.3-.64-.35c-.19-.04-.57-.05-1.14-.05h-.78Z" style="fill:#fff;"/><path d="M252.99,260.01v-7.87h1.55l3.22,5.26v-5.26h1.48v7.87h-1.6l-3.17-5.13v5.13h-1.48Z" style="fill:#fff;"/><path d="M260.6,256.12c0-.8.12-1.48.36-2.02.18-.4.42-.76.73-1.08s.65-.55,1.02-.71c.49-.21,1.06-.31,1.7-.31,1.16,0,2.09.36,2.79,1.08s1.04,1.72,1.04,3-.35,2.27-1.04,2.98c-.69.72-1.62,1.08-2.77,1.08s-2.1-.36-2.79-1.07c-.69-.71-1.04-1.7-1.04-2.95h0ZM262.23,256.07c0,.89.21,1.57.62,2.03s.93.69,1.57.69,1.15-.23,1.56-.68c.41-.46.61-1.14.61-2.05s-.2-1.58-.59-2.02c-.4-.44-.92-.67-1.58-.67s-1.18.22-1.58.67-.6,1.13-.6,2.03h-.01Z" style="fill:#fff;"/><path d="M270.59,260.01l-1.88-7.87h1.63l1.19,5.41,1.44-5.41h1.89l1.38,5.5,1.21-5.5h1.6l-1.91,7.87h-1.69l-1.57-5.89-1.56,5.89h-1.73Z" style="fill:#fff;"/><rect x="66.1" y="296.85" width="364" height="246" style="fill:#d9d9d9;"/><path d="M213.53,419.39v-7.7h1.43v7.7h-1.43Z"/><path d="M217.04,419.39v-7.7h1.18l3.37,5.62h-.62l3.31-5.62h1.18l.02,7.7h-1.38v-5.58h.27l-2.79,4.71h-.65l-2.86-4.71h.33v5.58h-1.36Z"/><path d="M226.46,419.39l3.47-7.7h1.41l3.48,7.7h-1.51l-2.97-6.94h.57l-2.98,6.94h-1.47ZM228.05,417.61l.4-1.12h4.15l.38,1.12h-4.93Z"/><path d="M239.27,419.5c-.6,0-1.15-.1-1.66-.29-.5-.19-.94-.47-1.31-.83s-.66-.78-.87-1.25c-.21-.48-.31-1-.31-1.58s.1-1.11.31-1.58c.21-.48.5-.89.87-1.25.38-.36.82-.64,1.32-.83s1.06-.29,1.68-.29,1.23.11,1.75.32c.52.21.97.52,1.33.94l-.9.88c-.3-.3-.62-.52-.97-.67-.35-.14-.73-.21-1.15-.21s-.79.07-1.13.2c-.34.13-.64.32-.89.56s-.44.53-.58.86-.21.69-.21,1.09.07.75.21,1.08.33.62.58.86.54.43.88.56.71.2,1.12.2c.38,0,.75-.06,1.11-.18s.69-.33,1.02-.61l.8,1.07c-.4.32-.86.57-1.39.73s-1.07.25-1.62.25v-.03ZM242.28,418.52l-1.34-.19v-2.87h1.34v3.06Z"/><path d="M244.17,419.39v-7.7h5.62v1.21h-4.19v5.28h4.35v1.21h-5.78ZM245.49,416.07v-1.18h3.83v1.18h-3.83Z"/><path d="M254.58,419.39v-7.7h1.43v7.7h-1.43ZM255.9,416.09v-1.22h4.2v1.22h-4.2ZM259.99,419.39v-7.7h1.42v7.7h-1.42Z"/><path d="M263.49,419.39v-7.7h5.62v1.21h-4.19v5.28h4.35v1.21h-5.78ZM264.81,416.07v-1.18h3.83v1.18h-3.83Z"/><path d="M270.86,419.39v-7.7h3.16c1.03,0,1.83.24,2.41.73.58.49.87,1.16.87,2.01,0,.56-.13,1.05-.4,1.45s-.64.71-1.13.93-1.07.33-1.75.33h-2.37l.63-.64v2.88h-1.43,0ZM272.28,416.66l-.63-.69h2.3c.63,0,1.11-.14,1.42-.41s.48-.65.48-1.13-.16-.86-.48-1.13c-.32-.27-.79-.4-1.42-.4h-2.3l.63-.7v4.47h0ZM275.89,419.39l-1.95-2.79h1.53l1.96,2.79h-1.54,0Z"/><path d="M278.9,419.39v-7.7h5.62v1.21h-4.19v5.28h4.35v1.21h-5.78ZM280.22,416.07v-1.18h3.83v1.18h-3.83Z"/><path d="M230.11,76.78v-15.3h2.84v12.9h8v2.41h-10.84Z"/><path d="M250.1,76.99c-1.18,0-2.28-.2-3.29-.59s-1.89-.95-2.63-1.66c-.74-.71-1.32-1.55-1.73-2.5-.41-.95-.61-1.99-.61-3.12s.2-2.18.61-3.14.98-1.79,1.73-2.49,1.62-1.26,2.62-1.65c1.01-.39,2.11-.59,3.3-.59s2.27.19,3.28.58c1.01.39,1.88.93,2.61,1.64.74.71,1.31,1.54,1.72,2.5.41.96.61,2.01.61,3.15s-.2,2.18-.61,3.14c-.41.95-.98,1.79-1.72,2.5-.74.71-1.61,1.26-2.61,1.65-1.01.39-2.1.58-3.28.58h0ZM250.1,74.5c.77,0,1.48-.13,2.13-.39.65-.26,1.21-.63,1.69-1.11s.86-1.05,1.13-1.71.4-1.38.4-2.16-.13-1.51-.39-2.16c-.26-.66-.64-1.22-1.13-1.7-.49-.48-1.06-.85-1.7-1.11-.65-.26-1.36-.39-2.13-.39s-1.49.13-2.15.39c-.66.26-1.24.64-1.72,1.13s-.86,1.06-1.14,1.71-.42,1.37-.42,2.15.14,1.49.42,2.14c.28.66.66,1.23,1.14,1.72s1.05.86,1.72,1.13c.66.26,1.38.39,2.15.39v-.03Z"/><path d="M268.48,76.99c-1.2,0-2.29-.19-3.29-.58s-1.87-.94-2.61-1.65-1.32-1.54-1.73-2.49-.61-2-.61-3.15.2-2.2.61-3.15c.41-.95.99-1.78,1.74-2.49.75-.71,1.63-1.26,2.62-1.65,1-.39,2.11-.58,3.33-.58s2.44.21,3.49.63c1.04.42,1.92,1.04,2.63,1.86l-1.79,1.75c-.6-.6-1.24-1.04-1.93-1.32s-1.45-.43-2.28-.43-1.56.13-2.24.39c-.68.26-1.26.63-1.76,1.11s-.88,1.05-1.16,1.7c-.28.66-.42,1.38-.42,2.16s.14,1.49.42,2.15.66,1.23,1.16,1.72c.5.48,1.08.85,1.75,1.11s1.41.39,2.23.39c.76,0,1.49-.12,2.2-.36.71-.24,1.38-.65,2.02-1.21l1.6,2.12c-.79.64-1.71,1.13-2.75,1.45-1.05.33-2.12.49-3.21.49l-.02.03ZM274.45,75.05l-2.67-.37v-5.71h2.67v6.08Z"/><path d="M285.38,76.99c-1.18,0-2.28-.2-3.29-.59s-1.89-.95-2.63-1.66c-.74-.71-1.32-1.55-1.73-2.5s-.61-1.99-.61-3.12.2-2.18.61-3.14c.41-.96.98-1.79,1.73-2.49s1.62-1.26,2.62-1.65c1.01-.39,2.11-.59,3.3-.59s2.27.19,3.28.58c1.01.39,1.88.93,2.61,1.64.74.71,1.31,1.54,1.72,2.5s.61,2.01.61,3.15-.2,2.18-.61,3.14c-.41.95-.98,1.79-1.72,2.5s-1.61,1.26-2.61,1.65c-1.01.39-2.1.58-3.28.58h0ZM285.38,74.5c.77,0,1.48-.13,2.13-.39s1.21-.63,1.69-1.11.86-1.05,1.13-1.71.4-1.38.4-2.16-.13-1.51-.39-2.16c-.26-.66-.64-1.22-1.13-1.7-.49-.48-1.06-.85-1.7-1.11-.65-.26-1.36-.39-2.13-.39s-1.49.13-2.15.39c-.66.26-1.24.64-1.72,1.13s-.86,1.06-1.14,1.71c-.28.65-.42,1.37-.42,2.15s.14,1.49.42,2.14c.28.66.66,1.23,1.14,1.72s1.05.86,1.72,1.13c.66.26,1.38.39,2.15.39v-.03Z"/><rect x="65.1" y="3.85" width="364" height="29"/><path d="M157.66,22.51l2.75-7.16h1.02l2.93,7.16h-1.08l-.83-2.17h-2.99l-.79,2.17h-1.01ZM159.73,19.57h2.43l-.75-1.98c-.23-.6-.4-1.1-.51-1.48-.09.46-.22.92-.39,1.37l-.79,2.1h0Z" style="fill:#fff;"/><path d="M165.11,22.51v-7.16h.97l3.76,5.62v-5.62h.91v7.16h-.97l-3.76-5.62v5.62s-.91,0-.91,0Z" style="fill:#fff;"/><path d="M172.33,22.51v-7.16h.97l3.76,5.62v-5.62h.91v7.16h-.97l-3.76-5.62v5.62s-.91,0-.91,0Z" style="fill:#fff;"/><path d="M179.27,19.02c0-1.19.32-2.12.96-2.79s1.46-1.01,2.47-1.01c.66,0,1.26.16,1.79.47.53.32.94.76,1.21,1.32s.42,1.21.42,1.92-.15,1.38-.44,1.95c-.29.57-.71,1.01-1.25,1.3s-1.12.44-1.74.44c-.67,0-1.28-.16-1.81-.49s-.93-.77-1.21-1.33c-.27-.56-.41-1.16-.41-1.79h.01ZM180.25,19.04c0,.86.23,1.54.7,2.04s1.05.75,1.75.75,1.3-.25,1.76-.75c.46-.5.69-1.21.69-2.13,0-.58-.1-1.09-.3-1.53s-.48-.77-.86-1.01-.8-.36-1.28-.36c-.67,0-1.25.23-1.73.69s-.73,1.23-.73,2.31h0Z" style="fill:#fff;"/><path d="M192.04,15.35h.95v4.14c0,.72-.08,1.29-.24,1.71-.16.42-.46.77-.88,1.03s-.98.4-1.67.4-1.22-.12-1.65-.35-.73-.56-.91-1-.27-1.04-.27-1.79v-4.14h.95v4.13c0,.62.06,1.08.17,1.38s.31.52.6.68c.28.16.63.24,1.03.24.7,0,1.19-.16,1.49-.47.3-.32.44-.92.44-1.82v-4.13h0Z" style="fill:#fff;"/><path d="M194.55,22.51v-7.16h.97l3.76,5.62v-5.62h.91v7.16h-.97l-3.76-5.62v5.62s-.91,0-.91,0Z" style="fill:#fff;"/><path d="M206.89,20l.95.24c-.2.78-.56,1.37-1.07,1.78s-1.15.61-1.89.61-1.4-.16-1.88-.47-.85-.77-1.1-1.36-.38-1.24-.38-1.92c0-.75.14-1.39.43-1.95s.69-.98,1.22-1.26,1.1-.43,1.74-.43c.72,0,1.32.18,1.81.55.49.36.83.88,1.02,1.54l-.93.22c-.17-.52-.41-.9-.72-1.14-.32-.24-.71-.36-1.19-.36-.55,0-1.01.13-1.38.39s-.63.62-.78,1.06-.22.9-.22,1.38c0,.61.09,1.14.27,1.59s.45.79.83,1.02.78.34,1.22.34c.53,0,.98-.15,1.35-.46.37-.31.62-.76.75-1.36h-.05Z" style="fill:#fff;"/><path d="M209.02,22.51v-7.16h5.18v.85h-4.23v2.19h3.96v.84h-3.96v2.44h4.39v.84s-5.34,0-5.34,0Z" style="fill:#fff;"/><path d="M215.64,22.51v-7.16h1.43l1.69,5.07c.16.47.27.83.34,1.06.08-.26.21-.64.38-1.15l1.71-4.98h1.27v7.16h-.91v-5.99l-2.08,5.99h-.85l-2.07-6.09v6.09h-.91,0Z" style="fill:#fff;"/><path d="M224.02,22.51v-7.16h5.18v.85h-4.23v2.19h3.96v.84h-3.96v2.44h4.39v.84s-5.34,0-5.34,0Z" style="fill:#fff;"/><path d="M230.66,22.51v-7.16h.97l3.76,5.62v-5.62h.91v7.16h-.97l-3.76-5.62v5.62s-.91,0-.91,0Z" style="fill:#fff;"/><path d="M239.72,22.51v-6.31h-2.36v-.85h5.67v.85h-2.37v6.31h-.95,0Z" style="fill:#fff;"/><path d="M246.31,19.02c0-1.19.32-2.12.96-2.79s1.46-1.01,2.47-1.01c.66,0,1.26.16,1.79.47.53.32.94.76,1.21,1.32s.42,1.21.42,1.92-.15,1.38-.44,1.95c-.29.57-.71,1.01-1.25,1.3s-1.12.44-1.74.44c-.67,0-1.28-.16-1.81-.49s-.93-.77-1.21-1.33c-.27-.56-.41-1.16-.41-1.79h.01ZM247.29,19.04c0,.86.23,1.54.7,2.04s1.05.75,1.75.75,1.3-.25,1.76-.75c.46-.5.69-1.21.69-2.13,0-.58-.1-1.09-.3-1.53s-.48-.77-.86-1.01-.8-.36-1.28-.36c-.67,0-1.25.23-1.73.69s-.73,1.23-.73,2.31h0Z" style="fill:#fff;"/><path d="M254.39,22.51v-7.16h3.17c.64,0,1.12.06,1.46.19s.6.36.8.68c.2.33.3.68.3,1.08,0,.51-.16.94-.49,1.29s-.84.57-1.52.66c.25.12.44.24.57.36.28.25.54.57.79.95l1.25,1.95h-1.19l-.95-1.49c-.28-.43-.5-.76-.68-.99s-.34-.39-.48-.48-.29-.16-.43-.19c-.11-.02-.28-.03-.53-.03h-1.1v3.18h-.97ZM255.34,18.51h2.04c.43,0,.77-.04,1.02-.13s.43-.23.56-.43.19-.41.19-.64c0-.34-.12-.62-.37-.83-.25-.22-.63-.33-1.16-.33h-2.27v2.37h0Z" style="fill:#fff;"/><path d="M264.38,22.51v-7.16h2.7c.48,0,.84.02,1.09.07.35.06.65.17.88.33s.43.39.57.69c.15.3.22.62.22.98,0,.61-.19,1.12-.58,1.55s-1.09.63-2.1.63h-1.84v2.91h-.95,0ZM265.33,18.75h1.85c.61,0,1.05-.11,1.3-.34.26-.23.39-.55.39-.96,0-.3-.08-.55-.23-.77s-.35-.35-.6-.42c-.16-.04-.45-.06-.88-.06h-1.83v2.56h0Z" style="fill:#fff;"/><path d="M271.06,22.51v-7.16h3.17c.64,0,1.12.06,1.46.19s.6.36.8.68c.2.33.3.68.3,1.08,0,.51-.16.94-.49,1.29s-.84.57-1.52.66c.25.12.44.24.57.36.28.25.54.57.79.95l1.25,1.95h-1.19l-.95-1.49c-.28-.43-.5-.76-.68-.99s-.34-.39-.48-.48-.29-.16-.43-.19c-.11-.02-.28-.03-.53-.03h-1.1v3.18h-.97ZM272.01,18.51h2.04c.43,0,.77-.04,1.02-.13s.43-.23.56-.43.19-.41.19-.64c0-.34-.12-.62-.37-.83-.25-.22-.63-.33-1.16-.33h-2.27v2.37h-.01Z" style="fill:#fff;"/><path d="M277.98,19.02c0-1.19.32-2.12.96-2.79s1.46-1.01,2.47-1.01c.66,0,1.26.16,1.79.47.53.32.94.76,1.21,1.32s.42,1.21.42,1.92-.15,1.38-.44,1.95c-.29.57-.71,1.01-1.25,1.3s-1.12.44-1.74.44c-.67,0-1.28-.16-1.81-.49s-.93-.77-1.21-1.33c-.27-.56-.41-1.16-.41-1.79h0ZM278.96,19.04c0,.86.23,1.54.7,2.04s1.05.75,1.75.75,1.3-.25,1.76-.75c.46-.5.69-1.21.69-2.13,0-.58-.1-1.09-.3-1.53s-.48-.77-.86-1.01-.8-.36-1.28-.36c-.67,0-1.25.23-1.73.69s-.73,1.23-.73,2.31h0Z" style="fill:#fff;"/><path d="M286.02,22.51v-7.16h1.43l1.69,5.07c.16.47.27.83.34,1.06.08-.26.21-.64.38-1.15l1.71-4.98h1.27v7.16h-.91v-5.99l-2.08,5.99h-.85l-2.07-6.09v6.09h-.91,0Z" style="fill:#fff;"/><path d="M294.09,19.02c0-1.19.32-2.12.96-2.79s1.46-1.01,2.47-1.01c.66,0,1.26.16,1.79.47.53.32.94.76,1.21,1.32s.42,1.21.42,1.92-.15,1.38-.44,1.95c-.29.57-.71,1.01-1.25,1.3s-1.12.44-1.74.44c-.67,0-1.28-.16-1.81-.49s-.93-.77-1.21-1.33c-.27-.56-.41-1.16-.41-1.79h0ZM295.07,19.04c0,.86.23,1.54.7,2.04s1.05.75,1.75.75,1.3-.25,1.76-.75c.46-.5.69-1.21.69-2.13,0-.58-.1-1.09-.3-1.53s-.48-.77-.86-1.01-.8-.36-1.28-.36c-.67,0-1.25.23-1.73.69s-.73,1.23-.73,2.31h0Z" style="fill:#fff;"/><path d="M310.04,20l.95.24c-.2.78-.56,1.37-1.07,1.78s-1.15.61-1.89.61-1.4-.16-1.88-.47-.85-.77-1.1-1.36-.38-1.24-.38-1.92c0-.75.14-1.39.43-1.95s.69-.98,1.22-1.26,1.1-.43,1.74-.43c.72,0,1.32.18,1.81.55.49.36.83.88,1.02,1.54l-.93.22c-.17-.52-.41-.9-.72-1.14-.32-.24-.71-.36-1.19-.36-.55,0-1.01.13-1.38.39s-.63.62-.78,1.06-.22.9-.22,1.38c0,.61.09,1.14.27,1.59s.45.79.83,1.02.78.34,1.22.34c.53,0,.98-.15,1.35-.46s.62-.76.75-1.36h-.05Z" style="fill:#fff;"/><path d="M311.87,19.02c0-1.19.32-2.12.96-2.79s1.46-1.01,2.47-1.01c.66,0,1.26.16,1.79.47.53.32.94.76,1.21,1.32s.42,1.21.42,1.92-.15,1.38-.44,1.95c-.29.57-.71,1.01-1.25,1.3s-1.12.44-1.74.44c-.67,0-1.28-.16-1.81-.49s-.93-.77-1.21-1.33c-.27-.56-.41-1.16-.41-1.79h0ZM312.85,19.04c0,.86.23,1.54.7,2.04s1.05.75,1.75.75,1.3-.25,1.76-.75c.46-.5.69-1.21.69-2.13,0-.58-.1-1.09-.3-1.53s-.48-.77-.86-1.01-.8-.36-1.28-.36c-.67,0-1.25.23-1.73.69s-.73,1.23-.73,2.31h0Z" style="fill:#fff;"/><path d="M319.94,22.51v-7.16h2.47c.56,0,.98.04,1.27.1.41.09.76.26,1.05.51.38.32.66.73.85,1.22s.28,1.06.28,1.7c0,.54-.06,1.03-.19,1.45s-.29.77-.49,1.04-.42.49-.65.65-.52.28-.85.36c-.33.08-.72.12-1.15.12h-2.59ZM320.88,21.66h1.53c.47,0,.84-.04,1.11-.13s.48-.21.64-.37c.22-.22.4-.53.52-.91s.19-.84.19-1.38c0-.75-.12-1.32-.37-1.73s-.54-.67-.9-.81c-.25-.1-.66-.15-1.23-.15h-1.5v5.47h.01Z" style="fill:#fff;"/><path d="M327.18,22.51v-7.16h5.18v.85h-4.23v2.19h3.96v.84h-3.96v2.44h4.39v.84s-5.34,0-5.34,0Z" style="fill:#fff;"/><path d="M212.02,57.63c2.23,0,4.04,1.81,4.04,4.04v14.96c0,2.23-1.81,4.04-4.04,4.04h-16.21c-2.23,0-4.04-1.81-4.04-4.04v-14.96c0-2.23,1.81-4.04,4.04-4.04h16.21M212.02,55.34h-16.21c-3.49,0-6.32,2.83-6.32,6.32v14.96c0,3.49,2.83,6.32,6.32,6.32h16.21c3.49,0,6.32-2.83,6.32-6.32v-14.96c0-3.49-2.83-6.32-6.32-6.32h0Z"/><path d="M208.98,62.86c.97.86,1.45,2.06,1.45,3.59,0,.55-.05,1.08-.15,1.59l-1.47,7.32h-3.14l.64-3.25h-6.18l-.66,3.25h-3.1l1.55-7.72c.39-2,1.18-3.51,2.39-4.53,1.21-1.02,2.76-1.53,4.67-1.53,1.69,0,3.02.43,3.99,1.29ZM206.81,69.59l.35-1.76c.08-.41.12-.79.12-1.14,0-.8-.22-1.41-.67-1.82-.45-.41-1.09-.62-1.93-.62-1.01,0-1.81.27-2.42.82-.61.55-1.03,1.42-1.26,2.62l-.39,1.9h6.19Z"/></g></g></svg>