<?xml version="1.0" encoding="UTF-8"?><svg id="Layer_2" xmlns="http://www.w3.org/2000/svg" xmlns:xlink="http://www.w3.org/1999/xlink" viewBox="0 0 496 558"><defs><clipPath id="clippath"><rect x="66.1" y="463.85" width="364" height="94" style="fill:none;"/></clipPath></defs><g id="Layer_1-2"><rect width="496" height="558" style="fill:#f4f4f4;"/><rect x="66.21" width="363.58" height="558" style="fill:#fff;"/><path d="M188.53,34.89l-2.5-6.44h.92l1.67,4.68c.13.38.25.73.34,1.05.1-.35.21-.7.35-1.05l1.74-4.68h.87l-2.52,6.44h-.87Z"/><path d="M192.43,29.36v-.91h.79v.91h-.79ZM192.43,34.89v-4.67h.79v4.67h-.79Z"/><path d="M197.62,33.39l.82.1c-.13.48-.37.85-.72,1.11s-.79.39-1.34.39c-.68,0-1.22-.21-1.62-.63-.4-.42-.6-1.01-.6-1.77s.2-1.39.61-1.83.93-.65,1.57-.65,1.13.21,1.53.64.59,1.02.59,1.79c0,.05,0,.12,0,.21h-3.48c.03.51.17.91.43,1.18s.59.41.98.41c.29,0,.54-.08.74-.23s.37-.39.49-.73ZM195.03,32.11h2.61c-.04-.39-.13-.69-.3-.88-.25-.3-.58-.46-.98-.46-.36,0-.67.12-.92.36-.25.24-.38.57-.41.98Z"/><path d="M200.3,34.89l-1.43-4.67h.82l.74,2.69.28,1s.09-.37.24-.96l.74-2.73h.81l.7,2.71.23.89.27-.9.8-2.7h.77l-1.46,4.67h-.82l-.74-2.79-.18-.79-.95,3.59h-.83Z"/><path d="M210.16,34.18l.11.7c-.22.05-.42.07-.6.07-.29,0-.51-.05-.67-.14s-.27-.21-.33-.36c-.06-.15-.1-.46-.1-.93v-2.68h-.58v-.62h.58v-1.16l.79-.47v1.63h.8v.62h-.8v2.73c0,.23.01.37.04.44.03.06.07.12.14.15.06.04.15.06.27.06.09,0,.2-.01.35-.03Z"/><path d="M210.93,34.89v-6.44h.79v2.31c.37-.43.83-.64,1.4-.64.35,0,.65.07.9.2.25.14.44.33.55.57.11.24.17.59.17,1.05v2.96h-.79v-2.96c0-.4-.09-.68-.26-.86-.17-.18-.41-.27-.73-.27-.23,0-.46.06-.66.18-.21.12-.35.29-.44.49s-.13.5-.13.86v2.55h-.79Z"/><path d="M215.94,29.36v-.91h.79v.91h-.79ZM215.94,34.89v-4.67h.79v4.67h-.79Z"/><path d="M217.62,33.5l.78-.12c.04.31.17.55.37.72.2.17.48.25.84.25s.63-.07.81-.22c.18-.15.26-.32.26-.52,0-.18-.08-.32-.23-.42-.11-.07-.38-.16-.81-.27-.58-.15-.98-.27-1.21-.38-.22-.11-.39-.25-.51-.44-.12-.19-.17-.4-.17-.63,0-.21.05-.4.14-.58.09-.18.22-.32.39-.44.12-.09.29-.17.5-.23.21-.06.44-.09.68-.09.37,0,.69.05.96.16.28.11.48.25.61.43s.22.42.27.72l-.77.11c-.04-.24-.14-.43-.31-.56-.17-.13-.41-.2-.71-.2-.36,0-.62.06-.78.18s-.23.26-.23.42c0,.1.03.2.1.28.06.08.17.15.3.21.08.03.31.1.7.2.56.15.95.27,1.17.37.22.1.39.23.52.42s.19.41.19.68-.08.51-.23.75c-.15.23-.38.41-.67.54-.29.13-.62.19-.98.19-.61,0-1.07-.12-1.39-.38-.32-.25-.52-.63-.61-1.12Z"/><path d="M228.14,33.39l.82.1c-.13.48-.37.85-.72,1.11s-.79.39-1.34.39c-.68,0-1.22-.21-1.62-.63-.4-.42-.6-1.01-.6-1.77s.2-1.39.61-1.83.93-.65,1.57-.65,1.13.21,1.53.64.59,1.02.59,1.79c0,.05,0,.12,0,.21h-3.48c.03.51.17.91.44,1.18s.59.41.98.41c.29,0,.54-.08.74-.23s.37-.39.49-.73ZM225.54,32.11h2.61c-.04-.39-.13-.69-.3-.88-.25-.3-.58-.46-.98-.46-.36,0-.67.12-.92.36-.25.24-.38.57-.41.98Z"/><path d="M229.95,34.89v-4.67h.71v.65c.15-.23.34-.41.58-.55.24-.14.52-.21.83-.21.35,0,.63.07.85.21.22.14.38.34.47.6.37-.54.85-.82,1.44-.82.46,0,.82.13,1.07.38.25.26.37.65.37,1.18v3.2h-.79v-2.94c0-.32-.03-.54-.08-.68-.05-.14-.14-.25-.28-.34s-.29-.13-.47-.13c-.33,0-.6.11-.82.33-.22.22-.33.57-.33,1.05v2.71h-.79v-3.03c0-.35-.06-.62-.19-.79s-.34-.26-.63-.26c-.22,0-.43.06-.62.18-.19.12-.33.29-.41.51s-.13.55-.13.98v2.42h-.79Z"/><path d="M240.49,34.32c-.29.25-.58.42-.85.53-.27.1-.56.15-.87.15-.51,0-.91-.12-1.18-.38s-.41-.57-.41-.96c0-.23.05-.44.16-.62.1-.19.24-.34.41-.46.17-.12.36-.2.57-.26.16-.04.39-.08.7-.12.64-.08,1.11-.17,1.41-.27,0-.11,0-.18,0-.21,0-.32-.07-.55-.22-.68-.2-.18-.5-.27-.9-.27-.37,0-.65.07-.82.2-.18.13-.31.36-.39.69l-.77-.11c.07-.33.19-.6.35-.8s.39-.36.7-.47.66-.16,1.06-.16.72.05.97.14.43.21.55.35.2.32.25.54c.03.13.04.38.04.73v1.05c0,.74.02,1.2.05,1.39.03.2.1.38.2.56h-.83c-.08-.16-.13-.36-.16-.58ZM240.42,32.55c-.29.12-.72.22-1.29.3-.33.05-.56.1-.69.16s-.24.14-.31.26c-.07.11-.11.24-.11.38,0,.21.08.39.24.53.16.14.39.21.7.21s.58-.07.81-.2c.24-.13.41-.32.52-.55.08-.18.13-.44.13-.79v-.29Z"/><path d="M242.45,29.36v-.91h.79v.91h-.79ZM242.45,34.89v-4.67h.79v4.67h-.79Z"/><path d="M244.43,34.89v-6.44h.79v6.44h-.79Z"/><path d="M248.95,29.36v-.91h.79v.91h-.79ZM248.95,34.89v-4.67h.79v4.67h-.79Z"/><path d="M250.95,34.89v-4.67h.71v.66c.34-.51.84-.77,1.49-.77.28,0,.54.05.78.15.24.1.41.23.53.4s.2.36.25.58c.03.15.04.4.04.77v2.87h-.79v-2.84c0-.32-.03-.56-.09-.72-.06-.16-.17-.29-.33-.38-.16-.1-.34-.14-.55-.14-.34,0-.63.11-.87.32-.25.21-.37.62-.37,1.22v2.55h-.79Z"/><path d="M258.42,36.69l-.09-.74c.17.05.32.07.45.07.18,0,.32-.03.42-.09s.19-.14.26-.25c.05-.08.13-.28.24-.59.01-.04.04-.11.07-.19l-1.77-4.68h.85l.97,2.7c.13.34.24.7.34,1.08.09-.36.2-.72.33-1.06l1-2.72h.79l-1.78,4.75c-.19.51-.34.87-.44,1.06-.14.26-.3.45-.48.57-.18.12-.4.18-.65.18-.15,0-.32-.03-.51-.1Z"/><path d="M262.66,32.56c0-.86.24-1.5.72-1.92.4-.35.89-.52,1.47-.52.64,0,1.17.21,1.57.63.41.42.61,1,.61,1.74,0,.6-.09,1.07-.27,1.42-.18.35-.44.61-.79.8-.34.19-.72.29-1.13.29-.65,0-1.18-.21-1.58-.63-.4-.42-.6-1.02-.6-1.81ZM263.47,32.56c0,.6.13,1.05.39,1.34s.59.45.98.45.72-.15.98-.45.39-.75.39-1.37c0-.58-.13-1.01-.39-1.31-.26-.3-.59-.45-.98-.45s-.72.15-.98.44c-.26.3-.39.74-.39,1.34Z"/><path d="M271.02,34.89v-.69c-.36.53-.86.79-1.48.79-.28,0-.53-.05-.77-.16-.24-.11-.42-.24-.53-.4-.12-.16-.2-.36-.24-.59-.03-.15-.05-.4-.05-.74v-2.89h.79v2.59c0,.41.02.69.05.83.05.21.16.37.32.49.16.12.36.18.6.18s.46-.06.67-.18c.21-.12.36-.29.44-.5.09-.21.13-.51.13-.91v-2.5h.79v4.67h-.71Z"/><path d="M272.95,34.89v-4.67h.71v.71c.18-.33.35-.55.5-.65.15-.11.32-.16.51-.16.27,0,.54.08.81.25l-.27.73c-.19-.11-.39-.17-.58-.17-.17,0-.33.05-.47.16-.14.1-.24.25-.29.43-.09.28-.13.59-.13.92v2.44h-.79Z"/><path d="M279.19,34.89h-.73v-6.44h.79v2.3c.33-.42.76-.63,1.28-.63.29,0,.56.06.82.17.26.12.47.28.63.49.17.21.29.46.39.76.09.3.14.61.14.95,0,.8-.2,1.42-.59,1.85s-.87.65-1.42.65-.98-.23-1.3-.69v.58ZM279.18,32.52c0,.56.08.96.23,1.21.25.41.58.61,1.01.61.35,0,.64-.15.9-.45.25-.3.38-.75.38-1.34s-.12-1.06-.36-1.35c-.24-.29-.53-.43-.88-.43s-.64.15-.9.45c-.25.3-.38.74-.38,1.3Z"/><path d="M283.46,34.89v-4.67h.71v.71c.18-.33.35-.55.5-.65.15-.11.32-.16.51-.16.27,0,.54.08.81.25l-.27.73c-.19-.11-.39-.17-.58-.17-.17,0-.33.05-.47.16-.14.1-.24.25-.29.43-.09.28-.13.59-.13.92v2.44h-.79Z"/><path d="M286.17,32.56c0-.86.24-1.5.72-1.92.4-.35.89-.52,1.47-.52.64,0,1.17.21,1.57.63.41.42.61,1,.61,1.74,0,.6-.09,1.07-.27,1.42-.18.35-.44.61-.79.8-.34.19-.72.29-1.13.29-.65,0-1.18-.21-1.58-.63-.4-.42-.6-1.02-.6-1.81ZM286.98,32.56c0,.6.13,1.05.39,1.34s.59.45.98.45.72-.15.98-.45.39-.75.39-1.37c0-.58-.13-1.01-.39-1.31-.26-.3-.59-.45-.98-.45s-.72.15-.98.44c-.26.3-.39.74-.39,1.34Z"/><path d="M292.33,34.89l-1.43-4.67h.82l.74,2.69.28,1s.09-.37.24-.96l.74-2.73h.81l.7,2.71.23.89.27-.9.8-2.7h.77l-1.46,4.67h-.82l-.74-2.79-.18-.79-.94,3.59h-.83Z"/><path d="M297.65,33.5l.78-.12c.04.31.17.55.37.72.2.17.48.25.84.25s.63-.07.81-.22c.18-.15.26-.32.26-.52,0-.18-.08-.32-.23-.42-.11-.07-.38-.16-.81-.27-.58-.15-.98-.27-1.21-.38-.22-.11-.39-.25-.51-.44-.12-.19-.17-.4-.17-.63,0-.21.05-.4.14-.58.09-.18.22-.32.39-.44.12-.09.29-.17.5-.23.21-.06.44-.09.68-.09.37,0,.69.05.96.16.28.11.48.25.61.43.13.18.22.42.27.72l-.77.11c-.04-.24-.14-.43-.3-.56-.17-.13-.41-.2-.71-.2-.36,0-.62.06-.78.18s-.23.26-.23.42c0,.1.03.2.1.28.06.08.17.15.3.21.08.03.31.1.7.2.56.15.95.27,1.17.37.22.1.39.23.52.42s.19.41.19.68-.08.51-.23.75c-.15.23-.38.41-.67.54-.29.13-.62.19-.98.19-.61,0-1.07-.12-1.39-.38-.32-.25-.52-.63-.61-1.12Z"/><path d="M305.66,33.39l.82.1c-.13.48-.37.85-.72,1.11s-.79.39-1.34.39c-.68,0-1.22-.21-1.62-.63-.4-.42-.6-1.01-.6-1.77s.2-1.39.61-1.83.93-.65,1.57-.65,1.13.21,1.53.64c.39.42.59,1.02.59,1.79,0,.05,0,.12,0,.21h-3.48c.03.51.17.91.44,1.18s.59.41.98.41c.29,0,.54-.08.74-.23.2-.15.37-.39.49-.73ZM303.07,32.11h2.61c-.04-.39-.13-.69-.3-.88-.25-.3-.58-.46-.98-.46-.36,0-.67.12-.92.36-.25.24-.38.57-.41.98Z"/><path d="M307.47,34.89v-4.67h.71v.71c.18-.33.35-.55.5-.65.15-.11.32-.16.51-.16.27,0,.54.08.81.25l-.27.73c-.19-.11-.39-.17-.58-.17-.17,0-.33.05-.47.16-.14.1-.24.25-.29.43-.09.28-.13.59-.13.92v2.44h-.79Z"/><path d="M186,36.17v-.66h123.88v.66h-123.88Z"/><path d="M260.09,58.35h-24.18c-1.82,0-3.49.97-4.4,2.54l-12.09,20.94c-.91,1.57-.91,3.51,0,5.08l12.09,20.94c.91,1.57,2.59,2.54,4.4,2.54h24.18c1.82,0,3.49-.97,4.4-2.54l12.09-20.94c.91-1.57.91-3.51,0-5.08l-12.09-20.94c-.91-1.57-2.59-2.54-4.4-2.54Z" style="fill:#fff; stroke:#211b13; stroke-miterlimit:10; stroke-width:3.11px;"/><path d="M241.71,95.72c-2.01-1.11-3.58-2.63-4.73-4.56-1.14-1.94-1.71-4.12-1.71-6.54s.57-4.61,1.71-6.54c1.14-1.94,2.72-3.46,4.74-4.57,2.02-1.11,4.28-1.66,6.78-1.66,1.95,0,3.73.33,5.35.98,1.62.65,3,1.62,4.14,2.91l-2.32,2.25c-1.88-1.97-4.22-2.96-7.03-2.96-1.85,0-3.53.42-5.03,1.25s-2.67,1.98-3.51,3.44c-.84,1.46-1.27,3.1-1.27,4.9s.42,3.44,1.27,4.9c.84,1.46,2.02,2.61,3.51,3.44s3.17,1.25,5.03,1.25c2.78,0,5.12-1,7.03-3l2.32,2.25c-1.14,1.28-2.53,2.26-4.16,2.92-1.63.67-3.42,1-5.37,1-2.5,0-4.75-.55-6.76-1.66Z" style="fill:#211b13;"/><rect x="65.9" y="172.35" width="364.2" height="120" style="fill:#f6f6f4;"/><path d="M234.88,246.35c-.95,0-1.74-.27-2.37-.81s-.95-1.21-.95-2.02v-22.34c0-.81.32-1.48.95-2.02s1.42-.81,2.37-.81h13.36c.29,0,.54.08.73.25s.3.38.3.62-.1.46-.3.62-.44.25-.73.25h-13.36c-.37,0-.67.1-.91.3-.24.2-.36.46-.36.77v22.34c0,.31.12.57.36.77.24.2.54.3.91.3h26.25c.37,0,.67-.1.91-.3.24-.2.36-.46.36-.77v-11.37c0-.25.1-.46.3-.62s.44-.25.73-.25.54.08.73.25.29.38.29.62v11.37c0,.81-.32,1.48-.95,2.02s-1.42.81-2.37.81h-26.25ZM237.25,240.02h21.51l-6.64-7.54-6.17,6.63-4.11-4.21-4.59,5.11ZM258.28,223.6h-3.08c-.29,0-.54-.08-.73-.25s-.3-.38-.3-.62.1-.46.3-.62.44-.25.73-.25h3.08v-2.62c0-.25.1-.46.3-.62s.44-.25.73-.25.54.08.73.25.29.38.29.62v2.62h3.08c.29,0,.54.08.73.25s.3.38.3.62-.1.46-.3.62-.44.25-.73.25h-3.08v2.62c0,.25-.1.46-.3.62s-.44.25-.73.25-.54-.08-.73-.25-.29-.38-.29-.62v-2.62Z" style="fill:#afafae;"/><rect x="200.1" y="410.85" width="95" height="30"/><path d="M216.67,427.15l1.27-.12c.08.42.23.74.46.94.23.2.55.3.94.3.42,0,.73-.09.95-.27.21-.18.32-.38.32-.62,0-.15-.04-.28-.13-.39-.09-.11-.25-.2-.47-.28-.15-.05-.5-.15-1.04-.28-.7-.17-1.19-.39-1.47-.64-.4-.35-.59-.79-.59-1.3,0-.33.09-.63.28-.92.19-.29.45-.5.8-.65.35-.15.77-.22,1.27-.22.81,0,1.42.18,1.83.53.41.35.62.83.64,1.42l-1.3.06c-.06-.33-.18-.57-.36-.71s-.46-.22-.82-.22-.67.08-.89.23c-.14.1-.21.23-.21.4,0,.15.06.28.19.39.16.14.56.28,1.2.43s1.1.3,1.4.46c.3.16.54.38.71.65.17.28.26.62.26,1.03,0,.37-.1.71-.31,1.04s-.5.56-.87.72c-.38.16-.84.24-1.4.24-.81,0-1.44-.19-1.88-.56-.44-.38-.7-.93-.78-1.65Z" style="fill:#fff;"/><path d="M225.13,424.58v.98h-.84v1.88c0,.38,0,.6.02.67.02.06.05.11.11.16.06.04.13.06.21.06.11,0,.28-.04.5-.12l.11.96c-.29.12-.61.18-.98.18-.22,0-.42-.04-.6-.11s-.31-.17-.39-.29c-.08-.12-.14-.28-.17-.48-.03-.14-.04-.43-.04-.87v-2.03h-.57v-.98h.57v-.93l1.24-.72v1.65h.84Z" style="fill:#fff;"/><path d="M226.91,426l-1.12-.2c.13-.45.34-.79.65-1s.76-.32,1.37-.32c.55,0,.96.06,1.23.2s.46.3.57.5c.11.2.16.57.16,1.11v1.44c-.01.41,0,.71.05.91.04.19.11.4.22.62h-1.22c-.03-.08-.07-.2-.12-.36-.02-.07-.04-.12-.04-.15-.21.21-.44.36-.68.46s-.5.15-.77.15c-.48,0-.86-.13-1.14-.39-.28-.26-.42-.59-.42-.99,0-.26.06-.5.19-.71.13-.21.3-.37.53-.47.23-.11.55-.21.98-.29.58-.11.98-.21,1.2-.3v-.12c0-.24-.06-.41-.18-.51s-.34-.15-.66-.15c-.22,0-.39.04-.51.13s-.22.24-.3.46ZM228.56,427.01c-.16.05-.41.12-.75.19s-.57.15-.67.22c-.16.11-.24.26-.24.43s.06.32.19.45.29.19.49.19c.22,0,.44-.07.64-.22.15-.11.25-.25.29-.41.03-.11.05-.31.05-.6v-.25Z" style="fill:#fff;"/><path d="M232.18,429.25h-1.23v-4.67h1.15v.66c.2-.31.37-.52.53-.62s.33-.15.53-.15c.28,0,.55.08.81.23l-.38,1.08c-.21-.13-.4-.2-.58-.2s-.32.05-.44.14-.21.27-.28.52c-.07.25-.1.77-.1,1.56v1.44Z" style="fill:#fff;"/><path d="M236.64,424.58v.98h-.84v1.88c0,.38,0,.6.02.67.02.06.05.11.11.16.06.04.13.06.21.06.11,0,.28-.04.5-.12l.11.96c-.29.12-.61.18-.98.18-.22,0-.42-.04-.6-.11s-.31-.17-.39-.29c-.08-.12-.14-.28-.17-.48-.03-.14-.04-.43-.04-.87v-2.03h-.57v-.98h.57v-.93l1.24-.72v1.65h.84Z" style="fill:#fff;"/><path d="M239.56,427.92l1.24-.19c.05.24.16.42.32.55s.39.19.68.19c.32,0,.56-.06.72-.18.11-.08.16-.19.16-.33,0-.09-.03-.17-.09-.23-.06-.06-.2-.11-.41-.16-1-.22-1.63-.42-1.89-.6-.37-.25-.55-.6-.55-1.05,0-.4.16-.74.48-1.02s.81-.41,1.49-.41,1.11.1,1.42.31.52.52.64.92l-1.16.21c-.05-.18-.14-.32-.28-.42s-.34-.15-.6-.15c-.33,0-.56.05-.7.14-.09.06-.14.15-.14.25,0,.09.04.16.12.22.11.08.5.2,1.15.35.66.15,1.12.33,1.38.55.26.22.39.53.39.92,0,.43-.18.8-.54,1.1s-.89.46-1.59.46c-.64,0-1.14-.13-1.51-.39-.37-.26-.61-.61-.73-1.05Z" style="fill:#fff;"/><path d="M246.23,422.81v2.37c.4-.47.87-.7,1.43-.7.28,0,.54.05.77.16s.4.24.52.4.19.35.24.54.06.51.06.93v2.74h-1.23v-2.46c0-.49-.02-.8-.07-.93s-.13-.24-.25-.31c-.12-.08-.27-.12-.45-.12-.21,0-.39.05-.55.15s-.28.25-.35.45c-.07.2-.11.5-.11.89v2.34h-1.23v-6.44h1.23Z" style="fill:#fff;"/><path d="M250.21,426.85c0-.41.1-.81.3-1.19s.49-.68.86-.88.78-.3,1.24-.3c.71,0,1.28.23,1.74.69s.68,1.04.68,1.74-.23,1.29-.68,1.76c-.46.46-1.03.7-1.72.7-.43,0-.84-.1-1.22-.29s-.68-.48-.89-.85c-.2-.37-.3-.83-.3-1.36ZM251.48,426.91c0,.46.11.82.33,1.06s.49.37.81.37.59-.12.81-.37.33-.6.33-1.07-.11-.81-.33-1.05-.49-.37-.81-.37-.59.12-.81.37-.33.6-.33,1.06Z" style="fill:#fff;"/><path d="M255.96,424.58h1.15v.69c.15-.23.35-.43.61-.57s.54-.22.85-.22c.54,0,1,.21,1.38.64s.57,1.02.57,1.78-.19,1.38-.57,1.82c-.38.43-.84.65-1.38.65-.26,0-.49-.05-.7-.15s-.43-.28-.66-.53v2.35h-1.23v-6.44ZM257.18,426.83c0,.52.1.91.31,1.16s.46.38.76.38.53-.11.72-.34.29-.61.29-1.13c0-.49-.1-.85-.29-1.09s-.44-.36-.73-.36-.55.12-.75.35-.3.58-.3,1.04Z" style="fill:#fff;"/><path d="M261.46,424.58h1.15v.69c.15-.23.35-.43.61-.57s.54-.22.85-.22c.54,0,1,.21,1.38.64s.57,1.02.57,1.78-.19,1.38-.57,1.82c-.38.43-.84.65-1.38.65-.26,0-.49-.05-.7-.15s-.43-.28-.66-.53v2.35h-1.23v-6.44ZM262.68,426.83c0,.52.1.91.31,1.16s.46.38.76.38.53-.11.72-.34.29-.61.29-1.13c0-.49-.1-.85-.29-1.09s-.44-.36-.73-.36-.55.12-.75.35-.3.58-.3,1.04Z" style="fill:#fff;"/><path d="M266.99,423.95v-1.14h1.23v1.14h-1.23ZM266.99,429.25v-4.67h1.23v4.67h-1.23Z" style="fill:#fff;"/><path d="M273.74,429.25h-1.23v-2.38c0-.5-.03-.83-.08-.98-.05-.15-.14-.26-.26-.34-.12-.08-.26-.12-.43-.12-.21,0-.41.06-.58.18s-.29.27-.35.47c-.06.19-.09.55-.09,1.07v2.11h-1.23v-4.67h1.15v.69c.41-.53.92-.79,1.54-.79.27,0,.52.05.75.15.23.1.4.22.51.38s.2.33.24.52c.04.19.07.47.07.83v2.9Z" style="fill:#fff;"/><path d="M274.87,429.56l1.41.17c.02.16.08.28.16.34.12.09.3.13.55.13.32,0,.56-.05.73-.14.11-.06.19-.17.25-.31.04-.1.06-.29.06-.57v-.68c-.37.5-.83.76-1.4.76-.63,0-1.12-.26-1.49-.79-.29-.42-.43-.94-.43-1.56,0-.78.19-1.38.56-1.79s.84-.62,1.4-.62,1.05.25,1.43.76v-.65h1.16v4.19c0,.55-.05.96-.14,1.23-.09.27-.22.49-.38.64-.16.15-.38.28-.66.36s-.62.13-1.04.13c-.79,0-1.35-.14-1.68-.41-.33-.27-.5-.62-.5-1.03,0-.04,0-.09,0-.15ZM275.98,426.82c0,.5.1.86.29,1.09.19.23.43.34.71.34.3,0,.56-.12.76-.35.21-.23.31-.58.31-1.05s-.1-.84-.3-1.08-.45-.35-.76-.35-.54.12-.73.34c-.19.23-.29.58-.29,1.05Z" style="fill:#fff;"/><path d="M149.55,145.06l2.4-.23c.14.8.44,1.4.88,1.77.44.38,1.04.57,1.79.57.79,0,1.39-.17,1.79-.5s.6-.73.6-1.18c0-.29-.08-.54-.25-.74-.17-.2-.46-.38-.89-.53-.29-.1-.95-.28-1.97-.53-1.32-.33-2.25-.73-2.78-1.21-.75-.67-1.12-1.49-1.12-2.46,0-.62.18-1.2.53-1.74s.86-.95,1.52-1.24c.66-.28,1.46-.42,2.4-.42,1.53,0,2.68.34,3.46,1.01s1.18,1.57,1.22,2.69l-2.46.11c-.11-.63-.33-1.08-.68-1.35-.35-.27-.87-.41-1.56-.41s-1.28.15-1.68.44c-.26.19-.39.44-.39.76,0,.29.12.54.37.74.31.26,1.07.53,2.26.81,1.2.28,2.09.58,2.66.88s1.02.72,1.35,1.24c.33.53.49,1.17.49,1.94,0,.7-.19,1.35-.58,1.96-.39.61-.94,1.06-1.65,1.36s-1.6.45-2.66.45c-1.54,0-2.73-.36-3.55-1.07-.83-.71-1.32-1.75-1.48-3.12Z"/><path d="M163.86,136.82v4.49c.75-.88,1.66-1.32,2.71-1.32.54,0,1.02.1,1.46.3s.76.46.98.77c.22.31.37.66.45,1.03.08.38.12.96.12,1.76v5.19h-2.34v-4.67c0-.93-.04-1.51-.13-1.76-.09-.25-.25-.45-.47-.6-.22-.15-.51-.22-.84-.22-.39,0-.74.09-1.04.28-.31.19-.53.47-.67.85-.14.38-.21.94-.21,1.69v4.43h-2.34v-12.2h2.34Z"/><path d="M171.4,144.48c0-.78.19-1.53.57-2.26.38-.73.93-1.28,1.63-1.67.7-.38,1.49-.57,2.35-.57,1.34,0,2.43.43,3.29,1.3s1.28,1.97,1.28,3.29-.43,2.45-1.29,3.33c-.86.88-1.95,1.32-3.26,1.32-.81,0-1.58-.18-2.32-.55s-1.29-.9-1.68-1.61c-.38-.71-.57-1.57-.57-2.59ZM173.8,144.61c0,.88.21,1.55.62,2.02.42.46.93.7,1.54.7s1.12-.23,1.54-.7c.41-.47.62-1.14.62-2.03s-.21-1.53-.62-2c-.41-.47-.92-.7-1.54-.7s-1.12.23-1.54.7c-.42.46-.62,1.14-.62,2.01Z"/><path d="M184,149.03l-2.8-8.84h2.27l1.66,5.79,1.52-5.79h2.26l1.47,5.79,1.69-5.79h2.31l-2.84,8.84h-2.25l-1.52-5.69-1.5,5.69h-2.27Z"/><path d="M203.33,142.8l-2.31.42c-.08-.46-.25-.81-.53-1.04-.27-.23-.63-.35-1.07-.35-.58,0-1.05.2-1.39.6s-.52,1.08-.52,2.02c0,1.05.18,1.79.53,2.22.35.43.83.65,1.42.65.44,0,.81-.13,1.09-.38.28-.25.48-.69.6-1.3l2.3.39c-.24,1.05-.7,1.85-1.37,2.39-.68.54-1.58.81-2.72.81-1.29,0-2.32-.41-3.09-1.22-.77-.82-1.15-1.95-1.15-3.39s.39-2.6,1.16-3.41,1.82-1.22,3.13-1.22c1.08,0,1.93.23,2.57.7.63.46,1.09,1.17,1.37,2.12Z"/><path d="M206.85,142.88l-2.12-.38c.24-.86.65-1.49,1.23-1.9.58-.41,1.45-.62,2.6-.62,1.04,0,1.82.12,2.33.37.51.25.87.56,1.08.94.21.38.31,1.08.31,2.09l-.03,2.73c0,.78.04,1.35.11,1.72.08.37.22.76.42,1.19h-2.31c-.06-.16-.14-.39-.22-.69-.04-.14-.07-.23-.08-.28-.4.39-.83.68-1.28.87s-.94.29-1.46.29c-.91,0-1.63-.25-2.15-.74s-.79-1.12-.79-1.87c0-.5.12-.95.36-1.34.24-.39.57-.69,1-.9.43-.21,1.05-.39,1.86-.54,1.09-.21,1.85-.4,2.27-.57v-.23c0-.45-.11-.77-.33-.96s-.64-.29-1.26-.29c-.42,0-.74.08-.97.25-.23.16-.42.45-.57.86ZM209.98,144.78c-.3.1-.77.22-1.42.36s-1.07.27-1.27.41c-.31.22-.46.49-.46.82s.12.61.37.85c.24.24.55.36.93.36.42,0,.82-.14,1.21-.42.28-.21.47-.47.56-.78.06-.2.09-.58.09-1.14v-.46Z"/><path d="M213.76,146.5l2.35-.36c.1.46.3.8.61,1.04.3.24.73.35,1.28.35.6,0,1.06-.11,1.37-.33.21-.16.31-.36.31-.62,0-.18-.06-.32-.17-.44-.12-.11-.38-.21-.78-.31-1.89-.42-3.08-.8-3.59-1.14-.7-.48-1.05-1.14-1.05-1.99,0-.77.3-1.41.91-1.93.61-.52,1.54-.78,2.81-.78s2.11.2,2.7.59c.59.39.99.98,1.21,1.75l-2.21.41c-.09-.34-.27-.61-.54-.79-.26-.18-.64-.27-1.13-.27-.62,0-1.06.09-1.32.26-.18.12-.27.28-.27.47,0,.17.08.31.23.42.21.16.94.38,2.18.66s2.12.63,2.61,1.04c.49.42.73,1,.73,1.74,0,.81-.34,1.51-1.02,2.09-.68.58-1.68.88-3,.88-1.21,0-2.16-.24-2.86-.73s-1.16-1.15-1.38-1.99Z"/><path d="M229.18,146.21l2.33.39c-.3.86-.77,1.51-1.42,1.95-.65.45-1.46.67-2.43.67-1.54,0-2.68-.5-3.41-1.51-.58-.8-.87-1.82-.87-3.05,0-1.46.38-2.61,1.15-3.44.77-.83,1.73-1.25,2.91-1.25,1.32,0,2.35.43,3.11,1.3.76.87,1.12,2.2,1.09,3.99h-5.86c.02.69.21,1.23.57,1.62.36.39.81.58,1.35.58.37,0,.67-.1.92-.3.25-.2.44-.52.57-.96ZM229.32,143.85c-.02-.68-.19-1.19-.52-1.54s-.74-.53-1.22-.53c-.51,0-.93.19-1.27.56s-.5.88-.49,1.51h3.5Z"/><path d="M237.18,140.19h2.49l2.11,6.28,2.07-6.28h2.42l-3.12,8.51-.56,1.54c-.21.52-.4.91-.59,1.18-.19.27-.4.49-.64.66-.24.17-.54.3-.89.39-.35.09-.75.14-1.2.14s-.89-.05-1.32-.14l-.21-1.83c.37.07.7.11.99.11.54,0,.95-.16,1.21-.48.26-.32.46-.73.6-1.22l-3.36-8.87Z"/><path d="M247.22,144.48c0-.78.19-1.53.58-2.26.38-.73.92-1.28,1.63-1.67.7-.38,1.49-.57,2.35-.57,1.34,0,2.43.43,3.29,1.3.85.87,1.28,1.97,1.28,3.29s-.43,2.45-1.29,3.33c-.86.88-1.95,1.32-3.26,1.32-.81,0-1.58-.18-2.32-.55s-1.29-.9-1.68-1.61c-.38-.71-.58-1.57-.58-2.59ZM249.62,144.61c0,.88.21,1.55.62,2.02.42.46.93.7,1.54.7s1.12-.23,1.54-.7c.41-.47.62-1.14.62-2.03s-.21-1.53-.62-2c-.41-.47-.93-.7-1.54-.7s-1.12.23-1.54.7c-.42.46-.62,1.14-.62,2.01Z"/><path d="M264,149.03v-1.32c-.32.47-.75.84-1.27,1.12s-1.08.41-1.66.41-1.13-.13-1.6-.39-.81-.63-1.02-1.1c-.21-.47-.32-1.12-.32-1.96v-5.59h2.34v4.06c0,1.24.04,2,.13,2.29s.24.5.47.67c.23.16.52.25.87.25.4,0,.76-.11,1.07-.33.32-.22.53-.49.65-.82.12-.33.17-1.12.17-2.39v-3.73h2.34v8.84h-2.17Z"/><path d="M270.84,149.03h-2.34v-8.84h2.17v1.26c.37-.59.71-.99,1-1.17s.63-.28,1.01-.28c.53,0,1.05.15,1.54.44l-.72,2.04c-.39-.26-.76-.38-1.1-.38s-.61.09-.83.27c-.23.18-.41.51-.54.98-.13.47-.2,1.46-.2,2.96v2.73Z"/><path d="M279.9,140.19h2.18v1.3c.28-.44.67-.8,1.15-1.08.48-.28,1.02-.42,1.61-.42,1.03,0,1.9.4,2.61,1.21s1.07,1.93,1.07,3.36-.36,2.62-1.08,3.44-1.6,1.23-2.62,1.23c-.49,0-.93-.1-1.33-.29s-.81-.53-1.25-1v4.45h-2.34v-12.2ZM282.22,144.46c0,.99.2,1.73.59,2.2.39.47.87.71,1.44.71s1-.22,1.36-.65c.36-.44.54-1.15.54-2.14,0-.93-.19-1.62-.56-2.06s-.83-.67-1.38-.67-1.05.22-1.42.66c-.38.44-.57,1.09-.57,1.96Z"/><path d="M292.62,149.03h-2.34v-8.84h2.17v1.26c.37-.59.71-.99,1-1.17s.63-.28,1.01-.28c.53,0,1.05.15,1.54.44l-.72,2.04c-.39-.26-.76-.38-1.1-.38s-.6.09-.83.27c-.23.18-.41.51-.54.98-.13.47-.2,1.46-.2,2.96v2.73Z"/><path d="M296.48,144.48c0-.78.19-1.53.57-2.26.38-.73.93-1.28,1.63-1.67.7-.38,1.49-.57,2.35-.57,1.34,0,2.43.43,3.29,1.3s1.28,1.97,1.28,3.29-.43,2.45-1.29,3.33c-.86.88-1.95,1.32-3.26,1.32-.81,0-1.58-.18-2.32-.55s-1.29-.9-1.68-1.61c-.38-.71-.57-1.57-.57-2.59ZM298.87,144.61c0,.88.21,1.55.62,2.02.42.46.93.7,1.54.7s1.12-.23,1.54-.7c.41-.47.62-1.14.62-2.03s-.21-1.53-.62-2c-.41-.47-.92-.7-1.54-.7s-1.12.23-1.54.7c-.42.46-.62,1.14-.62,2.01Z"/><path d="M315.54,149.03h-2.17v-1.3c-.36.5-.79.88-1.28,1.13-.49.25-.99.37-1.49.37-1.02,0-1.88-.41-2.61-1.23s-1.09-1.96-1.09-3.43.35-2.64,1.06-3.42c.71-.78,1.6-1.17,2.67-1.17.99,0,1.84.41,2.56,1.23v-4.39h2.34v12.2ZM309.3,144.41c0,.94.13,1.63.39,2.05.38.61.9.92,1.58.92.54,0,1-.23,1.37-.69.38-.46.57-1.14.57-2.05,0-1.02-.18-1.75-.55-2.19s-.83-.67-1.41-.67-1.02.22-1.39.66c-.37.44-.56,1.1-.56,1.98Z"/><path d="M323.67,149.03v-1.32c-.32.47-.75.84-1.27,1.12s-1.08.41-1.66.41-1.13-.13-1.6-.39-.81-.63-1.02-1.1c-.21-.47-.32-1.12-.32-1.96v-5.59h2.34v4.06c0,1.24.04,2,.13,2.29s.24.5.47.67.52.25.87.25c.4,0,.76-.11,1.07-.33.32-.22.53-.49.65-.82.12-.33.17-1.12.17-2.39v-3.73h2.34v8.84h-2.17Z"/><path d="M335.97,142.8l-2.31.42c-.08-.46-.25-.81-.53-1.04-.27-.23-.63-.35-1.07-.35-.58,0-1.05.2-1.39.6s-.52,1.08-.52,2.02c0,1.05.18,1.79.53,2.22.35.43.83.65,1.42.65.44,0,.81-.13,1.09-.38.28-.25.48-.69.6-1.3l2.3.39c-.24,1.05-.7,1.85-1.37,2.39-.68.54-1.58.81-2.72.81-1.29,0-2.32-.41-3.09-1.22-.77-.82-1.15-1.95-1.15-3.39s.39-2.6,1.16-3.41,1.82-1.22,3.13-1.22c1.08,0,1.93.23,2.57.7.63.46,1.09,1.17,1.37,2.12Z"/><path d="M341.8,140.19v1.86h-1.6v3.56c0,.72.02,1.14.05,1.26.03.12.1.22.21.29s.24.12.4.12c.22,0,.53-.08.94-.23l.2,1.82c-.54.23-1.16.35-1.85.35-.42,0-.8-.07-1.14-.21-.34-.14-.59-.32-.75-.55s-.27-.53-.33-.91c-.05-.27-.08-.82-.08-1.65v-3.85h-1.07v-1.86h1.07v-1.76l2.35-1.37v3.12h1.6Z"/><path d="M342.6,146.5l2.35-.36c.1.46.3.8.61,1.04.3.24.73.35,1.28.35.6,0,1.06-.11,1.37-.33.21-.16.31-.36.31-.62,0-.18-.06-.32-.17-.44-.12-.11-.38-.21-.78-.31-1.89-.42-3.08-.8-3.59-1.14-.7-.48-1.05-1.14-1.05-1.99,0-.77.3-1.41.91-1.93.61-.52,1.54-.78,2.81-.78s2.11.2,2.7.59c.59.39.99.98,1.21,1.75l-2.21.41c-.09-.34-.27-.61-.54-.79-.26-.18-.64-.27-1.13-.27-.62,0-1.06.09-1.32.26-.18.12-.27.28-.27.47,0,.17.08.31.23.42.21.16.94.38,2.18.66s2.12.63,2.61,1.04c.49.42.73,1,.73,1.74,0,.81-.34,1.51-1.02,2.09-.68.58-1.68.88-3,.88-1.21,0-2.16-.24-2.86-.73s-1.16-1.15-1.38-1.99Z"/><path d="M118.42,328.42v-10.02h6.87v1.7h-4.85v2.37h4.18v1.7h-4.18v4.26h-2.02Z"/><path d="M131.15,326.11l1.91.32c-.25.7-.63,1.24-1.17,1.6-.53.37-1.2.55-1.99.55-1.26,0-2.2-.41-2.8-1.24-.48-.66-.72-1.5-.72-2.5,0-1.2.31-2.15.94-2.83.63-.68,1.42-1.02,2.39-1.02,1.08,0,1.93.36,2.56,1.07.62.71.92,1.81.9,3.28h-4.81c.01.57.17,1.01.46,1.33.3.32.67.48,1.11.48.3,0,.55-.08.76-.25s.36-.43.46-.79ZM131.26,324.17c-.01-.56-.16-.98-.43-1.27-.27-.29-.61-.43-1-.43-.42,0-.77.15-1.04.46-.27.3-.41.72-.4,1.24h2.87Z"/><path d="M136.16,323.37l-1.74-.31c.2-.7.53-1.22,1.01-1.56.48-.34,1.19-.51,2.13-.51.86,0,1.49.1,1.91.3.42.2.71.46.89.77.17.31.26.89.26,1.72l-.02,2.24c0,.64.03,1.11.09,1.41.06.3.18.63.35.97h-1.9c-.05-.13-.11-.32-.18-.57-.03-.11-.05-.19-.07-.23-.33.32-.68.56-1.05.72-.37.16-.77.24-1.2.24-.75,0-1.34-.2-1.77-.61-.43-.41-.65-.92-.65-1.54,0-.41.1-.78.29-1.1s.47-.57.82-.74.86-.32,1.53-.45c.9-.17,1.52-.33,1.87-.47v-.19c0-.37-.09-.63-.27-.79s-.53-.24-1.03-.24c-.34,0-.61.07-.8.2-.19.13-.35.37-.46.71ZM138.73,324.93c-.25.08-.64.18-1.17.29-.53.11-.88.23-1.05.33-.25.18-.38.4-.38.68s.1.5.3.7c.2.2.46.29.77.29.35,0,.68-.11.99-.34.23-.17.39-.39.46-.64.05-.16.08-.48.08-.94v-.38Z"/><path d="M145.84,321.16v1.53h-1.31v2.93c0,.59.01.94.04,1.04.02.1.08.18.17.24.09.06.2.1.32.1.18,0,.44-.06.77-.18l.16,1.49c-.45.19-.95.29-1.52.29-.35,0-.66-.06-.94-.17s-.48-.27-.61-.45-.22-.43-.27-.75c-.04-.22-.06-.67-.06-1.35v-3.17h-.88v-1.53h.88v-1.44l1.93-1.12v2.56h1.31Z"/><path d="M151.95,328.42v-1.09c-.26.39-.61.69-1.04.92-.43.22-.89.33-1.36.33s-.93-.11-1.31-.32c-.39-.21-.67-.52-.84-.9-.17-.39-.26-.92-.26-1.61v-4.59h1.92v3.34c0,1.02.04,1.65.11,1.88.07.23.2.41.39.55.19.13.42.2.71.2.33,0,.62-.09.88-.27.26-.18.44-.4.53-.67s.14-.92.14-1.96v-3.06h1.92v7.26h-1.78Z"/><path d="M157.57,328.42h-1.92v-7.26h1.78v1.03c.31-.49.58-.81.82-.96.24-.16.52-.23.83-.23.44,0,.86.12,1.26.36l-.59,1.67c-.32-.21-.62-.31-.9-.31s-.5.07-.68.22c-.19.15-.33.42-.44.8-.11.39-.16,1.2-.16,2.43v2.24Z"/><path d="M165.38,326.11l1.91.32c-.25.7-.63,1.24-1.17,1.6-.53.37-1.2.55-1.99.55-1.26,0-2.2-.41-2.8-1.24-.48-.66-.72-1.5-.72-2.5,0-1.2.31-2.15.94-2.83.63-.68,1.42-1.02,2.39-1.02,1.08,0,1.93.36,2.56,1.07.62.71.92,1.81.9,3.28h-4.81c.01.57.17,1.01.46,1.33.3.32.67.48,1.11.48.3,0,.55-.08.76-.25s.36-.43.46-.79ZM165.49,324.17c-.01-.56-.16-.98-.43-1.27-.27-.29-.61-.43-1-.43-.42,0-.77.15-1.04.46-.27.3-.41.72-.4,1.24h2.87Z"/><path d="M176.18,321.16v1.53h-1.31v2.93c0,.59.01.94.04,1.04.02.1.08.18.17.24.09.06.2.1.32.1.18,0,.44-.06.77-.18l.16,1.49c-.45.19-.95.29-1.52.29-.35,0-.66-.06-.94-.17s-.48-.27-.61-.45-.22-.43-.27-.75c-.04-.22-.06-.67-.06-1.35v-3.17h-.88v-1.53h.88v-1.44l1.93-1.12v2.56h1.31Z"/><path d="M179.43,318.4v3.68c.62-.72,1.36-1.09,2.22-1.09.44,0,.84.08,1.2.25s.62.37.8.63c.18.25.3.54.37.85.07.31.1.79.1,1.44v4.26h-1.92v-3.83c0-.76-.04-1.24-.11-1.45s-.2-.37-.39-.49c-.18-.12-.42-.18-.69-.18-.32,0-.6.08-.85.23-.25.15-.43.39-.55.7-.12.31-.17.77-.17,1.38v3.64h-1.92v-10.02h1.92Z"/><path d="M190.27,326.11l1.91.32c-.25.7-.63,1.24-1.17,1.6-.53.37-1.2.55-1.99.55-1.26,0-2.2-.41-2.8-1.24-.48-.66-.72-1.5-.72-2.5,0-1.2.31-2.15.94-2.83.63-.68,1.42-1.02,2.39-1.02,1.08,0,1.93.36,2.56,1.07.62.71.92,1.81.9,3.28h-4.81c.01.57.17,1.01.46,1.33.3.32.67.48,1.11.48.3,0,.55-.08.76-.25s.36-.43.46-.79ZM190.38,324.17c-.01-.56-.16-.98-.43-1.27-.27-.29-.61-.43-1-.43-.42,0-.77.15-1.04.46-.27.3-.41.72-.4,1.24h2.87Z"/><path d="M197.06,326.35l1.93-.29c.08.37.25.66.5.85.25.19.6.29,1.05.29.5,0,.87-.09,1.12-.27.17-.13.25-.3.25-.51,0-.15-.05-.27-.14-.36-.1-.09-.31-.18-.64-.25-1.55-.34-2.53-.65-2.95-.94-.57-.39-.86-.94-.86-1.63,0-.63.25-1.16.75-1.59.5-.43,1.27-.64,2.31-.64s1.73.16,2.21.49c.48.32.82.8,1,1.44l-1.81.33c-.08-.28-.22-.5-.44-.65s-.53-.23-.93-.23c-.51,0-.87.07-1.09.21-.15.1-.22.23-.22.39,0,.14.06.25.19.35.17.13.77.31,1.79.54s1.74.52,2.14.85c.4.34.6.82.6,1.43,0,.67-.28,1.24-.83,1.72s-1.38.72-2.47.72c-.99,0-1.77-.2-2.35-.6-.58-.4-.95-.95-1.13-1.63Z"/><path d="M208.86,321.16v1.53h-1.31v2.93c0,.59.01.94.04,1.04.02.1.08.18.17.24.09.06.2.1.32.1.18,0,.44-.06.77-.18l.16,1.49c-.45.19-.95.29-1.52.29-.35,0-.66-.06-.94-.17s-.48-.27-.61-.45-.22-.43-.27-.75c-.04-.22-.06-.67-.06-1.35v-3.17h-.88v-1.53h.88v-1.44l1.93-1.12v2.56h1.31Z"/><path d="M211.63,323.37l-1.74-.31c.2-.7.53-1.22,1.01-1.56.48-.34,1.19-.51,2.13-.51.86,0,1.49.1,1.91.3.42.2.71.46.89.77.17.31.26.89.26,1.72l-.02,2.24c0,.64.03,1.11.09,1.41.06.3.18.63.35.97h-1.9c-.05-.13-.11-.32-.18-.57-.03-.11-.05-.19-.07-.23-.33.32-.68.56-1.05.72-.37.16-.77.24-1.2.24-.75,0-1.34-.2-1.77-.61-.43-.41-.65-.92-.65-1.54,0-.41.1-.78.29-1.1s.47-.57.82-.74.86-.32,1.53-.45c.9-.17,1.52-.33,1.87-.47v-.19c0-.37-.09-.63-.27-.79s-.53-.24-1.03-.24c-.34,0-.61.07-.8.2-.19.13-.35.37-.46.71ZM214.2,324.93c-.25.08-.64.18-1.17.29-.53.11-.88.23-1.05.33-.25.18-.38.4-.38.68s.1.5.3.7c.2.2.46.29.77.29.35,0,.68-.11.99-.34.23-.17.39-.39.46-.64.05-.16.08-.48.08-.94v-.38Z"/><path d="M219.81,328.42h-1.92v-7.26h1.78v1.03c.31-.49.58-.81.82-.96.24-.16.52-.23.83-.23.44,0,.86.12,1.26.36l-.59,1.67c-.32-.21-.62-.31-.9-.31s-.5.07-.68.22c-.19.15-.33.42-.44.8-.11.39-.16,1.2-.16,2.43v2.24Z"/><path d="M226.87,324.69c0-.64.16-1.26.47-1.85.31-.6.76-1.05,1.34-1.37s1.22-.47,1.93-.47c1.1,0,2,.36,2.7,1.07.7.71,1.05,1.61,1.05,2.7s-.35,2.01-1.06,2.73c-.71.72-1.6,1.08-2.68,1.08-.67,0-1.3-.15-1.9-.45s-1.06-.74-1.38-1.32-.47-1.29-.47-2.12ZM228.84,324.79c0,.72.17,1.27.51,1.65s.76.57,1.26.57.92-.19,1.26-.57.51-.94.51-1.67-.17-1.26-.51-1.64-.76-.57-1.26-.57-.92.19-1.26.57-.51.93-.51,1.65Z"/><path d="M235.02,321.16h1.07v-.55c0-.61.06-1.07.19-1.37s.37-.55.72-.74c.35-.19.79-.28,1.32-.28s1.08.08,1.61.25l-.26,1.34c-.31-.07-.6-.11-.88-.11s-.48.06-.6.19-.18.38-.18.75v.51h1.44v1.51h-1.44v5.75h-1.92v-5.75h-1.07v-1.51Z"/><path d="M243.51,321.16h2.04l1.74,5.15,1.7-5.15h1.99l-2.56,6.99-.46,1.26c-.17.42-.33.75-.48.97-.15.22-.33.4-.53.54-.2.14-.44.25-.73.33-.29.08-.62.12-.98.12s-.73-.04-1.09-.12l-.17-1.5c.3.06.57.09.81.09.45,0,.78-.13.99-.39.21-.26.38-.6.49-1l-2.76-7.28Z"/><path d="M251.76,324.69c0-.64.16-1.26.47-1.85.31-.6.76-1.05,1.34-1.37s1.22-.47,1.93-.47c1.1,0,2,.36,2.7,1.07.7.71,1.05,1.61,1.05,2.7s-.35,2.01-1.06,2.73c-.71.72-1.6,1.08-2.68,1.08-.67,0-1.3-.15-1.9-.45s-1.06-.74-1.38-1.32-.47-1.29-.47-2.12ZM253.73,324.79c0,.72.17,1.27.51,1.65s.76.57,1.26.57.92-.19,1.26-.57.51-.94.51-1.67-.17-1.26-.51-1.64-.76-.57-1.26-.57-.92.19-1.26.57-.51.93-.51,1.65Z"/><path d="M265.53,328.42v-1.09c-.26.39-.61.69-1.04.92-.43.22-.89.33-1.36.33s-.93-.11-1.31-.32c-.39-.21-.67-.52-.84-.9-.17-.39-.26-.92-.26-1.61v-4.59h1.92v3.34c0,1.02.04,1.65.11,1.88.07.23.2.41.39.55.19.13.42.2.71.2.33,0,.62-.09.88-.27.26-.18.44-.4.53-.67s.14-.92.14-1.96v-3.06h1.92v7.26h-1.78Z"/><path d="M271.15,328.42h-1.92v-7.26h1.78v1.03c.31-.49.58-.81.82-.96.24-.16.52-.23.83-.23.44,0,.86.12,1.26.36l-.59,1.67c-.32-.21-.62-.31-.9-.31s-.5.07-.68.22c-.19.15-.33.42-.44.8-.11.39-.16,1.2-.16,2.43v2.24Z"/><path d="M284.97,323.3l-1.89.34c-.06-.38-.21-.66-.43-.85s-.52-.29-.88-.29c-.48,0-.86.17-1.15.5-.28.33-.43.88-.43,1.66,0,.86.14,1.47.43,1.83s.68.53,1.17.53c.36,0,.66-.1.9-.31.23-.21.4-.56.49-1.07l1.89.32c-.2.87-.57,1.52-1.13,1.96-.56.44-1.3.66-2.24.66-1.06,0-1.91-.33-2.54-1s-.95-1.6-.95-2.78.32-2.13.95-2.8c.63-.67,1.49-1,2.57-1,.88,0,1.59.19,2.11.57.52.38.9.96,1.12,1.74Z"/><path d="M285.99,324.69c0-.64.16-1.26.47-1.85.31-.6.76-1.05,1.34-1.37s1.22-.47,1.93-.47c1.1,0,2,.36,2.7,1.07.7.71,1.05,1.61,1.05,2.7s-.35,2.01-1.06,2.73c-.71.72-1.6,1.08-2.68,1.08-.67,0-1.3-.15-1.9-.45s-1.06-.74-1.38-1.32-.47-1.29-.47-2.12ZM287.96,324.79c0,.72.17,1.27.51,1.65s.76.57,1.26.57.92-.19,1.26-.57.51-.94.51-1.67-.17-1.26-.51-1.64-.76-.57-1.26-.57-.92.19-1.26.57-.51.93-.51,1.65Z"/><path d="M294.98,328.42v-10.02h1.92v10.02h-1.92Z"/><path d="M298.87,328.42v-10.02h1.92v10.02h-1.92Z"/><path d="M306.97,326.11l1.91.32c-.25.7-.63,1.24-1.17,1.6-.53.37-1.2.55-1.99.55-1.26,0-2.2-.41-2.8-1.24-.48-.66-.72-1.5-.72-2.5,0-1.2.31-2.15.94-2.83.63-.68,1.42-1.02,2.39-1.02,1.08,0,1.93.36,2.56,1.07.62.71.92,1.81.9,3.28h-4.81c.01.57.17,1.01.46,1.33.3.32.67.48,1.11.48.3,0,.55-.08.76-.25s.36-.43.46-.79ZM307.08,324.17c-.01-.56-.16-.98-.43-1.27-.27-.29-.61-.43-1-.43-.42,0-.77.15-1.04.46-.27.3-.41.72-.4,1.24h2.87Z"/><path d="M316.88,323.3l-1.89.34c-.06-.38-.21-.66-.43-.85s-.52-.29-.88-.29c-.48,0-.86.17-1.15.5-.28.33-.43.88-.43,1.66,0,.86.14,1.47.43,1.83s.68.53,1.17.53c.36,0,.66-.1.9-.31.23-.21.4-.56.49-1.07l1.89.32c-.2.87-.57,1.52-1.13,1.96-.56.44-1.3.66-2.24.66-1.06,0-1.91-.33-2.54-1s-.95-1.6-.95-2.78.32-2.13.95-2.8c.63-.67,1.49-1,2.57-1,.88,0,1.59.19,2.11.57.52.38.9.96,1.12,1.74Z"/><path d="M321.66,321.16v1.53h-1.31v2.93c0,.59.01.94.04,1.04.02.1.08.18.17.24.09.06.2.1.32.1.18,0,.44-.06.77-.18l.16,1.49c-.45.19-.95.29-1.52.29-.35,0-.66-.06-.94-.17s-.48-.27-.61-.45-.22-.43-.27-.75c-.04-.22-.06-.67-.06-1.35v-3.17h-.88v-1.53h.88v-1.44l1.93-1.12v2.56h1.31Z"/><path d="M323,320.17v-1.78h1.92v1.78h-1.92ZM323,328.42v-7.26h1.92v7.26h-1.92Z"/><path d="M326.44,324.69c0-.64.16-1.26.47-1.85.31-.6.76-1.05,1.34-1.37s1.22-.47,1.93-.47c1.1,0,2,.36,2.7,1.07.7.71,1.05,1.61,1.05,2.7s-.35,2.01-1.06,2.73c-.71.72-1.6,1.08-2.68,1.08-.67,0-1.3-.15-1.9-.45s-1.06-.74-1.38-1.32-.47-1.29-.47-2.12ZM328.41,324.79c0,.72.17,1.27.51,1.65s.76.57,1.26.57.92-.19,1.26-.57.51-.94.51-1.67-.17-1.26-.51-1.64-.76-.57-1.26-.57-.92.19-1.26.57-.51.93-.51,1.65Z"/><path d="M342.04,328.42h-1.92v-3.71c0-.78-.04-1.29-.12-1.52-.08-.23-.22-.41-.4-.54-.18-.13-.41-.19-.67-.19-.33,0-.63.09-.9.27-.26.18-.45.42-.54.72s-.15.86-.15,1.67v3.29h-1.92v-7.26h1.78v1.07c.63-.82,1.43-1.23,2.39-1.23.42,0,.81.08,1.16.23.35.15.62.35.8.58.18.24.31.51.38.81s.11.73.11,1.29v4.51Z"/><path d="M347.04,321.16h1.07v-.55c0-.61.06-1.07.19-1.37s.37-.55.72-.74c.35-.19.79-.28,1.32-.28s1.08.08,1.61.25l-.26,1.34c-.31-.07-.6-.11-.88-.11s-.48.06-.6.19-.18.38-.18.75v.51h1.44v1.51h-1.44v5.75h-1.92v-5.75h-1.07v-1.51Z"/><path d="M352.54,320.17v-1.78h1.92v1.78h-1.92ZM352.54,328.42v-7.26h1.92v7.26h-1.92Z"/><path d="M358.27,328.42h-1.92v-7.26h1.78v1.03c.31-.49.58-.81.82-.96.24-.16.52-.23.83-.23.44,0,.86.12,1.26.36l-.59,1.67c-.32-.21-.62-.31-.9-.31s-.5.07-.68.22c-.19.15-.33.42-.44.8-.11.39-.16,1.2-.16,2.43v2.24Z"/><path d="M361.2,326.35l1.93-.29c.08.37.25.66.5.85.25.19.6.29,1.05.29.5,0,.87-.09,1.12-.27.17-.13.25-.3.25-.51,0-.15-.05-.27-.14-.36-.1-.09-.31-.18-.64-.25-1.55-.34-2.53-.65-2.95-.94-.57-.39-.86-.94-.86-1.63,0-.63.25-1.16.75-1.59.5-.43,1.27-.64,2.31-.64s1.73.16,2.21.49c.48.32.82.8,1,1.44l-1.81.33c-.08-.28-.22-.5-.44-.65s-.53-.23-.93-.23c-.51,0-.87.07-1.09.21-.15.1-.22.23-.22.39,0,.14.06.25.19.35.17.13.77.31,1.79.54s1.74.52,2.14.85c.4.34.6.82.6,1.43,0,.67-.28,1.24-.83,1.72s-1.38.72-2.47.72c-.99,0-1.77-.2-2.35-.6-.58-.4-.95-.95-1.13-1.63Z"/><path d="M372.99,321.16v1.53h-1.31v2.93c0,.59.01.94.04,1.04.02.1.08.18.17.24.09.06.2.1.32.1.18,0,.44-.06.77-.18l.16,1.49c-.45.19-.95.29-1.52.29-.35,0-.66-.06-.94-.17s-.48-.27-.61-.45-.22-.43-.27-.75c-.04-.22-.06-.67-.06-1.35v-3.17h-.88v-1.53h.88v-1.44l1.93-1.12v2.56h1.31Z"/><path d="M107.05,349.81v-5.68h-2.12v-.76h5.11v.76h-2.13v5.68h-.85Z"/><path d="M109.51,347.47c0-.86.24-1.5.72-1.92.4-.35.89-.52,1.47-.52.64,0,1.17.21,1.57.63.41.42.61,1,.61,1.74,0,.6-.09,1.07-.27,1.42-.18.34-.44.61-.79.8s-.72.29-1.13.29c-.65,0-1.18-.21-1.58-.63-.4-.42-.6-1.02-.6-1.81ZM110.33,347.47c0,.6.13,1.05.39,1.34.26.3.59.45.98.45s.72-.15.98-.45.39-.75.39-1.37c0-.58-.13-1.01-.39-1.31-.26-.3-.59-.45-.98-.45s-.72.15-.98.44-.39.74-.39,1.34Z"/><path d="M117.17,350.19l.77.11c.03.24.12.41.27.52.2.15.46.22.8.22.37,0,.65-.07.85-.22s.33-.35.4-.62c.04-.16.06-.5.06-1.02-.35.41-.78.61-1.29.61-.64,0-1.14-.23-1.49-.69s-.53-1.02-.53-1.67c0-.45.08-.86.24-1.23.16-.38.39-.67.7-.87s.67-.31,1.08-.31c.55,0,1,.22,1.36.67v-.56h.73v4.03c0,.73-.07,1.24-.22,1.54-.15.3-.38.54-.7.72-.32.18-.72.26-1.18.26-.56,0-1.01-.12-1.35-.38-.34-.25-.51-.63-.5-1.13ZM117.82,347.39c0,.61.12,1.06.36,1.34s.55.42.91.42.67-.14.91-.42c.25-.28.37-.72.37-1.32s-.13-1-.38-1.29c-.25-.29-.56-.44-.92-.44s-.65.14-.9.43c-.25.29-.37.71-.37,1.27Z"/><path d="M125.51,348.3l.82.1c-.13.48-.37.85-.72,1.11s-.79.4-1.34.4c-.68,0-1.22-.21-1.62-.63-.4-.42-.6-1.01-.6-1.77s.2-1.39.61-1.83.93-.65,1.57-.65,1.13.21,1.53.64.59,1.02.59,1.79c0,.05,0,.12,0,.21h-3.48c.03.51.17.91.44,1.18s.59.41.98.41c.29,0,.54-.08.74-.23s.37-.4.49-.73ZM122.92,347.02h2.61c-.04-.39-.13-.69-.3-.88-.25-.3-.58-.46-.98-.46-.36,0-.67.12-.92.36s-.38.57-.41.98Z"/><path d="M129.05,349.1l.11.7c-.22.05-.42.07-.6.07-.29,0-.51-.05-.67-.14s-.27-.21-.33-.36c-.06-.15-.1-.46-.1-.93v-2.68h-.58v-.62h.58v-1.16l.79-.47v1.63h.8v.62h-.8v2.73c0,.23.01.37.04.44s.07.12.14.15c.06.04.15.06.27.06.09,0,.2-.01.35-.03Z"/><path d="M132.01,348.41l.78-.12c.04.31.17.55.37.72s.48.25.84.25.63-.07.81-.22c.18-.15.26-.32.26-.52,0-.18-.08-.32-.23-.42-.11-.07-.38-.16-.81-.27-.58-.15-.98-.27-1.21-.38-.22-.11-.39-.25-.51-.44-.12-.19-.17-.4-.17-.63,0-.21.05-.4.14-.58.09-.18.22-.32.39-.44.12-.09.29-.17.5-.23.21-.06.44-.09.68-.09.37,0,.69.05.96.16.28.11.48.25.61.43.13.18.22.42.27.72l-.77.11c-.04-.24-.14-.43-.31-.56-.17-.13-.41-.2-.71-.2-.36,0-.62.06-.78.18s-.23.26-.23.42c0,.1.03.2.1.28.06.08.17.16.3.21.08.03.31.1.7.2.56.15.95.27,1.17.37.22.09.39.23.52.42s.19.41.19.68-.08.51-.23.75c-.15.23-.38.41-.67.54-.29.13-.62.19-.98.19-.61,0-1.07-.13-1.39-.38-.32-.25-.52-.63-.61-1.12Z"/><path d="M138.55,349.1l.11.7c-.22.05-.42.07-.6.07-.29,0-.51-.05-.67-.14s-.27-.21-.33-.36c-.06-.15-.1-.46-.1-.93v-2.68h-.58v-.62h.58v-1.16l.79-.47v1.63h.8v.62h-.8v2.73c0,.23.01.37.04.44s.07.12.14.15c.06.04.15.06.27.06.09,0,.2-.01.35-.03Z"/><path d="M142.37,349.23c-.29.25-.58.42-.85.53-.27.1-.56.15-.87.15-.51,0-.91-.12-1.18-.38-.28-.25-.41-.57-.41-.96,0-.23.05-.44.16-.63.1-.19.24-.34.41-.46s.36-.2.57-.26c.16-.04.39-.08.7-.12.64-.08,1.11-.17,1.41-.27,0-.11,0-.18,0-.21,0-.32-.07-.55-.22-.68-.2-.18-.5-.27-.9-.27-.37,0-.65.07-.82.2-.18.13-.31.36-.39.69l-.77-.11c.07-.33.19-.6.35-.8.16-.2.39-.36.7-.47.3-.11.66-.17,1.06-.17s.72.05.97.14.43.21.55.35c.12.14.2.32.25.54.03.13.04.38.04.73v1.05c0,.74.02,1.2.05,1.4.03.2.1.38.2.56h-.83c-.08-.16-.13-.36-.16-.58ZM142.3,347.46c-.29.12-.72.22-1.29.3-.33.05-.56.1-.69.16s-.24.14-.31.26c-.07.11-.11.24-.11.38,0,.21.08.39.24.53s.39.21.7.21.58-.07.81-.2c.24-.13.41-.32.52-.55.08-.18.13-.44.13-.79v-.29Z"/><path d="M144.32,349.81v-4.67h.71v.71c.18-.33.35-.55.5-.65.15-.11.32-.16.51-.16.27,0,.54.08.81.25l-.27.73c-.19-.11-.39-.17-.58-.17-.17,0-.33.05-.47.16-.14.1-.24.25-.29.43-.09.28-.13.59-.13.92v2.44h-.79Z"/><path d="M149.05,349.1l.11.7c-.22.05-.42.07-.6.07-.29,0-.51-.05-.67-.14s-.27-.21-.33-.36c-.06-.15-.1-.46-.1-.93v-2.68h-.58v-.62h.58v-1.16l.79-.47v1.63h.8v.62h-.8v2.73c0,.23.01.37.04.44s.07.12.14.15c.06.04.15.06.27.06.09,0,.2-.01.35-.03Z"/><path d="M153.02,348.3l.82.1c-.13.48-.37.85-.72,1.11s-.79.4-1.34.4c-.68,0-1.22-.21-1.62-.63-.4-.42-.6-1.01-.6-1.77s.2-1.39.61-1.83.93-.65,1.57-.65,1.13.21,1.53.64.59,1.02.59,1.79c0,.05,0,.12,0,.21h-3.48c.03.51.17.91.44,1.18s.59.41.98.41c.29,0,.54-.08.74-.23s.37-.4.49-.73ZM150.43,347.02h2.61c-.04-.39-.13-.69-.3-.88-.25-.3-.58-.46-.98-.46-.36,0-.67.12-.92.36s-.38.57-.41.98Z"/><path d="M157.86,349.81v-.59c-.3.46-.73.69-1.31.69-.37,0-.71-.1-1.03-.31-.31-.21-.55-.49-.73-.86-.17-.37-.26-.79-.26-1.27s.08-.89.23-1.27c.16-.38.39-.67.7-.87s.66-.3,1.04-.3c.28,0,.53.06.75.18.22.12.4.27.54.46v-2.31h.79v6.44h-.73ZM155.36,347.48c0,.6.13,1.04.38,1.34s.55.44.89.44.64-.14.88-.42c.24-.28.36-.71.36-1.29,0-.64-.12-1.11-.37-1.41s-.55-.45-.91-.45-.65.14-.88.43c-.24.29-.35.74-.35,1.36Z"/><path d="M160.05,349.81v-.9h.9v.9c0,.33-.06.6-.18.8-.12.2-.3.36-.56.47l-.22-.34c.17-.07.29-.18.37-.32.08-.14.12-.35.13-.61h-.45Z"/><path d="M164.83,349.81v-4.67h.71v.71c.18-.33.35-.55.5-.65.15-.11.32-.16.51-.16.27,0,.54.08.81.25l-.27.73c-.19-.11-.39-.17-.58-.17-.17,0-.33.05-.47.16-.14.1-.24.25-.29.43-.09.28-.13.59-.13.92v2.44h-.79Z"/><path d="M171.03,348.3l.82.1c-.13.48-.37.85-.72,1.11s-.79.4-1.34.4c-.68,0-1.22-.21-1.62-.63-.4-.42-.6-1.01-.6-1.77s.2-1.39.61-1.83.93-.65,1.57-.65,1.13.21,1.53.64.59,1.02.59,1.79c0,.05,0,.12,0,.21h-3.48c.03.51.17.91.44,1.18s.59.41.98.41c.29,0,.54-.08.74-.23s.37-.4.49-.73ZM168.43,347.02h2.61c-.04-.39-.13-.69-.3-.88-.25-.3-.58-.46-.98-.46-.36,0-.67.12-.92.36s-.38.57-.41.98Z"/><path d="M172.84,351.59v-6.46h.72v.61c.17-.24.36-.42.58-.53.21-.12.47-.18.78-.18.4,0,.75.1,1.05.31s.53.49.69.87c.16.37.23.78.23,1.23,0,.48-.09.91-.26,1.29-.17.38-.42.68-.75.88s-.67.31-1.03.31c-.26,0-.5-.06-.71-.17s-.38-.25-.52-.42v2.27h-.79ZM173.56,347.5c0,.6.12,1.04.36,1.33s.54.43.88.43.65-.15.9-.45c.25-.3.38-.76.38-1.38s-.12-1.04-.37-1.34c-.25-.3-.54-.44-.88-.44s-.63.16-.89.47c-.26.32-.39.77-.39,1.37Z"/><path d="M177.83,349.81v-6.44h.79v6.44h-.79Z"/><path d="M182.89,349.23c-.29.25-.58.42-.85.53-.27.1-.56.15-.87.15-.51,0-.91-.12-1.18-.38-.28-.25-.41-.57-.41-.96,0-.23.05-.44.16-.63.1-.19.24-.34.41-.46s.36-.2.57-.26c.16-.04.39-.08.7-.12.64-.08,1.11-.17,1.41-.27,0-.11,0-.18,0-.21,0-.32-.07-.55-.22-.68-.2-.18-.5-.27-.9-.27-.37,0-.65.07-.82.2-.18.13-.31.36-.39.69l-.77-.11c.07-.33.19-.6.35-.8.16-.2.39-.36.7-.47.3-.11.66-.17,1.06-.17s.72.05.97.14.43.21.55.35c.12.14.2.32.25.54.03.13.04.38.04.73v1.05c0,.74.02,1.2.05,1.4.03.2.1.38.2.56h-.83c-.08-.16-.13-.36-.16-.58ZM182.83,347.46c-.29.12-.72.22-1.29.3-.33.05-.56.1-.69.16s-.24.14-.31.26c-.07.11-.11.24-.11.38,0,.21.08.39.24.53s.39.21.7.21.58-.07.81-.2c.24-.13.41-.32.52-.55.08-.18.13-.44.13-.79v-.29Z"/><path d="M187.9,348.1l.78.1c-.08.54-.3.96-.65,1.26-.35.3-.78.46-1.29.46-.64,0-1.15-.21-1.54-.63-.39-.42-.58-1.02-.58-1.8,0-.5.08-.94.25-1.32s.42-.66.76-.85c.34-.19.71-.28,1.11-.28.51,0,.92.13,1.24.38.32.26.53.62.62,1.09l-.77.12c-.07-.31-.2-.55-.39-.71s-.41-.24-.67-.24c-.4,0-.72.14-.97.43-.25.29-.37.74-.37,1.36s.12,1.08.36,1.37.55.43.94.43c.31,0,.57-.1.78-.29s.34-.48.4-.88Z"/><path d="M192.55,348.3l.82.1c-.13.48-.37.85-.72,1.11s-.79.4-1.34.4c-.68,0-1.22-.21-1.62-.63-.4-.42-.6-1.01-.6-1.77s.2-1.39.61-1.83.93-.65,1.57-.65,1.13.21,1.53.64.59,1.02.59,1.79c0,.05,0,.12,0,.21h-3.48c.03.51.17.91.44,1.18s.59.41.98.41c.29,0,.54-.08.74-.23s.37-.4.49-.73ZM189.95,347.02h2.61c-.04-.39-.13-.69-.3-.88-.25-.3-.58-.46-.98-.46-.36,0-.67.12-.92.36s-.38.57-.41.98Z"/><path d="M198.59,349.1l.11.7c-.22.05-.42.07-.6.07-.29,0-.51-.05-.67-.14s-.27-.21-.33-.36c-.06-.15-.1-.46-.1-.93v-2.68h-.58v-.62h.58v-1.16l.79-.47v1.63h.8v.62h-.8v2.73c0,.23.01.37.04.44s.07.12.14.15c.06.04.15.06.27.06.09,0,.2-.01.35-.03Z"/><path d="M199.36,349.81v-6.44h.79v2.31c.37-.43.83-.64,1.4-.64.35,0,.65.07.9.2.25.14.44.32.55.56.11.24.17.59.17,1.05v2.96h-.79v-2.96c0-.4-.09-.68-.26-.86-.17-.18-.41-.27-.73-.27-.23,0-.46.06-.66.18-.21.12-.35.29-.44.49s-.13.5-.13.86v2.55h-.79Z"/><path d="M207.56,348.3l.82.1c-.13.48-.37.85-.72,1.11s-.79.4-1.34.4c-.68,0-1.22-.21-1.62-.63-.4-.42-.6-1.01-.6-1.77s.2-1.39.61-1.83.93-.65,1.57-.65,1.13.21,1.53.64.59,1.02.59,1.79c0,.05,0,.12,0,.21h-3.48c.03.51.17.91.44,1.18s.59.41.98.41c.29,0,.54-.08.74-.23s.37-.4.49-.73ZM204.96,347.02h2.61c-.04-.39-.13-.69-.3-.88-.25-.3-.58-.46-.98-.46-.36,0-.67.12-.92.36s-.38.57-.41.98Z"/><path d="M211.87,344.27v-.91h.79v.91h-.79ZM211.87,349.81v-4.67h.79v4.67h-.79Z"/><path d="M213.87,349.81v-4.67h.71v.65c.15-.23.34-.41.58-.55.24-.14.52-.21.83-.21.35,0,.63.07.85.21.22.14.38.34.47.6.37-.54.85-.82,1.44-.82.46,0,.82.13,1.07.38.25.26.37.65.37,1.18v3.2h-.79v-2.94c0-.32-.03-.54-.08-.68-.05-.14-.14-.25-.28-.34s-.29-.13-.47-.13c-.33,0-.6.11-.82.33-.22.22-.33.57-.33,1.05v2.71h-.79v-3.03c0-.35-.06-.62-.19-.79s-.34-.26-.63-.26c-.22,0-.43.06-.62.18-.19.12-.33.29-.41.51s-.13.55-.13.98v2.42h-.79Z"/><path d="M224.41,349.23c-.29.25-.58.42-.85.53-.27.1-.56.15-.87.15-.51,0-.91-.12-1.18-.38-.28-.25-.41-.57-.41-.96,0-.23.05-.44.16-.63.1-.19.24-.34.41-.46s.36-.2.57-.26c.16-.04.39-.08.7-.12.64-.08,1.11-.17,1.41-.27,0-.11,0-.18,0-.21,0-.32-.07-.55-.22-.68-.2-.18-.5-.27-.9-.27-.37,0-.65.07-.82.2-.18.13-.31.36-.39.69l-.77-.11c.07-.33.19-.6.35-.8.16-.2.39-.36.7-.47.3-.11.66-.17,1.06-.17s.72.05.97.14.43.21.55.35c.12.14.2.32.25.54.03.13.04.38.04.73v1.05c0,.74.02,1.2.05,1.4.03.2.1.38.2.56h-.83c-.08-.16-.13-.36-.16-.58ZM224.35,347.46c-.29.12-.72.22-1.29.3-.33.05-.56.1-.69.16s-.24.14-.31.26c-.07.11-.11.24-.11.38,0,.21.08.39.24.53s.39.21.7.21.58-.07.81-.2c.24-.13.41-.32.52-.55.08-.18.13-.44.13-.79v-.29Z"/><path d="M226.23,350.19l.77.11c.03.24.12.41.27.52.2.15.46.22.8.22.37,0,.65-.07.85-.22s.33-.35.4-.62c.04-.16.06-.5.06-1.02-.35.41-.78.61-1.29.61-.64,0-1.14-.23-1.49-.69s-.53-1.02-.53-1.67c0-.45.08-.86.24-1.23.16-.38.39-.67.7-.87s.67-.31,1.08-.31c.55,0,1,.22,1.36.67v-.56h.73v4.03c0,.73-.07,1.24-.22,1.54-.15.3-.38.54-.7.72-.32.18-.72.26-1.18.26-.56,0-1.01-.12-1.35-.38-.34-.25-.51-.63-.5-1.13ZM226.88,347.39c0,.61.12,1.06.36,1.34s.55.42.91.42.67-.14.91-.42c.25-.28.37-.72.37-1.32s-.13-1-.38-1.29c-.25-.29-.56-.44-.92-.44s-.65.14-.9.43c-.25.29-.37.71-.37,1.27Z"/><path d="M234.57,348.3l.82.1c-.13.48-.37.85-.72,1.11s-.79.4-1.34.4c-.68,0-1.22-.21-1.62-.63-.4-.42-.6-1.01-.6-1.77s.2-1.39.61-1.83.93-.65,1.57-.65,1.13.21,1.53.64.59,1.02.59,1.79c0,.05,0,.12,0,.21h-3.48c.03.51.17.91.44,1.18s.59.41.98.41c.29,0,.54-.08.74-.23s.37-.4.49-.73ZM231.97,347.02h2.61c-.04-.39-.13-.69-.3-.88-.25-.3-.58-.46-.98-.46-.36,0-.67.12-.92.36s-.38.57-.41.98Z"/><path d="M241.93,349.23c-.29.25-.58.42-.85.53-.27.1-.56.15-.87.15-.51,0-.91-.12-1.18-.38-.28-.25-.41-.57-.41-.96,0-.23.05-.44.16-.63.1-.19.24-.34.41-.46s.36-.2.57-.26c.16-.04.39-.08.7-.12.64-.08,1.11-.17,1.41-.27,0-.11,0-.18,0-.21,0-.32-.07-.55-.22-.68-.2-.18-.5-.27-.9-.27-.37,0-.65.07-.82.2-.18.13-.31.36-.39.69l-.77-.11c.07-.33.19-.6.35-.8.16-.2.39-.36.7-.47.3-.11.66-.17,1.06-.17s.72.05.97.14.43.21.55.35c.12.14.2.32.25.54.03.13.04.38.04.73v1.05c0,.74.02,1.2.05,1.4.03.2.1.38.2.56h-.83c-.08-.16-.13-.36-.16-.58ZM241.86,347.46c-.29.12-.72.22-1.29.3-.33.05-.56.1-.69.16s-.24.14-.31.26c-.07.11-.11.24-.11.38,0,.21.08.39.24.53s.39.21.7.21.58-.07.81-.2c.24-.13.41-.32.52-.55.08-.18.13-.44.13-.79v-.29Z"/><path d="M244.62,349.81h-.73v-6.44h.79v2.3c.33-.42.76-.63,1.28-.63.29,0,.56.06.81.17.26.12.47.28.63.49.17.21.3.46.39.76s.14.61.14.95c0,.8-.2,1.42-.59,1.85s-.87.66-1.42.66-.98-.23-1.3-.69v.58ZM244.61,347.44c0,.56.08.96.23,1.21.25.41.59.61,1.01.61.35,0,.64-.15.9-.45.25-.3.38-.75.38-1.34s-.12-1.06-.36-1.35c-.24-.29-.53-.43-.88-.43s-.64.15-.9.45c-.25.3-.38.73-.38,1.3Z"/><path d="M248.6,347.47c0-.86.24-1.5.72-1.92.4-.35.89-.52,1.47-.52.64,0,1.17.21,1.57.63.41.42.61,1,.61,1.74,0,.6-.09,1.07-.27,1.42-.18.34-.44.61-.79.8s-.72.29-1.13.29c-.65,0-1.18-.21-1.58-.63-.4-.42-.6-1.02-.6-1.81ZM249.41,347.47c0,.6.13,1.05.39,1.34.26.3.59.45.98.45s.72-.15.98-.45.39-.75.39-1.37c0-.58-.13-1.01-.39-1.31-.26-.3-.59-.45-.98-.45s-.72.15-.98.44-.39.74-.39,1.34Z"/><path d="M255.2,349.81l-1.78-4.67h.83l1,2.79c.11.3.21.62.3.94.07-.25.17-.54.29-.89l1.04-2.85h.81l-1.77,4.67h-.74Z"/><path d="M261.59,348.3l.82.1c-.13.48-.37.85-.72,1.11s-.79.4-1.34.4c-.68,0-1.22-.21-1.62-.63-.4-.42-.6-1.01-.6-1.77s.2-1.39.61-1.83.93-.65,1.57-.65,1.13.21,1.53.64.59,1.02.59,1.79c0,.05,0,.12,0,.21h-3.48c.03.51.17.91.44,1.18s.59.41.98.41c.29,0,.54-.08.74-.23s.37-.4.49-.73ZM259,347.02h2.61c-.04-.39-.13-.69-.3-.88-.25-.3-.58-.46-.98-.46-.36,0-.67.12-.92.36s-.38.57-.41.98Z"/><path d="M266.77,349.81l-1.43-4.67h.82l.74,2.69.28,1s.09-.37.24-.96l.74-2.73h.81l.7,2.71.23.89.27-.9.8-2.7h.77l-1.46,4.67h-.82l-.74-2.79-.18-.8-.94,3.59h-.83Z"/><path d="M272.41,344.27v-.91h.79v.91h-.79ZM272.41,349.81v-4.67h.79v4.67h-.79Z"/><path d="M276.13,349.1l.11.7c-.22.05-.42.07-.6.07-.29,0-.51-.05-.67-.14s-.27-.21-.33-.36c-.06-.15-.1-.46-.1-.93v-2.68h-.58v-.62h.58v-1.16l.79-.47v1.63h.8v.62h-.8v2.73c0,.23.01.37.04.44s.07.12.14.15c.06.04.15.06.27.06.09,0,.2-.01.35-.03Z"/><path d="M276.9,349.81v-6.44h.79v2.31c.37-.43.83-.64,1.4-.64.35,0,.65.07.9.2.25.14.44.32.55.56.11.24.17.59.17,1.05v2.96h-.79v-2.96c0-.4-.09-.68-.26-.86-.17-.18-.41-.27-.73-.27-.23,0-.46.06-.66.18-.21.12-.35.29-.44.49s-.13.5-.13.86v2.55h-.79Z"/><path d="M287.46,349.23c-.29.25-.58.42-.85.53-.27.1-.56.15-.87.15-.51,0-.91-.12-1.18-.38-.28-.25-.41-.57-.41-.96,0-.23.05-.44.16-.63.1-.19.24-.34.41-.46s.36-.2.57-.26c.16-.04.39-.08.7-.12.64-.08,1.11-.17,1.41-.27,0-.11,0-.18,0-.21,0-.32-.07-.55-.22-.68-.2-.18-.5-.27-.9-.27-.37,0-.65.07-.82.2-.18.13-.31.36-.39.69l-.77-.11c.07-.33.19-.6.35-.8.16-.2.39-.36.7-.47.3-.11.66-.17,1.06-.17s.72.05.97.14.43.21.55.35c.12.14.2.32.25.54.03.13.04.38.04.73v1.05c0,.74.02,1.2.05,1.4.03.2.1.38.2.56h-.83c-.08-.16-.13-.36-.16-.58ZM287.39,347.46c-.29.12-.72.22-1.29.3-.33.05-.56.1-.69.16s-.24.14-.31.26c-.07.11-.11.24-.11.38,0,.21.08.39.24.53s.39.21.7.21.58-.07.81-.2c.24-.13.41-.32.52-.55.08-.18.13-.44.13-.79v-.29Z"/><path d="M291.92,351.59v-6.46h.72v.61c.17-.24.36-.42.58-.53.21-.12.47-.18.78-.18.4,0,.75.1,1.05.31s.53.49.69.87c.16.37.23.78.23,1.23,0,.48-.09.91-.26,1.29-.17.38-.42.68-.75.88s-.67.31-1.03.31c-.26,0-.5-.06-.71-.17s-.38-.25-.52-.42v2.27h-.79ZM292.63,347.5c0,.6.12,1.04.36,1.33s.54.43.88.43.65-.15.9-.45c.25-.3.38-.76.38-1.38s-.12-1.04-.37-1.34c-.25-.3-.54-.44-.88-.44s-.63.16-.89.47c-.26.32-.39.77-.39,1.37Z"/><path d="M296.91,349.81v-4.67h.71v.71c.18-.33.35-.55.5-.65.15-.11.32-.16.51-.16.27,0,.54.08.81.25l-.27.73c-.19-.11-.39-.17-.58-.17-.17,0-.33.05-.47.16-.14.1-.24.25-.29.43-.09.28-.13.59-.13.92v2.44h-.79Z"/><path d="M299.62,347.47c0-.86.24-1.5.72-1.92.4-.35.89-.52,1.47-.52.64,0,1.17.21,1.57.63.41.42.61,1,.61,1.74,0,.6-.09,1.07-.27,1.42-.18.34-.44.61-.79.8s-.72.29-1.13.29c-.65,0-1.18-.21-1.58-.63-.4-.42-.6-1.02-.6-1.81ZM300.44,347.47c0,.6.13,1.05.39,1.34.26.3.59.45.98.45s.72-.15.98-.45.39-.75.39-1.37c0-.58-.13-1.01-.39-1.31-.26-.3-.59-.45-.98-.45s-.72.15-.98.44-.39.74-.39,1.34Z"/><path d="M307.95,349.81v-.59c-.3.46-.73.69-1.31.69-.37,0-.71-.1-1.03-.31-.31-.21-.55-.49-.73-.86-.17-.37-.26-.79-.26-1.27s.08-.89.23-1.27c.16-.38.39-.67.7-.87s.66-.3,1.04-.3c.28,0,.53.06.75.18.22.12.4.27.54.46v-2.31h.79v6.44h-.73ZM305.45,347.48c0,.6.13,1.04.38,1.34s.55.44.89.44.64-.14.88-.42c.24-.28.36-.71.36-1.29,0-.64-.12-1.11-.37-1.41s-.55-.45-.91-.45-.65.14-.88.43c-.24.29-.35.74-.35,1.36Z"/><path d="M312.99,349.81v-.69c-.36.53-.86.79-1.48.79-.28,0-.53-.05-.77-.16s-.42-.24-.53-.4c-.12-.16-.2-.36-.24-.59-.03-.16-.05-.4-.05-.74v-2.89h.79v2.59c0,.41.02.69.05.83.05.21.16.37.32.49.16.12.36.18.6.18s.46-.06.67-.18c.21-.12.35-.29.44-.5.09-.21.13-.51.13-.91v-2.5h.79v4.67h-.71Z"/><path d="M317.98,348.1l.78.1c-.08.54-.3.96-.65,1.26-.35.3-.78.46-1.29.46-.64,0-1.15-.21-1.54-.63-.39-.42-.58-1.02-.58-1.8,0-.5.08-.94.25-1.32s.42-.66.76-.85c.34-.19.71-.28,1.11-.28.51,0,.92.13,1.24.38.32.26.53.62.62,1.09l-.77.12c-.07-.31-.2-.55-.39-.71s-.41-.24-.67-.24c-.4,0-.72.14-.97.43-.25.29-.37.74-.37,1.36s.12,1.08.36,1.37.55.43.94.43c.31,0,.57-.1.78-.29s.34-.48.4-.88Z"/><path d="M321.16,349.1l.11.7c-.22.05-.42.07-.6.07-.29,0-.51-.05-.67-.14s-.27-.21-.33-.36c-.06-.15-.1-.46-.1-.93v-2.68h-.58v-.62h.58v-1.16l.79-.47v1.63h.8v.62h-.8v2.73c0,.23.01.37.04.44s.07.12.14.15c.06.04.15.06.27.06.09,0,.2-.01.35-.03Z"/><path d="M324.44,351.59v-6.46h.72v.61c.17-.24.36-.42.58-.53.21-.12.47-.18.78-.18.4,0,.75.1,1.05.31s.53.49.69.87c.16.37.23.78.23,1.23,0,.48-.09.91-.26,1.29-.17.38-.42.68-.75.88s-.67.31-1.03.31c-.26,0-.5-.06-.71-.17s-.38-.25-.52-.42v2.27h-.79ZM325.15,347.5c0,.6.12,1.04.36,1.33s.54.43.88.43.65-.15.9-.45c.25-.3.38-.76.38-1.38s-.12-1.04-.37-1.34c-.25-.3-.54-.44-.88-.44s-.63.16-.89.47c-.26.32-.39.77-.39,1.37Z"/><path d="M329.44,349.81v-6.44h.79v2.31c.37-.43.83-.64,1.4-.64.35,0,.65.07.9.2.25.14.44.32.55.56.11.24.17.59.17,1.05v2.96h-.79v-2.96c0-.4-.09-.68-.26-.86-.17-.18-.41-.27-.73-.27-.23,0-.46.06-.66.18-.21.12-.35.29-.44.49s-.13.5-.13.86v2.55h-.79Z"/><path d="M334.15,347.47c0-.86.24-1.5.72-1.92.4-.35.89-.52,1.47-.52.64,0,1.17.21,1.57.63.41.42.61,1,.61,1.74,0,.6-.09,1.07-.27,1.42-.18.34-.44.61-.79.8s-.72.29-1.13.29c-.65,0-1.18-.21-1.58-.63-.4-.42-.6-1.02-.6-1.81ZM334.97,347.47c0,.6.13,1.05.39,1.34.26.3.59.45.98.45s.72-.15.98-.45.39-.75.39-1.37c0-.58-.13-1.01-.39-1.31-.26-.3-.59-.45-.98-.45s-.72.15-.98.44-.39.74-.39,1.34Z"/><path d="M341.18,349.1l.11.7c-.22.05-.42.07-.6.07-.29,0-.51-.05-.67-.14s-.27-.21-.33-.36c-.06-.15-.1-.46-.1-.93v-2.68h-.58v-.62h.58v-1.16l.79-.47v1.63h.8v.62h-.8v2.73c0,.23.01.37.04.44s.07.12.14.15c.06.04.15.06.27.06.09,0,.2-.01.35-.03Z"/><path d="M341.66,347.47c0-.86.24-1.5.72-1.92.4-.35.89-.52,1.47-.52.64,0,1.17.21,1.57.63.41.42.61,1,.61,1.74,0,.6-.09,1.07-.27,1.42-.18.34-.44.61-.79.8s-.72.29-1.13.29c-.65,0-1.18-.21-1.58-.63-.4-.42-.6-1.02-.6-1.81ZM342.47,347.47c0,.6.13,1.05.39,1.34.26.3.59.45.98.45s.72-.15.98-.45.39-.75.39-1.37c0-.58-.13-1.01-.39-1.31-.26-.3-.59-.45-.98-.45s-.72.15-.98.44-.39.74-.39,1.34Z"/><path d="M351.19,349.1l.11.7c-.22.05-.42.07-.6.07-.29,0-.51-.05-.67-.14s-.27-.21-.33-.36c-.06-.15-.1-.46-.1-.93v-2.68h-.58v-.62h.58v-1.16l.79-.47v1.63h.8v.62h-.8v2.73c0,.23.01.37.04.44s.07.12.14.15c.06.04.15.06.27.06.09,0,.2-.01.35-.03Z"/><path d="M351.66,347.47c0-.86.24-1.5.72-1.92.4-.35.89-.52,1.47-.52.64,0,1.17.21,1.57.63.41.42.61,1,.61,1.74,0,.6-.09,1.07-.27,1.42-.18.34-.44.61-.79.8s-.72.29-1.13.29c-.65,0-1.18-.21-1.58-.63-.4-.42-.6-1.02-.6-1.81ZM352.48,347.47c0,.6.13,1.05.39,1.34.26.3.59.45.98.45s.72-.15.98-.45.39-.75.39-1.37c0-.58-.13-1.01-.39-1.31-.26-.3-.59-.45-.98-.45s-.72.15-.98.44-.39.74-.39,1.34Z"/><path d="M362.51,348.1l.78.1c-.08.54-.3.96-.65,1.26-.35.3-.78.46-1.29.46-.64,0-1.15-.21-1.54-.63-.39-.42-.58-1.02-.58-1.8,0-.5.08-.94.25-1.32s.42-.66.76-.85c.34-.19.71-.28,1.11-.28.51,0,.92.13,1.24.38.32.26.53.62.62,1.09l-.77.12c-.07-.31-.2-.55-.39-.71s-.41-.24-.67-.24c-.4,0-.72.14-.97.43-.25.29-.37.74-.37,1.36s.12,1.08.36,1.37.55.43.94.43c.31,0,.57-.1.78-.29s.34-.48.4-.88Z"/><path d="M367.01,349.23c-.29.25-.58.42-.85.53-.27.1-.56.15-.87.15-.51,0-.91-.12-1.18-.38-.28-.25-.41-.57-.41-.96,0-.23.05-.44.16-.63.1-.19.24-.34.41-.46s.36-.2.57-.26c.16-.04.39-.08.7-.12.64-.08,1.11-.17,1.41-.27,0-.11,0-.18,0-.21,0-.32-.07-.55-.22-.68-.2-.18-.5-.27-.9-.27-.37,0-.65.07-.82.2-.18.13-.31.36-.39.69l-.77-.11c.07-.33.19-.6.35-.8.16-.2.39-.36.7-.47.3-.11.66-.17,1.06-.17s.72.05.97.14.43.21.55.35c.12.14.2.32.25.54.03.13.04.38.04.73v1.05c0,.74.02,1.2.05,1.4.03.2.1.38.2.56h-.83c-.08-.16-.13-.36-.16-.58ZM366.94,347.46c-.29.12-.72.22-1.29.3-.33.05-.56.1-.69.16s-.24.14-.31.26c-.07.11-.11.24-.11.38,0,.21.08.39.24.53s.39.21.7.21.58-.07.81-.2c.24-.13.41-.32.52-.55.08-.18.13-.44.13-.79v-.29Z"/><path d="M370.7,349.1l.11.7c-.22.05-.42.07-.6.07-.29,0-.51-.05-.67-.14s-.27-.21-.33-.36c-.06-.15-.1-.46-.1-.93v-2.68h-.58v-.62h.58v-1.16l.79-.47v1.63h.8v.62h-.8v2.73c0,.23.01.37.04.44s.07.12.14.15c.06.04.15.06.27.06.09,0,.2-.01.35-.03Z"/><path d="M374.52,348.1l.78.1c-.08.54-.3.96-.65,1.26-.35.3-.78.46-1.29.46-.64,0-1.15-.21-1.54-.63-.39-.42-.58-1.02-.58-1.8,0-.5.08-.94.25-1.32s.42-.66.76-.85c.34-.19.71-.28,1.11-.28.51,0,.92.13,1.24.38.32.26.53.62.62,1.09l-.77.12c-.07-.31-.2-.55-.39-.71s-.41-.24-.67-.24c-.4,0-.72.14-.97.43-.25.29-.37.74-.37,1.36s.12,1.08.36,1.37.55.43.94.43c.31,0,.57-.1.78-.29s.34-.48.4-.88Z"/><path d="M375.97,349.81v-6.44h.79v2.31c.37-.43.83-.64,1.4-.64.35,0,.65.07.9.2.25.14.44.32.55.56.11.24.17.59.17,1.05v2.96h-.79v-2.96c0-.4-.09-.68-.26-.86-.17-.18-.41-.27-.73-.27-.23,0-.46.06-.66.18-.21.12-.35.29-.44.49s-.13.5-.13.86v2.55h-.79Z"/><path d="M206.75,362.39v-6.46h.72v.61c.17-.24.36-.42.58-.53.21-.12.47-.18.78-.18.4,0,.75.1,1.05.31s.53.49.69.87c.16.37.23.78.23,1.23,0,.48-.09.91-.26,1.29-.17.38-.42.68-.75.88s-.67.31-1.03.31c-.26,0-.5-.06-.71-.17s-.38-.25-.52-.42v2.27h-.79ZM207.47,358.3c0,.6.12,1.04.36,1.33s.54.43.88.43.65-.15.9-.45c.25-.3.38-.76.38-1.38s-.12-1.04-.37-1.34c-.25-.3-.54-.44-.88-.44s-.63.16-.89.47c-.26.32-.39.77-.39,1.37Z"/><path d="M214.95,359.1l.82.1c-.13.48-.37.85-.72,1.11s-.79.4-1.34.4c-.68,0-1.22-.21-1.62-.63-.4-.42-.6-1.01-.6-1.77s.2-1.39.61-1.83.93-.65,1.57-.65,1.13.21,1.53.64.59,1.02.59,1.79c0,.05,0,.12,0,.21h-3.48c.03.51.17.91.44,1.18s.59.41.98.41c.29,0,.54-.08.74-.23s.37-.4.49-.73ZM212.36,357.82h2.61c-.04-.39-.13-.69-.3-.88-.25-.3-.58-.46-.98-.46-.36,0-.67.12-.92.36s-.38.57-.41.98Z"/><path d="M216.47,358.27c0-.86.24-1.5.72-1.92.4-.35.89-.52,1.47-.52.64,0,1.17.21,1.57.63.41.42.61,1,.61,1.74,0,.6-.09,1.07-.27,1.42-.18.34-.44.61-.79.8s-.72.29-1.13.29c-.65,0-1.18-.21-1.58-.63-.4-.42-.6-1.02-.6-1.81ZM217.28,358.27c0,.6.13,1.05.39,1.34.26.3.59.45.98.45s.72-.15.98-.45.39-.75.39-1.37c0-.58-.13-1.01-.39-1.31-.26-.3-.59-.45-.98-.45s-.72.15-.98.44-.39.74-.39,1.34Z"/><path d="M221.77,362.39v-6.46h.72v.61c.17-.24.36-.42.58-.53.21-.12.47-.18.78-.18.4,0,.75.1,1.05.31s.53.49.69.87c.16.37.23.78.23,1.23,0,.48-.09.91-.26,1.29-.17.38-.42.68-.75.88s-.67.31-1.03.31c-.26,0-.5-.06-.71-.17s-.38-.25-.52-.42v2.27h-.79ZM222.49,358.3c0,.6.12,1.04.36,1.33s.54.43.88.43.65-.15.9-.45c.25-.3.38-.76.38-1.38s-.12-1.04-.37-1.34c-.25-.3-.54-.44-.88-.44s-.63.16-.89.47c-.26.32-.39.77-.39,1.37Z"/><path d="M226.76,360.61v-6.44h.79v6.44h-.79Z"/><path d="M231.97,359.1l.82.1c-.13.48-.37.85-.72,1.11s-.79.4-1.34.4c-.68,0-1.22-.21-1.62-.63-.4-.42-.6-1.01-.6-1.77s.2-1.39.61-1.83.93-.65,1.57-.65,1.13.21,1.53.64.59,1.02.59,1.79c0,.05,0,.12,0,.21h-3.48c.03.51.17.91.44,1.18s.59.41.98.41c.29,0,.54-.08.74-.23s.37-.4.49-.73ZM229.37,357.82h2.61c-.04-.39-.13-.69-.3-.88-.25-.3-.58-.46-.98-.46-.36,0-.67.12-.92.36s-.38.57-.41.98Z"/><path d="M233.79,356.44l-.2-1.2v-1.08h.9v1.08l-.21,1.2h-.49Z"/><path d="M235.18,359.21l.78-.12c.04.31.17.55.37.72s.48.25.84.25.63-.07.81-.22c.18-.15.26-.32.26-.52,0-.18-.08-.32-.23-.42-.11-.07-.38-.16-.81-.27-.58-.15-.98-.27-1.21-.38-.22-.11-.39-.25-.51-.44-.12-.19-.17-.4-.17-.63,0-.21.05-.4.14-.58.09-.18.22-.32.39-.44.12-.09.29-.17.5-.23.21-.06.44-.09.68-.09.37,0,.69.05.96.16.28.11.48.25.61.43.13.18.22.42.27.72l-.77.11c-.04-.24-.14-.43-.31-.56-.17-.13-.41-.2-.71-.2-.36,0-.62.06-.78.18s-.23.26-.23.42c0,.1.03.2.1.28.06.08.17.16.3.21.08.03.31.1.7.2.56.15.95.27,1.17.37.22.09.39.23.52.42s.19.41.19.68-.08.51-.23.75c-.15.23-.38.41-.67.54-.29.13-.62.19-.98.19-.61,0-1.07-.13-1.39-.38-.32-.25-.52-.63-.61-1.12Z"/><path d="M245.55,360.03c-.29.25-.58.42-.85.53-.27.1-.56.15-.87.15-.51,0-.91-.12-1.18-.38-.28-.25-.41-.57-.41-.96,0-.23.05-.44.16-.63.1-.19.24-.34.41-.46s.36-.2.57-.26c.16-.04.39-.08.7-.12.64-.08,1.11-.17,1.41-.27,0-.11,0-.18,0-.21,0-.32-.07-.55-.22-.68-.2-.18-.5-.27-.9-.27-.37,0-.65.07-.82.2-.18.13-.31.36-.39.69l-.77-.11c.07-.33.19-.6.35-.8.16-.2.39-.36.7-.47.3-.11.66-.17,1.06-.17s.72.05.97.14.43.21.55.35c.12.14.2.32.25.54.03.13.04.38.04.73v1.05c0,.74.02,1.2.05,1.4.03.2.1.38.2.56h-.83c-.08-.16-.13-.36-.16-.58ZM245.48,358.26c-.29.12-.72.22-1.29.3-.33.05-.56.1-.69.16s-.24.14-.31.26c-.07.11-.11.24-.11.38,0,.21.08.39.24.53s.39.21.7.21.58-.07.81-.2c.24-.13.41-.32.52-.55.08-.18.13-.44.13-.79v-.29Z"/><path d="M249.23,359.9l.11.7c-.22.05-.42.07-.6.07-.29,0-.51-.05-.67-.14s-.27-.21-.33-.36c-.06-.15-.1-.46-.1-.93v-2.68h-.58v-.62h.58v-1.16l.79-.47v1.63h.8v.62h-.8v2.73c0,.23.01.37.04.44s.07.12.14.15c.06.04.15.06.27.06.09,0,.2-.01.35-.03Z"/><path d="M251.73,359.9l.11.7c-.22.05-.42.07-.6.07-.29,0-.51-.05-.67-.14s-.27-.21-.33-.36c-.06-.15-.1-.46-.1-.93v-2.68h-.58v-.62h.58v-1.16l.79-.47v1.63h.8v.62h-.8v2.73c0,.23.01.37.04.44s.07.12.14.15c.06.04.15.06.27.06.09,0,.2-.01.35-.03Z"/><path d="M255.7,359.1l.82.1c-.13.48-.37.85-.72,1.11s-.79.4-1.34.4c-.68,0-1.22-.21-1.62-.63-.4-.42-.6-1.01-.6-1.77s.2-1.39.61-1.83.93-.65,1.57-.65,1.13.21,1.53.64.59,1.02.59,1.79c0,.05,0,.12,0,.21h-3.48c.03.51.17.91.44,1.18s.59.41.98.41c.29,0,.54-.08.74-.23s.37-.4.49-.73ZM253.1,357.82h2.61c-.04-.39-.13-.69-.3-.88-.25-.3-.58-.46-.98-.46-.36,0-.67.12-.92.36s-.38.57-.41.98Z"/><path d="M257.51,360.61v-4.67h.71v.66c.34-.51.84-.77,1.49-.77.28,0,.54.05.78.15.24.1.41.23.53.4s.2.36.25.58c.03.15.04.4.04.77v2.87h-.79v-2.84c0-.32-.03-.56-.09-.72-.06-.16-.17-.29-.33-.38-.16-.09-.34-.14-.55-.14-.34,0-.63.11-.87.32s-.37.62-.37,1.22v2.55h-.79Z"/><path d="M264.24,359.9l.11.7c-.22.05-.42.07-.6.07-.29,0-.51-.05-.67-.14s-.27-.21-.33-.36c-.06-.15-.1-.46-.1-.93v-2.68h-.58v-.62h.58v-1.16l.79-.47v1.63h.8v.62h-.8v2.73c0,.23.01.37.04.44s.07.12.14.15c.06.04.15.06.27.06.09,0,.2-.01.35-.03Z"/><path d="M265.02,355.07v-.91h.79v.91h-.79ZM265.02,360.61v-4.67h.79v4.67h-.79Z"/><path d="M266.72,358.27c0-.86.24-1.5.72-1.92.4-.35.89-.52,1.47-.52.64,0,1.17.21,1.57.63.41.42.61,1,.61,1.74,0,.6-.09,1.07-.27,1.42-.18.34-.44.61-.79.8s-.72.29-1.13.29c-.65,0-1.18-.21-1.58-.63-.4-.42-.6-1.02-.6-1.81ZM267.54,358.27c0,.6.13,1.05.39,1.34.26.3.59.45.98.45s.72-.15.98-.45.39-.75.39-1.37c0-.58-.13-1.01-.39-1.31-.26-.3-.59-.45-.98-.45s-.72.15-.98.44-.39.74-.39,1.34Z"/><path d="M272.02,360.61v-4.67h.71v.66c.34-.51.84-.77,1.49-.77.28,0,.54.05.78.15.24.1.41.23.53.4s.2.36.25.58c.03.15.04.4.04.77v2.87h-.79v-2.84c0-.32-.03-.56-.09-.72-.06-.16-.17-.29-.33-.38-.16-.09-.34-.14-.55-.14-.34,0-.63.11-.87.32s-.37.62-.37,1.22v2.55h-.79Z"/><path d="M277.25,360.61v-.9h.9v.9h-.9Z"/><path d="M98.51,382.16v-6.44h2.22c.5,0,.88.03,1.15.09.37.08.68.24.94.46.34.29.59.65.76,1.1.17.45.25.96.25,1.53,0,.49-.06.92-.17,1.3s-.26.69-.44.94c-.18.25-.37.44-.59.58-.21.14-.47.25-.77.32s-.65.11-1.03.11h-2.32ZM99.36,381.4h1.38c.42,0,.76-.04,1-.12.24-.08.43-.19.58-.33.2-.2.36-.47.47-.82.11-.34.17-.75.17-1.24,0-.67-.11-1.19-.33-1.55-.22-.36-.49-.6-.81-.73-.23-.09-.6-.13-1.1-.13h-1.35v4.92Z"/><path d="M108.1,380.66l.82.1c-.13.48-.37.85-.72,1.11s-.79.4-1.34.4c-.68,0-1.22-.21-1.62-.63-.4-.42-.6-1.01-.6-1.77s.2-1.39.61-1.83.93-.65,1.57-.65,1.13.21,1.53.64.59,1.02.59,1.79c0,.05,0,.12,0,.21h-3.48c.03.51.17.91.44,1.18s.59.41.98.41c.29,0,.54-.08.74-.23s.37-.4.49-.73ZM105.5,379.38h2.61c-.04-.39-.13-.69-.3-.88-.25-.3-.58-.46-.98-.46-.36,0-.67.12-.92.37s-.38.57-.41.98Z"/><path d="M109.59,380.77l.78-.12c.04.31.17.55.37.72s.48.25.84.25.63-.07.81-.22c.18-.15.26-.32.26-.52,0-.18-.08-.32-.23-.42-.11-.07-.38-.16-.81-.27-.58-.15-.98-.27-1.21-.38-.22-.11-.39-.25-.51-.44-.12-.19-.17-.4-.17-.63,0-.21.05-.4.14-.58.09-.18.22-.32.39-.44.12-.09.29-.17.5-.23.21-.06.44-.09.68-.09.37,0,.69.05.96.16.28.11.48.25.61.43.13.18.22.42.27.72l-.77.11c-.04-.24-.14-.43-.31-.56-.17-.13-.41-.2-.71-.2-.36,0-.62.06-.78.18s-.23.26-.23.42c0,.1.03.19.1.28.06.08.17.16.3.21.08.03.31.1.7.2.56.15.95.27,1.17.37.22.1.39.23.52.42s.19.41.19.68-.08.51-.23.75c-.15.23-.38.41-.67.54-.29.13-.62.19-.98.19-.61,0-1.07-.13-1.39-.38-.32-.25-.52-.62-.61-1.12Z"/><path d="M117.45,380.45l.78.1c-.08.54-.3.96-.65,1.26-.35.3-.78.46-1.29.46-.64,0-1.15-.21-1.54-.63-.39-.42-.58-1.02-.58-1.79,0-.5.08-.95.25-1.32s.42-.66.76-.85c.34-.19.71-.28,1.11-.28.51,0,.92.13,1.24.38.32.26.53.62.62,1.09l-.77.12c-.07-.31-.2-.55-.39-.71s-.41-.24-.67-.24c-.4,0-.72.14-.97.43-.25.29-.37.74-.37,1.36s.12,1.08.36,1.37.55.43.94.43c.31,0,.57-.09.78-.29s.34-.48.4-.88Z"/><path d="M118.9,382.16v-4.67h.71v.71c.18-.33.35-.55.5-.66.15-.11.32-.16.51-.16.27,0,.54.08.81.25l-.27.73c-.19-.11-.39-.17-.58-.17-.17,0-.33.05-.47.16-.14.1-.24.25-.29.43-.09.28-.13.59-.13.92v2.44h-.79Z"/><path d="M121.91,376.63v-.91h.79v.91h-.79ZM121.91,382.16v-4.67h.79v4.67h-.79Z"/><path d="M124.64,382.16h-.73v-6.44h.79v2.3c.33-.42.76-.63,1.28-.63.29,0,.56.06.81.17.26.12.47.28.63.49.17.21.3.46.39.76s.14.61.14.95c0,.8-.2,1.42-.59,1.85s-.87.65-1.42.65-.98-.23-1.3-.69v.58ZM124.63,379.79c0,.56.08.96.23,1.21.25.41.59.61,1.01.61.35,0,.64-.15.9-.45.25-.3.38-.75.38-1.34s-.12-1.06-.36-1.35c-.24-.29-.53-.44-.88-.44s-.64.15-.9.45c-.25.3-.38.74-.38,1.3Z"/><path d="M132.11,380.66l.82.1c-.13.48-.37.85-.72,1.11s-.79.4-1.34.4c-.68,0-1.22-.21-1.62-.63-.4-.42-.6-1.01-.6-1.77s.2-1.39.61-1.83.93-.65,1.57-.65,1.13.21,1.53.64.59,1.02.59,1.79c0,.05,0,.12,0,.21h-3.48c.03.51.17.91.44,1.18s.59.41.98.41c.29,0,.54-.08.74-.23s.37-.4.49-.73ZM129.51,379.38h2.61c-.04-.39-.13-.69-.3-.88-.25-.3-.58-.46-.98-.46-.36,0-.67.12-.92.37s-.38.57-.41.98Z"/><path d="M137.28,382.16l-1.43-4.67h.82l.74,2.69.28,1s.09-.37.24-.96l.74-2.73h.81l.7,2.71.23.89.27-.9.8-2.7h.77l-1.46,4.67h-.82l-.74-2.79-.18-.79-.94,3.59h-.83Z"/><path d="M142.92,382.16v-6.44h.79v2.31c.37-.43.83-.64,1.4-.64.35,0,.65.07.9.2.25.14.44.33.55.57.11.24.17.59.17,1.05v2.96h-.79v-2.96c0-.4-.09-.68-.26-.86-.17-.18-.41-.27-.73-.27-.23,0-.46.06-.66.18-.21.12-.35.29-.44.5s-.13.5-.13.86v2.55h-.79Z"/><path d="M150.97,381.58c-.29.25-.58.42-.85.53-.27.1-.56.15-.87.15-.51,0-.91-.12-1.18-.38-.28-.25-.41-.57-.41-.96,0-.23.05-.44.16-.63.1-.19.24-.34.41-.46s.36-.2.57-.26c.16-.04.39-.08.7-.12.64-.08,1.11-.17,1.41-.27,0-.11,0-.18,0-.21,0-.32-.07-.55-.22-.68-.2-.18-.5-.27-.9-.27-.37,0-.65.07-.82.2-.18.13-.31.36-.39.69l-.77-.11c.07-.33.19-.6.35-.8.16-.2.39-.36.7-.47.3-.11.66-.17,1.06-.17s.72.05.97.14.43.21.55.35c.12.14.2.32.25.54.03.13.04.38.04.73v1.05c0,.74.02,1.2.05,1.39.03.2.1.38.2.56h-.83c-.08-.16-.13-.36-.16-.58ZM150.9,379.82c-.29.12-.72.22-1.29.3-.33.05-.56.1-.69.16s-.24.14-.31.26c-.07.11-.11.24-.11.38,0,.21.08.39.24.53s.39.21.7.21.58-.07.81-.2c.24-.13.41-.32.52-.55.08-.18.13-.44.13-.79v-.29Z"/><path d="M154.65,381.45l.11.7c-.22.05-.42.07-.6.07-.29,0-.51-.04-.67-.14s-.27-.21-.33-.36c-.06-.15-.1-.46-.1-.93v-2.69h-.58v-.62h.58v-1.16l.79-.47v1.63h.8v.62h-.8v2.73c0,.23.01.37.04.43s.07.12.14.15c.06.04.15.06.27.06.09,0,.2,0,.35-.03Z"/><path d="M157.93,382.16v-4.67h.71v.66c.15-.23.34-.41.58-.55.24-.14.52-.21.83-.21.35,0,.63.07.85.22.22.14.38.34.47.6.37-.54.85-.82,1.44-.82.46,0,.82.13,1.07.38.25.26.37.65.37,1.18v3.2h-.79v-2.94c0-.32-.03-.54-.08-.68-.05-.14-.14-.25-.28-.34s-.29-.13-.47-.13c-.33,0-.6.11-.82.33-.22.22-.33.57-.33,1.05v2.71h-.79v-3.03c0-.35-.06-.62-.19-.79s-.34-.26-.63-.26c-.22,0-.43.06-.62.18-.19.12-.33.29-.41.51s-.13.55-.13.98v2.42h-.79Z"/><path d="M168.47,381.58c-.29.25-.58.42-.85.53-.27.1-.56.15-.87.15-.51,0-.91-.12-1.18-.38-.28-.25-.41-.57-.41-.96,0-.23.05-.44.16-.63.1-.19.24-.34.41-.46s.36-.2.57-.26c.16-.04.39-.08.7-.12.64-.08,1.11-.17,1.41-.27,0-.11,0-.18,0-.21,0-.32-.07-.55-.22-.68-.2-.18-.5-.27-.9-.27-.37,0-.65.07-.82.2-.18.13-.31.36-.39.69l-.77-.11c.07-.33.19-.6.35-.8.16-.2.39-.36.7-.47.3-.11.66-.17,1.06-.17s.72.05.97.14.43.21.55.35c.12.14.2.32.25.54.03.13.04.38.04.73v1.05c0,.74.02,1.2.05,1.39.03.2.1.38.2.56h-.83c-.08-.16-.13-.36-.16-.58ZM168.4,379.82c-.29.12-.72.22-1.29.3-.33.05-.56.1-.69.16s-.24.14-.31.26c-.07.11-.11.24-.11.38,0,.21.08.39.24.53s.39.21.7.21.58-.07.81-.2c.24-.13.41-.32.52-.55.08-.18.13-.44.13-.79v-.29Z"/><path d="M170.43,382.16v-6.44h.79v3.67l1.87-1.9h1.02l-1.78,1.73,1.96,2.94h-.98l-1.54-2.39-.56.54v1.85h-.79Z"/><path d="M178.13,380.66l.82.1c-.13.48-.37.85-.72,1.11s-.79.4-1.34.4c-.68,0-1.22-.21-1.62-.63-.4-.42-.6-1.01-.6-1.77s.2-1.39.61-1.83.93-.65,1.57-.65,1.13.21,1.53.64.59,1.02.59,1.79c0,.05,0,.12,0,.21h-3.48c.03.51.17.91.44,1.18s.59.41.98.41c.29,0,.54-.08.74-.23s.37-.4.49-.73ZM175.53,379.38h2.61c-.04-.39-.13-.69-.3-.88-.25-.3-.58-.46-.98-.46-.36,0-.67.12-.92.37s-.38.57-.41.98Z"/><path d="M179.62,380.77l.78-.12c.04.31.17.55.37.72s.48.25.84.25.63-.07.81-.22c.18-.15.26-.32.26-.52,0-.18-.08-.32-.23-.42-.11-.07-.38-.16-.81-.27-.58-.15-.98-.27-1.21-.38-.22-.11-.39-.25-.51-.44-.12-.19-.17-.4-.17-.63,0-.21.05-.4.14-.58.09-.18.22-.32.39-.44.12-.09.29-.17.5-.23.21-.06.44-.09.68-.09.37,0,.69.05.96.16.28.11.48.25.61.43.13.18.22.42.27.72l-.77.11c-.04-.24-.14-.43-.31-.56-.17-.13-.41-.2-.71-.2-.36,0-.62.06-.78.18s-.23.26-.23.42c0,.1.03.19.1.28.06.08.17.16.3.21.08.03.31.1.7.2.56.15.95.27,1.17.37.22.1.39.23.52.42s.19.41.19.68-.08.51-.23.75c-.15.23-.38.41-.67.54-.29.13-.62.19-.98.19-.61,0-1.07-.13-1.39-.38-.32-.25-.52-.62-.61-1.12Z"/><path d="M186.9,383.96l-.09-.74c.17.05.32.07.45.07.18,0,.32-.03.42-.09s.19-.14.26-.25c.05-.08.13-.28.24-.59.01-.04.04-.11.07-.19l-1.77-4.68h.85l.97,2.7c.13.34.24.7.34,1.08.09-.36.2-.72.33-1.06l1-2.72h.79l-1.78,4.75c-.19.51-.34.87-.44,1.06-.14.26-.3.45-.48.57-.18.12-.4.18-.65.18-.15,0-.32-.03-.51-.1Z"/><path d="M191.14,379.83c0-.86.24-1.5.72-1.92.4-.35.89-.52,1.47-.52.64,0,1.17.21,1.57.63.41.42.61,1,.61,1.74,0,.6-.09,1.07-.27,1.42-.18.34-.44.61-.79.8s-.72.29-1.13.29c-.65,0-1.18-.21-1.58-.63-.4-.42-.6-1.02-.6-1.81ZM191.95,379.83c0,.6.13,1.04.39,1.34.26.3.59.45.98.45s.72-.15.98-.45.39-.75.39-1.37c0-.58-.13-1.01-.39-1.31-.26-.3-.59-.45-.98-.45s-.72.15-.98.44-.39.74-.39,1.34Z"/><path d="M199.5,382.16v-.69c-.36.53-.86.79-1.48.79-.28,0-.53-.05-.77-.16s-.42-.24-.53-.4c-.12-.16-.2-.36-.24-.59-.03-.16-.05-.4-.05-.74v-2.89h.79v2.59c0,.41.02.69.05.83.05.21.16.37.32.49.16.12.36.18.6.18s.46-.06.67-.18c.21-.12.35-.29.44-.5.09-.21.13-.51.13-.91v-2.5h.79v4.67h-.71Z"/><path d="M201.44,382.16v-4.67h.71v.71c.18-.33.35-.55.5-.66.15-.11.32-.16.51-.16.27,0,.54.08.81.25l-.27.73c-.19-.11-.39-.17-.58-.17-.17,0-.33.05-.47.16-.14.1-.24.25-.29.43-.09.28-.13.59-.13.92v2.44h-.79Z"/><path d="M206.94,383.95v-6.46h.72v.61c.17-.24.36-.42.58-.53.21-.12.47-.18.78-.18.4,0,.75.1,1.05.31s.53.49.69.87c.16.37.23.78.23,1.23,0,.48-.09.91-.26,1.29-.17.38-.42.68-.75.88-.33.2-.67.31-1.03.31-.26,0-.5-.06-.71-.17s-.38-.25-.52-.42v2.27h-.79ZM207.66,379.85c0,.6.12,1.04.36,1.33s.54.43.88.43.65-.15.9-.45c.25-.3.38-.76.38-1.38s-.12-1.04-.37-1.34c-.25-.3-.54-.44-.88-.44s-.63.16-.89.47c-.26.32-.39.77-.39,1.37Z"/><path d="M211.94,382.16v-4.67h.71v.71c.18-.33.35-.55.5-.66.15-.11.32-.16.51-.16.27,0,.54.08.81.25l-.27.73c-.19-.11-.39-.17-.58-.17-.17,0-.33.05-.47.16-.14.1-.24.25-.29.43-.09.28-.13.59-.13.92v2.44h-.79Z"/><path d="M214.65,379.83c0-.86.24-1.5.72-1.92.4-.35.89-.52,1.47-.52.64,0,1.17.21,1.57.63.41.42.61,1,.61,1.74,0,.6-.09,1.07-.27,1.42-.18.34-.44.61-.79.8s-.72.29-1.13.29c-.65,0-1.18-.21-1.58-.63-.4-.42-.6-1.02-.6-1.81ZM215.47,379.83c0,.6.13,1.04.39,1.34.26.3.59.45.98.45s.72-.15.98-.45.39-.75.39-1.37c0-.58-.13-1.01-.39-1.31-.26-.3-.59-.45-.98-.45s-.72.15-.98.44-.39.74-.39,1.34Z"/><path d="M222.98,382.16v-.59c-.3.46-.73.69-1.31.69-.37,0-.71-.1-1.03-.31-.31-.21-.55-.49-.73-.86-.17-.37-.26-.79-.26-1.27s.08-.89.23-1.27c.16-.38.39-.67.7-.87s.66-.3,1.04-.3c.28,0,.53.06.75.18.22.12.4.27.54.46v-2.31h.79v6.44h-.73ZM220.48,379.83c0,.6.13,1.04.38,1.34s.55.44.89.44.64-.14.88-.42c.24-.28.36-.71.36-1.29,0-.64-.12-1.11-.37-1.41s-.55-.45-.91-.45-.65.14-.88.43c-.24.29-.35.74-.35,1.36Z"/><path d="M228.02,382.16v-.69c-.36.53-.86.79-1.48.79-.28,0-.53-.05-.77-.16s-.42-.24-.53-.4c-.12-.16-.2-.36-.24-.59-.03-.16-.05-.4-.05-.74v-2.89h.79v2.59c0,.41.02.69.05.83.05.21.16.37.32.49.16.12.36.18.6.18s.46-.06.67-.18c.21-.12.35-.29.44-.5.09-.21.13-.51.13-.91v-2.5h.79v4.67h-.71Z"/><path d="M233.01,380.45l.78.1c-.08.54-.3.96-.65,1.26-.35.3-.78.46-1.29.46-.64,0-1.15-.21-1.54-.63-.39-.42-.58-1.02-.58-1.79,0-.5.08-.95.25-1.32s.42-.66.76-.85c.34-.19.71-.28,1.11-.28.51,0,.92.13,1.24.38.32.26.53.62.62,1.09l-.77.12c-.07-.31-.2-.55-.39-.71s-.41-.24-.67-.24c-.4,0-.72.14-.97.43-.25.29-.37.74-.37,1.36s.12,1.08.36,1.37.55.43.94.43c.31,0,.57-.09.78-.29s.34-.48.4-.88Z"/><path d="M236.19,381.45l.11.7c-.22.05-.42.07-.6.07-.29,0-.51-.04-.67-.14s-.27-.21-.33-.36c-.06-.15-.1-.46-.1-.93v-2.69h-.58v-.62h.58v-1.16l.79-.47v1.63h.8v.62h-.8v2.73c0,.23.01.37.04.43s.07.12.14.15c.06.04.15.06.27.06.09,0,.2,0,.35-.03Z"/><path d="M242.52,382.16v-.69c-.36.53-.86.79-1.48.79-.28,0-.53-.05-.77-.16s-.42-.24-.53-.4c-.12-.16-.2-.36-.24-.59-.03-.16-.05-.4-.05-.74v-2.89h.79v2.59c0,.41.02.69.05.83.05.21.16.37.32.49.16.12.36.18.6.18s.46-.06.67-.18c.21-.12.35-.29.44-.5.09-.21.13-.51.13-.91v-2.5h.79v4.67h-.71Z"/><path d="M244.47,382.16v-4.67h.71v.66c.34-.51.84-.77,1.49-.77.28,0,.54.05.78.15.24.1.41.23.53.4s.2.36.25.58c.03.15.04.4.04.77v2.87h-.79v-2.84c0-.32-.03-.56-.09-.72-.06-.16-.17-.29-.33-.38-.16-.09-.34-.14-.55-.14-.34,0-.63.11-.87.32s-.37.62-.37,1.22v2.55h-.79Z"/><path d="M249.48,376.63v-.91h.79v.91h-.79ZM249.48,382.16v-4.67h.79v4.67h-.79Z"/><path d="M254.45,383.95v-2.29c-.12.17-.3.32-.52.43s-.46.17-.71.17c-.55,0-1.03-.22-1.43-.66-.4-.44-.6-1.05-.6-1.82,0-.47.08-.89.24-1.26.16-.37.4-.65.71-.85.31-.19.65-.29,1.02-.29.58,0,1.03.24,1.36.73v-.62h.71v6.46h-.79ZM252.01,379.81c0,.6.13,1.05.38,1.35.25.3.55.45.91.45s.63-.14.87-.43c.24-.29.36-.72.36-1.3,0-.62-.13-1.09-.38-1.4s-.56-.47-.9-.47-.63.15-.87.44c-.24.29-.36.75-.36,1.36Z"/><path d="M259.54,382.16v-.69c-.36.53-.86.79-1.48.79-.28,0-.53-.05-.77-.16s-.42-.24-.53-.4c-.12-.16-.2-.36-.24-.59-.03-.16-.05-.4-.05-.74v-2.89h.79v2.59c0,.41.02.69.05.83.05.21.16.37.32.49.16.12.36.18.6.18s.46-.06.67-.18c.21-.12.35-.29.44-.5.09-.21.13-.51.13-.91v-2.5h.79v4.67h-.71Z"/><path d="M264.68,380.66l.82.1c-.13.48-.37.85-.72,1.11s-.79.4-1.34.4c-.68,0-1.22-.21-1.62-.63-.4-.42-.6-1.01-.6-1.77s.2-1.39.61-1.83.93-.65,1.57-.65,1.13.21,1.53.64.59,1.02.59,1.79c0,.05,0,.12,0,.21h-3.48c.03.51.17.91.44,1.18s.59.41.98.41c.29,0,.54-.08.74-.23s.37-.4.49-.73ZM262.08,379.38h2.61c-.04-.39-.13-.69-.3-.88-.25-.3-.58-.46-.98-.46-.36,0-.67.12-.92.37s-.38.57-.41.98Z"/><path d="M266.7,382.16v-.9h.9v.9c0,.33-.06.6-.18.8-.12.2-.3.36-.56.47l-.22-.34c.17-.07.29-.18.37-.32.08-.14.12-.35.13-.61h-.45Z"/><path d="M274.55,382.16v-.69c-.36.53-.86.79-1.48.79-.28,0-.53-.05-.77-.16s-.42-.24-.53-.4c-.12-.16-.2-.36-.24-.59-.03-.16-.05-.4-.05-.74v-2.89h.79v2.59c0,.41.02.69.05.83.05.21.16.37.32.49.16.12.36.18.6.18s.46-.06.67-.18c.21-.12.35-.29.44-.5.09-.21.13-.51.13-.91v-2.5h.79v4.67h-.71Z"/><path d="M276.18,380.77l.78-.12c.04.31.17.55.37.72s.48.25.84.25.63-.07.81-.22c.18-.15.26-.32.26-.52,0-.18-.08-.32-.23-.42-.11-.07-.38-.16-.81-.27-.58-.15-.98-.27-1.21-.38-.22-.11-.39-.25-.51-.44-.12-.19-.17-.4-.17-.63,0-.21.05-.4.14-.58.09-.18.22-.32.39-.44.12-.09.29-.17.5-.23.21-.06.44-.09.68-.09.37,0,.69.05.96.16.28.11.48.25.61.43.13.18.22.42.27.72l-.77.11c-.04-.24-.14-.43-.31-.56-.17-.13-.41-.2-.71-.2-.36,0-.62.06-.78.18s-.23.26-.23.42c0,.1.03.19.1.28.06.08.17.16.3.21.08.03.31.1.7.2.56.15.95.27,1.17.37.22.1.39.23.52.42s.19.41.19.68-.08.51-.23.75c-.15.23-.38.41-.67.54-.29.13-.62.19-.98.19-.61,0-1.07-.13-1.39-.38-.32-.25-.52-.62-.61-1.12Z"/><path d="M284.19,380.66l.82.1c-.13.48-.37.85-.72,1.11s-.79.4-1.34.4c-.68,0-1.22-.21-1.62-.63-.4-.42-.6-1.01-.6-1.77s.2-1.39.61-1.83.93-.65,1.57-.65,1.13.21,1.53.64.59,1.02.59,1.79c0,.05,0,.12,0,.21h-3.48c.03.51.17.91.44,1.18s.59.41.98.41c.29,0,.54-.08.74-.23s.37-.4.49-.73ZM281.59,379.38h2.61c-.04-.39-.13-.69-.3-.88-.25-.3-.58-.46-.98-.46-.36,0-.67.12-.92.37s-.38.57-.41.98Z"/><path d="M286.19,382.16v-4.05h-.7v-.62h.7v-.5c0-.31.03-.55.08-.7.08-.21.21-.37.4-.5.19-.13.46-.19.81-.19.22,0,.47.03.74.08l-.12.69c-.16-.03-.32-.04-.47-.04-.24,0-.41.05-.51.15s-.15.29-.15.58v.43h.91v.62h-.91v4.05h-.79Z"/><path d="M291.56,382.16v-.69c-.36.53-.86.79-1.48.79-.28,0-.53-.05-.77-.16s-.42-.24-.53-.4c-.12-.16-.2-.36-.24-.59-.03-.16-.05-.4-.05-.74v-2.89h.79v2.59c0,.41.02.69.05.83.05.21.16.37.32.49.16.12.36.18.6.18s.46-.06.67-.18c.21-.12.35-.29.44-.5.09-.21.13-.51.13-.91v-2.5h.79v4.67h-.71Z"/><path d="M293.49,382.16v-6.44h.79v6.44h-.79Z"/><path d="M295.71,382.16v-.9h.9v.9c0,.33-.06.6-.18.8-.12.2-.3.36-.56.47l-.22-.34c.17-.07.29-.18.37-.32.08-.14.12-.35.13-.61h-.45Z"/><path d="M300.21,379.83c0-.86.24-1.5.72-1.92.4-.35.89-.52,1.47-.52.64,0,1.17.21,1.57.63.41.42.61,1,.61,1.74,0,.6-.09,1.07-.27,1.42-.18.34-.44.61-.79.8s-.72.29-1.13.29c-.65,0-1.18-.21-1.58-.63-.4-.42-.6-1.02-.6-1.81ZM301.03,379.83c0,.6.13,1.04.39,1.34.26.3.59.45.98.45s.72-.15.98-.45.39-.75.39-1.37c0-.58-.13-1.01-.39-1.31-.26-.3-.59-.45-.98-.45s-.72.15-.98.44-.39.74-.39,1.34Z"/><path d="M305.51,382.16v-4.67h.71v.71c.18-.33.35-.55.5-.66.15-.11.32-.16.51-.16.27,0,.54.08.81.25l-.27.73c-.19-.11-.39-.17-.58-.17-.17,0-.33.05-.47.16-.14.1-.24.25-.29.43-.09.28-.13.59-.13.92v2.44h-.79Z"/><path d="M310.87,382.55l.77.11c.03.24.12.41.27.52.2.15.46.22.8.22.37,0,.65-.07.85-.22s.33-.35.4-.62c.04-.16.06-.5.06-1.01-.35.41-.78.61-1.29.61-.64,0-1.14-.23-1.49-.69s-.53-1.02-.53-1.67c0-.45.08-.86.24-1.23.16-.38.39-.67.7-.87s.67-.31,1.08-.31c.55,0,1,.22,1.36.67v-.56h.73v4.03c0,.73-.07,1.24-.22,1.54-.15.3-.38.54-.7.72-.32.18-.72.26-1.18.26-.56,0-1.01-.13-1.35-.38-.34-.25-.51-.63-.5-1.13ZM311.52,379.74c0,.61.12,1.06.36,1.34s.55.42.91.42.67-.14.91-.42c.25-.28.37-.72.37-1.32s-.13-1-.38-1.29c-.25-.29-.56-.43-.92-.43s-.65.14-.9.43c-.25.29-.37.71-.37,1.27Z"/><path d="M316.02,376.63v-.91h.79v.91h-.79ZM316.02,382.16v-4.67h.79v4.67h-.79Z"/><path d="M318.21,382.16v-4.05h-.7v-.62h.7v-.5c0-.31.03-.55.08-.7.08-.21.21-.37.4-.5.19-.13.46-.19.81-.19.22,0,.47.03.74.08l-.12.69c-.16-.03-.32-.04-.47-.04-.24,0-.41.05-.51.15s-.15.29-.15.58v.43h.91v.62h-.91v4.05h-.79Z"/><path d="M322.24,381.45l.11.7c-.22.05-.42.07-.6.07-.29,0-.51-.04-.67-.14s-.27-.21-.33-.36c-.06-.15-.1-.46-.1-.93v-2.69h-.58v-.62h.58v-1.16l.79-.47v1.63h.8v.62h-.8v2.73c0,.23.01.37.04.43s.07.12.14.15c.06.04.15.06.27.06.09,0,.2,0,.35-.03Z"/><path d="M322.71,380.23v-.79h2.43v.79h-2.43Z"/><path d="M326.88,382.16l-1.43-4.67h.82l.74,2.69.28,1s.09-.37.24-.96l.74-2.73h.81l.7,2.71.23.89.27-.9.8-2.7h.77l-1.46,4.67h-.82l-.74-2.79-.18-.79-.94,3.59h-.83Z"/><path d="M332.22,379.83c0-.86.24-1.5.72-1.92.4-.35.89-.52,1.47-.52.64,0,1.17.21,1.57.63.41.42.61,1,.61,1.74,0,.6-.09,1.07-.27,1.42-.18.34-.44.61-.79.8s-.72.29-1.13.29c-.65,0-1.18-.21-1.58-.63-.4-.42-.6-1.02-.6-1.81ZM333.03,379.83c0,.6.13,1.04.39,1.34.26.3.59.45.98.45s.72-.15.98-.45.39-.75.39-1.37c0-.58-.13-1.01-.39-1.31-.26-.3-.59-.45-.98-.45s-.72.15-.98.44-.39.74-.39,1.34Z"/><path d="M337.51,382.16v-4.67h.71v.71c.18-.33.35-.55.5-.66.15-.11.32-.16.51-.16.27,0,.54.08.81.25l-.27.73c-.19-.11-.39-.17-.58-.17-.17,0-.33.05-.47.16-.14.1-.24.25-.29.43-.09.28-.13.59-.13.92v2.44h-.79Z"/><path d="M342.24,381.45l.11.7c-.22.05-.42.07-.6.07-.29,0-.51-.04-.67-.14s-.27-.21-.33-.36c-.06-.15-.1-.46-.1-.93v-2.69h-.58v-.62h.58v-1.16l.79-.47v1.63h.8v.62h-.8v2.73c0,.23.01.37.04.43s.07.12.14.15c.06.04.15.06.27.06.09,0,.2,0,.35-.03Z"/><path d="M343.02,382.16v-6.44h.79v2.31c.37-.43.83-.64,1.4-.64.35,0,.65.07.9.2.25.14.44.33.55.57.11.24.17.59.17,1.05v2.96h-.79v-2.96c0-.4-.09-.68-.26-.86-.17-.18-.41-.27-.73-.27-.23,0-.46.06-.66.18-.21.12-.35.29-.44.5s-.13.5-.13.86v2.55h-.79Z"/><path d="M347.99,383.96l-.09-.74c.17.05.32.07.45.07.18,0,.32-.03.42-.09s.19-.14.26-.25c.05-.08.13-.28.24-.59.01-.04.04-.11.07-.19l-1.77-4.68h.85l.97,2.7c.13.34.24.7.34,1.08.09-.36.2-.72.33-1.06l1-2.72h.79l-1.78,4.75c-.19.51-.34.87-.44,1.06-.14.26-.3.45-.48.57-.18.12-.4.18-.65.18-.15,0-.32-.03-.51-.1Z"/><path d="M352.08,382.16v-.9h.9v.9h-.9Z"/><path d="M356.92,382.16v-6.44h2.42c.49,0,.89.07,1.18.2.3.13.53.33.7.6.17.27.25.55.25.85,0,.28-.07.53-.22.78s-.38.44-.68.59c.39.11.69.31.9.58.21.28.31.6.31.98,0,.3-.06.58-.19.84-.13.26-.29.46-.47.6s-.42.25-.71.32c-.28.07-.63.11-1.04.11h-2.46ZM357.77,378.42h1.39c.38,0,.65-.02.81-.07.22-.06.38-.17.49-.32.11-.15.16-.34.16-.56,0-.21-.05-.4-.15-.56-.1-.16-.25-.27-.44-.33-.19-.06-.52-.09-.98-.09h-1.29v1.95ZM357.77,381.4h1.6c.28,0,.47-.01.58-.03.2-.04.36-.09.49-.18s.24-.2.33-.36c.08-.16.13-.34.13-.54,0-.24-.06-.45-.18-.63-.12-.18-.29-.3-.51-.37-.22-.07-.53-.11-.94-.11h-1.49v2.21Z"/><path d="M366.05,380.66l.82.1c-.13.48-.37.85-.72,1.11s-.79.4-1.34.4c-.68,0-1.22-.21-1.62-.63-.4-.42-.6-1.01-.6-1.77s.2-1.39.61-1.83.93-.65,1.57-.65,1.13.21,1.53.64.59,1.02.59,1.79c0,.05,0,.12,0,.21h-3.48c.03.51.17.91.44,1.18s.59.41.98.41c.29,0,.54-.08.74-.23s.37-.4.49-.73ZM363.46,379.38h2.61c-.04-.39-.13-.69-.3-.88-.25-.3-.58-.46-.98-.46-.36,0-.67.12-.92.37s-.38.57-.41.98Z"/><path d="M370.05,380.77l.78-.12c.04.31.17.55.37.72s.48.25.84.25.63-.07.81-.22c.18-.15.26-.32.26-.52,0-.18-.08-.32-.23-.42-.11-.07-.38-.16-.81-.27-.58-.15-.98-.27-1.21-.38-.22-.11-.39-.25-.51-.44-.12-.19-.17-.4-.17-.63,0-.21.05-.4.14-.58.09-.18.22-.32.39-.44.12-.09.29-.17.5-.23.21-.06.44-.09.68-.09.37,0,.69.05.96.16.28.11.48.25.61.43.13.18.22.42.27.72l-.77.11c-.04-.24-.14-.43-.31-.56-.17-.13-.41-.2-.71-.2-.36,0-.62.06-.78.18s-.23.26-.23.42c0,.1.03.19.1.28.06.08.17.16.3.21.08.03.31.1.7.2.56.15.95.27,1.17.37.22.1.39.23.52.42s.19.41.19.68-.08.51-.23.75c-.15.23-.38.41-.67.54-.29.13-.62.19-.98.19-.61,0-1.07-.13-1.39-.38-.32-.25-.52-.62-.61-1.12Z"/><path d="M377.92,382.16v-.69c-.36.53-.86.79-1.48.79-.28,0-.53-.05-.77-.16s-.42-.24-.53-.4c-.12-.16-.2-.36-.24-.59-.03-.16-.05-.4-.05-.74v-2.89h.79v2.59c0,.41.02.69.05.83.05.21.16.37.32.49.16.12.36.18.6.18s.46-.06.67-.18c.21-.12.35-.29.44-.5.09-.21.13-.51.13-.91v-2.5h.79v4.67h-.71Z"/><path d="M379.86,382.16v-4.67h.71v.71c.18-.33.35-.55.5-.66.15-.11.32-.16.51-.16.27,0,.54.08.81.25l-.27.73c-.19-.11-.39-.17-.58-.17-.17,0-.33.05-.47.16-.14.1-.24.25-.29.43-.09.28-.13.59-.13.92v2.44h-.79Z"/><path d="M386.06,380.66l.82.1c-.13.48-.37.85-.72,1.11s-.79.4-1.34.4c-.68,0-1.22-.21-1.62-.63-.4-.42-.6-1.01-.6-1.77s.2-1.39.61-1.83.93-.65,1.57-.65,1.13.21,1.53.64.59,1.02.59,1.79c0,.05,0,.12,0,.21h-3.48c.03.51.17.91.44,1.18s.59.41.98.41c.29,0,.54-.08.74-.23s.37-.4.49-.73ZM383.46,379.38h2.61c-.04-.39-.13-.69-.3-.88-.25-.3-.58-.46-.98-.46-.36,0-.67.12-.92.37s-.38.57-.41.98Z"/><path d="M392.1,381.45l.11.7c-.22.05-.42.07-.6.07-.29,0-.51-.04-.67-.14s-.27-.21-.33-.36c-.06-.15-.1-.46-.1-.93v-2.69h-.58v-.62h.58v-1.16l.79-.47v1.63h.8v.62h-.8v2.73c0,.23.01.37.04.43s.07.12.14.15c.06.04.15.06.27.06.09,0,.2,0,.35-.03Z"/><path d="M392.58,379.83c0-.86.24-1.5.72-1.92.4-.35.89-.52,1.47-.52.64,0,1.17.21,1.57.63.41.42.61,1,.61,1.74,0,.6-.09,1.07-.27,1.42-.18.34-.44.61-.79.8s-.72.29-1.13.29c-.65,0-1.18-.21-1.58-.63-.4-.42-.6-1.02-.6-1.81ZM393.39,379.83c0,.6.13,1.04.39,1.34.26.3.59.45.98.45s.72-.15.98-.45.39-.75.39-1.37c0-.58-.13-1.01-.39-1.31-.26-.3-.59-.45-.98-.45s-.72.15-.98.44-.39.74-.39,1.34Z"/><path d="M112.45,392.96v-6.44h.79v2.31c.37-.43.83-.64,1.4-.64.35,0,.65.07.9.2.25.14.44.33.55.57.11.24.17.59.17,1.05v2.96h-.79v-2.96c0-.4-.09-.68-.26-.86-.17-.18-.41-.27-.73-.27-.23,0-.46.06-.66.18-.21.12-.35.29-.44.5s-.13.5-.13.86v2.55h-.79Z"/><path d="M117.46,387.43v-.91h.79v.91h-.79ZM117.46,392.96v-4.67h.79v4.67h-.79Z"/><path d="M119.31,393.35l.77.11c.03.24.12.41.27.52.2.15.46.22.8.22.37,0,.65-.07.85-.22s.33-.35.4-.62c.04-.16.06-.5.06-1.01-.35.41-.78.61-1.29.61-.64,0-1.14-.23-1.49-.69s-.53-1.02-.53-1.67c0-.45.08-.86.24-1.23.16-.38.39-.67.7-.87s.67-.31,1.08-.31c.55,0,1,.22,1.36.67v-.56h.73v4.03c0,.73-.07,1.24-.22,1.54-.15.3-.38.54-.7.72-.32.18-.72.26-1.18.26-.56,0-1.01-.13-1.35-.38-.34-.25-.51-.63-.5-1.13ZM119.96,390.54c0,.61.12,1.06.36,1.34s.55.42.91.42.67-.14.91-.42c.25-.28.37-.72.37-1.32s-.13-1-.38-1.29c-.25-.29-.56-.43-.92-.43s-.65.14-.9.43c-.25.29-.37.71-.37,1.27Z"/><path d="M124.46,392.96v-6.44h.79v2.31c.37-.43.83-.64,1.4-.64.35,0,.65.07.9.2.25.14.44.33.55.57.11.24.17.59.17,1.05v2.96h-.79v-2.96c0-.4-.09-.68-.26-.86-.17-.18-.41-.27-.73-.27-.23,0-.46.06-.66.18-.21.12-.35.29-.44.5s-.13.5-.13.86v2.55h-.79Z"/><path d="M129.45,392.96v-6.44h.79v6.44h-.79Z"/><path d="M131.47,387.43v-.91h.79v.91h-.79ZM131.47,392.96v-4.67h.79v4.67h-.79Z"/><path d="M133.32,393.35l.77.11c.03.24.12.41.27.52.2.15.46.22.8.22.37,0,.65-.07.85-.22s.33-.35.4-.62c.04-.16.06-.5.06-1.01-.35.41-.78.61-1.29.61-.64,0-1.14-.23-1.49-.69s-.53-1.02-.53-1.67c0-.45.08-.86.24-1.23.16-.38.39-.67.7-.87s.67-.31,1.08-.31c.55,0,1,.22,1.36.67v-.56h.73v4.03c0,.73-.07,1.24-.22,1.54-.15.3-.38.54-.7.72-.32.18-.72.26-1.18.26-.56,0-1.01-.13-1.35-.38-.34-.25-.51-.63-.5-1.13ZM133.97,390.54c0,.61.12,1.06.36,1.34s.55.42.91.42.67-.14.91-.42c.25-.28.37-.72.37-1.32s-.13-1-.38-1.29c-.25-.29-.56-.43-.92-.43s-.65.14-.9.43c-.25.29-.37.71-.37,1.27Z"/><path d="M138.47,392.96v-6.44h.79v2.31c.37-.43.83-.64,1.4-.64.35,0,.65.07.9.2.25.14.44.33.55.57.11.24.17.59.17,1.05v2.96h-.79v-2.96c0-.4-.09-.68-.26-.86-.17-.18-.41-.27-.73-.27-.23,0-.46.06-.66.18-.21.12-.35.29-.44.5s-.13.5-.13.86v2.55h-.79Z"/><path d="M145.2,392.25l.11.7c-.22.05-.42.07-.6.07-.29,0-.51-.04-.67-.14s-.27-.21-.33-.36c-.06-.15-.1-.46-.1-.93v-2.69h-.58v-.62h.58v-1.16l.79-.47v1.63h.8v.62h-.8v2.73c0,.23.01.37.04.43s.07.12.14.15c.06.04.15.06.27.06.09,0,.2,0,.35-.03Z"/><path d="M150.2,392.25l.11.7c-.22.05-.42.07-.6.07-.29,0-.51-.04-.67-.14s-.27-.21-.33-.36c-.06-.15-.1-.46-.1-.93v-2.69h-.58v-.62h.58v-1.16l.79-.47v1.63h.8v.62h-.8v2.73c0,.23.01.37.04.43s.07.12.14.15c.06.04.15.06.27.06.09,0,.2,0,.35-.03Z"/><path d="M150.98,392.96v-6.44h.79v2.31c.37-.43.83-.64,1.4-.64.35,0,.65.07.9.2.25.14.44.33.55.57.11.24.17.59.17,1.05v2.96h-.79v-2.96c0-.4-.09-.68-.26-.86-.17-.18-.41-.27-.73-.27-.23,0-.46.06-.66.18-.21.12-.35.29-.44.5s-.13.5-.13.86v2.55h-.79Z"/><path d="M159.18,391.46l.82.1c-.13.48-.37.85-.72,1.11s-.79.4-1.34.4c-.68,0-1.22-.21-1.62-.63-.4-.42-.6-1.01-.6-1.77s.2-1.39.61-1.83.93-.65,1.57-.65,1.13.21,1.53.64.59,1.02.59,1.79c0,.05,0,.12,0,.21h-3.48c.03.51.17.91.44,1.18s.59.41.98.41c.29,0,.54-.08.74-.23s.37-.4.49-.73ZM156.58,390.18h2.61c-.04-.39-.13-.69-.3-.88-.25-.3-.58-.46-.98-.46-.36,0-.67.12-.92.37s-.38.57-.41.98Z"/><path d="M163.49,392.96v-4.67h.71v.66c.15-.23.34-.41.58-.55.24-.14.52-.21.83-.21.35,0,.63.07.85.22.22.14.38.34.47.6.37-.54.85-.82,1.44-.82.46,0,.82.13,1.07.38.25.26.37.65.37,1.18v3.2h-.79v-2.94c0-.32-.03-.54-.08-.68-.05-.14-.14-.25-.28-.34s-.29-.13-.47-.13c-.33,0-.6.11-.82.33-.22.22-.33.57-.33,1.05v2.71h-.79v-3.03c0-.35-.06-.62-.19-.79s-.34-.26-.63-.26c-.22,0-.43.06-.62.18-.19.12-.33.29-.41.51s-.13.55-.13.98v2.42h-.79Z"/><path d="M174.03,392.38c-.29.25-.58.42-.85.53-.27.1-.56.15-.87.15-.51,0-.91-.12-1.18-.38-.28-.25-.41-.57-.41-.96,0-.23.05-.44.16-.63.1-.19.24-.34.41-.46s.36-.2.57-.26c.16-.04.39-.08.7-.12.64-.08,1.11-.17,1.41-.27,0-.11,0-.18,0-.21,0-.32-.07-.55-.22-.68-.2-.18-.5-.27-.9-.27-.37,0-.65.07-.82.2-.18.13-.31.36-.39.69l-.77-.11c.07-.33.19-.6.35-.8.16-.2.39-.36.7-.47.3-.11.66-.17,1.06-.17s.72.05.97.14.43.21.55.35c.12.14.2.32.25.54.03.13.04.38.04.73v1.05c0,.74.02,1.2.05,1.39.03.2.1.38.2.56h-.83c-.08-.16-.13-.36-.16-.58ZM173.96,390.62c-.29.12-.72.22-1.29.3-.33.05-.56.1-.69.16s-.24.14-.31.26c-.07.11-.11.24-.11.38,0,.21.08.39.24.53s.39.21.7.21.58-.07.81-.2c.24-.13.41-.32.52-.55.08-.18.13-.44.13-.79v-.29Z"/><path d="M175.99,387.43v-.91h.79v.91h-.79ZM175.99,392.96v-4.67h.79v4.67h-.79Z"/><path d="M177.99,392.96v-4.67h.71v.66c.34-.51.84-.77,1.49-.77.28,0,.54.05.78.15.24.1.41.23.53.4s.2.36.25.58c.03.15.04.4.04.77v2.87h-.79v-2.84c0-.32-.03-.56-.09-.72-.06-.16-.17-.29-.33-.38-.16-.09-.34-.14-.55-.14-.34,0-.63.11-.87.32s-.37.62-.37,1.22v2.55h-.79Z"/><path d="M185.68,392.96v-4.05h-.7v-.62h.7v-.5c0-.31.03-.55.08-.7.08-.21.21-.37.4-.5.19-.13.46-.19.81-.19.22,0,.47.03.74.08l-.12.69c-.16-.03-.32-.04-.47-.04-.24,0-.41.05-.51.15s-.15.29-.15.58v.43h.91v.62h-.91v4.05h-.79Z"/><path d="M191.19,391.46l.82.1c-.13.48-.37.85-.72,1.11s-.79.4-1.34.4c-.68,0-1.22-.21-1.62-.63-.4-.42-.6-1.01-.6-1.77s.2-1.39.61-1.83.93-.65,1.57-.65,1.13.21,1.53.64.59,1.02.59,1.79c0,.05,0,.12,0,.21h-3.48c.03.51.17.91.44,1.18s.59.41.98.41c.29,0,.54-.08.74-.23s.37-.4.49-.73ZM188.59,390.18h2.61c-.04-.39-.13-.69-.3-.88-.25-.3-.58-.46-.98-.46-.36,0-.67.12-.92.37s-.38.57-.41.98Z"/><path d="M196.05,392.38c-.29.25-.58.42-.85.53-.27.1-.56.15-.87.15-.51,0-.91-.12-1.18-.38-.28-.25-.41-.57-.41-.96,0-.23.05-.44.16-.63.1-.19.24-.34.41-.46s.36-.2.57-.26c.16-.04.39-.08.7-.12.64-.08,1.11-.17,1.41-.27,0-.11,0-.18,0-.21,0-.32-.07-.55-.22-.68-.2-.18-.5-.27-.9-.27-.37,0-.65.07-.82.2-.18.13-.31.36-.39.69l-.77-.11c.07-.33.19-.6.35-.8.16-.2.39-.36.7-.47.3-.11.66-.17,1.06-.17s.72.05.97.14.43.21.55.35c.12.14.2.32.25.54.03.13.04.38.04.73v1.05c0,.74.02,1.2.05,1.39.03.2.1.38.2.56h-.83c-.08-.16-.13-.36-.16-.58ZM195.98,390.62c-.29.12-.72.22-1.29.3-.33.05-.56.1-.69.16s-.24.14-.31.26c-.07.11-.11.24-.11.38,0,.21.08.39.24.53s.39.21.7.21.58-.07.81-.2c.24-.13.41-.32.52-.55.08-.18.13-.44.13-.79v-.29Z"/><path d="M199.73,392.25l.11.7c-.22.05-.42.07-.6.07-.29,0-.51-.04-.67-.14s-.27-.21-.33-.36c-.06-.15-.1-.46-.1-.93v-2.69h-.58v-.62h.58v-1.16l.79-.47v1.63h.8v.62h-.8v2.73c0,.23.01.37.04.43s.07.12.14.15c.06.04.15.06.27.06.09,0,.2,0,.35-.03Z"/><path d="M203.57,392.96v-.69c-.36.53-.86.79-1.48.79-.28,0-.53-.05-.77-.16s-.42-.24-.53-.4c-.12-.16-.2-.36-.24-.59-.03-.16-.05-.4-.05-.74v-2.89h.79v2.59c0,.41.02.69.05.83.05.21.16.37.32.49.16.12.36.18.6.18s.46-.06.67-.18c.21-.12.35-.29.44-.5.09-.21.13-.51.13-.91v-2.5h.79v4.67h-.71Z"/><path d="M205.5,392.96v-4.67h.71v.71c.18-.33.35-.55.5-.66.15-.11.32-.16.51-.16.27,0,.54.08.81.25l-.27.73c-.19-.11-.39-.17-.58-.17-.17,0-.33.05-.47.16-.14.1-.24.25-.29.43-.09.28-.13.59-.13.92v2.44h-.79Z"/><path d="M211.7,391.46l.82.1c-.13.48-.37.85-.72,1.11s-.79.4-1.34.4c-.68,0-1.22-.21-1.62-.63-.4-.42-.6-1.01-.6-1.77s.2-1.39.61-1.83.93-.65,1.57-.65,1.13.21,1.53.64.59,1.02.59,1.79c0,.05,0,.12,0,.21h-3.48c.03.51.17.91.44,1.18s.59.41.98.41c.29,0,.54-.08.74-.23s.37-.4.49-.73ZM209.11,390.18h2.61c-.04-.39-.13-.69-.3-.88-.25-.3-.58-.46-.98-.46-.36,0-.67.12-.92.37s-.38.57-.41.98Z"/><path d="M213.2,391.57l.78-.12c.04.31.17.55.37.72s.48.25.84.25.63-.07.81-.22c.18-.15.26-.32.26-.52,0-.18-.08-.32-.23-.42-.11-.07-.38-.16-.81-.27-.58-.15-.98-.27-1.21-.38-.22-.11-.39-.25-.51-.44-.12-.19-.17-.4-.17-.63,0-.21.05-.4.14-.58.09-.18.22-.32.39-.44.12-.09.29-.17.5-.23.21-.06.44-.09.68-.09.37,0,.69.05.96.16.28.11.48.25.61.43.13.18.22.42.27.72l-.77.11c-.04-.24-.14-.43-.31-.56-.17-.13-.41-.2-.71-.2-.36,0-.62.06-.78.18s-.23.26-.23.42c0,.1.03.19.1.28.06.08.17.16.3.21.08.03.31.1.7.2.56.15.95.27,1.17.37.22.1.39.23.52.42s.19.41.19.68-.08.51-.23.75c-.15.23-.38.41-.67.54-.29.13-.62.19-.98.19-.61,0-1.07-.13-1.39-.38-.32-.25-.52-.62-.61-1.12Z"/><path d="M218.22,392.96v-.9h.9v.9c0,.33-.06.6-.18.8-.12.2-.3.36-.56.47l-.22-.34c.17-.07.29-.18.37-.32.08-.14.12-.35.13-.61h-.45Z"/><path d="M226.06,392.38c-.29.25-.58.42-.85.53-.27.1-.56.15-.87.15-.51,0-.91-.12-1.18-.38-.28-.25-.41-.57-.41-.96,0-.23.05-.44.16-.63.1-.19.24-.34.41-.46s.36-.2.57-.26c.16-.04.39-.08.7-.12.64-.08,1.11-.17,1.41-.27,0-.11,0-.18,0-.21,0-.32-.07-.55-.22-.68-.2-.18-.5-.27-.9-.27-.37,0-.65.07-.82.2-.18.13-.31.36-.39.69l-.77-.11c.07-.33.19-.6.35-.8.16-.2.39-.36.7-.47.3-.11.66-.17,1.06-.17s.72.05.97.14.43.21.55.35c.12.14.2.32.25.54.03.13.04.38.04.73v1.05c0,.74.02,1.2.05,1.39.03.2.1.38.2.56h-.83c-.08-.16-.13-.36-.16-.58ZM225.99,390.62c-.29.12-.72.22-1.29.3-.33.05-.56.1-.69.16s-.24.14-.31.26c-.07.11-.11.24-.11.38,0,.21.08.39.24.53s.39.21.7.21.58-.07.81-.2c.24-.13.41-.32.52-.55.08-.18.13-.44.13-.79v-.29Z"/><path d="M228.02,392.96v-4.67h.71v.66c.34-.51.84-.77,1.49-.77.28,0,.54.05.78.15.24.1.41.23.53.4s.2.36.25.58c.03.15.04.4.04.77v2.87h-.79v-2.84c0-.32-.03-.56-.09-.72-.06-.16-.17-.29-.33-.38-.16-.09-.34-.14-.55-.14-.34,0-.63.11-.87.32s-.37.62-.37,1.22v2.55h-.79Z"/><path d="M236.05,392.96v-.59c-.3.46-.73.69-1.31.69-.37,0-.71-.1-1.03-.31-.31-.21-.55-.49-.73-.86-.17-.37-.26-.79-.26-1.27s.08-.89.23-1.27c.16-.38.39-.67.7-.87s.66-.3,1.04-.3c.28,0,.53.06.75.18.22.12.4.27.54.46v-2.31h.79v6.44h-.73ZM233.55,390.63c0,.6.13,1.04.38,1.34s.55.44.89.44.64-.14.88-.42c.24-.28.36-.71.36-1.29,0-.64-.12-1.11-.37-1.41s-.55-.45-.91-.45-.65.14-.88.43c-.24.29-.35.74-.35,1.36Z"/><path d="M240.51,392.96v-6.44h.79v6.44h-.79Z"/><path d="M245.73,391.46l.82.1c-.13.48-.37.85-.72,1.11s-.79.4-1.34.4c-.68,0-1.22-.21-1.62-.63-.4-.42-.6-1.01-.6-1.77s.2-1.39.61-1.83.93-.65,1.57-.65,1.13.21,1.53.64.59,1.02.59,1.79c0,.05,0,.12,0,.21h-3.48c.03.51.17.91.44,1.18s.59.41.98.41c.29,0,.54-.08.74-.23s.37-.4.49-.73ZM243.13,390.18h2.61c-.04-.39-.13-.69-.3-.88-.25-.3-.58-.46-.98-.46-.36,0-.67.12-.92.37s-.38.57-.41.98Z"/><path d="M249.26,392.25l.11.7c-.22.05-.42.07-.6.07-.29,0-.51-.04-.67-.14s-.27-.21-.33-.36c-.06-.15-.1-.46-.1-.93v-2.69h-.58v-.62h.58v-1.16l.79-.47v1.63h.8v.62h-.8v2.73c0,.23.01.37.04.43s.07.12.14.15c.06.04.15.06.27.06.09,0,.2,0,.35-.03Z"/><path d="M252.54,394.75v-6.46h.72v.61c.17-.24.36-.42.58-.53.21-.12.47-.18.78-.18.4,0,.75.1,1.05.31s.53.49.69.87c.16.37.23.78.23,1.23,0,.48-.09.91-.26,1.29-.17.38-.42.68-.75.88-.33.2-.67.31-1.03.31-.26,0-.5-.06-.71-.17s-.38-.25-.52-.42v2.27h-.79ZM253.25,390.65c0,.6.12,1.04.36,1.33s.54.43.88.43.65-.15.9-.45c.25-.3.38-.76.38-1.38s-.12-1.04-.37-1.34c-.25-.3-.54-.44-.88-.44s-.63.16-.89.47c-.26.32-.39.77-.39,1.37Z"/><path d="M260.74,391.46l.82.1c-.13.48-.37.85-.72,1.11s-.79.4-1.34.4c-.68,0-1.22-.21-1.62-.63-.4-.42-.6-1.01-.6-1.77s.2-1.39.61-1.83.93-.65,1.57-.65,1.13.21,1.53.64.59,1.02.59,1.79c0,.05,0,.12,0,.21h-3.48c.03.51.17.91.44,1.18s.59.41.98.41c.29,0,.54-.08.74-.23s.37-.4.49-.73ZM258.14,390.18h2.61c-.04-.39-.13-.69-.3-.88-.25-.3-.58-.46-.98-.46-.36,0-.67.12-.92.37s-.38.57-.41.98Z"/><path d="M262.25,390.63c0-.86.24-1.5.72-1.92.4-.35.89-.52,1.47-.52.64,0,1.17.21,1.57.63.41.42.61,1,.61,1.74,0,.6-.09,1.07-.27,1.42-.18.34-.44.61-.79.8s-.72.29-1.13.29c-.65,0-1.18-.21-1.58-.63-.4-.42-.6-1.02-.6-1.81ZM263.07,390.63c0,.6.13,1.04.39,1.34.26.3.59.45.98.45s.72-.15.98-.45.39-.75.39-1.37c0-.58-.13-1.01-.39-1.31-.26-.3-.59-.45-.98-.45s-.72.15-.98.44-.39.74-.39,1.34Z"/><path d="M267.55,394.75v-6.46h.72v.61c.17-.24.36-.42.58-.53.21-.12.47-.18.78-.18.4,0,.75.1,1.05.31s.53.49.69.87c.16.37.23.78.23,1.23,0,.48-.09.91-.26,1.29-.17.38-.42.68-.75.88-.33.2-.67.31-1.03.31-.26,0-.5-.06-.71-.17s-.38-.25-.52-.42v2.27h-.79ZM268.27,390.65c0,.6.12,1.04.36,1.33s.54.43.88.43.65-.15.9-.45c.25-.3.38-.76.38-1.38s-.12-1.04-.37-1.34c-.25-.3-.54-.44-.88-.44s-.63.16-.89.47c-.26.32-.39.77-.39,1.37Z"/><path d="M272.54,392.96v-6.44h.79v6.44h-.79Z"/><path d="M277.75,391.46l.82.1c-.13.48-.37.85-.72,1.11s-.79.4-1.34.4c-.68,0-1.22-.21-1.62-.63-.4-.42-.6-1.01-.6-1.77s.2-1.39.61-1.83.93-.65,1.57-.65,1.13.21,1.53.64.59,1.02.59,1.79c0,.05,0,.12,0,.21h-3.48c.03.51.17.91.44,1.18s.59.41.98.41c.29,0,.54-.08.74-.23s.37-.4.49-.73ZM275.16,390.18h2.61c-.04-.39-.13-.69-.3-.88-.25-.3-.58-.46-.98-.46-.36,0-.67.12-.92.37s-.38.57-.41.98Z"/><path d="M282.07,392.96v-6.44h.79v3.67l1.87-1.9h1.02l-1.78,1.73,1.96,2.94h-.98l-1.54-2.39-.56.54v1.85h-.79Z"/><path d="M286.56,392.96v-4.67h.71v.66c.34-.51.84-.77,1.49-.77.28,0,.54.05.78.15.24.1.41.23.53.4s.2.36.25.58c.03.15.04.4.04.77v2.87h-.79v-2.84c0-.32-.03-.56-.09-.72-.06-.16-.17-.29-.33-.38-.16-.09-.34-.14-.55-.14-.34,0-.63.11-.87.32s-.37.62-.37,1.22v2.55h-.79Z"/><path d="M291.28,390.63c0-.86.24-1.5.72-1.92.4-.35.89-.52,1.47-.52.64,0,1.17.21,1.57.63.41.42.61,1,.61,1.74,0,.6-.09,1.07-.27,1.42-.18.34-.44.61-.79.8s-.72.29-1.13.29c-.65,0-1.18-.21-1.58-.63-.4-.42-.6-1.02-.6-1.81ZM292.09,390.63c0,.6.13,1.04.39,1.34.26.3.59.45.98.45s.72-.15.98-.45.39-.75.39-1.37c0-.58-.13-1.01-.39-1.31-.26-.3-.59-.45-.98-.45s-.72.15-.98.44-.39.74-.39,1.34Z"/><path d="M297.44,392.96l-1.43-4.67h.82l.74,2.69.28,1s.09-.37.24-.96l.74-2.73h.81l.7,2.71.23.89.27-.9.8-2.7h.77l-1.46,4.67h-.82l-.74-2.79-.18-.79-.94,3.59h-.83Z"/><path d="M306.44,392.96l-1.43-4.67h.82l.74,2.69.28,1s.09-.37.24-.96l.74-2.73h.81l.7,2.71.23.89.27-.9.8-2.7h.77l-1.46,4.67h-.82l-.74-2.79-.18-.79-.94,3.59h-.83Z"/><path d="M312.08,392.96v-6.44h.79v2.31c.37-.43.83-.64,1.4-.64.35,0,.65.07.9.2.25.14.44.33.55.57.11.24.17.59.17,1.05v2.96h-.79v-2.96c0-.4-.09-.68-.26-.86-.17-.18-.41-.27-.73-.27-.23,0-.46.06-.66.18-.21.12-.35.29-.44.5s-.13.5-.13.86v2.55h-.79Z"/><path d="M320.28,391.46l.82.1c-.13.48-.37.85-.72,1.11s-.79.4-1.34.4c-.68,0-1.22-.21-1.62-.63-.4-.42-.6-1.01-.6-1.77s.2-1.39.61-1.83.93-.65,1.57-.65,1.13.21,1.53.64.59,1.02.59,1.79c0,.05,0,.12,0,.21h-3.48c.03.51.17.91.44,1.18s.59.41.98.41c.29,0,.54-.08.74-.23s.37-.4.49-.73ZM317.68,390.18h2.61c-.04-.39-.13-.69-.3-.88-.25-.3-.58-.46-.98-.46-.36,0-.67.12-.92.37s-.38.57-.41.98Z"/><path d="M322.08,392.96v-4.67h.71v.71c.18-.33.35-.55.5-.66.15-.11.32-.16.51-.16.27,0,.54.08.81.25l-.27.73c-.19-.11-.39-.17-.58-.17-.17,0-.33.05-.47.16-.14.1-.24.25-.29.43-.09.28-.13.59-.13.92v2.44h-.79Z"/><path d="M328.28,391.46l.82.1c-.13.48-.37.85-.72,1.11s-.79.4-1.34.4c-.68,0-1.22-.21-1.62-.63-.4-.42-.6-1.01-.6-1.77s.2-1.39.61-1.83.93-.65,1.57-.65,1.13.21,1.53.64.59,1.02.59,1.79c0,.05,0,.12,0,.21h-3.48c.03.51.17.91.44,1.18s.59.41.98.41c.29,0,.54-.08.74-.23s.37-.4.49-.73ZM325.68,390.18h2.61c-.04-.39-.13-.69-.3-.88-.25-.3-.58-.46-.98-.46-.36,0-.67.12-.92.37s-.38.57-.41.98Z"/><path d="M332.59,387.43v-.91h.79v.91h-.79ZM332.59,392.96v-4.67h.79v4.67h-.79Z"/><path d="M336.32,392.25l.11.7c-.22.05-.42.07-.6.07-.29,0-.51-.04-.67-.14s-.27-.21-.33-.36c-.06-.15-.1-.46-.1-.93v-2.69h-.58v-.62h.58v-1.16l.79-.47v1.63h.8v.62h-.8v2.73c0,.23.01.37.04.43s.07.12.14.15c.06.04.15.06.27.06.09,0,.2,0,.35-.03Z"/><path d="M337.09,388.8l-.2-1.2v-1.08h.9v1.08l-.21,1.2h-.49Z"/><path d="M338.49,391.57l.78-.12c.04.31.17.55.37.72s.48.25.84.25.63-.07.81-.22c.18-.15.26-.32.26-.52,0-.18-.08-.32-.23-.42-.11-.07-.38-.16-.81-.27-.58-.15-.98-.27-1.21-.38-.22-.11-.39-.25-.51-.44-.12-.19-.17-.4-.17-.63,0-.21.05-.4.14-.58.09-.18.22-.32.39-.44.12-.09.29-.17.5-.23.21-.06.44-.09.68-.09.37,0,.69.05.96.16.28.11.48.25.61.43.13.18.22.42.27.72l-.77.11c-.04-.24-.14-.43-.31-.56-.17-.13-.41-.2-.71-.2-.36,0-.62.06-.78.18s-.23.26-.23.42c0,.1.03.19.1.28.06.08.17.16.3.21.08.03.31.1.7.2.56.15.95.27,1.17.37.22.1.39.23.52.42s.19.41.19.68-.08.51-.23.75c-.15.23-.38.41-.67.54-.29.13-.62.19-.98.19-.61,0-1.07-.13-1.39-.38-.32-.25-.52-.62-.61-1.12Z"/><path d="M348.85,392.38c-.29.25-.58.42-.85.53-.27.1-.56.15-.87.15-.51,0-.91-.12-1.18-.38-.28-.25-.41-.57-.41-.96,0-.23.05-.44.16-.63.1-.19.24-.34.41-.46s.36-.2.57-.26c.16-.04.39-.08.7-.12.64-.08,1.11-.17,1.41-.27,0-.11,0-.18,0-.21,0-.32-.07-.55-.22-.68-.2-.18-.5-.27-.9-.27-.37,0-.65.07-.82.2-.18.13-.31.36-.39.69l-.77-.11c.07-.33.19-.6.35-.8.16-.2.39-.36.7-.47.3-.11.66-.17,1.06-.17s.72.05.97.14.43.21.55.35c.12.14.2.32.25.54.03.13.04.38.04.73v1.05c0,.74.02,1.2.05,1.39.03.2.1.38.2.56h-.83c-.08-.16-.13-.36-.16-.58ZM348.79,390.62c-.29.12-.72.22-1.29.3-.33.05-.56.1-.69.16s-.24.14-.31.26c-.07.11-.11.24-.11.38,0,.21.08.39.24.53s.39.21.7.21.58-.07.81-.2c.24-.13.41-.32.52-.55.08-.18.13-.44.13-.79v-.29Z"/><path d="M352.11,392.96l-1.78-4.67h.83l1,2.79c.11.3.21.62.3.94.07-.25.17-.54.29-.89l1.04-2.85h.81l-1.77,4.67h-.74Z"/><path d="M358.36,392.38c-.29.25-.58.42-.85.53-.27.1-.56.15-.87.15-.51,0-.91-.12-1.18-.38-.28-.25-.41-.57-.41-.96,0-.23.05-.44.16-.63.1-.19.24-.34.41-.46s.36-.2.57-.26c.16-.04.39-.08.7-.12.64-.08,1.11-.17,1.41-.27,0-.11,0-.18,0-.21,0-.32-.07-.55-.22-.68-.2-.18-.5-.27-.9-.27-.37,0-.65.07-.82.2-.18.13-.31.36-.39.69l-.77-.11c.07-.33.19-.6.35-.8.16-.2.39-.36.7-.47.3-.11.66-.17,1.06-.17s.72.05.97.14.43.21.55.35c.12.14.2.32.25.54.03.13.04.38.04.73v1.05c0,.74.02,1.2.05,1.39.03.2.1.38.2.56h-.83c-.08-.16-.13-.36-.16-.58ZM358.29,390.62c-.29.12-.72.22-1.29.3-.33.05-.56.1-.69.16s-.24.14-.31.26c-.07.11-.11.24-.11.38,0,.21.08.39.24.53s.39.21.7.21.58-.07.81-.2c.24-.13.41-.32.52-.55.08-.18.13-.44.13-.79v-.29Z"/><path d="M360.32,387.43v-.91h.79v.91h-.79ZM360.32,392.96v-4.67h.79v4.67h-.79Z"/><path d="M362.3,392.96v-6.44h.79v6.44h-.79Z"/><path d="M367.36,392.38c-.29.25-.58.42-.85.53-.27.1-.56.15-.87.15-.51,0-.91-.12-1.18-.38-.28-.25-.41-.57-.41-.96,0-.23.05-.44.16-.63.1-.19.24-.34.41-.46s.36-.2.57-.26c.16-.04.39-.08.7-.12.64-.08,1.11-.17,1.41-.27,0-.11,0-.18,0-.21,0-.32-.07-.55-.22-.68-.2-.18-.5-.27-.9-.27-.37,0-.65.07-.82.2-.18.13-.31.36-.39.69l-.77-.11c.07-.33.19-.6.35-.8.16-.2.39-.36.7-.47.3-.11.66-.17,1.06-.17s.72.05.97.14.43.21.55.35c.12.14.2.32.25.54.03.13.04.38.04.73v1.05c0,.74.02,1.2.05,1.39.03.2.1.38.2.56h-.83c-.08-.16-.13-.36-.16-.58ZM367.3,390.62c-.29.12-.72.22-1.29.3-.33.05-.56.1-.69.16s-.24.14-.31.26c-.07.11-.11.24-.11.38,0,.21.08.39.24.53s.39.21.7.21.58-.07.81-.2c.24-.13.41-.32.52-.55.08-.18.13-.44.13-.79v-.29Z"/><path d="M370.05,392.96h-.73v-6.44h.79v2.3c.33-.42.76-.63,1.28-.63.29,0,.56.06.81.17.26.12.47.28.63.49.17.21.3.46.39.76s.14.61.14.95c0,.8-.2,1.42-.59,1.85s-.87.65-1.42.65-.98-.23-1.3-.69v.58ZM370.04,390.59c0,.56.08.96.23,1.21.25.41.59.61,1.01.61.35,0,.64-.15.9-.45.25-.3.38-.75.38-1.34s-.12-1.06-.36-1.35c-.24-.29-.53-.44-.88-.44s-.64.15-.9.45c-.25.3-.38.74-.38,1.3Z"/><path d="M374.31,392.96v-6.44h.79v6.44h-.79Z"/><path d="M379.52,391.46l.82.1c-.13.48-.37.85-.72,1.11s-.79.4-1.34.4c-.68,0-1.22-.21-1.62-.63-.4-.42-.6-1.01-.6-1.77s.2-1.39.61-1.83.93-.65,1.57-.65,1.13.21,1.53.64.59,1.02.59,1.79c0,.05,0,.12,0,.21h-3.48c.03.51.17.91.44,1.18s.59.41.98.41c.29,0,.54-.08.74-.23s.37-.4.49-.73ZM376.93,390.18h2.61c-.04-.39-.13-.69-.3-.88-.25-.3-.58-.46-.98-.46-.36,0-.67.12-.92.37s-.38.57-.41.98Z"/><path d="M381.56,392.96v-.9h.9v.9h-.9Z"/><g style="clip-path:url(#clippath);"><rect x="36.1" y="433.85" width="416" height="124" style="fill:#f4f4f4;"/><rect x="101.77" y="484.13" width="116.33" height="73.72" style="fill:#f6f6f4;"/><path d="M147.84,538.39c-.87,0-1.6-.25-2.19-.75s-.88-1.12-.88-1.86v-20.6c0-.74.29-1.36.88-1.86s1.31-.75,2.19-.75h12.32c.27,0,.49.08.68.23s.27.35.27.58-.09.42-.27.57-.41.23-.68.23h-12.32c-.34,0-.62.09-.84.28-.22.19-.33.42-.33.71v20.6c0,.29.11.53.33.71.22.19.5.28.84.28h24.2c.34,0,.62-.09.84-.28.22-.19.33-.42.33-.71v-10.49c0-.23.09-.42.27-.57s.41-.23.68-.23.49.08.67.23.27.35.27.57v10.49c0,.74-.29,1.36-.88,1.86s-1.31.75-2.19.75h-24.2ZM150.02,532.56h19.83l-6.12-6.95-5.69,6.11-3.79-3.88-4.23,4.72ZM169.41,517.42h-2.84c-.27,0-.49-.08-.68-.23s-.27-.35-.27-.58.09-.42.27-.57.41-.23.68-.23h2.84v-2.42c0-.23.09-.42.27-.57s.41-.23.68-.23.49.08.67.23.27.35.27.57v2.42h2.84c.27,0,.49.08.68.23s.27.35.27.58-.09.42-.27.57-.41.23-.68.23h-2.84v2.42c0,.23-.09.42-.27.57s-.41.23-.68.23-.49-.08-.67-.23-.27-.35-.27-.57v-2.42Z" style="fill:#afafae;"/><rect x="277.77" y="484.13" width="116.33" height="73.72" style="fill:#f6f6f4;"/><path d="M323.84,538.39c-.87,0-1.6-.25-2.19-.75s-.88-1.12-.88-1.86v-20.6c0-.74.29-1.36.88-1.86s1.31-.75,2.19-.75h12.32c.27,0,.49.08.68.23s.27.35.27.58-.09.42-.27.57-.41.23-.68.23h-12.32c-.34,0-.62.09-.84.28-.22.19-.33.42-.33.71v20.6c0,.29.11.53.33.71.22.19.5.28.84.28h24.2c.34,0,.62-.09.84-.28.22-.19.33-.42.33-.71v-10.49c0-.23.09-.42.27-.57s.41-.23.68-.23.49.08.67.23.27.35.27.57v10.49c0,.74-.29,1.36-.88,1.86s-1.31.75-2.19.75h-24.2ZM326.02,532.56h19.83l-6.12-6.95-5.69,6.11-3.79-3.88-4.23,4.72ZM345.41,517.42h-2.84c-.27,0-.49-.08-.68-.23s-.27-.35-.27-.58.09-.42.27-.57.41-.23.68-.23h2.84v-2.42c0-.23.09-.42.27-.57s.41-.23.68-.23.49.08.67.23.27.35.27.57v2.42h2.84c.27,0,.49.08.68.23s.27.35.27.58-.09.42-.27.57-.41.23-.68.23h-2.84v2.42c0,.23-.09.42-.27.57s-.41.23-.68.23-.49-.08-.67-.23-.27-.35-.27-.57v-2.42Z" style="fill:#afafae;"/></g></g></svg>