<?xml version="1.0" encoding="UTF-8"?><svg id="Layer_2" xmlns="http://www.w3.org/2000/svg" viewBox="0 0 270.79 220"><g id="Layer_1-2"><rect x=".56" width="270.23" height="84.36" style="fill:#f6f6f4;"/><path d="M123.7,57.18c-.86,0-1.58-.29-2.16-.87s-.87-1.3-.87-2.16v-23.94c0-.86.29-1.58.87-2.16s1.3-.87,2.16-.87h12.19c.27,0,.49.09.67.27s.27.4.27.67-.09.49-.27.67-.4.27-.67.27h-12.19c-.34,0-.61.11-.83.32-.22.22-.32.49-.32.83v23.94c0,.34.11.61.32.83.22.22.49.32.83.32h23.94c.34,0,.61-.11.83-.32.22-.22.32-.49.32-.83v-12.19c0-.27.09-.49.27-.67s.4-.27.67-.27.49.09.67.27.27.4.27.67v12.19c0,.86-.29,1.58-.87,2.16s-1.3.87-2.16.87h-23.94ZM125.87,50.4h19.62l-6.06-8.08-5.62,7.1-3.75-4.51-4.18,5.48ZM145.05,32.81h-2.81c-.27,0-.49-.09-.67-.27s-.27-.4-.27-.67.09-.49.27-.67.4-.27.67-.27h2.81v-2.81c0-.27.09-.49.27-.67s.4-.27.67-.27.49.09.67.27.27.4.27.67v2.81h2.81c.27,0,.49.09.67.27s.27.4.27.67-.09.49-.27.67-.4.27-.67.27h-2.81v2.81c0,.27-.09.49-.27.67s-.4.27-.67.27-.49-.09-.67-.27-.27-.4-.27-.67v-2.81Z" style="fill:#afafae;"/><path d="M3.74,116.78v-9.52H.34v-1.94h9.1v1.94h-3.39v9.52h-2.31Z"/><path d="M11.38,111.02l-1.99-.36c.22-.8.61-1.4,1.16-1.78s1.36-.58,2.44-.58c.98,0,1.71.12,2.19.35.48.23.82.53,1.01.88s.29,1.01.29,1.96l-.02,2.56c0,.73.04,1.27.11,1.61s.2.72.39,1.11h-2.17c-.06-.15-.13-.36-.21-.65-.04-.13-.06-.22-.08-.26-.38.36-.78.64-1.2.82-.43.18-.88.27-1.37.27-.85,0-1.53-.23-2.02-.7s-.74-1.05-.74-1.76c0-.47.11-.89.34-1.25.22-.37.54-.65.94-.84.4-.2.99-.37,1.75-.51,1.03-.19,1.74-.37,2.13-.54v-.22c0-.42-.1-.72-.31-.9-.21-.18-.6-.27-1.18-.27-.39,0-.7.08-.91.23s-.4.42-.53.81ZM14.31,112.8c-.28.09-.73.21-1.34.34s-1.01.26-1.2.38c-.29.2-.43.46-.43.77s.11.57.34.8c.23.22.52.34.88.34.4,0,.77-.13,1.13-.39.27-.2.44-.44.52-.73.06-.19.09-.54.09-1.07v-.44Z"/><path d="M18.63,116.78v-11.45h2.2v11.45h-2.2Z"/><path d="M23,116.78v-11.45h2.2v6.08l2.57-2.92h2.7l-2.84,3.03,3.04,5.27h-2.37l-2.09-3.73-1.02,1.07v2.66h-2.2Z"/><path d="M41.88,116.78v-1.24c-.3.44-.7.79-1.19,1.05s-1.01.38-1.56.38-1.06-.12-1.5-.37-.76-.59-.96-1.03-.3-1.05-.3-1.84v-5.25h2.2v3.81c0,1.17.04,1.88.12,2.14s.23.47.44.62.48.23.81.23c.38,0,.71-.1,1.01-.31s.5-.46.61-.77.16-1.05.16-2.24v-3.5h2.2v8.3h-2.04Z"/><path d="M46.13,108.49h2.05v1.22c.27-.42.62-.75,1.08-1.02s.96-.39,1.51-.39c.96,0,1.78.38,2.45,1.13s1.01,1.81,1.01,3.16-.34,2.46-1.02,3.23-1.5,1.15-2.46,1.15c-.46,0-.87-.09-1.25-.27s-.76-.5-1.18-.94v4.18h-2.2v-11.45ZM48.3,112.5c0,.93.18,1.62.55,2.07s.82.67,1.35.67.93-.2,1.27-.61.51-1.08.51-2.01c0-.87-.17-1.52-.52-1.94s-.78-.63-1.3-.63-.98.21-1.34.62-.53,1.03-.53,1.84Z"/><path d="M59.38,108.49h2.34l1.98,5.89,1.94-5.89h2.27l-2.93,7.98-.52,1.45c-.19.48-.38.85-.55,1.11s-.38.46-.6.62-.5.28-.84.37-.7.13-1.12.13-.84-.04-1.24-.13l-.2-1.72c.34.07.65.1.93.1.51,0,.89-.15,1.13-.45s.43-.68.56-1.14l-3.16-8.32Z"/><path d="M68.8,112.52c0-.73.18-1.43.54-2.12s.87-1.2,1.53-1.56,1.39-.54,2.21-.54c1.25,0,2.28.41,3.09,1.22s1.2,1.84,1.2,3.09-.41,2.3-1.21,3.12-1.83,1.24-3.06,1.24c-.76,0-1.49-.17-2.18-.52s-1.21-.85-1.57-1.51-.54-1.47-.54-2.43ZM71.05,112.64c0,.82.2,1.45.59,1.89s.87.66,1.45.66,1.05-.22,1.44-.66.58-1.07.58-1.91-.19-1.44-.58-1.88-.87-.66-1.44-.66-1.05.22-1.45.66-.59,1.07-.59,1.89Z"/><path d="M84.55,116.78v-1.24c-.3.44-.7.79-1.19,1.05s-1.01.38-1.56.38-1.06-.12-1.5-.37-.76-.59-.96-1.03-.3-1.05-.3-1.84v-5.25h2.2v3.81c0,1.17.04,1.88.12,2.14s.23.47.44.62.48.23.81.23c.38,0,.71-.1,1.01-.31s.5-.46.61-.77.16-1.05.16-2.24v-3.5h2.2v8.3h-2.04Z"/><path d="M90.96,116.78h-2.2v-8.3h2.04v1.18c.35-.56.66-.92.94-1.1s.59-.27.95-.27c.5,0,.98.14,1.45.41l-.68,1.91c-.37-.24-.71-.36-1.03-.36s-.57.08-.78.25-.38.48-.5.92-.18,1.37-.18,2.78v2.56Z"/><path d="M99.44,116.78v-11.45h2.2v4.12c.68-.77,1.48-1.16,2.41-1.16,1.01,0,1.85.37,2.51,1.1s.99,1.78.99,3.15-.34,2.51-1.01,3.27-1.49,1.15-2.46,1.15c-.47,0-.94-.12-1.4-.36s-.86-.59-1.19-1.05v1.22h-2.04ZM101.62,112.46c0,.86.14,1.5.41,1.91.38.58.89.88,1.52.88.48,0,.9-.21,1.24-.62s.51-1.07.51-1.96c0-.95-.17-1.63-.52-2.05s-.78-.63-1.32-.63-.96.2-1.31.61-.52,1.03-.52,1.86Z"/><path d="M111.41,116.78h-2.2v-8.3h2.04v1.18c.35-.56.66-.92.94-1.1s.59-.27.95-.27c.5,0,.98.14,1.45.41l-.68,1.91c-.37-.24-.71-.36-1.03-.36s-.57.08-.78.25-.38.48-.5.92-.18,1.37-.18,2.78v2.56Z"/><path d="M117.17,111.02l-1.99-.36c.22-.8.61-1.4,1.16-1.78s1.36-.58,2.44-.58c.98,0,1.71.12,2.19.35s.82.53,1.01.88.29,1.01.29,1.96l-.02,2.56c0,.73.04,1.27.11,1.61s.2.72.39,1.11h-2.17c-.06-.15-.13-.36-.21-.65-.04-.13-.06-.22-.08-.26-.38.36-.78.64-1.2.82s-.88.27-1.37.27c-.85,0-1.53-.23-2.02-.7s-.74-1.05-.74-1.76c0-.47.11-.89.34-1.25s.54-.65.94-.84.99-.37,1.75-.51c1.03-.19,1.74-.37,2.13-.54v-.22c0-.42-.1-.72-.31-.9s-.6-.27-1.18-.27c-.39,0-.7.08-.91.23s-.4.42-.53.81ZM120.11,112.8c-.28.09-.73.21-1.34.34s-1.01.26-1.2.38c-.29.2-.43.46-.43.77s.11.57.34.8.52.34.88.34c.4,0,.77-.13,1.13-.39.27-.2.44-.44.52-.73.06-.19.09-.54.09-1.07v-.44Z"/><path d="M131.98,116.78h-2.2v-4.23c0-.9-.05-1.48-.14-1.74s-.25-.47-.46-.61-.46-.22-.76-.22c-.38,0-.72.1-1.02.31s-.51.48-.62.83-.17.98-.17,1.91v3.76h-2.2v-8.3h2.04v1.22c.72-.94,1.64-1.41,2.73-1.41.48,0,.93.09,1.33.26s.7.4.91.67.35.58.43.92.12.84.12,1.48v5.16Z"/><path d="M141.81,116.78h-2.04v-1.22c-.34.47-.74.83-1.2,1.06s-.93.35-1.39.35c-.95,0-1.77-.38-2.45-1.15s-1.02-1.84-1.02-3.21.33-2.48.99-3.21,1.5-1.1,2.51-1.1c.93,0,1.73.39,2.41,1.16v-4.12h2.2v11.45ZM135.95,112.46c0,.89.12,1.53.37,1.92.35.57.85.86,1.48.86.5,0,.93-.21,1.29-.64s.53-1.07.53-1.93c0-.95-.17-1.64-.52-2.06s-.78-.63-1.32-.63-.96.21-1.31.62-.53,1.03-.53,1.86Z"/><path d="M143.98,116.78v-2.2h2.2v2.2h-2.2Z"/><path d="M7.41,134.9h1.14v4.96c0,.86-.1,1.55-.29,2.06s-.55.92-1.06,1.24-1.18.48-2.01.48-1.46-.14-1.97-.42-.88-.68-1.1-1.2-.33-1.24-.33-2.15v-4.96h1.14v4.96c0,.75.07,1.3.21,1.65s.38.63.71.82.75.29,1.24.29c.84,0,1.43-.19,1.79-.57s.53-1.11.53-2.19v-4.96Z"/><path d="M9.88,141.63l1.04-.16c.06.42.22.74.49.96s.64.33,1.12.33.84-.1,1.08-.3.35-.43.35-.69c0-.24-.1-.43-.31-.56-.14-.09-.5-.21-1.08-.36-.77-.2-1.31-.36-1.61-.51s-.53-.34-.68-.59-.23-.53-.23-.83c0-.28.06-.53.19-.77s.3-.43.52-.59c.16-.12.39-.22.67-.31s.59-.13.91-.13c.49,0,.92.07,1.29.21s.64.33.82.57.3.56.36.96l-1.03.14c-.05-.32-.18-.57-.41-.75s-.54-.27-.95-.27c-.48,0-.83.08-1.04.24s-.31.35-.31.56c0,.14.04.26.13.37.09.11.22.21.4.28.11.04.42.13.93.27.75.2,1.27.36,1.56.49s.53.31.69.55.25.54.25.9-.1.68-.31.99-.5.55-.89.72-.82.25-1.31.25c-.81,0-1.42-.17-1.85-.5s-.69-.83-.81-1.49Z"/><path d="M20.56,141.48l1.09.13c-.17.64-.49,1.13-.96,1.48s-1.06.53-1.78.53c-.91,0-1.63-.28-2.17-.84s-.8-1.35-.8-2.36.27-1.86.81-2.44,1.24-.87,2.1-.87,1.51.28,2.04.85.79,1.36.79,2.39c0,.06,0,.16,0,.28h-4.64c.04.68.23,1.21.58,1.57s.78.54,1.3.54c.39,0,.72-.1.99-.3s.49-.53.65-.97ZM17.1,139.78h3.47c-.05-.52-.18-.92-.4-1.18-.34-.41-.77-.61-1.31-.61-.48,0-.89.16-1.22.49s-.51.76-.55,1.3Z"/><path d="M28.61,142.54l.15.93c-.3.06-.56.09-.8.09-.38,0-.68-.06-.89-.18s-.36-.28-.45-.48-.13-.61-.13-1.25v-3.58h-.77v-.82h.77v-1.54l1.05-.63v2.17h1.06v.82h-1.06v3.64c0,.3.02.49.06.58s.1.15.18.21.2.08.36.08c.12,0,.27-.01.46-.04Z"/><path d="M29.64,143.49v-8.59h1.05v3.08c.49-.57,1.11-.86,1.86-.86.46,0,.86.09,1.2.27s.58.43.73.75.22.79.22,1.39v3.94h-1.05v-3.94c0-.53-.11-.91-.34-1.15s-.55-.36-.97-.36c-.31,0-.61.08-.88.24s-.47.38-.59.66-.18.66-.18,1.15v3.4h-1.05Z"/><path d="M36.32,136.11v-1.21h1.05v1.21h-1.05ZM36.32,143.49v-6.22h1.05v6.22h-1.05Z"/><path d="M38.56,141.63l1.04-.16c.06.42.22.74.49.96s.64.33,1.12.33.84-.1,1.08-.3.35-.43.35-.69c0-.24-.1-.43-.31-.56-.14-.09-.5-.21-1.08-.36-.77-.2-1.31-.36-1.61-.51s-.53-.34-.68-.59-.23-.53-.23-.83c0-.28.06-.53.19-.77s.3-.43.52-.59c.16-.12.39-.22.67-.31s.59-.13.91-.13c.49,0,.92.07,1.29.21s.64.33.82.57.3.56.36.96l-1.03.14c-.05-.32-.18-.57-.41-.75s-.54-.27-.95-.27c-.48,0-.83.08-1.04.24s-.31.35-.31.56c0,.14.04.26.13.37.09.11.22.21.4.28.11.04.42.13.93.27.75.2,1.27.36,1.56.49s.53.31.69.55.25.54.25.9-.1.68-.31.99-.5.55-.89.72-.82.25-1.31.25c-.81,0-1.42-.17-1.85-.5s-.69-.83-.81-1.49Z"/><path d="M47.9,141.63l1.04-.16c.06.42.22.74.49.96s.64.33,1.12.33.84-.1,1.08-.3.35-.43.35-.69c0-.24-.1-.43-.31-.56-.14-.09-.5-.21-1.08-.36-.77-.2-1.31-.36-1.61-.51s-.53-.34-.68-.59-.23-.53-.23-.83c0-.28.06-.53.19-.77s.3-.43.52-.59c.16-.12.39-.22.67-.31s.59-.13.91-.13c.49,0,.92.07,1.29.21s.64.33.82.57.3.56.36.96l-1.03.14c-.05-.32-.18-.57-.41-.75s-.54-.27-.95-.27c-.48,0-.83.08-1.04.24s-.31.35-.31.56c0,.14.04.26.13.37.09.11.22.21.4.28.11.04.42.13.93.27.75.2,1.27.36,1.56.49s.53.31.69.55.25.54.25.9-.1.68-.31.99-.5.55-.89.72-.82.25-1.31.25c-.81,0-1.42-.17-1.85-.5s-.69-.83-.81-1.49Z"/><path d="M54.32,145.87v-8.61h.96v.81c.23-.32.48-.55.77-.71s.63-.24,1.04-.24c.53,0,1,.14,1.41.41s.71.66.92,1.16.31,1.04.31,1.64c0,.64-.11,1.21-.34,1.72s-.56.9-1,1.17-.89.41-1.37.41c-.35,0-.67-.07-.95-.22s-.51-.34-.69-.56v3.03h-1.05ZM55.27,140.41c0,.8.16,1.39.49,1.78s.72.57,1.18.57.87-.2,1.2-.59.5-1.01.5-1.84-.16-1.39-.49-1.78-.72-.59-1.17-.59-.85.21-1.19.63-.52,1.03-.52,1.83Z"/><path d="M65.05,142.72c-.39.33-.77.57-1.13.7s-.75.21-1.16.21c-.68,0-1.21-.17-1.58-.5s-.55-.76-.55-1.28c0-.3.07-.58.21-.83s.32-.45.54-.61.48-.27.76-.35c.21-.05.52-.11.94-.16.85-.1,1.48-.22,1.88-.36,0-.14,0-.24,0-.28,0-.43-.1-.73-.3-.91-.27-.24-.67-.36-1.2-.36-.5,0-.86.09-1.1.26s-.41.48-.52.92l-1.03-.14c.09-.44.25-.8.46-1.07s.53-.48.93-.63.88-.22,1.41-.22.96.06,1.29.19.58.28.73.47.27.43.33.72c.04.18.05.5.05.97v1.41c0,.98.02,1.6.07,1.86s.13.51.27.75h-1.1c-.11-.22-.18-.47-.21-.77ZM64.96,140.36c-.38.16-.96.29-1.72.4-.43.06-.74.13-.92.21s-.32.19-.42.34-.15.32-.15.5c0,.28.11.52.32.7s.52.28.93.28.77-.09,1.08-.27.55-.42.7-.73c.11-.24.17-.59.17-1.05v-.39Z"/><path d="M71.73,141.21l1.04.13c-.11.71-.4,1.27-.87,1.68s-1.04.61-1.72.61c-.85,0-1.54-.28-2.05-.83s-.78-1.35-.78-2.39c0-.67.11-1.26.33-1.76s.56-.88,1.02-1.13.95-.38,1.49-.38c.68,0,1.23.17,1.66.51s.71.83.83,1.46l-1.03.16c-.1-.42-.27-.73-.52-.94s-.55-.32-.9-.32c-.53,0-.96.19-1.29.57s-.5.98-.5,1.81.16,1.44.48,1.82.74.57,1.25.57c.41,0,.76-.13,1.04-.38s.45-.64.53-1.17Z"/><path d="M77.93,141.48l1.09.13c-.17.64-.49,1.13-.96,1.48s-1.06.53-1.78.53c-.91,0-1.63-.28-2.17-.84s-.8-1.35-.8-2.36.27-1.86.81-2.44,1.24-.87,2.1-.87,1.51.28,2.04.85.79,1.36.79,2.39c0,.06,0,.16,0,.28h-4.64c.04.68.23,1.21.58,1.57s.78.54,1.3.54c.39,0,.72-.1.99-.3s.49-.53.65-.97ZM74.46,139.78h3.47c-.05-.52-.18-.92-.4-1.18-.34-.41-.77-.61-1.31-.61-.48,0-.89.16-1.22.49s-.51.76-.55,1.3Z"/><path d="M85.98,142.54l.15.93c-.3.06-.56.09-.8.09-.38,0-.68-.06-.89-.18s-.36-.28-.45-.48-.13-.61-.13-1.25v-3.58h-.77v-.82h.77v-1.54l1.05-.63v2.17h1.06v.82h-1.06v3.64c0,.3.02.49.06.58s.1.15.18.21.2.08.36.08c.12,0,.27-.01.46-.04Z"/><path d="M86.62,140.38c0-1.15.32-2.01.96-2.56.54-.46,1.19-.69,1.96-.69.86,0,1.55.28,2.1.84s.81,1.33.81,2.32c0,.8-.12,1.43-.36,1.89s-.59.82-1.05,1.07-.96.38-1.5.38c-.87,0-1.58-.28-2.11-.84s-.81-1.36-.81-2.41ZM87.7,140.38c0,.8.17,1.39.52,1.79s.79.59,1.31.59.96-.2,1.31-.6.52-1.01.52-1.82c0-.77-.17-1.35-.52-1.75s-.78-.59-1.3-.59-.96.2-1.31.59-.52.99-.52,1.79Z"/><path d="M101.08,142.72c-.39.33-.77.57-1.13.7s-.75.21-1.16.21c-.68,0-1.21-.17-1.58-.5s-.55-.76-.55-1.28c0-.3.07-.58.21-.83s.32-.45.54-.61.48-.27.76-.35c.21-.05.52-.11.94-.16.85-.1,1.48-.22,1.88-.36,0-.14,0-.24,0-.28,0-.43-.1-.73-.3-.91-.27-.24-.67-.36-1.2-.36-.5,0-.86.09-1.1.26s-.41.48-.52.92l-1.03-.14c.09-.44.25-.8.46-1.07s.53-.48.93-.63.88-.22,1.41-.22.96.06,1.29.19.58.28.73.47.27.43.33.72c.04.18.05.5.05.97v1.41c0,.98.02,1.6.07,1.86s.13.51.27.75h-1.1c-.11-.22-.18-.47-.21-.77ZM100.99,140.36c-.38.16-.96.29-1.72.4-.43.06-.74.13-.92.21s-.32.19-.42.34-.15.32-.15.5c0,.28.11.52.32.7s.52.28.93.28.77-.09,1.08-.27.55-.42.7-.73c.11-.24.17-.59.17-1.05v-.39Z"/><path d="M107.73,143.49v-.79c-.39.62-.97.93-1.74.93-.5,0-.95-.14-1.37-.41s-.74-.66-.97-1.15-.34-1.05-.34-1.69.1-1.18.31-1.69.52-.89.93-1.16.88-.4,1.39-.4c.38,0,.71.08,1,.24s.53.36.71.62v-3.08h1.05v8.59h-.98ZM104.39,140.38c0,.8.17,1.39.5,1.79s.73.59,1.19.59.85-.19,1.17-.57.48-.95.48-1.73c0-.85-.16-1.48-.49-1.88s-.73-.6-1.21-.6-.86.19-1.17.57-.47.99-.47,1.81Z"/><path d="M114.4,143.49v-.79c-.39.62-.97.93-1.74.93-.5,0-.95-.14-1.37-.41s-.74-.66-.97-1.15-.34-1.05-.34-1.69.1-1.18.31-1.69.52-.89.93-1.16.88-.4,1.39-.4c.38,0,.71.08,1,.24s.53.36.71.62v-3.08h1.05v8.59h-.98ZM111.07,140.38c0,.8.17,1.39.5,1.79s.73.59,1.19.59.85-.19,1.17-.57.48-.95.48-1.73c0-.85-.16-1.48-.49-1.88s-.73-.6-1.21-.6-.86.19-1.17.57-.47.99-.47,1.81Z"/><path d="M120.37,143.49v-6.22h.94v.87c.2-.3.46-.55.78-.74s.69-.28,1.11-.28c.46,0,.84.1,1.13.29s.5.46.62.8c.49-.73,1.13-1.09,1.92-1.09.62,0,1.09.17,1.42.51s.5.87.5,1.58v4.27h-1.05v-3.92c0-.42-.03-.73-.1-.91s-.19-.33-.37-.45-.39-.17-.63-.17c-.44,0-.8.15-1.09.44s-.43.76-.43,1.4v3.62h-1.05v-4.04c0-.47-.09-.82-.26-1.05s-.45-.35-.84-.35c-.3,0-.57.08-.82.23s-.43.38-.55.69-.17.73-.17,1.3v3.23h-1.05Z"/><path d="M129.97,140.38c0-1.15.32-2.01.96-2.56.54-.46,1.19-.69,1.96-.69.86,0,1.55.28,2.1.84s.81,1.33.81,2.32c0,.8-.12,1.43-.36,1.89s-.59.82-1.05,1.07-.96.38-1.5.38c-.87,0-1.58-.28-2.11-.84s-.81-1.36-.81-2.41ZM131.06,140.38c0,.8.17,1.39.52,1.79s.79.59,1.31.59.96-.2,1.31-.6.52-1.01.52-1.82c0-.77-.17-1.35-.52-1.75s-.78-.59-1.3-.59-.96.2-1.31.59-.52.99-.52,1.79Z"/><path d="M137.03,143.49v-6.22h.95v.94c.24-.44.47-.73.67-.87s.43-.21.68-.21c.36,0,.72.11,1.08.34l-.36.98c-.26-.15-.52-.23-.77-.23-.23,0-.44.07-.62.21s-.31.33-.39.58c-.12.38-.18.79-.18,1.23v3.26h-1.05Z"/><path d="M145.3,141.48l1.09.13c-.17.64-.49,1.13-.96,1.48s-1.06.53-1.78.53c-.91,0-1.63-.28-2.17-.84s-.8-1.35-.8-2.36.27-1.86.81-2.44,1.24-.87,2.1-.87,1.51.28,2.04.85.79,1.36.79,2.39c0,.06,0,.16,0,.28h-4.64c.04.68.23,1.21.58,1.57s.78.54,1.3.54c.39,0,.72-.1.99-.3s.49-.53.65-.97ZM141.83,139.78h3.47c-.05-.52-.18-.92-.4-1.18-.34-.41-.77-.61-1.31-.61-.48,0-.89.16-1.22.49s-.51.76-.55,1.3Z"/><path d="M155.08,143.49v-.79c-.39.62-.97.93-1.74.93-.5,0-.95-.14-1.37-.41s-.74-.66-.97-1.15-.34-1.05-.34-1.69.1-1.18.31-1.69.52-.89.93-1.16.88-.4,1.39-.4c.38,0,.71.08,1,.24s.53.36.71.62v-3.08h1.05v8.59h-.98ZM151.75,140.38c0,.8.17,1.39.5,1.79s.73.59,1.19.59.85-.19,1.17-.57.48-.95.48-1.73c0-.85-.16-1.48-.49-1.88s-.73-.6-1.21-.6-.86.19-1.17.57-.47.99-.47,1.81Z"/><path d="M161.98,141.48l1.09.13c-.17.64-.49,1.13-.96,1.48s-1.06.53-1.78.53c-.91,0-1.63-.28-2.17-.84s-.8-1.35-.8-2.36.27-1.86.81-2.44,1.24-.87,2.1-.87,1.51.28,2.04.85.79,1.36.79,2.39c0,.06,0,.16,0,.28h-4.64c.04.68.23,1.21.58,1.57s.78.54,1.3.54c.39,0,.72-.1.99-.3s.49-.53.65-.97ZM158.52,139.78h3.47c-.05-.52-.18-.92-.4-1.18-.34-.41-.77-.61-1.31-.61-.48,0-.89.16-1.22.49s-.51.76-.55,1.3Z"/><path d="M166.7,142.54l.15.93c-.3.06-.56.09-.8.09-.38,0-.68-.06-.89-.18s-.36-.28-.45-.48-.13-.61-.13-1.25v-3.58h-.77v-.82h.77v-1.54l1.05-.63v2.17h1.06v.82h-1.06v3.64c0,.3.02.49.06.58s.1.15.18.21.2.08.36.08c.12,0,.27-.01.46-.04Z"/><path d="M171.79,142.72c-.39.33-.77.57-1.13.7s-.75.21-1.16.21c-.68,0-1.21-.17-1.58-.5s-.55-.76-.55-1.28c0-.3.07-.58.21-.83s.32-.45.54-.61.48-.27.76-.35c.21-.05.52-.11.94-.16.85-.1,1.48-.22,1.88-.36,0-.14,0-.24,0-.28,0-.43-.1-.73-.3-.91-.27-.24-.67-.36-1.2-.36-.5,0-.86.09-1.1.26s-.41.48-.52.92l-1.03-.14c.09-.44.25-.8.46-1.07s.53-.48.93-.63.88-.22,1.41-.22.96.06,1.29.19.58.28.73.47.27.43.33.72c.04.18.05.5.05.97v1.41c0,.98.02,1.6.07,1.86s.13.51.27.75h-1.1c-.11-.22-.18-.47-.21-.77ZM171.7,140.36c-.38.16-.96.29-1.72.4-.43.06-.74.13-.92.21s-.32.19-.42.34-.15.32-.15.5c0,.28.11.52.32.7s.52.28.93.28.77-.09,1.08-.27.55-.42.7-.73c.11-.24.17-.59.17-1.05v-.39Z"/><path d="M174.41,136.11v-1.21h1.05v1.21h-1.05ZM174.41,143.49v-6.22h1.05v6.22h-1.05Z"/><path d="M177.04,143.49v-8.59h1.05v8.59h-1.05Z"/><path d="M179.31,141.63l1.04-.16c.06.42.22.74.49.96s.64.33,1.12.33.84-.1,1.08-.3.35-.43.35-.69c0-.24-.1-.43-.31-.56-.14-.09-.5-.21-1.08-.36-.77-.2-1.31-.36-1.61-.51s-.53-.34-.68-.59-.23-.53-.23-.83c0-.28.06-.53.19-.77s.3-.43.52-.59c.16-.12.39-.22.67-.31s.59-.13.91-.13c.49,0,.92.07,1.29.21s.64.33.82.57.3.56.36.96l-1.03.14c-.05-.32-.18-.57-.41-.75s-.54-.27-.95-.27c-.48,0-.83.08-1.04.24s-.31.35-.31.56c0,.14.04.26.13.37.09.11.22.21.4.28.11.04.42.13.93.27.75.2,1.27.36,1.56.49s.53.31.69.55.25.54.25.9-.1.68-.31.99-.5.55-.89.72-.82.25-1.31.25c-.81,0-1.42-.17-1.85-.5s-.69-.83-.81-1.49Z"/><path d="M193.13,142.72c-.39.33-.77.57-1.13.7s-.75.21-1.16.21c-.68,0-1.21-.17-1.58-.5s-.55-.76-.55-1.28c0-.3.07-.58.21-.83s.32-.45.54-.61.48-.27.76-.35c.21-.05.52-.11.94-.16.85-.1,1.48-.22,1.88-.36,0-.14,0-.24,0-.28,0-.43-.1-.73-.3-.91-.27-.24-.67-.36-1.2-.36-.5,0-.86.09-1.1.26s-.41.48-.52.92l-1.03-.14c.09-.44.25-.8.46-1.07s.53-.48.93-.63.88-.22,1.41-.22.96.06,1.29.19.58.28.73.47.27.43.33.72c.04.18.05.5.05.97v1.41c0,.98.02,1.6.07,1.86s.13.51.27.75h-1.1c-.11-.22-.18-.47-.21-.77ZM193.04,140.36c-.38.16-.96.29-1.72.4-.43.06-.74.13-.92.21s-.32.19-.42.34-.15.32-.15.5c0,.28.11.52.32.7s.52.28.93.28.77-.09,1.08-.27.55-.42.7-.73c.11-.24.17-.59.17-1.05v-.39Z"/><path d="M196.71,143.49h-.98v-8.59h1.05v3.06c.45-.56,1.01-.84,1.71-.84.38,0,.75.08,1.09.23s.62.37.84.65.39.62.52,1.01.19.82.19,1.27c0,1.07-.26,1.89-.79,2.47s-1.16.87-1.9.87-1.31-.31-1.73-.92v.78ZM196.7,140.33c0,.75.1,1.29.3,1.62.33.54.78.81,1.35.81.46,0,.86-.2,1.2-.6s.5-1,.5-1.79-.16-1.41-.48-1.8-.71-.58-1.17-.58-.86.2-1.2.6-.5.98-.5,1.74Z"/><path d="M202.02,140.38c0-1.15.32-2.01.96-2.56.54-.46,1.19-.69,1.96-.69.86,0,1.55.28,2.1.84s.81,1.33.81,2.32c0,.8-.12,1.43-.36,1.89s-.59.82-1.05,1.07-.96.38-1.5.38c-.87,0-1.58-.28-2.11-.84s-.81-1.36-.81-2.41ZM203.11,140.38c0,.8.17,1.39.52,1.79s.79.59,1.31.59.96-.2,1.31-.6.52-1.01.52-1.82c0-.77-.17-1.35-.52-1.75s-.78-.59-1.3-.59-.96.2-1.31.59-.52.99-.52,1.79Z"/><path d="M213.17,143.49v-.91c-.48.7-1.14,1.05-1.97,1.05-.37,0-.71-.07-1.03-.21s-.55-.32-.71-.53-.26-.47-.33-.78c-.04-.21-.06-.54-.06-.98v-3.86h1.05v3.45c0,.55.02.92.06,1.11.07.28.21.5.42.65s.48.24.8.24.61-.08.89-.24.47-.38.59-.66.17-.68.17-1.22v-3.33h1.05v6.22h-.94Z"/><path d="M218.06,142.54l.15.93c-.3.06-.56.09-.8.09-.38,0-.68-.06-.89-.18s-.36-.28-.45-.48-.13-.61-.13-1.25v-3.58h-.77v-.82h.77v-1.54l1.05-.63v2.17h1.06v.82h-1.06v3.64c0,.3.02.49.06.58s.1.15.18.21.2.08.36.08c.12,0,.27-.01.46-.04Z"/><path d="M222.38,145.88l-.12-.99c.23.06.43.09.6.09.23,0,.42-.04.56-.12s.26-.19.35-.33c.07-.11.17-.37.32-.79.02-.06.05-.14.09-.26l-2.36-6.23h1.14l1.29,3.6c.17.46.32.94.45,1.44.12-.48.27-.96.43-1.42l1.33-3.63h1.05l-2.37,6.33c-.25.68-.45,1.15-.59,1.41-.19.35-.4.6-.64.76s-.53.24-.87.24c-.2,0-.43-.04-.68-.13Z"/><path d="M228.04,140.38c0-1.15.32-2.01.96-2.56.54-.46,1.19-.69,1.96-.69.86,0,1.55.28,2.1.84s.81,1.33.81,2.32c0,.8-.12,1.43-.36,1.89s-.59.82-1.05,1.07-.96.38-1.5.38c-.87,0-1.58-.28-2.11-.84s-.81-1.36-.81-2.41ZM229.12,140.38c0,.8.17,1.39.52,1.79s.79.59,1.31.59.96-.2,1.31-.6.52-1.01.52-1.82c0-.77-.17-1.35-.52-1.75s-.78-.59-1.3-.59-.96.2-1.31.59-.52.99-.52,1.79Z"/><path d="M239.18,143.49v-.91c-.48.7-1.14,1.05-1.97,1.05-.37,0-.71-.07-1.03-.21s-.55-.32-.71-.53-.26-.47-.33-.78c-.04-.21-.06-.54-.06-.98v-3.86h1.05v3.45c0,.55.02.92.06,1.11.07.28.21.5.42.65s.48.24.8.24.61-.08.89-.24.47-.38.59-.66.17-.68.17-1.22v-3.33h1.05v6.22h-.94Z"/><path d="M241.77,143.49v-6.22h.95v.94c.24-.44.47-.73.67-.87s.43-.21.68-.21c.36,0,.72.11,1.08.34l-.36.98c-.26-.15-.52-.23-.77-.23-.23,0-.44.07-.62.21s-.31.33-.39.58c-.12.38-.18.79-.18,1.23v3.26h-1.05Z"/><path d="M2.61,157.89h-.98v-8.59h1.05v3.06c.45-.56,1.01-.84,1.71-.84.38,0,.75.08,1.09.23s.62.37.84.65.39.62.52,1.01.19.82.19,1.27c0,1.07-.26,1.89-.79,2.47s-1.16.87-1.9.87-1.31-.31-1.73-.92v.78ZM2.6,154.73c0,.75.1,1.29.3,1.62.33.54.78.81,1.35.81.46,0,.86-.2,1.2-.6s.5-1,.5-1.79-.16-1.41-.48-1.8-.71-.58-1.17-.58-.86.2-1.2.6-.5.98-.5,1.74Z"/><path d="M8.3,157.89v-6.22h.95v.94c.24-.44.47-.73.67-.87s.43-.21.68-.21c.36,0,.72.11,1.08.34l-.36.98c-.26-.15-.52-.23-.77-.23-.23,0-.44.07-.62.21s-.31.33-.39.58c-.12.38-.18.79-.18,1.23v3.26h-1.05Z"/><path d="M16.37,157.12c-.39.33-.77.57-1.13.7s-.75.21-1.16.21c-.68,0-1.21-.17-1.58-.5s-.55-.76-.55-1.28c0-.3.07-.58.21-.83s.32-.45.54-.61.48-.27.76-.35c.21-.05.52-.11.94-.16.85-.1,1.48-.22,1.88-.36,0-.14,0-.24,0-.28,0-.43-.1-.73-.3-.91-.27-.24-.67-.36-1.2-.36-.5,0-.86.09-1.1.26s-.41.48-.52.92l-1.03-.14c.09-.44.25-.8.46-1.07s.53-.48.93-.63.88-.22,1.41-.22.96.06,1.29.19.58.28.73.47.27.43.33.72c.04.18.05.5.05.97v1.41c0,.98.02,1.6.07,1.86s.13.51.27.75h-1.1c-.11-.22-.18-.47-.21-.77ZM16.28,154.76c-.38.16-.96.29-1.72.4-.43.06-.74.13-.92.21s-.32.19-.42.34-.15.32-.15.5c0,.28.11.52.32.7s.52.28.93.28.77-.09,1.08-.27.55-.42.7-.73c.11-.24.17-.59.17-1.05v-.39Z"/><path d="M18.98,157.89v-6.22h.95v.88c.46-.68,1.12-1.03,1.98-1.03.38,0,.72.07,1.03.2s.55.31.71.53.27.48.33.78c.04.2.06.54.06,1.03v3.83h-1.05v-3.79c0-.43-.04-.75-.12-.96s-.23-.38-.44-.51-.45-.19-.74-.19c-.45,0-.84.14-1.16.43s-.49.83-.49,1.62v3.4h-1.05Z"/><path d="M29.69,157.89v-.79c-.39.62-.97.93-1.74.93-.5,0-.95-.14-1.37-.41s-.74-.66-.97-1.15-.34-1.05-.34-1.69.1-1.18.31-1.69.52-.89.93-1.16.88-.4,1.39-.4c.38,0,.71.08,1,.24s.53.36.71.62v-3.08h1.05v8.59h-.98ZM26.36,154.78c0,.8.17,1.39.5,1.79s.73.59,1.19.59.85-.19,1.17-.57.48-.95.48-1.73c0-.85-.16-1.48-.49-1.88s-.73-.6-1.21-.6-.86.19-1.17.57-.47.99-.47,1.81Z"/><path d="M32.6,157.89v-1.2h1.2v1.2c0,.44-.08.8-.23,1.07s-.4.48-.74.63l-.29-.45c.22-.1.39-.24.49-.43s.16-.46.18-.82h-.6Z"/><path d="M43.06,157.12c-.39.33-.77.57-1.13.7s-.75.21-1.16.21c-.68,0-1.21-.17-1.58-.5s-.55-.76-.55-1.28c0-.3.07-.58.21-.83s.32-.45.54-.61.48-.27.76-.35c.21-.05.52-.11.94-.16.85-.1,1.48-.22,1.88-.36,0-.14,0-.24,0-.28,0-.43-.1-.73-.3-.91-.27-.24-.67-.36-1.2-.36-.5,0-.86.09-1.1.26s-.41.48-.52.92l-1.03-.14c.09-.44.25-.8.46-1.07s.53-.48.93-.63.88-.22,1.41-.22.96.06,1.29.19.58.28.73.47.27.43.33.72c.04.18.05.5.05.97v1.41c0,.98.02,1.6.07,1.86s.13.51.27.75h-1.1c-.11-.22-.18-.47-.21-.77ZM42.97,154.76c-.38.16-.96.29-1.72.4-.43.06-.74.13-.92.21s-.32.19-.42.34-.15.32-.15.5c0,.28.11.52.32.7s.52.28.93.28.77-.09,1.08-.27.55-.42.7-.73c.11-.24.17-.59.17-1.05v-.39Z"/><path d="M53.06,155.61l1.04.13c-.11.71-.4,1.27-.87,1.68s-1.04.61-1.72.61c-.85,0-1.54-.28-2.05-.83s-.78-1.35-.78-2.39c0-.67.11-1.26.33-1.76s.56-.88,1.02-1.13.95-.38,1.49-.38c.68,0,1.23.17,1.66.51s.71.83.83,1.46l-1.03.16c-.1-.42-.27-.73-.52-.94s-.55-.32-.9-.32c-.53,0-.96.19-1.29.57s-.5.98-.5,1.81.16,1.44.48,1.82.74.57,1.25.57c.41,0,.76-.13,1.04-.38s.45-.64.53-1.17Z"/><path d="M59.08,157.89v-.91c-.48.7-1.14,1.05-1.97,1.05-.37,0-.71-.07-1.03-.21s-.55-.32-.71-.53-.26-.47-.33-.78c-.04-.21-.06-.54-.06-.98v-3.86h1.05v3.45c0,.55.02.92.06,1.11.07.28.21.5.42.65s.48.24.8.24.61-.08.89-.24.47-.38.59-.66.17-.68.17-1.22v-3.33h1.05v6.22h-.94Z"/><path d="M61.26,156.03l1.04-.16c.06.42.22.74.49.96s.64.33,1.12.33.84-.1,1.08-.3.35-.43.35-.69c0-.24-.1-.43-.31-.56-.14-.09-.5-.21-1.08-.36-.77-.2-1.31-.36-1.61-.51s-.53-.34-.68-.59-.23-.53-.23-.83c0-.28.06-.53.19-.77s.3-.43.52-.59c.16-.12.39-.22.67-.31s.59-.13.91-.13c.49,0,.92.07,1.29.21s.64.33.82.57.3.56.36.96l-1.03.14c-.05-.32-.18-.57-.41-.75s-.54-.27-.95-.27c-.48,0-.83.08-1.04.24s-.31.35-.31.56c0,.14.04.26.13.37.09.11.22.21.4.28.11.04.42.13.93.27.75.2,1.27.36,1.56.49s.53.31.69.55.25.54.25.9-.1.68-.31.99-.5.55-.89.72-.82.25-1.31.25c-.81,0-1.42-.17-1.85-.5s-.69-.83-.81-1.49Z"/><path d="M69.98,156.94l.15.93c-.3.06-.56.09-.8.09-.38,0-.68-.06-.89-.18s-.36-.28-.45-.48-.13-.61-.13-1.25v-3.58h-.77v-.82h.77v-1.54l1.05-.63v2.17h1.06v.82h-1.06v3.64c0,.3.02.49.06.58s.1.15.18.21.2.08.36.08c.12,0,.27-.01.46-.04Z"/><path d="M70.62,154.78c0-1.15.32-2.01.96-2.56.54-.46,1.19-.69,1.96-.69.86,0,1.55.28,2.1.84s.81,1.33.81,2.32c0,.8-.12,1.43-.36,1.89s-.59.82-1.05,1.07-.96.38-1.5.38c-.87,0-1.58-.28-2.11-.84s-.81-1.36-.81-2.41ZM71.7,154.78c0,.8.17,1.39.52,1.79s.79.59,1.31.59.96-.2,1.31-.6.52-1.01.52-1.82c0-.77-.17-1.35-.52-1.75s-.78-.59-1.3-.59-.96.2-1.31.59-.52.99-.52,1.79Z"/><path d="M77.69,157.89v-6.22h.94v.87c.2-.3.46-.55.78-.74s.69-.28,1.11-.28c.46,0,.84.1,1.13.29s.5.46.62.8c.49-.73,1.13-1.09,1.92-1.09.62,0,1.09.17,1.42.51s.5.87.5,1.58v4.27h-1.05v-3.92c0-.42-.03-.73-.1-.91s-.19-.33-.37-.45-.39-.17-.63-.17c-.44,0-.8.15-1.09.44s-.43.76-.43,1.4v3.62h-1.05v-4.04c0-.47-.09-.82-.26-1.05s-.45-.35-.84-.35c-.3,0-.57.08-.82.23s-.43.38-.55.69-.17.73-.17,1.3v3.23h-1.05Z"/><path d="M91.94,155.88l1.09.13c-.17.64-.49,1.13-.96,1.48s-1.06.53-1.78.53c-.91,0-1.63-.28-2.17-.84s-.8-1.35-.8-2.36.27-1.86.81-2.44,1.24-.87,2.1-.87,1.51.28,2.04.85.79,1.36.79,2.39c0,.06,0,.16,0,.28h-4.64c.04.68.23,1.21.58,1.57s.78.54,1.3.54c.39,0,.72-.1.99-.3s.49-.53.65-.97ZM88.48,154.18h3.47c-.05-.52-.18-.92-.4-1.18-.34-.41-.77-.61-1.31-.61-.48,0-.89.16-1.22.49s-.51.76-.55,1.3Z"/><path d="M94.34,157.89v-6.22h.95v.94c.24-.44.47-.73.67-.87s.43-.21.68-.21c.36,0,.72.11,1.08.34l-.36.98c-.26-.15-.52-.23-.77-.23-.23,0-.44.07-.62.21s-.31.33-.39.58c-.12.38-.18.79-.18,1.23v3.26h-1.05Z"/><path d="M105.65,160.27v-3.05c-.16.23-.39.42-.69.57s-.61.23-.94.23c-.74,0-1.37-.29-1.91-.88s-.8-1.4-.8-2.43c0-.62.11-1.19.33-1.68s.53-.87.94-1.13.86-.38,1.36-.38c.77,0,1.38.32,1.82.97v-.83h.95v8.61h-1.05ZM102.4,154.76c0,.8.17,1.4.5,1.8s.74.6,1.21.6.84-.19,1.16-.57.49-.96.49-1.74c0-.83-.17-1.45-.51-1.87s-.74-.63-1.2-.63-.84.19-1.16.58-.48,1-.48,1.82Z"/><path d="M112.44,157.89v-.91c-.48.7-1.14,1.05-1.97,1.05-.37,0-.71-.07-1.03-.21s-.55-.32-.71-.53-.26-.47-.33-.78c-.04-.21-.06-.54-.06-.98v-3.86h1.05v3.45c0,.55.02.92.06,1.11.07.28.21.5.42.65s.48.24.8.24.61-.08.89-.24.47-.38.59-.66.17-.68.17-1.22v-3.33h1.05v6.22h-.94Z"/><path d="M114.64,154.78c0-1.15.32-2.01.96-2.56.54-.46,1.19-.69,1.96-.69.86,0,1.55.28,2.1.84s.81,1.33.81,2.32c0,.8-.12,1.43-.36,1.89s-.59.82-1.05,1.07-.96.38-1.5.38c-.87,0-1.58-.28-2.11-.84s-.81-1.36-.81-2.41ZM115.72,154.78c0,.8.17,1.39.52,1.79s.79.59,1.31.59.96-.2,1.31-.6.52-1.01.52-1.82c0-.77-.17-1.35-.52-1.75s-.78-.59-1.3-.59-.96.2-1.31.59-.52.99-.52,1.79Z"/><path d="M124.01,156.94l.15.93c-.3.06-.56.09-.8.09-.38,0-.68-.06-.89-.18s-.36-.28-.45-.48-.13-.61-.13-1.25v-3.58h-.77v-.82h.77v-1.54l1.05-.63v2.17h1.06v.82h-1.06v3.64c0,.3.02.49.06.58s.1.15.18.21.2.08.36.08c.12,0,.27-.01.46-.04Z"/><path d="M129.3,155.88l1.09.13c-.17.64-.49,1.13-.96,1.48s-1.06.53-1.78.53c-.91,0-1.63-.28-2.17-.84s-.8-1.35-.8-2.36.27-1.86.81-2.44,1.24-.87,2.1-.87,1.51.28,2.04.85.79,1.36.79,2.39c0,.06,0,.16,0,.28h-4.64c.04.68.23,1.21.58,1.57s.78.54,1.3.54c.39,0,.72-.1.99-.3s.49-.53.65-.97ZM125.84,154.18h3.47c-.05-.52-.18-.92-.4-1.18-.34-.41-.77-.61-1.31-.61-.48,0-.89.16-1.22.49s-.51.76-.55,1.3Z"/><path d="M131.99,157.89v-1.2h1.2v1.2c0,.44-.08.8-.23,1.07s-.4.48-.74.63l-.29-.45c.22-.1.39-.24.49-.43s.16-.46.18-.82h-.6Z"/><path d="M137.99,154.78c0-1.15.32-2.01.96-2.56.54-.46,1.19-.69,1.96-.69.86,0,1.55.28,2.1.84s.81,1.33.81,2.32c0,.8-.12,1.43-.36,1.89s-.59.82-1.05,1.07-.96.38-1.5.38c-.87,0-1.58-.28-2.11-.84s-.81-1.36-.81-2.41ZM139.07,154.78c0,.8.17,1.39.52,1.79s.79.59,1.31.59.96-.2,1.31-.6.52-1.01.52-1.82c0-.77-.17-1.35-.52-1.75s-.78-.59-1.3-.59-.96.2-1.31.59-.52.99-.52,1.79Z"/><path d="M145.04,157.89v-6.22h.95v.94c.24-.44.47-.73.67-.87s.43-.21.68-.21c.36,0,.72.11,1.08.34l-.36.98c-.26-.15-.52-.23-.77-.23-.23,0-.44.07-.62.21s-.31.33-.39.58c-.12.38-.18.79-.18,1.23v3.26h-1.05Z"/><path d="M154.69,156.94l.15.93c-.3.06-.56.09-.8.09-.38,0-.68-.06-.89-.18s-.36-.28-.45-.48-.13-.61-.13-1.25v-3.58h-.77v-.82h.77v-1.54l1.05-.63v2.17h1.06v.82h-1.06v3.64c0,.3.02.49.06.58s.1.15.18.21.2.08.36.08c.12,0,.27-.01.46-.04Z"/><path d="M155.33,154.78c0-1.15.32-2.01.96-2.56.54-.46,1.19-.69,1.96-.69.86,0,1.55.28,2.1.84s.81,1.33.81,2.32c0,.8-.12,1.43-.36,1.89s-.59.82-1.05,1.07-.96.38-1.5.38c-.87,0-1.58-.28-2.11-.84s-.81-1.36-.81-2.41ZM156.41,154.78c0,.8.17,1.39.52,1.79s.79.59,1.31.59.96-.2,1.31-.6.52-1.01.52-1.82c0-.77-.17-1.35-.52-1.75s-.78-.59-1.3-.59-.96.2-1.31.59-.52.99-.52,1.79Z"/><path d="M168.03,156.94l.15.93c-.3.06-.56.09-.8.09-.38,0-.68-.06-.89-.18s-.36-.28-.45-.48-.13-.61-.13-1.25v-3.58h-.77v-.82h.77v-1.54l1.05-.63v2.17h1.06v.82h-1.06v3.64c0,.3.02.49.06.58s.1.15.18.21.2.08.36.08c.12,0,.27-.01.46-.04Z"/><path d="M173.12,157.12c-.39.33-.77.57-1.13.7s-.75.21-1.16.21c-.68,0-1.21-.17-1.58-.5s-.55-.76-.55-1.28c0-.3.07-.58.21-.83s.32-.45.54-.61.48-.27.76-.35c.21-.05.52-.11.94-.16.85-.1,1.48-.22,1.88-.36,0-.14,0-.24,0-.28,0-.43-.1-.73-.3-.91-.27-.24-.67-.36-1.2-.36-.5,0-.86.09-1.1.26s-.41.48-.52.92l-1.03-.14c.09-.44.25-.8.46-1.07s.53-.48.93-.63.88-.22,1.41-.22.96.06,1.29.19.58.28.73.47.27.43.33.72c.04.18.05.5.05.97v1.41c0,.98.02,1.6.07,1.86s.13.51.27.75h-1.1c-.11-.22-.18-.47-.21-.77ZM173.04,154.76c-.38.16-.96.29-1.72.4-.43.06-.74.13-.92.21s-.32.19-.42.34-.15.32-.15.5c0,.28.11.52.32.7s.52.28.93.28.77-.09,1.08-.27.55-.42.7-.73c.11-.24.17-.59.17-1.05v-.39Z"/><path d="M175.71,157.89v-8.59h1.05v8.59h-1.05Z"/><path d="M178.41,157.89v-8.59h1.05v4.9l2.5-2.53h1.37l-2.38,2.31,2.62,3.91h-1.3l-2.06-3.18-.74.71v2.47h-1.05Z"/><path d="M191.8,157.12c-.39.33-.77.57-1.13.7s-.75.21-1.16.21c-.68,0-1.21-.17-1.58-.5s-.55-.76-.55-1.28c0-.3.07-.58.21-.83s.32-.45.54-.61.48-.27.76-.35c.21-.05.52-.11.94-.16.85-.1,1.48-.22,1.88-.36,0-.14,0-.24,0-.28,0-.43-.1-.73-.3-.91-.27-.24-.67-.36-1.2-.36-.5,0-.86.09-1.1.26s-.41.48-.52.92l-1.03-.14c.09-.44.25-.8.46-1.07s.53-.48.93-.63.88-.22,1.41-.22.96.06,1.29.19.58.28.73.47.27.43.33.72c.04.18.05.5.05.97v1.41c0,.98.02,1.6.07,1.86s.13.51.27.75h-1.1c-.11-.22-.18-.47-.21-.77ZM191.71,154.76c-.38.16-.96.29-1.72.4-.43.06-.74.13-.92.21s-.32.19-.42.34-.15.32-.15.5c0,.28.11.52.32.7s.52.28.93.28.77-.09,1.08-.27.55-.42.7-.73c.11-.24.17-.59.17-1.05v-.39Z"/><path d="M195.38,157.89h-.98v-8.59h1.05v3.06c.45-.56,1.01-.84,1.71-.84.38,0,.75.08,1.09.23s.62.37.84.65.39.62.52,1.01.19.82.19,1.27c0,1.07-.26,1.89-.79,2.47s-1.16.87-1.9.87-1.31-.31-1.73-.92v.78ZM195.37,154.73c0,.75.1,1.29.3,1.62.33.54.78.81,1.35.81.46,0,.86-.2,1.2-.6s.5-1,.5-1.79-.16-1.41-.48-1.8-.71-.58-1.17-.58-.86.2-1.2.6-.5.98-.5,1.74Z"/><path d="M200.69,154.78c0-1.15.32-2.01.96-2.56.54-.46,1.19-.69,1.96-.69.86,0,1.55.28,2.1.84s.81,1.33.81,2.32c0,.8-.12,1.43-.36,1.89s-.59.82-1.05,1.07-.96.38-1.5.38c-.87,0-1.58-.28-2.11-.84s-.81-1.36-.81-2.41ZM201.78,154.78c0,.8.17,1.39.52,1.79s.79.59,1.31.59.96-.2,1.31-.6.52-1.01.52-1.82c0-.77-.17-1.35-.52-1.75s-.78-.59-1.3-.59-.96.2-1.31.59-.52.99-.52,1.79Z"/><path d="M211.84,157.89v-.91c-.48.7-1.14,1.05-1.97,1.05-.37,0-.71-.07-1.03-.21s-.55-.32-.71-.53-.26-.47-.33-.78c-.04-.21-.06-.54-.06-.98v-3.86h1.05v3.45c0,.55.02.92.06,1.11.07.28.21.5.42.65s.48.24.8.24.61-.08.89-.24.47-.38.59-.66.17-.68.17-1.22v-3.33h1.05v6.22h-.94Z"/><path d="M216.73,156.94l.15.93c-.3.06-.56.09-.8.09-.38,0-.68-.06-.89-.18s-.36-.28-.45-.48-.13-.61-.13-1.25v-3.58h-.77v-.82h.77v-1.54l1.05-.63v2.17h1.06v.82h-1.06v3.64c0,.3.02.49.06.58s.1.15.18.21.2.08.36.08c.12,0,.27-.01.46-.04Z"/><path d="M221.11,150.51v-1.21h1.05v1.21h-1.05ZM221.11,157.89v-6.22h1.05v6.22h-1.05Z"/><path d="M223.77,157.89v-6.22h.94v.87c.2-.3.46-.55.78-.74s.69-.28,1.11-.28c.46,0,.84.1,1.13.29s.5.46.62.8c.49-.73,1.13-1.09,1.92-1.09.62,0,1.09.17,1.42.51s.5.87.5,1.58v4.27h-1.05v-3.92c0-.42-.03-.73-.1-.91s-.19-.33-.37-.45-.39-.17-.63-.17c-.44,0-.8.15-1.09.44s-.43.76-.43,1.4v3.62h-1.05v-4.04c0-.47-.09-.82-.26-1.05s-.45-.35-.84-.35c-.3,0-.57.08-.82.23s-.43.38-.55.69-.17.73-.17,1.3v3.23h-1.05Z"/><path d="M233.76,160.27v-8.61h.96v.81c.23-.32.48-.55.77-.71s.63-.24,1.04-.24c.53,0,1,.14,1.41.41s.71.66.92,1.16.31,1.04.31,1.64c0,.64-.11,1.21-.34,1.72s-.56.9-1,1.17-.89.41-1.37.41c-.35,0-.67-.07-.95-.22s-.51-.34-.69-.56v3.03h-1.05ZM234.72,154.81c0,.8.16,1.39.49,1.78s.72.57,1.18.57.87-.2,1.2-.59.5-1.01.5-1.84-.16-1.39-.49-1.78-.72-.59-1.17-.59-.85.21-1.19.63-.52,1.03-.52,1.83Z"/><path d="M240.04,154.78c0-1.15.32-2.01.96-2.56.54-.46,1.19-.69,1.96-.69.86,0,1.55.28,2.1.84s.81,1.33.81,2.32c0,.8-.12,1.43-.36,1.89s-.59.82-1.05,1.07-.96.38-1.5.38c-.87,0-1.58-.28-2.11-.84s-.81-1.36-.81-2.41ZM241.13,154.78c0,.8.17,1.39.52,1.79s.79.59,1.31.59.96-.2,1.31-.6.52-1.01.52-1.82c0-.77-.17-1.35-.52-1.75s-.78-.59-1.3-.59-.96.2-1.31.59-.52.99-.52,1.79Z"/><path d="M247.1,157.89v-6.22h.95v.94c.24-.44.47-.73.67-.87s.43-.21.68-.21c.36,0,.72.11,1.08.34l-.36.98c-.26-.15-.52-.23-.77-.23-.23,0-.44.07-.62.21s-.31.33-.39.58c-.12.38-.18.79-.18,1.23v3.26h-1.05Z"/><path d="M253.41,156.94l.15.93c-.3.06-.56.09-.8.09-.38,0-.68-.06-.89-.18s-.36-.28-.45-.48-.13-.61-.13-1.25v-3.58h-.77v-.82h.77v-1.54l1.05-.63v2.17h1.06v.82h-1.06v3.64c0,.3.02.49.06.58s.1.15.18.21.2.08.36.08c.12,0,.27-.01.46-.04Z"/><path d="M258.5,157.12c-.39.33-.77.57-1.13.7s-.75.21-1.16.21c-.68,0-1.21-.17-1.58-.5s-.55-.76-.55-1.28c0-.3.07-.58.21-.83s.32-.45.54-.61.48-.27.76-.35c.21-.05.52-.11.94-.16.85-.1,1.48-.22,1.88-.36,0-.14,0-.24,0-.28,0-.43-.1-.73-.3-.91-.27-.24-.67-.36-1.2-.36-.5,0-.86.09-1.1.26s-.41.48-.52.92l-1.03-.14c.09-.44.25-.8.46-1.07s.53-.48.93-.63.88-.22,1.41-.22.96.06,1.29.19.58.28.73.47.27.43.33.72c.04.18.05.5.05.97v1.41c0,.98.02,1.6.07,1.86s.13.51.27.75h-1.1c-.11-.22-.18-.47-.21-.77ZM258.41,154.76c-.38.16-.96.29-1.72.4-.43.06-.74.13-.92.21s-.32.19-.42.34-.15.32-.15.5c0,.28.11.52.32.7s.52.28.93.28.77-.09,1.08-.27.55-.42.7-.73c.11-.24.17-.59.17-1.05v-.39Z"/><path d="M261.11,157.89v-6.22h.95v.88c.46-.68,1.12-1.03,1.98-1.03.38,0,.72.07,1.03.2s.55.31.71.53.27.48.33.78c.04.2.06.54.06,1.03v3.83h-1.05v-3.79c0-.43-.04-.75-.12-.96s-.23-.38-.44-.51-.45-.19-.74-.19c-.45,0-.84.14-1.16.43s-.49.83-.49,1.62v3.4h-1.05Z"/><path d="M270.09,156.94l.15.93c-.3.06-.56.09-.8.09-.38,0-.68-.06-.89-.18s-.36-.28-.45-.48-.13-.61-.13-1.25v-3.58h-.77v-.82h.77v-1.54l1.05-.63v2.17h1.06v.82h-1.06v3.64c0,.3.02.49.06.58s.1.15.18.21.2.08.36.08c.12,0,.27-.01.46-.04Z"/><path d="M1.64,172.29v-6.22h.95v.88c.46-.68,1.12-1.03,1.98-1.03.38,0,.72.07,1.03.2s.55.31.71.53.27.48.33.78c.04.2.06.54.06,1.03v3.83h-1.05v-3.79c0-.43-.04-.75-.12-.96s-.23-.38-.44-.51-.45-.19-.74-.19c-.45,0-.84.14-1.16.43s-.49.83-.49,1.62v3.4h-1.05Z"/><path d="M12.57,170.28l1.09.13c-.17.64-.49,1.13-.96,1.48s-1.06.53-1.78.53c-.91,0-1.63-.28-2.17-.84s-.8-1.35-.8-2.36.27-1.86.81-2.44,1.24-.87,2.1-.87,1.51.28,2.04.85.79,1.36.79,2.39c0,.06,0,.16,0,.28h-4.64c.04.68.23,1.21.58,1.57s.78.54,1.3.54c.39,0,.72-.1.99-.3s.49-.53.65-.97ZM9.11,168.58h3.47c-.05-.52-.18-.92-.4-1.18-.34-.41-.77-.61-1.31-.61-.48,0-.89.16-1.22.49s-.51.76-.55,1.3Z"/><path d="M16.13,172.29l-1.9-6.22h1.09l.99,3.59.37,1.34c.02-.07.12-.49.32-1.28l.99-3.64h1.08l.93,3.61.31,1.19.36-1.2,1.07-3.6h1.03l-1.95,6.22h-1.1l-.99-3.73-.24-1.06-1.26,4.79h-1.1Z"/><path d="M23.23,170.43l1.04-.16c.06.42.22.74.49.96s.64.33,1.12.33.84-.1,1.08-.3.35-.43.35-.69c0-.24-.1-.43-.31-.56-.14-.09-.5-.21-1.08-.36-.77-.2-1.31-.36-1.61-.51s-.53-.34-.68-.59-.23-.53-.23-.83c0-.28.06-.53.19-.77s.3-.43.52-.59c.16-.12.39-.22.67-.31s.59-.13.91-.13c.49,0,.92.07,1.29.21s.64.33.82.57.3.56.36.96l-1.03.14c-.05-.32-.18-.57-.41-.75s-.54-.27-.95-.27c-.48,0-.83.08-1.04.24s-.31.35-.31.56c0,.14.04.26.13.37.09.11.22.21.4.28.11.04.42.13.93.27.75.2,1.27.36,1.56.49s.53.31.69.55.25.54.25.9-.1.68-.31.99-.5.55-.89.72-.82.25-1.31.25c-.81,0-1.42-.17-1.85-.5s-.69-.83-.81-1.49Z"/><path d="M29.95,172.29v-1.2h1.2v1.2h-1.2Z"/><rect x="1.04" y="190" width="95" height="30"/><path d="M16.38,208.35v-8.52h1.73v7.07h4.31v1.45h-6.05Z" style="fill:#fff;"/><path d="M27.25,206.37l1.64.28c-.21.6-.54,1.06-1,1.37s-1.02.47-1.71.47c-1.08,0-1.88-.35-2.4-1.06-.41-.57-.62-1.28-.62-2.14,0-1.03.27-1.84.81-2.42s1.22-.88,2.04-.88c.93,0,1.66.31,2.19.92s.79,1.55.77,2.81h-4.12c.01.49.14.87.4,1.14s.57.41.95.41c.26,0,.47-.07.65-.21s.31-.37.4-.68ZM27.35,204.71c-.01-.48-.13-.84-.37-1.09s-.52-.37-.86-.37c-.36,0-.66.13-.89.39s-.35.62-.35,1.07h2.46Z" style="fill:#fff;"/><path d="M31.55,204.03l-1.49-.27c.17-.6.46-1.05.87-1.34s1.02-.43,1.83-.43c.73,0,1.28.09,1.64.26s.61.39.76.66.22.76.22,1.47l-.02,1.92c0,.55.03.95.08,1.21s.15.54.3.83h-1.63c-.04-.11-.1-.27-.16-.49-.03-.1-.05-.16-.06-.19-.28.27-.58.48-.9.62s-.66.21-1.03.21c-.64,0-1.15-.17-1.51-.52s-.55-.79-.55-1.32c0-.35.08-.67.25-.94s.4-.49.71-.63.74-.27,1.31-.38c.77-.14,1.3-.28,1.6-.4v-.16c0-.32-.08-.54-.23-.68s-.45-.2-.88-.2c-.29,0-.52.06-.69.17s-.3.32-.4.61ZM33.76,205.36c-.21.07-.54.15-1,.25s-.76.19-.9.29c-.21.15-.32.35-.32.58s.09.43.26.6.39.25.66.25c.3,0,.58-.1.85-.29.2-.15.33-.33.39-.54.04-.14.06-.41.06-.8v-.33Z" style="fill:#fff;"/><path d="M38.57,208.35h-1.65v-6.22h1.53v.88c.26-.42.5-.69.71-.83s.45-.2.71-.2c.38,0,.74.1,1.08.31l-.51,1.44c-.28-.18-.54-.27-.77-.27s-.43.06-.59.19-.29.36-.38.69-.14,1.03-.14,2.09v1.92Z" style="fill:#fff;"/><path d="M47.33,208.35h-1.65v-3.18c0-.67-.04-1.11-.11-1.3s-.18-.35-.34-.46-.35-.16-.57-.16c-.29,0-.54.08-.77.23s-.38.36-.47.62-.13.73-.13,1.43v2.82h-1.65v-6.22h1.53v.91c.54-.7,1.23-1.05,2.05-1.05.36,0,.7.07,1,.2s.53.3.68.5.26.43.32.69.09.63.09,1.11v3.87Z" style="fill:#fff;"/><path d="M52.21,202.13h1.52v.85c.54-.66,1.19-.99,1.94-.99.4,0,.74.08,1.04.25s.53.41.72.74c.27-.33.57-.58.88-.74s.65-.25,1.01-.25c.46,0,.84.09,1.16.28s.55.46.71.82c.11.27.17.7.17,1.29v3.98h-1.65v-3.56c0-.62-.06-1.02-.17-1.2-.15-.23-.39-.35-.7-.35-.23,0-.45.07-.65.21s-.35.35-.44.62-.13.7-.13,1.29v2.99h-1.65v-3.41c0-.61-.03-1-.09-1.17s-.15-.31-.27-.39-.29-.13-.5-.13c-.25,0-.48.07-.69.21s-.35.33-.44.59-.13.69-.13,1.28v3.02h-1.65v-6.22Z" style="fill:#fff;"/><path d="M62.62,205.15c0-.55.13-1.08.4-1.59s.65-.9,1.15-1.17,1.05-.4,1.66-.4c.94,0,1.71.31,2.31.92s.9,1.38.9,2.32-.3,1.72-.91,2.34-1.37.93-2.29.93c-.57,0-1.11-.13-1.63-.39s-.91-.64-1.18-1.13-.4-1.1-.4-1.82ZM64.31,205.24c0,.62.15,1.09.44,1.42s.65.49,1.08.49.79-.16,1.08-.49.44-.8.44-1.43-.15-1.08-.44-1.41-.65-.49-1.08-.49-.79.16-1.08.49-.44.8-.44,1.42Z" style="fill:#fff;"/><path d="M71.91,208.35h-1.65v-6.22h1.53v.88c.26-.42.5-.69.71-.83s.45-.2.71-.2c.38,0,.74.1,1.08.31l-.51,1.44c-.28-.18-.54-.27-.77-.27s-.43.06-.59.19-.29.36-.38.69-.14,1.03-.14,2.09v1.92Z" style="fill:#fff;"/><path d="M78.6,206.37l1.64.28c-.21.6-.54,1.06-1,1.37s-1.02.47-1.71.47c-1.08,0-1.88-.35-2.4-1.06-.41-.57-.62-1.28-.62-2.14,0-1.03.27-1.84.81-2.42s1.22-.88,2.04-.88c.93,0,1.66.31,2.19.92s.79,1.55.77,2.81h-4.12c.01.49.14.87.4,1.14s.57.41.95.41c.26,0,.47-.07.65-.21s.31-.37.4-.68ZM78.7,204.71c-.01-.48-.13-.84-.37-1.09s-.52-.37-.86-.37c-.36,0-.66.13-.89.39s-.35.62-.35,1.07h2.46Z" style="fill:#fff;"/></g></svg>