<?xml version="1.0" encoding="UTF-8"?><svg id="Layer_2" xmlns="http://www.w3.org/2000/svg" viewBox="0 0 364 314.68"><g id="Layer_1-2"><rect width="364" height="314.68" style="fill:#d9d9d9;"/><path d="M151.01,159.53v-7.16h1.45v7.16h-1.45Z"/><path d="M153.82,159.53v-7.16h2.16l1.3,4.88,1.28-4.88h2.17v7.16h-1.34v-5.63l-1.42,5.63h-1.39l-1.42-5.63v5.63h-1.34Z"/><path d="M168.62,159.53h-1.57l-.62-1.63h-2.86l-.59,1.63h-1.53l2.79-7.16h1.53l2.87,7.16ZM165.96,156.69l-.99-2.66-.97,2.66h1.95Z"/><path d="M172.72,156.89v-1.21h3.12v2.85c-.3.29-.74.55-1.32.77-.57.22-1.16.33-1.75.33-.75,0-1.4-.16-1.96-.47-.56-.31-.98-.76-1.25-1.35-.28-.58-.42-1.22-.42-1.91,0-.75.16-1.41.47-1.99s.77-1.02,1.37-1.33c.46-.24,1.03-.36,1.71-.36.89,0,1.58.19,2.08.56.5.37.82.89.96,1.54l-1.44.27c-.1-.35-.29-.63-.57-.83-.28-.2-.63-.3-1.04-.3-.63,0-1.13.2-1.51.6s-.56.99-.56,1.78c0,.85.19,1.49.57,1.91.38.42.87.64,1.48.64.3,0,.61-.06.91-.18.3-.12.57-.26.78-.43v-.91h-1.66Z"/><path d="M177.17,159.53v-7.16h5.31v1.21h-3.86v1.59h3.59v1.21h-3.59v1.95h4v1.21h-5.44Z"/><path d="M186.62,159.53v-7.16h1.45v2.82h2.83v-2.82h1.45v7.16h-1.45v-3.13h-2.83v3.13h-1.45Z"/><path d="M193.84,159.53v-7.16h5.31v1.21h-3.86v1.59h3.59v1.21h-3.59v1.95h4v1.21h-5.44Z"/><path d="M200.51,159.53v-7.16h3.04c.77,0,1.32.06,1.67.19.35.13.62.36.83.69s.31.71.31,1.13c0,.54-.16.98-.47,1.33-.32.35-.79.57-1.42.66.31.18.57.38.77.6s.48.61.82,1.16l.87,1.4h-1.73l-1.04-1.56c-.37-.56-.62-.91-.76-1.05-.14-.15-.28-.24-.43-.3-.15-.05-.4-.08-.73-.08h-.29v2.99h-1.45ZM201.96,155.39h1.07c.69,0,1.13-.03,1.3-.09s.31-.16.41-.3.15-.32.15-.54c0-.24-.06-.44-.19-.58-.13-.15-.31-.24-.54-.28-.12-.02-.47-.02-1.05-.02h-1.13v1.82Z"/><path d="M207.73,159.53v-7.16h5.31v1.21h-3.86v1.59h3.59v1.21h-3.59v1.95h4v1.21h-5.44Z"/></g></svg>