<?xml version="1.0" encoding="UTF-8"?><svg id="Layer_2" xmlns="http://www.w3.org/2000/svg" viewBox="0 0 229.1 305.02"><g id="Layer_2-2"><g id="Layer_1-2"><path d="M12.11,304.3v-48.49h9.01v40.87h25.35v7.62H12.11Z"/><path d="M75.42,305c-3.74,0-7.22-.62-10.43-1.87s-5.99-3-8.35-5.26-4.18-4.9-5.47-7.93c-1.29-3.02-1.94-6.32-1.94-9.87s.65-6.91,1.94-9.94c1.29-3.03,3.12-5.66,5.47-7.9,2.36-2.24,5.13-3.98,8.31-5.23,3.19-1.25,6.67-1.87,10.46-1.87s7.2.61,10.39,1.84c3.19,1.22,5.94,2.96,8.28,5.19,2.33,2.24,4.14,4.88,5.44,7.93,1.29,3.05,1.94,6.37,1.94,9.97s-.65,6.92-1.94,9.94-3.11,5.67-5.44,7.93c-2.33,2.26-5.09,4.01-8.28,5.23s-6.65,1.83-10.39,1.83h.01ZM75.42,297.1c2.45,0,4.7-.42,6.75-1.25s3.84-2.01,5.37-3.53c1.52-1.52,2.71-3.33,3.57-5.4s1.28-4.36,1.28-6.86-.42-4.78-1.25-6.86-2.02-3.88-3.57-5.4-3.35-2.7-5.4-3.53c-2.06-.83-4.31-1.25-6.75-1.25s-4.72.42-6.82,1.25-3.91,2.02-5.44,3.57c-1.52,1.55-2.73,3.35-3.6,5.4-.88,2.05-1.32,4.33-1.32,6.82s.44,4.71,1.32,6.79c.88,2.08,2.08,3.89,3.6,5.44s3.33,2.74,5.44,3.57c2.1.83,4.37,1.25,6.82,1.25h0Z"/><path d="M133.67,305c-3.79,0-7.26-.61-10.42-1.83-3.16-1.22-5.92-2.97-8.28-5.23s-4.18-4.89-5.47-7.9c-1.29-3-1.94-6.33-1.94-9.97s.65-6.97,1.94-9.97,3.13-5.63,5.51-7.9c2.38-2.26,5.15-4.01,8.31-5.23,3.16-1.22,6.68-1.84,10.56-1.84s7.75.67,11.05,2.01,6.08,3.3,8.35,5.89l-5.68,5.54c-1.89-1.89-3.94-3.29-6.13-4.19s-4.61-1.35-7.24-1.35-4.95.42-7.1,1.25c-2.15.83-4.01,2.01-5.58,3.53s-2.79,3.32-3.67,5.4-1.32,4.36-1.32,6.86.44,4.72,1.32,6.82,2.1,3.91,3.67,5.44c1.57,1.52,3.42,2.7,5.54,3.53s4.48,1.25,7.06,1.25c2.4,0,4.72-.38,6.96-1.14s4.37-2.04,6.41-3.84l5.06,6.72c-2.49,2.03-5.4,3.57-8.73,4.61-3.33,1.04-6.72,1.56-10.18,1.56v-.02ZM152.58,298.83l-8.45-1.18v-18.08h8.45v19.25h0Z"/><path d="M187.21,305c-3.74,0-7.22-.62-10.43-1.87s-5.99-3-8.35-5.26-4.18-4.9-5.47-7.93c-1.29-3.02-1.94-6.32-1.94-9.87s.65-6.91,1.94-9.94c1.29-3.03,3.12-5.66,5.47-7.9s5.13-3.98,8.31-5.23c3.19-1.25,6.67-1.87,10.46-1.87s7.2.61,10.39,1.84c3.19,1.22,5.94,2.96,8.28,5.19,2.33,2.24,4.14,4.88,5.44,7.93,1.29,3.05,1.94,6.37,1.94,9.97s-.65,6.92-1.94,9.94c-1.29,3.02-3.11,5.67-5.44,7.93-2.33,2.26-5.09,4.01-8.28,5.23s-6.65,1.83-10.39,1.83h.01ZM187.21,297.1c2.45,0,4.7-.42,6.75-1.25s3.84-2.01,5.37-3.53c1.52-1.52,2.71-3.33,3.57-5.4s1.28-4.36,1.28-6.86-.42-4.78-1.25-6.86-2.02-3.88-3.57-5.4-3.35-2.7-5.4-3.53c-2.06-.83-4.31-1.25-6.75-1.25s-4.72.42-6.82,1.25-3.91,2.02-5.44,3.57c-1.52,1.55-2.73,3.35-3.6,5.4-.88,2.05-1.32,4.33-1.32,6.82s.44,4.71,1.32,6.79c.88,2.08,2.08,3.89,3.6,5.44s3.33,2.74,5.44,3.57c2.1.83,4.37,1.25,6.82,1.25h0Z"/><path d="M178.9,18.14c17.68,0,32.06,14.38,32.06,32.06v118.78c0,17.68-14.38,32.06-32.06,32.06H50.2c-17.68,0-32.06-14.38-32.06-32.06V50.2c0-17.68,14.38-32.06,32.06-32.06h128.7M178.9,0H50.2C22.48,0,0,22.48,0,50.2v118.78c0,27.72,22.48,50.2,50.2,50.2h128.7c27.72,0,50.2-22.48,50.2-50.2V50.2c0-27.72-22.48-50.2-50.2-50.2h0Z"/><path d="M154.76,61.61c7.68,6.81,11.52,16.31,11.52,28.5,0,4.41-.41,8.61-1.23,12.6l-11.68,58.09h-24.89l5.07-25.82h-49.02l-5.22,25.82h-24.59l12.29-61.31c3.07-15.88,9.4-27.86,18.98-35.96,9.58-8.09,21.95-12.14,37.11-12.14,13.42,0,23.97,3.41,31.65,10.22ZM137.55,115.01l2.77-13.98c.61-3.28.92-6.3.92-9.07,0-6.35-1.77-11.17-5.3-14.44-3.53-3.28-8.63-4.92-15.29-4.92-7.99,0-14.39,2.18-19.21,6.53-4.82,4.36-8.14,11.29-9.99,20.82l-3.07,15.06h49.17Z"/></g></g></svg>