<?xml version="1.0" encoding="UTF-8"?><svg id="Layer_2" xmlns="http://www.w3.org/2000/svg" viewBox="0 0 1024.01 241.67"><g id="Layer_2-2"><g id="Layer_1-2"><path d="M373.91,207.19V50.49h29.1v132.08h81.93v24.63h-111.04.01Z"/><path d="M578.52,209.43c-12.09,0-23.32-2.01-33.69-6.05-10.37-4.03-19.36-9.7-26.97-17.01s-13.51-15.85-17.68-25.63c-4.18-9.77-6.27-20.41-6.27-31.9s2.09-22.35,6.27-32.12c4.18-9.78,10.07-18.28,17.68-25.52,7.61-7.24,16.56-12.87,26.86-16.9,10.3-4.03,21.57-6.05,33.81-6.05s23.28,1.98,33.58,5.94c10.3,3.95,19.21,9.55,26.75,16.79,7.53,7.24,13.39,15.78,17.57,25.63s6.27,20.59,6.27,32.24-2.09,22.36-6.27,32.13-10.04,18.32-17.57,25.63c-7.54,7.32-16.46,12.94-26.75,16.9-10.3,3.95-21.49,5.93-33.58,5.93h-.01ZM578.52,183.91c7.9,0,15.18-1.34,21.83-4.03,6.64-2.69,12.42-6.5,17.35-11.42,4.93-4.93,8.77-10.75,11.53-17.46s4.14-14.11,4.14-22.16-1.34-15.44-4.03-22.16c-2.68-6.71-6.53-12.54-11.53-17.45-5-4.93-10.82-8.74-17.46-11.42-6.64-2.69-13.92-4.03-21.83-4.03s-15.26,1.34-22.05,4.03c-6.79,2.68-12.65,6.53-17.57,11.52-4.93,5-8.81,10.82-11.64,17.46-2.84,6.64-4.26,13.99-4.26,22.05s1.42,15.22,4.26,21.94c2.83,6.71,6.71,12.58,11.64,17.57,4.92,5,10.78,8.84,17.57,11.53,6.79,2.68,14.14,4.03,22.05,4.03h0Z"/><path d="M766.79,209.43c-12.24,0-23.47-1.98-33.69-5.93-10.23-3.96-19.14-9.59-26.75-16.9s-13.51-15.82-17.68-25.52c-4.18-9.7-6.27-20.44-6.27-32.24s2.09-22.53,6.27-32.24c4.18-9.7,10.11-18.21,17.8-25.52,7.68-7.31,16.64-12.94,26.86-16.89,10.22-3.96,21.61-5.94,34.14-5.94s25.03,2.17,35.71,6.5c10.66,4.33,19.66,10.67,26.97,19.02l-18.36,17.91c-6.12-6.12-12.73-10.64-19.81-13.55-7.09-2.91-14.89-4.37-23.39-4.37s-16.01,1.34-22.95,4.03c-6.94,2.68-12.95,6.49-18.02,11.42-5.07,4.92-9.03,10.74-11.86,17.45-2.84,6.72-4.26,14.11-4.26,22.16s1.42,15.27,4.26,22.06c2.83,6.79,6.79,12.64,11.86,17.57,5.07,4.92,11.04,8.73,17.91,11.42,6.86,2.68,14.47,4.03,22.83,4.03,7.76,0,15.26-1.23,22.5-3.69s14.14-6.61,20.71-12.43l16.34,21.71c-8.06,6.57-17.46,11.53-28.21,14.89s-21.72,5.04-32.91,5.04h0ZM827.91,189.51l-27.31-3.8v-58.43h27.31v62.23Z"/><path d="M939.83,209.43c-12.09,0-23.32-2.01-33.69-6.05-10.37-4.03-19.36-9.7-26.97-17.01s-13.51-15.85-17.68-25.63c-4.18-9.77-6.27-20.41-6.27-31.9s2.09-22.35,6.27-32.12c4.18-9.78,10.07-18.28,17.68-25.52,7.61-7.24,16.56-12.87,26.86-16.9,10.3-4.03,21.57-6.05,33.81-6.05s23.28,1.98,33.58,5.94c10.3,3.95,19.21,9.55,26.75,16.79,7.53,7.24,13.39,15.78,17.57,25.63s6.27,20.59,6.27,32.24-2.09,22.36-6.27,32.13-10.04,18.32-17.57,25.63c-7.54,7.32-16.46,12.94-26.75,16.9-10.3,3.95-21.49,5.93-33.58,5.93h0ZM939.83,183.91c7.9,0,15.18-1.34,21.83-4.03,6.64-2.69,12.42-6.5,17.35-11.42,4.93-4.93,8.77-10.75,11.53-17.46s4.14-14.11,4.14-22.16-1.34-15.44-4.03-22.16c-2.68-6.71-6.53-12.54-11.53-17.45-5-4.93-10.82-8.74-17.46-11.42-6.64-2.69-13.92-4.03-21.83-4.03s-15.26,1.34-22.05,4.03c-6.79,2.68-12.65,6.53-17.57,11.52-4.93,5-8.81,10.82-11.64,17.46-2.84,6.64-4.26,13.99-4.26,22.05s1.42,15.22,4.26,21.94c2.83,6.71,6.71,12.58,11.64,17.57,4.92,5,10.78,8.84,17.57,11.53,6.79,2.68,14.14,4.03,22.05,4.03h0Z"/><path d="M197.26,20c19.49,0,35.35,15.86,35.35,35.35v130.97c0,19.49-15.86,35.35-35.35,35.35H55.35c-19.49,0-35.35-15.86-35.35-35.35V55.35c0-19.49,15.86-35.35,35.35-35.35h141.91M197.26,0H55.35C24.78,0,0,24.78,0,55.35v130.97c0,30.57,24.78,55.35,55.35,55.35h141.91c30.57,0,55.35-24.78,55.35-55.35V55.35c0-30.57-24.78-55.35-55.35-55.35h0Z"/><path d="M170.64,68.54c8.47,7.51,12.71,17.99,12.71,31.43,0,4.86-.45,9.49-1.36,13.89l-12.88,64.04h-27.45l5.59-28.46h-54.05l-5.76,28.46h-27.11l13.55-67.6c3.39-17.51,10.36-30.72,20.92-39.65,10.56-8.92,24.2-13.38,40.92-13.38,14.8,0,26.43,3.76,34.9,11.27ZM151.67,127.42l3.05-15.42c.68-3.61,1.02-6.95,1.02-10,0-7-1.95-12.31-5.85-15.93-3.9-3.61-9.52-5.42-16.86-5.42-8.81,0-15.87,2.4-21.18,7.2-5.31,4.8-8.98,12.45-11.01,22.96l-3.39,16.6h54.22Z"/></g></g></svg>