<?xml version="1.0" encoding="UTF-8"?><svg id="Layer_2" xmlns="http://www.w3.org/2000/svg" viewBox="0 0 270.23 84.36"><g id="Layer_1-2"><rect width="270.23" height="84.36" style="fill:#f6f6f4;"/><path d="M123.15,57.18c-.86,0-1.58-.29-2.16-.87s-.87-1.3-.87-2.16v-23.94c0-.86.29-1.58.87-2.16s1.3-.87,2.16-.87h12.19c.27,0,.49.09.67.27s.27.4.27.67-.09.49-.27.67-.4.27-.67.27h-12.19c-.34,0-.61.11-.83.32-.22.22-.32.49-.32.83v23.94c0,.34.11.61.32.83.22.22.49.32.83.32h23.94c.34,0,.61-.11.83-.32.22-.22.32-.49.32-.83v-12.19c0-.27.09-.49.27-.67s.4-.27.67-.27.49.09.67.27.27.4.27.67v12.19c0,.86-.29,1.58-.87,2.16s-1.3.87-2.16.87h-23.94ZM125.31,50.4h19.62l-6.06-8.08-5.62,7.1-3.75-4.51-4.18,5.48ZM144.49,32.81h-2.81c-.27,0-.49-.09-.67-.27s-.27-.4-.27-.67.09-.49.27-.67.4-.27.67-.27h2.81v-2.81c0-.27.09-.49.27-.67s.4-.27.67-.27.49.09.67.27.27.4.27.67v2.81h2.81c.27,0,.49.09.67.27s.27.4.27.67-.09.49-.27.67-.4.27-.67.27h-2.81v2.81c0,.27-.09.49-.27.67s-.4.27-.67.27-.49-.09-.67-.27-.27-.4-.27-.67v-2.81Z" style="fill:#afafae;"/></g></svg>