<?xml version="1.0" encoding="UTF-8"?><svg id="Layer_2" xmlns="http://www.w3.org/2000/svg" viewBox="0 0 101.23 140.64"><g id="Layer_1-2"><rect width="101.23" height="140.64" style="fill:#f6f6f4;"/><path d="M34.96,89.94c-1.13,0-2.07-.38-2.83-1.13s-1.13-1.7-1.13-2.83v-31.31c0-1.13.38-2.07,1.13-2.83s1.7-1.13,2.83-1.13h15.94c.35,0,.64.12.87.35s.35.53.35.87-.12.64-.35.87-.53.35-.87.35h-15.94c-.44,0-.8.14-1.09.42-.28.28-.42.64-.42,1.09v31.31c0,.44.14.8.42,1.09.28.28.64.42,1.09.42h31.31c.44,0,.8-.14,1.09-.42.28-.28.42-.64.42-1.09v-15.94c0-.35.12-.64.35-.87s.53-.35.87-.35.64.12.87.35.35.53.35.87v15.94c0,1.13-.38,2.07-1.13,2.83s-1.7,1.13-2.83,1.13h-31.31ZM37.79,81.07h25.65l-7.92-10.56-7.36,9.29-4.9-5.9-5.47,7.17ZM62.88,58.06h-3.68c-.35,0-.64-.12-.87-.35s-.35-.53-.35-.87.12-.64.35-.87.53-.35.87-.35h3.68v-3.68c0-.35.12-.64.35-.87s.53-.35.87-.35.64.12.87.35.35.53.35.87v3.68h3.68c.35,0,.64.12.87.35s.35.53.35.87-.12.64-.35.87-.53.35-.87.35h-3.68v3.68c0,.35-.12.64-.35.87s-.53.35-.87.35-.64-.12-.87-.35-.35-.53-.35-.87v-3.68Z" style="fill:#afafae;"/></g></svg>