<?xml version="1.0" encoding="UTF-8"?><svg id="Layer_2" xmlns="http://www.w3.org/2000/svg" viewBox="0 0 134.73 71.64"><g id="Layer_1-2"><rect width="134.73" height="71.64" style="fill:#f6f6f4;"/><path d="M57.79,47.82c-.69,0-1.27-.23-1.73-.69s-.69-1.04-.69-1.73v-19.15c0-.69.23-1.27.69-1.73s1.04-.69,1.73-.69h9.75c.21,0,.39.07.53.22s.22.32.22.54-.07.39-.22.53-.32.21-.53.21h-9.75c-.27,0-.49.09-.66.26-.17.17-.26.39-.26.66v19.15c0,.27.09.49.26.66.17.17.39.26.66.26h19.15c.27,0,.49-.09.66-.26.17-.17.26-.39.26-.66v-9.75c0-.21.07-.39.22-.53s.32-.22.54-.22.39.07.53.22.21.32.21.53v9.75c0,.69-.23,1.27-.69,1.73s-1.04.69-1.73.69h-19.15ZM59.52,42.4h15.69l-4.85-6.46-4.5,5.68-3-3.61-3.35,4.38ZM74.87,28.32h-2.25c-.21,0-.39-.07-.53-.22s-.22-.32-.22-.54.07-.39.22-.53.32-.21.53-.21h2.25v-2.25c0-.21.07-.39.22-.53s.32-.22.54-.22.39.07.53.22.21.32.21.53v2.25h2.25c.21,0,.39.07.53.22s.22.32.22.54-.07.39-.22.53-.32.21-.53.21h-2.25v2.25c0,.21-.07.39-.22.53s-.32.22-.54.22-.39-.07-.53-.22-.21-.32-.21-.53v-2.25Z" style="fill:#afafae;"/></g></svg>