<?xml version="1.0" encoding="UTF-8"?><svg id="Layer_2" xmlns="http://www.w3.org/2000/svg" viewBox="0 0 146.13 55"><g id="Layer_1-2"><rect width="146.13" height="55" style="fill:#f6f6f4;"/><path d="M68.54,33.12c-.32,0-.59-.11-.81-.32s-.32-.49-.32-.81v-8.97c0-.32.11-.59.32-.81s.49-.32.81-.32h4.57c.1,0,.18.03.25.1s.1.15.1.25-.03.18-.1.25-.15.1-.25.1h-4.57c-.13,0-.23.04-.31.12-.08.08-.12.18-.12.31v8.97c0,.13.04.23.12.31.08.08.18.12.31.12h8.97c.13,0,.23-.04.31-.12.08-.08.12-.18.12-.31v-4.57c0-.1.03-.18.1-.25s.15-.1.25-.1.18.03.25.1.1.15.1.25v4.57c0,.32-.11.59-.32.81s-.49.32-.81.32h-8.97ZM69.35,30.58h7.35l-2.27-3.03-2.11,2.66-1.4-1.69-1.57,2.05ZM76.54,23.99h-1.05c-.1,0-.18-.03-.25-.1s-.1-.15-.1-.25.03-.18.1-.25.15-.1.25-.1h1.05v-1.05c0-.1.03-.18.1-.25s.15-.1.25-.1.18.03.25.1.1.15.1.25v1.05h1.05c.1,0,.18.03.25.1s.1.15.1.25-.03.18-.1.25-.15.1-.25.1h-1.05v1.05c0,.1-.03.18-.1.25s-.15.1-.25.1-.18-.03-.25-.1-.1-.15-.1-.25v-1.05Z" style="fill:#afafae;"/></g></svg>