<?xml version="1.0" encoding="UTF-8"?><svg id="Layer_2" xmlns="http://www.w3.org/2000/svg" viewBox="0 0 554.59 412.89"><g id="Layer_1-2"><rect width="554.59" height="412.89" style="fill:#d9d9d9;"/><path d="M151.35,215.39v-23.46h4.36v23.46h-4.36Z"/><path d="M162.04,215.39v-23.46h3.59l10.26,17.13h-1.88l10.09-17.13h3.59l.07,23.46h-4.19v-16.99h.84l-8.51,14.35h-1.98l-8.71-14.35h1.01v16.99h-4.16Z"/><path d="M190.73,215.39l10.56-23.46h4.29l10.59,23.46h-4.59l-9.05-21.15h1.74l-9.08,21.15h-4.46ZM195.59,209.96l1.21-3.42h12.64l1.17,3.42h-15.02Z"/><path d="M229.78,215.72c-1.83,0-3.51-.3-5.04-.89-1.53-.59-2.87-1.44-4.01-2.53-1.14-1.09-2.02-2.37-2.65-3.82-.63-1.45-.94-3.06-.94-4.83s.31-3.37.94-4.83c.62-1.45,1.51-2.73,2.66-3.82,1.15-1.09,2.49-1.94,4.02-2.53,1.53-.59,3.23-.89,5.11-.89s3.75.32,5.35.97c1.6.65,2.94,1.6,4.04,2.85l-2.75,2.68c-.92-.92-1.91-1.59-2.97-2.03-1.06-.44-2.23-.65-3.5-.65s-2.4.2-3.44.6-1.94.97-2.7,1.71c-.76.74-1.35,1.61-1.78,2.62-.42,1-.64,2.11-.64,3.32s.21,2.29.64,3.3c.42,1.02,1.02,1.89,1.78,2.63.76.74,1.65,1.31,2.68,1.71,1.03.4,2.17.6,3.42.6,1.16,0,2.28-.18,3.37-.55,1.08-.37,2.12-.99,3.1-1.86l2.45,3.25c-1.21.98-2.61,1.73-4.22,2.23-1.61.5-3.25.75-4.93.75ZM238.93,212.74l-4.09-.57v-8.75h4.09v9.32Z"/><path d="M244.7,215.39v-23.46h17.13v3.69h-12.77v16.09h13.24v3.69h-17.6ZM248.72,205.26v-3.59h11.67v3.59h-11.67Z"/><path d="M276.41,215.39v-23.46h4.36v23.46h-4.36ZM280.43,205.33v-3.72h12.8v3.72h-12.8ZM292.9,215.39v-23.46h4.32v23.46h-4.32Z"/><path d="M303.56,215.39v-23.46h17.13v3.69h-12.77v16.09h13.24v3.69h-17.6ZM307.58,205.26v-3.59h11.67v3.59h-11.67Z"/><path d="M326.02,215.39v-23.46h9.62c3.13,0,5.58.74,7.36,2.23,1.78,1.49,2.66,3.53,2.66,6.12,0,1.72-.4,3.2-1.21,4.42-.8,1.23-1.95,2.18-3.44,2.85-1.49.67-3.27,1.01-5.35,1.01h-7.21l1.91-1.94v8.78h-4.36ZM330.37,207.07l-1.91-2.11h7.01c1.92,0,3.37-.41,4.34-1.24.97-.83,1.46-1.98,1.46-3.45s-.49-2.62-1.46-3.44-2.42-1.22-4.34-1.22h-7.01l1.91-2.15v13.61ZM341.37,215.39l-5.93-8.51h4.66l5.97,8.51h-4.69Z"/><path d="M350.52,215.39v-23.46h17.13v3.69h-12.77v16.09h13.24v3.69h-17.6ZM354.54,205.26v-3.59h11.67v3.59h-11.67Z"/></g></svg>