<?xml version="1.0" encoding="UTF-8"?><svg id="Layer_2" xmlns="http://www.w3.org/2000/svg" viewBox="0 0 759 759"><g id="Layer_1-2"><rect x="0" y="0" width="759" height="759" rx="379.5" ry="379.5" style="fill:#d9d9d9;"/><path d="M129.93,412.44v-57.65h11.64v57.65h-11.64Z"/><path d="M152.51,412.44v-57.65h17.42l10.46,39.33,10.34-39.33h17.46v57.65h-10.81v-45.38l-11.44,45.38h-11.21l-11.4-45.38v45.38h-10.81Z"/><path d="M271.74,412.44h-12.66l-5.03-13.1h-23.05l-4.76,13.1h-12.35l22.46-57.65h12.31l23.08,57.65ZM250.31,389.63l-7.94-21.39-7.79,21.39h15.73Z"/><path d="M304.74,391.24v-9.71h25.09v22.97c-2.44,2.36-5.97,4.44-10.6,6.23-4.63,1.8-9.31,2.69-14.06,2.69-6.03,0-11.29-1.26-15.77-3.79-4.48-2.53-7.85-6.15-10.11-10.85-2.26-4.71-3.38-9.83-3.38-15.36,0-6,1.26-11.34,3.78-16.01,2.52-4.67,6.2-8.25,11.05-10.74,3.7-1.91,8.3-2.87,13.8-2.87,7.16,0,12.75,1.5,16.77,4.5,4.02,3,6.61,7.15,7.77,12.45l-11.56,2.16c-.81-2.83-2.34-5.07-4.58-6.71-2.24-1.64-5.04-2.46-8.4-2.46-5.09,0-9.13,1.61-12.13,4.84-3,3.23-4.5,8.01-4.5,14.35,0,6.84,1.52,11.97,4.56,15.4,3.04,3.42,7.03,5.13,11.96,5.13,2.44,0,4.88-.48,7.33-1.44,2.45-.96,4.56-2.12,6.31-3.48v-7.32h-13.33Z"/><path d="M340.57,412.44v-57.65h42.75v9.75h-31.11v12.78h28.94v9.71h-28.94v15.69h32.21v9.71h-43.85Z"/><path d="M416.7,412.44v-57.65h11.64v22.69h22.81v-22.69h11.64v57.65h-11.64v-25.21h-22.81v25.21h-11.64Z"/><path d="M474.83,412.44v-57.65h42.75v9.75h-31.11v12.78h28.94v9.71h-28.94v15.69h32.21v9.71h-43.85Z"/><path d="M528.59,412.44v-57.65h24.5c6.16,0,10.64.52,13.43,1.55,2.79,1.04,5.03,2.88,6.71,5.53,1.68,2.65,2.52,5.68,2.52,9.08,0,4.33-1.27,7.9-3.81,10.72-2.54,2.82-6.34,4.6-11.4,5.33,2.52,1.47,4.59,3.08,6.23,4.84,1.64,1.76,3.85,4.88,6.63,9.36l7.04,11.25h-13.92l-8.42-12.54c-2.99-4.48-5.03-7.31-6.13-8.48-1.1-1.17-2.27-1.97-3.5-2.4s-3.19-.65-5.86-.65h-2.36v24.07h-11.64ZM540.23,379.17h8.61c5.58,0,9.07-.24,10.46-.71,1.39-.47,2.48-1.28,3.26-2.44.79-1.15,1.18-2.6,1.18-4.33,0-1.94-.52-3.51-1.55-4.7-1.04-1.19-2.5-1.95-4.38-2.26-.94-.13-3.78-.2-8.49-.2h-9.08v14.63Z"/><path d="M586.71,412.44v-57.65h42.75v9.75h-31.11v12.78h28.94v9.71h-28.94v15.69h32.21v9.71h-43.85Z"/></g></svg>