<?xml version="1.0" encoding="UTF-8"?><svg id="Layer_2" xmlns="http://www.w3.org/2000/svg" viewBox="0 0 280 160"><g id="Layer_1-2"><rect width="280" height="160" style="fill:#d9d9d9;"/><path d="M73.28,85.18v-15.41h3.11v15.41h-3.11Z"/><path d="M79.31,85.18v-15.41h4.66l2.8,10.52,2.77-10.52h4.67v15.41h-2.89v-12.13l-3.06,12.13h-3l-3.05-12.13v12.13h-2.89Z"/><path d="M111.19,85.18h-3.39l-1.35-3.5h-6.16l-1.27,3.5h-3.3l6-15.41h3.29l6.17,15.41ZM105.46,79.09l-2.12-5.72-2.08,5.72h4.21Z"/><path d="M120.01,79.52v-2.6h6.71v6.14c-.65.63-1.6,1.19-2.83,1.67s-2.49.72-3.76.72c-1.61,0-3.02-.34-4.22-1.02-1.2-.68-2.1-1.64-2.7-2.9-.6-1.26-.9-2.63-.9-4.11,0-1.6.34-3.03,1.01-4.28.67-1.25,1.66-2.2,2.95-2.87.99-.51,2.22-.77,3.69-.77,1.91,0,3.41.4,4.48,1.2,1.08.8,1.77,1.91,2.08,3.33l-3.09.58c-.22-.76-.63-1.35-1.22-1.79-.6-.44-1.35-.66-2.25-.66-1.36,0-2.44.43-3.24,1.29-.8.86-1.2,2.14-1.2,3.84,0,1.83.41,3.2,1.22,4.12.81.92,1.88,1.37,3.2,1.37.65,0,1.31-.13,1.96-.38.66-.26,1.22-.56,1.69-.93v-1.96h-3.56Z"/><path d="M129.59,85.18v-15.41h11.43v2.61h-8.32v3.42h7.74v2.6h-7.74v4.2h8.61v2.6h-11.72Z"/><path d="M149.95,85.18v-15.41h3.11v6.07h6.1v-6.07h3.11v15.41h-3.11v-6.74h-6.1v6.74h-3.11Z"/><path d="M165.49,85.18v-15.41h11.43v2.61h-8.32v3.42h7.74v2.6h-7.74v4.2h8.61v2.6h-11.72Z"/><path d="M179.86,85.18v-15.41h6.55c1.65,0,2.84.14,3.59.42s1.34.77,1.79,1.48c.45.71.67,1.52.67,2.43,0,1.16-.34,2.11-1.02,2.87-.68.75-1.7,1.23-3.05,1.42.67.39,1.23.82,1.67,1.29.44.47,1.03,1.3,1.77,2.5l1.88,3.01h-3.72l-2.25-3.35c-.8-1.2-1.35-1.95-1.64-2.27s-.61-.53-.94-.64c-.33-.12-.85-.17-1.57-.17h-.63v6.43h-3.11ZM182.97,76.29h2.3c1.49,0,2.42-.06,2.8-.19s.66-.34.87-.65c.21-.31.32-.69.32-1.16,0-.52-.14-.94-.42-1.26s-.67-.52-1.17-.61c-.25-.04-1.01-.05-2.27-.05h-2.43v3.91Z"/><path d="M195.4,85.18v-15.41h11.43v2.61h-8.32v3.42h7.74v2.6h-7.74v4.2h8.61v2.6h-11.72Z"/></g></svg>