<?xml version="1.0" encoding="UTF-8"?><svg id="Layer_2" xmlns="http://www.w3.org/2000/svg" viewBox="0 0 556.6 350.85"><g id="Layer_1-2"><rect x=".35" width="556.25" height="350.85" style="fill:#f6f6f4;"/><rect y="144.85" width="556.58" height="206" style="fill:#fff;"/><path d="M169.78,191.4l-4.38-18.37h3.8l2.77,12.62,3.36-12.62h4.41l3.22,12.83,2.82-12.83h3.73l-4.46,18.37h-3.93l-3.66-13.73-3.65,13.73h-4.02Z"/><path d="M198.61,187.17l3.51.59c-.45,1.29-1.16,2.27-2.14,2.94-.97.67-2.19,1.01-3.65,1.01-2.31,0-4.03-.76-5.14-2.27-.88-1.21-1.32-2.74-1.32-4.59,0-2.21.58-3.93,1.73-5.18,1.15-1.25,2.61-1.87,4.37-1.87,1.98,0,3.54.65,4.69,1.96,1.14,1.31,1.69,3.31,1.64,6.01h-8.82c.03,1.04.31,1.86.85,2.44.54.58,1.22.87,2.03.87.55,0,1.01-.15,1.39-.45s.66-.79.85-1.45ZM198.81,183.61c-.02-1.02-.29-1.79-.79-2.32-.5-.53-1.11-.8-1.83-.8-.77,0-1.4.28-1.9.84-.5.56-.75,1.32-.74,2.28h5.26Z"/><path d="M205.17,191.4v-18.37h3.52v18.37h-3.52Z"/><path d="M223.9,182.03l-3.47.63c-.12-.69-.38-1.22-.8-1.57-.41-.35-.95-.53-1.61-.53-.88,0-1.58.3-2.1.91s-.78,1.62-.78,3.04c0,1.58.27,2.69.8,3.35.53.65,1.24.98,2.14.98.67,0,1.22-.19,1.64-.57.43-.38.73-1.03.9-1.96l3.46.59c-.36,1.59-1.05,2.79-2.07,3.6s-2.38,1.22-4.1,1.22c-1.95,0-3.5-.61-4.65-1.84-1.16-1.23-1.74-2.93-1.74-5.1s.58-3.91,1.74-5.13c1.16-1.22,2.73-1.84,4.71-1.84,1.62,0,2.91.35,3.87,1.05.96.7,1.64,1.76,2.06,3.19Z"/><path d="M225.75,184.56c0-1.17.29-2.3.86-3.4.58-1.09,1.39-1.93,2.45-2.51,1.06-.58,2.24-.86,3.54-.86,2.01,0,3.66.65,4.95,1.96s1.93,2.96,1.93,4.95-.65,3.68-1.95,5.01c-1.3,1.32-2.93,1.99-4.91,1.99-1.22,0-2.38-.28-3.49-.83-1.11-.55-1.95-1.36-2.52-2.42-.58-1.06-.86-2.36-.86-3.89ZM229.36,184.75c0,1.32.31,2.33.94,3.03s1.4,1.05,2.32,1.05,1.69-.35,2.31-1.05c.62-.7.93-1.72.93-3.06s-.31-2.31-.93-3.01c-.62-.7-1.39-1.05-2.31-1.05s-1.69.35-2.32,1.05-.94,1.71-.94,3.03Z"/><path d="M241.98,178.1h3.24v1.82c1.16-1.41,2.54-2.12,4.15-2.12.85,0,1.59.18,2.22.53.63.35,1.14.88,1.54,1.59.58-.71,1.22-1.24,1.89-1.59.68-.35,1.4-.53,2.17-.53.98,0,1.8.2,2.48.6.68.4,1.18.98,1.52,1.75.24.57.36,1.49.36,2.76v8.51h-3.52v-7.6c0-1.32-.12-2.17-.36-2.56-.33-.5-.83-.75-1.5-.75-.49,0-.96.15-1.39.45-.43.3-.75.74-.94,1.32-.19.58-.29,1.5-.29,2.75v6.39h-3.52v-7.29c0-1.29-.06-2.13-.19-2.51-.13-.38-.32-.66-.58-.84-.26-.18-.62-.28-1.07-.28-.54,0-1.03.15-1.47.44-.43.29-.75.71-.93,1.27s-.28,1.47-.28,2.74v6.46h-3.52v-13.31Z"/><path d="M272.76,187.17l3.51.59c-.45,1.29-1.16,2.27-2.14,2.94-.97.67-2.19,1.01-3.65,1.01-2.31,0-4.03-.76-5.14-2.27-.88-1.21-1.32-2.74-1.32-4.59,0-2.21.58-3.93,1.73-5.18,1.15-1.25,2.61-1.87,4.37-1.87,1.98,0,3.54.65,4.69,1.96,1.14,1.31,1.69,3.31,1.64,6.01h-8.82c.03,1.04.31,1.86.85,2.44.54.58,1.22.87,2.03.87.55,0,1.01-.15,1.39-.45s.66-.79.85-1.45ZM272.96,183.61c-.02-1.02-.29-1.79-.79-2.32-.5-.53-1.11-.8-1.83-.8-.77,0-1.4.28-1.9.84-.5.56-.75,1.32-.74,2.28h5.26Z"/><path d="M292.56,178.1v2.81h-2.41v5.36c0,1.09.02,1.72.07,1.9.05.18.15.33.31.44.16.12.36.18.59.18.33,0,.8-.11,1.42-.34l.3,2.73c-.82.35-1.75.53-2.78.53-.63,0-1.21-.11-1.72-.32-.51-.21-.88-.49-1.12-.83-.24-.34-.4-.8-.5-1.37-.08-.41-.11-1.24-.11-2.48v-5.8h-1.62v-2.81h1.62v-2.64l3.53-2.05v4.7h2.41Z"/><path d="M294.18,184.56c0-1.17.29-2.3.86-3.4.58-1.09,1.39-1.93,2.45-2.51,1.06-.58,2.24-.86,3.54-.86,2.01,0,3.66.65,4.95,1.96s1.93,2.96,1.93,4.95-.65,3.68-1.95,5.01c-1.3,1.32-2.93,1.99-4.91,1.99-1.22,0-2.38-.28-3.49-.83-1.11-.55-1.95-1.36-2.52-2.42-.58-1.06-.86-2.36-.86-3.89ZM297.79,184.75c0,1.32.31,2.33.94,3.03s1.4,1.05,2.32,1.05,1.69-.35,2.31-1.05c.62-.7.93-1.72.93-3.06s-.31-2.31-.93-3.01c-.62-.7-1.39-1.05-2.31-1.05s-1.69.35-2.32,1.05-.94,1.71-.94,3.03Z"/><path d="M317.93,191.4v-18.22h3.71v15.12h9.22v3.09h-12.93Z"/><path d="M333.47,176.29v-3.26h3.52v3.26h-3.52ZM333.47,191.4v-13.31h3.52v13.31h-3.52Z"/><path d="M339.36,187.61l3.53-.54c.15.69.46,1.21.91,1.56s1.1.53,1.93.53c.91,0,1.6-.17,2.05-.5.31-.23.46-.55.46-.94,0-.27-.08-.49-.25-.66-.18-.17-.57-.32-1.18-.46-2.84-.63-4.64-1.2-5.4-1.72-1.05-.72-1.58-1.72-1.58-2.99,0-1.15.46-2.12,1.37-2.91.91-.79,2.32-1.18,4.23-1.18s3.17.3,4.06.89c.89.59,1.5,1.47,1.83,2.63l-3.32.61c-.14-.52-.41-.91-.81-1.19-.4-.28-.96-.41-1.7-.41-.93,0-1.59.13-1.99.39-.27.18-.4.42-.4.71,0,.25.12.46.35.64.32.23,1.41.56,3.29.99,1.88.43,3.18.95,3.93,1.57.73.63,1.1,1.5,1.1,2.62,0,1.22-.51,2.27-1.53,3.15s-2.53,1.32-4.52,1.32c-1.81,0-3.25-.37-4.3-1.1s-1.75-1.73-2.07-2.99Z"/><path d="M360.97,178.1v2.81h-2.41v5.36c0,1.09.02,1.72.07,1.9.05.18.15.33.31.44.16.12.36.18.59.18.33,0,.8-.11,1.42-.34l.3,2.73c-.82.35-1.75.53-2.78.53-.63,0-1.21-.11-1.72-.32-.51-.21-.88-.49-1.12-.83-.24-.34-.4-.8-.5-1.37-.08-.41-.11-1.24-.11-2.48v-5.8h-1.62v-2.81h1.62v-2.64l3.53-2.05v4.7h2.41Z"/><rect x="79.58" y="217.85" width="373" height="42" rx="9.68" ry="9.68" style="fill:#f6f6f4;"/><rect x="79.58" y="278.85" width="373" height="42"/><path d="M230.46,302.61l2.63-.26c.16.88.48,1.53.96,1.94s1.14.62,1.96.62c.87,0,1.53-.18,1.97-.55.44-.37.66-.8.66-1.29,0-.32-.09-.59-.28-.81-.19-.22-.51-.42-.97-.58-.32-.11-1.04-.3-2.16-.58-1.45-.36-2.46-.8-3.05-1.32-.82-.74-1.23-1.63-1.23-2.69,0-.68.19-1.32.58-1.91.39-.59.94-1.04,1.67-1.35.73-.31,1.6-.47,2.63-.47,1.68,0,2.94.37,3.79,1.1s1.29,1.72,1.34,2.95l-2.7.12c-.12-.69-.36-1.18-.74-1.48-.38-.3-.95-.45-1.71-.45s-1.4.16-1.84.48c-.29.21-.43.48-.43.83,0,.32.13.59.4.81.34.29,1.17.58,2.48.89,1.31.31,2.29.63,2.92.96s1.12.78,1.48,1.36c.36.57.53,1.29.53,2.13,0,.77-.21,1.48-.64,2.15-.43.67-1.03,1.17-1.81,1.49-.78.33-1.75.49-2.91.49-1.69,0-2.99-.39-3.9-1.17-.91-.78-1.45-1.92-1.62-3.42Z" style="fill:#fff;"/><path d="M243.59,293.58h2.7v7.24c0,1.15.03,1.9.1,2.24.12.55.39.99.83,1.32.44.33,1.03.5,1.78.5s1.34-.16,1.73-.47c.39-.31.62-.7.7-1.15.08-.46.12-1.21.12-2.27v-7.4h2.7v7.03c0,1.61-.07,2.74-.22,3.4-.15.66-.42,1.22-.81,1.68-.39.46-.92.82-1.57,1.09-.66.27-1.51.41-2.57.41-1.28,0-2.25-.15-2.91-.44s-1.18-.68-1.56-1.15c-.38-.47-.64-.97-.76-1.48-.18-.77-.26-1.9-.26-3.39v-7.13Z" style="fill:#fff;"/><path d="M257.11,293.58h5.35c1.06,0,1.85.04,2.37.13s.99.27,1.4.55c.41.28.75.65,1.03,1.12.27.47.41.99.41,1.56,0,.63-.17,1.2-.51,1.72-.34.52-.79.92-1.37,1.18.82.24,1.44.64,1.88,1.21.44.57.66,1.24.66,2.02,0,.61-.14,1.2-.42,1.77-.28.57-.67,1.03-1.16,1.38-.49.34-1.09.56-1.81.63-.45.05-1.54.08-3.26.09h-4.55v-13.38ZM259.81,295.81v3.09h1.77c1.05,0,1.71-.02,1.96-.05.46-.05.83-.21,1.09-.48s.4-.61.4-1.04-.11-.75-.34-1.01c-.23-.26-.57-.42-1.02-.47-.27-.03-1.04-.05-2.31-.05h-1.55ZM259.81,301.13v3.58h2.5c.97,0,1.59-.03,1.85-.08.4-.07.73-.25.98-.53.25-.28.38-.66.38-1.14,0-.4-.1-.74-.29-1.02-.2-.28-.48-.48-.84-.61-.37-.13-1.17-.19-2.4-.19h-2.18Z" style="fill:#fff;"/><path d="M270.56,306.96v-13.38h4.04l2.43,9.12,2.4-9.12h4.05v13.38h-2.51v-10.53l-2.66,10.53h-2.6l-2.65-10.53v10.53h-2.51Z" style="fill:#fff;"/><path d="M286.08,306.96v-13.38h2.7v13.38h-2.7Z" style="fill:#fff;"/><path d="M294.36,306.96v-11.11h-3.97v-2.26h10.63v2.26h-3.96v11.11h-2.7Z" style="fill:#fff;"/><rect x="242.58" y="52.18" width="50.86" height="50.85" rx="7.77" ry="7.77" style="fill:#fff;"/><rect x="263.59" y="37.13" width="50.86" height="50.85" rx="7.77" ry="7.77" style="fill:#d0d0d0;"/></g></svg>