<?xml version="1.0" encoding="UTF-8" standalone="no"?>
<svg
   id="Layer_2"
   viewBox="0 0 96.06 96.06"
   version="1.1"
   sodipodi:docname="instagram.svg"
   width="96.059998"
   height="96.059998"
   xmlns:inkscape="http://www.inkscape.org/namespaces/inkscape"
   xmlns:sodipodi="http://sodipodi.sourceforge.net/DTD/sodipodi-0.dtd"
   xmlns="http://www.w3.org/2000/svg"
   xmlns:svg="http://www.w3.org/2000/svg">
  <defs
     id="defs3" />
  <sodipodi:namedview
     id="namedview3"
     pagecolor="#ffffff"
     bordercolor="#000000"
     borderopacity="0.25"
     inkscape:showpageshadow="2"
     inkscape:pageopacity="0.0"
     inkscape:pagecheckerboard="0"
     inkscape:deskcolor="#d1d1d1">
    <inkscape:page
       x="0"
       y="0"
       width="96.059998"
       height="96.059998"
       id="page1"
       margin="0"
       bleed="0" />
  </sodipodi:namedview>
  <g
     id="Layer_1-2"
     inkscape:export-filename="instagram.svg"
     inkscape:export-xdpi="96"
     inkscape:export-ydpi="96">
    <circle
       cx="48.029999"
       cy="48.029999"
       r="48.029999"
       id="circle1"
       style="fill:#241b16;fill-opacity:1"
       inkscape:export-filename="circle1.svg"
       inkscape:export-xdpi="96"
       inkscape:export-ydpi="96" />
    <path
       d="m 48.03,61.13 c 7.23,0 13.1,-5.86 13.1,-13.1 0,-7.24 -5.86,-13.1 -13.1,-13.1 -7.24,0 -13.1,5.86 -13.1,13.1 0,7.24 5.86,13.1 13.1,13.1 z m 0,-4.37 c 4.82,0 8.73,-3.91 8.73,-8.73 0,-4.82 -3.91,-8.73 -8.73,-8.73 -4.82,0 -8.73,3.91 -8.73,8.73 0,4.82 3.91,8.73 8.73,8.73 z"
       style="fill:#ffffff;fill-rule:evenodd"
       id="path1" />
    <path
       d="m 61.13,32.75 c -1.21,0 -2.18,0.98 -2.18,2.18 0,1.2 0.98,2.18 2.18,2.18 1.2,0 2.18,-0.98 2.18,-2.18 0,-1.2 -0.98,-2.18 -2.18,-2.18 z"
       style="fill:#ffffff"
       id="path2" />
    <path
       d="m 25.44,31.17 c -1.43,2.8 -1.43,6.47 -1.43,13.81 v 6.11 c 0,7.34 0,11 1.43,13.81 1.26,2.46 3.26,4.47 5.72,5.72 2.8,1.43 6.47,1.43 13.81,1.43 h 6.11 c 7.34,0 11,0 13.81,-1.43 2.46,-1.26 4.47,-3.26 5.72,-5.72 1.43,-2.8 1.43,-6.47 1.43,-13.81 v -6.11 c 0,-7.34 0,-11 -1.43,-13.81 -1.26,-2.46 -3.26,-4.47 -5.72,-5.72 -2.8,-1.43 -6.47,-1.43 -13.81,-1.43 h -6.11 c -7.34,0 -11,0 -13.81,1.43 -2.46,1.26 -4.47,3.26 -5.72,5.72 z m 25.64,-2.79 h -6.11 c -3.74,0 -6.28,0 -8.25,0.16 -1.91,0.16 -2.89,0.44 -3.58,0.79 -1.64,0.84 -2.98,2.17 -3.82,3.82 -0.35,0.68 -0.63,1.66 -0.79,3.58 -0.16,1.97 -0.16,4.51 -0.16,8.25 v 6.11 c 0,3.74 0,6.28 0.16,8.25 0.16,1.91 0.44,2.89 0.79,3.58 0.84,1.64 2.17,2.98 3.82,3.82 0.68,0.35 1.66,0.63 3.58,0.79 1.97,0.16 4.51,0.16 8.25,0.16 h 6.11 c 3.74,0 6.28,0 8.25,-0.16 1.91,-0.16 2.89,-0.44 3.58,-0.79 1.64,-0.84 2.98,-2.17 3.82,-3.82 0.35,-0.68 0.63,-1.66 0.79,-3.58 0.16,-1.97 0.16,-4.51 0.16,-8.25 v -6.11 c 0,-3.74 0,-6.28 -0.16,-8.25 -0.16,-1.91 -0.44,-2.89 -0.79,-3.58 -0.84,-1.64 -2.17,-2.98 -3.82,-3.82 -0.68,-0.35 -1.66,-0.63 -3.58,-0.79 -1.97,-0.16 -4.51,-0.16 -8.25,-0.16 z"
       style="fill:#ffffff;fill-rule:evenodd"
       id="path3" />
  </g>
</svg>
